<svg width="480" height="620" viewBox="0 0 480 620" fill="none" xmlns="http://www.w3.org/2000/svg">
<rect width="480" height="620" fill="#FFF9F9" fill-opacity="0.82"/>
<path d="M430 345.465C430 494.263 322.216 592.473 240 542.907C166.666 591.552 50 499.985 50 345.465C50 255.384 140.002 216.699 233.334 239.589C339.998 216.699 430 255.384 430 345.465Z" fill="#D10008"/>
<path d="M225.556 239.589C225.595 239.158 222.532 194.306 198.892 169.957C171.828 142.078 126.075 144.969 125.691 145.016C116.581 146.119 108.137 140.693 106.837 132.872C105.537 125.052 111.866 117.803 120.976 116.686C123.255 116.411 177.296 110.298 216.132 150.309C248.624 183.776 243.501 238.513 243.266 240.833C242.514 248.277 224.757 247.463 225.556 239.589Z" fill="#8D4706"/>
<path d="M364.131 171.82C322.099 212.691 243.4 212.012 243.4 212.012C243.4 212.012 232.864 145.064 274.896 104.193C316.929 63.3215 395.628 64.0007 395.628 64.0007C395.628 64.0007 406.164 130.949 364.131 171.82Z" fill="#50A822"/>
<path d="M395.628 64.0003L243.4 212.012C243.4 212.012 322.091 212.697 364.131 171.82C406.172 130.949 395.628 64.0003 395.628 64.0003Z" fill="#578D38"/>
<path d="M368.878 362.598C368.878 306.308 332.102 257.55 278.398 233.523C263.867 234.29 248.789 236.267 233.334 239.589C140.002 216.699 50 255.384 50 345.465C50 386.309 58.1543 421.955 71.5019 451.394C101.894 485.568 149.371 507.584 202.761 507.584C294.511 507.584 368.878 442.673 368.878 362.598Z" fill="#ED1C24"/>
<path d="M205.981 355.377C193.667 387.331 159.93 406.482 130.626 398.164C101.323 389.846 87.552 357.192 99.8735 325.238C112.187 293.283 145.924 274.132 175.228 282.457C204.532 290.775 218.302 323.422 205.981 355.377Z" fill="#FF787F"/>
</svg>
