<svg width="480" height="620" viewBox="0 0 480 620" fill="none" xmlns="http://www.w3.org/2000/svg">
<rect width="480" height="620" fill="#FFF9F9" fill-opacity="0.82"/>
<path d="M360.516 134.476L385.894 199.512C385.894 199.512 400.825 198.969 411.77 214.686C422.72 230.403 454.749 337.168 404.806 420.621C339.614 529.553 286.369 488.362 286.369 488.362L274.925 469.934C274.925 469.934 287.367 445.003 305.282 426.037C323.196 407.071 361.015 380.516 355.543 303.017C350.07 225.519 354.545 233.108 353.053 222.27C350.987 207.266 361.514 203.304 361.514 203.304L345.59 134.476H360.516Z" fill="#E8BE17"/>
<path d="M393.362 412.493C443.305 335.044 411.276 235.962 400.331 221.375C389.381 206.789 374.455 207.294 374.455 207.294L360.355 134.295L345.343 134.476L361.519 203.304C361.519 203.304 350.992 207.266 353.058 222.27C354.55 233.108 350.075 225.519 355.547 303.017C361.02 380.516 323.201 407.071 305.286 426.037C287.372 445.003 274.93 469.934 274.93 469.934L280.005 478.1C294.755 484.674 340.062 495.145 393.362 412.493Z" fill="#FFE342"/>
<path d="M302.787 214.142C273.922 220.645 279.894 280.259 207.738 312.231C122.746 349.894 87.3107 353.96 77.3533 365.342C67.4008 376.724 50.978 389.73 50.978 389.73L51.4769 418.996C51.4769 418.996 63.9188 415.747 71.3818 421.707C78.8449 427.667 83.3247 436.338 118.161 436.881C152.997 437.424 265.341 426.01 317.214 343.665C363.993 269.421 352.549 227.692 344.582 219.559C336.62 211.431 335.129 213.599 334.131 208.721C333.133 203.842 331.143 124.176 331.143 124.176L311.238 127.968C311.248 127.973 316.725 209.264 302.787 214.142Z" fill="#E8BE17"/>
<path d="M382.391 238.228C379.02 228.515 374.303 217.611 364.87 212.299C358.334 187.823 345.313 133.033 346.084 131.771L329.661 130.146L332.423 213.352C324.889 217.649 324.098 224.838 321.699 235.281C318.217 250.455 321.2 280.803 267.457 336.625C202.063 404.541 162.954 407.62 142.052 429.297C132.805 438.89 117.506 449.541 117.168 461.274C116.669 478.616 114.185 480.783 159.966 491.622C183.232 497.132 241.158 489.926 323.69 417.377C406.297 344.746 387.39 252.617 382.391 238.228Z" fill="#E8BE17"/>
<path d="M316.726 393.522C363.615 352.303 371.965 302.474 374.45 271.583C376.158 250.356 376.108 219.916 358.193 212.331C354.711 185.052 348.573 142.966 346.83 131.765L330.528 130.223L332.423 213.341C324.889 217.638 324.098 224.827 321.699 235.27C318.217 250.444 321.2 280.792 267.457 336.613C202.064 404.53 124.041 438.544 117.667 446.084C125.13 462.344 143.679 463.969 159.966 465.593C183.675 467.969 234.194 466.076 316.726 393.522Z" fill="#FFE342"/>
<path d="M331.153 124L311.248 127.973C311.248 127.973 312.619 151.412 312.367 161.575C312.12 171.738 311.626 184.124 311.626 184.124C310.573 199.391 308.083 212.288 302.787 214.142C273.922 220.646 279.894 280.259 207.738 312.231C122.746 349.894 108.042 344.565 89.135 355.047C70.1876 365.545 50.8169 388.83 50.8169 388.83L51.482 394.609C57.8616 397.813 65.0173 398.659 83.3298 398.944C118.166 399.487 230.228 377.185 282.882 295.433C300.293 268.4 322.747 244.457 320.203 215.586C337.129 199.869 331.153 124 331.153 124Z" fill="#FFE342"/>
<path d="M298.353 335.675C293.893 333.294 311.958 320.463 324.294 295.159C337.034 270.096 337.054 246.603 341.322 249.374C345.368 251.509 352.091 278.981 339.347 304.049C327.011 329.348 302.208 338.205 298.353 335.675Z" fill="#FFEF94"/>
<path d="M242.407 306.99C240.8 305.009 254.063 296.64 264.968 283.146C276.392 269.009 284.208 250.993 286.863 251.712C291.227 252.897 284.208 279.892 271.932 293.984C259.662 308.077 245.083 310.931 242.407 306.99Z" fill="#FFEF94"/>
<path d="M52.2278 419.54C54.5628 419.54 56.4557 412.26 56.4557 403.279C56.4557 394.299 54.5628 387.019 52.2278 387.019C49.8928 387.019 48 394.299 48 403.279C48 412.26 49.8928 419.54 52.2278 419.54Z" fill="#4B3925"/>
<path d="M119.909 476.986C122.795 476.986 125.135 469.706 125.135 460.726C125.135 451.745 122.795 444.465 119.909 444.465C117.023 444.465 114.684 451.745 114.684 460.726C114.684 469.706 117.023 476.986 119.909 476.986Z" fill="#4B3925"/>
<path d="M286.647 475.032C289.312 480.86 289.383 486.721 286.803 488.126C284.223 489.531 279.965 485.942 277.294 480.109C274.623 474.275 274.557 468.42 277.137 467.015C279.723 465.615 283.981 469.204 286.647 475.032Z" fill="#4B3925"/>
</svg>
