<svg width="480" height="620" viewBox="0 0 480 620" fill="none" xmlns="http://www.w3.org/2000/svg">
<rect width="480" height="620" fill="#FFF9F9" fill-opacity="0.82"/>
<path d="M331.462 292.826L328.247 314.554L326.634 336.291L322.34 352.411L323.415 375.549L327.168 406.397L328.781 424.625L333.068 430.936L343.258 437.246L347.552 442.858V450.579L334.677 453.38L317.508 452.682L305.171 448.471L302.49 437.251L296.59 434.449L295.518 426.738L292.296 424.63L291.224 417.631C291.224 417.631 290.686 410.614 290.149 408.51C289.615 406.402 281.034 374.162 281.034 374.162L292.834 320.864L314.293 280.904L331.462 292.826Z" fill="#5B2A15"/>
<path d="M299.686 372.579L292.444 392.033L289.579 406.3C287.54 398.56 281.045 374.163 281.045 374.163L292.844 320.865L313.727 281.975C314.376 281.947 315.026 281.895 315.683 281.862L331.466 292.823L328.251 314.55L326.638 336.287L322.344 352.407L323.419 375.545L325.487 392.486C322.935 386.407 320.597 380.988 320.597 380.988L312.153 366.782L299.686 372.579Z" fill="#442115"/>
<path d="M392.077 207.288L392.889 198.874L391.013 192.564L386.719 188.357L382.695 188.008L375.186 192.215L391.55 206.939L392.077 207.288Z" fill="#442115"/>
<path d="M150.689 344.714L142.635 374.855L134.054 395.192L127.082 412.712L128.154 424.63L138.344 433.053L145.857 439.359L148.538 447.07L141.029 450.579H131.91H120.645L106.16 444.264L101.863 423.229L109.379 381.864L129.767 335.593L150.689 344.714Z" fill="#442115"/>
<path d="M434.466 266.887L430.172 264.779L414.616 245.848L407.11 222.012L393.701 205.185L377.604 189.056L358.287 184.151L342.735 186.254L321.275 178.543L286.407 154L271.919 154.698L226.318 168.026L186.091 171.525L131.906 165.918L116.35 168.724L81.478 205.18L46.0753 257.059L45 317.36L47.1434 370.648L59.4843 401.497L65.9219 442.858L74.4992 461.086L83.625 465.996H108.296C109.371 463.195 122.25 465.298 122.25 465.298L128.146 463.897L124.928 449.876L111.519 444.966L108.293 433.747L108.83 419.027L129.756 356.622L139.946 353.123L156.57 356.622L169.983 346.813L190.909 350.312L213.974 354.524L233.824 339.795V359.433L236.505 394.494L240.262 403.605L238.649 409.213L240.799 413.415L244.556 415.523L246.158 422.531L248.308 430.94L246.699 436.548L248.846 442.858L251.527 458.988L267.621 461.798L285.862 463.199L298.199 458.29V449.169L291.762 442.858L283.184 438.656L278.894 428.837L282.109 403.596L291.231 346.808L308.934 311.748L315.906 297.717L333.606 299.83L338.971 314.544L351.846 312.446L370.087 304.032L380.278 292.817L393.694 292.119L412.461 293.524L417.293 292.822L419.971 287.912L426.95 285.111L434.993 273.891L434.466 266.887Z" fill="#6B331F"/>
<path d="M45.0071 317.365L46.0824 257.064L81.4852 205.186L116.357 168.729L131.914 165.923L186.098 171.531L226.326 168.031L271.926 154.703L286.414 154.005L321.283 178.549L342.742 186.26L358.295 184.156L377.611 189.061L393.708 205.19L404.913 219.254L403.895 229.026L392.626 235.341L387.264 240.949L382.973 236.039L386.192 221.315V212.199L371.173 209.393L358.832 213.604L341.129 205.884L319.139 199.578L307.332 189.056L298.755 191.862L291.242 198.871L285.339 189.754L279.439 178.539L263.348 170.125L248.326 177.129C248.326 177.129 222.58 183.439 220.967 183.439C219.361 183.439 175.908 191.15 175.908 191.15L159.814 216.396L146.398 213.595L122.257 203.776L105.629 199.569L84.7112 217.802L70.2231 247.948L67.0007 279.499L66.4703 304.74L73.9796 330.679L74.5099 353.817L67.5348 376.247L64.8537 393.787L70.2195 422.527L73.4419 437.247L76.6642 450.575L75.6791 461.71L74.5136 461.082L65.9363 442.854L59.4988 401.493L47.1578 370.644L45.0071 317.365Z" fill="#5B2A15"/>
<path d="M74.0299 216.113L81.4814 205.186L116.354 168.729L131.91 165.919L186.091 171.531L226.322 168.032L271.919 154.703L286.407 154.005L321.275 178.549L342.735 186.255L358.287 184.152L377.604 189.056L393.697 205.186L403.527 217.528L399.059 217.104L387.253 201.686L375.99 191.872L363.646 189.066H335.756L321.813 186.962L313.228 178.549L284.794 161.721L270.85 160.316L235.441 170.135L215.594 174.337L173.212 175.04L141.562 172.238L117.425 175.04L102.407 187.656L79.3344 212.199L74.0299 216.113Z" fill="#723B1F"/>
<path d="M304.514 310.531V294.227L304.911 272.145V258.473L314.163 253.205L331.462 263.203L341.523 275.824L351.179 265.835L363.65 255.318L374.515 246.899L369.286 257.945L374.916 273.721L385.377 271.089L395.441 265.835L405.494 252.163L411.184 234.963L414.612 245.848L416.583 248.243L403.484 278.984L396.523 292.34L393.698 292.128L380.285 292.826L370.095 304.041L351.854 312.455L338.975 314.558L333.609 299.839L315.91 297.726L308.938 311.757L303.334 322.854L304.514 310.531Z" fill="#5B2A15"/>
<path d="M404.96 234.983L405.227 237.435L403.617 238.492L404.418 242.345L404.96 244.094L403.617 244.797L397.183 238.841L399.327 237.435L404.96 234.983Z" fill="#442115"/>
<path d="M382.385 292.717L386.719 280.908L393.156 274.597L402.275 264.08L408.716 250.762L412.602 239.462L414.612 245.847L430.172 264.778L434.466 266.886L435 273.895L426.953 285.114L419.978 287.916L417.301 292.825L412.469 293.533L393.698 292.127L382.385 292.717Z" fill="#723B1F"/>
<path d="M387.79 216.405C387.79 215.349 386.719 209.039 386.719 209.039L379.743 201.332L374.114 202.03L369.019 207.289L368.211 217.103L369.82 222.711L374.655 222.013L381.627 218.504L387.79 216.405Z" fill="#5B2A15"/>
<path d="M374.554 222.03L369.82 222.714L368.211 217.107L369.019 207.292L374.114 202.034L379.743 201.336L386.719 209.042C386.719 209.042 387.79 215.352 387.79 216.409L386.621 216.805L384.034 209.74L380.014 204.486H374.919L372.772 210.094L374.114 219.554L374.554 222.03Z" fill="#442115"/>
<path d="M428.826 267.581L430.641 265.006L434.466 266.888L435 273.896L431.767 278.395L430.439 275.297L430.706 271.448L428.566 270.736L428.826 267.581Z" fill="#5B2A15"/>
<path d="M406.832 282.31L415.42 285.465L423.363 286.564L419.978 287.918L419.848 288.158L416.229 287.22L413.006 286.517L408.716 285.465L404.155 284.763L400.131 285.107L398.522 283.716L400.131 281.258L406.832 282.31Z" fill="#5B2A15"/>
<path d="M169.994 346.813L156.585 356.622L139.957 353.123L129.767 356.622L116.451 396.333L115.012 390.457L114.611 365.211L115.813 342.078L121.449 310.007L119.84 282.135L123.863 278.984L131.91 288.44L162.889 304.744L189.44 311.583L212.372 306.848L226.055 294.751L244.162 275.296L249.795 277.928L248.991 289.497L254.623 308.946L263.876 319.992L276.747 330.509L283.989 349.44L287.212 371.87L282.113 403.601L278.898 428.842L283.188 438.661L291.765 442.863L298.207 449.169V458.29L285.869 463.199L267.628 461.799L251.535 458.993L248.853 442.863L246.706 436.553L248.316 430.941L246.169 422.532L244.563 415.523L240.807 413.41L238.66 409.213L240.273 403.601L236.516 394.494L233.835 359.433V339.795L213.985 354.524L190.919 350.317L169.994 346.813Z" fill="#5B2A15"/>
<path d="M105.756 456.714L108.303 466H105.828L104.15 459.864L99.3182 454.606C100.123 451.979 105.756 456.714 105.756 456.714Z" fill="#5B2A15"/>
<path d="M118.634 454.085L121.853 460.919L121.633 465.211C121.038 465.116 120.038 464.989 118.847 464.862L118.234 458.82L113.409 453.562L109.786 451.986C110.183 449.883 118.634 454.085 118.634 454.085Z" fill="#5B2A15"/>
<path d="M136.334 339.98L139.556 326.303L151.219 328.93L181.396 332.614L200.709 335.241L223.637 330.515L237.717 323.153L242.95 338.396L240.936 351.54L241.337 379.936L245.357 402.027L252.602 418.331L250.188 434.102L247.724 439.582L246.699 436.55L248.308 430.942L246.158 422.533L244.556 415.525L240.799 413.417L238.648 409.214L240.261 403.607L236.505 394.495L233.824 359.435V339.796L213.974 354.525L190.908 350.314L169.983 346.814L156.57 356.624L139.946 353.125L131.127 356.157C132.812 350.842 136.334 339.98 136.334 339.98Z" fill="#442115"/>
<path d="M258.394 460.187L251.534 458.994L249.575 447.203L255.02 450.924L258.394 460.187Z" fill="#442115"/>
<path d="M283.166 462.987L279.111 462.676L278.761 457.238L272.724 450.923L271.522 447.773L281.575 453.031L283.166 462.987Z" fill="#442115"/>
<path d="M281.575 448.294C281.983 446.196 290.023 450.403 290.023 450.403L293.245 455.128L294.277 459.854L291.769 460.849L290.831 455.128L284.794 449.351L281.575 448.294Z" fill="#442115"/>
</svg>
