<svg width="480" height="620" viewBox="0 0 480 620" fill="none" xmlns="http://www.w3.org/2000/svg">
<rect width="480" height="620" fill="#FFF9F9" fill-opacity="0.82"/>
<path d="M281.59 324.88L282.616 449.569L432.624 380.611V340.034L281.59 324.88Z" fill="#6F3D28"/>
<path d="M282.616 450C282.538 450 282.462 449.975 282.4 449.93C282.288 449.851 282.218 449.72 282.218 449.574L281.194 324.889C281.192 324.768 281.239 324.653 281.325 324.569C281.405 324.488 281.517 324.449 281.627 324.457L432.658 339.611C432.864 339.633 433.017 339.815 433.017 340.036V380.611C433.017 380.782 432.923 380.936 432.778 381.006L282.772 449.966C282.72 449.989 282.665 450 282.616 450ZM281.991 325.351L283.007 448.925L432.226 380.328V340.428L281.991 325.351Z" fill="#553211"/>
<path d="M53.6951 312.297V359.039L64.8252 363.623L282.611 449.568L282.153 393.835C274.709 390.931 61.037 315.486 53.6951 312.297Z" fill="#B77C48"/>
<path d="M282.614 450C282.568 450 282.521 449.989 282.477 449.972L64.6904 364.03L53.5576 359.435C53.404 359.37 53.3025 359.214 53.3025 359.04V312.297C53.3025 312.157 53.3676 312.026 53.477 311.945C53.5863 311.863 53.7243 311.849 53.8467 311.903C58.2232 313.804 136.874 341.717 200.069 364.144C242.58 379.236 279.29 392.265 282.292 393.435C282.445 393.497 282.552 393.656 282.552 393.833L283.013 449.572C283.013 449.706 282.948 449.84 282.841 449.922C282.776 449.972 282.693 450 282.614 450ZM54.094 358.743L64.9664 363.226L282.211 448.956L281.76 394.138C277.34 392.466 241.348 379.695 199.822 364.956C138.394 343.153 62.3629 316.17 54.094 312.913V358.743Z" fill="#5B3512"/>
<path d="M59.2734 330.511V353.065L64.642 355.274L277.039 443.94V418.486C273.443 417.083 62.8169 332.048 59.2734 330.511Z" fill="#6F3D28"/>
<path d="M277.039 444.366C276.992 444.366 276.942 444.358 276.896 444.338L64.5013 355.671L59.1329 353.462C58.9793 353.395 58.8777 353.238 58.8777 353.065V330.511C58.8777 330.368 58.9428 330.237 59.0522 330.153C59.1589 330.071 59.2995 330.06 59.4219 330.113C63.3142 331.805 275.672 417.495 277.177 418.08C277.336 418.144 277.437 418.301 277.437 418.483V443.938C277.437 444.078 277.372 444.209 277.263 444.291C277.198 444.344 277.119 444.366 277.039 444.366ZM59.6718 352.768L64.7851 354.879L276.643 443.316V418.783C268.364 415.462 71.9501 336.2 59.6718 331.133V352.768Z" fill="#553211"/>
<path d="M189.957 262.373L45.396 300.165V317.407L282.615 415.19V291.485L189.957 262.373Z" fill="#B77C48"/>
<path d="M282.615 415.616C282.566 415.616 282.516 415.61 282.469 415.591L45.2556 317.807C45.102 317.743 45.0005 317.586 45.0005 317.407V300.162C45.0005 299.963 45.1255 299.795 45.3025 299.745L189.861 261.959C189.927 261.939 189.999 261.942 190.067 261.962L282.724 291.07C282.894 291.123 283.011 291.289 283.011 291.482V415.187C283.011 415.327 282.943 415.459 282.836 415.537C282.771 415.593 282.693 415.616 282.615 415.616ZM45.792 317.116L282.217 414.572V291.809L189.947 262.821L45.792 300.503V317.116Z" fill="#5B3512"/>
<path d="M47.484 315.547L45.396 300.164V317.407L282.615 415.19L47.484 315.547Z" fill="#B77C48"/>
<path d="M434.605 339.236L282.615 291.485V415.191L434.605 354.991V339.236Z" fill="#8C4E33"/>
<path d="M282.615 415.616C282.534 415.616 282.453 415.594 282.388 415.541C282.279 415.462 282.216 415.331 282.216 415.191V291.485C282.216 291.351 282.274 291.225 282.375 291.143C282.474 291.062 282.607 291.04 282.724 291.076L434.713 338.827C434.885 338.877 435 339.045 435 339.233V354.991C435 355.17 434.896 355.33 434.74 355.392L282.75 415.594C282.706 415.613 282.659 415.616 282.615 415.616ZM283.013 292.056V414.577L434.206 354.692V339.555L283.013 292.056Z" fill="#553211"/>
<path d="M45.396 300.165L205.467 249.015L434.604 339.236L282.081 400.751L45.396 300.165Z" fill="#B77C48"/>
<path d="M282.081 401.182C282.035 401.182 281.982 401.174 281.941 401.151L45.2504 300.562C45.0916 300.498 44.9926 300.327 45.0004 300.145C45.0056 299.966 45.1176 299.809 45.2816 299.756L205.35 248.6C205.433 248.578 205.522 248.578 205.6 248.609L434.737 338.835C434.896 338.891 434.998 339.056 434.998 339.235C434.998 339.412 434.894 339.571 434.74 339.639L282.219 401.157C282.18 401.174 282.131 401.182 282.081 401.182ZM46.612 300.223L282.089 400.294L433.464 339.238L205.454 249.46L46.612 300.223Z" fill="#5B3512"/>
<path d="M58.903 291.978L57.4658 294.761L47.4839 290.37V211.736L209.666 170.431L216.927 173.287L58.903 291.978Z" fill="#B77C48"/>
<path d="M57.4664 295.192C57.4143 295.192 57.3675 295.178 57.3154 295.156L47.3386 290.765C47.1876 290.698 47.0913 290.544 47.0913 290.37V211.736C47.0913 211.537 47.2163 211.369 47.3959 211.319L209.578 170.014C209.654 169.991 209.732 169.997 209.807 170.028L217.069 172.884C217.207 172.937 217.305 173.071 217.326 173.231C217.347 173.388 217.282 173.544 217.16 173.637L59.2108 292.274L57.8153 294.968C57.7398 295.108 57.6044 295.192 57.4664 295.192ZM47.8854 290.085L57.2894 294.223L58.5573 291.77C58.5859 291.714 58.6275 291.664 58.677 291.625L216.077 173.404L209.646 170.873L47.8854 212.078V290.085Z" fill="#5B3512"/>
<path d="M57.4658 303.631L47.4839 299.616V211.736L57.4658 213.447V303.631Z" fill="#B77C48"/>
<path d="M57.4664 304.057C57.4195 304.057 57.3727 304.048 57.3284 304.029L47.3491 300.019C47.1954 299.957 47.0913 299.798 47.0913 299.616V211.736C47.0913 211.613 47.1381 211.495 47.2292 211.414C47.3204 211.333 47.435 211.294 47.5521 211.313L57.5314 213.024C57.7215 213.058 57.8674 213.234 57.8674 213.447V303.628C57.8674 303.768 57.8022 303.897 57.6929 303.978C57.6226 304.031 57.5471 304.057 57.4664 304.057ZM47.8854 299.322L57.0707 303.012V213.808L47.8854 212.237V299.322Z" fill="#5B3512"/>
<path d="M57.4666 303.631V213.447L216.928 173.286V249.015L57.4666 303.631Z" fill="#8C4E33"/>
<path d="M57.4667 304.056C57.3834 304.056 57.3027 304.028 57.2324 303.972C57.1309 303.891 57.071 303.765 57.071 303.631V213.449C57.071 213.251 57.1959 213.077 57.3756 213.029L216.84 172.869C216.96 172.841 217.079 172.872 217.178 172.953C217.272 173.035 217.329 173.158 217.329 173.287V249.015C217.329 249.197 217.217 249.365 217.051 249.418L57.5839 304.037C57.5475 304.051 57.5058 304.056 57.4667 304.056ZM57.8651 213.788V303.046L216.533 248.701V173.83L57.8651 213.788Z" fill="#553211"/>
<path d="M429.124 313.56L217.591 251.112C216.584 250.927 215.573 250.807 214.561 250.84C213.457 250.871 212.361 251.003 211.27 251.148L61.6079 278.23C61.6079 278.23 60.116 295.114 61.6079 300.445L61.6183 300.448C61.7016 301.705 63.045 303.166 67.1169 304.625L279.168 393.547C282.302 393.953 285.445 394.107 288.652 393.524C288.793 393.499 288.928 393.463 289.071 393.435L428.173 338.216C428.283 338.09 428.392 337.967 428.491 337.836C429.064 337.068 429.202 336.382 429.071 335.769C429.566 333.448 430.056 319.49 429.124 313.56Z" fill="#FCF5D1"/>
<path d="M284.189 394.336C282.666 394.336 281.008 394.219 279.118 393.972C279.084 393.969 279.053 393.958 279.024 393.947L66.9735 305.026C63.2973 303.707 61.4098 302.248 61.2301 300.579L61.2275 300.568C59.7305 295.226 61.152 278.885 61.2119 278.191C61.2275 277.997 61.3655 277.841 61.5399 277.81L211.202 250.731C212.277 250.586 213.412 250.446 214.553 250.415L214.883 250.409C215.711 250.409 216.591 250.499 217.661 250.692L429.23 313.148C429.378 313.196 429.49 313.327 429.516 313.49C430.438 319.367 429.972 333.16 429.48 335.775C429.61 336.545 429.384 337.329 428.806 338.107C428.72 338.222 428.631 338.317 428.543 338.424L428.467 338.51C428.423 338.555 428.371 338.597 428.314 338.617L289.214 393.832L288.959 393.897C288.884 393.913 288.8 393.93 288.722 393.944C287.277 394.207 285.793 394.336 284.189 394.336ZM279.266 393.129C281.123 393.367 282.692 393.479 284.189 393.479C285.749 393.479 287.184 393.356 288.584 393.101L289.003 393.012L427.947 337.85L427.962 337.827C428.038 337.746 428.116 337.659 428.181 337.567C428.631 336.965 428.8 336.408 428.681 335.862C428.67 335.8 428.67 335.733 428.681 335.671C429.168 333.392 429.639 319.913 428.769 313.899L217.487 251.521C216.5 251.344 215.662 251.258 214.881 251.258L214.571 251.263C213.464 251.3 212.353 251.431 211.316 251.571L61.9747 278.597C61.7794 280.954 60.6625 295.396 61.9669 300.249C61.9929 300.302 62.0112 300.355 62.0112 300.414C62.071 301.316 63.0266 302.707 67.2443 304.216L279.266 393.129Z" fill="#BFBFBF"/>
<path opacity="0.4" d="M429.124 313.56L217.591 251.112C216.584 250.927 215.573 250.807 214.561 250.84C213.457 250.871 212.361 251.003 211.27 251.148L61.6079 278.23C61.6079 278.23 60.116 295.114 61.6079 300.445L61.6183 300.448C61.7016 301.705 63.045 303.166 67.1169 304.625L279.168 393.547C282.302 393.953 285.445 394.107 288.652 393.524C288.793 393.499 288.928 393.463 289.071 393.435L428.173 338.216C428.283 338.09 428.392 337.967 428.491 337.836C429.064 337.068 429.202 336.382 429.071 335.769C429.566 333.448 430.056 319.49 429.124 313.56Z" fill="#CCCCCC"/>
<path opacity="0.4" d="M429.124 313.56L217.591 251.112C216.584 250.927 215.574 250.807 214.561 250.84C213.457 250.871 212.361 251.003 211.27 251.148L152.024 261.87C148.314 263.642 144.604 265.409 140.87 267.119C134.452 270.057 127.881 272.518 121.406 275.298C114.757 278.151 107.74 281.329 102.223 286.369C93.918 293.971 95.1781 305.941 96.3366 316.881L279.168 393.547C282.302 393.953 285.445 394.107 288.652 393.524C288.793 393.499 288.928 393.463 289.072 393.435L428.173 338.216C428.283 338.09 428.392 337.967 428.491 337.836C429.064 337.068 429.202 336.382 429.072 335.769C429.566 333.448 430.056 319.49 429.124 313.56Z" fill="#BFBFBF"/>
<path opacity="0.4" d="M429.124 313.56L281.59 366.838C281.59 366.838 285.448 394.107 288.656 393.524C288.796 393.499 288.932 393.463 289.075 393.435L428.177 338.216C428.286 338.09 428.395 337.967 428.494 337.835C429.067 337.068 429.205 336.382 429.075 335.769C429.567 333.448 430.056 319.49 429.124 313.56Z" fill="#CCCCCC"/>
<path d="M428.706 312.737L217.593 228.947C216.586 228.763 215.575 228.642 214.563 228.679C213.459 228.709 212.363 228.841 211.272 228.987L62.7894 276.029C61.1154 277.527 60.2328 279.997 67.1217 282.466L279.172 371.388C282.307 371.794 285.449 371.945 288.657 371.365C288.797 371.34 288.933 371.298 289.076 371.276L428.178 316.055C428.287 315.929 428.397 315.811 428.496 315.677C429.352 314.526 429.245 313.565 428.706 312.737Z" fill="#FCF5D1"/>
<path d="M284.19 372.177C282.667 372.177 281.008 372.057 279.118 371.813C279.084 371.805 279.053 371.802 279.024 371.785L66.9737 282.866C63.4069 281.584 61.5245 280.184 61.2407 278.577C61.1236 277.897 61.2511 276.847 62.5321 275.701C62.5737 275.665 62.6206 275.634 62.6726 275.617L211.155 228.583C212.275 228.424 213.41 228.287 214.55 228.253L214.881 228.245C215.709 228.245 216.589 228.34 217.659 228.533L428.84 312.333C428.918 312.37 428.983 312.42 429.03 312.493C429.753 313.61 429.681 314.772 428.803 315.948C428.717 316.055 428.629 316.158 428.54 316.259L428.465 316.351C428.421 316.396 428.368 316.438 428.311 316.458L289.212 371.673L288.957 371.738C288.881 371.754 288.798 371.771 288.72 371.785C287.277 372.048 285.793 372.177 284.19 372.177ZM279.266 370.965C281.123 371.208 282.693 371.318 284.19 371.318C285.749 371.318 287.184 371.192 288.584 370.945L289.004 370.85L427.947 315.688L427.962 315.671C428.038 315.584 428.116 315.5 428.181 315.405C428.811 314.571 428.889 313.845 428.444 313.089L217.456 229.351C216.503 229.185 215.662 229.096 214.883 229.096L214.574 229.104C213.467 229.141 212.355 229.272 211.319 229.412L62.9825 276.407C62.2353 277.096 61.9124 277.771 62.027 278.412C62.178 279.277 63.209 280.612 67.2523 282.06L279.266 370.965Z" fill="#BFBFBF"/>
<g opacity="0.4">
<path d="M428.708 312.737L233.419 235.231C226.377 237.667 219.189 238.815 211.93 240.383C203.911 242.119 196.077 244.972 188.217 247.397C180.26 249.847 172.406 252.52 164.754 255.936C156.735 259.518 148.864 263.463 140.874 267.117C134.456 270.054 127.885 272.515 121.41 275.295C114.761 278.149 107.744 281.327 102.227 286.367C99.5403 288.828 97.8636 291.74 96.8508 294.929L279.174 371.385C282.309 371.791 285.451 371.942 288.659 371.362C288.799 371.337 288.935 371.295 289.078 371.273L428.18 316.052C428.289 315.926 428.399 315.808 428.497 315.674C429.354 314.526 429.247 313.565 428.708 312.737Z" fill="#BFBFBF"/>
</g>
<path d="M229.353 256.955C228.939 256.723 226.208 255.891 224.771 255.639C224.63 249.451 219.655 243.177 214.979 238.579C211.821 235.474 207.981 232.657 203.95 230.316C203.352 229.969 200.227 229.045 197.876 228.407C198.006 227.231 197.793 226.03 197.421 224.842C197.121 223.885 197.184 222.003 195.71 221.614C193.893 221.144 192.464 222.477 191.222 223.317C190.201 224.017 189.485 224.927 188.738 225.808C188.704 225.845 188.605 225.985 188.483 226.158C182.719 226.024 176.717 226.833 171.273 227.376C161.414 228.348 151.648 229.852 142.028 231.854C125.581 235.284 107.851 242.037 94.9376 251.19C94.8855 251.187 94.8439 251.168 94.7866 251.168C93.7348 251.112 92.67 251.061 91.6207 251.039C90.6887 251.017 89.7357 251.579 89.8971 252.411C90.0794 253.357 91.9982 254.603 92.7845 255.163C94.1305 256.121 96.0754 256.507 97.8588 256.39C98.9653 258.414 99.8895 260.649 101.087 262.541C103.298 266.03 106.411 269.152 109.726 271.983C116.055 277.381 125.48 281.811 134.764 282.491C134.967 282.981 135.178 283.474 135.425 283.956C135.868 284.838 136.61 286.755 138.011 286.876C139.492 287.002 140.335 285.37 140.765 283.804C141.028 283.852 141.304 283.888 141.583 283.914C142.033 284.02 142.491 284.107 142.949 284.124C144.616 284.199 146.417 284.006 148.219 283.718C148.578 283.69 148.927 283.667 149.253 283.642C158.839 283.043 168.251 280.814 177.334 278.375C186.684 275.866 195.684 272.949 204.554 269.463C208.879 267.766 215.169 265.613 218.72 262.345C222.43 261.945 226.14 261.046 228.741 259.274C229.288 258.904 230.244 257.457 229.353 256.955Z" fill="#FCF5D1"/>
<path d="M138.173 287.307C138.108 287.307 138.042 287.304 137.977 287.302C136.512 287.176 135.71 285.496 135.231 284.485L135.072 284.157C134.864 283.743 134.676 283.32 134.496 282.897C125.897 282.206 116.332 278.162 109.476 272.313C105.496 268.914 102.728 265.887 100.757 262.779C100.018 261.617 99.3799 260.315 98.7602 259.053C98.3931 258.302 98.0261 257.557 97.6356 256.832C95.7272 256.911 93.8317 256.421 92.5664 255.519L92.3087 255.34C90.9913 254.421 89.6921 253.447 89.5073 252.501C89.4344 252.106 89.5203 251.725 89.765 251.406C90.1373 250.916 90.8299 250.616 91.5771 250.616C92.681 250.633 93.7537 250.684 94.8081 250.745C94.8133 250.745 94.8289 250.745 94.8471 250.748C106.969 242.186 124.127 235.152 141.956 231.434C151.599 229.421 161.448 227.911 171.238 226.945C172.263 226.845 173.31 226.735 174.372 226.621C178.926 226.136 183.656 225.638 188.291 225.727C188.366 225.615 188.426 225.54 188.452 225.512L188.673 225.249C189.348 224.445 190.048 223.616 191.012 222.958C191.186 222.838 191.363 222.709 191.545 222.58C192.511 221.88 193.61 221.085 194.951 221.085C195.234 221.085 195.521 221.121 195.805 221.194C197.192 221.558 197.45 222.961 197.64 223.986C197.692 224.252 197.736 224.501 197.799 224.697C198.189 225.951 198.359 227.06 198.304 228.074C200.304 228.623 203.48 229.549 204.144 229.933C208.375 232.391 212.212 235.27 215.248 238.257C221.567 244.473 224.899 250.196 225.16 255.27C226.633 255.575 229.078 256.312 229.539 256.569C229.898 256.773 230.104 257.112 230.117 257.532C230.15 258.381 229.398 259.335 228.963 259.632C226.628 261.22 223.241 262.275 218.89 262.754C215.704 265.63 210.515 267.626 206.336 269.228C205.766 269.446 205.219 269.659 204.696 269.861C195.997 273.279 187.083 276.2 177.439 278.79C168.574 281.167 159.024 283.457 149.285 284.062C149.003 284.084 148.709 284.104 148.405 284.129L148.256 284.143C146.098 284.485 144.46 284.614 142.94 284.546C142.411 284.524 141.893 284.415 141.503 284.325C141.362 284.317 141.208 284.297 141.047 284.275C140.422 286.263 139.433 287.307 138.173 287.307ZM97.8595 255.964C97.9974 255.964 98.1302 256.045 98.2005 256.177C98.6431 256.981 99.0545 257.818 99.4658 258.655C100.072 259.895 100.702 261.175 101.413 262.303C103.337 265.336 106.058 268.307 109.971 271.647C116.772 277.451 126.282 281.444 134.791 282.068C134.939 282.077 135.067 282.175 135.127 282.318C135.327 282.802 135.538 283.286 135.77 283.76L135.936 284.101C136.366 285 137.017 286.361 138.04 286.448C139.37 286.574 140.086 284.754 140.383 283.687C140.438 283.482 140.633 283.359 140.826 283.387C141.083 283.432 141.346 283.466 141.615 283.491C142.026 283.583 142.497 283.681 142.963 283.701C144.439 283.768 146.022 283.639 148.16 283.303L148.337 283.286C148.647 283.261 148.946 283.236 149.227 283.222C158.905 282.617 168.408 280.338 177.239 277.972C186.856 275.388 195.747 272.476 204.415 269.071C204.94 268.864 205.487 268.651 206.057 268.433C210.218 266.831 215.394 264.843 218.463 262.026C218.523 261.97 218.601 261.934 218.679 261.925C222.965 261.463 226.279 260.455 228.531 258.918C228.846 258.705 229.333 258 229.317 257.577C229.315 257.476 229.289 257.403 229.166 257.336C228.823 257.14 226.128 256.314 224.706 256.065C224.516 256.029 224.376 255.861 224.373 255.651C224.261 250.731 221.007 245.092 214.709 238.896C211.72 235.958 207.937 233.122 203.764 230.697C203.24 230.395 200.291 229.507 197.778 228.824C197.585 228.774 197.46 228.575 197.484 228.362C197.591 227.377 197.445 226.273 197.041 224.988C196.971 224.753 196.916 224.467 196.856 224.162C196.651 223.053 196.442 222.253 195.612 222.037C195.391 221.981 195.169 221.95 194.945 221.95C193.847 221.95 192.899 222.636 191.983 223.297C191.795 223.431 191.613 223.566 191.431 223.689C190.561 224.283 189.926 225.036 189.257 225.834L189.028 226.103C188.986 226.153 188.903 226.271 188.798 226.419C188.723 226.528 188.575 226.579 188.465 226.595C183.818 226.483 179.04 226.993 174.44 227.48C173.378 227.595 172.326 227.704 171.295 227.808C161.537 228.771 151.714 230.277 142.094 232.282C124.301 235.989 107.191 243.02 95.1466 251.557C95.0685 251.61 94.9799 251.636 94.8888 251.624L94.7664 251.608C93.712 251.552 92.6471 251.496 91.6005 251.476C91.072 251.476 90.5826 251.675 90.3743 251.949C90.2805 252.07 90.2519 252.193 90.2779 252.336C90.4055 253.013 92.0353 254.147 92.7305 254.632L92.9934 254.819C94.1754 255.654 96.0083 256.099 97.8204 255.973C97.8438 255.964 97.849 255.964 97.8595 255.964Z" fill="#BFBFBF"/>
<path opacity="0.4" d="M116.521 266.884C114.506 263.849 112.4 260.758 111.728 257.314C110.46 250.827 117.696 246.302 123.572 243.11C129.469 239.901 135.923 237.126 142.541 234.886C138.258 235.911 134.007 237.034 129.8 238.283C123.476 240.156 117.454 242.323 111.531 244.922C107.011 246.904 104.061 250.197 101.962 253.865C101.864 254.033 101.731 254.528 102.184 254.458C103.483 254.245 104.537 253.657 105.709 253.254C104.691 254.626 103.939 255.911 104.246 257.645C104.642 259.882 107.446 262.637 109.068 264.395C109.903 265.308 110.809 266.218 111.749 267.111C113.663 268.399 115.654 269.612 117.659 270.793C118.57 271.328 119.539 271.796 120.539 272.241C119.091 270.513 117.748 268.724 116.521 266.884Z" fill="#80896A"/>
<path opacity="0.4" d="M229.355 256.956C228.941 256.723 226.21 255.892 224.773 255.64C224.663 250.888 221.706 246.095 218.225 242.043C208.136 240.061 197.086 241.181 187.232 243.214C176.024 245.526 164.748 248.783 154.282 252.787C149.111 254.763 144.063 256.998 139.421 259.719C134.573 262.564 130.785 266.087 126.299 269.225C123.224 271.381 119.269 273.333 115.02 272.938C112.685 272.722 110.62 272.065 108.751 271.124C109.076 271.415 109.402 271.703 109.73 271.983C116.059 277.382 125.484 281.811 134.768 282.492C134.971 282.982 135.182 283.474 135.429 283.956C135.872 284.838 136.614 286.756 138.015 286.876C139.496 287.002 140.34 285.37 140.769 283.805C141.032 283.852 141.308 283.889 141.587 283.914C142.037 284.02 142.496 284.107 142.954 284.124C144.62 284.2 146.422 284.006 148.223 283.718C148.583 283.69 148.931 283.668 149.257 283.642C158.843 283.043 168.255 280.814 177.339 278.376C186.688 275.867 195.688 272.949 204.559 269.463C208.883 267.767 215.173 265.613 218.725 262.346C222.435 261.945 226.145 261.047 228.746 259.274C229.29 258.905 230.245 257.457 229.355 256.956Z" fill="#BFBFBF"/>
<path d="M101.489 319.037V295.486C101.489 295.486 101.991 291.995 106.628 288.96C111.265 285.922 116.74 285.731 130.518 274.713C144.296 263.693 193.126 245.927 216.93 240.276C216.93 240.276 219.19 239.761 224.311 242.987C229.435 246.215 240.739 238.445 242.856 238.249C244.975 238.05 247.094 237.544 248.331 238.456C249.568 239.378 429.123 309.853 429.123 309.853C429.123 309.853 432.768 310.993 432.62 315.548C432.469 320.112 429.649 337.287 429.649 337.287L289.071 393.438C289.071 393.438 282.773 396.187 275.356 393.911C267.941 391.629 101.489 319.037 101.489 319.037Z" fill="#FCF5D1"/>
<path d="M281.454 395.235C279.322 395.235 277.236 394.933 275.25 394.317C267.895 392.06 108.136 322.397 101.338 319.432C101.19 319.364 101.088 319.21 101.088 319.034V295.483C101.114 295.265 101.679 291.695 106.418 288.593C107.884 287.632 109.443 286.946 111.245 286.151C115.283 284.376 120.81 281.94 130.282 274.369C143.992 263.401 192.47 245.644 216.844 239.859C216.876 239.851 217.037 239.817 217.342 239.817C218.36 239.817 220.646 240.181 224.512 242.617C225.272 243.102 226.251 243.345 227.415 243.345C231.073 243.345 235.928 240.954 239.141 239.375C240.896 238.51 242.169 237.885 242.822 237.824C243.221 237.787 243.622 237.737 244.015 237.689C244.809 237.594 245.561 237.502 246.27 237.502C247.275 237.502 248.001 237.692 248.561 238.106C250.831 239.414 427.479 308.75 429.262 309.45C429.275 309.452 433.175 310.729 433.016 315.562C432.868 320.104 430.158 336.66 430.046 337.36C430.02 337.508 429.923 337.634 429.79 337.687L289.212 393.832C289.093 393.888 285.95 395.235 281.454 395.235ZM101.885 318.751C109.204 321.943 268.285 391.29 275.466 393.496C277.382 394.084 279.394 394.384 281.451 394.384C285.781 394.384 288.892 393.051 288.923 393.037L429.301 336.973C429.642 334.873 432.087 319.726 432.225 315.537C432.36 311.382 429.15 310.309 429.012 310.262C410.608 303.043 249.35 239.733 248.105 238.812C247.686 238.501 247.1 238.356 246.267 238.356C245.603 238.356 244.874 238.445 244.098 238.543C243.7 238.588 243.296 238.641 242.888 238.678C242.372 238.728 241.026 239.389 239.469 240.153C236.194 241.763 231.244 244.202 227.412 244.202C226.108 244.202 224.993 243.919 224.108 243.356C219.242 240.29 217.105 240.674 217.008 240.699C192.707 246.461 144.39 264.149 130.753 275.052C121.203 282.693 115.624 285.149 111.549 286.946C109.774 287.725 108.24 288.397 106.834 289.323C102.432 292.207 101.885 295.523 101.88 295.553L101.885 318.751Z" fill="#BFBFBF"/>
<path opacity="0.4" d="M108.704 298.737C108.704 298.737 259.99 369.974 284.896 367.98C309.799 365.981 416.575 321.531 416.575 321.531C416.575 321.531 375.507 341.761 329.143 360.569C282.776 379.376 282.511 391.343 282.511 391.343C282.511 391.343 281.451 381.935 274.031 377.66C266.614 373.39 108.704 298.737 108.704 298.737Z" fill="#BFBFBF"/>
<path opacity="0.4" d="M140.423 284.121C140.423 284.121 153.628 291.449 178.034 279.078C202.442 266.708 222.518 265.465 227.235 254.198C227.235 254.198 228.493 261.73 222.518 265.462C216.543 269.197 165.235 291.734 157.679 291.485C150.124 291.236 140.423 284.121 140.423 284.121Z" fill="#BFBFBF"/>
<path opacity="0.4" d="M429.124 309.853C429.124 309.853 409.173 302.021 382.526 291.546C383.554 293.431 384.281 295.48 384.497 297.717C385.098 303.975 382.213 309.668 377.983 313.781C370.089 321.45 359.794 325.474 350.096 329.738C335.162 336.312 319.848 341.307 303.961 344.421C287.583 347.633 271.006 349.377 254.354 349.371C246.152 349.363 237.943 349.38 229.831 347.913C222.01 346.496 214.28 344.432 206.373 343.648C214.236 349.371 224.788 350.872 230.773 359.331C231.088 359.779 230.57 360.241 230.174 360.171C218.201 357.967 206.334 355.179 194.514 352.183C183.123 349.299 171.636 346.599 160.345 343.295C156.408 342.142 152.506 340.879 148.616 339.543C198.44 361.201 270.532 392.424 275.356 393.905C282.774 396.181 289.072 393.432 289.072 393.432L429.65 337.281C429.65 337.281 432.469 320.106 432.621 315.542C432.769 310.992 429.124 309.853 429.124 309.853Z" fill="#BFBFBF"/>
</svg>
