<svg width="480" height="620" viewBox="0 0 480 620" fill="none" xmlns="http://www.w3.org/2000/svg">
<rect width="480" height="620" fill="#FFF9F9" fill-opacity="0.82"/>
<path d="M258.141 166.103L267.968 132.398L213.251 127.878L51.1365 143.107L61.8109 171.538L258.141 166.103Z" fill="#FFFFE8"/>
<path d="M59.002 173.025L48.3091 144.56C47.8762 143.381 47.9039 142.066 48.3552 141.002C48.8341 139.972 49.7089 139.297 50.7128 139.16L213.242 124L267.959 128.519C268.981 128.599 269.957 129.309 270.538 130.373C271.109 131.437 271.256 132.81 270.934 133.954L261.107 167.625C260.692 169.032 259.661 169.982 258.426 169.982L62.0966 175.439C62.0045 175.462 61.903 175.451 61.7925 175.439C60.6228 175.348 59.527 174.387 59.002 173.025ZM263.529 135.933L213.684 131.78L55.806 146.585L63.7175 167.591L255.875 162.282L263.529 135.933Z" fill="#A3A3A3"/>
<path d="M264.367 412.695L88.0037 444.867C88.0037 444.867 57.8871 449.924 51.1454 429.914V143.107C51.1454 143.107 61.433 151.093 76.9058 151.138C92.3786 151.138 267.977 132.409 267.977 132.409L264.367 412.695Z" fill="#375D7A"/>
<path d="M48.2443 431.253C48.0693 430.726 48.0138 430.223 48.0138 429.662V142.844C48.0138 141.448 48.585 140.247 49.5428 139.606C50.5006 138.965 51.698 139.057 52.6466 139.812C52.7756 139.869 62.5842 147.146 76.7032 147.191C91.8261 147.214 265.739 128.725 267.489 128.542C268.428 128.451 269.358 128.863 270.058 129.652C270.758 130.464 271.136 131.586 271.127 132.73L267.489 413.038C267.461 414.869 266.466 416.333 265.03 416.585L88.6393 448.723C88.3814 448.78 82.4871 449.776 75.1927 449.169C61.1106 448.002 51.7901 441.801 48.2443 431.253ZM264.79 136.7C238.809 139.457 91.4668 155.029 77.0899 155.029C67.0418 155.074 59.0015 151.791 54.2675 149.297V429.33C57.666 438.14 67.4655 440.749 75.1835 441.389C81.8055 441.939 87.35 441.023 87.35 441.023L261.254 409.308L264.79 136.7Z" fill="#135077"/>
<path d="M91.9739 436.252C90.6477 436.138 89.5885 434.719 89.5885 433.083V162.671C89.5885 160.989 90.6569 159.765 91.9739 159.868C93.2817 159.971 94.3225 161.378 94.3225 163.06V433.472C94.3225 435.108 93.2817 436.366 91.9739 436.252Z" fill="#CE4E15"/>
<path d="M262.249 133.05C261.963 153.85 260.6 174.65 259.117 194.878C256.796 227.943 253.25 261.146 245.753 292.632C239.693 318.111 232.592 349.426 215.802 366.908C202.614 380.568 186.109 388.577 168.334 389.218C152.17 389.779 131.595 387.982 119.125 371.702C107.492 356.565 102.657 336.371 100.355 316.578C94.0091 261.157 95.8509 205.564 91.2459 150.178C89.9842 150.292 88.7501 150.395 87.6449 150.498C86.2818 227.531 80.1663 304.05 74.143 380.351C73.5904 387.261 72.5958 397.467 67.125 401.025C62.6397 403.874 57.7216 399.252 55.8519 393.886C53.7889 388.017 52.343 381.918 51.1365 375.82V429.914C57.8782 449.925 87.9948 444.868 87.9948 444.868L264.358 412.695L267.959 132.41C267.959 132.41 265.923 132.661 262.249 133.05Z" fill="#375D7A"/>
<path d="M57.8787 370.603L56.4512 153.667L63.2482 157.5L57.8787 370.603Z" fill="#3985BB"/>
<path d="M99.6183 157.225L254.347 141.105L106.388 169.273V325.319L99.6183 157.225Z" fill="#3985BB"/>
<path d="M305.978 180.416L315.805 146.768L261.088 142.248L98.9644 157.442L109.666 185.908L305.978 180.416Z" fill="#FFFFE8"/>
<path d="M106.838 187.384L96.1455 158.907C95.7034 157.751 95.7404 156.436 96.2009 155.36C96.6522 154.307 97.5269 153.621 98.5124 153.529L261.088 138.347L315.805 142.866C316.818 142.946 317.776 143.644 318.347 144.72C318.954 145.784 319.093 147.157 318.743 148.289L308.925 181.938C308.529 183.379 307.488 184.283 306.272 184.295L109.942 189.764C109.841 189.787 109.749 189.775 109.657 189.775C108.459 189.706 107.336 188.745 106.838 187.384ZM311.374 150.315L261.53 146.161L103.679 160.92L111.535 181.915L303.703 176.606L311.374 150.315Z" fill="#A3A3A3"/>
<path d="M312.176 427.076L135.823 459.226C135.823 459.226 105.715 464.329 98.9644 444.261V157.442C98.9644 157.442 109.27 165.474 124.743 165.44C140.198 165.485 315.814 146.768 315.814 146.768L312.176 427.076Z" fill="#3985BB"/>
<path d="M96.0631 445.565C95.8973 445.039 95.8329 444.524 95.8329 443.998V157.191C95.8329 155.806 96.4223 154.548 97.3802 153.964C98.3656 153.312 99.5537 153.415 100.512 154.159C100.594 154.262 109.933 161.653 124.522 161.561C139.663 161.595 313.567 143.095 315.317 142.878C316.201 142.798 317.187 143.221 317.868 143.999C318.568 144.834 318.964 145.955 318.936 147.122L315.299 427.374C315.271 429.193 314.249 430.657 312.83 430.92L136.44 463.093C136.21 463.104 130.297 464.088 123.002 463.493C108.939 462.338 99.6458 456.125 96.0631 445.565ZM312.609 151.069C286.628 153.827 139.276 169.398 124.918 169.375C114.879 169.341 106.811 166.115 102.105 163.609V443.666C105.494 452.464 115.275 455.084 123.012 455.725C129.634 456.274 135.178 455.359 135.178 455.324L309.082 423.632L312.609 151.069Z" fill="#1371B1"/>
<path d="M139.801 450.588C138.494 450.485 137.425 449.066 137.425 447.442V177.007C137.425 175.359 138.494 174.147 139.801 174.25C141.109 174.352 142.15 175.76 142.15 177.396V447.831C142.141 449.455 141.109 450.691 139.801 450.588Z" fill="#2D5A8D"/>
<path d="M310.085 147.397C309.8 168.185 308.437 189.031 306.963 209.248C304.624 242.278 301.069 275.481 293.572 307.001C287.539 332.469 280.41 363.795 263.63 381.254C250.469 394.926 233.937 402.901 216.171 403.576C199.998 404.171 179.423 402.375 166.925 386.071C155.329 370.946 150.476 350.695 148.191 330.913C141.818 275.538 143.688 219.911 139.055 164.559C137.802 164.662 136.596 164.742 135.463 164.833C134.082 241.889 127.957 318.374 121.961 394.698C121.427 401.585 120.414 411.802 114.943 415.349C110.476 418.232 105.521 413.598 103.67 408.221C101.607 402.352 100.161 396.311 98.9546 390.19V444.238C105.715 464.294 135.813 459.203 135.813 459.203L312.166 427.053L315.805 146.745C315.805 146.768 313.751 147.019 310.085 147.397Z" fill="#3985BB"/>
<path d="M105.725 384.927L104.269 168.025L111.076 171.881L105.725 384.927Z" fill="#3985BB"/>
<path d="M147.446 171.595L302.193 155.429L154.243 183.62V339.711L147.446 171.595Z" fill="#3985BB"/>
<path d="M367.059 177.258L377.577 141.173L318.937 136.322L145.125 152.58L156.592 183.071L367.059 177.258Z" fill="#FFFFE8"/>
<path d="M153.782 184.547L142.288 154.033C141.892 152.9 141.901 151.573 142.37 150.509C142.84 149.48 143.697 148.782 144.691 148.701L318.945 132.432L377.585 137.272C378.626 137.352 379.575 138.05 380.164 139.114C380.763 140.201 380.919 141.516 380.551 142.695L370.024 178.815C369.618 180.165 368.569 181.08 367.334 181.172L156.895 186.984C156.803 186.972 156.71 186.972 156.609 186.961C155.403 186.881 154.306 185.931 153.782 184.547ZM373.164 144.72L319.359 140.212L149.821 156.07L158.479 179.124L364.765 173.403L373.164 144.72Z" fill="#A3A3A3"/>
<path d="M373.709 441.641L184.645 476.079C184.645 476.079 152.346 481.536 145.125 460.061V152.58C145.125 152.58 156.196 161.195 172.728 161.207C189.315 161.218 377.577 141.173 377.577 141.173L373.709 441.641Z" fill="#F0360D"/>
<path d="M142.252 461.389C142.086 460.885 141.994 460.359 141.994 459.81V152.317C141.994 150.967 142.574 149.72 143.532 149.125C144.489 148.473 145.677 148.553 146.663 149.331C146.718 149.388 156.997 157.271 172.543 157.328C188.799 157.294 375.228 137.489 377.116 137.295C378.019 137.203 378.931 137.592 379.631 138.416C380.367 139.217 380.745 140.35 380.717 141.482L376.858 441.95C376.822 443.758 375.799 445.234 374.335 445.485L185.271 479.946C185.014 480.015 178.696 481.067 170.913 480.427C155.938 479.191 146.028 472.589 142.252 461.389ZM374.39 145.418C347.276 148.301 188.384 165.108 172.958 165.12C161.906 165.165 153.248 161.527 148.266 158.804V459.478C151.968 469.066 162.559 471.937 170.922 472.624C178.06 473.207 184 472.223 184.028 472.223L370.623 438.186L374.39 145.418Z" fill="#BA2911"/>
<path d="M188.891 466.834C187.501 466.72 186.322 465.233 186.322 463.471V173.54C186.322 171.79 187.501 170.497 188.891 170.611C190.31 170.726 191.461 172.213 191.461 173.963V463.905C191.461 465.656 190.31 466.96 188.891 466.834Z" fill="#CE4E15"/>
<path d="M371.452 141.837C371.138 164.09 369.674 186.434 368.108 208.092C365.585 243.537 361.79 279.165 353.768 312.905C347.266 340.204 339.649 373.795 321.653 392.49C307.525 407.169 289.805 415.727 270.768 416.436C253.425 417.054 231.367 415.097 218.003 397.684C205.561 381.438 200.339 359.757 197.889 338.556C191.073 279.176 193.072 219.557 188.117 160.177C186.754 160.291 185.483 160.406 184.267 160.486C182.793 243.091 176.208 325.101 169.789 406.917C169.227 414.285 168.131 425.291 162.264 429.056C157.484 432.122 152.161 427.179 150.153 421.447C147.971 415.109 146.414 408.633 145.115 402.089V460.061C152.336 481.536 184.636 476.079 184.636 476.079L373.699 441.63L377.567 141.162C377.567 141.162 375.375 141.379 371.452 141.837Z" fill="#CE4E15"/>
<path d="M152.374 396.483L150.863 163.941L158.075 168.06L152.374 396.483Z" fill="#3985BB"/>
<path d="M197.107 167.762L362.979 150.452L204.392 180.622V347.938L197.107 167.762Z" fill="#3985BB"/>
<path d="M418.331 192.636L428.84 156.561L370.218 151.722L196.398 167.957L207.873 198.505L418.331 192.636Z" fill="#FFFFE8"/>
<path d="M205.046 199.923L193.579 169.421C193.156 168.231 193.156 166.939 193.635 165.92C194.113 164.856 194.989 164.147 195.956 164.078L370.218 147.797L428.84 152.637C429.862 152.717 430.811 153.461 431.41 154.525C431.999 155.623 432.137 156.928 431.797 158.117L421.279 194.203C420.883 195.61 419.851 196.525 418.608 196.56L208.15 202.372C208.067 202.36 207.956 202.36 207.873 202.349C206.685 202.257 205.58 201.319 205.046 199.923ZM424.401 160.085L370.651 155.612L201.067 171.469L209.752 194.523L416.029 188.791L424.401 160.085Z" fill="#A3A3A3"/>
<path d="M424.99 457.04L235.908 491.478C235.908 491.478 203.609 496.924 196.398 475.449V167.956C196.398 167.956 207.413 176.549 224.009 176.583C240.578 176.594 428.84 156.572 428.84 156.572L424.99 457.04Z" fill="#3985BB"/>
<path d="M193.524 476.731C193.358 476.262 193.275 475.701 193.275 475.186V167.694C193.275 166.321 193.837 165.085 194.822 164.501C195.789 163.849 196.968 163.952 197.926 164.696C198.037 164.776 208.509 172.67 223.825 172.682C240.09 172.67 426.501 152.9 428.389 152.66C429.264 152.58 430.221 153.003 430.931 153.804C431.63 154.593 432.026 155.76 431.999 156.893L428.14 457.35C428.112 459.169 427.09 460.656 425.653 460.873L236.553 495.368C236.277 495.391 229.959 496.432 222.176 495.792C207.201 494.545 197.291 487.966 193.524 476.731ZM425.662 160.829C398.557 163.723 239.657 180.473 224.248 180.496C213.252 180.519 204.548 176.881 199.538 174.192V474.843C203.222 484.408 213.832 487.291 222.158 487.977C229.296 488.561 235.254 487.6 235.254 487.6L421.914 453.62L425.662 160.829Z" fill="#1371B1"/>
<path d="M240.164 482.246C238.773 482.131 237.622 480.598 237.622 478.848V188.928C237.622 187.212 238.764 185.851 240.164 185.965C241.582 186.08 242.715 187.636 242.715 189.352V479.259C242.715 481.021 241.582 482.36 240.164 482.246Z" fill="#2D5A8D"/>
<path d="M422.734 157.191C422.411 179.501 420.919 201.834 419.4 223.504C416.867 258.948 413.054 294.462 405.041 328.293C398.558 355.603 390.904 389.183 372.926 407.878C358.798 422.591 341.096 431.115 322.041 431.847C304.707 432.454 282.668 430.532 269.258 413.061C256.852 396.826 251.621 375.168 249.171 353.956C242.319 294.519 244.336 234.991 239.399 175.577C238.036 175.668 236.738 175.794 235.54 175.886C234.067 258.536 227.491 340.535 221.053 422.317C220.482 429.673 219.395 440.714 213.537 444.467C208.757 447.544 203.443 442.602 201.454 436.824C199.243 430.531 197.687 424.01 196.407 417.454V475.438C203.618 496.913 235.918 491.467 235.918 491.467L424.999 457.029L428.849 156.561C428.849 156.561 426.63 156.802 422.734 157.191Z" fill="#3985BB"/>
<path d="M203.664 411.848L202.107 179.295L209.374 183.425L203.664 411.848Z" fill="#3985BB"/>
<path d="M248.378 183.116L414.242 165.84L255.673 195.999V363.349L248.378 183.116Z" fill="#3985BB"/>
</svg>
