<svg width="480" height="620" viewBox="0 0 480 620" fill="none" xmlns="http://www.w3.org/2000/svg">
<rect width="480" height="620" fill="#FFF9F9" fill-opacity="0.82"/>
<path d="M387.133 391.817V369.799C387.133 369.799 386.92 363.127 386.285 356.229V349.615L387.43 342.871C373.644 339.625 343.299 331.798 343.299 331.798L309.768 340.697C309.768 340.697 281.133 380.724 280.314 384.28C280.041 385.467 279.305 391.088 278.474 398.16C282.926 397.489 288.688 396.779 294.558 396.637L302.065 402.083L317.104 419.338L339.887 427.592L370.255 436.768L365.199 467.032L355.074 465.199L343.264 467.032L336.51 477.131V489.056L354.225 493.644L374.474 489.972L390.504 464.283L404.848 429.424L407.383 413.834L393.881 401.909L387.133 391.817Z" fill="#6D6A67"/>
<path d="M49.5549 418.925L76.0713 395.185L108.813 381.608L140.783 368.902L146.231 349.395L182.884 351.95L197.691 363.817L190.688 393.488L184.439 406.2L166.51 412.989L126.748 414.679L104.914 413.834L82.3027 425.701L69.0504 435.877L58.1306 433.335L48 424.01L49.5549 418.925Z" fill="#6D6A67"/>
<path d="M408.599 407.239L401.851 397.153V375.142C401.851 375.142 401.643 368.47 401.002 361.572V354.958L405.222 330.185L395.103 298.998L361.347 281.575L289.632 271.476L251.673 272.399L219.614 275.154L192.617 276.077L179.264 266.398L174.385 260.661L155.566 246.426L136.753 234.423L116.706 231.758C116.706 231.758 100.35 236.204 99.1214 236.204C97.8988 236.204 80.7118 242.425 79.8928 243.754C79.0797 245.096 70.0768 261.106 70.0768 261.106C70.0768 261.106 65.9938 278.897 65.9938 280.226C65.9938 281.568 63.1331 290.906 63.1331 290.906L54.5456 300.237L54.1361 308.245L58.2191 311.8L65.1748 323.809L72.5338 330.933L92.9847 333.153L110.166 335.818C110.166 335.818 113.733 336.889 117.661 338.109C118.753 342.916 126.587 377.059 129.59 381.163L135.246 397.16L155.495 411.84L149.59 469.633L136.937 472.395L126.807 484.313L125.97 489.811L131.869 495.322H163.086L174.059 482.48L185.863 445.783L192.563 428.282L197.566 415.596C197.566 415.596 217.531 417.325 238.421 414.68C260.706 411.885 284.035 404.71 285.109 404.71C286.819 404.71 297.863 402.264 309.287 401.987L316.789 407.433L331.833 424.688L354.611 432.941L384.985 442.111L377.465 463.464L369.792 470.555L357.988 472.401L351.24 482.487V494.418L368.955 499L389.192 495.335L405.228 469.652L419.572 434.787L422.106 419.203L408.599 407.239Z" fill="#A5A19B"/>
<path d="M92.7837 321.686C92.4751 320.357 88.487 313.007 88.487 313.007L75.9174 306.677L64.8727 308.348L59.6681 314.291L65.1814 323.809L72.5405 330.933L92.9915 333.153L93.7393 333.276C93.858 332.772 93.9588 332.334 94.0062 332.05C94.3149 330.365 93.0864 323.022 92.7837 321.686Z" fill="#C1BDB6"/>
<path d="M60.0648 308.238L61.2933 305.128L55.3586 302.237L54.5219 300.656L54.1361 308.238L58.0293 311.633L60.0648 308.238Z" fill="#E2816A"/>
<path d="M58.4274 306.683L57.8162 309.348L57.733 311.368L58.0299 311.633L60.0654 308.238L60.6352 306.799L58.4274 306.683Z" fill="#CE634E"/>
<path d="M85.6261 322.248L77.0387 325.132L69.4777 325.577C69.4777 325.577 67.0385 324.61 65.1276 323.732L65.1752 323.803L67.5311 326.081L75.8161 326.926L80.5164 325.81L84.8131 324.474L87.4659 324.693L86.8546 323.138L85.6261 322.248Z" fill="#35312C"/>
<path d="M101.377 243.09C101.377 242.419 104.445 235.966 104.445 235.966C104.445 235.966 105.264 227.519 105.062 226.854C104.855 226.189 104.042 214.845 103.834 214.181C103.626 213.509 104.855 210.844 104.855 210.844L106.902 210.393L114.267 214.181C114.267 214.181 132.255 228.629 132.873 229.745C133.49 230.855 140.036 239.534 140.036 239.534L143.709 248.639L137.786 255.989C137.786 255.989 133.484 260.655 133.08 261.545C132.677 262.436 129.199 268.43 129.199 269.101C129.199 269.76 128.166 271.554 128.166 271.554L124.493 271.773L122.861 266.882L120.196 255.75C120.196 255.75 115.899 250.207 115.092 249.756C114.273 249.31 108.748 245.303 108.131 245.529C107.513 245.755 101.377 243.09 101.377 243.09Z" fill="#84807B"/>
<path d="M127.549 254.653C127.549 254.653 129.193 247.762 129.395 246.865C129.597 245.981 129.798 240.418 129.798 239.747C129.798 239.082 128.166 233.965 128.166 233.965L124.689 225.518L119.988 218.846L119.792 218.646C116.689 216.129 114.267 214.181 114.267 214.181L106.902 210.393L104.855 210.844C104.855 210.844 104.706 211.161 104.528 211.58C105.442 213.058 106.694 214.839 106.694 214.839L108.944 216.181C108.944 216.181 112.422 221.066 113.033 221.943C113.65 222.847 117.935 229.513 117.935 229.513L119.163 241.083L117.929 252.911C119.104 254.369 120.184 255.744 120.184 255.744L122.849 266.875L124.273 260.642L127.549 254.653Z" fill="#C1BDB6"/>
<path d="M118.961 222.627L110.985 215.071L105.466 213.509L105.673 217.962C105.673 217.962 107.098 226.86 107.507 227.751C107.917 228.635 109.555 236.198 109.555 236.198L108.51 245.632C109.923 246.174 114.35 249.368 115.074 249.768C115.887 250.214 120.178 255.763 120.178 255.763L121.199 260.016L122.427 257.325C122.427 257.325 124.676 253.543 124.89 252.879C125.092 252.22 127.341 245.987 127.341 245.987C127.341 245.987 127.537 239.979 127.537 239.308C127.537 238.643 125.294 231.306 125.294 231.306L118.961 222.627Z" fill="#E2816A"/>
<path d="M73.3473 288.944L70.4394 292.448L68.1427 298.12L67.5312 301.953L69.0626 300.959L71.5195 295.455L74.5878 292.448L73.3473 288.944Z" fill="#35312C"/>
<path d="M72.5344 277.329C73.1516 277.555 76.6234 281.117 76.6234 281.117L80.1011 285.556L77.2406 290.454L75.6086 295.12L72.7421 297.12L72.1309 294.229C72.1309 294.229 72.1308 290.009 72.3266 289.331C72.5344 288.667 73.3594 284.44 73.3594 283.782C73.3594 283.111 72.7421 280.22 72.7421 280.22L72.5344 277.329Z" fill="#35312C"/>
<path d="M77.2403 290.454L78.3797 288.492L78.6706 285.776L78.7477 283.82L76.6231 281.11C76.6231 281.11 76.4746 280.962 76.2788 280.749L73.3531 283.775C73.3531 284.369 72.7121 287.75 72.4213 288.97L72.9496 292.009L74.5816 294.668L75.6261 295.048L77.2403 290.454Z" fill="#F2BB6B"/>
<path d="M91.151 280.104L88.3854 283.111C88.3854 283.111 89.3052 286.447 90.2251 286.776C91.1509 287.118 97.5901 291.461 97.8987 292.448C98.2073 293.448 105.572 300.785 105.572 300.785L118.753 303.792L128.884 302.792L134.403 302.121L134.718 299.791L128.581 300.121L120.914 299.449C120.914 299.449 112.931 295.113 112.023 294.784C111.092 294.455 103.739 288.447 103.739 288.447L96.3795 284.104L91.151 280.104Z" fill="#6D6A67"/>
<path d="M87.7804 298.456L86.5459 303.128L90.2254 305.464L95.7506 308.464L100.659 312.129C100.659 312.129 104.647 315.466 105.573 315.466C106.487 315.466 110.783 315.466 110.783 315.466L115.377 314.807L119.679 312.471L118.148 310.8L108.944 312.136L105.869 310.8L100.042 308.135C100.042 308.135 94.8248 303.457 93.9109 302.799C92.991 302.127 89.6141 298.798 89.6141 298.798L87.7804 298.456Z" fill="#6D6A67"/>
<path d="M72.1243 273.438C72.1243 272.438 71.8157 266.43 71.8157 265.443C71.8157 264.442 72.7415 261.1 73.0442 260.1C73.3468 259.099 76.1184 254.763 76.7296 253.769C77.3468 252.769 82.2489 247.097 82.2489 247.097L86.5456 244.761C87.1688 246.426 84.3972 249.762 84.3972 249.762L79.1926 255.099L74.2786 264.771L74.593 270.444V273.444L72.1243 273.438Z" fill="#6D6A67"/>
<path d="M79.1927 266.101L80.7239 261.758L82.8663 259.751L85.3232 259.093L86.8604 260.429C86.2431 261.422 82.8663 263.094 82.8663 263.094L81.3351 265.765C80.1067 267.43 79.1927 266.101 79.1927 266.101Z" fill="#6D6A67"/>
<path d="M64.7716 311.794L63.8459 312.962L64.7716 313.459H65.5372L65.9883 312.465L65.6857 311.291L64.7716 311.794Z" fill="#84807B"/>
<path d="M69.5968 311.549L68.4513 312.878L68.5284 313.885C68.5284 313.885 68.9915 314.214 69.2111 314.291C69.4485 314.381 69.9826 314.291 69.9826 314.291L70.4396 313.71L70.3684 312.368L69.5968 311.549Z" fill="#84807B"/>
<path d="M73.5846 312.788L73.1277 314.717C73.1277 314.717 73.739 314.962 73.9704 314.878C74.1959 314.795 74.6588 314.627 74.6588 314.627L74.8903 313.956L74.5045 313.039L73.5846 312.788Z" fill="#84807B"/>
<path d="M78.6471 313.717L78.4988 314.801C78.4988 314.801 78.7302 315.214 78.9557 315.214C79.1931 315.214 79.6501 315.123 79.6501 315.123L80.0239 314.459L79.8756 313.284L78.6471 313.717Z" fill="#84807B"/>
<path d="M65.9109 317.466L65.5369 318.55L66.0652 319.221L66.8425 319.047L67.2165 318.55L67.3708 317.634L66.8425 317.137L65.9109 317.466Z" fill="#84807B"/>
<path d="M70.7538 317.557L70.374 318.724C70.374 318.724 70.4452 319.312 70.6767 319.473C70.9081 319.634 71.5967 319.88 71.5967 319.88L72.1308 319.725L72.4452 318.802L72.2138 317.557H70.7538Z" fill="#84807B"/>
<path d="M76.3504 318.305L76.1189 319.473L76.659 319.634C76.659 319.634 77.1931 319.55 77.2702 319.305C77.3533 319.047 77.65 318.963 77.65 318.718C77.65 318.466 77.2702 317.795 77.2702 317.795L76.3504 318.305Z" fill="#84807B"/>
<path d="M83.709 317.634V318.466L84.1719 318.802L84.706 318.55L84.9375 318.053L84.4745 316.879L83.709 317.634Z" fill="#84807B"/>
<path d="M359.306 296.081L357.217 290.009L387.715 253.375C387.715 253.375 406.107 188.472 405.264 185.904C404.428 183.342 413.62 141.495 413.62 141.495L421.976 125.272L426.997 121L430.339 131.247L432 154.31L429.496 185.065L426.154 220.924L421.971 246.561L399.407 291.816L382.7 322.564L353.442 307.193L359.306 296.081Z" fill="#A5A19B"/>
<path d="M76.5279 282.665L74.3796 284.833L73.9166 287.834L74.5279 290.996L75.2934 292.338L76.3736 289.834L77.1392 286.834L77.2875 284.162L76.5279 282.665Z" fill="#35312C"/>
<path d="M75.4003 286.008L76.5279 285.563L76.3142 283.995L75.4003 284.104V286.008Z" fill="#C1BDB6"/>
<path d="M102.801 251.756L110.985 253.537L115.893 261.538L119.169 268.656L120.801 271.328L119.988 275.322L113.846 270.876L110.985 262.435L107.715 258.428L100.76 254.873L102.801 251.756Z" fill="#6D6A67"/>
<path d="M92.9909 333.147L110.172 335.812C110.172 335.812 113.739 336.883 117.668 338.103C118.76 342.91 126.593 377.052 129.596 381.156L135.252 397.153L153.751 410.569L153.935 410.091L155.573 397.631L152.706 386.958C152.706 386.958 151.08 368.722 149.846 367.831C148.617 366.941 136.35 347.814 136.35 347.814L129.4 335.366L114.267 330.023L103.632 328.249H95.0384L86.4449 330.023L74.2788 331.108L92.9909 333.147Z" fill="#84807B"/>
<path d="M354.938 433.032C353.745 429.495 352.309 426.095 352.309 426.095L332.676 414.531L315.495 396.747L313.863 374.497L298.309 376.285L256.593 384.28C256.593 384.28 224.694 393.178 222.237 394.069C219.78 394.966 200.154 396.747 200.154 396.747L198.065 415.622C201.139 415.854 219.365 417.074 238.415 414.673C260.7 411.879 284.03 404.703 285.104 404.703C286.813 404.703 297.858 402.258 309.282 401.98L316.783 407.426L331.828 424.682L354.605 432.935L354.938 433.032Z" fill="#84807B"/>
<path d="M137.579 488.804L141.662 483.474L149.84 481.241L147.799 479.912L140.439 481.687L135.116 487.469L132.119 495.315H136.903L137.579 488.804Z" fill="#84807B"/>
<path d="M142.481 477.796V475.789L137.264 478.796L131.745 483.468L128.676 487.798L127.851 491.566L129.572 493.167L131.43 486.798L136.035 481.461L142.481 477.796Z" fill="#84807B"/>
<path d="M358.445 482.461L355.988 488.469L355.745 495.567L358.445 496.257V489.798L360.279 483.132L364.575 478.796L363.05 477.46L358.445 482.461Z" fill="#84807B"/>
<path d="M370.712 484.803L371.027 482.138L369.187 483.803L366.113 490.133L365.418 498.064L367.311 498.555L368.878 497.141C368.878 497.141 369.187 491.805 369.501 490.805C369.792 489.798 370.712 484.803 370.712 484.803Z" fill="#84807B"/>
<path d="M161.092 302.011L154.351 312.685L150.048 319.357L156.178 322.7L162.315 322.028L167.84 320.686L169.069 312.02L161.092 302.011Z" fill="#6D6A67"/>
<path d="M153.525 346.485L161.294 342.045L167.84 336.702L175.199 336.257L177.246 339.819L177.656 342.93C177.656 342.93 174.386 344.717 172.742 344.717C171.11 344.717 166.202 345.143 164.979 345.601C163.745 346.046 158.433 348.273 158.433 348.273L154.344 350.944L153.525 346.485Z" fill="#6D6A67"/>
<path d="M154.748 357.61L162.522 360.72L169.068 358.494L179.294 354.041L187.881 350.937L190.338 358.939L189.11 363.83L171.11 366.057H163.341L158.837 367.831L153.929 366.057L151.484 360.281L154.748 357.61Z" fill="#6D6A67"/>
<path d="M166.611 386.067C166.611 386.067 173.163 379.84 174.386 378.943C175.614 378.059 181.745 376.724 181.745 376.724H186.249L186.653 381.615L177.656 384.732L171.11 389.178L166.611 386.067Z" fill="#6D6A67"/>
<path d="M175.199 324.248L180.113 317.589L182.961 311.8L188.291 312.697C188.291 312.697 193.199 317.143 194.421 318.034C195.644 318.924 200.558 323.37 200.558 323.37L198.92 329.591L194.831 330.482L188.291 323.37L183.383 322.035L178.475 325.59L173.567 327.816L175.199 324.248Z" fill="#6D6A67"/>
<path d="M202.605 303.347L207.923 314.014L209.964 322.906L212.018 332.243L212.427 342.039C212.427 342.039 211.608 351.815 211.608 353.603C211.608 355.377 211.193 368.715 211.193 368.715L212.831 377.614L219.781 386.958L227.561 383.841L239.015 379.388L239.84 371.839L235.336 362.501L232.06 345.149C232.06 345.149 230.831 333.592 230.831 332.25C230.831 330.927 232.463 318.466 232.463 318.466L237.377 313.136L240.238 323.809L245.549 340.264C245.549 340.264 245.959 348.711 245.959 350.486C245.959 352.26 246.362 359.83 247.181 362.056C248 364.276 249.229 370.503 250.048 371.845C250.867 373.174 252.908 375.839 252.908 375.839L255.353 374.071L252.505 364.727L251.68 350.944L250.451 333.598L248.819 322.035L244.315 312.697L240.232 305.135C240.232 305.135 237.775 301.127 237.371 299.798C236.967 298.462 235.727 290.906 235.727 290.906V279.781L230.422 282.453V291.345V299.798L227.971 306.916L224.695 313.575L223.062 325.145L223.466 333.605C223.466 333.605 224.279 341.607 224.695 342.936C225.098 344.272 225.923 352.273 225.519 353.615C225.104 354.945 221.834 359.397 221.834 359.397L217.745 357.623C217.745 357.623 218.154 350.053 218.154 348.724C218.154 347.388 217.33 335.831 217.33 335.831L215.697 326.933L211.608 312.252L206.291 302.921L202.605 303.347Z" fill="#6D6A67"/>
<path d="M192.623 276.064L189.852 274.057C189.033 274.741 188.416 275.374 188.291 275.767C187.882 277.109 182.558 280.213 182.558 280.213L178.06 283.33L180.113 288.221L182.155 295.345L184.202 304.676C184.202 304.676 182.155 316.234 182.155 318.021L188.701 317.582L196.469 302.902L204.653 292.229L212.831 286.447L225.098 282.891L226.736 279.336L228.291 274.399L219.614 275.141L192.623 276.064Z" fill="#6D6A67"/>
<path d="M161.294 397.631L170.297 394.966L179.294 390.068L185.021 385.622L193.608 383.396L201.389 384.293L203.834 387.41C203.834 387.41 204.659 390.513 203.43 390.513C202.202 390.513 194.843 392.733 194.843 392.733L185.834 394.966L180.118 398.076L174.801 401.187L165.395 399.851L161.294 397.631Z" fill="#6D6A67"/>
<path d="M192.789 404.303L181.745 409.64L173.163 410.969L169.478 413.641L165.792 418.093L169.478 417.642L175.199 416.764L183.383 416.312L189.513 414.531L194.837 408.304L192.789 404.303Z" fill="#6D6A67"/>
<path d="M148.611 303.792L151.484 298.456L156.386 294.461L164.979 294.01L173.157 287.783L173.976 282.001L167.027 285.111L162.107 288.221L156.789 289.551L150.243 292.667C150.243 292.667 146.967 299.785 146.564 301.114C146.16 302.444 145.739 310.013 145.739 310.013L148.611 303.792Z" fill="#6D6A67"/>
<path d="M203.424 329.146L198.92 335.373L196.059 336.702C196.059 336.702 196.463 345.601 197.288 346.936C198.101 348.272 200.558 356.719 200.558 356.719L202.605 367.838V375.846L205.875 377.175C205.875 377.175 206.285 366.063 206.285 364.727C206.285 363.391 206.688 355.39 206.688 354.048C206.688 352.718 207.104 342.929 207.104 342.929L203.424 329.146Z" fill="#6D6A67"/>
<path d="M284 278.439L279.917 282.446L277.056 291.338V298.004V302.45L281.964 300.669L285.638 296.675C285.638 296.675 289.323 293.126 289.323 291.783C289.323 290.454 291.37 285.111 291.37 285.111L288.51 280.665L284 278.439Z" fill="#6D6A67"/>
<path d="M320 283.782L315.905 290.009L315.501 295.345L316.314 301.566L319.181 302.457L323.673 294.9L327.768 292.229L329.816 287.331L326.13 285.111L320 283.782Z" fill="#6D6A67"/>
<path d="M250.392 272.496L248.825 277.109L248.416 286.44L250.469 293.126L254.137 298.901L257.009 299.792C257.009 299.792 263.14 286.447 263.14 285.118C263.14 283.788 264.368 280.671 264.368 278.89C264.368 277.116 264.772 273.109 264.772 273.109C264.772 273.109 264.576 272.683 264.273 272.102L251.674 272.399L250.392 272.496Z" fill="#6D6A67"/>
<path d="M162.107 446.112C162.107 446.112 165.793 443.001 167.027 443.001C168.25 443.001 171.923 443.446 173.157 443.001C174.38 442.556 179.698 441.227 179.698 441.227L184.202 438.11V441.672L180.926 444.337L176.427 446.563L170.297 447.46L165.389 446.563L162.107 446.112Z" fill="#6D6A67"/>
<path d="M193.75 425.269L195.762 420.158C194.255 420.397 192.759 420.829 192.379 421.636C191.566 423.417 185.828 423.423 185.828 423.423H178.059L169.881 422.087L163.744 423.862L169.881 426.527C169.881 426.527 175.198 426.979 176.831 427.869C178.463 428.76 183.382 428.753 183.382 428.753L191.157 426.088L193.75 425.269Z" fill="#6D6A67"/>
<path d="M175.199 462.115L171.519 459.45L167.027 458.114L163.341 460.347L158.837 463.457L155.567 467.458L159.246 466.568L164.979 464.787C164.979 464.787 169.068 466.568 170.297 467.458C171.519 468.355 176.837 467.458 176.837 467.458L178.944 467.297L180.516 462.405L175.199 462.115Z" fill="#6D6A67"/>
<path d="M149.021 254.872C149.021 254.872 155.971 261.099 157.205 261.099C158.433 261.099 164.154 264.21 164.154 264.21L170.7 269.108L173.163 275.328L172.338 278.006L169.478 279.342L165.798 273.554L161.709 267.772L154.35 264.21L146.98 262.435L144.528 255.318L149.021 254.872Z" fill="#6D6A67"/>
<path d="M160.481 277.109L154.748 280.22L150.665 281.562L151.075 285.111L156.796 283.337L162.107 281.117L164.985 277.548L160.481 277.109Z" fill="#6D6A67"/>
<path d="M276.231 310.464L274.184 318.918L273.78 326.029L275.418 333.147L276.647 340.703C276.647 340.703 277.863 346.485 278.273 347.827C278.682 349.163 278.682 357.616 278.682 358.945C278.682 360.288 280.314 367.837 280.314 367.837L282.771 370.509L286.445 369.619L288.498 365.172C288.498 365.172 283.999 350.498 283.584 349.169C283.18 347.833 283.181 335.379 283.181 335.379L282.777 325.145L281.139 313.142L279.917 308.696L276.231 310.464Z" fill="#6D6A67"/>
<path d="M261.507 302.45L257.008 307.793L256.599 314.911L257.418 326.036C257.418 326.036 257.418 333.153 257.822 334.489C258.231 335.818 263.958 347.827 263.958 349.608C263.958 351.389 264.777 357.616 264.777 357.616C264.777 357.616 268.866 354.5 268.866 352.719C268.866 350.95 269.276 342.052 268.866 340.71C268.462 339.38 266.415 326.926 266.415 326.926L266.819 313.575L261.507 302.45Z" fill="#6D6A67"/>
<path d="M301.591 290.447L297.502 296.675L299.543 300.669L304.048 299.791L307.727 295.345L308.546 288.228L301.591 290.447Z" fill="#6D6A67"/>
<path d="M302 367.831C302 367.831 302.825 360.281 302 358.939C301.187 357.61 299.549 350.04 299.549 350.04L299.14 344.259L301.597 341.594C301.597 341.594 305.686 345.143 306.505 346.485C307.318 347.821 311.003 351.821 311.828 354.041C312.647 356.267 313.875 362.946 313.875 362.946L308.961 368.722L302 367.831Z" fill="#6D6A67"/>
<path d="M324.908 302.011L321.228 315.788L320.819 329.133C320.819 329.133 321.638 338.922 321.638 340.264C321.638 341.594 320.819 351.815 320.819 353.157C320.819 354.487 322.041 365.16 322.041 365.16L325.317 374.497L330.225 381.615L333.501 378.504L336.777 375.394L333.092 363.824C333.092 363.824 330.635 353.157 330.231 351.815C329.828 350.486 329.828 339.819 329.828 338.038C329.828 336.251 330.647 329.578 330.647 327.804C330.647 326.029 331.05 305.573 331.05 305.573L329.828 300.23L324.908 302.011Z" fill="#6D6A67"/>
<path d="M338.403 311.349C338.403 312.691 339.222 319.357 339.222 319.357L343.311 323.364L347.4 322.467L349.448 315.788L344.54 307.793L340.041 302.45L338.403 311.349Z" fill="#6D6A67"/>
<path d="M343.715 366.947L338.404 380.285L334.718 390.068L334.315 401.193L334.718 409.64L339.223 412.311L340.042 404.749C340.042 404.749 341.674 396.289 341.674 394.514C341.674 392.733 345.763 386.061 345.763 384.731C345.763 383.389 349.045 378.95 349.045 376.723C349.045 374.497 349.045 367.825 349.045 367.825L343.715 366.947Z" fill="#6D6A67"/>
<path d="M362.949 341.593C364.172 340.264 371.121 338.038 372.35 336.696C373.578 335.366 381.757 334.031 381.757 334.031L389.128 331.804C389.128 331.804 392.398 328.688 392.801 326.913C393.205 325.132 393.205 318.021 393.205 318.021L389.935 319.795C389.935 319.795 386.261 324.687 385.021 324.687C383.798 324.687 380.522 326.468 379.306 326.468C378.077 326.468 373.163 328.242 371.525 328.688C369.893 329.133 364.57 331.798 364.57 331.798L360.071 336.244V340.258L362.949 341.593Z" fill="#6D6A67"/>
<path d="M384.213 301.566C384.213 301.566 378.083 302.902 376.439 302.902C374.807 302.902 371.531 303.799 370.718 305.128C369.893 306.464 368.665 311.794 368.665 311.794C368.665 311.794 370.297 314.465 371.525 314.465C372.754 314.465 379.305 314.465 379.305 314.465L383.798 310.903L387.483 304.676L384.213 301.566Z" fill="#6D6A67"/>
<path d="M398.944 353.609L401.413 352.57L403.092 342.748L400.985 341.6L372.76 348.717L360.896 354.048L358.445 358.061C358.445 358.061 358.445 362.507 360.077 360.726C361.721 358.945 369.075 358.061 369.075 358.061L379.716 355.829L390.754 354.493L398.944 353.609Z" fill="#6D6A67"/>
<path d="M351.489 417.196L352.314 405.639L354.356 396.747C354.356 396.747 358.041 392.733 358.451 391.404C358.854 390.068 361.733 386.512 361.733 386.512L364.178 380.731L367.038 381.621L369.495 383.847L368.67 387.416C368.67 387.416 364.997 394.082 364.172 395.417C363.347 396.753 361.311 403.864 361.311 405.645C361.311 407.426 360.902 418.1 360.902 418.1L360.492 422.991L355.181 423.881L352.32 420.326L351.489 417.196Z" fill="#6D6A67"/>
<path d="M375.217 425.204C375.217 424.849 375.24 424.385 375.276 423.83C375.525 420.132 376.493 412.576 376.855 411.414C377.258 410.085 378.896 408.743 379.715 407.42C380.528 406.078 383.798 403.852 383.798 403.852L386.659 404.297L385.834 407.414C385.834 407.414 382.57 412.305 382.16 414.963C381.751 417.635 382.154 422.087 381.751 423.423C381.347 424.753 381.347 429.65 381.347 429.65L374.801 431.877L375.217 425.204Z" fill="#6D6A67"/>
<path d="M386.267 447.886L395.668 441.22L401.804 436.322L404.855 429.424L402.623 425.204L398.932 429.657L394.843 434.096L389.941 435.877L387.49 439.884L386.267 447.886Z" fill="#6D6A67"/>
<path d="M401.858 397.153V395.953L394.843 396.747L391.994 398.967C391.994 398.967 394.036 402.529 395.258 403.413C396.487 404.303 400.576 404.748 400.576 404.748C400.576 404.748 403.911 404.748 406.932 404.748L401.858 397.153Z" fill="#6D6A67"/>
<path d="M417.745 421.203H412.849L410.789 423.868L411.614 426.095L420.202 427.437H420.766L421.875 420.629C419.798 420.932 417.745 421.203 417.745 421.203Z" fill="#6D6A67"/>
<path d="M395.668 374.949C396.582 375.278 399.561 375.865 401.858 375.762V375.136C401.858 375.136 401.733 371.219 401.395 366.308L397.715 366.057L389.941 366.947L382.985 370.045L376.439 374.949L377.258 378.943C377.258 378.943 380.119 377.169 381.757 377.169C383.401 377.169 386.267 375.839 387.49 375.401C388.712 374.949 394.445 374.504 395.668 374.949Z" fill="#6D6A67"/>
<path d="M423.887 164.59C423.887 164.59 413.662 164.59 411.62 164.144C410.89 163.989 409.941 163.764 408.967 163.564C408.285 166.971 407.608 170.391 407.021 173.501L412.445 171.707L419.401 170.817L424.303 168.145L423.887 164.59Z" fill="#6D6A67"/>
<path d="M407.525 202.83C406.552 202.475 403.768 201.849 401.846 201.597C401.311 203.694 400.73 205.908 400.13 208.205L406.712 207.282L412.849 207.721L417.341 206.392L418.57 202.391C418.57 202.391 408.754 203.275 407.525 202.83Z" fill="#6D6A67"/>
<path d="M395.668 237.076L400.576 239.747L406.712 241.522L411.614 240.192L413.252 237.521L405.478 235.746L397.697 231.3L394.475 229.113C393.769 231.668 393.092 234.127 392.433 236.469L395.668 237.076Z" fill="#6D6A67"/>
<path d="M404.659 259.312L406.303 256.647L399.751 254.872L394.024 253.091L388.451 250.736C387.982 252.414 387.703 253.375 387.703 253.375L384.76 256.912L387.068 257.537L393.614 259.764L400.979 260.209L404.659 259.312Z" fill="#6D6A67"/>
<path d="M384.213 269.54L376.777 266.507L370.284 274.309L376.445 273.993L385.026 275.322L393.62 276.213L398.528 272.205H391.169L384.213 269.54Z" fill="#6D6A67"/>
</svg>
