<svg width="480" height="620" viewBox="0 0 480 620" fill="none" xmlns="http://www.w3.org/2000/svg">
<rect width="480" height="620" fill="#FFF9F9" fill-opacity="0.82"/>
<path d="M161.298 247.936H325.73C331.355 247.936 335.92 254.438 335.92 262.485C335.92 270.506 331.355 277.035 325.73 277.035H154.205C156.404 267.278 159.047 257.688 161.298 247.936Z" fill="#D28B57"/>
<path d="M153.37 277.893C153.171 277.511 153.118 277.023 153.223 276.581C154.368 271.486 155.66 266.349 156.91 261.404C158.075 256.774 159.226 252.14 160.303 247.479C160.447 246.87 160.845 246.458 161.298 246.458H325.73C331.926 246.458 336.961 253.636 336.961 262.489C336.961 271.327 331.929 278.52 325.73 278.52H154.205C153.869 278.52 153.565 278.282 153.37 277.893ZM162.023 249.399C161.015 253.75 159.941 258.089 158.841 262.41C157.761 266.719 156.642 271.13 155.621 275.572H325.73C330.781 275.572 334.892 269.683 334.892 262.485C334.892 255.258 330.781 249.399 325.73 249.399H162.023Z" fill="#964835"/>
<path d="M161.298 247.936H325.73C331.355 247.936 335.92 254.438 335.92 262.485C335.92 270.507 331.355 277.035 325.73 277.035H154.205C156.404 267.279 159.047 257.689 161.298 247.936Z" fill="#D28B57"/>
<path d="M341.871 470.608C343.513 481.801 351.203 488.983 359.028 486.624C366.859 484.273 371.877 473.285 370.239 462.115L329.981 188.757C328.334 177.579 320.643 170.412 312.812 172.771C304.981 175.107 299.969 186.092 301.607 197.296L341.871 470.608Z" fill="#D28B57"/>
<path d="M340.843 470.922L300.609 197.594C299.754 191.788 300.55 185.865 302.808 180.913C305.059 175.939 308.544 172.559 312.61 171.331C313.657 171.009 314.75 170.843 315.823 170.843C323.116 170.843 329.498 178.244 330.999 188.462L371.234 461.79C373.006 473.776 367.612 485.566 359.24 488.068C358.186 488.374 357.112 488.541 356.039 488.541C348.74 488.541 342.367 481.14 340.843 470.922ZM313.03 174.207C309.506 175.262 306.488 178.222 304.534 182.508C302.55 186.802 301.884 191.939 302.632 196.997L342.873 470.317C344.168 479.17 349.715 485.577 356.039 485.577C356.962 485.577 357.895 485.453 358.832 485.158C366.082 482.999 370.761 472.79 369.224 462.41L328.976 189.07C327.671 180.214 322.127 173.788 315.823 173.788C314.88 173.788 313.951 173.939 313.03 174.207Z" fill="#964835"/>
<path d="M306.094 177.738L351.474 485.914C346.766 483.646 342.971 478.07 341.871 470.609L301.61 197.296C300.524 189.819 302.413 182.508 306.094 177.738Z" fill="#D28B57"/>
<path opacity="0.5" d="M358.297 459.628C359.246 466.129 361.609 470.903 363.553 470.325C365.508 469.769 366.327 463.993 365.364 457.492L341.995 298.815C341.052 292.313 338.69 287.532 336.732 288.125C334.791 288.704 333.965 294.442 334.928 300.943L358.297 459.628Z" fill="#D28B57"/>
<path d="M108.1 444.322C106.097 455.409 110.773 466.67 118.512 469.546C126.271 472.385 134.181 465.74 136.184 454.668L185.023 184.194C187.033 173.138 182.367 161.862 174.608 158.985C166.849 156.146 158.959 162.792 156.949 173.863L108.1 444.322Z" fill="#D28B57"/>
<path d="M118.264 470.968C109.973 467.913 104.974 455.791 107.121 443.963L155.96 173.497C157.726 163.691 163.902 156.872 170.983 156.872C172.288 156.872 173.603 157.095 174.869 157.553C178.879 159.05 182.266 162.678 184.361 167.77C186.468 172.873 187.062 178.826 186.035 184.587L137.179 455.035C135.407 464.84 129.224 471.674 122.143 471.674C120.845 471.678 119.54 471.425 118.264 470.968ZM157.944 174.222L109.098 444.704C107.242 454.967 111.588 465.471 118.766 468.106C119.872 468.526 121.018 468.749 122.137 468.749C128.288 468.749 133.635 462.799 135.172 454.298L184.025 183.861C184.935 178.872 184.406 173.689 182.589 169.263C180.765 164.837 177.832 161.692 174.35 160.429C173.237 160.01 172.112 159.806 170.976 159.806C164.842 159.802 159.481 165.736 157.944 174.222Z" fill="#964835"/>
<path d="M167.041 159.212L111.967 464.13C108.443 459.125 106.775 451.709 108.1 444.322L156.952 173.863C158.28 166.477 162.255 161.151 167.041 159.212Z" fill="#D28B57"/>
<path opacity="0.5" d="M126.245 444.889C125.087 451.315 125.716 457.084 127.642 457.806C129.583 458.531 132.086 453.882 133.234 447.475L161.602 290.454C162.767 284.028 162.144 278.222 160.199 277.515C158.284 276.819 155.768 281.438 154.619 287.876L126.245 444.889Z" fill="#D28B57"/>
<path d="M236.949 305.933L325.162 272.771C330.601 270.733 336.168 275.364 337.603 283.132C339.046 290.922 335.793 298.864 330.344 300.924L236.091 336.35C236.257 326.216 236.594 316.059 236.949 305.933Z" fill="#D28B57"/>
<path d="M235.468 337.507C235.21 337.224 235.073 336.781 235.073 336.339C235.21 326.228 235.559 316.142 235.915 305.857C235.941 305.207 236.257 304.674 236.698 304.515L324.898 271.353C325.834 270.994 326.8 270.82 327.763 270.82C332.846 270.82 337.313 275.734 338.612 282.754C340.194 291.308 336.589 300.089 330.624 302.33L236.365 337.787C236.287 337.802 236.202 337.817 236.094 337.817C235.876 337.821 235.644 337.715 235.468 337.507ZM325.42 274.184L237.951 307.07C237.615 316.328 237.324 325.381 237.168 334.426L330.095 299.495C334.983 297.654 337.9 290.491 336.615 283.51C335.554 277.779 331.926 273.75 327.763 273.75C326.986 273.75 326.19 273.916 325.42 274.184Z" fill="#964835"/>
<path d="M306.87 297.67C313.641 294.612 335.349 289.962 334.053 275.481C335.727 277.367 337.023 279.968 337.603 283.136C339.046 290.926 335.793 298.868 330.344 300.928L236.091 336.354C236.169 331.334 236.31 326.33 236.447 321.31C260.129 314.695 283.86 308.061 306.87 297.67Z" fill="#D28B57"/>
<path d="M151.164 282.882C152.697 275.129 158.342 270.658 163.749 272.85L240.848 304.043C240.842 314.15 240.907 324.269 241.047 334.389L158.189 300.852C152.776 298.645 149.614 290.597 151.164 282.882Z" fill="#D28B57"/>
<path d="M240.763 335.806L157.908 302.266C155.024 301.09 152.632 298.395 151.164 294.642C149.702 290.926 149.346 286.598 150.169 282.47C151.533 275.602 155.97 270.816 160.962 270.816C161.997 270.816 163.025 271.009 164.02 271.444L241.135 302.644C241.582 302.803 241.886 303.385 241.886 304.039C241.873 314.294 241.951 324.481 242.078 334.354C242.078 334.812 241.938 335.254 241.684 335.538C241.491 335.761 241.276 335.851 241.051 335.851C240.962 335.851 240.848 335.836 240.763 335.806ZM163.459 274.252C162.643 273.931 161.804 273.75 160.962 273.75C156.871 273.75 153.262 277.673 152.149 283.272C151.484 286.643 151.761 290.185 152.965 293.228C154.143 296.279 156.107 298.471 158.473 299.446L239.993 332.423C239.882 323.517 239.827 314.37 239.827 305.146L163.459 274.252Z" fill="#964835"/>
<path d="M151.164 282.882C152.277 277.227 155.601 273.368 159.403 272.491C155.69 275.277 153.259 280.013 155.115 286.987C156.293 291.414 161.452 293.175 164.173 294.442C171.035 297.685 177.946 300.796 184.847 303.71C192.821 307.082 200.923 309.709 208.927 312.873C213.815 314.782 219.241 319.03 224.38 318.358C229.611 317.692 232.41 308.813 234.029 301.283L240.852 304.039C240.845 314.147 240.91 324.266 241.051 334.385L158.189 300.852C152.776 298.645 149.614 290.597 151.164 282.882Z" fill="#D28B57"/>
<path d="M228.903 476.826C228.903 488.257 235.396 497.503 243.393 497.503C251.404 497.503 257.897 488.253 257.897 476.826V197.5C257.897 186.092 251.404 176.808 243.393 176.808C235.396 176.808 228.903 186.095 228.903 197.5V476.826Z" fill="#D28B57"/>
<path d="M227.869 476.827V197.5C227.869 185.29 234.845 175.326 243.394 175.326C251.969 175.326 258.919 185.29 258.919 197.5V476.827C258.919 489.059 251.969 499 243.394 499C234.841 499 227.869 489.059 227.869 476.827ZM229.931 197.5V476.827C229.931 487.411 235.977 496.055 243.394 496.055C250.83 496.055 256.869 487.411 256.869 476.827V197.5C256.869 186.901 250.83 178.271 243.394 178.271C235.977 178.271 229.931 186.901 229.931 197.5Z" fill="#964835"/>
<path d="M236.094 179.722V494.634C231.813 491.024 228.903 484.432 228.903 476.827V197.5C228.903 189.879 231.813 183.31 236.094 179.722Z" fill="#D28B57"/>
<path opacity="0.5" d="M246.559 470.877C246.559 477.522 248.2 482.908 250.174 482.908C252.184 482.908 253.79 477.522 253.79 470.877V308.741C253.79 302.096 252.181 296.709 250.174 296.709C248.2 296.709 246.559 302.096 246.559 308.741V470.877Z" fill="#D28B57"/>
<path d="M101.816 154.222L103.731 152.918C114.698 137.658 171.518 156.025 239.99 156.025C308.469 156.025 355.99 143.344 366.963 158.619L378.174 154.238V188.284C378.174 206.099 316.316 220.55 239.99 220.55C163.664 220.55 101.816 206.099 101.816 188.284C101.816 188.178 101.829 188.087 101.829 187.955L101.816 187.925V154.222Z" fill="#A45C35"/>
<path d="M101 188.284L101.007 188.087C101 188.031 101 187.985 101 187.925V154.222C101 153.878 101.144 153.565 101.401 153.406L103.199 152.177C106.413 147.842 112.962 145.899 124.382 145.899C134.696 145.899 148.165 147.502 163.756 149.361C185.17 151.894 211.812 155.077 239.993 155.077C264.72 155.077 286.262 153.451 305.252 152.019C318.747 151.013 330.405 150.132 339.969 150.132C354.894 150.132 363.132 152.336 367.211 157.496L377.927 153.315C378.171 153.232 378.455 153.277 378.67 153.451C378.879 153.625 379 153.909 379 154.237V188.284C379 206.916 317.944 221.499 239.993 221.499C162.049 221.499 101 206.916 101 188.284ZM367.221 159.488C366.898 159.624 366.542 159.503 366.327 159.212C362.764 154.253 354.636 152.03 339.969 152.03C330.458 152.03 318.832 152.914 305.359 153.909C287.286 155.281 264.772 156.993 239.997 156.993C211.746 156.993 185.053 153.803 163.589 151.248C148.038 149.395 134.621 147.8 124.389 147.8C113.539 147.8 107.17 149.615 104.364 153.531C104.312 153.599 104.24 153.674 104.158 153.739L102.631 154.77V187.925H102.605C102.618 188.084 102.631 188.189 102.631 188.284C102.631 205.26 165.537 219.59 239.99 219.59C314.456 219.59 377.362 205.26 377.362 188.284V155.549L367.221 159.488Z" fill="#9B4B37"/>
<path opacity="0.4" d="M351.934 151.75C359.093 152.695 364.193 154.755 366.963 158.619L378.174 154.238V188.284C378.174 195.341 368.434 201.888 351.934 207.184V151.75Z" fill="#D28B57"/>
<path opacity="0.4" d="M101.816 154.222L103.731 152.918C108.341 146.492 121.132 146.05 139.47 147.66V210.412C116.146 204.636 101.816 196.853 101.816 188.284C101.816 188.178 101.829 188.087 101.829 187.955L101.816 187.925V154.222Z" fill="#D28B57"/>
<path d="M101.816 154.222C101.816 172.045 163.667 186.473 239.993 186.473C316.319 186.473 378.178 172.045 378.178 154.222C378.178 136.4 316.319 121.971 239.993 121.971C163.667 121.971 101.816 136.396 101.816 154.222Z" fill="#D28B57"/>
<path d="M101 154.222C101 135.598 162.049 121 239.993 121C317.944 121 379 135.598 379 154.222C379 172.854 317.944 187.437 239.993 187.437C162.049 187.437 101 172.854 101 154.222ZM102.631 154.222C102.631 171.198 165.537 185.528 239.99 185.528C314.456 185.528 377.362 171.198 377.362 154.222C377.362 137.262 314.456 122.932 239.99 122.932C165.54 122.932 102.631 137.262 102.631 154.222Z" fill="#964835"/>
<path opacity="0.6" d="M103.232 149.599C103.069 150.272 102.961 150.964 102.961 151.644C102.961 169.811 164.307 184.538 239.99 184.538C315.68 184.538 377.039 169.811 377.039 151.644C377.039 150.964 376.941 150.272 376.755 149.599C377.692 151.111 378.171 152.65 378.171 154.222C378.171 172.045 316.313 186.473 239.987 186.473C163.661 186.473 101.816 172.045 101.816 154.222C101.816 152.65 102.305 151.108 103.232 149.599Z" fill="#D28B57"/>
</svg>
