<svg width="480" height="620" viewBox="0 0 480 620" fill="none" xmlns="http://www.w3.org/2000/svg">
<rect width="480" height="620" fill="#FFF9F9" fill-opacity="0.82"/>
<path d="M320.366 390.618C320.208 390.12 304.263 340.083 294.531 294.518C287.044 259.477 287.907 209.015 288.852 185.378C266.641 201.473 213.244 242.414 188.217 281.098C156.231 330.541 142.821 386.917 142.69 387.481L130.834 384.308C131.396 381.911 144.93 325.029 178.169 273.651C211.484 222.156 289.058 169.467 292.339 167.246L302.537 160.364L301.695 173.234C301.647 173.967 296.989 247.332 306.441 291.608C316.037 336.514 331.77 385.898 331.927 386.396L320.366 390.618Z" fill="#50A822"/>
<path d="M234.504 457.138C234.504 511.66 193.203 555.855 142.252 555.855C91.3009 555.855 50 511.66 50 457.138C50 414.255 76.2667 372.156 117.109 372.449C125.465 372.508 128.807 376.729 142.252 376.729C155.697 376.729 158.724 372.31 166.82 372.28C210.066 372.156 234.504 413.983 234.504 457.138Z" fill="#7D0006"/>
<path d="M428.289 438.433C438.008 491.951 405.344 543.769 355.331 554.169C305.318 564.569 256.894 529.616 247.175 476.105C239.531 434.014 257.812 387.32 297.955 379.272C306.167 377.623 310.201 381.082 323.393 378.341C336.585 375.6 338.776 370.638 346.721 368.96C389.152 359.996 420.597 396.071 428.289 438.433Z" fill="#7D0006"/>
<path d="M142.259 376.729C128.821 376.729 125.472 372.507 117.122 372.449C76.2805 372.156 50.0138 414.255 50.0138 457.138C50.0138 493.425 68.3285 525.123 95.5884 542.274C101.479 543.534 107.568 544.209 113.807 544.209C164.759 544.209 206.059 500.013 206.059 445.491C206.059 416.556 195.059 388.243 174.793 372.749C172.217 372.434 169.567 372.273 166.841 372.28C158.724 372.31 155.697 376.729 142.259 376.729Z" fill="#AD0009"/>
<path d="M346.728 368.952C338.783 370.631 336.592 375.593 323.4 378.334C310.208 381.075 306.167 377.616 297.962 379.265C257.819 387.312 239.538 434.007 247.182 476.098C252.442 505.063 269.051 528.568 291.099 542.405C302.571 544.875 314.674 545.058 326.879 542.523C376.892 532.122 409.556 480.305 399.83 426.787C395.481 402.843 383.536 380.914 366.317 367.985C360.112 367.252 353.564 367.509 346.728 368.952Z" fill="#AD0009"/>
<path d="M182.388 183.341C125.43 164.065 96.1295 91.3225 96.1295 91.3225C96.1295 91.3225 159.183 49.8321 216.148 69.1079C273.113 88.3837 302.407 161.126 302.407 161.126C302.407 161.126 239.353 202.617 182.388 183.341Z" fill="#50A822"/>
<path d="M302.455 161.177L96.1774 91.374C96.1774 91.374 125.471 164.116 182.436 183.392C239.401 202.668 302.455 161.177 302.455 161.177Z" fill="#578D38"/>
<path d="M127.944 438.558C127.944 454.301 116.287 467.054 101.903 467.054C87.52 467.054 75.8626 454.294 75.8626 438.558C75.8626 422.822 87.52 410.062 101.903 410.062C116.28 410.055 127.944 422.815 127.944 438.558Z" fill="#FF6269"/>
<path d="M326.304 441.24C326.304 456.976 314.646 469.736 300.263 469.736C285.88 469.736 274.222 456.976 274.222 441.24C274.222 425.505 285.88 412.744 300.263 412.744C314.646 412.744 326.304 425.505 326.304 441.24Z" fill="#FF6269"/>
</svg>
