<svg width="480" height="620" viewBox="0 0 480 620" fill="none" xmlns="http://www.w3.org/2000/svg">
<rect width="480" height="620" fill="#FFF9F9" fill-opacity="0.82"/>
<path d="M82.3674 254.553V462.81L284.506 528.278L287.659 292.078L82.3674 254.553Z" fill="white"/>
<path d="M284.507 528.976C284.416 528.976 284.314 528.957 284.223 528.925L82.0732 463.457C81.752 463.357 81.5432 463.097 81.5432 462.81V254.553C81.5432 254.344 81.6557 254.143 81.8484 254.011C82.0411 253.883 82.2929 253.828 82.5338 253.874L287.826 291.403C288.211 291.471 288.484 291.759 288.479 292.096L285.336 528.296C285.331 528.524 285.197 528.729 284.978 528.862C284.833 528.935 284.673 528.976 284.507 528.976ZM83.1814 462.326L283.704 527.27L286.83 292.648L83.1868 255.42V462.326H83.1814Z" fill="#E0D4CC"/>
<path d="M293.806 124.502V537.302L405.181 506.148V107.324L293.806 124.502Z" fill="#99683C"/>
<path d="M293.806 538C293.64 538 293.469 537.954 293.324 537.863C293.11 537.735 292.987 537.526 292.987 537.302V124.502C292.987 124.164 293.271 123.868 293.656 123.813L405.031 106.635C405.277 106.604 405.518 106.654 405.7 106.79C405.888 106.923 406 107.114 406 107.324V506.148C406 506.449 405.77 506.723 405.438 506.814L294.063 537.968C293.983 537.986 293.892 538 293.806 538ZM294.63 125.085V536.336L404.362 505.647V108.163L294.63 125.085Z" fill="#5B3512"/>
<path d="M293.805 537.302L405.18 506.148V107.324L293.805 537.302Z" fill="#99683C"/>
<path d="M177.655 82.6954L74.8242 94.5789L294.796 124.502L405.18 107.324L177.655 82.6954Z" fill="#B77C48"/>
<path d="M294.796 125.204C294.758 125.204 294.71 125.199 294.668 125.199L74.6906 95.2719C74.2891 95.2172 74 94.9208 74 94.5697C74.0054 94.2277 74.3105 93.9359 74.712 93.8903L177.548 82.0068C177.618 81.9977 177.698 81.9977 177.762 82.0068L405.282 106.636C405.678 106.677 405.989 106.959 406 107.31C406.005 107.652 405.721 107.953 405.325 108.017L294.941 125.199C294.898 125.195 294.849 125.204 294.796 125.204ZM80.4349 94.6381L294.78 123.795L399.822 107.447L177.661 83.3976L80.4349 94.6381Z" fill="#5B3512"/>
<path d="M293.805 120.024L74.8242 94.5789L294.796 124.502L405.18 107.324L293.805 120.024Z" fill="#99683C"/>
<path d="M179.646 303.337L86.2057 107.324L74.8242 94.9116V470.284L86.2057 461.455L179.646 303.337Z" fill="#D29766"/>
<path d="M74.8246 470.981C74.7121 470.981 74.5997 470.963 74.4926 470.926C74.1928 470.812 74 470.566 74 470.284V94.9116C74 94.6106 74.2249 94.3462 74.5568 94.2504C74.8834 94.1592 75.2475 94.2458 75.467 94.483L86.8486 106.895C86.8968 106.945 86.9343 107 86.961 107.059L180.402 303.072C180.487 303.259 180.482 303.469 180.375 303.647L86.9342 461.77C86.8914 461.847 86.827 461.92 86.7575 461.966L75.376 470.794C75.2261 470.917 75.0226 470.981 74.8246 470.981ZM75.6436 96.9408V468.701L85.5369 461.022L178.747 303.305L85.4941 107.675L75.6436 96.9408Z" fill="#5B3512"/>
<path d="M179.646 303.337L279.838 133.781L293.639 124.474L74.8242 94.5787V94.9116L86.2057 107.324L179.646 303.337Z" fill="#D29766"/>
<path d="M179.646 304.043C179.63 304.043 179.619 304.043 179.619 304.043C179.287 304.03 179.003 303.861 178.88 303.601L85.4877 107.68L74.181 95.3403C74.0686 95.2218 74.0044 95.0713 74.0044 94.9117V94.5788C74.0044 94.3736 74.1116 94.1775 74.2936 94.0453C74.4756 93.913 74.7164 93.8538 74.952 93.8857L293.772 123.79C294.094 123.827 294.351 124.032 294.436 124.296C294.517 124.57 294.404 124.848 294.153 125.022L280.496 134.233L180.374 303.642C180.235 303.893 179.951 304.043 179.646 304.043ZM76.4082 95.5045L86.8528 106.895C86.901 106.946 86.9385 107 86.9653 107.06L179.726 301.649L279.109 133.467C279.163 133.375 279.243 133.298 279.334 133.234L291.668 124.917L76.4082 95.5045Z" fill="#5B3512"/>
<path d="M179.646 303.337L86.2057 461.455L74.8242 470.284L293.805 537.302L284.57 523.463L179.646 303.337Z" fill="#D29766"/>
<path d="M293.805 538C293.72 538 293.623 537.982 293.527 537.954L74.546 470.94C74.2783 470.858 74.0747 470.657 74.0212 470.416C73.9623 470.174 74.0641 469.928 74.2676 469.764L85.5314 461.018L178.913 303.017C179.052 302.78 179.336 302.611 179.679 302.639C180 302.648 180.284 302.821 180.407 303.072L285.341 523.198L294.528 536.956C294.694 537.206 294.657 537.53 294.437 537.749C294.282 537.909 294.046 538 293.805 538ZM76.3876 470.014L291.996 536.003L283.858 523.804L179.556 305.028L86.934 461.77C86.8912 461.847 86.8269 461.92 86.7573 461.966L76.3876 470.014Z" fill="#5B3512"/>
<path d="M293.64 124.474L279.839 133.781L179.647 303.336L284.571 523.462L293.806 537.302V124.502L293.64 124.474Z" fill="#D29766"/>
<path d="M293.806 538C293.522 538 293.239 537.868 293.094 537.64L283.859 523.805L178.876 303.596C178.791 303.414 178.796 303.204 178.908 303.022L279.105 133.467C279.159 133.375 279.239 133.298 279.33 133.234L293.131 123.932C293.313 123.808 293.544 123.758 293.774 123.795C294.17 123.845 294.625 124.164 294.625 124.502V537.302C294.625 537.612 294.373 537.9 294.009 537.977C293.945 537.986 293.876 538 293.806 538ZM180.541 303.368L285.337 523.198L292.987 534.657V125.81L280.492 134.237L180.541 303.368Z" fill="#5B3512"/>
<path d="M86.2063 107.324V461.455L179.128 490.498V120.024L86.2063 107.324Z" fill="#EAC496"/>
<path d="M179.127 491.2C179.036 491.2 178.934 491.182 178.843 491.155L85.9216 462.112C85.5951 462.012 85.3862 461.752 85.3862 461.455V107.324C85.3862 107.124 85.4986 106.923 85.6752 106.795C85.8626 106.658 86.0983 106.595 86.3392 106.636L179.266 119.331C179.657 119.385 179.951 119.677 179.951 120.024V490.498C179.951 490.726 179.823 490.941 179.603 491.077C179.453 491.159 179.293 491.2 179.127 491.2ZM87.0244 460.968L178.302 489.495V120.617L87.0244 108.14V460.968Z" fill="#5B3512"/>
<path d="M86.2063 107.324V461.456L91.9506 113.498L179.128 120.024L86.2063 107.324Z" fill="#EAC496"/>
<path d="M86.2062 462.153C85.7512 462.153 85.3818 461.848 85.3818 461.46V107.329C85.3818 107.128 85.4943 106.927 85.671 106.8C85.8584 106.663 86.0939 106.599 86.3348 106.64L179.261 119.335C179.695 119.394 180 119.741 179.941 120.11C179.888 120.489 179.492 120.767 179.058 120.721L92.7643 114.264L87.0254 461.474C87.0201 461.848 86.6506 462.153 86.2062 462.153ZM87.0254 108.14V362.125L91.1316 113.489C91.1369 113.293 91.2333 113.111 91.4046 112.979C91.5705 112.846 91.79 112.778 92.0202 112.801L156.332 117.612L87.0254 108.14Z" fill="#5B3512"/>
<path d="M279.84 133.781L179.129 120.024V490.498L284.572 523.463L279.84 133.781Z" fill="#EAC496"/>
<path d="M284.571 524.16C284.48 524.16 284.378 524.142 284.287 524.115L178.844 491.155C178.523 491.05 178.309 490.79 178.309 490.494V120.024C178.309 119.814 178.416 119.622 178.598 119.49C178.785 119.358 179.01 119.294 179.262 119.331L279.972 133.097C280.363 133.148 280.658 133.439 280.663 133.777L285.39 523.454C285.396 523.677 285.262 523.896 285.042 524.033C284.903 524.115 284.737 524.16 284.571 524.16ZM179.947 490.015L283.741 522.459L279.03 134.383L179.947 120.84V490.015Z" fill="#5B3512"/>
<path d="M279.84 133.781L179.129 120.024V490.498L185.012 125.76L279.84 133.781Z" fill="#EAC496"/>
<path d="M179.128 491.2H179.123C178.668 491.196 178.309 490.881 178.309 490.498V120.024C178.309 119.814 178.416 119.622 178.598 119.49C178.785 119.358 179.01 119.294 179.262 119.331L279.972 133.097C280.411 133.152 280.711 133.503 280.658 133.873C280.599 134.246 280.197 134.516 279.758 134.474L185.815 126.526L179.947 490.507C179.942 490.895 179.572 491.2 179.128 491.2ZM179.947 120.84V388.723L184.187 125.751C184.187 125.555 184.294 125.373 184.46 125.24C184.637 125.113 184.867 125.049 185.092 125.067L252.75 130.795L179.947 120.84Z" fill="#5B3512"/>
<path d="M173.298 294.262C172.447 291.257 169.534 289.255 166.708 289.684L166.702 289.679L166.509 289.716H166.467L166.461 289.72L162.58 289.866L164.62 301.608L169.358 300.993C169.454 300.984 169.545 300.965 169.631 300.956C169.829 300.915 170.005 300.838 170.182 300.774L170.434 300.71V300.696C172.811 299.762 174.09 297.062 173.298 294.262Z" fill="#B77C48"/>
<path d="M164.614 302.311C164.443 302.311 164.266 302.265 164.132 302.174C163.95 302.064 163.832 301.896 163.806 301.718L161.766 289.971C161.728 289.775 161.798 289.575 161.953 289.424C162.098 289.269 162.312 289.182 162.547 289.173L166.354 289.036C166.413 289.032 166.477 289.023 166.52 289.023C166.541 289.018 166.563 289.018 166.573 289.018V289.005C169.871 288.508 173.169 290.806 174.106 294.107C174.962 297.144 173.624 300.136 170.926 301.285C170.856 301.33 170.77 301.367 170.674 301.39L170.423 301.453C170.187 301.545 170.016 301.604 169.844 301.64C169.7 301.663 169.593 301.681 169.48 301.691L164.748 302.311C164.694 302.311 164.657 302.311 164.614 302.311ZM163.516 290.532L165.305 300.81L169.459 300.272C169.523 300.259 169.609 300.227 169.694 300.195C169.721 300.181 169.914 300.117 169.946 300.104L170.037 300.085C170.053 300.076 170.064 300.067 170.085 300.063C172.136 299.255 173.174 296.83 172.5 294.426C171.772 291.832 169.293 289.999 166.857 290.373C166.83 290.377 166.804 290.382 166.777 290.382C166.745 290.382 166.713 290.395 166.686 290.395C166.611 290.414 166.53 290.427 166.461 290.427L163.516 290.532Z" fill="#5B3512"/>
<path d="M169.925 291.399C170.455 291.367 170.99 291.349 171.531 291.33C170.22 290.081 168.453 289.415 166.708 289.684L166.702 289.68L166.509 289.716H166.467L166.461 289.721L162.58 289.867L162.949 291.969C165.251 291.7 167.586 291.54 169.925 291.399Z" fill="#B77C48"/>
<path d="M173.389 297.121C170.284 297.518 167.109 297.678 163.999 298.052L164.614 301.618L169.352 301.002C169.448 300.993 169.539 300.975 169.625 300.966C169.823 300.924 170 300.847 170.176 300.783L170.428 300.719V300.706C171.97 300.09 173.035 298.749 173.389 297.121Z" fill="#B77C48"/>
<path d="M168.822 294.664C169.726 297.856 168.035 300.934 165.058 301.545C162.082 302.151 158.934 300.063 158.034 296.88C157.135 293.692 158.821 290.61 161.803 290.003C164.785 289.392 167.928 291.481 168.822 294.664Z" fill="#EAC496"/>
<path d="M164.009 302.347C160.947 302.347 158.104 300.117 157.237 297.039C156.231 293.483 158.201 290.022 161.611 289.315C165.005 288.626 168.64 291.006 169.631 294.504C170.637 298.052 168.667 301.526 165.257 302.22C164.85 302.306 164.432 302.347 164.009 302.347ZM162.848 290.596C162.564 290.596 162.275 290.623 161.996 290.683C159.459 291.203 158.04 293.916 158.827 296.716C159.603 299.479 162.334 301.381 164.866 300.865C167.404 300.345 168.822 297.641 168.025 294.832C167.334 292.374 165.16 290.596 162.848 290.596Z" fill="#5B3512"/>
<path d="M164.914 293.514C165.337 294.983 164.555 296.396 163.185 296.679C161.814 296.957 160.369 295.995 159.951 294.531C159.534 293.068 160.31 291.649 161.681 291.367C163.062 291.084 164.507 292.046 164.914 293.514Z" fill="#EAC496"/>
<path d="M168.603 293.916C166.997 289.602 162.495 286.948 158.431 287.828L158.415 287.823L158.142 287.887C158.116 287.892 158.089 287.896 158.067 287.905C158.067 287.905 158.062 287.91 158.051 287.91L152.414 288.466L156.847 305.421L163.683 304.089C163.817 304.066 163.946 304.043 164.085 304.007C164.363 303.925 164.604 303.806 164.856 303.701L165.214 303.578V303.556C168.593 301.982 170.108 297.933 168.603 293.916Z" fill="#B77C48"/>
<path d="M156.857 306.127C156.707 306.127 156.552 306.086 156.418 306.018C156.231 305.918 156.097 305.763 156.049 305.58L151.616 288.631C151.573 288.434 151.616 288.234 151.75 288.07C151.884 287.91 152.098 287.805 152.323 287.782L157.896 287.226C157.896 287.226 157.923 287.221 157.933 287.221L158.206 287.162C158.249 287.153 158.276 287.144 158.319 287.139C158.875 287.025 159.448 286.966 160.021 286.966C164.047 286.966 167.896 289.739 169.384 293.71C170.958 297.933 169.449 302.27 165.782 304.103C165.707 304.162 165.621 304.208 165.519 304.239L165.016 304.431C164.796 304.527 164.572 304.618 164.336 304.682C164.202 304.718 164.074 304.741 163.951 304.764L157.034 306.109C156.98 306.118 156.921 306.127 156.857 306.127ZM153.42 289.073L157.478 304.586L163.512 303.414C163.688 303.382 163.774 303.364 163.849 303.346C163.988 303.305 164.127 303.245 164.261 303.182L164.743 302.999C164.77 302.981 164.802 302.967 164.829 302.949C167.88 301.513 169.17 297.723 167.827 294.13C166.558 290.733 163.346 288.361 160.026 288.361C159.555 288.361 159.09 288.412 158.635 288.507C158.608 288.517 158.576 288.521 158.549 288.521L158.361 288.562C158.292 288.58 158.137 288.608 158.062 288.608L153.42 289.073Z" fill="#5B3512"/>
<path d="M163.335 290.04C164.105 289.944 164.882 289.866 165.669 289.789C163.608 288.088 160.931 287.285 158.436 287.828L158.42 287.824L158.147 287.887C158.12 287.892 158.093 287.896 158.072 287.906C158.072 287.906 158.067 287.91 158.056 287.91L152.419 288.466L153.211 291.503C156.557 290.902 159.935 290.459 163.335 290.04Z" fill="#B77C48"/>
<path d="M169.105 298.079C164.624 298.945 160.004 299.451 155.507 300.277L156.856 305.425L163.693 304.094C163.827 304.071 163.955 304.048 164.094 304.011C164.373 303.929 164.614 303.811 164.865 303.706L165.224 303.583V303.56C167.403 302.539 168.784 300.487 169.105 298.079Z" fill="#B77C48"/>
<path d="M162.135 294.91C163.842 299.483 161.765 304.121 157.493 305.288C153.226 306.442 148.381 303.679 146.663 299.109C144.955 294.54 147.038 289.898 151.304 288.74C155.582 287.582 160.427 290.345 162.135 294.91Z" fill="#EAC496"/>
<path d="M155.497 306.246C151.37 306.246 147.413 303.396 145.887 299.319C145.004 296.962 145.036 294.499 145.978 292.397C146.947 290.231 148.752 288.699 151.059 288.074C151.782 287.878 152.536 287.773 153.313 287.773C157.44 287.773 161.391 290.623 162.917 294.695C163.806 297.057 163.768 299.515 162.826 301.627C161.862 303.788 160.053 305.325 157.745 305.949C157.023 306.146 156.268 306.246 155.497 306.246ZM153.313 289.173C152.718 289.173 152.124 289.251 151.557 289.401C149.731 289.894 148.297 291.134 147.515 292.89C146.701 294.7 146.674 296.834 147.451 298.895C148.762 302.402 152.065 304.846 155.492 304.846C156.086 304.846 156.68 304.768 157.248 304.618C159.068 304.121 160.503 302.881 161.295 301.13C162.098 299.315 162.125 297.185 161.348 295.119C160.048 291.617 156.739 289.173 153.313 289.173Z" fill="#5B3512"/>
<path d="M156.294 293.583C157.087 295.685 156.123 297.828 154.164 298.357C152.193 298.891 149.966 297.618 149.179 295.516C148.392 293.414 149.351 291.28 151.31 290.746C153.275 290.204 155.507 291.476 156.294 293.583Z" fill="#EAC496"/>
<path d="M204.23 297.021C203.379 294.011 200.466 292.014 197.64 292.443L197.634 292.438L197.442 292.47C197.425 292.475 197.409 292.475 197.393 292.479L197.388 292.484L193.507 292.621L195.552 304.367L200.29 303.752C200.381 303.743 200.477 303.733 200.563 303.711C200.761 303.67 200.932 303.592 201.114 303.533L201.366 303.469L201.36 303.451C203.743 302.52 205.022 299.825 204.23 297.021Z" fill="#B77C48"/>
<path d="M195.547 305.074C195.37 305.074 195.199 305.024 195.054 304.937C194.883 304.828 194.765 304.659 194.733 304.477L192.694 292.735C192.656 292.534 192.726 292.338 192.87 292.183C193.025 292.028 193.234 291.937 193.47 291.927L197.33 291.786C197.383 291.781 197.442 291.786 197.496 291.786V291.759C200.804 291.257 204.091 293.555 205.028 296.861C205.89 299.898 204.552 302.89 201.854 304.034C201.784 304.08 201.698 304.121 201.602 304.144L201.35 304.203C201.12 304.294 200.943 304.349 200.767 304.39C200.74 304.395 200.52 304.431 200.494 304.436L195.675 305.065C195.627 305.069 195.59 305.074 195.547 305.074ZM200.162 303.068L200.563 303.715L200.376 303.04C200.467 303.022 200.553 302.981 200.628 302.954C200.665 302.944 200.847 302.876 200.879 302.871L200.97 302.849C200.986 302.84 200.997 302.83 201.018 302.826C203.069 302.019 204.107 299.593 203.433 297.19C202.694 294.59 200.242 292.766 197.79 293.14C197.758 293.145 197.726 293.145 197.705 293.145C197.662 293.154 197.63 293.159 197.603 293.163C197.528 293.181 197.458 293.186 197.389 293.186L194.45 293.295L196.232 303.578L200.162 303.068Z" fill="#5B3512"/>
<path d="M200.852 294.157C201.387 294.125 201.922 294.107 202.463 294.089C201.157 292.844 199.385 292.178 197.64 292.447L197.634 292.443L197.442 292.475C197.425 292.479 197.409 292.479 197.393 292.484L197.388 292.488L193.507 292.625L193.876 294.732C196.183 294.458 198.512 294.299 200.852 294.157Z" fill="#B77C48"/>
<path d="M204.321 299.871C201.216 300.281 198.041 300.427 194.931 300.806L195.546 304.372L200.284 303.756C200.375 303.747 200.472 303.738 200.557 303.715C200.755 303.674 200.927 303.596 201.109 303.537L201.36 303.473L201.355 303.455C202.907 302.853 203.967 301.503 204.321 299.871Z" fill="#B77C48"/>
<path d="M199.755 297.427C200.66 300.614 198.968 303.692 195.992 304.303C193.015 304.914 189.862 302.826 188.968 299.638C188.068 296.451 189.755 293.368 192.731 292.766C195.713 292.155 198.856 294.244 199.755 297.427Z" fill="#EAC496"/>
<path d="M194.936 305.111C191.885 305.111 189.037 302.876 188.175 299.803C187.163 296.246 189.122 292.785 192.538 292.083C195.932 291.394 199.567 293.77 200.552 297.263C201.034 298.959 200.863 300.687 200.071 302.128C199.257 303.624 197.87 304.636 196.179 304.983C195.782 305.065 195.365 305.111 194.936 305.111ZM193.785 293.355C193.496 293.355 193.202 293.382 192.929 293.441C190.397 293.961 188.978 296.67 189.76 299.479C190.536 302.238 193.277 304.148 195.798 303.629C196.987 303.382 197.977 302.648 198.582 301.535C199.219 300.382 199.348 298.982 198.952 297.591C198.266 295.133 196.087 293.355 193.785 293.355Z" fill="#5B3512"/>
<path d="M195.846 296.278C196.269 297.741 195.493 299.16 194.117 299.442C192.747 299.721 191.296 298.763 190.883 297.29C190.466 295.826 191.242 294.408 192.613 294.125C193.994 293.843 195.439 294.809 195.846 296.278Z" fill="#EAC496"/>
<path d="M199.535 296.679C197.929 292.361 193.427 289.711 189.358 290.591H189.353L189.08 290.655C189.058 290.66 189.032 290.664 188.999 290.669L183.357 291.234L187.789 308.184L194.631 306.857C194.76 306.83 194.894 306.811 195.028 306.775C195.306 306.697 195.552 306.57 195.814 306.469L196.173 306.351L196.162 306.333C199.524 304.741 201.039 300.696 199.535 296.679Z" fill="#B77C48"/>
<path d="M187.79 308.886C187.635 308.886 187.485 308.845 187.351 308.777C187.169 308.676 187.04 308.517 186.987 308.339L182.554 291.389C182.511 291.193 182.554 290.993 182.688 290.829C182.822 290.669 183.036 290.564 183.266 290.541L188.839 289.989C188.85 289.985 188.871 289.98 188.871 289.98L189.144 289.917C189.171 289.907 189.203 289.903 189.235 289.898C189.792 289.78 190.37 289.72 190.954 289.72C194.985 289.72 198.84 292.493 200.328 296.465C201.902 300.683 200.387 305.019 196.725 306.852C196.65 306.916 196.564 306.962 196.468 306.998L195.959 307.181C195.745 307.277 195.52 307.372 195.279 307.441C195.167 307.473 195.055 307.495 194.937 307.518L187.972 308.873C187.908 308.877 187.849 308.886 187.79 308.886ZM184.353 291.836L188.406 307.349L194.771 306.114C194.926 306.068 195.06 306.004 195.205 305.945L195.676 305.763C195.702 305.744 195.735 305.731 195.761 305.717C198.813 304.281 200.103 300.487 198.759 296.893C197.308 293.017 193.202 290.482 189.567 291.271C189.546 291.275 189.524 291.28 189.503 291.285L189.294 291.335C189.23 291.353 189.069 291.376 188.994 291.376L184.353 291.836Z" fill="#5B3512"/>
<path d="M194.267 292.803C195.038 292.712 195.814 292.63 196.601 292.557C194.54 290.851 191.874 290.049 189.358 290.592H189.353L189.08 290.655C189.058 290.66 189.032 290.664 188.999 290.669L183.357 291.234L184.149 294.267C187.49 293.66 190.868 293.214 194.267 292.803Z" fill="#B77C48"/>
<path d="M200.039 300.838C195.558 301.7 190.943 302.21 186.441 303.036L187.79 308.179L194.632 306.852C194.76 306.825 194.894 306.807 195.028 306.77C195.306 306.693 195.552 306.565 195.815 306.465L196.173 306.346L196.163 306.328C198.336 305.302 199.712 303.245 200.039 300.838Z" fill="#B77C48"/>
<path d="M193.068 297.673C194.776 302.242 192.704 306.889 188.426 308.043C184.16 309.206 179.315 306.438 177.596 301.868C175.888 297.295 177.971 292.657 182.238 291.499C186.515 290.336 191.36 293.104 193.068 297.673Z" fill="#EAC496"/>
<path d="M186.425 309.009C182.297 309.009 178.341 306.159 176.82 302.083C174.979 297.153 177.302 292.11 181.992 290.833C182.72 290.637 183.475 290.537 184.246 290.537C188.373 290.537 192.324 293.382 193.845 297.463C194.733 299.821 194.707 302.283 193.759 304.385C192.795 306.551 190.986 308.084 188.678 308.713C187.956 308.909 187.195 309.009 186.425 309.009ZM184.246 291.927C183.641 291.927 183.057 292.005 182.49 292.16C178.651 293.2 176.81 297.459 178.384 301.654C179.695 305.156 183.004 307.609 186.425 307.609C187.024 307.609 187.618 307.532 188.181 307.381C190.006 306.884 191.441 305.644 192.222 303.888C193.036 302.074 193.058 299.944 192.287 297.883C190.98 294.381 187.672 291.927 184.246 291.927Z" fill="#5B3512"/>
<path d="M187.222 296.337C188.014 298.444 187.056 300.582 185.086 301.116C183.121 301.645 180.883 300.373 180.101 298.266C179.315 296.168 180.278 294.025 182.238 293.492C184.202 292.963 186.44 294.235 187.222 296.337Z" fill="#EAC496"/>
</svg>
