<svg width="480" height="620" viewBox="0 0 480 620" fill="none" xmlns="http://www.w3.org/2000/svg">
<rect width="480" height="620" fill="#FFF9F9" fill-opacity="0.82"/>
<path d="M321.932 260.24C333.244 345.833 284.551 431.181 213.236 451.381C124.092 476.635 58.4441 381.122 50.9421 336.552C43.44 291.988 80.4578 172.192 172.268 141.414C243.065 117.681 310.619 174.639 321.932 260.24Z" fill="#573A1E"/>
<path d="M185.004 408.431C256.313 388.231 305.012 302.884 293.699 217.29C291.466 200.392 287.013 184.637 280.805 170.374C252.339 140.762 212.848 127.831 172.273 141.428C80.4628 172.206 43.445 292.002 50.9471 336.565C52.2505 344.305 55.31 353.587 59.9416 363.499C89.0693 396.833 133.042 423.151 185.004 408.431Z" fill="#6B4B28"/>
<path d="M171.86 244.195C179.149 263.077 170.283 290.474 152.056 305.382C133.828 320.289 113.137 317.06 105.849 298.177C98.5612 279.295 107.426 251.898 125.654 236.991C143.882 222.083 164.567 225.305 171.86 244.195Z" fill="#7A5C3A"/>
<path d="M341.398 175.235C338.488 175.054 335.563 174.953 332.603 175.039C266.124 176.987 213.187 247.484 214.366 332.506C215.545 417.52 270.387 484.86 336.866 482.913C344.716 482.681 352.363 481.465 359.77 479.416C354.288 390.535 345.353 244.784 341.398 175.235Z" fill="#694724"/>
<path d="M332.608 175.039C283.138 176.487 241.19 215.91 223.435 271.015C221.982 281.042 221.291 291.396 221.435 301.973C222.614 386.987 277.456 454.328 343.935 452.38C348.706 452.243 353.397 451.692 358.014 450.86C352.537 361.849 344.955 237.761 341.403 175.242C338.493 175.054 335.568 174.952 332.608 175.039Z" fill="#7A552E"/>
<path d="M351.747 481.71C394.965 480.446 429.051 410.721 427.88 325.974C426.71 241.228 390.725 173.553 347.507 174.818C304.289 176.082 270.203 245.808 271.373 330.554C272.544 415.3 308.528 482.975 351.747 481.71Z" fill="#694724"/>
<mask id="mask0_2090_113838" style="mask-type:luminance" maskUnits="userSpaceOnUse" x="280" y="186" width="141" height="282">
<path d="M354.313 467.129C393.071 464.86 422.758 400.312 420.62 322.957C418.482 245.602 385.329 184.732 346.571 187.001C307.812 189.27 278.126 253.818 280.264 331.173C282.402 408.529 315.555 469.398 354.313 467.129Z" fill="white"/>
</mask>
<g mask="url(#mask0_2090_113838)">
<path d="M352.413 467.185C391.195 466.05 421.767 402.383 420.698 324.981C419.628 247.579 387.323 185.752 348.541 186.887C309.759 188.021 279.187 251.688 280.256 329.09C281.325 406.492 313.631 468.319 352.413 467.185Z" fill="#D3DEF1"/>
</g>
<path d="M396.484 299.31C395.917 258.345 386.575 221.811 372.182 196.608C371.083 195.297 369.974 194.008 368.839 192.814C362.392 189.172 355.596 187.261 348.577 187.463C309.793 188.6 279.223 252.27 280.292 329.675C280.859 370.64 290.202 407.174 304.594 432.377C305.694 433.688 306.803 434.976 307.937 436.171C314.385 439.813 321.18 441.724 328.2 441.522C366.984 440.385 397.554 376.715 396.484 299.31Z" fill="#F4FBFE"/>
<path d="M396.723 335.95C388.545 351.133 389.704 386.899 389.704 386.899C389.704 386.899 380.938 400.2 375.108 406.687C369.038 413.442 361.516 420.45 354.039 420.668C344.96 420.936 337.771 410.474 330.647 401.264C327.658 397.398 327.697 387.414 325.255 382.273C322.459 376.401 315.365 367.937 315.365 367.937C315.365 367.937 318.494 351.488 318.3 337.623C318.205 330.759 310.3 316.38 310.3 316.38C310.3 316.38 322.573 284.458 320.255 269.572C318.449 257.966 332.712 242.335 332.712 242.335L360.432 238.845C360.432 238.845 373.829 248.851 381.615 254.346C393.385 262.651 401.738 298.772 401.738 298.772C401.738 298.772 402.653 324.952 396.723 335.95Z" fill="#A1ACB9"/>
<mask id="mask1_2090_113838" style="mask-type:luminance" maskUnits="userSpaceOnUse" x="280" y="186" width="141" height="282">
<path d="M352.413 467.184C391.194 466.049 421.766 402.383 420.697 324.981C419.628 247.579 387.322 185.752 348.541 186.887C309.759 188.021 279.187 251.688 280.256 329.09C281.325 406.492 313.631 468.318 352.413 467.184Z" fill="white"/>
</mask>
<g mask="url(#mask1_2090_113838)">
<path d="M326.399 191.82L329.961 234.95L320.718 192.971L326.399 191.82Z" fill="#A1ACB9"/>
</g>
<mask id="mask2_2090_113838" style="mask-type:luminance" maskUnits="userSpaceOnUse" x="280" y="186" width="141" height="282">
<path d="M352.413 467.184C391.194 466.049 421.766 402.383 420.697 324.981C419.628 247.579 387.322 185.752 348.541 186.887C309.759 188.021 279.187 251.688 280.256 329.09C281.325 406.492 313.631 468.318 352.413 467.184Z" fill="white"/>
</mask>
<g mask="url(#mask2_2090_113838)">
<path d="M340.025 273.391L289.167 238.601L288.943 248.347L340.025 273.391Z" fill="#A1ACB9"/>
</g>
<mask id="mask3_2090_113838" style="mask-type:luminance" maskUnits="userSpaceOnUse" x="280" y="186" width="141" height="282">
<path d="M352.413 467.184C391.194 466.049 421.766 402.383 420.697 324.981C419.628 247.579 387.322 185.752 348.541 186.887C309.759 188.021 279.187 251.688 280.256 329.09C281.325 406.492 313.631 468.318 352.413 467.184Z" fill="white"/>
</mask>
<g mask="url(#mask3_2090_113838)">
<path d="M348.636 326.878L271.183 298.765L275.616 311.782L348.636 326.878Z" fill="#A1ACB9"/>
</g>
<mask id="mask4_2090_113838" style="mask-type:luminance" maskUnits="userSpaceOnUse" x="280" y="186" width="141" height="282">
<path d="M352.413 467.184C391.194 466.049 421.766 402.383 420.697 324.981C419.628 247.579 387.322 185.752 348.541 186.887C309.759 188.021 279.187 251.688 280.256 329.09C281.325 406.492 313.631 468.318 352.413 467.184Z" fill="white"/>
</mask>
<g mask="url(#mask4_2090_113838)">
<path d="M282.173 377.075L303.087 371.558L280.531 387.11L282.173 377.075Z" fill="#A1ACB9"/>
</g>
<mask id="mask5_2090_113838" style="mask-type:luminance" maskUnits="userSpaceOnUse" x="280" y="186" width="141" height="282">
<path d="M352.413 467.184C391.194 466.049 421.766 402.383 420.697 324.981C419.628 247.579 387.322 185.752 348.541 186.887C309.759 188.021 279.187 251.688 280.256 329.09C281.325 406.492 313.631 468.318 352.413 467.184Z" fill="white"/>
</mask>
<g mask="url(#mask5_2090_113838)">
<path d="M304.161 437.121L318.225 408.537L311.653 445.723L304.161 437.121Z" fill="#A1ACB9"/>
</g>
<mask id="mask6_2090_113838" style="mask-type:luminance" maskUnits="userSpaceOnUse" x="280" y="186" width="141" height="282">
<path d="M352.413 467.184C391.194 466.049 421.766 402.383 420.697 324.981C419.628 247.579 387.322 185.752 348.541 186.887C309.759 188.021 279.187 251.688 280.256 329.09C281.325 406.492 313.631 468.318 352.413 467.184Z" fill="white"/>
</mask>
<g mask="url(#mask6_2090_113838)">
<path d="M296.271 427.343L315.852 380.774L300.117 431.202L296.271 427.343Z" fill="#A1ACB9"/>
</g>
<mask id="mask7_2090_113838" style="mask-type:luminance" maskUnits="userSpaceOnUse" x="280" y="186" width="141" height="282">
<path d="M352.413 467.184C391.194 466.049 421.766 402.383 420.697 324.981C419.628 247.579 387.322 185.752 348.541 186.887C309.759 188.021 279.187 251.688 280.256 329.09C281.325 406.492 313.631 468.318 352.413 467.184Z" fill="white"/>
</mask>
<g mask="url(#mask7_2090_113838)">
<path d="M286.292 253.948L309.813 263.505L285.262 261.326L286.292 253.948Z" fill="#A1ACB9"/>
</g>
<mask id="mask8_2090_113838" style="mask-type:luminance" maskUnits="userSpaceOnUse" x="280" y="186" width="141" height="282">
<path d="M352.413 467.184C391.194 466.049 421.766 402.383 420.697 324.981C419.628 247.579 387.322 185.752 348.541 186.887C309.759 188.021 279.187 251.688 280.256 329.09C281.325 406.492 313.631 468.318 352.413 467.184Z" fill="white"/>
</mask>
<g mask="url(#mask8_2090_113838)">
<path d="M332.702 188.002L337.438 249.449L338.796 185.077L332.702 188.002Z" fill="#A1ACB9"/>
</g>
<mask id="mask9_2090_113838" style="mask-type:luminance" maskUnits="userSpaceOnUse" x="280" y="186" width="141" height="282">
<path d="M352.413 467.184C391.194 466.049 421.766 402.383 420.697 324.981C419.628 247.579 387.322 185.752 348.541 186.887C309.759 188.021 279.187 251.688 280.256 329.09C281.325 406.492 313.631 468.318 352.413 467.184Z" fill="white"/>
</mask>
<g mask="url(#mask9_2090_113838)">
<path d="M352.8 183.075C352.184 185.733 350.318 205.505 350.318 205.505L361.929 184.589L352.8 183.075Z" fill="#A1ACB9"/>
</g>
<mask id="mask10_2090_113838" style="mask-type:luminance" maskUnits="userSpaceOnUse" x="280" y="186" width="141" height="282">
<path d="M352.413 467.184C391.194 466.049 421.766 402.383 420.697 324.981C419.628 247.579 387.322 185.752 348.541 186.887C309.759 188.021 279.187 251.688 280.256 329.09C281.325 406.492 313.631 468.318 352.413 467.184Z" fill="white"/>
</mask>
<g mask="url(#mask10_2090_113838)">
<path d="M302.415 210.606L316.171 230.162L300.376 216.5L302.415 210.606Z" fill="#A1ACB9"/>
</g>
<mask id="mask11_2090_113838" style="mask-type:luminance" maskUnits="userSpaceOnUse" x="280" y="186" width="141" height="282">
<path d="M352.413 467.184C391.194 466.049 421.766 402.383 420.697 324.981C419.628 247.579 387.322 185.752 348.541 186.887C309.759 188.021 279.187 251.688 280.256 329.09C281.325 406.492 313.631 468.318 352.413 467.184Z" fill="white"/>
</mask>
<g mask="url(#mask11_2090_113838)">
<path d="M280.014 342.511L312.29 337.639L278.78 350.779L280.014 342.511Z" fill="#A1ACB9"/>
</g>
<mask id="mask12_2090_113838" style="mask-type:luminance" maskUnits="userSpaceOnUse" x="280" y="186" width="141" height="282">
<path d="M352.413 467.184C391.194 466.049 421.766 402.383 420.697 324.981C419.628 247.579 387.322 185.752 348.541 186.887C309.759 188.021 279.187 251.688 280.256 329.09C281.325 406.492 313.631 468.318 352.413 467.184Z" fill="white"/>
</mask>
<g mask="url(#mask12_2090_113838)">
<path d="M383.779 403.23L398.937 431.351L394.455 439.012L383.779 403.23Z" fill="#A1ACB9"/>
</g>
<mask id="mask13_2090_113838" style="mask-type:luminance" maskUnits="userSpaceOnUse" x="280" y="186" width="141" height="282">
<path d="M352.413 467.184C391.194 466.049 421.766 402.383 420.697 324.981C419.628 247.579 387.322 185.752 348.541 186.887C309.759 188.021 279.187 251.688 280.256 329.09C281.325 406.492 313.631 468.318 352.413 467.184Z" fill="white"/>
</mask>
<g mask="url(#mask13_2090_113838)">
<path d="M369.72 428.852L379.595 462.273L382.853 456.966L369.72 428.852Z" fill="#A1ACB9"/>
</g>
<mask id="mask14_2090_113838" style="mask-type:luminance" maskUnits="userSpaceOnUse" x="280" y="186" width="141" height="282">
<path d="M352.413 467.184C391.194 466.049 421.766 402.383 420.697 324.981C419.628 247.579 387.322 185.752 348.541 186.887C309.759 188.021 279.187 251.688 280.256 329.09C281.325 406.492 313.631 468.318 352.413 467.184Z" fill="white"/>
</mask>
<g mask="url(#mask14_2090_113838)">
<path d="M350.552 473.66L352.273 428.192L347.104 473.943L350.552 473.66Z" fill="#A1ACB9"/>
</g>
<mask id="mask15_2090_113838" style="mask-type:luminance" maskUnits="userSpaceOnUse" x="280" y="186" width="141" height="282">
<path d="M352.413 467.184C391.194 466.049 421.766 402.383 420.697 324.981C419.628 247.579 387.322 185.752 348.541 186.887C309.759 188.021 279.187 251.688 280.256 329.09C281.325 406.492 313.631 468.318 352.413 467.184Z" fill="white"/>
</mask>
<g mask="url(#mask15_2090_113838)">
<path d="M415.254 393.037L392.549 382.894L414.016 401.298L415.254 393.037Z" fill="#A1ACB9"/>
</g>
<mask id="mask16_2090_113838" style="mask-type:luminance" maskUnits="userSpaceOnUse" x="280" y="186" width="141" height="282">
<path d="M352.413 467.184C391.194 466.049 421.766 402.383 420.697 324.981C419.628 247.579 387.322 185.752 348.541 186.887C309.759 188.021 279.187 251.688 280.256 329.09C281.325 406.492 313.631 468.318 352.413 467.184Z" fill="white"/>
</mask>
<g mask="url(#mask16_2090_113838)">
<path d="M397.042 275.713L416.538 267.531L418.757 272.563L397.042 275.713Z" fill="#A1ACB9"/>
</g>
<mask id="mask17_2090_113838" style="mask-type:luminance" maskUnits="userSpaceOnUse" x="280" y="186" width="141" height="282">
<path d="M352.413 467.184C391.194 466.049 421.766 402.383 420.697 324.981C419.628 247.579 387.322 185.752 348.541 186.887C309.759 188.021 279.187 251.688 280.256 329.09C281.325 406.492 313.631 468.318 352.413 467.184Z" fill="white"/>
</mask>
<g mask="url(#mask17_2090_113838)">
<path d="M370.849 186.997L366.108 222.12L374.501 188.786L370.849 186.997Z" fill="#A1ACB9"/>
</g>
<mask id="mask18_2090_113838" style="mask-type:luminance" maskUnits="userSpaceOnUse" x="280" y="186" width="141" height="282">
<path d="M352.413 467.184C391.194 466.049 421.766 402.383 420.697 324.981C419.628 247.579 387.322 185.752 348.541 186.887C309.759 188.021 279.187 251.688 280.256 329.09C281.325 406.492 313.631 468.318 352.413 467.184Z" fill="white"/>
</mask>
<g mask="url(#mask18_2090_113838)">
<path d="M400.141 344.24L424.463 356.165L421.811 361.761L400.141 344.24Z" fill="#A1ACB9"/>
</g>
<path d="M348.452 254.348C343.751 251.032 337.025 246.087 332.419 242.677C330.468 244.892 318.598 258.917 320.26 269.581C322.578 284.467 310.305 316.389 310.305 316.389C310.305 316.389 318.21 330.768 318.305 337.632C318.499 351.497 315.37 367.946 315.37 367.946C315.37 367.946 322.464 376.403 325.26 382.289C327.702 387.43 327.663 397.414 330.652 401.28C333.105 404.451 335.573 407.753 338.12 410.728C339.443 409.411 340.731 408.057 341.95 406.703C347.786 400.208 356.546 386.915 356.546 386.915C356.546 386.915 355.387 351.149 363.566 335.966C369.491 324.961 368.581 298.788 368.581 298.788C368.581 298.788 360.223 262.652 348.452 254.348Z" fill="#929CA8"/>
</svg>
