<svg width="480" height="620" viewBox="0 0 480 620" fill="none" xmlns="http://www.w3.org/2000/svg">
<rect width="480" height="620" fill="#FFF9F9" fill-opacity="0.82"/>
<path d="M328.721 235.175C338.661 246.924 408.223 321.342 421.606 361.945C426.241 376.012 434.506 397.228 431.266 413.232C425.503 441.695 400.844 443.46 380.519 435.742C339.5 420.166 308.998 389.567 273.674 359.538C234.402 326.156 198.485 287.01 165.37 244.694C152.886 228.742 140.44 211.599 135.063 190.462C129.681 169.325 133.32 143.123 148.119 130.529C158.504 121.694 176.408 123.088 188.553 127.318C218.894 137.886 300.839 202.221 328.721 235.175Z" fill="#1D3C1C"/>
<mask id="mask0_2090_115524" style="mask-type:luminance" maskUnits="userSpaceOnUse" x="132" y="124" width="300" height="316">
<path d="M328.721 235.175C338.661 246.924 408.223 321.342 421.606 361.945C426.241 376.012 434.506 397.228 431.266 413.232C425.503 441.695 400.844 443.46 380.519 435.742C339.5 420.166 308.998 389.567 273.674 359.538C234.402 326.156 198.485 287.01 165.37 244.694C152.886 228.742 140.44 211.599 135.063 190.462C129.681 169.325 133.32 143.123 148.119 130.529C158.504 121.694 176.408 123.088 188.553 127.318C218.894 137.886 300.839 202.221 328.721 235.175Z" fill="white"/>
</mask>
<g mask="url(#mask0_2090_115524)">
<g opacity="0.27">
<path d="M101.528 125.626C81.4958 161.655 107.257 205.772 123.66 235.802C148.624 281.506 179.398 321.258 211.087 359.872C241.539 396.977 275.875 429.314 309.621 461.678C344.343 494.976 388.22 526.363 431.966 502.234C445.955 494.517 453.279 474.539 450.688 456.435C443.666 407.352 411.721 396.23 381.406 373.104C348.185 347.758 315.762 319.796 284.666 290.665C254.316 262.233 224.327 233.447 194.999 203.417C169.789 177.602 148.7 141.855 120.242 121.328C113.923 116.77 105.892 117.778 101.528 125.626Z" fill="#1D3C1C"/>
</g>
</g>
<mask id="mask1_2090_115524" style="mask-type:luminance" maskUnits="userSpaceOnUse" x="132" y="124" width="300" height="316">
<path d="M328.721 235.175C338.661 246.924 408.223 321.342 421.606 361.945C426.241 376.012 434.506 397.228 431.266 413.232C425.503 441.695 400.844 443.46 380.519 435.742C339.5 420.166 308.998 389.567 273.674 359.538C234.402 326.156 198.485 287.01 165.37 244.694C152.886 228.742 140.44 211.599 135.063 190.462C129.681 169.325 133.32 143.123 148.119 130.529C158.504 121.694 176.408 123.088 188.553 127.318C218.894 137.886 300.839 202.221 328.721 235.175Z" fill="white"/>
</mask>
<g mask="url(#mask1_2090_115524)">
<g opacity="0.08">
<path d="M87.0001 141.781C66.9676 177.81 92.7291 221.928 109.132 251.957C134.096 297.657 164.87 337.414 196.559 376.028C227.011 413.132 261.347 445.47 295.093 477.833C329.815 511.132 373.692 542.519 417.438 518.39C431.427 510.672 438.751 490.694 436.16 472.591C429.133 423.508 397.193 412.386 366.877 389.259C333.657 363.914 301.233 335.952 270.142 306.821C239.792 278.389 209.803 249.602 180.475 219.573C155.265 193.757 134.176 158.01 105.718 137.484C99.3952 132.92 91.3678 133.928 87.0001 141.781Z" fill="#1D3C1C"/>
</g>
</g>
<mask id="mask2_2090_115524" style="mask-type:luminance" maskUnits="userSpaceOnUse" x="132" y="124" width="300" height="316">
<path d="M328.721 235.175C338.661 246.924 408.223 321.342 421.606 361.945C426.241 376.012 434.506 397.228 431.266 413.232C425.503 441.695 400.844 443.46 380.519 435.742C339.5 420.166 308.998 389.567 273.674 359.538C234.402 326.156 198.485 287.01 165.37 244.694C152.886 228.742 140.44 211.599 135.063 190.462C129.681 169.325 133.32 143.123 148.119 130.529C158.504 121.694 176.408 123.088 188.553 127.318C218.894 137.886 300.839 202.221 328.721 235.175Z" fill="white"/>
</mask>
<g mask="url(#mask2_2090_115524)">
<g opacity="0.08">
<path d="M79.5366 159.002C59.5042 195.031 85.2656 239.149 101.668 269.178C126.632 314.878 157.406 354.635 189.096 393.249C219.547 430.353 253.883 462.691 287.63 495.054C322.347 528.352 366.229 559.74 409.974 535.61C423.964 527.893 431.287 507.915 428.696 489.812C421.67 440.729 389.73 429.607 359.414 406.48C326.193 381.135 293.77 353.173 262.674 324.042C232.324 295.61 202.335 266.823 173.007 236.794C147.797 210.978 126.709 175.231 98.2502 154.705C91.9318 150.141 83.9001 151.154 79.5366 159.002Z" fill="#1D3C1C"/>
</g>
</g>
<mask id="mask3_2090_115524" style="mask-type:luminance" maskUnits="userSpaceOnUse" x="132" y="124" width="300" height="316">
<path d="M328.721 235.175C338.661 246.924 408.223 321.342 421.606 361.945C426.241 376.012 434.506 397.228 431.266 413.232C425.503 441.695 400.844 443.46 380.519 435.742C339.5 420.166 308.998 389.567 273.674 359.538C234.402 326.156 198.485 287.01 165.37 244.694C152.886 228.742 140.44 211.599 135.063 190.462C129.681 169.325 133.32 143.123 148.119 130.529C158.504 121.694 176.408 123.088 188.553 127.318C218.894 137.886 300.839 202.221 328.721 235.175Z" fill="white"/>
</mask>
<g mask="url(#mask3_2090_115524)">
<g opacity="0.06">
<path d="M479.846 412.866C499.493 376.519 473.269 332.819 456.553 303.056C431.109 257.758 399.916 218.497 367.819 180.395C336.977 143.781 302.302 111.997 268.216 80.1768C233.147 47.4373 188.939 16.7604 145.452 41.5839C131.547 49.5208 124.436 69.6187 127.218 87.6802C134.761 136.648 166.82 147.259 197.378 169.894C230.861 194.702 263.581 222.147 294.979 250.772C325.625 278.713 355.916 307.019 385.561 336.579C411.043 361.987 432.509 397.395 461.179 417.461C467.544 421.926 475.563 420.787 479.846 412.866Z" fill="#CAE98B"/>
</g>
</g>
<mask id="mask4_2090_115524" style="mask-type:luminance" maskUnits="userSpaceOnUse" x="132" y="124" width="300" height="316">
<path d="M328.721 235.175C338.661 246.924 408.223 321.342 421.606 361.945C426.241 376.012 434.506 397.228 431.266 413.232C425.503 441.695 400.844 443.46 380.519 435.742C339.5 420.166 308.998 389.567 273.674 359.538C234.402 326.156 198.485 287.01 165.37 244.694C152.886 228.742 140.44 211.599 135.063 190.462C129.681 169.325 133.32 143.123 148.119 130.529C158.504 121.694 176.408 123.088 188.553 127.318C218.894 137.886 300.839 202.221 328.721 235.175Z" fill="white"/>
</mask>
<g mask="url(#mask4_2090_115524)">
<g opacity="0.06">
<path d="M490.257 392.899C509.903 356.551 483.68 312.851 466.963 283.088C441.52 237.791 410.326 198.535 378.229 160.433C347.388 123.819 312.713 92.035 278.627 60.2146C243.558 27.4751 199.35 -3.20181 155.863 21.6217C141.958 29.5585 134.846 49.6565 137.628 67.718C145.172 116.686 177.231 127.291 207.788 149.932C241.272 174.74 273.992 202.185 305.389 230.81C336.036 258.75 366.326 287.057 395.972 316.616C421.454 342.025 442.919 377.432 471.59 397.499C477.955 401.958 485.974 400.82 490.257 392.899Z" fill="#CAE98B"/>
</g>
</g>
<g opacity="0.09">
<path d="M161.163 145.671C176.896 164.908 200.753 179.774 220.281 192.363C245.852 208.842 268.53 233.3 291.552 254.537C312.412 273.783 331.829 300.403 349.974 323.551C366.496 344.625 381.482 374.263 402.146 389.275C408.494 393.886 418.46 388.152 416.344 377.892C410.708 350.578 391.375 327.801 376.546 307.411C358.07 282.008 336.612 258.808 316.173 235.859C296.068 213.286 271.397 193.298 247.709 176.923C221.205 158.6 192.713 150.533 164.204 140.199C161.731 139.301 159.039 143.071 161.163 145.671Z" fill="#CAE98B"/>
</g>
<g opacity="0.26">
<path d="M325.914 265.92C331.507 271.225 336.956 277.856 343.19 281.982C345.492 283.506 347.261 280.102 345.81 277.799C341.383 270.766 333.763 266.687 327.686 262.186C325.685 260.698 324.175 264.275 325.914 265.92Z" fill="white"/>
</g>
<g opacity="0.26">
<path d="M361.276 301.834C370.711 314.126 379.133 327.864 386.638 342.014C393.623 355.178 397.893 369.856 404.504 383.098C406.323 386.737 410.822 385.186 410.928 380.957C411.738 348.567 382.932 315.405 363.404 298.435C361.721 296.967 359.953 300.111 361.276 301.834Z" fill="white"/>
</g>
<path d="M388.174 396.47C388.068 396.476 387.966 396.486 387.86 396.491C381.55 396.878 385.926 408.642 390.192 403.426C390.268 403.332 390.345 403.243 390.421 403.149C392.321 400.83 390.989 396.298 388.174 396.47Z" fill="#1D3C1C"/>
<path d="M370.164 386.038C370.24 386.132 370.316 386.22 370.393 386.309C371.758 387.928 374.264 386.821 374.209 384.362C374.205 384.231 374.205 384.106 374.201 383.975C374.078 378.362 367.038 382.325 370.164 386.038Z" fill="#1D3C1C"/>
<path d="M339.45 378.926C339.53 378.973 339.615 379.02 339.695 379.067C340.416 379.479 341.235 379.469 341.824 378.727C341.879 378.66 341.934 378.592 341.99 378.524C343.262 376.921 342.35 374.122 340.51 374.122C338.538 374.117 337.486 377.808 339.45 378.926Z" fill="#1D3C1C"/>
<path d="M355.738 323.274C355.64 323.431 355.547 323.592 355.449 323.749C352.676 328.354 359.783 333.393 361.615 328.187C361.679 328.005 361.742 327.822 361.806 327.644C363.612 322.517 358.46 318.757 355.738 323.274Z" fill="#1D3C1C"/>
<path d="M337.825 336.38C343.143 336.38 343.143 326.224 337.825 326.224C332.508 326.224 332.508 336.38 337.825 336.38Z" fill="#1D3C1C"/>
<path d="M319.735 355.11C324.616 355.11 324.616 345.789 319.735 345.789C314.854 345.789 314.854 355.11 319.735 355.11Z" fill="#1D3C1C"/>
<path d="M296.726 354.233C298.761 352.583 297.561 348.348 295.008 349.215C291.794 350.301 294.046 356.4 296.726 354.233Z" fill="#1D3C1C"/>
<path d="M304.393 327.822C308.404 327.822 308.404 320.167 304.393 320.167C300.381 320.167 300.381 327.822 304.393 327.822Z" fill="#1D3C1C"/>
<path d="M268.628 320.058C273.771 320.058 273.771 310.236 268.628 310.236C263.484 310.236 263.484 320.058 268.628 320.058Z" fill="#1D3C1C"/>
<path d="M281.188 340.573C284.848 340.573 284.848 333.581 281.188 333.581C277.524 333.581 277.524 340.573 281.188 340.573Z" fill="#1D3C1C"/>
<path d="M295.568 284.524C301.204 284.524 301.204 273.763 295.568 273.763C289.932 273.763 289.932 284.524 295.568 284.524Z" fill="#1D3C1C"/>
<path d="M248.103 282.112C253.909 282.112 253.909 271.027 248.103 271.027C242.298 271.021 242.298 282.112 248.103 282.112Z" fill="#1D3C1C"/>
<path d="M243.197 303.448C245.805 298.628 240 293.198 236.692 297.27C232.494 302.44 239.813 309.703 243.197 303.448Z" fill="#1D3C1C"/>
<path d="M261.75 295.579C265.587 295.579 265.587 288.253 261.75 288.253C257.912 288.253 257.912 295.579 261.75 295.579Z" fill="#1D3C1C"/>
<path d="M213.449 261.502C213.594 261.586 213.738 261.669 213.886 261.753C215.052 262.432 216.71 262.26 217.347 260.636C218.127 258.641 217.436 257.226 216.045 256.041C213.301 253.696 210.456 259.764 213.449 261.502Z" fill="#1D3C1C"/>
<path d="M203.743 227.948C204.006 227.948 204.006 227.447 203.743 227.447C203.48 227.447 203.48 227.948 203.743 227.948Z" fill="#1D3C1C"/>
<path d="M202.857 229.964C205.558 229.964 205.558 224.805 202.857 224.805C200.151 224.805 200.151 229.964 202.857 229.964Z" fill="#1D3C1C"/>
<path d="M242.302 196.77C245.182 196.77 245.182 191.277 242.302 191.277C239.427 191.282 239.427 196.77 242.302 196.77Z" fill="#1D3C1C"/>
<path d="M268.657 204.707C269.582 200.498 264.714 197.773 262.852 201.694C260.494 206.644 267.449 210.21 268.657 204.707Z" fill="#1D3C1C"/>
<path d="M286.48 245.274C290.14 245.274 290.14 238.282 286.48 238.282C282.821 238.282 282.821 245.274 286.48 245.274Z" fill="#1D3C1C"/>
<path d="M310.639 249.049C313.777 249.049 313.777 243.054 310.639 243.054C307.501 243.054 307.501 249.049 310.639 249.049Z" fill="#1D3C1C"/>
<path d="M208.925 166.171C208.831 166.359 208.734 166.547 208.641 166.735C207.903 168.192 208.479 169.8 209.489 170.719C209.658 170.871 209.824 171.027 209.993 171.179C212.181 173.179 215.001 169.9 214.361 167.043C213.666 163.921 210.273 163.514 208.925 166.171Z" fill="#1D3C1C"/>
<path d="M188.85 146.982C192.772 146.982 192.772 139.489 188.85 139.489C184.927 139.489 184.927 146.982 188.85 146.982Z" fill="#1D3C1C"/>
<path d="M182.498 176.516C182.476 176.62 182.459 176.73 182.438 176.834C181.705 180.802 184.503 184.625 187.845 183.492C191.483 182.259 192.225 175.925 188.897 173.597C188.816 173.539 188.735 173.482 188.655 173.43C186.386 171.842 183.108 173.205 182.498 176.516Z" fill="#1D3C1C"/>
<path d="M167.706 139.322C167.851 139.39 167.999 139.453 168.143 139.521C169.534 140.147 171.069 138.836 171.451 137.207C171.782 135.798 171.277 134.518 170.403 133.62C166.935 130.043 163.496 137.432 167.706 139.322Z" fill="#1D3C1C"/>
<path d="M150.223 163.775C154.319 163.775 154.319 155.953 150.223 155.953C146.126 155.953 146.126 163.775 150.223 163.775Z" fill="#1D3C1C"/>
<path d="M162.329 180.374C163.987 180.374 163.987 177.21 162.329 177.21C160.671 177.21 160.671 180.374 162.329 180.374Z" fill="#1D3C1C"/>
<path d="M150.193 204.221C153.331 204.221 153.331 198.227 150.193 198.227C147.055 198.227 147.055 204.221 150.193 204.221Z" fill="#1D3C1C"/>
<path d="M174.377 205.986C177.604 205.986 177.604 199.825 174.377 199.825C171.15 199.825 171.15 205.986 174.377 205.986Z" fill="#1D3C1C"/>
<path d="M174.479 232.308C174.627 232.366 174.771 232.423 174.92 232.481C177.82 233.624 180.182 228.69 177.913 226.152C177.799 226.022 177.684 225.896 177.57 225.771C173.694 221.442 169.547 230.366 174.479 232.308Z" fill="#1D3C1C"/>
<path d="M187.362 240.386C187.302 240.653 187.239 240.919 187.179 241.185C186.39 244.595 190.198 246.365 191.687 243.524C191.81 243.29 191.933 243.055 192.056 242.825C194.062 239.008 188.409 235.854 187.362 240.386Z" fill="#1D3C1C"/>
<path d="M193.752 265.936C198.374 265.936 198.374 257.111 193.752 257.111C189.13 257.111 189.134 265.936 193.752 265.936Z" fill="#1D3C1C"/>
<g opacity="0.17">
<path d="M321.359 352.99C324.408 352.99 324.408 347.163 321.359 347.163C318.31 347.168 318.31 352.99 321.359 352.99Z" fill="#CAE98B"/>
</g>
<g opacity="0.17">
<path d="M347.108 365.345C347.629 365.345 347.629 364.347 347.108 364.347C346.582 364.342 346.582 365.345 347.108 365.345Z" fill="#CAE98B"/>
</g>
<g opacity="0.17">
<path d="M359.872 385.75C363.184 385.75 363.184 379.427 359.872 379.427C356.556 379.427 356.556 385.75 359.872 385.75Z" fill="#CAE98B"/>
</g>
<g opacity="0.17">
<path d="M370.291 401.353C370.406 401.274 370.516 401.196 370.63 401.118C371.423 400.559 371.377 398.716 370.355 398.533C370.232 398.512 370.109 398.486 369.986 398.465C367.488 398.011 368.349 402.716 370.291 401.353Z" fill="#CAE98B"/>
</g>
<g opacity="0.17">
<path d="M270.519 313.572C270.434 313.536 270.354 313.499 270.269 313.463C269.158 312.967 268.399 314.622 268.857 315.729C268.899 315.833 268.946 315.938 268.988 316.047C269.374 316.977 270.443 316.846 270.854 316.047C271.011 315.744 271.117 315.442 271.227 315.113C271.456 314.444 270.986 313.781 270.519 313.572Z" fill="#CAE98B"/>
</g>
<g opacity="0.17">
<path d="M250.58 279.548C253.892 279.548 253.892 273.22 250.58 273.22C247.268 273.225 247.268 279.548 250.58 279.548Z" fill="#CAE98B"/>
</g>
<g opacity="0.17">
<path d="M308.324 260.218C310.156 260.218 310.156 256.719 308.324 256.719C306.492 256.725 306.492 260.218 308.324 260.218Z" fill="#CAE98B"/>
</g>
<g opacity="0.17">
<path d="M323.751 303.165C323.84 303.254 323.929 303.343 324.018 303.432C324.722 304.126 325.748 304.131 326.249 303.077C326.299 302.967 326.355 302.857 326.405 302.748C328.691 297.939 320.549 299.996 323.751 303.165Z" fill="#CAE98B"/>
</g>
<g opacity="0.17">
<path d="M335.853 329.086C338.47 329.086 338.47 324.094 335.853 324.094C333.237 324.094 333.237 329.086 335.853 329.086Z" fill="#CAE98B"/>
</g>
<g opacity="0.17">
<path d="M277.592 264.212C278.377 264.212 278.377 262.714 277.592 262.714C276.808 262.714 276.808 264.212 277.592 264.212Z" fill="#CAE98B"/>
</g>
<g opacity="0.17">
<path d="M277.669 266.374C280.196 266.374 280.196 261.544 277.669 261.544C275.137 261.549 275.137 266.374 277.669 266.374Z" fill="#CAE98B"/>
</g>
<g opacity="0.17">
<path d="M299.63 288.576C304.164 288.576 304.164 279.919 299.63 279.919C295.097 279.919 295.097 288.576 299.63 288.576Z" fill="#CAE98B"/>
</g>
<g opacity="0.17">
<path d="M237.544 218.445C240.856 218.445 240.856 212.122 237.544 212.122C234.233 212.116 234.233 218.445 237.544 218.445Z" fill="#CAE98B"/>
</g>
<g opacity="0.17">
<path d="M221.655 244.803C226.014 244.803 226.014 236.48 221.655 236.48C217.296 236.48 217.296 244.803 221.655 244.803Z" fill="#CAE98B"/>
</g>
<path d="M252.289 435.47C252.891 443.131 254.112 454.127 255.028 461.74C255.427 465.056 255.775 468.461 257.047 471.421C258.951 475.849 262.576 478.7 266.109 481.186C279.479 490.6 288.923 494.673 308.112 495.947C316.601 496.511 336.21 492.475 344.017 488.324C360.962 479.311 367.408 473.379 375.842 458.524C382.22 447.287 380.672 438.478 380.129 432.426C379.014 419.957 374.922 406.292 369.498 395.671C364.286 410.375 352.816 428.714 340.302 433.189C312.53 443.11 281.091 438.708 252.289 435.47Z" fill="#154B0D"/>
<path d="M283.143 392.022C294.19 386.361 306.136 381.5 317.954 379.229C329.772 376.957 345.878 376.863 356.603 383.385C364.032 387.902 368.345 391.781 372.004 400.935C373.238 404.016 373.705 407.483 373.857 410.913C374.506 425.424 369.439 440.16 360.525 449.689C357.111 453.339 353.426 456.749 349.292 458.989C324.205 472.57 294.491 473.844 279.221 466.983C269.467 462.602 255.571 454.347 252.866 442.003C250.16 429.659 256.012 405.922 283.143 392.022Z" fill="#CAE98B"/>
<path d="M126.111 398.627C131.988 409.843 136.695 428.348 136.945 441.695C137.191 455.041 131.814 471.682 124.584 481.63C121.213 486.266 109.81 495.435 87.0849 490.522C75.0756 487.927 65.5682 475.207 58.9742 462.576C54.2629 453.553 51.8627 443.037 49.5559 432.693C47.4992 423.471 47.3296 408.386 49.9672 399.389C56.7776 376.143 65.4834 365.287 81.4746 366.53C97.4658 367.772 117.422 382.054 126.111 398.627Z" fill="#CAE98B"/>
<path d="M309.032 238.318C302.268 217.792 282.291 207.72 264.366 209.584C246.441 211.448 214.234 233.452 198.875 244.981C158.127 275.569 119.283 310.22 84.2776 350.155C78.7691 356.442 73.2818 362.535 67.8581 368.577C72.2725 366.921 76.9075 366.169 81.4746 366.524C99.1026 367.892 114.725 382.508 124.304 400.778C130.784 413.138 134.999 427.508 135.275 442.222C135.546 456.848 131.717 471.771 123.842 482.721C146.313 464.973 165.497 447.788 170.883 443.381C203.073 417.043 287.812 321.78 302.785 287.61C308.773 273.935 313.777 252.72 309.032 238.318Z" fill="#195410"/>
<mask id="mask5_2090_115524" style="mask-type:luminance" maskUnits="userSpaceOnUse" x="67" y="209" width="244" height="274">
<path d="M309.032 238.318C302.268 217.792 282.291 207.72 264.366 209.584C246.441 211.448 214.234 233.452 198.875 244.981C158.127 275.569 119.283 310.22 84.2776 350.155C78.7691 356.442 73.2818 362.535 67.8581 368.577C72.2725 366.921 76.9075 366.169 81.4746 366.524C99.1026 367.892 114.725 382.508 124.304 400.778C130.784 413.138 134.999 427.508 135.275 442.222C135.546 456.848 131.717 471.771 123.842 482.721C146.313 464.973 165.497 447.788 170.883 443.381C203.073 417.043 287.812 321.78 302.785 287.61C308.773 273.935 313.777 252.72 309.032 238.318Z" fill="white"/>
</mask>
<g mask="url(#mask5_2090_115524)">
<g opacity="0.08">
<path d="M312.653 214.665C306.873 247.696 283.232 264.144 264.777 288.926C243.613 317.347 218.432 341.262 193.871 364.984C169.157 388.847 144.617 412.255 121.37 438.306C105.005 456.644 77.6241 482.616 97.9916 511.09C103.712 519.089 114.674 522.4 122.824 519.173C150.973 508.03 171.086 477.546 192.857 454.138C216.85 428.343 242.196 404.527 265.083 377.197C286.926 351.11 304.897 321.337 318.026 287.511C325.523 268.196 338.385 233.755 326.982 213.808C325.163 210.628 322.106 210.148 319.688 212.649L312.653 214.665Z" fill="#A6D85B"/>
</g>
</g>
<mask id="mask6_2090_115524" style="mask-type:luminance" maskUnits="userSpaceOnUse" x="67" y="209" width="244" height="274">
<path d="M309.032 238.318C302.268 217.792 282.291 207.72 264.366 209.584C246.441 211.448 214.234 233.452 198.875 244.981C158.127 275.569 119.283 310.22 84.2776 350.155C78.7691 356.442 73.2818 362.535 67.8581 368.577C72.2725 366.921 76.9075 366.169 81.4746 366.524C99.1026 367.892 114.725 382.508 124.304 400.778C130.784 413.138 134.999 427.508 135.275 442.222C135.546 456.848 131.717 471.771 123.842 482.721C146.313 464.973 165.497 447.788 170.883 443.381C203.073 417.043 287.812 321.78 302.785 287.61C308.773 273.935 313.777 252.72 309.032 238.318Z" fill="white"/>
</mask>
<g mask="url(#mask6_2090_115524)">
<g opacity="0.08">
<path d="M320.91 239.06C315.13 272.092 291.493 288.54 273.034 313.322C251.869 341.743 226.688 365.663 202.127 389.379C177.413 413.242 152.873 436.651 129.626 462.696C113.262 481.034 85.8804 507.007 106.248 535.48C111.968 543.479 122.93 546.79 131.081 543.563C159.23 532.42 179.343 501.936 201.114 478.533C225.107 452.738 250.453 428.923 273.339 401.593C295.182 375.506 313.154 345.732 326.282 311.906C333.78 292.592 346.641 258.155 335.239 238.204C333.419 235.024 330.362 234.543 327.945 237.044L320.91 239.06Z" fill="#A6D85B"/>
</g>
</g>
<mask id="mask7_2090_115524" style="mask-type:luminance" maskUnits="userSpaceOnUse" x="67" y="209" width="244" height="274">
<path d="M309.032 238.318C302.268 217.792 282.291 207.72 264.366 209.584C246.441 211.448 214.234 233.452 198.875 244.981C158.127 275.569 119.283 310.22 84.2776 350.155C78.7691 356.442 73.2818 362.535 67.8581 368.577C72.2725 366.921 76.9075 366.169 81.4746 366.524C99.1026 367.892 114.725 382.508 124.304 400.778C130.784 413.138 134.999 427.508 135.275 442.222C135.546 456.848 131.717 471.771 123.842 482.721C146.313 464.973 165.497 447.788 170.883 443.381C203.073 417.043 287.812 321.78 302.785 287.61C308.773 273.935 313.777 252.72 309.032 238.318Z" fill="white"/>
</mask>
<g mask="url(#mask7_2090_115524)">
<g opacity="0.16">
<path d="M315.278 195.835C268.115 177.622 207.216 229.509 169.725 259.93C145.181 279.846 122.146 302.591 99.5139 325.629C76.6912 348.86 51.6168 370.31 30.2273 395.41C6.51833 423.236 36.7493 468.685 64.4063 449.955C113.41 416.782 153.127 360.65 198.374 320.287C219.195 301.714 241.806 275.465 263.955 259.387C285.111 244.025 294.907 232.961 308.939 227.374C315.24 224.862 320.965 198.034 315.278 195.835Z" fill="#195410"/>
</g>
</g>
<mask id="mask8_2090_115524" style="mask-type:luminance" maskUnits="userSpaceOnUse" x="67" y="209" width="244" height="274">
<path d="M309.032 238.318C302.268 217.792 282.291 207.72 264.366 209.584C246.441 211.448 214.234 233.452 198.875 244.981C158.127 275.569 119.283 310.22 84.2776 350.155C78.7691 356.442 73.2818 362.535 67.8581 368.577C72.2725 366.921 76.9075 366.169 81.4746 366.524C99.1026 367.892 114.725 382.508 124.304 400.778C130.784 413.138 134.999 427.508 135.275 442.222C135.546 456.848 131.717 471.771 123.842 482.721C146.313 464.973 165.497 447.788 170.883 443.381C203.073 417.043 287.812 321.78 302.785 287.61C308.773 273.935 313.777 252.72 309.032 238.318Z" fill="white"/>
</mask>
<g mask="url(#mask8_2090_115524)">
<g opacity="0.16">
<path d="M291.752 180.082C244.588 161.869 183.689 213.756 146.198 244.177C121.658 264.092 98.6192 286.838 75.9873 309.875C53.1688 333.106 28.0943 354.557 6.70493 379.657C-17.0041 407.483 13.2269 452.932 40.8839 434.202C89.8836 401.024 129.601 344.891 174.848 304.528C195.669 285.955 218.28 259.706 240.428 243.629C261.584 228.272 271.38 217.202 285.412 211.615C291.713 209.104 297.438 182.28 291.752 180.082Z" fill="#195410"/>
</g>
</g>
<mask id="mask9_2090_115524" style="mask-type:luminance" maskUnits="userSpaceOnUse" x="67" y="209" width="244" height="274">
<path d="M309.032 238.318C302.268 217.792 282.291 207.72 264.366 209.584C246.441 211.448 214.234 233.452 198.875 244.981C158.127 275.569 119.283 310.22 84.2776 350.155C78.7691 356.442 73.2818 362.535 67.8581 368.577C72.2725 366.921 76.9075 366.169 81.4746 366.524C99.1026 367.892 114.725 382.508 124.304 400.778C130.784 413.138 134.999 427.508 135.275 442.222C135.546 456.848 131.717 471.771 123.842 482.721C146.313 464.973 165.497 447.788 170.883 443.381C203.073 417.043 287.812 321.78 302.785 287.61C308.773 273.935 313.777 252.72 309.032 238.318Z" fill="white"/>
</mask>
<g mask="url(#mask9_2090_115524)">
<g opacity="0.16">
<path d="M276.897 177.033C229.733 158.82 168.835 210.707 131.344 241.128C106.799 261.043 83.7645 283.788 61.1326 306.826C38.3099 330.057 13.2396 351.507 -8.14979 376.607C-31.8588 404.433 -1.62779 449.882 26.0292 431.152C75.0289 397.974 114.746 341.847 159.993 301.479C180.814 282.906 203.425 256.657 225.573 240.579C246.729 225.223 256.525 214.153 270.557 208.566C276.859 206.054 282.583 179.231 276.897 177.033Z" fill="#195410"/>
</g>
</g>
<path opacity="0.17" d="M289.415 231.254C265.29 252.307 239.067 286.326 217.94 311.599C193.748 340.542 171.51 362.671 146.131 388.205C132.434 401.99 136.912 440.593 160.926 427.127C195.542 407.713 228.766 370.368 250.444 335.613C268.551 306.581 294.69 276.243 301.518 239.185C302.646 233.019 294.313 226.977 289.415 231.254Z" fill="#A6D85B"/>
<g opacity="0.66">
<path d="M260.41 313.463C244.537 331.576 228.499 348.536 210.935 364.175C195.991 377.479 179.139 388.398 166.833 405.572C163.067 410.825 167.732 417.869 172.732 414.981C191.157 404.339 207.364 387.212 223.389 371.908C239.3 356.708 254.265 338.693 263.704 316.59C264.816 313.979 262.174 311.447 260.41 313.463Z" fill="white"/>
</g>
<mask id="mask10_2090_115524" style="mask-type:luminance" maskUnits="userSpaceOnUse" x="48" y="366" width="89" height="126">
<path d="M126.111 398.627C131.988 409.843 136.695 428.348 136.945 441.695C137.191 455.041 131.814 471.682 124.584 481.63C121.213 486.266 109.81 495.435 87.0849 490.522C75.0756 487.927 65.5682 475.207 58.9742 462.576C54.2629 453.553 51.8627 443.037 49.5559 432.693C47.4992 423.471 47.3296 408.386 49.9672 399.389C56.7776 376.143 65.4834 365.287 81.4746 366.53C97.4658 367.772 117.422 382.054 126.111 398.627Z" fill="white"/>
</mask>
<g mask="url(#mask10_2090_115524)">
<path d="M63.5751 389.317C51.6464 394.544 50.158 416.067 49.9544 429.377C49.6703 448.159 56.3577 467.239 66.6071 480.82C90.1508 512.009 126.433 485.666 135.58 452.66C145.117 418.255 121.624 368.645 91.9148 363.663C77.4503 361.24 66.1534 368.859 57.8801 383.223C50.0435 396.836 48.2412 423.67 59.148 435.215C63.7066 440.04 70.1395 439.355 73.4811 432.938C76.4665 427.21 77.0474 399.264 85.8848 401.264C98.3351 404.084 105.832 428.307 102.856 441.549C99.8786 454.775 91.0837 453.652 85.9653 444.217C81.483 435.956 77.7047 426.688 74.9017 417.388C72.4634 409.29 73.2606 400.115 70.1353 392.606C69.0243 389.923 65.9117 388.293 63.5751 389.317Z" fill="#C1E083"/>
</g>
<mask id="mask11_2090_115524" style="mask-type:luminance" maskUnits="userSpaceOnUse" x="48" y="366" width="89" height="126">
<path d="M126.111 398.627C131.988 409.843 136.695 428.348 136.945 441.695C137.191 455.041 131.814 471.682 124.584 481.63C121.213 486.266 109.81 495.435 87.0849 490.522C75.0756 487.927 65.5682 475.207 58.9742 462.576C54.2629 453.553 51.8627 443.037 49.5559 432.693C47.4992 423.471 47.3296 408.386 49.9672 399.389C56.7776 376.143 65.4834 365.287 81.4746 366.53C97.4658 367.772 117.422 382.054 126.111 398.627Z" fill="white"/>
</mask>
<g mask="url(#mask11_2090_115524)">
<path d="M47.3423 400.768C41.1765 435.45 51.8204 482.282 81.4535 495.54C109.662 508.166 137.03 494.72 140.19 455.167C143.026 419.581 135.376 376.341 104.268 363.533C69.9997 349.424 47.9318 374.127 47.1049 416.939C47.0243 421.096 51.7144 422.991 51.4133 418.699C50.2641 402.287 52.7109 398.857 55.5393 390.748C63.3929 368.242 88.0009 366.551 102.588 377.537C135.109 402.026 134.113 425.753 133.333 447.412C131.683 493.404 93.0047 499.195 72.667 479.426C54.123 461.406 51.2861 426.756 52.4692 398.152C52.6303 394.22 48.076 396.627 47.3423 400.768Z" fill="#4D9623"/>
</g>
<path d="M75.7414 399.426C68.596 400.679 64.9576 411.138 64.2706 418.897C63.3589 429.241 65.0339 438.99 68.6469 448.337C72.7772 459.02 82.7129 468.189 92.3559 469.061C103.975 470.111 113.097 459.699 117.231 447.115C124.784 424.14 116.574 396.674 96.9188 388.967C79.6724 382.205 56.803 402.063 68.2101 424.933C71.0937 430.708 78.2772 429.648 79.825 423.064C81.8096 414.61 83.8197 408.804 91.9107 411.336C101.524 414.349 101.821 429.424 99.2468 438.739C95.6975 451.579 86.6396 440.99 83.5058 434.113C80.1007 426.641 76.4495 413.451 79.3289 405.175C80.4866 401.854 78.6334 398.919 75.7414 399.426Z" fill="#DEF7A1"/>
<path d="M323.424 394.126C305.22 381.26 279.564 405.081 273.945 426.568C265.155 460.174 306.377 459.84 321.741 456.059C342.214 451.02 370.189 426.025 351.344 398.376C337.389 377.902 305.614 393.891 290.573 403.436C285.399 406.72 289.11 415.973 294.377 414.542C306.649 411.211 319.841 407.436 332.436 407.885C339.225 408.125 344.738 413.446 341.383 422.375C338.249 430.724 329.013 434.437 322.487 436.844C317.615 438.64 285.781 445.767 287.693 431.225C289.839 414.892 309.944 402.423 321.889 401.097C324.756 400.783 326.227 396.105 323.424 394.126Z" fill="#DEF7A1"/>
<mask id="mask12_2090_115524" style="mask-type:luminance" maskUnits="userSpaceOnUse" x="252" y="377" width="122" height="95">
<path d="M283.143 392.022C294.19 386.361 306.136 381.5 317.954 379.229C329.772 376.957 345.878 376.863 356.603 383.385C364.032 387.902 368.345 391.781 372.004 400.935C373.238 404.016 373.705 407.483 373.857 410.913C374.506 425.424 369.439 440.16 360.525 449.689C357.111 453.339 353.426 456.749 349.292 458.989C324.205 472.57 294.491 473.844 279.221 466.983C269.467 462.602 255.571 454.347 252.866 442.003C250.16 429.659 256.012 405.922 283.143 392.022Z" fill="white"/>
</mask>
<g mask="url(#mask12_2090_115524)">
<path d="M283.376 400.935C271.35 398.94 257.594 408.59 253.226 421.497C247.836 437.413 251.021 456.294 260.863 464.184C288.953 486.71 350.674 470.205 369.197 439.538C386.248 411.305 361.988 376.837 336.159 374.733C312.301 372.79 266.558 386.904 260.829 420.981C259.672 427.868 276.99 440.113 276.536 433.345C275.307 414.892 293.753 409.655 308.065 403.415C317.717 399.206 345.993 390.267 350.581 407.817C355.441 426.406 326.957 442.039 317.67 445.585C296.09 453.819 256.758 436.859 284.789 407.514C286.481 405.728 285.717 401.321 283.376 400.935Z" fill="#C1E083"/>
</g>
<mask id="mask13_2090_115524" style="mask-type:luminance" maskUnits="userSpaceOnUse" x="252" y="377" width="122" height="95">
<path d="M283.143 392.022C294.19 386.361 306.136 381.5 317.954 379.229C329.772 376.957 345.878 376.863 356.603 383.385C364.032 387.902 368.345 391.781 372.004 400.935C373.238 404.016 373.705 407.483 373.857 410.913C374.506 425.424 369.439 440.16 360.525 449.689C357.111 453.339 353.426 456.749 349.292 458.989C324.205 472.57 294.491 473.844 279.221 466.983C269.467 462.602 255.571 454.347 252.866 442.003C250.16 429.659 256.012 405.922 283.143 392.022Z" fill="white"/>
</mask>
<g mask="url(#mask13_2090_115524)">
<path d="M254.519 433.878C264.574 390.748 307.713 378.649 339.479 380.586C377.034 382.873 376.775 421.581 362.59 441.57C354.597 452.827 337.83 462.148 324.62 465.453C297.527 472.231 258.629 460.728 254.1 435.68C253.37 431.648 252.437 418.375 251.814 422.861C246.568 460.519 273.292 484.872 298.206 483.494C328.174 481.839 382.83 450.572 380.748 409.807C377.029 337.122 236.408 376.91 244.554 442.076C244.749 443.616 252.772 440.619 253.285 439.204L254.519 433.878Z" fill="#4D9623"/>
</g>
<path d="M85.3548 434.452C85.4523 440.384 84.2734 445.888 82.874 451.511C81.5128 456.994 79.2611 462.153 79.3162 467.991C79.3459 470.977 82.4161 472.701 84.1632 470.46C91.0838 461.594 91.5375 445.047 88.8024 433.873C88.2426 431.57 85.3124 431.962 85.3548 434.452Z" fill="#EBF9BB"/>
<path d="M87.7082 423.779C88.4334 416.798 83.773 411.968 79.7996 407.895C75.2622 403.248 69.143 396.805 62.8416 398.523C59.4067 399.457 59.1183 404.433 60.963 407.29C63.9568 411.921 70.1565 413.775 74.2105 416.824C78.273 419.884 81.4661 423.811 86.1732 425.226C87.0086 425.482 87.6065 424.751 87.7082 423.779Z" fill="#EBF9BB"/>
<path d="M92.9241 428.719C97.0374 429.356 101.651 428.286 105.845 428.385C109.802 428.479 115.361 428.359 117.803 423.852C118.291 422.954 118.27 421.56 117.803 420.662C114.954 415.164 107.859 415.378 103.241 415.759C98.3266 416.166 92.1947 418.239 90.2313 424.369C89.4935 426.672 91.3212 428.468 92.9241 428.719Z" fill="#EBF9BB"/>
<path d="M315.24 419.205C314.426 411.341 314.409 403.546 312.904 395.76C312.471 393.531 310.071 393.87 309.515 395.76C307.204 403.634 308.387 413.989 312.585 420.558C313.391 421.821 315.405 420.813 315.24 419.205Z" fill="#EBF9BB"/>
<path d="M311.199 423.257C302.756 425.419 293.007 432.129 287.863 440.734C286.103 443.674 289.008 447.977 291.679 446.849C299.72 443.455 308.82 436.009 313.87 427.534C315.21 425.294 313.014 422.793 311.199 423.257Z" fill="#EBF9BB"/>
<path d="M320.325 428.52C327.754 432.243 336.129 435.977 344.19 434.17C346.616 433.627 347.214 428.735 344.899 427.476C337.244 423.315 329.018 417.038 320.325 419.137C316.059 420.171 317.102 426.907 320.325 428.52Z" fill="#EBF9BB"/>
<path d="M82.7679 402.256C83.8917 404.538 84.3666 407.311 86.1053 409.013C87.6955 410.564 89.8709 409.619 90.0278 407.013C90.2356 403.546 88.162 401.144 86.1646 399.034C84.3666 397.134 81.4322 399.546 82.7679 402.256Z" fill="#BBD073"/>
<path d="M97.9323 414.057C100.502 412.589 102.75 409.738 103.975 406.616C105.086 403.791 103.271 400.126 100.54 401.112C97.1435 402.339 94.4084 405.582 93.4627 409.827C92.7037 413.227 95.6042 415.383 97.9323 414.057Z" fill="#BBD073"/>
<path d="M95.7866 400.919C96.8891 399.588 97.9747 398.35 98.191 396.392C98.4539 394.011 97.1393 392.121 95.1123 392.601C92.9454 393.118 91.9319 395.29 91.3764 397.755C90.6682 400.919 93.908 403.191 95.7866 400.919Z" fill="#BBD073"/>
<path d="M64.3894 428.129C66.6115 430.776 68.2738 432.405 71.3736 433.048C74.7279 433.742 76.7549 429.481 74.5964 426.233C72.5864 423.205 70.6061 422.244 67.5444 421.456C64.4912 420.667 61.9341 425.205 64.3894 428.129Z" fill="#BBD073"/>
<path d="M75.8092 435.977C75.6947 439.497 74.1808 442.306 74.3589 445.888C74.4692 448.133 76.7718 449.715 78.167 447.83C80.6053 444.53 81.411 440.426 81.0845 435.977C80.7791 431.857 75.9449 431.742 75.8092 435.977Z" fill="#BBD073"/>
<path d="M64.7286 443.162C65.1612 445.846 64.9958 448.379 66.8659 450.237C68.367 451.726 70.9665 451.95 71.963 449.428C73.3582 445.888 72.1666 443.272 70.7842 440.019C68.948 435.711 64.0289 438.828 64.7286 443.162Z" fill="#BBD073"/>
<path d="M97.7245 438.917C100.091 441.773 101.702 443.209 105.056 442.514C106.927 442.128 107.05 439.24 106.07 437.784C104.336 435.209 102.622 434.938 100.159 433.768C97.7457 432.625 96.0325 436.875 97.7245 438.917Z" fill="#BBD073"/>
<path d="M96.4523 451.224C96.5964 452.942 96.4395 454.409 96.0282 456.049C95.0614 459.897 97.6778 463.85 100.854 463.85C104.145 463.85 106.494 459.923 105.68 456.049C104.929 452.477 103.487 450.055 101.032 447.992C99.2256 446.472 96.2148 448.451 96.4523 451.224Z" fill="#BBD073"/>
<path d="M109.153 452.791C112.164 454.065 114.733 453.569 116.591 450.232C117.524 448.556 116.981 445.491 115.403 444.65C112.668 443.194 110.963 444.024 108.381 445.486C105.616 447.047 106.761 451.778 109.153 452.791Z" fill="#BBD073"/>
<path d="M295.225 403.201C295.013 406.668 295.233 410.637 295.882 414.031C296.514 417.341 299.83 418.871 302.073 417.132C303.227 416.239 304.333 414.448 304.159 412.652C303.731 408.224 301.954 404.13 299.262 401.138C297.671 399.374 295.381 400.642 295.225 403.201Z" fill="#BBD073"/>
<path d="M285.658 430.364C289.839 429.294 293.35 428.181 295.92 423.727C297.442 421.085 294.601 418.673 292.685 419.743C289.568 421.477 287.18 424.223 284.36 426.557C282.749 427.889 283.758 430.85 285.658 430.364Z" fill="#BBD073"/>
<path d="M282.876 415.55C284.348 419.002 287.346 419.096 290.161 418.976C293.1 418.85 294.067 414.25 291.629 412.308C289.288 410.443 286.4 408.647 283.843 410.997C282.622 412.12 282.13 413.806 282.876 415.55Z" fill="#BBD073"/>
<path d="M323.933 413.874C325.82 413.503 328.318 413.279 329.917 411.801C331.723 410.13 332.915 408.099 334.089 405.728C335.535 402.804 332.609 398.992 330.205 400.945C328.386 402.423 326.219 403.394 324.925 405.66C323.751 407.723 322.975 409.524 322.351 411.931C322.025 413.185 323.03 414.046 323.933 413.874Z" fill="#BBD073"/>
<path d="M323.501 404.611C324.379 403.504 325.303 402.522 326.312 401.603C327.419 400.596 327.856 399.369 327.61 397.677C327.584 397.499 327.559 397.327 327.534 397.149C327.351 395.917 326.35 395.306 325.447 395.191C325.261 395.17 325.074 395.144 324.887 395.123C323.984 395.014 322.839 395.849 322.449 396.846C321.715 398.726 321.164 400.627 320.787 402.663C320.435 404.569 322.322 406.094 323.501 404.611Z" fill="#BBD073"/>
<path d="M335.272 419.289C338.567 420.526 342.214 423.811 345.17 419.858C345.916 418.866 346.179 417.326 345.56 416.125C343.516 412.151 339.365 412.428 335.972 412.908C333.118 413.315 332.257 418.161 335.272 419.289Z" fill="#BBD073"/>
<path d="M337.41 403.316C338.936 406.59 341.934 410.548 345.259 410.078C347.604 409.749 349.126 407.081 347.943 404.318C346.557 401.076 343.067 399.708 340.387 398.549C338.126 397.567 336.32 400.977 337.41 403.316Z" fill="#BBD073"/>
<path d="M313.595 437.063C314.905 440.729 316.376 443.24 319.875 443.366C321.427 443.423 322.826 441.695 322.78 439.784C322.678 435.47 320.634 433.664 317.661 432.05C314.85 430.526 312.352 433.596 313.595 437.063Z" fill="#BBD073"/>
<path d="M307.251 448.478C309.575 451.919 312.539 455.224 316.423 453.631C318.836 452.644 319.612 449.146 317.886 446.817C315.834 444.044 312.878 443.59 310.143 442.358C307.077 440.974 305.533 445.94 307.251 448.478Z" fill="#BBD073"/>
<path d="M328.131 437.898C326.465 441.183 325.015 445.893 327.037 449.386C328.11 451.24 329.705 451.767 331.384 450.791C335.37 448.462 334.942 441.768 332.8 437.898C331.651 435.831 329.255 435.685 328.131 437.898Z" fill="#BBD073"/>
<g opacity="0.17">
<path d="M105.888 358.112C107.63 358.112 107.63 354.781 105.888 354.781C104.145 354.781 104.145 358.112 105.888 358.112Z" fill="#FFF5CC"/>
</g>
<g opacity="0.17">
<path d="M141.381 339.607C145.566 339.607 145.566 331.618 141.381 331.618C137.196 331.618 137.196 339.607 141.381 339.607Z" fill="#FFF5CC"/>
</g>
<g opacity="0.17">
<path d="M164.505 313.238C164.568 313.327 164.632 313.421 164.696 313.51C164.993 313.933 165.641 313.933 165.938 313.51C166.002 313.421 166.065 313.327 166.129 313.238C168.169 310.33 162.469 310.33 164.505 313.238Z" fill="#FFF5CC"/>
</g>
<g opacity="0.17">
<path d="M181.611 283.903C181.713 283.83 181.819 283.757 181.921 283.689C183.108 282.864 183.108 280.629 181.921 279.809C181.819 279.736 181.713 279.663 181.611 279.595C177.816 276.953 177.816 286.535 181.611 283.903Z" fill="#FFF5CC"/>
</g>
<g opacity="0.17">
<path d="M227.223 249.602C229.75 249.602 229.75 244.778 227.223 244.778C224.695 244.778 224.695 249.602 227.223 249.602Z" fill="#FFF5CC"/>
</g>
<g opacity="0.17">
<path d="M216.494 288.581C217.8 288.581 217.8 286.086 216.494 286.086C215.184 286.086 215.184 288.581 216.494 288.581Z" fill="#FFF5CC"/>
</g>
<g opacity="0.17">
<path d="M214.429 267.982C217.046 267.982 217.046 262.99 214.429 262.99C211.817 262.985 211.817 267.982 214.429 267.982Z" fill="#FFF5CC"/>
</g>
<g opacity="0.17">
<path d="M193.794 265.862C196.322 265.862 196.322 261.037 193.794 261.037C191.267 261.037 191.267 265.862 193.794 265.862Z" fill="#FFF5CC"/>
</g>
<g opacity="0.17">
<path d="M270.171 233.739C270.273 233.666 270.379 233.593 270.481 233.525C271.448 232.857 271.448 231.034 270.481 230.361C270.379 230.287 270.273 230.214 270.171 230.146C267.012 227.948 267.012 235.937 270.171 233.739Z" fill="#FFF5CC"/>
</g>
<g opacity="0.17">
<path d="M261.067 221.254C262.114 221.254 262.114 219.26 261.067 219.26C260.019 219.26 260.019 221.254 261.067 221.254Z" fill="#FFF5CC"/>
</g>
<g opacity="0.17">
<path d="M244.97 269.857C246.886 269.857 246.886 266.197 244.97 266.197C243.053 266.191 243.053 269.857 244.97 269.857Z" fill="#FFF5CC"/>
</g>
<g opacity="0.17">
<path d="M174.004 337.028C174.284 336.887 174.568 336.74 174.848 336.599C177.159 335.43 175.611 331.284 173.546 332.798C173.283 332.991 173.02 333.185 172.753 333.378C171.222 334.5 172.261 337.915 174.004 337.028Z" fill="#FFF5CC"/>
</g>
<g opacity="0.17">
<path d="M140.554 381.646C142.997 381.646 142.997 376.983 140.554 376.983C138.112 376.983 138.116 381.646 140.554 381.646Z" fill="#FFF5CC"/>
</g>
<g opacity="0.17">
<path d="M120.933 329.253C120.975 329.321 121.014 329.394 121.056 329.462C121.913 330.95 123.952 330.516 123.952 328.496C123.952 326.475 121.913 326.041 121.056 327.53C121.014 327.603 120.975 327.671 120.933 327.738C120.704 328.14 120.704 328.856 120.933 329.253Z" fill="#FFF5CC"/>
</g>
<g opacity="0.17">
<path d="M158.301 394.183C160.57 394.183 160.57 389.855 158.301 389.855C156.037 389.855 156.037 394.183 158.301 394.183Z" fill="#FFF5CC"/>
</g>
<g opacity="0.17">
<path d="M151.698 441.538C153.53 441.538 153.53 438.045 151.698 438.045C149.866 438.045 149.871 441.538 151.698 441.538Z" fill="#FFF5CC"/>
</g>
<g opacity="0.17">
<path d="M190.08 369.684C193.828 369.684 193.828 362.525 190.08 362.525C186.331 362.525 186.331 369.684 190.08 369.684Z" fill="#FFF5CC"/>
</g>
<g opacity="0.17">
<path d="M218.144 328.146C218.839 328.146 218.839 326.814 218.144 326.814C217.448 326.814 217.448 328.146 218.144 328.146Z" fill="#FFF5CC"/>
</g>
<g opacity="0.17">
<path d="M201.224 306.518C203.751 306.518 203.751 301.688 201.224 301.688C198.697 301.688 198.697 306.518 201.224 306.518Z" fill="#FFF5CC"/>
</g>
<g opacity="0.17">
<path d="M250.749 297.27C254.235 297.27 254.235 290.613 250.749 290.613C247.259 290.613 247.259 297.27 250.749 297.27Z" fill="#FFF5CC"/>
</g>
<g opacity="0.17">
<path d="M277.987 285.433C280.255 285.433 280.255 281.104 277.987 281.104C275.718 281.104 275.718 285.433 277.987 285.433Z" fill="#FFF5CC"/>
</g>
<g opacity="0.17">
<path d="M293.087 256.129C293.159 256.051 293.236 255.973 293.308 255.894C294.02 255.137 294.02 253.477 293.308 252.714C293.232 252.636 293.159 252.558 293.087 252.479C291.747 251.054 289.508 251.931 289.508 254.302C289.508 256.678 291.747 257.555 293.087 256.129Z" fill="#FFF5CC"/>
</g>
<path d="M140.554 334.172C140.643 334.172 140.643 334.005 140.554 334.005C140.469 334.005 140.469 334.172 140.554 334.172Z" fill="#1D3C1C"/>
<path d="M157.478 317.483C157.652 317.483 157.652 317.149 157.478 317.149C157.304 317.149 157.304 317.483 157.478 317.483Z" fill="#1D3C1C"/>
<path d="M163.669 311.812C163.759 311.812 163.759 311.645 163.669 311.645C163.58 311.645 163.58 311.812 163.669 311.812Z" fill="#1D3C1C"/>
<path d="M178.936 284.556C182.947 284.556 182.947 276.896 178.936 276.896C174.928 276.901 174.928 284.556 178.936 284.556Z" fill="#1D3C1C"/>
<path d="M193.778 261.257C193.735 261.189 193.697 261.116 193.659 261.048C192.429 258.913 189.503 259.534 189.503 262.437C189.503 265.34 192.429 265.962 193.659 263.821C193.697 263.753 193.739 263.68 193.778 263.612C194.138 262.991 194.138 261.878 193.778 261.257Z" fill="#1D3C1C"/>
<path d="M181.459 309.254C181.836 306.941 179.304 305.364 178.249 307.588C176.9 310.413 180.967 312.267 181.459 309.254Z" fill="#1D3C1C"/>
<path d="M141.881 333.07C141.881 332.897 141.881 332.73 141.881 332.563C141.881 327.838 135.932 327.838 135.932 332.563C135.932 332.73 135.932 332.903 135.932 333.07C135.932 337.795 141.881 337.795 141.881 333.07Z" fill="#1D3C1C"/>
<path d="M123.333 350.437C123.723 348.035 121.094 346.4 119.996 348.703C118.601 351.643 122.82 353.57 123.333 350.437Z" fill="#1D3C1C"/>
<path d="M228.05 272.562C230.14 272.562 230.14 268.567 228.05 268.567C225.959 268.567 225.955 272.562 228.05 272.562Z" fill="#1D3C1C"/>
<path d="M240.988 249.733C243.736 250.412 245.602 245.853 242.968 243.953C239.61 241.53 237.409 248.845 240.988 249.733Z" fill="#1D3C1C"/>
<path d="M150.876 316.23C152.568 316.23 152.568 312.998 150.876 312.998C149.179 312.998 149.179 316.23 150.876 316.23Z" fill="#1D3C1C"/>
<path d="M126.938 365.663C128.07 365.663 128.07 363.501 126.938 363.501C125.805 363.496 125.805 365.663 126.938 365.663Z" fill="#1D3C1C"/>
<path d="M126.938 365.078C127.459 365.078 127.459 364.081 126.938 364.081C126.416 364.081 126.416 365.078 126.938 365.078Z" fill="#1D3C1C"/>
<path d="M119.92 375.955C123.321 375.955 123.321 369.464 119.92 369.464C116.523 369.464 116.523 375.955 119.92 375.955Z" fill="#1D3C1C"/>
<path d="M105.493 341.309C103.759 340.881 102.58 343.758 104.242 344.959C106.362 346.489 107.758 341.868 105.493 341.309Z" fill="#1D3C1C"/>
<path d="M98.0001 359.825C98.0891 359.747 98.1782 359.669 98.2672 359.59C100.15 357.945 100.421 353.288 97.5379 352.734C97.4361 352.713 97.3386 352.698 97.2368 352.677C90.6639 351.413 93.6959 363.595 98.0001 359.825Z" fill="#1D3C1C"/>
<path d="M166.557 301.917C170.654 301.917 170.654 294.095 166.557 294.095C162.461 294.095 162.461 301.917 166.557 301.917Z" fill="#1D3C1C"/>
<path d="M159.128 351.157C161.57 351.157 161.57 346.494 159.128 346.494C156.685 346.494 156.685 351.157 159.128 351.157Z" fill="#1D3C1C"/>
<path d="M150.091 365.726C150.146 365.773 150.206 365.825 150.261 365.872C150.583 366.154 151.164 366.154 151.491 365.872C151.546 365.825 151.605 365.773 151.66 365.726C152.869 364.671 152.517 362.159 150.876 362.159C149.23 362.154 148.878 364.666 150.091 365.726Z" fill="#1D3C1C"/>
<path d="M143.031 361.308C145.995 361.308 145.995 355.648 143.031 355.648C140.067 355.648 140.067 361.308 143.031 361.308Z" fill="#1D3C1C"/>
<path d="M135.605 402.731C138.307 402.731 138.307 397.572 135.605 397.572C132.9 397.572 132.9 402.731 135.605 402.731Z" fill="#1D3C1C"/>
<path d="M144.269 459.177C144.88 459.177 144.88 458.012 144.269 458.012C143.658 458.012 143.658 459.177 144.269 459.177Z" fill="#1D3C1C"/>
<path d="M142.802 457.02C142.861 457.146 142.916 457.276 142.976 457.401C143.175 457.835 143.713 457.835 143.909 457.401C143.968 457.276 144.027 457.146 144.082 457.02C144.871 455.308 142.017 455.308 142.802 457.02Z" fill="#1D3C1C"/>
</svg>
