<svg width="480" height="620" viewBox="0 0 480 620" fill="none" xmlns="http://www.w3.org/2000/svg">
<rect width="480" height="620" fill="#FFF9F9" fill-opacity="0.82"/>
<path d="M73.2625 416.613L75.6496 392.484L83.2286 386.562L93.6001 381.554L101.567 370.167L103.966 359.238L103.763 358.424L115.126 356.512C115.126 356.512 117.866 354.818 121.522 352.582L164.846 378.517L149.821 399.768L128.69 410.235L109.158 417.526L100.785 429.812L99.5856 449.396L102.384 459.413L109.163 459.869L117.136 472.612L115.543 477.164L107.564 483.542L88.8314 484.455L83.2459 482.179L78.4599 477.164L74.0736 465.328C74.0736 465.328 72.4802 449.396 72.4802 447.57C72.4571 445.75 73.2625 416.613 73.2625 416.613Z" fill="#C6B7A8"/>
<path d="M304.51 363.763L320.659 378.96L334.24 390.856L339.849 406.391L348.969 433.669L355.221 445.592L355.812 451.903L348.679 457.17L339.553 456.555L327.502 450.521L316.232 438.261L312.019 422.296L310.119 414.846C310.119 414.846 303.195 407.059 302.36 405.438C301.532 403.811 282.533 390.505 282.533 390.505L304.51 363.763Z" fill="#C6B7A8"/>
<path d="M431.994 248.304L425.215 239.65L416.443 232.366L406.471 223.712L404.078 219.16L401.285 196.851L385.333 178.636L360.609 167.713L349.844 165.894L327.913 179.093L287.643 218.26L278.87 229.177L249.755 244.202L230.222 250.117L219.457 251.937L140.505 267.425L121.361 267.875L109.801 263.773C109.801 263.773 101.428 259.684 101.428 258.321C101.428 256.952 100.229 236.005 100.229 236.005L103.821 198.677C103.821 195.951 119.373 154.057 119.373 154.057L131.732 135.843L141.304 129.921L139.711 124H134.125L113.388 131.741L93.8554 154.957L82.69 191.392L78.3038 229.177L77.5042 249.667C77.5042 249.667 79.4974 268.795 79.4974 270.614C79.4974 272.433 83.8835 289.285 83.8835 289.285L74.7171 317.053L73.1179 336.63L75.9108 355.757L79.5032 370.783L77.1102 381.706L69.1374 393.092L58.7657 398.107L51.1926 404.029L48.7996 428.151C48.7996 428.151 48 457.295 48 459.115C48 460.934 49.5934 476.873 49.5934 476.873L53.9855 488.716L58.7598 493.724L64.3512 496L83.0839 495.087L91.0626 488.716L92.6502 484.164L84.6831 471.414L77.8982 470.958L75.1054 460.941L76.3048 441.364L84.6775 429.071L104.21 421.787L125.341 411.313L138.905 394.012L145.285 387.641L151.67 385.365L168.815 389.917L192.74 396.294H216.27L240.194 394.012L254.552 391.279L257.739 404.479C257.739 404.479 260.932 429.977 261.331 431.354C261.731 432.716 264.524 453.207 264.524 453.207L271.297 470.058L273.296 477.799L279.676 483.257L294.04 487.353L310.38 484.62L315.971 482.351L315.565 471.877L309.985 462.31L301.613 461.397L297.626 455.946L296.427 444.103L296.827 433.629L296.027 421.337C296.027 421.337 296.827 404.485 296.827 403.122C296.827 401.759 300.813 379 300.813 379L309.186 373.991L319.552 356.227C319.552 356.227 323.944 339.839 324.338 337.106C324.738 334.367 329.923 315.247 329.923 315.247L351.455 297.032L363.414 281.101L375.779 284.29L386.539 284.746L404.489 285.653L415.649 280.194L424.421 268.808L425.621 260.61L431.994 248.304Z" fill="#D37120"/>
<path d="M401.29 196.857L404.083 219.167L406.476 223.719L416.448 232.372L425.221 239.657L432 248.311L425.614 260.597L424.415 268.794L415.643 280.181L404.483 285.639L386.533 284.733L375.773 284.276L373.449 283.681C375.657 282.649 380.066 280.637 380.959 280.637C382.152 280.637 386.538 276.535 386.538 276.535L389.731 269.707L390.93 256.958L394.511 246.485L399.303 239.657L401.69 232.372L399.303 224.632L398.903 215.978L397.704 205.048L393.712 195.951L386.538 187.297L377.766 180.919L376.566 176.823L378.594 175.659L385.345 178.636L401.29 196.857Z" fill="#E0D4C6"/>
<path d="M397.037 225.234L396.238 227.662L396.504 231.003L397.57 232.518L394.111 233.127L388.531 230.097L386.672 226.756L393.845 225.532L397.037 225.234Z" fill="#331906"/>
<path d="M395.705 215.826L396.505 220.986L393.845 222.204H390.398L387.738 221.899L386.139 220.378L387.738 217.645L391.192 216.137L395.705 215.826Z" fill="#C45F14"/>
<path d="M319.546 356.207L309.18 373.972L302.112 378.199L304.794 362.129C304.794 362.129 306.787 351.662 307.181 350.299C307.587 348.929 306.787 340.732 306.388 339.369C305.994 338.006 300.002 327.533 300.002 327.533L297.615 318.879L298.009 311.588L304.788 307.492L318.741 303.397L338.337 308.108L329.912 315.233C329.912 315.233 324.726 334.354 324.326 337.093C323.938 339.826 319.546 356.207 319.546 356.207Z" fill="#E0D4C6"/>
<path d="M51.1926 404.022L58.7657 398.101L69.1374 393.085L77.1102 381.699L79.5032 370.776L79.3062 369.949L90.6687 368.043C90.6687 368.043 114.199 353.475 115.393 353.475C116.586 353.475 128.151 333.897 128.151 333.897L141.316 358.026L159.26 373.965C159.26 373.965 196.338 374.415 197.937 374.415C199.53 374.415 207.503 370.769 207.503 370.769L216.675 363.028L238.606 359.383L260.144 365.311L273.702 375.784C273.702 375.784 285.267 388.07 286.455 389.44C287.272 390.36 293.924 391.703 298.513 392.331C297.626 397.571 296.827 402.487 296.827 403.096C296.827 404.459 296.027 421.31 296.027 421.31L296.827 433.603L296.427 444.076L297.626 455.919L301.613 461.371L309.985 462.284L315.565 471.851L315.971 482.324L310.379 484.594L294.04 487.326L279.676 483.231L273.296 477.772L271.297 470.031L264.524 453.18C264.524 453.18 261.737 432.69 261.331 431.327C260.932 429.957 257.739 404.452 257.739 404.452L254.552 391.253L240.194 393.985L216.27 396.268H192.74L168.815 389.89L151.67 385.338L145.285 387.614L138.905 393.985L125.341 411.287L104.21 421.76L84.6775 429.044L76.3048 441.337L75.1054 460.914L77.8982 470.931L84.6831 471.388L92.6502 484.137L91.0626 488.689L83.0839 495.06L64.3512 495.973L58.7598 493.697L53.9855 488.689L49.5934 476.846C49.5934 476.846 48 460.914 48 459.088C48 457.275 48.7996 428.125 48.7996 428.125L51.1926 404.022Z" fill="#E0D4C6"/>
<path d="M126.158 363.498L128.551 372.602L125.353 379.893L118.18 386.258L111.812 385.358L108.208 376.697L111.4 371.239L120.179 367.137L126.158 363.498Z" fill="#D37120"/>
<path d="M141.31 129.921L131.738 135.843L119.379 154.057C119.379 154.057 103.827 195.951 103.827 198.677L102.923 208.118L100.635 205.048L92.2619 201.409C92.2619 201.409 87.8756 194.581 87.4816 192.299C87.3251 191.419 85.6681 189.784 83.7039 188.111L93.8611 154.957L113.393 131.741L134.131 124H139.716L141.31 129.921Z" fill="#E0D4C6"/>
<path d="M359.422 210.513C359.422 210.513 365.407 200.496 365.807 199.126C366.201 197.763 371.787 191.392 371.787 191.392H378.166L383.352 198.213L376.573 211.869L372.986 224.625L366.207 231.909C366.207 231.909 361.421 240.1 360.228 240.1C359.034 240.1 351.855 230.09 351.855 228.72C351.855 227.351 350.661 218.703 351.055 216.877C351.449 215.065 359.422 210.513 359.422 210.513Z" fill="#331906"/>
<path d="M95.4548 342.552C93.4558 341.639 87.4819 337.543 87.4819 337.543C87.4819 337.543 86.2825 328.889 86.2825 327.526C86.2825 326.157 80.697 321.148 79.9032 319.329C79.3237 318.019 76.6641 316.941 75.0939 315.922L83.8895 289.285C83.8895 289.285 79.5034 272.434 79.5034 270.614C79.5034 269.139 78.1938 256.337 77.7013 251.507L100.299 237.09C100.548 241.377 101.434 257.137 101.434 258.321C101.434 259.684 109.807 263.773 109.807 263.773L121.367 267.875L140.511 267.425L219.463 251.937L230.228 250.117L249.761 244.202L278.876 229.177L287.649 218.261L316.284 190.413L314.366 202.316L318.352 219.623L323.938 233.279L311.973 297.019L301.213 301.121L295.627 305.21C295.627 305.21 293.64 311.588 293.64 312.958C293.64 314.32 294.434 341.639 294.434 341.639C294.434 341.639 294.434 359.853 294.04 361.222C293.646 362.585 290.842 370.326 290.842 370.326L284.868 374.422L262.537 359.396L252.571 353.938L219.868 353.025H205.916L196.344 349.843L173.225 354.395L161.265 355.308L151.294 352.125L132.555 330.729L126.17 328.003L118.191 333.918C118.191 333.918 112.611 340.745 111.018 340.745C109.407 340.732 97.448 343.465 95.4548 342.552Z" fill="#331906"/>
<path d="M120.972 306.579L117.779 300.208L116.58 287.915L118.173 276.985C118.173 276.985 122.403 271.56 125.712 267.776L140.51 267.425L161.248 263.356V267.425L154.462 276.529L146.884 283.82L137.318 289.741L127.751 295.206L125.352 308.405L120.972 306.579Z" fill="#E0D4C6"/>
<path d="M219.468 251.943L230.234 250.124L249.766 244.209L278.882 229.184L283.123 223.891L284.062 224.632C284.062 224.632 282.469 233.736 281.669 235.549C280.869 237.375 279.67 243.303 279.67 243.303V255.589L272.097 269.251L255.746 280.638L248.572 281.088L211.09 281.537L203.911 276.079C203.911 276.079 201.118 269.251 199.524 267.882C197.931 266.519 191.951 265.606 190.752 265.149C190.039 264.878 189.895 260.921 189.895 257.746L219.468 251.943Z" fill="#E0D4C6"/>
<path d="M365.008 205.961C365.008 205.961 366.201 222.356 366.201 223.719C366.201 225.082 368.195 242.383 368.195 242.383L370.987 258.778L374.18 279.724L371.787 300.215L362.221 322.068L349.856 328.896L333.904 325.713L321.545 313.877C321.545 313.877 310.374 299.758 309.98 298.395C309.586 297.026 307.593 284.739 307.593 284.739C307.593 284.739 302.413 275.629 302.413 274.26C302.413 272.897 300.814 260.604 300.814 260.604C300.814 260.604 307.993 248.767 308.792 247.405C309.592 246.035 311.179 235.112 311.979 232.842C312.778 230.56 316.371 219.18 316.371 219.18L328.73 208.707L341.089 203.248L352.654 201.429L365.008 205.961Z" fill="#EF8333"/>
<path d="M318.352 280.638C319.152 277.905 319.546 269.708 319.152 266.982C318.752 264.243 316.359 254.689 316.359 251.95C316.359 249.224 315.554 241.027 315.554 237.388C315.554 235.006 314.708 230.302 313.891 226.934C315.09 223.196 316.359 219.174 316.359 219.174L328.718 208.7L341.077 203.242L352.643 201.422L361.902 204.836L360.221 240.12L364.214 257.885L366.207 277.918L365.413 297.039L361.421 312.064L351.055 316.616L331.917 314.34C331.917 314.34 324.743 303.867 323.944 302.504C323.144 301.141 318.752 292.487 318.752 292.487C318.752 292.487 317.553 283.364 318.352 280.638Z" fill="#D37120"/>
<path d="M431.699 248.867L425.997 259.856L424.548 255.886L423.755 250.428L424.154 246.783L427.341 248.159L431.699 248.867Z" fill="#331906"/>
<path d="M394.65 228.118L394.447 229.944L393.254 229.481L393.451 228.118H394.65Z" fill="#E0D4C6"/>
<path d="M424.549 255.886L423.9 251.44L425.945 250.653L427.741 251.798L427.139 254.067L424.989 257.097L424.549 255.886Z" fill="#56331C"/>
<path d="M71.6691 475.04L77.3823 469.059L77.9096 470.945L84.6946 471.401L86.1315 473.703L82.8289 477.468L73.7956 481.114C73.7956 481.114 63.6964 482.338 62.0972 479.896L71.6691 475.04Z" fill="#F4E9DF"/>
<path d="M298.948 463.515L301.068 460.65L301.601 461.384L309.818 462.284L308.52 465.943L304 468.675L291.769 470.495H286.722L285.916 468.377L293.362 465.943L298.948 463.515Z" fill="#F4E9DF"/>
</svg>
