<svg width="480" height="620" viewBox="0 0 480 620" fill="none" xmlns="http://www.w3.org/2000/svg">
<rect width="480" height="620" fill="#FFF9F9" fill-opacity="0.82"/>
<path d="M143.207 327.926L140.553 359.8L136.232 399.308L132.915 431.514L124.948 448.109L125.608 458.072L141.213 460.065L168.444 459.405L170.766 447.446L156.156 352.159L163.127 315.476L143.207 327.926Z" fill="#AA8984"/>
<path d="M374.974 385.035L366.341 395.985L360.032 420.885L359.697 435.165L365.674 456.079L365.014 461.395L328.154 462.721L313.879 460.393L310.891 452.755L314.211 445.128L318.191 431.846L321.849 397.978L324.834 354.159L350.732 353.827L374.974 385.035Z" fill="#6D5B5D"/>
<path d="M88.7488 186.329L91.2431 179.852L97.7141 173.547L105.356 167.568L151.012 156.451L162.471 153.957L181.39 162.424L203.307 176.37L240.661 190.312L259.587 190.813L313.879 184.339L352.725 183.341L390.086 202.762L418.972 227.164L442.876 257.545L446.863 305.348L448.853 360.132V372.08L445.367 372.581L442.876 346.687L437.897 285.433L436.401 289.91L426.935 322.779L425.446 342.7L428.929 378.551L423.453 393.494L418.972 401.467L420.457 422.881L424.948 451.764L430.919 463.222L429.429 470.19L414.985 474.173L381.615 475.168L374.639 474.173L372.646 467.205L381.114 458.738L385.601 447.781L383.605 421.883L371.651 389.014L355.216 370.588L343.76 360.132L330.811 362.626L281.504 367.603L243.155 359.133L197.828 341.208L193.845 356.646L193.35 370.588L189.858 399.474L192.352 440.81L197.334 455.249L198.332 472.02L159.811 476L143.542 474.01L141.88 461.395L145.37 451.933L148.358 450.434L152.007 444.292L154.498 432.844L150.013 377.563L139.555 317.303L133.575 287.92L127.101 266.009L121.127 268.503L108.175 279.453L101.203 280.949L88.7488 278.956L83.7703 294.891L81.7803 313.32L81.2828 333.239L89.2497 344.193L96.7225 343.198L99.7142 329.757L95.724 327.76L91.744 334.731L92.739 338.22L90.2481 339.218L83.2762 328.258L82.7753 318.792H90.7456L101.704 317.801L110.67 329.757L112.162 346.186L104.192 361.126L81.7803 366.104L64.8447 345.191L59.3688 319.297L63.3556 283.436L70.3241 249.569L77.7935 227.164L80.281 205.753L84.2712 193.3L88.7488 186.329Z" fill="#6D5B5D"/>
<path d="M450.016 370.757L443.373 371.424L441.386 388.019L444.7 402.631L443.041 411.257L440.049 414.909L448.351 409.267L452.998 398.645L454 380.385L450.016 370.757Z" fill="#6D5B5D"/>
<path d="M127.101 266.009L121.127 268.503L108.175 279.453L101.203 280.949L93.0571 279.643L92.2415 268.997L95.724 267.007L99.7142 268.503L102.198 274.973L106.185 273.477L119.635 264.516L128.597 256.05L140.554 252.063L144.04 258.54L134.574 263.518L138.564 275.474L143.041 299.869L146.531 328.258L142.628 335.015L139.555 317.304L133.575 287.92L127.101 266.009Z" fill="#5E4D4F"/>
<path d="M201.811 184.339L208.286 193.797L212.77 209.235L210.78 219.194L197.334 242.104L192.846 257.545L197.334 268.997L232.193 288.918L277.02 305.348L306.907 306.35L366.172 276.465H377.631H394.563L402.53 255.556L395.061 224.179L382.853 199.009L390.086 202.762L418.972 227.164L442.876 257.545L446.862 305.348L448.852 360.132V372.08L445.367 372.581L442.876 346.687L437.897 285.433L436.401 289.91L426.935 322.779L425.446 342.701L428.928 378.551L423.453 393.495L418.972 401.467L420.457 422.881L424.948 451.764L430.918 463.222L429.429 470.19L414.985 474.173L381.615 475.168L374.639 474.173L372.646 467.205L381.114 458.738L385.601 447.781L383.605 421.883L371.651 389.014L355.216 370.588L343.76 360.132L330.811 362.626L281.504 367.603L243.155 359.133L197.828 341.208L193.845 356.646L193.35 370.588L189.858 399.474L192.352 440.81L197.334 455.249L198.332 472.02L164.383 475.526L165.453 462.721L172.926 452.755L176.412 441.304L173.423 416.408L167.446 383.045L174.421 355.15L170.438 331.249L165.954 318.298L157.983 292.898L147.526 284.435L146.531 270.489L176.906 201.269L201.811 184.339Z" fill="#5E4D4F"/>
<path d="M409.062 474.349L406.513 468.694L409.004 457.242L399.541 454.752L398.046 450.271L399.044 435.832L401.037 412.922L401.531 395.491L409.004 384.537L409.498 362.625C409.498 362.625 413.489 331.249 413.489 329.757C413.489 328.257 421.953 299.375 421.953 299.375L431.416 277.958L437.396 262.026L438.398 279.453L437.87 285.494L436.401 289.913L426.935 322.782L425.446 342.704L428.928 378.554L423.452 393.498L418.971 401.467L420.457 422.881L424.948 451.764L430.918 463.222L429.426 470.193L414.981 474.176L409.062 474.349Z" fill="#47383B"/>
<path d="M197.828 341.208L196.87 344.914L198.332 334.731L203.307 314.813L207.788 313.321L208.783 319.791L210.279 327.76L218.75 332.247L248.13 340.711L291.965 346.687L320.353 339.218L334.795 330.755L347.747 322.285L356.214 311.331L365.674 299.869L369.163 301.368L360.198 316.803L352.725 340.711L348.241 352.159V364.22L343.76 360.132L330.811 362.626L281.504 367.604L243.155 359.133L197.828 341.208Z" fill="#47383B"/>
<path d="M76.4634 310.329L80.1151 286.759L87.7571 276.134L95.0606 274.811L95.5243 280.039L88.7488 278.956L83.7703 294.891L81.7803 313.321L81.2828 333.239L89.2496 344.193L96.7224 343.198L99.7142 329.757L95.724 327.76L91.7439 334.731L92.739 338.22L90.248 339.218L83.2762 328.258L82.7753 318.793H90.7456L97.8291 318.153L98.3842 322.613L102.361 325.936L102.036 333.574V345.191L96.3873 350.839H87.7571L82.1153 344.856L77.7935 332.572L76.4634 310.329Z" fill="#5E4D4F"/>
<path d="M89.4153 332.907L91.7404 327.601L86.4235 322.285L86.0952 326.268L89.4153 332.907Z" fill="#47383B"/>
<path d="M216.256 196.457L189.032 177.862L188.484 166.932L203.307 176.37L240.661 190.312L259.587 190.813L313.879 184.339L352.725 183.341L366.74 190.623L353.724 189.815L324.503 193.797L285.982 205.753L248.797 203.757L216.256 196.457Z" fill="#AA8984"/>
<path d="M70.3239 249.569L77.7932 227.164L80.2808 205.753L84.271 193.3L88.7485 186.329L91.2428 179.852L97.7138 173.547L105.356 167.568L151.011 156.451L162.471 153.957L163.463 154.401L149.187 160.269L127.266 167.236L103.359 174.546L96.7222 181.185L91.4087 189.148L84.7685 201.103L81.4518 216.372V228.988L73.4781 250.899L70.1546 263.518L66.161 269.799L70.3239 249.569Z" fill="#AA8984"/>
<path d="M88.7488 211.066L91.4089 203.757L95.724 200.44L106.351 201.435L113.986 210.734L113.655 218.365C113.655 218.365 105.356 224.341 105.024 225.336C104.689 226.335 97.0575 227.326 96.0625 227.326C95.0641 227.326 88.7521 223.671 88.7521 223.671L88.7488 211.066Z" fill="#6D5B5D"/>
<path d="M105.024 210.399L106.689 215.709L100.702 217.039L93.7336 218.037V213.722L96.3904 209.069L105.024 210.399Z" fill="#47383B"/>
<path d="M91.084 209.733L90.1465 207.242L91.4123 203.757L95.7274 200.44L106.354 201.435L113.99 210.734L113.658 218.365C113.658 218.365 113.56 218.44 113.414 218.541L112.663 217.039L107.014 213.722L97.0575 212.054L91.084 209.733Z" fill="#AA8984"/>
<path d="M88.8636 223.742L93.0704 224.341L102.367 223.35L108.057 222.572C106.483 223.82 105.149 224.95 105.024 225.34C104.689 226.338 97.0573 227.329 96.0623 227.329C95.1349 227.329 89.6759 224.206 88.8636 223.742Z" fill="#5E4D4F"/>
<path d="M145.082 474.196L146.192 463.056L148.185 459.733L150.179 462.051L149.515 468.362V474.741L145.082 474.196Z" fill="#5E4D4F"/>
<path d="M159.811 476L152.782 475.137L152.172 465.713L155.824 462.721L159.479 463.719L163.273 475.645L159.811 476Z" fill="#AA8984"/>
<path d="M385.266 464.379L388.694 474.961L381.614 475.168L376.896 474.494L376.632 470.352L380.951 464.379H385.266Z" fill="#6D5B5D"/>
<path d="M391.629 474.873L391.906 467.699L395.23 464.708L400.208 468.362L400.621 474.603L391.629 474.873Z" fill="#6D5B5D"/>
<path d="M324.171 449.442L326.828 458.072V462.501L314.397 460.481L313.879 454.749L319.189 447.453L324.171 449.442Z" fill="#5E4D4F"/>
<path d="M149.187 160.269L158.156 157.277L167.446 149.978L173.755 143L185.377 150.303L200.319 168.901L206.624 201.103L202.644 211.398L177.078 251.234L162.471 273.146L160.146 279.122L150.514 280.12L142.551 268.164L135.24 246.585L140.554 224.013L140.882 208.41L135.572 198.447L130.262 197.784L136.564 180.854L143.542 171.223L149.187 160.269Z" fill="#6D5B5D"/>
<path d="M136.564 180.854L143.542 171.223L149.187 160.269L158.156 157.277L160.972 155.061L165.954 157.446L178.902 168.4L191.357 190.312L174.919 235.133L161.469 250.568L150.514 252.063L144.04 243.096L138.175 234.115L140.554 224.013L140.882 208.41L135.572 198.447L130.262 197.784L136.564 180.854Z" fill="#AA8984"/>
<path d="M94.7288 269.498L97.2197 271.484L99.714 276.963L97.7207 280.448L90.7454 284.435L73.8099 290.908L47.4183 294.891L29.9818 293.896L25 290.407V286.922L31.4744 288.918L50.4 286.428L70.8248 281.447L86.2644 275.474L94.7288 269.498Z" fill="#F9D9B9"/>
<path d="M25 290.407V290.137L29.2373 291.155H49.1545L71.3223 287.67L92.9859 278.455L97.9542 273.102L99.714 276.963L97.7207 280.448L90.7454 284.435L73.8099 290.908L47.4183 294.891L29.9818 293.896L25 290.407Z" fill="#D8A97C"/>
</svg>
