<svg width="480" height="620" viewBox="0 0 480 620" fill="none" xmlns="http://www.w3.org/2000/svg">
<rect width="480" height="620" fill="#FFF9F9" fill-opacity="0.82"/>
<path d="M335.668 463.087L332.168 478.931L318.19 489.296L263.793 496L197.904 495.387L148.991 488.078L142.002 479.543L138.513 463.699L163.465 469.797L242.831 472.234L313.709 466.136L335.668 463.087Z" fill="#42B3BC"/>
<path d="M355.465 136.795L395.394 174.996L422.018 224.57C422.018 224.57 432 298.522 432 300.965C432 303.402 415.369 390.36 415.369 390.36L365.453 455.369L306.887 478.128L190.419 483.001L123.203 464.312C123.203 464.312 72.6235 406.612 71.9603 404.176C71.297 401.739 48 322.914 48 322.914L57.3188 235.956L71.297 189.635L102.575 148.188L113.884 143.315L355.465 136.795Z" fill="#83CED6"/>
<path d="M355.304 144.315L386.576 173.574L405.214 202.015L419.855 235.336L424.515 293.036L414.533 366.989L376.594 427.132L318.028 461.256L224.194 467.762L130.353 453.13L89.7618 416.562L77.1156 399.493L61.8053 344.237L57.1515 315.795L61.8053 258.095L77.1156 197.952L93.7524 171.947L105.735 155.695L121.04 148.385L355.304 144.315Z" fill="#CAF8FF"/>
<mask id="mask0_2090_115999" style="mask-type:luminance" maskUnits="userSpaceOnUse" x="57" y="144" width="368" height="324">
<path d="M355.304 144.315L386.576 173.574L405.214 202.015L419.855 235.336L424.515 293.036L414.533 366.989L376.594 427.132L318.028 461.256L224.194 467.762L130.353 453.13L89.7618 416.562L77.1156 399.493L61.8053 344.237L57.1515 315.795L61.8053 258.095L77.1156 197.952L93.7524 171.947L105.735 155.695L121.04 148.385L355.304 144.315Z" fill="white"/>
</mask>
<g mask="url(#mask0_2090_115999)">
<path d="M356.792 231.682L366.785 250.575L368.279 271.298C368.279 271.298 364.283 298.726 363.285 300.55C362.293 302.381 357.801 320.055 356.307 321.886C354.802 323.71 348.816 347.483 348.816 347.483C348.816 347.483 347.323 366.988 347.323 368.819C347.323 370.65 350.812 399.296 350.812 399.296L356.307 416.358L351.809 418.189L344.82 399.901L338.829 367.601L336.833 333.47C336.833 333.47 341.331 309.091 342.825 306.655C344.324 304.218 354.306 278.615 354.802 276.784C355.304 274.953 360.292 243.871 360.292 243.871L356.792 231.682Z" fill="#719931"/>
<path d="M354.802 276.784C355.304 274.953 360.292 243.871 360.292 243.871L363.619 256.067L361.29 271.305C361.29 271.305 355.304 298.733 354.3 300.557C353.303 302.387 346.314 320.668 345.818 322.499C345.31 324.329 342.323 345.659 342.323 345.659L341.816 365.777L344.313 385.895L349.307 404.182L355.12 416.855L351.804 418.202L344.814 399.915L338.823 367.615L336.828 333.483C336.828 333.483 341.325 309.105 342.819 306.668C344.318 304.211 354.3 278.608 354.802 276.784Z" fill="#597A18"/>
<path d="M355.8 418.189L363.786 410.879L369.778 395.028C369.778 395.028 372.771 375.523 372.771 373.692C372.771 371.861 370.268 358.454 370.268 356.63C370.268 354.799 369.778 338.955 369.778 338.955L373.768 324.935L367.777 332.252L362.789 352.363L363.279 365.77L364.784 386.494L360.292 401.12L347.317 418.182L355.8 418.189Z" fill="#719931"/>
<path d="M364.784 386.494L363.279 365.77L362.789 352.362L365.012 343.399L365.286 355.411L366.283 377.353L365.782 391.367L361.289 405.387L354.802 415.139L350.644 418.188H347.317L360.292 401.119L364.784 386.494Z" fill="#597A18"/>
<path d="M386.744 253.011L377.759 264.594L373.769 282.269V299.944L366.785 312.739C366.785 312.739 358.297 323.71 357.299 326.146C356.301 328.583 350.304 354.792 350.304 354.792L350.806 371.249L352.807 384.05L354.3 399.289L349.808 421.836L353.303 421.231L358.787 395.021L358.291 370.03L357.789 348.701L363.274 329.195L376.26 317.619L384.247 302.986C384.247 302.986 386.738 288.966 386.236 287.142C385.74 285.311 382.246 273.122 382.246 273.122L386.744 253.011Z" fill="#719931"/>
<path d="M358.793 395.028L353.308 421.237L350.594 421.707L355.811 393.803L354.306 374.298L353.81 356.623L357.304 338.948L363.792 323.104L371.277 313.351L379.76 299.331L380.758 284.093L383.254 276.6C384.325 280.35 385.924 285.951 386.248 287.142C386.749 288.973 384.258 302.986 384.258 302.986L376.271 317.619L363.285 329.195L357.801 348.701L358.302 370.03L358.793 395.028Z" fill="#597A18"/>
<path d="M388.243 322.499L396.235 342.004L395.734 364.552L388.243 387.712C388.243 387.712 379.264 399.901 377.759 399.901C376.266 399.901 367.777 404.781 366.284 404.781C364.779 404.781 353.303 416.97 353.303 416.97L352.3 423.674L347.311 420.632L355.794 399.908L365.776 391.374C365.776 391.374 378.751 382.233 379.749 380.403C380.747 378.579 385.74 366.995 386.236 364.552C386.738 362.115 389.235 345.046 389.235 343.222C389.241 341.392 388.243 322.499 388.243 322.499Z" fill="#719931"/>
<path d="M360.291 401.119L372.269 396.24L381.248 384.656L389.736 366.981L392.729 343.209L388.471 327.004C388.332 324.37 388.231 322.485 388.231 322.485L396.224 341.99L395.722 364.538L388.231 387.698C388.231 387.698 379.252 399.888 377.747 399.888C376.254 399.888 367.765 404.767 366.272 404.767C364.767 404.767 353.291 416.957 353.291 416.957L352.288 423.66L350.376 422.49L360.291 401.119Z" fill="#597A18"/>
<path d="M319.36 296.895L327.849 314.57L328.846 335.906C328.846 335.906 328.345 352.975 328.345 354.799C328.345 356.63 328.846 371.255 328.846 371.255C328.846 371.255 332.837 384.663 333.339 386.494C333.846 388.324 339.826 401.119 339.826 401.119L349.312 420.012L346.319 423.667L333.846 412.09L322.855 391.367L322.359 370.65C322.359 370.65 324.856 350.532 325.357 348.708C325.859 346.877 325.859 320.062 325.859 320.062L319.36 296.895Z" fill="#719931"/>
<path d="M328.841 392.585L327.347 377.959C327.347 377.959 327.949 373.692 328.74 368.036C328.802 369.928 328.841 371.255 328.841 371.255C328.841 371.255 332.831 384.663 333.333 386.494C333.84 388.324 339.82 401.119 339.82 401.119L349.306 420.012L348.387 421.142L335.334 404.774L328.841 392.585Z" fill="#597A18"/>
</g>
<mask id="mask1_2090_115999" style="mask-type:luminance" maskUnits="userSpaceOnUse" x="57" y="144" width="368" height="324">
<path d="M355.304 144.315L386.576 173.574L405.214 202.015L419.855 235.336L424.515 293.036L414.533 366.989L376.594 427.132L318.028 461.256L224.194 467.762L130.353 453.13L89.7618 416.562L77.1156 399.493L61.8053 344.237L57.1515 315.795L61.8053 258.095L77.1156 197.952L93.7524 171.947L105.735 155.695L121.04 148.385L355.304 144.315Z" fill="white"/>
</mask>
<g mask="url(#mask1_2090_115999)">
<path d="M138.179 187.185L153.149 212.176L157.647 238.998L152.659 263.377C152.659 263.377 149.66 285.924 149.164 287.762C148.662 289.593 147.163 331.033 147.163 331.033L147.665 360.292C147.665 360.292 150.162 378.579 150.658 380.403C151.159 382.234 163.131 418.189 163.131 418.189L159.648 423.069L148.662 404.176L135.175 363.946L128.693 327.984C128.693 327.984 132.187 292.022 132.689 290.192C133.185 288.368 140.18 250.575 140.18 250.575L145.664 220.098L139.672 196.332L138.179 187.185Z" fill="#719931"/>
<path d="M149.159 254.842L150.652 229.245L147.659 210.352L138.909 191.643L138.179 187.192L153.149 212.183L157.647 239.005L152.659 263.383C152.659 263.383 149.66 285.931 149.164 287.769C148.663 289.599 147.163 331.04 147.163 331.04L147.665 360.298C147.665 360.298 150.162 378.586 150.658 380.41C151.159 382.24 163.131 418.195 163.131 418.195L161.443 420.564L150.162 400.528L142.677 370.051L139.678 348.722L137.683 319.463L142.181 285.938L149.159 254.842Z" fill="#597A18"/>
<path d="M170.622 233.506L180.604 258.497C180.604 258.497 177.611 291.41 176.608 293.234C175.61 295.065 169.618 317.007 169.618 317.007L163.125 341.991L160.64 363.32C160.64 363.32 159.642 379.777 160.138 381.608C160.64 383.438 167.122 411.472 167.122 411.472L163.125 415.133L155.64 391.36C155.64 391.36 152.151 356.623 152.151 354.793C152.151 352.962 153.645 315.788 154.643 313.958C155.64 312.127 166.62 282.875 166.62 282.875L171.112 249.35L170.622 233.506Z" fill="#719931"/>
<path d="M163.627 315.183C164.631 313.352 172.11 284.713 172.11 284.713L175.109 252.406L170.761 237.936L170.622 233.513L180.604 258.504C180.604 258.504 177.611 291.417 176.608 293.241C175.61 295.071 169.619 317.013 169.619 317.013L163.126 341.998L160.64 363.327C160.64 363.327 159.642 379.784 160.138 381.614C160.64 383.445 167.122 411.478 167.122 411.478L164.948 413.466L159.642 396.846L157.14 387.093L156.142 368.2C156.142 368.2 157.641 343.822 157.641 341.991C157.641 340.174 162.635 317.013 163.627 315.183Z" fill="#597A18"/>
<path d="M161.632 424.28L142.169 405.387L129.685 383.445C129.685 383.445 125.7 356.63 125.7 353.581C125.7 350.532 124.195 328.59 124.195 326.766C124.195 324.935 116.71 306.042 116.71 306.042L108.723 299.944L114.207 315.183L117.2 341.998C117.2 341.998 118.203 366.989 118.699 368.812C119.201 370.643 121.196 385.269 121.698 387.1C122.2 388.931 135.163 409.647 135.163 409.647L160.629 429.153L161.632 424.28Z" fill="#719931"/>
<path d="M118.705 318.837C118.705 318.837 121.703 339.561 121.703 341.998C121.703 344.434 123.203 362.116 123.203 363.94C123.203 365.77 124.2 381.614 124.2 381.614L131.189 398.071L139.176 407.211L161.275 426.05L160.645 429.153L135.18 409.648C135.18 409.648 122.216 388.924 121.715 387.1C121.213 385.269 119.218 370.643 118.716 368.813C118.22 366.982 117.217 341.998 117.217 341.998L114.224 315.183L111.197 306.798L118.705 318.837Z" fill="#597A18"/>
</g>
<mask id="mask2_2090_115999" style="mask-type:luminance" maskUnits="userSpaceOnUse" x="57" y="144" width="368" height="324">
<path d="M355.304 144.315L386.576 173.574L405.214 202.015L419.855 235.336L424.515 293.036L414.533 366.989L376.594 427.132L318.028 461.256L224.194 467.762L130.353 453.13L89.7618 416.562L77.1156 399.493L61.8053 344.237L57.1515 315.795L61.8053 258.095L77.1156 197.952L93.7524 171.947L105.735 155.695L121.04 148.385L355.304 144.315Z" fill="white"/>
</mask>
<g mask="url(#mask2_2090_115999)">
<path d="M324.354 422.456L324.856 411.485L316.869 406.605L305.393 412.703L299.391 424.28L303.387 438.3L314.372 442.567L322.353 433.427L324.354 422.456Z" fill="#682C12"/>
</g>
<mask id="mask3_2090_115999" style="mask-type:luminance" maskUnits="userSpaceOnUse" x="57" y="144" width="368" height="324">
<path d="M355.304 144.315L386.576 173.574L405.214 202.015L419.855 235.336L424.515 293.036L414.533 366.989L376.594 427.132L318.028 461.256L224.194 467.762L130.353 453.13L89.7618 416.562L77.1156 399.493L61.8053 344.237L57.1515 315.795L61.8053 258.095L77.1156 197.952L93.7524 171.947L105.735 155.695L121.04 148.385L355.304 144.315Z" fill="white"/>
</mask>
<g mask="url(#mask3_2090_115999)">
<path d="M314.372 442.567L303.387 438.3L301.38 431.256L302.885 431.596L313.87 426.111L318.368 417.576L318.847 407.817L324.855 411.485L324.354 422.456L322.353 433.427L314.372 442.567Z" fill="#3F1B08"/>
</g>
<mask id="mask4_2090_115999" style="mask-type:luminance" maskUnits="userSpaceOnUse" x="57" y="144" width="368" height="324">
<path d="M355.304 144.315L386.576 173.574L405.214 202.015L419.855 235.336L424.515 293.036L414.533 366.989L376.594 427.132L318.028 461.256L224.194 467.762L130.353 453.13L89.7618 416.562L77.1156 399.493L61.8053 344.237L57.1515 315.795L61.8053 258.095L77.1156 197.952L93.7524 171.947L105.735 155.695L121.04 148.385L355.304 144.315Z" fill="white"/>
</mask>
<g mask="url(#mask4_2090_115999)">
<path d="M284.426 399.902L300.895 409.049L309.372 423.674L307.879 438.3L296.397 447.447C296.397 447.447 285.908 443.786 284.42 440.737C282.915 437.694 277.431 425.498 277.431 423.062C277.431 420.625 277.927 404.775 277.927 404.775L284.426 399.902Z" fill="#A0633A"/>
</g>
<mask id="mask5_2090_115999" style="mask-type:luminance" maskUnits="userSpaceOnUse" x="57" y="144" width="368" height="324">
<path d="M355.304 144.315L386.576 173.574L405.214 202.015L419.855 235.336L424.515 293.036L414.533 366.989L376.594 427.132L318.028 461.256L224.194 467.762L130.353 453.13L89.7618 416.562L77.1156 399.493L61.8053 344.237L57.1515 315.795L61.8053 258.095L77.1156 197.952L93.7524 171.947L105.735 155.695L121.04 148.385L355.304 144.315Z" fill="white"/>
</mask>
<g mask="url(#mask5_2090_115999)">
<path d="M288.918 406.605L295.4 412.098V417.576L291.911 418.189L287.419 414.534L285.914 407.218L288.918 406.605Z" fill="#C98150"/>
</g>
<mask id="mask6_2090_115999" style="mask-type:luminance" maskUnits="userSpaceOnUse" x="57" y="144" width="368" height="324">
<path d="M355.304 144.315L386.576 173.574L405.214 202.015L419.855 235.336L424.515 293.036L414.533 366.989L376.594 427.132L318.028 461.256L224.194 467.762L130.353 453.13L89.7618 416.562L77.1156 399.493L61.8053 344.237L57.1515 315.795L61.8053 258.095L77.1156 197.952L93.7524 171.947L105.735 155.695L121.04 148.385L355.304 144.315Z" fill="white"/>
</mask>
<g mask="url(#mask6_2090_115999)">
<path d="M284.426 440.737C282.921 437.694 277.437 425.498 277.437 423.062C277.437 420.625 277.933 404.775 277.933 404.775L278.83 404.101C280.447 410.539 282.37 418.053 282.921 419.4C283.925 421.837 292.402 427.935 292.402 427.935L303.387 424.886L304.697 415.603L309.373 423.668L307.879 438.293L296.398 447.44C296.398 447.44 285.914 443.786 284.426 440.737Z" fill="#7C4825"/>
</g>
<mask id="mask7_2090_115999" style="mask-type:luminance" maskUnits="userSpaceOnUse" x="57" y="144" width="368" height="324">
<path d="M355.304 144.315L386.576 173.574L405.214 202.015L419.855 235.336L424.515 293.036L414.533 366.989L376.594 427.132L318.028 461.256L224.194 467.762L130.353 453.13L89.7618 416.562L77.1156 399.493L61.8053 344.237L57.1515 315.795L61.8053 258.095L77.1156 197.952L93.7524 171.947L105.735 155.695L121.04 148.385L355.304 144.315Z" fill="white"/>
</mask>
<g mask="url(#mask7_2090_115999)">
<path d="M204.062 396.853L209.552 407.218L208.053 426.723L196.075 434.04L186.093 427.329L184.594 410.873L193.082 396.853H204.062Z" fill="#682C12"/>
</g>
<mask id="mask8_2090_115999" style="mask-type:luminance" maskUnits="userSpaceOnUse" x="57" y="144" width="368" height="324">
<path d="M355.304 144.315L386.576 173.574L405.214 202.015L419.855 235.336L424.515 293.036L414.533 366.989L376.594 427.132L318.028 461.256L224.194 467.762L130.353 453.13L89.7618 416.562L77.1156 399.493L61.8053 344.237L57.1515 315.795L61.8053 258.095L77.1156 197.952L93.7524 171.947L105.735 155.695L121.04 148.385L355.304 144.315Z" fill="white"/>
</mask>
<g mask="url(#mask8_2090_115999)">
<path d="M186.093 427.329L184.589 410.872L186.311 408.034C187.498 412.077 188.663 415.922 189.086 416.964C190.084 419.4 199.57 417.576 199.57 417.576L205.556 408.429L205.311 399.214L209.552 407.211L208.047 426.716L196.075 434.033L186.093 427.329Z" fill="#3F1B08"/>
</g>
<mask id="mask9_2090_115999" style="mask-type:luminance" maskUnits="userSpaceOnUse" x="57" y="144" width="368" height="324">
<path d="M355.304 144.315L386.576 173.574L405.214 202.015L419.855 235.336L424.515 293.036L414.533 366.989L376.594 427.132L318.028 461.256L224.194 467.762L130.353 453.13L89.7618 416.562L77.1156 399.493L61.8053 344.237L57.1515 315.795L61.8053 258.095L77.1156 197.952L93.7524 171.947L105.735 155.695L121.04 148.385L355.304 144.315Z" fill="white"/>
</mask>
<g mask="url(#mask9_2090_115999)">
<path d="M342.819 418.801L353.303 413.928L365.782 419.414L373.267 427.336C373.267 427.336 365.28 441.961 363.786 442.574C362.293 443.186 351.308 446.848 351.308 446.848C351.308 446.848 343.321 444.405 342.329 442.574C341.326 440.743 336.833 427.336 336.833 427.336L342.819 418.801Z" fill="#682C12"/>
</g>
<mask id="mask10_2090_115999" style="mask-type:luminance" maskUnits="userSpaceOnUse" x="57" y="144" width="368" height="324">
<path d="M355.304 144.315L386.576 173.574L405.214 202.015L419.855 235.336L424.515 293.036L414.533 366.989L376.594 427.132L318.028 461.256L224.194 467.762L130.353 453.13L89.7618 416.562L77.1156 399.493L61.8053 344.237L57.1515 315.795L61.8053 258.095L77.1156 197.952L93.7524 171.947L105.735 155.695L121.04 148.385L355.304 144.315Z" fill="white"/>
</mask>
<g mask="url(#mask10_2090_115999)">
<path d="M363.786 442.567C362.293 443.18 351.308 446.841 351.308 446.841C351.308 446.841 343.321 444.398 342.329 442.567C341.326 440.737 336.833 427.329 336.833 427.329L338.249 425.315C339.408 427.322 340.59 429.493 340.829 430.385C341.331 432.216 349.312 434.652 349.312 434.652L362.795 427.336L365.185 419.148L365.787 419.414L373.273 427.336C373.273 427.336 365.286 441.955 363.786 442.567Z" fill="#3F1B08"/>
</g>
<mask id="mask11_2090_115999" style="mask-type:luminance" maskUnits="userSpaceOnUse" x="57" y="144" width="368" height="324">
<path d="M355.304 144.315L386.576 173.574L405.214 202.015L419.855 235.336L424.515 293.036L414.533 366.989L376.594 427.132L318.028 461.256L224.194 467.762L130.353 453.13L89.7618 416.562L77.1156 399.493L61.8053 344.237L57.1515 315.795L61.8053 258.095L77.1156 197.952L93.7524 171.947L105.735 155.695L121.04 148.385L355.304 144.315Z" fill="white"/>
</mask>
<g mask="url(#mask11_2090_115999)">
<path d="M349.808 421.843L357.299 421.238L355.303 426.111L346.313 423.674L349.808 421.843Z" fill="#9E452E"/>
</g>
<mask id="mask12_2090_115999" style="mask-type:luminance" maskUnits="userSpaceOnUse" x="57" y="144" width="368" height="324">
<path d="M355.304 144.315L386.576 173.574L405.214 202.015L419.855 235.336L424.515 293.036L414.533 366.989L376.594 427.132L318.028 461.256L224.194 467.762L130.353 453.13L89.7618 416.562L77.1156 399.493L61.8053 344.237L57.1515 315.795L61.8053 258.095L77.1156 197.952L93.7524 171.947L105.735 155.695L121.04 148.385L355.304 144.315Z" fill="white"/>
</mask>
<g mask="url(#mask12_2090_115999)">
<path d="M138.179 419.407C139.672 417.576 148.662 415.14 148.662 415.14L163.632 421.238L169.128 435.258L156.649 449.89L141.177 457.2C141.177 457.2 127.7 457.2 126.201 454.763C124.707 452.327 118.71 445.616 118.71 442.574C118.71 439.532 121.709 427.336 121.709 427.336L138.179 419.407Z" fill="#A0633A"/>
</g>
<mask id="mask13_2090_115999" style="mask-type:luminance" maskUnits="userSpaceOnUse" x="57" y="144" width="368" height="324">
<path d="M355.304 144.315L386.576 173.574L405.214 202.015L419.855 235.336L424.515 293.036L414.533 366.989L376.594 427.132L318.028 461.256L224.194 467.762L130.353 453.13L89.7618 416.562L77.1156 399.493L61.8053 344.237L57.1515 315.795L61.8053 258.095L77.1156 197.952L93.7524 171.947L105.735 155.695L121.04 148.385L355.304 144.315Z" fill="white"/>
</mask>
<g mask="url(#mask13_2090_115999)">
<path d="M141.171 457.193C141.171 457.193 127.694 457.193 126.195 454.756C124.701 452.32 118.704 445.609 118.704 442.567C118.704 441.158 119.351 437.783 120.042 434.563L120.705 437.694L127.187 441.955L137.671 442.56L150.646 436.469L156.136 424.886L154.793 417.637L163.621 421.231L169.116 435.251L156.637 449.883L141.171 457.193Z" fill="#7C4825"/>
</g>
<mask id="mask14_2090_115999" style="mask-type:luminance" maskUnits="userSpaceOnUse" x="57" y="144" width="368" height="324">
<path d="M355.304 144.315L386.576 173.574L405.214 202.015L419.855 235.336L424.515 293.036L414.533 366.989L376.594 427.132L318.028 461.256L224.194 467.762L130.353 453.13L89.7618 416.562L77.1156 399.493L61.8053 344.237L57.1515 315.795L61.8053 258.095L77.1156 197.952L93.7524 171.947L105.735 155.695L121.04 148.385L355.304 144.315Z" fill="white"/>
</mask>
<g mask="url(#mask14_2090_115999)">
<path d="M134.684 425.498L143.668 423.062C143.668 423.062 144.666 428.547 143.167 429.766C141.667 430.984 137.175 434.04 137.175 434.04H133.179L134.684 425.498Z" fill="#C98150"/>
</g>
<mask id="mask15_2090_115999" style="mask-type:luminance" maskUnits="userSpaceOnUse" x="57" y="144" width="368" height="324">
<path d="M355.304 144.315L386.576 173.574L405.214 202.015L419.855 235.336L424.515 293.036L414.533 366.989L376.594 427.132L318.028 461.256L224.194 467.762L130.353 453.13L89.7618 416.562L77.1156 399.493L61.8053 344.237L57.1515 315.795L61.8053 258.095L77.1156 197.952L93.7524 171.947L105.735 155.695L121.04 148.385L355.304 144.315Z" fill="white"/>
</mask>
<g mask="url(#mask15_2090_115999)">
<path d="M217.037 407.824L224.528 410.267L228.513 420.02L225.024 440.131L210.549 453.538L200.567 452.32L197.574 438.913L204.062 420.02L217.037 407.824Z" fill="#A0633A"/>
</g>
<mask id="mask16_2090_115999" style="mask-type:luminance" maskUnits="userSpaceOnUse" x="57" y="144" width="368" height="324">
<path d="M355.304 144.315L386.576 173.574L405.214 202.015L419.855 235.336L424.515 293.036L414.533 366.989L376.594 427.132L318.028 461.256L224.194 467.762L130.353 453.13L89.7618 416.562L77.1156 399.493L61.8053 344.237L57.1515 315.795L61.8053 258.095L77.1156 197.952L93.7524 171.947L105.735 155.695L121.04 148.385L355.304 144.315Z" fill="white"/>
</mask>
<g mask="url(#mask16_2090_115999)">
<path d="M198.477 436.272L200.071 440.737L205.556 444.398L217.538 435.864L222.527 420.625L221.317 409.226L224.528 410.267L228.513 420.02L225.024 440.131L210.549 453.538L200.567 452.32L197.574 438.913L198.477 436.272Z" fill="#7C4825"/>
</g>
<mask id="mask17_2090_115999" style="mask-type:luminance" maskUnits="userSpaceOnUse" x="57" y="144" width="368" height="324">
<path d="M355.304 144.315L386.576 173.574L405.214 202.015L419.855 235.336L424.515 293.036L414.533 366.989L376.594 427.132L318.028 461.256L224.194 467.762L130.353 453.13L89.7618 416.562L77.1156 399.493L61.8053 344.237L57.1515 315.795L61.8053 258.095L77.1156 197.952L93.7524 171.947L105.735 155.695L121.04 148.385L355.304 144.315Z" fill="white"/>
</mask>
<g mask="url(#mask17_2090_115999)">
<path d="M210.55 458.418C210.054 455.369 206.559 437.082 206.559 435.258C206.559 433.427 197.073 418.189 197.073 418.189L181.601 407.823C181.601 407.823 168.626 405.387 167.121 405.387C165.622 405.387 158.142 405.993 157.641 407.823C157.139 409.654 155.646 423.062 155.646 423.062C155.646 423.062 156.147 435.863 157.145 438.3C158.148 440.736 164.635 450.496 166.631 451.707C168.626 452.926 178.608 461.46 178.608 461.46L192.586 463.897L202.067 465.115L210.55 458.418Z" fill="#B2876B"/>
</g>
<mask id="mask18_2090_115999" style="mask-type:luminance" maskUnits="userSpaceOnUse" x="57" y="144" width="368" height="324">
<path d="M355.304 144.315L386.576 173.574L405.214 202.015L419.855 235.336L424.515 293.036L414.533 366.989L376.594 427.132L318.028 461.256L224.194 467.762L130.353 453.13L89.7618 416.562L77.1156 399.493L61.8053 344.237L57.1515 315.795L61.8053 258.095L77.1156 197.952L93.7524 171.947L105.735 155.695L121.04 148.385L355.304 144.315Z" fill="white"/>
</mask>
<g mask="url(#mask18_2090_115999)">
<path d="M165.126 405.509L164.624 407.823L165.126 421.843L172.617 438.3L187.091 449.883L203.064 451.707L207.607 442.098C208.677 448.23 210.232 456.458 210.55 458.411L202.067 465.115L192.586 463.897L178.608 461.46C178.608 461.46 168.626 452.926 166.631 451.707C164.635 450.489 158.148 440.736 157.145 438.3C156.147 435.863 155.646 423.062 155.646 423.062C155.646 423.062 157.145 409.654 157.641 407.823C158.02 406.449 162.373 405.761 165.126 405.509Z" fill="#9E7157"/>
</g>
<mask id="mask19_2090_115999" style="mask-type:luminance" maskUnits="userSpaceOnUse" x="57" y="144" width="368" height="324">
<path d="M355.304 144.315L386.576 173.574L405.214 202.015L419.855 235.336L424.515 293.036L414.533 366.989L376.594 427.132L318.028 461.256L224.194 467.762L130.353 453.13L89.7618 416.562L77.1156 399.493L61.8053 344.237L57.1515 315.795L61.8053 258.095L77.1156 197.952L93.7524 171.947L105.735 155.695L121.04 148.385L355.304 144.315Z" fill="white"/>
</mask>
<g mask="url(#mask19_2090_115999)">
<path d="M176.106 413.309L187.091 422.449C187.091 422.449 188.089 431.596 186.595 431.596C185.09 431.596 180.102 430.984 180.102 430.984L173.118 420.625L176.106 413.309Z" fill="#D3B49F"/>
</g>
<mask id="mask20_2090_115999" style="mask-type:luminance" maskUnits="userSpaceOnUse" x="57" y="144" width="368" height="324">
<path d="M355.304 144.315L386.576 173.574L405.214 202.015L419.855 235.336L424.515 293.036L414.533 366.989L376.594 427.132L318.028 461.256L224.194 467.762L130.353 453.13L89.7618 416.562L77.1156 399.493L61.8053 344.237L57.1515 315.795L61.8053 258.095L77.1156 197.952L93.7524 171.947L105.735 155.695L121.04 148.385L355.304 144.315Z" fill="white"/>
</mask>
<g mask="url(#mask20_2090_115999)">
<path d="M343.32 454.757C343.822 452.926 349.306 434.645 349.306 434.645L347.317 418.189L341.821 409.049C341.821 409.049 328.345 411.485 326.857 412.098C325.357 412.703 316.875 416.971 315.877 418.801C314.868 420.632 307.884 438.307 307.884 438.307L307.383 451.102L312.377 460.855L321.857 463.298L332.837 461.467L343.32 454.757Z" fill="#B2876B"/>
</g>
<mask id="mask21_2090_115999" style="mask-type:luminance" maskUnits="userSpaceOnUse" x="57" y="144" width="368" height="324">
<path d="M355.304 144.315L386.576 173.574L405.214 202.015L419.855 235.336L424.515 293.036L414.533 366.989L376.594 427.132L318.028 461.256L224.194 467.762L130.353 453.13L89.7618 416.562L77.1156 399.493L61.8053 344.237L57.1515 315.795L61.8053 258.095L77.1156 197.952L93.7524 171.947L105.735 155.695L121.04 148.385L355.304 144.315Z" fill="white"/>
</mask>
<g mask="url(#mask21_2090_115999)">
<path d="M307.645 444.344L314.372 448.665L324.856 447.447L334.838 438.3L340.322 419.407L338.483 409.661C340.422 409.3 341.821 409.049 341.821 409.049L347.317 418.189L349.306 434.645C349.306 434.645 343.822 452.933 343.32 454.757L332.831 461.46L321.852 463.291L312.371 460.848L307.377 451.095L307.645 444.344Z" fill="#9E7157"/>
</g>
<mask id="mask22_2090_115999" style="mask-type:luminance" maskUnits="userSpaceOnUse" x="57" y="144" width="368" height="324">
<path d="M355.304 144.315L386.576 173.574L405.214 202.015L419.855 235.336L424.515 293.036L414.533 366.989L376.594 427.132L318.028 461.256L224.194 467.762L130.353 453.13L89.7618 416.562L77.1156 399.493L61.8053 344.237L57.1515 315.795L61.8053 258.095L77.1156 197.952L93.7524 171.947L105.735 155.695L121.04 148.385L355.304 144.315Z" fill="white"/>
</mask>
<g mask="url(#mask22_2090_115999)">
<path d="M319.36 422.456L327.347 419.407L330.34 426.723L327.347 434.039C327.347 434.039 323.357 438.3 321.857 437.694C320.364 437.082 315.877 429.765 315.877 429.765L319.36 422.456Z" fill="#D3B49F"/>
</g>
<mask id="mask23_2090_115999" style="mask-type:luminance" maskUnits="userSpaceOnUse" x="57" y="144" width="368" height="324">
<path d="M355.304 144.315L386.576 173.574L405.214 202.015L419.855 235.336L424.515 293.036L414.533 366.989L376.594 427.132L318.028 461.256L224.194 467.762L130.353 453.13L89.7618 416.562L77.1156 399.493L61.8053 344.237L57.1515 315.795L61.8053 258.095L77.1156 197.952L93.7524 171.947L105.735 155.695L121.04 148.385L355.304 144.315Z" fill="white"/>
</mask>
<g mask="url(#mask23_2090_115999)">
<path d="M285.424 435.251C283.924 431.596 271.445 416.964 271.445 416.964L249.486 401.725L235.006 399.895L224.026 426.104L225.024 440.124L239.002 451.707C239.002 451.707 254.976 457.193 256.475 457.193C257.969 457.193 267.962 457.193 267.962 457.193L279.438 451.095L285.424 435.251Z" fill="#682C12"/>
</g>
<mask id="mask24_2090_115999" style="mask-type:luminance" maskUnits="userSpaceOnUse" x="57" y="144" width="368" height="324">
<path d="M355.304 144.315L386.576 173.574L405.214 202.015L419.855 235.336L424.515 293.036L414.533 366.989L376.594 427.132L318.028 461.256L224.194 467.762L130.353 453.13L89.7618 416.562L77.1156 399.493L61.8053 344.237L57.1515 315.795L61.8053 258.095L77.1156 197.952L93.7524 171.947L105.735 155.695L121.04 148.385L355.304 144.315Z" fill="white"/>
</mask>
<g mask="url(#mask24_2090_115999)">
<path d="M240.502 410.873L252.473 416.971V425.498L245.986 426.111L240.997 422.456L237.007 415.752L240.502 410.873Z" fill="#9E452E"/>
</g>
<mask id="mask25_2090_115999" style="mask-type:luminance" maskUnits="userSpaceOnUse" x="57" y="144" width="368" height="324">
<path d="M355.304 144.315L386.576 173.574L405.214 202.015L419.855 235.336L424.515 293.036L414.533 366.989L376.594 427.132L318.028 461.256L224.194 467.762L130.353 453.13L89.7618 416.562L77.1156 399.493L61.8053 344.237L57.1515 315.795L61.8053 258.095L77.1156 197.952L93.7524 171.947L105.735 155.695L121.04 148.385L355.304 144.315Z" fill="white"/>
</mask>
<g mask="url(#mask25_2090_115999)">
<path d="M225.024 440.131L224.026 426.111L226.373 420.523C227.928 422.361 229.31 424.137 229.516 424.892C230.018 426.723 237.503 434.645 238.005 436.476C238.495 438.307 247.48 439.525 248.979 440.736C250.484 441.955 267.449 435.863 267.449 435.863L268.447 421.238L260.984 409.715L271.44 416.97C271.44 416.97 283.919 431.603 285.418 435.258L279.427 451.102L267.951 457.2C267.951 457.2 257.963 457.2 256.464 457.2C254.965 457.2 238.991 451.714 238.991 451.714L225.024 440.131Z" fill="#3F1B08"/>
</g>
<mask id="mask26_2090_115999" style="mask-type:luminance" maskUnits="userSpaceOnUse" x="57" y="144" width="368" height="324">
<path d="M355.304 144.315L386.576 173.574L405.214 202.015L419.855 235.336L424.515 293.036L414.533 366.989L376.594 427.132L318.028 461.256L224.194 467.762L130.353 453.13L89.7618 416.562L77.1156 399.493L61.8053 344.237L57.1515 315.795L61.8053 258.095L77.1156 197.952L93.7524 171.947L105.735 155.695L121.04 148.385L355.304 144.315Z" fill="white"/>
</mask>
<g mask="url(#mask26_2090_115999)">
<path d="M300.896 434.645L309.875 437.694L311.875 449.89L312.371 460.855L306.887 466.953L300.394 468.783L295.896 463.91C295.896 463.91 293.405 459.643 293.405 457.2C293.405 454.763 292.909 440.743 292.909 440.743L300.896 434.645Z" fill="#682C12"/>
</g>
<mask id="mask27_2090_115999" style="mask-type:luminance" maskUnits="userSpaceOnUse" x="57" y="144" width="368" height="324">
<path d="M355.304 144.315L386.576 173.574L405.214 202.015L419.855 235.336L424.515 293.036L414.533 366.989L376.594 427.132L318.028 461.256L224.194 467.762L130.353 453.13L89.7618 416.562L77.1156 399.493L61.8053 344.237L57.1515 315.795L61.8053 258.095L77.1156 197.952L93.7524 171.947L105.735 155.695L121.04 148.385L355.304 144.315Z" fill="white"/>
</mask>
<g mask="url(#mask27_2090_115999)">
<path d="M296.403 445.011C296.403 446.841 300.394 452.327 300.394 452.327C300.394 452.327 304.886 453.545 306.38 452.933C307.294 452.565 309.484 449.727 311.396 447.005L311.875 449.884L312.371 460.848L306.887 466.946L300.394 468.776L295.896 463.904C295.896 463.904 293.405 459.636 293.405 457.193C293.405 454.757 292.909 440.737 292.909 440.737L295.428 438.81C295.952 441.594 296.403 444.235 296.403 445.011Z" fill="#3F1B08"/>
</g>
<mask id="mask28_2090_115999" style="mask-type:luminance" maskUnits="userSpaceOnUse" x="57" y="144" width="368" height="324">
<path d="M355.304 144.315L386.576 173.574L405.214 202.015L419.855 235.336L424.515 293.036L414.533 366.989L376.594 427.132L318.028 461.256L224.194 467.762L130.353 453.13L89.7618 416.562L77.1156 399.493L61.8053 344.237L57.1515 315.795L61.8053 258.095L77.1156 197.952L93.7524 171.947L105.735 155.695L121.04 148.385L355.304 144.315Z" fill="white"/>
</mask>
<g mask="url(#mask28_2090_115999)">
<path d="M152.652 439.518L163.125 435.251C163.125 435.251 173.118 443.785 174.116 445.609C175.113 447.447 182.102 463.291 182.102 463.291L167.623 471.213L158.142 466.34L150.652 457.805L148.662 446.834L152.652 439.518Z" fill="#A0633A"/>
</g>
<mask id="mask29_2090_115999" style="mask-type:luminance" maskUnits="userSpaceOnUse" x="57" y="144" width="368" height="324">
<path d="M355.304 144.315L386.576 173.574L405.214 202.015L419.855 235.336L424.515 293.036L414.533 366.989L376.594 427.132L318.028 461.256L224.194 467.762L130.353 453.13L89.7618 416.562L77.1156 399.493L61.8053 344.237L57.1515 315.795L61.8053 258.095L77.1156 197.952L93.7524 171.947L105.735 155.695L121.04 148.385L355.304 144.315Z" fill="white"/>
</mask>
<g mask="url(#mask29_2090_115999)">
<path d="M148.656 446.841L152.652 439.525L153.449 439.198L153.65 445.011C153.65 445.011 158.644 454.763 159.14 456.587C159.642 458.418 167.617 460.249 167.617 460.249L174.606 454.151V446.63C176.49 450.578 182.097 463.298 182.097 463.298L167.617 471.22L158.137 466.347L150.646 457.812L148.656 446.841Z" fill="#7C4825"/>
</g>
<mask id="mask30_2090_115999" style="mask-type:luminance" maskUnits="userSpaceOnUse" x="57" y="144" width="368" height="324">
<path d="M355.304 144.315L386.576 173.574L405.214 202.015L419.855 235.336L424.515 293.036L414.533 366.989L376.594 427.132L318.028 461.256L224.194 467.762L130.353 453.13L89.7618 416.562L77.1156 399.493L61.8053 344.237L57.1515 315.795L61.8053 258.095L77.1156 197.952L93.7524 171.947L105.735 155.695L121.04 148.385L355.304 144.315Z" fill="white"/>
</mask>
<g mask="url(#mask30_2090_115999)">
<path d="M278.44 436.476L285.423 435.258L293.906 438.307L296.899 449.89L295.896 463.91L288.918 470.614L282.419 471.22C282.419 471.22 277.927 466.959 277.437 464.516C276.935 462.08 274.438 450.503 274.438 450.503L278.44 436.476Z" fill="#A0633A"/>
</g>
<mask id="mask31_2090_115999" style="mask-type:luminance" maskUnits="userSpaceOnUse" x="57" y="144" width="368" height="324">
<path d="M355.304 144.315L386.576 173.574L405.214 202.015L419.855 235.336L424.515 293.036L414.533 366.989L376.594 427.132L318.028 461.256L224.194 467.762L130.353 453.13L89.7618 416.562L77.1156 399.493L61.8053 344.237L57.1515 315.795L61.8053 258.095L77.1156 197.952L93.7524 171.947L105.735 155.695L121.04 148.385L355.304 144.315Z" fill="white"/>
</mask>
<g mask="url(#mask31_2090_115999)">
<path d="M281.433 454.151L285.919 457.812C285.919 457.812 289.414 456.587 290.913 455.369C292.407 454.151 292.908 446.229 292.908 446.229L291.27 437.354L293.906 438.307L296.899 449.89L295.896 463.91L288.918 470.614L282.419 471.22C282.419 471.22 277.927 466.959 277.437 464.516C276.935 462.08 274.438 450.503 274.438 450.503L276.015 444.97C276.378 446.011 276.706 446.903 276.935 447.454C277.933 449.884 281.433 454.151 281.433 454.151Z" fill="#7C4825"/>
</g>
<mask id="mask32_2090_115999" style="mask-type:luminance" maskUnits="userSpaceOnUse" x="57" y="144" width="368" height="324">
<path d="M355.304 144.315L386.576 173.574L405.214 202.015L419.855 235.336L424.515 293.036L414.533 366.989L376.594 427.132L318.028 461.256L224.194 467.762L130.353 453.13L89.7618 416.562L77.1156 399.493L61.8053 344.237L57.1515 315.795L61.8053 258.095L77.1156 197.952L93.7524 171.947L105.735 155.695L121.04 148.385L355.304 144.315Z" fill="white"/>
</mask>
<g mask="url(#mask32_2090_115999)">
<path d="M263.459 442.567L274.438 443.18L280.931 452.327C280.931 452.327 281.433 463.91 279.928 465.734C278.44 467.565 273.441 473.044 273.441 473.044L265.95 474.269L258.961 470.002C258.961 470.002 254.97 462.685 254.97 460.861C254.97 459.031 256.47 446.236 256.47 446.236L263.459 442.567Z" fill="#B2876B"/>
</g>
<mask id="mask33_2090_115999" style="mask-type:luminance" maskUnits="userSpaceOnUse" x="57" y="144" width="368" height="324">
<path d="M355.304 144.315L386.576 173.574L405.214 202.015L419.855 235.336L424.515 293.036L414.533 366.989L376.594 427.132L318.028 461.256L224.194 467.762L130.353 453.13L89.7618 416.562L77.1156 399.493L61.8053 344.237L57.1515 315.795L61.8053 258.095L77.1156 197.952L93.7524 171.947L105.735 155.695L121.04 148.385L355.304 144.315Z" fill="white"/>
</mask>
<g mask="url(#mask33_2090_115999)">
<path d="M254.976 460.855C254.976 460.487 255.037 459.657 255.132 458.582C257.177 460.16 259.468 461.467 259.468 461.467C259.468 461.467 267.951 460.855 269.444 460.855C270.949 460.855 275.436 455.982 275.436 455.982C275.436 455.982 275.932 450.571 276.161 445.61L280.926 452.327C280.926 452.327 281.427 463.911 279.923 465.734C278.434 467.565 273.435 473.044 273.435 473.044L265.944 474.269L258.955 470.002C258.955 470.002 254.976 462.679 254.976 460.855Z" fill="#9E7157"/>
</g>
<mask id="mask34_2090_115999" style="mask-type:luminance" maskUnits="userSpaceOnUse" x="57" y="144" width="368" height="324">
<path d="M355.304 144.315L386.576 173.574L405.214 202.015L419.855 235.336L424.515 293.036L414.533 366.989L376.594 427.132L318.028 461.256L224.194 467.762L130.353 453.13L89.7618 416.562L77.1156 399.493L61.8053 344.237L57.1515 315.795L61.8053 258.095L77.1156 197.952L93.7524 171.947L105.735 155.695L121.04 148.385L355.304 144.315Z" fill="white"/>
</mask>
<g mask="url(#mask34_2090_115999)">
<path d="M247.485 444.398C247.485 444.398 258.476 449.89 258.476 451.714C258.476 453.545 257.969 466.347 257.969 466.347C257.969 466.347 255.979 473.044 253.978 473.044C251.978 473.044 248.494 476.093 246.989 474.874C245.485 473.656 241.499 472.438 240.502 470.607C239.499 468.783 236.506 465.122 236.506 462.678C236.506 460.242 237.503 444.398 237.503 444.398H247.485Z" fill="#682C12"/>
</g>
<mask id="mask35_2090_115999" style="mask-type:luminance" maskUnits="userSpaceOnUse" x="57" y="144" width="368" height="324">
<path d="M355.304 144.315L386.576 173.574L405.214 202.015L419.855 235.336L424.515 293.036L414.533 366.989L376.594 427.132L318.028 461.256L224.194 467.762L130.353 453.13L89.7618 416.562L77.1156 399.493L61.8053 344.237L57.1515 315.795L61.8053 258.095L77.1156 197.952L93.7524 171.947L105.735 155.695L121.04 148.385L355.304 144.315Z" fill="white"/>
</mask>
<g mask="url(#mask35_2090_115999)">
<path d="M237.503 444.398H237.865C237.854 445.657 237.887 446.746 238.004 447.447C238.495 450.496 239.498 454.756 240.496 457.193C241.493 459.636 243.489 460.242 244.988 462.066C246.482 463.903 249.976 462.066 249.976 462.066L253.471 455.362L252.635 447.168C255.488 448.815 258.47 450.755 258.47 451.707C258.47 453.538 257.963 466.34 257.963 466.34C257.963 466.34 255.973 473.037 253.972 473.037C251.971 473.037 248.488 476.086 246.983 474.868C245.478 473.649 241.493 472.431 240.496 470.6C239.492 468.776 236.5 465.115 236.5 462.672C236.505 460.242 237.503 444.398 237.503 444.398Z" fill="#3F1B08"/>
</g>
<mask id="mask36_2090_115999" style="mask-type:luminance" maskUnits="userSpaceOnUse" x="57" y="144" width="368" height="324">
<path d="M355.304 144.315L386.576 173.574L405.214 202.015L419.855 235.336L424.515 293.036L414.533 366.989L376.594 427.132L318.028 461.256L224.194 467.762L130.353 453.13L89.7618 416.562L77.1156 399.493L61.8053 344.237L57.1515 315.795L61.8053 258.095L77.1156 197.952L93.7524 171.947L105.735 155.695L121.04 148.385L355.304 144.315Z" fill="white"/>
</mask>
<g mask="url(#mask36_2090_115999)">
<path d="M219.534 436.476L230.018 439.525L239.498 446.229L240 459.024C240 459.024 235 470.607 233.011 471.213C231.015 471.818 219.534 476.698 219.534 476.698H208.549C208.549 476.698 200.072 474.867 199.57 471.213C199.068 467.558 197.073 462.678 197.073 460.854C197.073 459.024 199.068 451.102 200.568 448.672C202.067 446.229 211.547 438.912 211.547 438.912L219.534 436.476Z" fill="#B2876B"/>
</g>
<mask id="mask37_2090_115999" style="mask-type:luminance" maskUnits="userSpaceOnUse" x="57" y="144" width="368" height="324">
<path d="M355.304 144.315L386.576 173.574L405.214 202.015L419.855 235.336L424.515 293.036L414.533 366.989L376.594 427.132L318.028 461.256L224.194 467.762L130.353 453.13L89.7618 416.562L77.1156 399.493L61.8053 344.237L57.1515 315.795L61.8053 258.095L77.1156 197.952L93.7524 171.947L105.735 155.695L121.04 148.385L355.304 144.315Z" fill="white"/>
</mask>
<g mask="url(#mask37_2090_115999)">
<path d="M208.052 461.46L217.538 460.848C217.538 460.848 226.021 458.411 227.521 457.806C229.02 457.193 233.512 449.271 233.512 449.271L231.99 440.914L239.504 446.222L240.005 459.017C240.005 459.017 235.006 470.601 233.016 471.206C231.021 471.812 219.539 476.692 219.539 476.692H208.554C208.554 476.692 200.077 474.861 199.575 471.206C199.074 467.552 197.078 462.672 197.078 460.848C197.078 460.14 197.379 458.541 197.825 456.696L198.076 456.581L208.052 461.46Z" fill="#9E7157"/>
</g>
<mask id="mask38_2090_115999" style="mask-type:luminance" maskUnits="userSpaceOnUse" x="57" y="144" width="368" height="324">
<path d="M355.304 144.315L386.576 173.574L405.214 202.015L419.855 235.336L424.515 293.036L414.533 366.989L376.594 427.132L318.028 461.256L224.194 467.762L130.353 453.13L89.7618 416.562L77.1156 399.493L61.8053 344.237L57.1515 315.795L61.8053 258.095L77.1156 197.952L93.7524 171.947L105.735 155.695L121.04 148.385L355.304 144.315Z" fill="white"/>
</mask>
<g mask="url(#mask38_2090_115999)">
<path d="M215.538 441.955L223.53 441.349L224.528 448.059C224.528 448.059 222.533 450.496 221.033 450.496C219.534 450.496 216.039 451.102 216.039 451.102L212.545 449.278L215.538 441.955Z" fill="#D3B49F"/>
</g>
<mask id="mask39_2090_115999" style="mask-type:luminance" maskUnits="userSpaceOnUse" x="57" y="144" width="368" height="324">
<path d="M355.304 144.315L386.576 173.574L405.214 202.015L419.855 235.336L424.515 293.036L414.533 366.989L376.594 427.132L318.028 461.256L224.194 467.762L130.353 453.13L89.7618 416.562L77.1156 399.493L61.8053 344.237L57.1515 315.795L61.8053 258.095L77.1156 197.952L93.7524 171.947L105.735 155.695L121.04 148.385L355.304 144.315Z" fill="white"/>
</mask>
<g mask="url(#mask39_2090_115999)">
<path d="M262.456 446.222L268.447 447.447C268.447 447.447 269.445 451.707 267.951 451.707C266.446 451.707 263.955 452.32 263.955 452.32L260.46 451.707L262.456 446.222Z" fill="#D3B49F"/>
</g>
<path d="M190.591 285.727L176.942 276.376C176.942 276.376 161.637 265.003 160.311 262.56C158.979 260.123 137.013 242.245 137.013 242.245L120.377 234.52L114.72 237.365L110.4 243.463L120.377 254.434L127.7 265.405L136.679 279.221L144.331 289.375L148.322 292.621L140.006 296.283L124.367 315.788L115.049 332.449L105.401 345.857L103.071 351.138C103.071 351.138 105.401 353.983 106.404 353.983C107.407 353.983 117.713 352.764 117.713 352.764L129.696 347.483L152.318 330.013L174.278 317.415L184.6 314.162L188.256 312.535L191.918 288.558L190.591 285.727Z" fill="#FFAC33"/>
<path d="M131.022 243.47L120.042 237.372L117.534 235.956L119.373 235.031L133.023 242.653L145 251.997L156.309 262.159L170.287 274.348L182.264 282.882L191.823 288.368L191.917 288.565L191.377 292.084L187.592 290.199L175.275 281.664L164.964 272.721L153.65 262.56L141.004 251.997L131.022 243.47Z" fill="#FFBB88"/>
<path d="M134.684 252.406L121.709 243.47L114.396 240.625C114.396 240.625 113.7 240.448 112.747 240.162L113.85 238.61L119.05 239.808L129.367 245.899L138.685 253.624L154.33 266.623L172.628 281.657L191.143 293.697L190.652 296.909L187.598 295.473L179.277 288.565L169.295 281.657L157.986 273.13L146.009 262.159L134.684 252.406Z" fill="#FFBB88"/>
<path d="M139.678 264.595L127.36 256.06L119.179 253.12L116.13 249.772L119.714 250.371L127.032 254.032L140.67 263.376L154.319 273.531L164.964 282.065L177.945 288.163L190.742 296.289L190.229 299.604L177.276 291.008L168.961 287.353L161.972 282.065L151.65 273.531L139.678 264.595Z" fill="#FFBB88"/>
<path d="M141.339 275.164L133.023 269.066L129.227 267.773L127.7 265.405L127.054 264.452L128.692 264.595L140.006 271.503L154.648 280.439L173.943 292.227L188.925 298.318L188.256 302.388L180.603 299.543L170.95 294.262L161.631 288.164L151.649 281.664L141.339 275.164Z" fill="#FFBB88"/>
<path d="M138.842 282.086L136.679 279.227L134.165 275.362L138.34 276.383L148.991 283.29L157.646 288.565L152.653 287.762L145.663 284.509L138.842 282.086Z" fill="#FFBB88"/>
<path d="M144.331 289.382L143.713 288.558L152.318 290.192L162.306 293.853L172.622 296.698L189.867 302.047L189.287 305.804C184.889 304.096 173.102 299.536 172.288 299.536C171.29 299.536 162.64 296.283 162.64 296.283L153.985 293.03L147.18 291.689L144.331 289.382Z" fill="#FFBB88"/>
<path d="M126.006 313.754L127.399 312.011L134.015 310.915L148.322 308.479H159.976L161.046 308.622L175.61 310.514L187.264 312.984L184.6 314.169L180.893 315.339L172.617 312.542L156.978 310.915L150.652 309.697L139.678 312.542L129.027 313.352L126.006 313.754Z" fill="#FFBB88"/>
<path d="M117.841 327.461L119.552 324.398L127.701 322.696L136.011 319.852L147.659 316.605L167.963 315.387L176.346 316.769L174.283 317.422L170.449 319.627L163.638 318.239H152.987C152.987 318.239 143.005 320.274 142.008 320.274C141.004 320.274 133.023 323.112 132.026 323.112C131.022 323.112 121.704 326.773 121.704 326.773L117.841 327.461Z" fill="#FFCA76"/>
<path d="M116.715 334.892C116.715 334.892 115.054 334.885 113.466 334.647L115.049 332.449L115.394 331.836L120.042 330.822L131.028 328.794L142.013 324.724L151.326 323.098L161.308 321.07L167.428 321.342L161.76 324.595L156.314 323.914L146.332 326.351L137.348 329.604L126.703 331.639L116.715 334.892Z" fill="#FFBB88"/>
<path d="M104.225 348.524L105.401 345.863L105.685 345.468C108.026 345.257 110.551 345.046 111.064 345.046C112.067 345.046 122.707 342.61 123.715 342.202C124.713 341.793 133.358 338.948 133.358 338.948L144.666 333.667L151.299 330.802L142.481 337.608L127.706 343.42L119.385 346.258L106.744 348.694L104.225 348.524Z" fill="#FFBB88"/>
<path d="M137.516 299.393L139.082 297.447L145.998 298.726L156.978 299.944L169.619 301.979L179.606 304.416L189.037 307.465L188.663 309.854L170.622 305.226L154.319 302.388L141.005 299.944L137.516 299.393Z" fill="#FFCA76"/>
<path d="M290.701 335.709L292.875 340.813L294.179 345.421L287.597 358.127L280.352 368.533L273.006 369.949L269.16 365.131L269.037 354.847C269.037 354.847 271.272 347.871 272.309 346.564C273.34 345.264 275.185 340.602 275.185 340.602C275.185 340.602 283.556 336.601 284.504 336.199C285.435 335.804 290.701 335.709 290.701 335.709Z" fill="#EF711D"/>
<path d="M275.965 353.186L269.065 357.052L269.048 355.936L276.751 348.552L284.169 343.665L288.845 339.085L291.632 337.901L292.362 339.616L288.968 340.752L283.885 346.367L275.965 353.186Z" fill="#FFBB88"/>
<path d="M293.098 341.637L293.845 344.236L281.349 354.765L275.096 360.019L269.143 363.824L269.121 361.537L270.37 360.747L277.158 356.126L284.872 349.824L286.494 348.095L290.272 344.073L293.098 341.637Z" fill="#FFBB88"/>
<path d="M284.738 356.759L292.078 349.47L288.918 355.582L284.247 359.978L277.476 365.879C277.476 365.879 275.068 367.839 272.666 369.52L271.964 368.642L278.607 363.681L284.738 356.759Z" fill="#FFBB88"/>
<path d="M328.351 314.979L315.036 294.67L299.068 274.348L278.44 265.405L245.824 259.715L227.85 267.032L221.195 279.228L209.224 286.537L190.592 285.727L187.259 299.543L184.6 314.169L202.563 320.675L215.878 329.611L227.187 348.307L247.82 354.806L277.772 353.18L305.054 340.984L326.35 324.731L328.351 314.979Z" fill="#EF711D"/>
<path d="M297.563 275.362L289.085 258.905L278.602 229.041L264.122 207.705H258.136L255.645 218.676L245.663 231.478L228.691 239.4L224.194 246.104L223.19 254.638L227.187 269.883L241.666 264.391L246.159 263.785L270.609 266.222L287.581 271.095L297.563 275.362Z" fill="#FFAC33"/>
<path d="M184.6 314.169L187.259 299.543L187.783 297.385L205.723 300.965L219.702 308.275L250.149 321.077L266.619 322.295L288.082 321.682L304.552 319.253L316.936 331.925L305.054 340.984L277.772 353.18L247.82 354.806L227.187 348.307L215.878 329.611L202.563 320.675L184.6 314.169Z" fill="#ED5920"/>
<path d="M295.617 345.21C292.948 338.738 289.085 329.196 289.085 328.393C289.085 327.168 289.085 314.978 289.085 313.767C289.085 312.549 292.747 293.452 292.747 293.452L298.404 281.262L303.76 280.323L315.035 294.67L328.35 314.978L326.355 324.731L305.059 340.984L295.617 345.21Z" fill="#ED5920"/>
<path d="M300.059 334.484L309.707 330.829L319.36 325.949L327.436 319.368L326.344 324.731L305.048 340.984L295.612 345.203C294.43 342.345 293.02 338.88 291.811 335.845L300.059 334.484Z" fill="#DB4112"/>
<path d="M299.402 292.227L295.071 302.388L291.415 317.83L292.747 332.456L297.072 341.8L302.389 338.956L302.06 333.674L299.067 329.203L296.737 313.352L298.733 299.543L299.402 292.227Z" fill="#FFCA76"/>
<path d="M327.28 320.219L323.691 319.45L319.031 322.295V320.26L324.025 316.197L328.149 315.931L327.28 320.219Z" fill="#DB4112"/>
<path d="M303.387 297.1L309.713 297.916L313.709 301.973L313.046 310.514L309.05 314.979L303.064 313.352L300.4 308.071L301.057 299.543L303.387 297.1Z" fill="#FFCA76"/>
<path d="M305.716 299.543L310.376 300.761L311.713 304.008L310.376 310.106L307.383 311.732L303.387 310.106L302.389 304.416L303.063 299.944L305.716 299.543Z" fill="#682C12"/>
<path d="M306.72 302.789L308.386 304.824C307.054 306.852 305.722 306.852 305.722 306.852L305.059 303.191L306.72 302.789Z" fill="#D3B49F"/>
<path d="M185.174 310.977L190.915 311.732L208.22 316.197L221.195 326.358L228.524 336.111L235.842 340.984L258.471 344.237L279.104 342.617L289.086 336.927L292.959 346.387L277.772 353.18L247.82 354.806L227.187 348.307L215.878 329.611L202.563 320.675L184.6 314.169L185.174 310.977Z" fill="#FFCA76"/>
<path d="M262.979 207.705H264.122L278.602 229.041L289.086 258.905L297.563 275.362L292.731 273.293L289.086 262.158L284.092 250.779L280.096 237.78L276.434 228.837L267.784 216.648L262.979 207.705Z" fill="#FFBB88"/>
<path d="M261.129 212.585L258.515 207.705H260.627L263.459 214.62L269.445 225.182L274.444 233.717L278.106 243.061L287.859 271.21L287.581 271.095L284.588 270.237L280.435 257.687L275.107 240.618L267.784 225.992L261.129 212.585Z" fill="#FFBB88"/>
<path d="M260.794 223.148L256.408 215.321L257.16 212.006L261.463 219.901L265.788 230.464L270.782 240.618C270.782 240.618 273.775 248.744 274.109 249.969C274.449 251.188 277.442 259.722 277.442 259.722L279.861 268.876L276.049 267.78L273.112 254.441L267.126 237.372L260.794 223.148Z" fill="#FFBB88"/>
<path d="M254.586 220.024L258.136 226.401L262.467 235.337L266.452 245.899L269.779 257.279L272.365 266.718L270.61 266.222L269.138 266.072L266.452 255.652L261.792 238.998L257.133 227.619L253.544 221.378L254.586 220.024Z" fill="#FFBB88"/>
<path d="M251.275 224.271L255.472 233.309L259.797 245.498C259.797 245.498 261.786 252.406 262.126 253.631C262.338 254.407 263.631 260.968 264.545 265.616L261.29 265.296L259.133 252.406L254.803 236.97L249.586 226.442L251.275 224.271Z" fill="#FFBB88"/>
<path d="M247.959 228.531L250.807 234.928L254.48 245.899L256.47 256.06L257.93 264.956L254.742 264.643L253.477 253.216L249.48 236.562L246.354 230.586L247.959 228.531Z" fill="#FFBB88"/>
<path d="M241.544 233.397L243.684 232.403L246.158 239.808L249.151 250.371L250.807 259.313L251.637 264.329L248.995 264.064L247.819 256.877L244.498 242.251L241.544 233.397Z" fill="#FFBB88"/>
<path d="M237.28 235.391L239.197 234.493L241.499 240.618L244.821 252.814L246.158 263.785L243.923 264.084L242.491 255.652L239.175 240.216L237.28 235.391Z" fill="#FFBB88"/>
<path d="M239.142 265.35L236.506 254.44L233.513 241.026L232.381 237.678L234.427 236.725L236.84 244.681L239.498 256.06L241.009 264.642L239.142 265.35Z" fill="#FFBB88"/>
<path d="M228.691 239.4L229.433 239.053L232.509 247.533L234.839 258.504L236.868 266.215L234.471 267.113L231.846 256.877L228.524 243.871L227.577 241.067L228.691 239.4Z" fill="#FFBB88"/>
<path d="M224.032 247.492L224.194 246.104L225.152 244.674L228.19 253.216L231.183 263.785L232.247 267.957L229.951 268.835L228.19 260.539L225.52 250.371L224.032 247.492Z" fill="#FFBB88"/>
<path d="M286.093 328.393L286.756 334.076V338.949L277.108 348.3L267.461 355.208L260.137 353.581L257.807 347.483L260.472 337.73C260.472 337.73 264.468 332.041 265.8 331.224C267.121 330.414 270.119 326.759 270.119 326.759C270.119 326.759 279.104 326.351 280.101 326.351C281.093 326.358 286.093 328.393 286.093 328.393Z" fill="#FFAC33"/>
<path d="M266.987 330.23C267.366 329.863 267.75 329.454 268.135 329.039L273.106 329.604H280.77L286.132 328.712L286.444 331.36L283.1 332.449L269.45 331.224L266.987 330.23Z" fill="#FFCA76"/>
<path d="M267.455 338.955L259.892 339.82L260.182 338.765L269.445 334.892L277.772 333.266L283.423 330.829H286.372L286.589 332.742L283.1 332.456L276.774 335.702L267.455 338.955Z" fill="#FFCA76"/>
<path d="M286.756 334.953V337.703L272.115 342.617L264.786 345.053L258.148 346.237L258.733 344.073L260.132 343.835L267.784 342.202L276.774 339.364L278.764 338.39L283.423 336.11L286.756 334.953Z" fill="#FFCA76"/>
<path d="M274.778 345.863L283.673 341.936L279.025 346.428L273.441 348.701L265.454 351.546C265.454 351.546 262.656 352.424 259.925 353.036L259.507 351.927L267.115 349.919L274.778 345.863Z" fill="#FFCA76"/>
<path d="M292.58 281.766L290.579 286.34L289.827 290.607L288.333 287.857L288.834 281.766H292.58Z" fill="#FFCA76"/>
<path d="M289.085 293.955L288.333 300.046L287.837 303.095L285.836 300.965V296.085L289.085 293.955Z" fill="#FFBB88"/>
<path d="M287.084 305.838L286.343 310.412V314.067L284.342 313.155L283.84 309.493L284.838 307.063L287.084 305.838Z" fill="#FFBB88"/>
<path d="M285.089 285.115L285.591 289.688L284.092 292.125L282.843 293.037V287.857L285.089 285.115Z" fill="#FFBB88"/>
<path d="M288.082 274.756L286.834 279.016L286.343 280.847L284.839 278.717L285.34 275.055L288.082 274.756Z" fill="#FFBB88"/>
<path d="M282.347 300.047L282.096 304.008L281.093 307.363L279.599 305.532L280.095 299.747L281.594 297.61L282.347 300.047Z" fill="#FFCA76"/>
<path d="M233.178 347.891L227.437 354.595L214.462 359.781L207.975 360.387L202.49 352.465L198.489 343.93L196.488 339.663L201.487 335.096L209.223 332.653L216.703 328.692L220.699 336.614L226.434 343.93L233.178 347.891Z" fill="#FFAC33"/>
<path d="M206.765 358.652L205.522 356.862L213.71 354.902L223.692 350.634L227.81 344.74L230.257 346.176L226.935 350.634L220.448 355.208L213.214 357.039L206.765 358.652Z" fill="#FFBB88"/>
<path d="M208.22 349.722L217.205 346.367L222.449 343.325L223.937 340.739L225.476 342.699L222.449 346.979L216.703 349.416L208.727 351.859L202.998 353.207L202.491 352.465L202.05 351.553L208.22 349.722Z" fill="#FFBB88"/>
<path d="M217.957 341.188L211.219 344.237L203.979 346.673L200.239 347.667L199.364 345.795L205.233 343.631L213.459 340.582L218.453 336.614L219.807 334.852L220.699 336.614L221.028 337.036L217.957 341.188Z" fill="#FFCA76"/>
<path d="M212.712 335.096L216.837 328.958L218.219 331.687L214.462 336.927L207.724 339.663L198.127 343.154L197.324 341.446L202.491 339.057L212.712 335.096Z" fill="#FFCA76"/>
<path d="M281.093 311.024V315.897L281.344 319.552L279.349 318.334L278.106 314.066L279.103 311.024H281.093Z" fill="#FFBB88"/>
<path d="M278.602 288.164L279.103 291.818L277.103 294.262L276.105 290.607L278.602 288.164Z" fill="#FFCA76"/>
<path d="M281.093 276.886L280.597 281.153L279.349 282.065L277.849 280.241L278.853 276.28L281.093 276.886Z" fill="#FFCA76"/>
<path d="M276.355 302.789V307.969L275.358 310.106L274.605 312.542L273.362 306.451L274.104 302.483L276.355 302.789Z" fill="#FFBB88"/>
<path d="M274.856 317.115L275.358 324.432L273.363 323.52L272.866 318.027L274.856 317.115Z" fill="#FFBB88"/>
<path d="M269.617 308.275L270.119 312.848L268.625 316.503C268.625 316.503 267.622 318.027 267.376 317.115C267.12 316.197 267.12 310.105 267.12 310.105L269.617 308.275Z" fill="#FFCA76"/>
<path d="M271.612 291.213V296.392L270.113 298.522L269.121 297.916L270.113 291.512L271.612 291.213Z" fill="#FFCA76"/>
<path d="M273.1 275.974L272.114 280.847L271.863 284.509L270.113 283.291V277.193L273.1 275.974Z" fill="#FFBB88"/>
<path d="M265.125 282.066L265.877 287.551L263.871 289.688L262.884 284.203L265.125 282.066Z" fill="#FFCA76"/>
<path d="M268.118 269.271L267.115 274.45C267.115 274.45 266.864 277.193 266.123 276.58C265.371 275.968 264.373 273.837 264.373 273.837L265.872 269.57L268.118 269.271Z" fill="#FFCA76"/>
<path d="M262.633 298.222V302.483L262.383 305.226L260.376 306.144L259.635 303.095L260.627 298.222H262.633Z" fill="#FFBB88"/>
<path d="M259.88 314.979V321.682L260.131 325.344L257.634 324.432L257.384 317.721L259.88 314.979Z" fill="#FFBB88"/>
<path d="M258.638 329.91V336.927L257.133 336.315L256.631 331.442L258.638 329.91Z" fill="#FFBB88"/>
<path d="M251.397 324.432L251.643 328.692L250.896 332.354L249.653 332.653L249.151 326.562L251.397 324.432Z" fill="#FFBB88"/>
<path d="M253.142 305.532L252.15 311.024L251.147 313.154L249.653 311.024L250.896 305.226L253.142 305.532Z" fill="#FFCA76"/>
<path d="M255.394 287.252L254.641 292.737L253.895 295.174L252.395 293.955V290.906L253.387 286.639L255.394 287.252Z" fill="#FFBB88"/>
<path d="M257.634 272.619L256.887 276.281L255.895 278.411L254.641 277.193L255.143 272.619H257.634Z" fill="#FFCA76"/>
<path d="M243.155 277.192L242.915 282.977L242.168 284.808L240.914 282.977L240.663 276.886L243.155 277.192Z" fill="#FFBB88"/>
<path d="M241.416 294.867L240.663 299.747L239.911 303.708L237.921 303.096L237.67 299.135L238.924 294.867H241.416Z" fill="#FFCA76"/>
<path d="M323.774 311.024L317.783 301.877L310.794 291.512L303.554 282.678L299.569 283.59L304.551 289.987L311.791 297.304L319.784 309.193L322.024 312.542L323.774 311.024Z" fill="#FFCA76"/>
<path d="M229.689 285.414L229.934 290.301L228.189 292.125L227.939 286.639L229.689 285.414Z" fill="#FFBB88"/>
<path d="M227.187 308.581L226.936 314.672L225.944 318.334L224.194 316.197L224.946 309.493L227.187 308.581Z" fill="#FFCA76"/>
<path d="M216.452 295.473V299.74C215.209 300.346 213.71 298.216 213.71 298.216L214.713 293.336L216.452 295.473Z" fill="#FFCA76"/>
<path d="M290.412 281.555L269.695 274.552L246.237 272.421L231.015 278.213L219.534 287.054L209.797 290.402L203.31 291.321V293.451C203.31 293.451 211.302 294.057 212.043 294.363C212.796 294.663 228.184 292.124 228.184 292.124L246.482 282.474C246.482 282.474 264.952 280.643 265.705 280.643C266.446 280.643 286.912 286.741 286.912 286.741L290.412 281.555Z" fill="#FFCA76"/>
<path d="M176.942 453.13L120.048 434.564L81.7755 396.247L64.4755 336.927L65.8075 266.221L82.4443 199.579L103.072 168.694L124.925 148.31L150.134 147.875L107.737 185.763L87.1037 236.146L81.1234 268.651L81.781 321.478L92.432 366.989L119.051 401.93L169.619 426.315L243.495 432.005L298.07 428.752L348.644 407.619L383.918 369.425L403.888 304.416L401.224 247.526L377.263 193.079L359.289 168.701L336.003 145.949L334.649 144.676L346.492 144.472L374.605 173.574L397.896 206.085C397.896 206.085 410.548 247.526 410.548 249.969C410.548 252.406 414.539 307.669 414.539 307.669L403.225 361.306L369.951 414.943L320.041 448.264L259.474 458.017L176.942 453.13Z" fill="#B8F1F4"/>
<path d="M325.708 144.832L326.02 145.132L353.303 178.453L367.938 211.775L379.258 250.779L383.912 288.973L380.59 328.794L366.283 377.354L334.665 400.31L330.68 392.993L343.989 367.798L354.635 314.162L348.638 254.842L317.365 183.326L288.745 147.568L286.538 145.513L325.708 144.832Z" fill="#E9FDFF"/>
<path d="M327.659 185.763L343.538 211.775L349.301 232.9L341.37 241.026L325.497 238.59L306.001 210.141L298.064 194.706L306.001 185.763H327.659Z" fill="#E9FDFF"/>
<path d="M107.731 148.385L109.726 157.321L144.99 168.701L242.168 173.574L331.344 164.638L355.973 151.632L359.958 141.069L349.307 128.873L312.043 127.253L235.502 124L171.619 128.063L113.054 138.626L107.731 148.385Z" fill="#83CED6"/>
<path d="M346.648 133.753L352.634 143.506L341.326 153.258L274.104 164.638L187.593 163.821L130.354 158.131L115.718 150.822L116.381 142.696L145.658 137.006L200.897 129.69L244.158 128.873L311.379 132.126L346.648 133.753Z" fill="#CAF8FF"/>
<path d="M337.664 289.382L338.333 296.698L335.005 301.162L330.34 299.127L327.687 293.445L329.014 287.755L335.005 288.157L337.664 289.382Z" fill="#E9FFFF"/>
<path d="M324.026 273.531L326.684 280.847L324.026 283.284H320.698L318.368 280.03L317.7 275.974L319.032 273.129L324.026 273.531Z" fill="#E9FFFF"/>
<path d="M335.668 262.158L341.654 267.44V274.749L338.332 279.221H332.006L328.345 275.566L327.347 267.841L330.68 262.56L335.668 262.158Z" fill="#E9FFFF"/>
<path d="M319.031 239.808L322.359 243.871L320.363 249.969L316.367 250.779C316.367 250.779 313.369 248.343 313.04 247.124C312.7 245.899 311.702 242.252 311.702 242.252L315.035 237.372L319.031 239.808Z" fill="#E9FFFF"/>
<path d="M311.379 132.126L346.648 133.753L352.634 143.505L341.325 153.258L318.357 157.144L313.207 143.097L304.217 131.786L311.379 132.126Z" fill="#B8F1F4"/>
<path d="M145.658 137.006L156.398 135.584L147.994 150.414L145.954 159.683L130.354 158.131L115.718 150.822L116.381 142.696L145.658 137.006Z" fill="#B8F1F4"/>
<path d="M205.205 163.991L205.896 157.117L210.216 129.52L244.158 128.873L259.385 129.615L263.793 149.801L265.722 164.556L205.205 163.991Z" fill="#E9FDFF"/>
<path d="M121.542 455.165L146.494 463.08L200.902 473.446L280.262 474.051L319.695 467.953L357.132 450.891L384.587 424.682C384.587 424.682 406.546 394.818 407.048 392.987C407.315 392.007 413 383.357 418.245 375.244C416.534 384.241 415.369 390.353 415.369 390.353L365.453 455.362L306.887 478.121L190.418 482.994L123.203 464.305C123.203 464.305 72.6234 406.605 71.9601 404.169C71.91 403.985 71.7205 403.325 71.4307 402.345L121.542 455.165Z" fill="#B8F1F4"/>
<path d="M182.933 487.466L244.821 489.296L292.742 486.247L325.686 477.713L333.11 474.691L332.168 478.931L318.19 489.296L263.793 496L197.904 495.388L148.991 488.078L142.002 479.544L141.991 479.489L182.933 487.466Z" fill="#B8F1F4"/>
</svg>
