<svg width="480" height="620" viewBox="0 0 480 620" fill="none" xmlns="http://www.w3.org/2000/svg">
<rect width="480" height="620" fill="#FFF9F9" fill-opacity="0.82"/>
<path d="M322.667 272.558L345.764 289.792L354.69 301.47L356.793 305.161L366.242 312.549L369.391 316.233L374.115 321.156C374.115 321.156 391.437 340.228 391.96 342.067C392.489 343.919 390.908 345.138 390.908 345.138C390.908 345.138 397.736 352.526 399.317 354.364C400.885 356.217 411.908 372.817 411.908 372.817L425.029 394.355L432.902 417.731L435 446.637L432.902 453.398C432.902 453.398 420.828 451.553 419.253 450.327C417.672 449.102 395.626 444.791 395.626 444.791L378.311 428.803C378.311 428.803 357.31 402.349 356.787 400.511C356.259 398.652 347.862 389.432 347.339 387.594C346.81 385.741 341.563 382.058 341.563 379.6C341.563 377.135 340.511 357.449 340.511 357.449L335.787 337.77C335.787 337.77 328.437 323.001 328.437 320.543C328.443 318.085 322.667 272.558 322.667 272.558Z" fill="#D8650F"/>
<path d="M397.73 436.782L394.58 431.253L405.08 428.795L411.379 415.265L419.782 415.871L427.126 420.188L431.512 413.58L432.902 417.73L435 446.635L432.902 453.397C432.902 453.397 420.827 451.551 419.253 450.326C417.672 449.1 395.626 444.79 395.626 444.79L391.14 440.647L397.73 436.782Z" fill="#D6C9C3"/>
<path d="M327.42 311.023L337.896 314.999L346.816 353.131L358.362 375.282L376.735 401.116L392.482 420.189L405.074 428.796L417.155 437.402L434.471 439.429L435 446.629L432.902 453.39C432.902 453.39 420.827 451.545 419.253 450.32C417.672 449.094 395.626 444.784 395.626 444.784L378.31 428.796C378.31 428.796 357.31 402.341 356.787 400.503C356.258 398.644 347.862 389.424 347.339 387.586C346.81 385.734 341.563 382.05 341.563 379.592C341.563 377.127 340.511 357.441 340.511 357.441L335.787 337.763C335.787 337.763 328.436 322.993 328.436 320.535C328.442 319.874 328.026 316.134 327.42 311.023Z" fill="#D6C9C3"/>
<path d="M107.46 168.301C107.068 166.915 99.5863 150.774 99.5863 150.774L93.6855 148.462L92.5029 153.545L92.1167 162.319L91.7246 174.303L107.46 168.301Z" fill="#66524A"/>
<path d="M253.379 346.982L252.327 373.436L258.632 392.495L268.609 405.426L277.523 414.033L279.097 420.794L277.523 433.092L270.707 450.319L268.609 452.777L262.833 454.629L257.58 462.011L258.632 466.927H272.276L281.207 466.314L282.253 457.7L284.873 454.01L285.402 447.861L291.172 434.944L299.563 417.097L297.477 408.497L288.552 402.961L282.77 379.591L277.523 335.297L253.379 346.982Z" fill="#D8650F"/>
<path d="M268.609 452.778L270.706 450.32L277.522 433.093L279.097 420.795L278.087 416.429L281.723 414.639L286.453 418.337L293.798 416.492L299.093 415.162L299.562 417.098L291.172 434.945L285.402 447.862L284.873 454.011L282.252 457.701L281.206 466.315L272.275 466.928H258.632L257.58 462.012L262.833 454.63L268.609 452.778Z" fill="#44352E"/>
<path d="M133.178 342.06L135.805 380.198L137.902 408.497L138.425 423.873L134.753 439.868L127.931 442.939L123.207 449.707L123.73 455.856L137.373 455.243L144.207 447.242L150.5 418.957V348.215L133.178 342.06Z" fill="#D8650F"/>
<path d="M123.207 449.707L127.931 442.939L134.753 439.868L138.425 423.873L137.902 408.498L135.805 380.199L135.068 369.552L143.678 366.669L150.5 372.267V418.957L144.207 447.242L137.373 455.243L123.73 455.856L123.207 449.707Z" fill="#66524A"/>
<path d="M45 216.585L48.1494 227.664L56.5459 235.045L73.3388 233.193H86.4654L96.4367 242.426L107.46 283.009L115.327 317.457L125.827 337.756L137.902 354.976L144.724 360.512L146.827 406.645L147.879 436.177L148.931 444.164L145.259 458.321L138.431 460.159L133.707 470.611L136.333 473.076L156.805 470.611L162.052 447.235L162.973 433.085L164.149 419.256L167.822 406.638L173.069 358.667L179.89 352.504L195.643 356.808L223.982 356.202L260.201 350.046L270.178 367.267L275.954 385.114L289.603 399.264L313.224 413.4L319.523 420.175L315.844 458.313L309.546 460.765L303.77 466.308L302.195 477.372L307.442 477.992H320.563L328.965 469.385L332.638 465.695L333.689 442.326L341.563 409.73L328.965 391.27L327.385 374.662L334.735 345.144L341.04 316.845C341.04 316.845 337.362 294.701 336.839 292.856C336.31 291.01 323.189 269.493 323.189 269.493L294.839 255.35L245.499 250.427L203.511 245.497L193.005 238.736L177.258 236.884L168.861 232.587L155.212 208.591L134.218 177.228L115.838 165.543L96.9417 167.388L76.4764 185.222L71.7582 195.681L63.8787 203.675L45 216.585Z" fill="#D8650F"/>
<path d="M138.425 460.166L145.259 458.328L148.931 444.171L147.879 436.184L146.827 406.645L145.015 366.828L152.08 364.823L154.178 359.287L166.253 354.364L172.635 362.685L167.828 406.645L164.149 419.263L162.973 433.093L162.052 447.242L156.805 470.618L136.333 473.083L133.701 470.618L138.425 460.166Z" fill="#44352E"/>
<path d="M289.604 399.278L286.454 396.013L291.172 396.194L315.322 401.117L325.816 398.659L328.841 389.955L328.971 391.271L341.569 409.738L333.696 442.326L332.644 465.703L328.971 469.393L320.569 478H307.448L302.201 477.38L303.77 466.322L309.546 460.779L315.845 458.328L319.523 420.19L313.218 413.414L289.604 399.278Z" fill="#44352E"/>
<path d="M171.506 347.595L174.121 342.06L199.839 345.13H230.288L253.379 343.292L261.782 342.679L260.201 350.06L223.989 356.216L195.65 356.822L179.897 352.518L174.828 357.079L171.506 347.595Z" fill="#D6C9C3"/>
<path d="M59.1664 220.889L71.2352 214.127L80.6893 209.204L94.8558 211.655L112.712 220.276L124.258 224.572L126.879 231.953L123.73 248.575L121.109 280.551L123.73 303.314L135.804 332.213L141.057 348.215L141.794 358.131L137.902 354.976L125.827 337.763L115.327 317.464L107.459 283.009L96.4365 242.426L86.4653 233.193H73.3386L56.5457 235.045L48.1493 227.664L47.0797 223.918L59.1664 220.889Z" fill="#D6C9C3"/>
<path d="M154.178 464.462L157.856 444.17L158.373 420.794L162.574 402.341V350.673L160.471 336.53L169.925 329.142L205.092 337.762L241.839 335.297L268.08 323.613L274.896 327.296L271.23 341.446L285.402 375.894L306.396 398.045L323.718 418.956L320.046 446.635L316.641 449.992L319.523 420.188L313.218 413.413L289.603 399.277L275.954 385.121L270.178 367.28L260.201 350.06L223.988 356.215L195.649 356.821L179.896 352.518L173.069 358.681L167.827 406.645L164.149 419.262L162.973 433.092L162.052 447.241L156.805 470.617L152.924 471.084L154.178 464.462Z" fill="#D6C9C3"/>
<path d="M109.563 171.677L100.109 169.839C100.109 169.839 99.1227 168.76 97.8867 167.29L115.85 165.536L134.23 177.22L155.224 208.584L168.874 232.58L177.27 236.876L193.017 238.728L203.523 245.49L245.511 250.42L294.851 255.343L315.934 265.851L303.776 264.563L258.632 256.569L217.167 254.104L198.264 257.175L178.316 254.104L165.724 247.335L157.322 230.115C157.322 230.115 137.902 198.744 137.379 196.899C136.856 195.054 124.782 177.833 124.782 177.833L109.563 171.677Z" fill="#FF7E27"/>
<path d="M83.4464 193.619L74.9845 198.828L69.47 202.511L72.8156 198.173L80.1008 192.749L83.4464 193.619Z" fill="#66524A"/>
<path d="M115.333 142L121.246 145.231L131.08 174.763L129.107 180.299L116.908 189.532L114.549 183.523L110.217 177.98L106.283 177.534L106.669 164.61L115.333 142Z" fill="#FF7E27"/>
<path d="M117.3 148.002L114.436 144.34L115.334 142L121.246 145.231L131.081 174.763L129.108 180.299L116.908 189.532L115.643 186.287L117.3 175.215V159.527V148.002Z" fill="#D8650F"/>
<path d="M109.432 168.301L109.824 160.46L114.548 150.767L114.947 157.689L114.548 170.599L113.271 181.886L110.217 177.98L108.868 177.834L108.642 177.068L109.432 168.301Z" fill="#D6C9C3"/>
<path d="M115.334 142L121.246 145.231L127.087 162.779L121.626 159.993L117.3 161.894V159.527V148.002L114.436 144.34L115.334 142Z" fill="#44352E"/>
<path d="M51.8577 230.922L56.2847 230.344L63.368 228.965L74.3909 225.275L84.6236 226.431V227.81L79.1151 227.35L73.9988 227.106L65.7389 229.648L58.6438 231.73L53.8662 232.691L51.8577 230.922Z" fill="#66524A"/>
<path d="M48.803 220.889L47.1867 224.281L45 216.586L47.2106 215.075L50.3778 215.813V218.584L47.8166 219.044V220.889H48.803Z" fill="#66524A"/>
<path d="M78.9248 190.207L79.3171 191.836L78.9248 194.141L77.7365 195.743L82.0684 195.061L86.0081 194.817L83.043 192.059L78.9248 190.207Z" fill="#44352E"/>
</svg>
