<svg width="480" height="620" viewBox="0 0 480 620" fill="none" xmlns="http://www.w3.org/2000/svg">
<rect width="480" height="620" fill="#FFF9F9" fill-opacity="0.82"/>
<path d="M218.357 115.445L381.894 88.6863V485.985L216.308 543.412L218.357 115.445Z" fill="#D1D1D1"/>
<path d="M216.308 543.914C216.2 543.914 216.091 543.885 215.998 543.823C215.853 543.728 215.765 543.575 215.765 543.407L217.813 115.435C217.813 115.191 218.005 114.986 218.263 114.943L381.801 88.1845C381.961 88.1558 382.122 88.1988 382.246 88.2944C382.37 88.39 382.437 88.5286 382.437 88.6768V485.976C382.437 486.186 382.297 486.372 382.085 486.444L216.499 543.876C216.437 543.904 216.37 543.914 216.308 543.914ZM218.9 115.865L216.857 542.69L381.351 485.636V89.2839L218.9 115.865Z" fill="#656565"/>
<path d="M218.237 114.604L85.5432 95.6366V267.248V267.377V499.259L216.194 543.58L218.237 114.604Z" fill="#9A9A9A"/>
<path d="M216.194 544.081C216.132 544.081 216.065 544.072 216.008 544.048L85.3569 499.728C85.1448 499.656 85 499.465 85 499.255V95.6318C85 95.4836 85.0723 95.345 85.1913 95.2494C85.3103 95.1538 85.4707 95.1108 85.6259 95.1347L218.32 114.102C218.584 114.14 218.78 114.35 218.78 114.599L216.737 543.575C216.737 543.737 216.649 543.89 216.505 543.986C216.411 544.053 216.303 544.081 216.194 544.081ZM86.0862 498.91L215.651 542.863L217.689 115.034L86.0862 96.2245V498.91Z" fill="#656565"/>
<path d="M211.591 113.657V542.021L216.194 543.58L218.237 114.604L211.591 113.657Z" fill="#747373"/>
<path d="M218.237 114.604L85.5432 95.6366V267.248V267.377V499.259L92.1381 104.159L218.237 114.604Z" fill="#9A9A9A"/>
<path d="M278.802 71.5024L382.132 88.7151L218.91 115.402L85.5432 95.6366L278.802 71.5024Z" fill="#D1D1D1"/>
<path d="M218.91 115.904C218.884 115.904 218.853 115.904 218.822 115.899L85.4603 96.1337C85.1965 96.0954 85 95.8803 85 95.6318C85.0052 95.3832 85.2069 95.1729 85.4707 95.1394L278.729 71.0052C278.786 70.9957 278.843 71.0004 278.9 71.01L382.235 88.2227C382.494 88.2658 382.685 88.4761 382.68 88.7199C382.68 88.9637 382.489 89.1692 382.23 89.2122L219.003 115.899C218.972 115.904 218.941 115.904 218.91 115.904ZM89.2621 95.6796L218.905 114.89L379.044 88.7055L278.786 72.009L89.2621 95.6796Z" fill="#656565"/>
<path d="M382.132 88.7152L218.356 115.445L216.194 543.58L228.872 548.498L230.749 542.657L387.268 100.689L394.416 90.0727L382.132 88.7152Z" fill="#9A9A9A"/>
<path d="M228.872 549C228.799 549 228.727 548.986 228.66 548.962L215.977 544.043C215.775 543.967 215.641 543.78 215.646 543.579L217.813 115.44C217.813 115.196 218.004 114.991 218.263 114.948L382.039 88.218C382.09 88.2084 382.147 88.2084 382.199 88.2132L394.484 89.5708C394.67 89.5899 394.83 89.6998 394.908 89.8528C394.99 90.0057 394.975 90.1874 394.882 90.3355L387.728 100.952L231.272 542.81L229.399 548.642C229.353 548.78 229.25 548.89 229.11 548.952C229.032 548.986 228.955 549 228.872 549ZM216.737 543.245L228.525 547.815L230.232 542.509L386.751 100.531L393.506 90.4742L382.152 89.217L218.9 115.861L216.737 543.245Z" fill="#656565"/>
<path d="M230.874 116.831L394.416 90.0726V492.089L228.831 548.326L230.874 116.831Z" fill="#D1D1D1"/>
<path d="M228.83 548.828C228.722 548.828 228.613 548.795 228.52 548.737C228.375 548.642 228.287 548.489 228.287 548.326L230.336 116.836C230.336 116.592 230.527 116.387 230.786 116.343L394.328 89.5851C394.488 89.5564 394.649 89.5995 394.773 89.6951C394.897 89.7907 394.965 89.9293 394.965 90.0774V492.094C394.965 492.305 394.825 492.491 394.607 492.567L229.022 548.804C228.954 548.814 228.892 548.828 228.83 548.828ZM231.417 117.252L229.379 547.604L393.873 491.74V90.6749L231.417 117.252Z" fill="#656565"/>
<path d="M218.356 115.445L230.873 116.831L394.416 90.0727L382.131 88.7152L218.356 115.445Z" fill="#D1D1D1"/>
<path d="M230.879 117.333C230.858 117.333 230.837 117.333 230.812 117.328L218.294 115.937C218.025 115.909 217.823 115.703 217.818 115.454C217.813 115.206 217.999 114.991 218.268 114.948L382.044 88.218C382.095 88.2084 382.152 88.2084 382.204 88.2132L394.489 89.5708C394.758 89.5994 394.96 89.805 394.965 90.0535C394.975 90.3021 394.783 90.522 394.515 90.5602L230.972 117.319C230.941 117.333 230.91 117.333 230.879 117.333ZM222.06 115.349L230.858 116.324L390.713 90.1683L382.147 89.2218L222.06 115.349Z" fill="#656565"/>
<path d="M229.622 431.603C229.69 431.603 229.757 431.594 229.824 431.575L394.541 382.628C394.887 382.522 395.079 382.183 394.97 381.858C394.856 381.538 394.489 381.361 394.137 381.466L229.607 430.356L217.213 427.277C216.851 427.191 216.5 427.383 216.401 427.708C216.308 428.033 216.515 428.367 216.867 428.453L229.452 431.579C229.508 431.594 229.565 431.603 229.622 431.603Z" fill="#656565"/>
<path d="M231.5 545.2L231.877 433.075L392.275 385.519L236.01 435.504L231.5 545.2Z" fill="white"/>
<path d="M233.377 231.91L233.754 119.78L390.775 91.6645L237.887 122.213L233.377 231.91Z" fill="white"/>
<path d="M258.463 158.541C258.308 158.541 258.148 158.537 257.987 158.517L243.711 157.131C241.234 156.887 239.439 154.837 239.697 152.552C239.961 150.262 242.175 148.604 244.653 148.843L258.928 150.234C261.401 150.473 263.201 152.523 262.937 154.813C262.699 156.95 260.744 158.541 258.463 158.541Z" fill="#747373"/>
<path d="M258.463 159.043C258.287 159.043 258.106 159.034 257.925 159.019L243.654 157.633C240.887 157.361 238.87 155.061 239.159 152.499C239.454 149.942 241.937 148.078 244.714 148.346L258.99 149.737C261.758 150.004 263.775 152.308 263.485 154.865C263.211 157.246 261.054 159.043 258.463 159.043ZM244.187 149.321C242.185 149.321 240.457 150.721 240.24 152.6C240.013 154.607 241.595 156.414 243.768 156.624L258.044 158.011C260.294 158.254 262.171 156.749 262.399 154.751C262.627 152.743 261.044 150.936 258.871 150.726L244.595 149.335C244.461 149.325 244.326 149.321 244.187 149.321Z" fill="#656565"/>
<path d="M258.463 280.503C258.308 280.503 258.148 280.494 257.987 280.479L243.711 279.093C241.234 278.854 239.439 276.803 239.697 274.514C239.961 272.224 242.175 270.565 244.653 270.809L258.928 272.195C261.401 272.434 263.201 274.49 262.937 276.775C262.699 278.911 260.744 280.503 258.463 280.503Z" fill="#747373"/>
<path d="M258.463 281.005C258.288 281.005 258.106 280.995 257.925 280.976L243.66 279.59C240.893 279.322 238.875 277.023 239.165 274.461C239.46 271.899 241.948 270.035 244.72 270.307L258.996 271.693C261.763 271.961 263.781 274.265 263.491 276.827C263.212 279.208 261.055 281.005 258.463 281.005ZM244.182 271.282C242.181 271.282 240.458 272.683 240.241 274.561C240.013 276.574 241.596 278.376 243.768 278.586L258.044 279.972C258.189 279.987 258.329 279.996 258.463 279.996C260.496 279.996 262.188 278.586 262.4 276.717C262.627 274.71 261.044 272.903 258.872 272.692L244.596 271.306C244.461 271.292 244.322 271.282 244.182 271.282Z" fill="#656565"/>
<path d="M258.836 284.666C256.348 284.666 254.331 282.969 254.331 280.881V148.436C254.331 146.348 256.348 144.651 258.836 144.651C261.324 144.651 263.341 146.348 263.341 148.436V280.881C263.346 282.969 261.329 284.666 258.836 284.666Z" fill="#9A9A9A"/>
<path d="M258.836 285.168C256.053 285.168 253.788 283.247 253.788 280.881V148.436C253.788 146.07 256.053 144.149 258.836 144.149C261.618 144.149 263.884 146.07 263.884 148.436V280.881C263.889 283.247 261.624 285.168 258.836 285.168ZM258.836 145.157C256.648 145.157 254.874 146.63 254.874 148.441V280.885C254.874 282.697 256.653 284.169 258.836 284.169C261.018 284.169 262.798 282.697 262.798 280.885V148.436C262.803 146.63 261.024 145.157 258.836 145.157Z" fill="#656565"/>
<path d="M241.648 443.85C241.927 443.85 242.212 443.807 242.491 443.721L385.23 399.286C386.617 398.856 387.356 397.469 386.896 396.188C386.43 394.912 384.925 394.219 383.544 394.654L240.805 439.089C239.419 439.519 238.679 440.905 239.145 442.181C239.512 443.204 240.541 443.85 241.648 443.85Z" fill="#D1D1D1"/>
<path d="M241.648 444.352C240.277 444.352 239.062 443.544 238.627 442.344C238.358 441.598 238.415 440.8 238.793 440.093C239.17 439.385 239.827 438.859 240.634 438.611L383.373 394.176C384.175 393.923 385.039 393.975 385.804 394.324C386.57 394.673 387.144 395.275 387.413 396.026C387.971 397.565 387.071 399.238 385.406 399.759L242.667 444.194C242.331 444.299 241.989 444.352 241.648 444.352ZM384.392 395.027C384.165 395.027 383.942 395.06 383.72 395.132L240.981 439.567C240.448 439.734 240.019 440.078 239.77 440.542C239.522 441.006 239.481 441.531 239.662 442.024C240.024 443.013 241.245 443.577 242.326 443.243L385.065 398.808C386.161 398.464 386.756 397.359 386.384 396.346C386.208 395.854 385.83 395.457 385.323 395.228C385.023 395.099 384.708 395.027 384.392 395.027Z" fill="#656565"/>
<path d="M383.585 394.969C383.549 394.869 383.497 394.778 383.445 394.683L383.538 394.654C384.919 394.219 386.425 394.912 386.89 396.188C387.356 397.469 386.611 398.851 385.225 399.286L242.486 443.721C242.206 443.807 241.922 443.85 241.642 443.85C240.649 443.85 239.739 443.31 239.294 442.463L381.925 398.067C383.306 397.637 384.051 396.246 383.585 394.969Z" fill="#D1D1D1"/>
<path d="M241.648 444.351C240.443 444.351 239.357 443.711 238.814 442.683C238.746 442.554 238.741 442.401 238.798 442.267C238.86 442.134 238.979 442.033 239.124 441.985L381.749 397.589C382.282 397.421 382.711 397.077 382.96 396.614C383.208 396.15 383.249 395.619 383.068 395.132V395.122C383.047 395.065 383.022 395.017 382.991 394.969C382.918 394.84 382.897 394.659 382.96 394.525C383.022 394.391 383.125 394.257 383.275 394.214C384.17 393.932 385.034 393.985 385.794 394.334C386.56 394.683 387.134 395.285 387.403 396.035C387.961 397.574 387.061 399.247 385.396 399.768L242.657 444.203C242.331 444.299 241.989 444.351 241.648 444.351ZM240.143 442.731C240.681 443.271 241.545 443.486 242.315 443.247L385.055 398.812C386.151 398.468 386.746 397.364 386.374 396.351C386.198 395.858 385.82 395.462 385.313 395.232C384.951 395.065 384.558 395.003 384.17 395.041C384.356 395.72 384.274 396.427 383.932 397.063C383.555 397.77 382.903 398.296 382.096 398.545L240.143 442.731Z" fill="#656565"/>
<path d="M240.799 439.089L383.445 394.683C383.497 394.778 383.549 394.864 383.585 394.97C384.051 396.246 383.306 397.637 381.925 398.067L239.294 442.464C239.243 442.368 239.175 442.287 239.134 442.186C238.674 440.905 239.418 439.519 240.799 439.089Z" fill="#838383"/>
<path d="M239.3 442.965C239.098 442.965 238.906 442.86 238.813 442.683C238.731 442.55 238.668 442.459 238.627 442.344C238.358 441.598 238.415 440.8 238.793 440.093C239.17 439.385 239.827 438.859 240.634 438.611L383.28 394.205C383.539 394.128 383.818 394.233 383.942 394.458C384.025 394.606 384.071 394.702 384.113 394.812C384.382 395.548 384.325 396.351 383.942 397.054C383.564 397.761 382.913 398.287 382.106 398.535L239.481 442.932C239.414 442.956 239.356 442.965 239.3 442.965ZM383.13 395.314L240.976 439.567C240.443 439.734 240.013 440.078 239.765 440.542C239.548 440.948 239.491 441.402 239.599 441.837L381.754 397.589C382.287 397.422 382.716 397.077 382.965 396.614C383.182 396.207 383.239 395.749 383.13 395.314Z" fill="#656565"/>
</svg>
