<svg width="480" height="620" viewBox="0 0 480 620" fill="none" xmlns="http://www.w3.org/2000/svg">
<rect width="480" height="620" fill="#FFF9F9" fill-opacity="0.82"/>
<path d="M290.859 352.937L288.638 374.477L286.052 394.554L276.067 414.908L273.469 432.326L272.734 441.77L273.469 448.558L274.208 452.973L270.516 458.598L267.923 464.493L266.444 483.973V518.796L265.709 522.629L270.516 528.24L273.845 535.908L275.695 545.358L273.469 547.128H261.641L250.916 530.889L247.588 509.046L252.758 433.499L258.313 354.71L290.859 352.937Z" fill="#B95C31"/>
<path d="M274.282 538.129L275.695 545.358L273.47 547.128H261.642L257.105 540.269L274.282 538.129Z" fill="#FFA62E"/>
<path d="M313.788 86.0002L302.688 96.1854L296.588 112.121L279.945 150.634L268.299 183.39L253.866 216.15L243.884 228.988L234.448 235.183L227.233 243.151L239.441 241.378L257.194 230.754C257.194 230.754 277.162 195.787 277.162 193.128C277.162 190.475 307.684 110.793 307.684 110.793L313.788 86.0002Z" fill="#7A4B21"/>
<path d="M92.2404 327.258L88.1685 335.819L83.7291 352.051L82.9899 380.382L85.9589 403.995L88.9118 427.301L87.805 442.353L85.9589 447.961L88.1685 450.321L92.9796 434.395L92.608 417.567L89.651 396.314L87.4293 378.613L91.1295 354.41L92.2404 327.258Z" fill="#FFA62E"/>
<path d="M82.9897 444.422L88.9117 443.243L91.497 447.671L89.2752 458.001L85.575 469.505L80.768 482.204L80.4044 498.133L82.6181 506.103L76.7083 499.909L73 480.131L74.8501 466.256L79.6652 451.5L82.9897 444.422Z" fill="#B95C31"/>
<path d="M169.537 403.105L164.37 432.03L153.641 455.633L148.458 468.622L151.044 478.659L162.892 518.796L166.955 534.435L171.023 538.561L176.202 547.714L172.13 550.08H159.187L152.898 548.601V542.106L149.941 537.684L147.719 535.022L150.68 527.95L148.826 514.368L138.101 490.172L128.119 472.754L120.715 452.39L135.887 400.456L169.537 403.105Z" fill="#B95C31"/>
<path d="M347.821 79.064L347.45 68.7371V63.4221L350.778 61.3593L349.3 59.2933L335.61 59L335.246 61.3593L338.203 62.539L337.46 77.8876L347.821 79.064Z" fill="#E17B29"/>
<path d="M407 110.789L404.221 117.432L402.556 121.858L397.568 121.413L377.039 119.199L367.053 120.085H352.071L345.413 118.315L334.87 126.283L326.549 159.484L323.22 197.556L311.57 230.754L298.805 267.057L298.256 302.914L302.142 325.047L296.038 349.392L282.72 363.112L276.62 387.463L267.745 407.827L262.753 426.418L261.642 445.016L265.52 452.097V457.408L258.863 462.275L257.198 476.448L254.427 527.802L261.642 537.971L267.192 547.276L268.303 553.474L257.198 555.679L242.769 553.916L237.231 552.143V548.601L240.002 541.078L233.894 538.416L230.012 533.101L235.009 521.159L238.887 486.181L240.559 463.603L236.116 458.736L238.338 446.782L232.791 410.48L226.13 394.554L211.152 403.405L173.431 410.48L160.662 407.389L144.58 405.619L137.915 435.275L130.705 459.181L126.269 464.048L124.605 473.35L119.051 484.409L121.268 508.756L125.158 535.321L127.376 541.078L133.476 548.601L136.808 558.338L125.158 559.669L110.725 560.997L107.401 556.568L110.184 546.831L104.634 543.734V531.776L105.187 514.068L102.969 490.172L97.9724 472.454L104.068 458.736L103.519 424.197L91.8686 390.561L87.4292 353.823L90.7618 327.258L111.844 314.424L132.369 309.554L159.001 298.489L192.845 280.777L205.605 274.583L214.48 260.858L221.695 242.706L242.769 235.183L254.985 225.888L274.956 183.39L292.152 136.023L303.802 106.809L313.788 86.0002L324.885 79.8054L325.628 76.1116L319.338 66.3778L316.377 66.6711L313.788 64.0152L320.445 59.2933L328.956 59.5898L329.324 61.6527L327.478 64.0152L331.909 70.5066L335.985 75.525L345.971 77.8876L354.842 77.5911L359.657 80.5434L365.571 87.9212L374.813 90.8704L388.131 96.7719L401.821 105.033L407 110.789Z" fill="#FFA62E"/>
<path d="M323.774 87.0348L318.228 85.2621L308.246 79.6538L300.478 76.9979L297.521 78.4741L299.363 86.7382L311.203 94.116L322.3 92.3433L323.774 87.0348Z" fill="#FFA62E"/>
<path d="M353.735 89.6907H347.074L343.745 88.2145L347.074 85.5586L354.842 87.0348L353.735 89.6907Z" fill="#EFB484"/>
<path d="M354.474 90.7189L349.117 94.1161L343.01 93.378V90.4289L342.456 88.9527L347.263 87.7698L352.438 88.5079L354.474 90.7189Z" fill="#7A4B21"/>
<path d="M401.724 111.273L399.656 106.644L394.679 104.662L391.367 105.652L401.724 111.273Z" fill="#EFB484"/>
<path d="M399.377 111.824L398.274 107.415L393.847 106.751L390.539 108.959L399.377 111.824Z" fill="#7A4B21"/>
<path d="M274.956 360.905L279.391 342.31V322.385L272.734 305.125L269.963 282.109L286.606 255.988L297.149 222.345L314.899 163.023L329.324 124.513L330.435 114.773L332.095 112.562L344.856 115.66L359.285 117.874L372.603 116.987L376.906 119.215L367.053 120.085H352.071L345.413 118.315L334.87 126.283L326.549 159.484L323.22 197.556L311.57 230.754L298.805 267.057L298.256 302.914L302.142 325.047L296.038 349.392L282.72 363.112L276.62 387.463L275.505 372.414L274.956 360.905Z" fill="#E17B29"/>
<path d="M91.8686 390.561L87.4292 353.823L89.3399 338.588L94.6438 352.051L101.858 373.739L114.062 386.577L128.483 388.791L137.366 386.577C137.366 386.577 135.702 379.94 135.144 378.168C134.591 376.398 130.155 361.346 130.155 361.346L130.709 356.473L132.926 357.362L137.915 370.645L142.355 384.363L149.016 388.794L170.647 385.697C170.647 385.697 191.18 379.94 192.291 378.616C193.402 377.281 215.03 361.788 215.03 361.788L226.684 344.525L230.012 347.622L226.684 361.785L230.012 379.937L241.113 417.123L244.991 437.928L244.437 451.204V459.623L243.335 494.146L240.002 522.484L234.448 531.338L240.555 537.532L237.485 539.982L233.89 538.416L230.008 533.104L235.001 521.162L238.883 486.185L240.555 463.607L236.112 458.74L238.334 446.785L232.783 410.483L226.122 394.557L211.144 403.411L173.423 410.486L160.654 407.395L144.572 405.626L137.907 435.282L130.697 459.188L126.257 464.055L124.597 473.357L119.043 484.418L121.26 508.763L125.15 535.328L127.368 541.084L133.468 548.607L136.8 558.344L125.15 559.675L110.717 561L107.393 556.572L110.18 546.834L104.629 543.737V531.779L105.183 514.071L102.965 490.175L97.9724 472.457L104.068 458.74L103.519 424.201L91.8686 390.561Z" fill="#E17B29"/>
<path d="M335.61 59L349.3 59.2933L350.778 61.3593L347.45 63.4221V64.5825L338.146 63.7219L338.203 62.539L335.246 61.3593L335.61 59Z" fill="#7A4B21"/>
<path d="M323.774 64.5309L319.807 67.0965L319.338 66.3778L316.377 66.6711L313.788 64.0152L320.445 59.2933L328.956 59.5898L329.324 61.6527L327.478 64.0152L327.656 64.2731L323.774 64.5309Z" fill="#7A4B21"/>
<path d="M301.217 84.379V80.8368L308.245 86.1485L316.745 89.0977L323.131 89.3555L322.299 92.3434L317.415 93.1266L313.788 92.3434L307.87 89.6907L301.217 84.379Z" fill="#E17B29"/>
<path d="M125.158 535.321L127.376 541.078L133.475 548.601L136.808 558.338L125.158 559.669L110.725 560.997L107.4 556.568L110.184 546.831L104.633 543.734V531.776L105.187 514.068L102.969 490.172L102.654 489.066L112.587 481.904L118.493 471.871L126.633 446.488L137.733 405.168L141.429 391.595L159.187 393.365L175.458 388.056L214.666 378.023L218.358 385.694L223.654 396.011L211.151 403.405L173.43 410.48L160.661 407.389L144.58 405.619L137.915 435.275L130.704 459.181L126.269 464.048L124.605 473.35L119.05 484.409L121.268 508.756L125.158 535.321Z" fill="#EFB484"/>
<path d="M237.231 552.143V548.601L240.002 541.078L233.894 538.415L230.012 533.1L235.009 521.159L238.887 486.181L240.559 463.603L236.116 458.736L236.479 456.812L244.256 456.529L265.52 453.525V457.408L258.862 462.275L257.198 476.447L254.427 527.802L261.642 537.971L267.192 547.276L268.303 553.474L257.198 555.679L242.769 553.916L237.231 552.143Z" fill="#FCC695"/>
<path d="M240.002 522.484L234.452 531.341L240.559 537.532L237.489 539.982L233.894 538.416L230.012 533.101L235.009 521.159L238.887 486.181L240.559 463.603L236.116 458.736L236.479 456.812L244.256 456.529L244.441 456.496V459.626L243.335 494.146L240.002 522.484Z" fill="#EFB484"/>
<path d="M264.764 543.218L267.192 547.276L268.303 553.474L257.198 555.679L242.769 553.916L237.231 552.143V548.601L237.804 547.034L248.319 547.424L264.764 543.218Z" fill="#FFA62E"/>
<path d="M158.452 544.762L173.051 542.148L176.202 547.714L172.13 550.08H159.187L152.898 548.601V544.591L158.452 544.762Z" fill="#FFA62E"/>
<path d="M133.593 548.93L136.808 558.338L125.158 559.669L110.725 560.997L107.401 556.568L107.76 555.331L118.493 553.326L133.593 548.93Z" fill="#FFA62E"/>
<path d="M318.506 116.101L320.998 118.76L322.384 132.923L313.238 133.367L308.795 133.145L307.688 128.278L306.299 124.955L303.802 122.299L304.634 118.315L318.506 116.101Z" fill="#8C4000"/>
<path d="M312.952 142.885L323.22 144.88L324.056 146.424C324.056 146.424 324.61 149.303 323.774 149.525C322.942 149.747 312.402 153.067 312.402 153.067L309.078 150.634L312.952 142.885Z" fill="#8C4000"/>
<path d="M302.687 178.962L302.97 181.395L294.649 189.808L288.545 194.9L285.77 194.678L288.27 187.593L288.824 179.629L293.259 176.751L302.687 178.962Z" fill="#8C4000"/>
<path d="M274.956 196.228L282.17 199.77C282.17 199.77 285.77 208.402 285.77 209.063C285.77 209.73 284.941 216.37 284.941 216.37L275.784 219.248L272.459 211.499L271.07 200.212L274.956 196.228Z" fill="#8C4000"/>
<path d="M255.542 230.094L266.626 232.527L270.795 236.066L269.401 245.362L263.859 249.571L249.159 249.349V236.289L255.542 230.094Z" fill="#8C4000"/>
<path d="M292.423 224.115L296.866 225.888L305.188 235.405L297.969 248.021L294.378 247.576L285.212 233.414L292.423 224.115Z" fill="#8C4000"/>
<path d="M241.662 251.337L250.258 253.11L252.209 262.628L243.052 272.146L235.558 274.583L228.069 263.514L232.791 256.652L241.662 251.337Z" fill="#8C4000"/>
<path d="M267.192 261.964L268.848 261.742L282.445 266.17L282.167 271.263L275.505 284.1L268.02 283.211L257.198 273.251L258.03 269.49L267.192 261.964Z" fill="#8C4000"/>
<path d="M250.258 284.542H257.198L268.578 291.623L266.352 296.493L259.973 307.339L245.827 308.445L236.391 294.721L238.887 290.737L250.258 284.542Z" fill="#8C4000"/>
<path d="M278.842 298.93L290.213 308.222L289.102 312.209L279.949 316.412L272.734 310.214L273.566 303.355L278.842 298.93Z" fill="#8C4000"/>
<path d="M221.416 276.571L224.191 278.566L225.852 295.388H223.634L208.93 293.618L202.83 284.987L204.491 278.341L221.416 276.571Z" fill="#8C4000"/>
<path d="M230.012 301.364L233.07 303.356L235.559 317.073L233.337 319.51L213.648 323.052L206.159 313.982L204.491 304.903L208.93 299.594L230.012 301.364Z" fill="#8C4000"/>
<path d="M256.923 320.619L264.691 323.052L261.641 329.695L256.645 333.682L248.319 328.805L246.938 324.599L256.923 320.619Z" fill="#8C4000"/>
<path d="M269.127 334.34L273.292 338.104L273.009 342.533L269.127 342.971L264.134 338.549L269.127 334.34Z" fill="#8C4000"/>
<path d="M243.335 337.221L249.16 338.991L251.095 344.747L245.827 349.169C245.827 349.169 240.56 349.614 240.56 348.947C240.56 348.286 236.391 341.198 236.391 341.198L243.335 337.221Z" fill="#8C4000"/>
<path d="M250.258 367.325L258.584 373.078L260.252 379.715L256.366 381.932L246.659 380.16L243.334 368.872L250.258 367.325Z" fill="#8C4000"/>
<path d="M205.048 332.125L208.93 335.229L212.254 349.392L200.334 354.71L192.844 348.95L188.401 346.294L192.291 337.659L198.944 333.237L205.048 332.125Z" fill="#8C4000"/>
<path d="M187.852 304.019L191.176 307.778L193.951 322.83L191.73 324.599L175.357 319.291L165.929 314.424L168.983 310.437L178.973 307.339L187.852 304.019Z" fill="#8C4000"/>
<path d="M178.129 325.489L181.191 329.473C181.191 329.473 179.805 331.684 178.973 331.684C178.129 331.684 173.984 331.468 173.148 330.356C172.316 329.25 170.098 324.38 170.098 324.38L178.129 325.489Z" fill="#8C4000"/>
<path d="M155.115 329.031L161.498 330.14L172.869 348.95L165.929 355.148L156.78 358.909L149.016 354.481L141.522 346.961L144.302 337.437L151.512 331.464L155.115 329.031Z" fill="#8C4000"/>
<path d="M122.104 326.813L127.376 329.695L125.158 336.557L119.612 339.874L115.726 338.327L114.623 332.125L122.104 326.813Z" fill="#8C4000"/>
<path d="M166.765 367.096L167.601 372.414L156.78 381.487L151.791 382.819L147.63 377.5L145.679 365.111L152.619 362.893L163.154 365.991L166.765 367.096Z" fill="#8C4000"/>
<path d="M190.069 356.695L196.169 360.682V369.317L192.291 373.517L188.401 375.734L172.869 367.989L178.698 358.909L183.412 357.807L190.069 356.695Z" fill="#8C4000"/>
<path d="M287.159 149.776L292.156 136.023L292.366 135.482L297.149 135.801L300.748 139.565L302.687 147.53L300.748 151.294C300.748 151.294 294.378 152.181 293.538 152.181C292.92 152.181 289.09 150.592 287.159 149.776Z" fill="#8C4000"/>
<path d="M280.967 166.824L284.126 158.144L293.538 161.035L294.095 165.905L282.167 167.23L280.967 166.824Z" fill="#8C4000"/>
<path d="M310.742 179.848L304.913 171.881L305.188 165.241L312.402 159.485L318.227 163.024L320.998 166.347L325.959 166.214L324.266 185.553L310.742 179.848Z" fill="#8C4000"/>
<path d="M293.812 202.204L298.256 199.326L305.749 194.9L310.463 193.124L316.846 196.889L322.416 199.854L317.266 214.519L293.812 204.637V202.204Z" fill="#8C4000"/>
<path d="M310.12 179L314.899 163.023L315.521 161.376L318.227 163.023L320.998 166.346L325.959 166.214L324.844 179.007L324.266 185.553L310.742 179.848L310.12 179Z" fill="#9E4233"/>
<path d="M305.273 195.177L305.749 194.9L310.464 193.124L316.846 196.889L322.416 199.854L317.266 214.519L301.476 207.867L305.273 195.177Z" fill="#9E4233"/>
<path d="M321.802 144.6L323.224 144.877L324.06 146.421C324.06 146.421 324.614 149.299 323.777 149.522C323.45 149.612 321.576 150.186 319.463 150.853L321.802 144.6Z" fill="#9E4233"/>
<path d="M290.916 242.229L296.127 225.591L296.866 225.888L305.188 235.405L297.969 248.021L294.378 247.576L290.916 242.229Z" fill="#9E4233"/>
<path d="M269.963 282.109L280.518 265.542L282.445 266.17L282.167 271.263L275.505 284.101L270.125 283.462L269.963 282.109Z" fill="#9E4233"/>
<path d="M273.566 303.355L278.842 298.93L290.213 308.222L289.102 312.209L279.949 316.412L275.671 312.738L273.203 306.343L273.566 303.355Z" fill="#9E4233"/>
<path d="M403.215 120.107L385.356 116.546V114.773L403.7 118.838L403.215 120.107Z" fill="#E17B29"/>
</svg>
