<svg width="480" height="620" viewBox="0 0 480 620" fill="none" xmlns="http://www.w3.org/2000/svg">
<rect width="480" height="620" fill="#FFF9F9" fill-opacity="0.82"/>
<path d="M173.876 332.165L153.579 346.83L141.209 364.107C141.209 364.107 130.113 391.163 129.476 392.143C128.842 393.118 127.576 401.271 127.576 401.271L138.039 455.055L146.919 463.859L148.187 467.441L151.04 470.376L155.799 484.392L153.579 486.021L134.551 484.066L124.086 479.832V472.986L127.576 467.443L127.257 461.578L120.599 453.754L122.818 442.019L115.843 406.813L104.741 386.275L132.015 322.386L173.559 316.194L173.876 332.165Z" fill="#4F211A"/>
<path d="M124.089 479.83L134.551 484.066L153.582 486.021L155.801 484.392L151.043 470.376L148.187 467.441L146.919 463.856L138.041 455.055L133.347 430.918L121.864 418.38L118.908 422.29L122.818 442.017L120.599 453.751L127.259 461.572L127.579 467.441L124.089 472.984V479.83Z" fill="#C18F74"/>
<path d="M155.801 484.392L151.219 470.889L146.604 473.635L138.676 476.24L124.089 475.958V479.83L134.551 484.066L153.582 486.021L155.801 484.392Z" fill="#BC7540"/>
<path d="M277.582 350.417L284.24 366.062L284.874 398.338L281.069 429.631L280.752 461.901L283.92 470.051L285.828 474.939L284.874 481.136L297.561 484.069L304.856 483.414L308.026 478.852L307.075 471.68L297.561 465.486L296.61 454.403L297.242 425.391L302 397.684L306.124 355.957L277.582 350.417Z" fill="#4F211A"/>
<path d="M312.465 482.437L307.075 471.68L297.561 465.486L296.61 454.403L296.817 444.913L291.693 434.03L286.459 425.715L283.606 432.561L281.026 433.885L280.752 461.901L283.92 470.051L285.828 474.939L284.874 481.136L297.561 484.069L304.856 483.414L312.465 482.437Z" fill="#C18F74"/>
<path d="M304.856 483.414L312.465 482.437L307.075 471.68L302.204 468.508L298.512 471.354L289.001 476.566L285.475 477.223L284.874 481.136L297.561 484.069L304.856 483.414Z" fill="#BC7540"/>
<path d="M95.2268 243.499H74.9279L63.197 265.667L57.8046 309.674L60.341 340.638L57.8046 357.589L54 370.304C54 370.304 64.4652 385.949 64.4652 387.253C64.4652 388.556 67.0016 419.851 67.0016 420.829C67.0016 421.807 63.5141 433.213 63.5141 433.213L60.0291 437.123V440.059L65.4164 437.123L69.5406 445.276L70.4918 455.383L74.9279 465.162L76.8328 464.187L74.2989 456.035L77.1498 444.624L85.7127 425.068L91.7367 382.038L95.2268 243.499Z" fill="#4F211A"/>
<path d="M378.749 147.663L386.995 142.772L381.92 135.603L374.311 127.777L358.77 126.799L324.835 132.344L309.295 147.337L283.606 193.949L271.555 218.727L270.921 227.526L364.796 150.27L378.749 147.663Z" fill="#4F211A"/>
<path d="M416.174 184.17L421.561 189.058L426 195.581L424.732 212.855L412.681 220.679L405.07 217.746L398.409 213.51L377.478 207.641L370.818 208.296L371.452 219.704L367.33 260.127L353.061 310.652L351.792 334.449L332.133 357.269L328.643 386.935L325.155 414.642L324.518 455.714L328.008 476.899L335.94 486.029L336.574 499.721L315.958 502L309.297 499.393L310.568 488.962L304.859 483.419L305.178 470.381L306.446 431.591V400.624L300.42 365.421L289.638 356.291L262.998 352.052L241.431 350.097L200.835 346.515L169.44 333.474L160.877 333.8L149.458 340.643L121.235 369.006L109.502 396.385L101.256 409.752L105.375 437.459L113.938 472.991L123.455 479.183L126.308 483.748L130.11 498.089L126.625 500.045L108.868 495.482L95.8635 490.594L99.034 482.116L94.5953 470.705L91.7418 466.471L89.2029 446.915L88.5714 421.814L79.0547 380.74L82.5423 367.05L81.5911 346.838L66.3701 306.744L70.8088 275.125L86.9835 243.181L117.111 218.083L144.382 217.428L178.949 229.817C178.949 229.817 197.977 234.379 199.565 234.379C201.152 234.379 243.964 234.054 243.964 234.054L262.041 226.881L272.507 219.712L276.945 216.782L305.805 172.449L324.833 151.258L337.203 140.827L356.543 134.307L372.718 141.808L388.258 161.689L401.897 174.075L416.174 184.17Z" fill="#8E412D"/>
<path d="M335.937 486.024L328.006 476.894L324.516 455.709L325.152 414.637L328.64 386.929L332.13 357.264L340.141 347.965C340.184 346.199 340.215 345.04 340.215 345.04L337.359 329.881L326.894 313.742L316.904 291.249L315.002 280.983L311.197 280.003L309.768 285.869L309.292 303.963L299.3 327.921L297.876 348.459L299.673 364.785L300.412 365.413L306.439 400.616V431.583L305.17 470.374L304.851 483.412L310.56 488.954L309.29 499.385L315.95 501.992L336.566 499.714L335.937 486.024Z" fill="#6D3527"/>
<path d="M291.693 346.013L251.259 334.77L209.396 326.457L181.326 312.767L168.483 294.187L158.018 272.668L136.136 252.624L116.157 258.978L97.129 272.182L77.1497 295.162L69.1058 313.95L81.5884 346.83L82.5421 367.043L79.052 380.732L88.5686 421.807L89.2002 446.908L91.7392 466.463L94.5926 470.7L99.0339 482.111L95.8608 490.586L108.865 495.477L126.625 500.039L130.11 498.084L126.308 483.743L123.452 479.175L113.938 472.983L105.375 437.452L101.256 409.744L109.499 396.38L121.232 369.001L149.455 340.636L160.874 333.792L169.437 333.466L200.833 346.507L241.428 350.089L262.995 352.044L289.635 356.286L293.79 359.802L291.693 346.013Z" fill="#6D3527"/>
<path d="M138.514 285.383L150.884 309.343L147.08 320.097L130.429 328.904L117.108 338.678L107.594 325.968L111.874 295.651L121.864 282.452L138.514 285.383Z" fill="#8E412D"/>
<path d="M335.937 486.024L328.008 476.894L324.516 455.709L324.876 432.621L320.711 426.203L319.76 419.846L317.86 415.935L313.099 428.161L306.306 435.701L305.176 470.376L304.856 483.414L310.565 488.957L309.295 499.388L315.958 501.995L336.571 499.716L335.937 486.024Z" fill="#EDB996"/>
<path d="M123.452 479.175L113.938 472.983L106.433 441.851L100.936 440.385L93.7975 435.496L89.0392 440.39L89.2002 446.908L91.7392 466.463L94.5927 470.7L99.0339 482.111L95.8609 490.586L108.865 495.477L126.625 500.039L130.11 498.084L126.308 483.743L123.452 479.175Z" fill="#EDB996"/>
<path d="M415.617 197.86L409.191 191.747L403.484 183.925L394.924 175.124L388.026 169.742L389.452 171.944L395.4 177.568L404.914 188.322L410.145 195.171L415.617 197.86Z" fill="#6D3527"/>
<path d="M422.609 201.86L424.046 198.425L421.533 194.125L420.723 195.699L419.677 197.221L422.609 201.86Z" fill="#6D3527"/>
<path d="M419.186 199.817L422.277 201.528V202.506L419.419 201.037L419.186 199.817Z" fill="#6D3527"/>
<path d="M418.322 217.018L413.952 212.53L403.484 209.108L393.495 207.639L385.41 206.664L371.613 200.304L352.107 188.083L355.438 196.393L364.004 206.175L370.969 208.28L377.481 207.639L398.412 213.507L405.072 217.746L412.684 220.679L418.322 217.018Z" fill="#6D3527"/>
<path d="M420.61 211.063L415.374 208.616L409.667 208.128L413.952 210.572L419.186 213.018L420.587 215.547L422.558 214.267L420.61 211.063Z" fill="#6D3527"/>
<path d="M386.834 168.28L385.88 163.878L381.127 161.187L376.607 160.943L371.138 162.165L370.897 166.32L373.278 169.989H381.6L386.834 168.28Z" fill="#6D3527"/>
<path d="M383.505 165.831L383.98 163.387L379.818 163.999L376.847 166.812L377.082 168.034L385.41 167.298L383.505 165.831Z" fill="#4F211A"/>
<path d="M366.855 205.195L364.004 230.133L351.634 257.023L348.302 288.807L349.732 300.542L353.017 311.514L353.061 310.647L367.33 260.124L371.455 219.702L370.821 208.293L373.193 208.059L366.855 205.195Z" fill="#6D3527"/>
<path d="M372.723 141.795L356.548 134.294L337.208 140.814L324.838 151.245L305.81 172.435L276.95 216.769L272.512 219.699L262.046 226.868L243.97 234.04C243.97 234.04 221.206 234.214 208.263 234.308L217.01 239.417L246.981 242.348L270.768 243.328L278.853 227.68L295.027 205.189L314.056 181.229L329.755 156.78L350.529 145.285L361.15 143.09L375.423 151.4L385.1 157.621L372.723 141.795Z" fill="#6D3527"/>
<path d="M350.524 145.29L353.061 139.721L354.012 132.759L367.33 118L369.238 119.393L366.699 129.695L361.306 138.888L359.404 144.181L356.231 146.685L350.524 145.29Z" fill="#8E412D"/>
<path d="M364.004 125.737L360.194 132.586L359.002 140.16L360.501 141.124L361.306 138.888L366.699 129.695L368.626 121.861L364.004 125.737Z" fill="#4F211A"/>
<path d="M105.375 488.628L100.757 492.426L108.865 495.477L126.625 500.039L130.11 498.084L126.308 483.743L124.932 481.543L117.111 482.762L105.375 488.628Z" fill="#BC7540"/>
<path d="M126.308 483.743L124.932 481.543L117.111 482.762L107.806 487.411L109.814 487.001L122.498 485.698H126.824L126.308 483.743Z" fill="#9E6E49"/>
<path d="M335.937 486.024L333.838 483.609L325.152 490.909L309.832 494.994L309.295 499.388L315.958 501.995L341.644 499.388L335.937 486.024Z" fill="#BC7540"/>
<path d="M335.937 486.024L333.838 483.609L325.152 490.909L319.103 492.523L324.201 492.867L330.547 489.28L335.973 486.825L335.937 486.024Z" fill="#9E6E49"/>
<path d="M415.854 182.948L415.617 186.614L411.096 200.062L409.621 202.916L400.153 195.253L386.676 184.982L372.406 172.761L364.198 164.296L369.711 138.696L366.615 138.205L363.367 147.824L361.626 159.069L358.453 156.133L351.473 144.236L347.827 135.761L344.971 137.719L349.732 148.473L360.355 165.589L361.941 175.855L366.855 193.702L371.851 208.861L374.942 208.616L369.711 191.994L367.33 180.096L365.906 175.368L364.638 170.317L380.414 184.659L404.198 202.992L408.12 205.817L407.051 207.886L400.153 215.139L402.771 216.929L409.588 210.653L413.157 203.563L416.013 195.904L418.232 185.634L415.854 182.948Z" fill="#BC7540"/>
<path d="M408.877 205.36L399.838 198.185L375.418 178.627L362.577 166.238L356.868 158.094L349.412 145.705L346.024 136.998L344.971 137.718L349.732 148.473L360.355 165.589L360.591 167.103L362.416 168.685L363.843 172.273L366.54 183.19L368.762 194.272L367.32 195.119L371.851 208.861L374.942 208.616L369.711 191.994L367.33 180.096L365.906 175.368L364.638 170.317L380.414 184.659L404.198 202.992L408.12 205.817L407.051 207.886L400.153 215.139L402.771 216.929L407.678 212.417L406.182 211.549L406.975 209.108L408.877 205.36Z" fill="#9E6E49"/>
<path d="M364.162 151.085L368.345 138.481L366.614 138.205L363.367 147.824L361.626 159.069L361.47 158.927L361.941 160.861L364.162 151.085Z" fill="#9E6E49"/>
<path d="M291.537 195.904L292.488 194.764L285.79 189.996L284.639 192.075L291.537 195.904Z" fill="#6D3527"/>
<path d="M290.108 198.348L290.589 197.371L283.711 193.768L283.606 193.949L283.197 194.795L290.108 198.348Z" fill="#6D3527"/>
<path d="M302.002 179.931L302.478 178.464L294.994 173.287L294.137 174.845L302.002 179.931Z" fill="#6D3527"/>
<path d="M304.695 175.855V174.717L297.41 168.906L296.807 170.002L304.695 175.855Z" fill="#6D3527"/>
<path d="M304.825 155.45L312.626 166.238L314.212 163.957L305.38 154.446L304.825 155.45Z" fill="#6D3527"/>
<path d="M321.506 155.973L322.46 155.156L313.166 143.605L312.176 144.554L321.506 155.973Z" fill="#6D3527"/>
<path d="M323.092 153.855L324.045 153.04L315.879 140.985L314.933 141.894L323.092 153.855Z" fill="#6D3527"/>
<path d="M324.6 132.57L322.718 134.383L324.516 138.696L329.435 150.596L330.384 150.268L324.6 132.57Z" fill="#6D3527"/>
<path d="M329.752 140.814L333.24 146.191L334.188 145.379L327.978 131.826L326.354 132.092L329.752 140.814Z" fill="#6D3527"/>
<path d="M334.349 143.91L335.459 143.259L330.304 131.448L329.266 131.619L334.349 143.91Z" fill="#6D3527"/>
<path d="M344.298 129.167L343.035 129.372L342.754 139.837H343.866L344.298 129.167Z" fill="#6D3527"/>
<path d="M350.207 137.067L351 136.901L349.76 128.27L348.507 128.478L350.207 137.067Z" fill="#6D3527"/>
<path d="M378.207 131.784L371.296 142.444L371.93 143.424L379.168 132.775L378.207 131.784Z" fill="#6D3527"/>
</svg>
