<svg width="480" height="620" viewBox="0 0 480 620" fill="none" xmlns="http://www.w3.org/2000/svg">
<rect width="480" height="620" fill="#FFF9F9" fill-opacity="0.82"/>
<path d="M406.412 82.1605C386.65 60.0624 357.659 58.3371 336.417 75.8611C268.983 49.6905 181.117 84.0763 117.783 169.208C48.8927 261.814 31.439 384.291 70.3641 464.929C49.531 493.306 45.0468 530.029 60.4221 547.222C75.7974 564.415 105.222 555.568 126.35 527.532C195.429 567.635 293.319 535.095 362.209 442.49C425.551 357.358 445.411 246.948 417.958 167.032C430.24 139.487 426.173 104.248 406.412 82.1605Z" fill="#FFDD00"/>
<path d="M376.234 144.703C387.469 119.515 383.746 87.2963 365.678 67.0941C364.795 66.111 363.878 65.2083 362.962 64.3055C353.617 65.3587 344.46 69.2206 336.417 75.8611C268.983 49.6905 181.117 84.0763 117.783 169.208C64.8409 240.368 42.322 329.151 52.3704 403.048C53.5323 409.739 53.8187 413.26 55.5698 421.214C58.9493 436.732 63.8508 451.427 70.3724 464.929C63.0243 474.93 57.7546 485.974 54.6288 496.837C69.4477 505.975 92.4739 497.068 109.576 474.368C172.738 511.051 262.265 481.279 325.264 396.599C383.173 318.749 401.338 217.778 376.234 144.703Z" fill="#FFF21F"/>
<path d="M214.748 279.729C193.972 311.035 160.235 319.581 139.394 298.798C118.552 278.014 118.503 235.794 139.287 204.477C160.063 173.171 193.8 164.624 214.634 185.408C235.475 206.192 235.524 248.422 214.748 279.729Z" fill="#FEF59D"/>
</svg>
