<svg width="480" height="620" viewBox="0 0 480 620" fill="none" xmlns="http://www.w3.org/2000/svg">
<rect width="480" height="620" fill="#FFF9F9" fill-opacity="0.82"/>
<path fill-rule="evenodd" clip-rule="evenodd" d="M82.6924 80.2658H417V541H82.6924V80.2658ZM119.55 492.268C128.603 492.268 135.716 499.863 135.716 508.723C135.716 517.583 128.603 525.178 119.55 525.178C111.144 525.178 104.031 517.583 104.031 508.723C104.031 499.863 111.144 492.268 119.55 492.268ZM119.55 444.802C128.603 444.802 135.716 451.764 135.716 461.257C135.716 470.118 128.603 477.079 119.55 477.079C111.144 477.079 104.031 470.118 104.031 461.257C104.031 451.764 111.144 444.802 119.55 444.802ZM119.55 396.704C128.603 396.704 135.716 404.298 135.716 413.158C135.716 422.018 128.603 429.614 119.55 429.614C111.144 429.614 104.031 422.018 104.031 413.158C104.031 404.298 111.144 396.704 119.55 396.704ZM119.55 349.238C128.603 349.238 135.716 356.2 135.716 365.06C135.716 374.553 128.603 381.515 119.55 381.515C111.144 381.515 104.031 374.554 104.031 365.06C104.031 356.199 111.144 349.238 119.55 349.238ZM119.55 301.139C128.603 301.139 135.716 308.734 135.716 317.594C135.716 326.454 128.603 334.048 119.55 334.048C111.144 334.048 104.031 326.454 104.031 317.594C104.031 308.734 111.144 301.139 119.55 301.139ZM119.55 253.674C128.603 253.674 135.716 260.635 135.716 269.495C135.716 278.989 128.603 285.95 119.55 285.95C111.144 285.95 104.031 278.989 104.031 269.495C104.031 260.635 111.144 253.674 119.55 253.674ZM119.55 205.575C128.603 205.575 135.716 213.17 135.716 222.03C135.716 230.89 128.603 238.485 119.55 238.485C111.144 238.485 104.031 230.89 104.031 222.03C104.031 213.17 111.144 205.575 119.55 205.575ZM119.55 158.109C128.603 158.109 135.716 165.071 135.716 173.932C135.716 183.425 128.603 190.386 119.55 190.386C111.144 190.386 104.031 183.425 104.031 173.932C104.031 165.071 111.144 158.109 119.55 158.109ZM119.55 110.011C128.603 110.011 135.716 117.605 135.716 126.465C135.716 135.326 128.603 142.921 119.55 142.921C111.144 142.921 104.031 135.326 104.031 126.465C104.031 117.605 111.144 110.011 119.55 110.011Z" fill="#0071DF"/>
<path fill-rule="evenodd" clip-rule="evenodd" d="M82.6924 79.6328H416.353V539.734H82.6924V79.6328ZM119.55 487.205C127.957 487.205 135.069 494.167 135.069 503.66C135.069 512.52 127.956 519.481 119.55 519.481C110.497 519.481 103.384 512.52 103.384 503.66C103.384 494.167 110.497 487.205 119.55 487.205ZM119.55 439.107C127.957 439.107 135.069 446.701 135.069 455.561C135.069 464.422 127.956 472.016 119.55 472.016C110.497 472.016 103.384 464.422 103.384 455.561C103.384 446.701 110.497 439.107 119.55 439.107ZM119.55 391.64C127.957 391.64 135.069 398.603 135.069 408.096C135.069 416.956 127.956 423.918 119.55 423.918C110.497 423.918 103.384 416.956 103.384 408.096C103.384 398.602 110.497 391.64 119.55 391.64ZM119.55 343.541C127.957 343.541 135.069 351.136 135.069 359.996C135.069 368.856 127.956 376.452 119.55 376.452C110.497 376.452 103.384 368.856 103.384 359.996C103.384 351.136 110.497 343.541 119.55 343.541ZM119.55 296.076C127.957 296.076 135.069 303.038 135.069 312.531C135.069 321.391 127.956 328.353 119.55 328.353C110.497 328.353 103.384 321.391 103.384 312.531C103.384 303.038 110.497 296.076 119.55 296.076ZM119.55 247.978C127.957 247.978 135.069 255.572 135.069 264.432C135.069 273.293 127.956 280.887 119.55 280.887C110.497 280.887 103.384 273.293 103.384 264.432C103.384 255.572 110.497 247.978 119.55 247.978ZM119.55 200.512C127.957 200.512 135.069 207.474 135.069 216.967C135.069 225.827 127.956 232.789 119.55 232.789C110.497 232.789 103.384 225.827 103.384 216.967C103.384 207.474 110.497 200.512 119.55 200.512ZM119.55 152.414C127.957 152.414 135.069 160.008 135.069 168.869C135.069 177.729 127.956 185.323 119.55 185.323C110.497 185.323 103.384 177.729 103.384 168.869C103.384 160.008 110.497 152.414 119.55 152.414ZM119.55 104.948C127.957 104.948 135.069 111.91 135.069 120.77C135.069 130.263 127.956 137.225 119.55 137.225C110.497 137.225 103.384 130.263 103.384 120.77C103.384 111.909 110.497 104.948 119.55 104.948Z" fill="#E99E00"/>
<path fill-rule="evenodd" clip-rule="evenodd" d="M82.6924 79.6328H414.414V537.835H82.6924V79.6328ZM119.55 483.408C128.603 483.408 135.716 491.002 135.716 499.862C135.716 508.723 128.603 516.317 119.55 516.317C110.497 516.317 103.384 508.723 103.384 499.862C103.384 491.002 110.497 483.408 119.55 483.408ZM119.55 435.942C128.603 435.942 135.716 442.904 135.716 452.397C135.716 461.257 128.603 468.219 119.55 468.219C110.497 468.219 103.384 461.257 103.384 452.397C103.384 442.904 110.497 435.942 119.55 435.942ZM119.55 387.843C128.603 387.843 135.716 395.438 135.716 404.298C135.716 413.158 128.603 420.753 119.55 420.753C110.497 420.753 103.384 413.158 103.384 404.298C103.384 395.438 110.497 387.843 119.55 387.843ZM119.55 340.378C128.603 340.378 135.716 347.339 135.716 356.832C135.716 365.693 128.603 372.655 119.55 372.655C110.497 372.655 103.384 365.693 103.384 356.832C103.384 347.339 110.497 340.378 119.55 340.378ZM119.55 292.279C128.603 292.279 135.716 299.873 135.716 308.733C135.716 317.594 128.603 325.188 119.55 325.188C110.497 325.188 103.384 317.594 103.384 308.733C103.384 299.873 110.497 292.279 119.55 292.279ZM119.55 244.813C128.603 244.813 135.716 251.775 135.716 261.268C135.716 270.128 128.603 277.09 119.55 277.09C110.497 277.09 103.384 270.128 103.384 261.268C103.384 251.775 110.497 244.813 119.55 244.813ZM119.55 196.715C128.603 196.715 135.716 204.309 135.716 213.17C135.716 222.03 128.603 229.624 119.55 229.624C110.497 229.624 103.384 222.03 103.384 213.17C103.384 204.309 110.497 196.715 119.55 196.715ZM119.55 149.249C128.603 149.249 135.716 156.211 135.716 165.071C135.716 174.564 128.603 181.526 119.55 181.526C110.497 181.526 103.384 174.564 103.384 165.071C103.384 156.211 110.497 149.249 119.55 149.249ZM119.55 101.15C128.603 101.15 135.716 108.745 135.716 117.605C135.716 126.465 128.603 134.061 119.55 134.061C110.497 134.061 103.384 126.465 103.384 117.605C103.384 108.744 110.497 101.15 119.55 101.15Z" fill="#CCFF2A"/>
<path fill-rule="evenodd" clip-rule="evenodd" d="M82.6924 79.6329L412.474 79V536.57H82.6924V79.6329ZM119.55 480.243C128.603 480.243 135.716 487.838 135.716 496.698C135.716 505.558 128.603 512.52 119.55 512.52C110.497 512.52 103.384 505.558 103.384 496.698C103.384 487.838 110.497 480.243 119.55 480.243ZM119.55 432.144C128.603 432.144 135.716 439.739 135.716 448.599C135.716 457.459 128.603 465.055 119.55 465.055C110.497 465.055 103.384 457.459 103.384 448.599C103.384 439.739 110.497 432.144 119.55 432.144ZM119.55 384.679C128.603 384.679 135.716 391.641 135.716 401.134C135.716 409.994 128.603 416.956 119.55 416.956C110.497 416.956 103.384 409.994 103.384 401.134C103.384 391.641 110.497 384.679 119.55 384.679ZM119.55 336.581C128.603 336.581 135.716 344.175 135.716 353.035C135.716 361.896 128.603 369.49 119.55 369.49C110.497 369.49 103.384 361.896 103.384 353.035C103.384 344.175 110.497 336.581 119.55 336.581ZM119.55 289.115C128.603 289.115 135.716 296.077 135.716 305.57C135.716 314.43 128.603 321.392 119.55 321.392C110.497 321.392 103.384 314.43 103.384 305.57C103.384 296.076 110.497 289.115 119.55 289.115ZM119.55 241.016C128.603 241.016 135.716 248.611 135.716 257.471C135.716 266.331 128.603 273.925 119.55 273.925C110.497 273.925 103.384 266.331 103.384 257.471C103.384 248.611 110.497 241.016 119.55 241.016ZM119.55 193.55C128.603 193.55 135.716 200.512 135.716 210.005C135.716 218.866 128.603 225.827 119.55 225.827C110.497 225.827 103.384 218.866 103.384 210.005C103.384 200.512 110.497 193.55 119.55 193.55ZM119.55 145.452C128.603 145.452 135.716 153.046 135.716 161.906C135.716 170.767 128.603 178.362 119.55 178.362C110.497 178.362 103.384 170.767 103.384 161.906C103.384 153.046 110.497 145.452 119.55 145.452ZM119.55 97.9862C128.603 97.9862 135.716 104.948 135.716 113.808C135.716 123.301 128.603 130.263 119.55 130.263C110.497 130.263 103.384 123.301 103.384 113.808C103.384 104.948 110.497 97.9862 119.55 97.9862Z" fill="#FF3546"/>
<path fill-rule="evenodd" clip-rule="evenodd" d="M412.474 266.331V536.569H82.6924V382.147C208.138 363.161 311.599 320.758 412.474 266.331ZM119.55 480.243C128.603 480.243 135.716 487.838 135.716 496.698C135.716 505.558 128.603 512.52 119.55 512.52C110.497 512.52 103.384 505.558 103.384 496.698C103.384 487.838 110.497 480.243 119.55 480.243ZM119.55 432.144C128.603 432.144 135.716 439.739 135.716 448.599C135.716 457.459 128.603 465.055 119.55 465.055C110.497 465.055 103.384 457.459 103.384 448.599C103.384 439.739 110.497 432.144 119.55 432.144ZM119.55 384.679C128.603 384.679 135.716 391.641 135.716 401.134C135.716 409.994 128.603 416.956 119.55 416.956C110.497 416.956 103.384 409.994 103.384 401.134C103.384 391.641 110.497 384.679 119.55 384.679Z" fill="#BF003B"/>
<path fill-rule="evenodd" clip-rule="evenodd" d="M70.4065 106.214H113.731C118.257 106.214 121.49 110.011 121.49 113.808C121.49 118.238 118.257 122.035 113.731 122.035H70.4065C65.8804 122.035 62 118.238 62 113.808C62.0008 110.011 65.8804 106.214 70.4065 106.214Z" fill="#00BCDF"/>
<path fill-rule="evenodd" clip-rule="evenodd" d="M70.4065 154.312H113.731C118.257 154.312 121.49 157.476 121.49 161.906C121.49 166.336 118.257 170.134 113.731 170.134H70.4065C65.8804 170.134 62 166.336 62 161.906C62.0008 157.476 65.8804 154.312 70.4065 154.312Z" fill="#00BCDF"/>
<path fill-rule="evenodd" clip-rule="evenodd" d="M70.4065 201.777H113.731C118.257 201.777 121.49 205.575 121.49 210.005C121.49 213.803 118.257 217.6 113.731 217.6H70.4065C65.8804 217.6 62 213.803 62 210.005C62.0008 205.575 65.8804 201.777 70.4065 201.777Z" fill="#00BCDF"/>
<path fill-rule="evenodd" clip-rule="evenodd" d="M70.4065 249.876H113.731C118.257 249.876 121.49 253.041 121.49 257.471C121.49 261.901 118.257 265.698 113.731 265.698H70.4065C65.8804 265.698 62 261.901 62 257.471C62.0008 253.041 65.8804 249.876 70.4065 249.876Z" fill="#00BCDF"/>
<path fill-rule="evenodd" clip-rule="evenodd" d="M70.4065 297.342H113.731C118.257 297.342 121.49 301.14 121.49 305.57C121.49 309.367 118.257 313.164 113.731 313.164H70.4065C65.8804 313.164 62 309.367 62 305.57C62.0008 301.139 65.8804 297.342 70.4065 297.342Z" fill="#00BCDF"/>
<path fill-rule="evenodd" clip-rule="evenodd" d="M70.4065 345.441H113.731C118.257 345.441 121.49 348.605 121.49 353.035C121.49 357.465 118.257 361.263 113.731 361.263H70.4065C65.8804 361.263 62 357.465 62 353.035C62.0008 348.605 65.8804 345.441 70.4065 345.441Z" fill="#00BCDF"/>
<path fill-rule="evenodd" clip-rule="evenodd" d="M70.4065 392.906H113.731C118.257 392.906 121.49 396.703 121.49 401.134C121.49 405.564 118.257 408.728 113.731 408.728H70.4065C65.8804 408.728 62 405.564 62 401.134C62.0008 396.703 65.8804 392.906 70.4065 392.906Z" fill="#00BCDF"/>
<path fill-rule="evenodd" clip-rule="evenodd" d="M70.4065 441.005H113.731C118.257 441.005 121.49 444.169 121.49 448.599C121.49 453.029 118.257 456.827 113.731 456.827H70.4065C65.8804 456.827 62 453.029 62 448.599C62.0008 444.169 65.8804 441.005 70.4065 441.005Z" fill="#00BCDF"/>
<path fill-rule="evenodd" clip-rule="evenodd" d="M70.4065 488.47H113.731C118.257 488.47 121.49 492.268 121.49 496.698C121.49 501.128 118.257 504.293 113.731 504.293H70.4065C65.8804 504.293 62 501.128 62 496.698C62.0008 492.268 65.8804 488.47 70.4065 488.47Z" fill="#00BCDF"/>
<path fill-rule="evenodd" clip-rule="evenodd" d="M72.9933 110.011H80.7527C82.6925 110.011 84.6323 111.909 84.6323 113.808C84.6323 115.707 82.6925 117.605 80.7527 117.605H72.9933C71.0535 117.605 69.1136 115.707 69.1136 113.808C69.1136 111.909 71.0535 110.011 72.9933 110.011ZM91.099 110.011H91.7453C93.6852 110.011 94.9786 111.909 94.9786 113.808C94.9786 115.707 93.6852 117.605 91.7453 117.605H91.099C89.1591 117.605 87.8657 115.707 87.8657 113.808C87.8657 111.909 89.1591 110.011 91.099 110.011Z" fill="#FEFEFE"/>
<path fill-rule="evenodd" clip-rule="evenodd" d="M72.9933 157.476H80.7527C82.6925 157.476 84.6323 159.375 84.6323 161.274C84.6323 163.806 82.6925 165.071 80.7527 165.071H72.9933C71.0535 165.071 69.1136 163.806 69.1136 161.274C69.1136 159.375 71.0535 157.476 72.9933 157.476ZM91.099 157.476H91.7453C93.6852 157.476 94.9786 159.375 94.9786 161.274C94.9786 163.806 93.6852 165.071 91.7453 165.071H91.099C89.1591 165.071 87.8657 163.806 87.8657 161.274C87.8657 159.375 89.1591 157.476 91.099 157.476Z" fill="#FEFEFE"/>
<path fill-rule="evenodd" clip-rule="evenodd" d="M72.9933 205.575H80.7527C82.6925 205.575 84.6323 206.84 84.6323 209.372C84.6323 211.271 82.6925 213.17 80.7527 213.17H72.9933C71.0535 213.17 69.1136 211.271 69.1136 209.372C69.1136 206.84 71.0535 205.575 72.9933 205.575ZM91.099 205.575H91.7453C93.6852 205.575 94.9786 206.84 94.9786 209.372C94.9786 211.271 93.6852 213.17 91.7453 213.17H91.099C89.1591 213.17 87.8657 211.271 87.8657 209.372C87.8657 206.84 89.1591 205.575 91.099 205.575Z" fill="#FEFEFE"/>
<path fill-rule="evenodd" clip-rule="evenodd" d="M72.9933 253.041H80.7527C82.6925 253.041 84.6323 254.939 84.6323 256.838C84.6323 258.737 82.6925 260.635 80.7527 260.635H72.9933C71.0535 260.635 69.1136 258.737 69.1136 256.838C69.1136 254.939 71.0535 253.041 72.9933 253.041ZM91.099 253.041H91.7453C93.6852 253.041 94.9786 254.939 94.9786 256.838C94.9786 258.737 93.6852 260.635 91.7453 260.635H91.099C89.1591 260.635 87.8657 258.737 87.8657 256.838C87.8657 254.939 89.1591 253.041 91.099 253.041Z" fill="#FEFEFE"/>
<path fill-rule="evenodd" clip-rule="evenodd" d="M72.9933 301.139H80.7527C82.6925 301.139 84.6323 303.038 84.6323 304.936C84.6323 306.835 82.6925 308.734 80.7527 308.734H72.9933C71.0535 308.734 69.1136 306.836 69.1136 304.936C69.1136 303.038 71.0535 301.139 72.9933 301.139ZM91.099 301.139H91.7453C93.6852 301.139 94.9786 303.038 94.9786 304.936C94.9786 306.835 93.6852 308.734 91.7453 308.734H91.099C89.1591 308.734 87.8657 306.836 87.8657 304.936C87.8657 303.038 89.1591 301.139 91.099 301.139Z" fill="#FEFEFE"/>
<path fill-rule="evenodd" clip-rule="evenodd" d="M72.9933 349.238H80.7527C82.6925 349.238 84.6323 350.504 84.6323 353.035C84.6323 354.934 82.6925 356.833 80.7527 356.833H72.9933C71.0535 356.833 69.1136 354.934 69.1136 353.035C69.1136 350.504 71.0535 349.238 72.9933 349.238ZM91.099 349.238H91.7453C93.6852 349.238 94.9786 350.504 94.9786 353.035C94.9786 354.934 93.6852 356.833 91.7453 356.833H91.099C89.1591 356.833 87.8657 354.934 87.8657 353.035C87.8657 350.504 89.1591 349.238 91.099 349.238Z" fill="#FEFEFE"/>
<path fill-rule="evenodd" clip-rule="evenodd" d="M72.9933 396.703H80.7527C82.6925 396.703 84.6323 398.602 84.6323 400.501C84.6323 402.399 82.6925 404.298 80.7527 404.298H72.9933C71.0535 404.298 69.1136 402.4 69.1136 400.501C69.1136 398.602 71.0535 396.703 72.9933 396.703ZM91.099 396.703H91.7453C93.6852 396.703 94.9786 398.602 94.9786 400.501C94.9786 402.399 93.6852 404.298 91.7453 404.298H91.099C89.1591 404.298 87.8657 402.4 87.8657 400.501C87.8657 398.602 89.1591 396.703 91.099 396.703Z" fill="#FEFEFE"/>
<path fill-rule="evenodd" clip-rule="evenodd" d="M72.9933 444.169H80.7527C82.6925 444.169 84.6323 446.067 84.6323 447.967C84.6323 450.498 82.6925 451.764 80.7527 451.764H72.9933C71.0535 451.764 69.1136 450.498 69.1136 447.967C69.1136 446.067 71.0535 444.169 72.9933 444.169ZM91.099 444.169H91.7453C93.6852 444.169 94.9786 446.067 94.9786 447.967C94.9786 450.498 93.6852 451.764 91.7453 451.764H91.099C89.1591 451.764 87.8657 450.498 87.8657 447.967C87.8657 446.067 89.1591 444.169 91.099 444.169Z" fill="#FEFEFE"/>
<path fill-rule="evenodd" clip-rule="evenodd" d="M72.9933 492.268H80.7527C82.6925 492.268 84.6323 494.167 84.6323 496.065C84.6323 498.597 82.6925 499.863 80.7527 499.863H72.9933C71.0535 499.863 69.1136 498.597 69.1136 496.065C69.1136 494.167 71.0535 492.268 72.9933 492.268ZM91.099 492.268H91.7453C93.6852 492.268 94.9786 494.167 94.9786 496.065C94.9786 498.597 93.6852 499.863 91.7453 499.863H91.099C89.1591 499.863 87.8657 498.597 87.8657 496.065C87.8657 494.167 89.1591 492.268 91.099 492.268Z" fill="#FEFEFE"/>
<path d="M341.991 139.124H169.988V231.524H341.991V139.124Z" fill="#FEFEFE"/>
<path fill-rule="evenodd" clip-rule="evenodd" d="M197.792 165.071H314.186V170.134H197.792V165.071ZM217.191 200.512H294.787V204.942H217.191V200.512ZM197.792 188.487H314.186V193.55H197.792V188.487ZM197.792 177.095H314.186V182.158H197.792V177.095Z" fill="#595757"/>
</svg>
