<svg width="480" height="620" viewBox="0 0 480 620" fill="none" xmlns="http://www.w3.org/2000/svg">
<rect width="480" height="620" fill="#FFF9F9" fill-opacity="0.82"/>
<path d="M302.419 324.849C290.603 348.41 254.273 384.55 214.648 390.198C156.857 398.43 126.425 375.528 117.568 368.337C104.468 357.703 91.4147 346.743 81.1311 333.291C57.5824 302.483 50.8785 260.009 60.6422 222.295C70.4058 184.581 83.648 160.763 115.598 139.121C121.276 135.276 142.138 126.675 148.612 124.479C157.078 121.605 187.105 117.433 196.008 118.064C236.945 120.956 250.771 145.919 291.8 145.078C304.062 144.826 316.273 142.233 328.503 143.135C340.733 144.036 353.695 149.395 359.216 160.51C361.378 164.856 362.234 169.738 362.92 174.555C364.397 184.894 365.216 195.327 365.372 205.774C360.969 205.611 347.943 198.813 347.943 198.813C351.698 187.226 354.334 184.553 351.385 173.77C350.05 168.888 343.452 167.252 338.681 168.738C333.91 170.219 330.27 174.153 327.371 178.279C312.97 198.757 311.884 225.678 312.257 250.837C312.629 275.992 313.664 302.422 302.419 324.849Z" fill="#E2621B"/>
<mask id="mask0_2090_114585" style="mask-type:luminance" maskUnits="userSpaceOnUse" x="56" y="118" width="310" height="274">
<path d="M302.419 324.849C290.603 348.41 254.273 384.55 214.648 390.198C156.857 398.43 126.425 375.528 117.568 368.337C104.468 357.703 91.4147 346.743 81.1311 333.291C57.5824 302.483 50.8785 260.009 60.6422 222.295C70.4058 184.581 83.648 160.763 115.598 139.121C121.276 135.276 142.138 126.675 148.612 124.479C157.078 121.605 187.105 117.433 196.008 118.064C236.945 120.956 250.771 145.919 291.8 145.078C304.062 144.826 316.273 142.233 328.503 143.135C340.733 144.036 353.695 149.395 359.216 160.51C361.378 164.856 362.234 169.738 362.92 174.555C364.397 184.894 365.216 195.327 365.372 205.774C360.969 205.611 347.943 198.813 347.943 198.813C351.698 187.226 354.334 184.553 351.385 173.77C350.05 168.888 343.452 167.252 338.681 168.738C333.91 170.219 330.27 174.153 327.371 178.279C312.97 198.757 311.884 225.678 312.257 250.837C312.629 275.992 313.664 302.422 302.419 324.849Z" fill="white"/>
</mask>
<g mask="url(#mask0_2090_114585)">
<g opacity="0.44">
<path d="M380.096 154.778C374.542 146.709 370.088 138.024 364.447 129.945C356.814 119.008 343.084 115.083 330.799 112.159C306.556 106.384 215.365 82.2101 191.6 88.5595C145.442 100.894 67.9074 129.058 47.0366 172.784C19.5584 230.35 49.719 333.264 84.9547 386.157C100.994 410.237 199.777 419.979 228.722 424.413C257.724 428.851 289.633 425.8 313.301 407.275C322.393 400.159 328.853 392.105 328.853 379.742C328.853 366.641 319.379 351.345 305.801 348.995C297.28 347.523 301.384 355.512 292.715 356.213C259.536 358.886 233.816 349.331 225.874 338.538C203.453 308.062 198.603 272.811 213.24 238.246C225.423 209.475 240.81 185.885 268.228 171.584C282.427 164.178 294.919 159.118 310.49 156.343C318.744 154.871 333.891 154.217 342.09 154.741C352.204 155.385 361.181 159.389 363.55 179.442C364.342 186.137 384.228 160.782 380.096 154.778Z" fill="#CE5113"/>
</g>
</g>
<mask id="mask1_2090_114585" style="mask-type:luminance" maskUnits="userSpaceOnUse" x="56" y="118" width="310" height="274">
<path d="M302.419 324.849C290.603 348.41 254.273 384.55 214.648 390.198C156.857 398.43 126.425 375.528 117.568 368.337C104.468 357.703 91.4147 346.743 81.1311 333.291C57.5824 302.483 50.8785 260.009 60.6422 222.295C70.4058 184.581 83.648 160.763 115.598 139.121C121.276 135.276 142.138 126.675 148.612 124.479C157.078 121.605 187.105 117.433 196.008 118.064C236.945 120.956 250.771 145.919 291.8 145.078C304.062 144.826 316.273 142.233 328.503 143.135C340.733 144.036 353.695 149.395 359.216 160.51C361.378 164.856 362.234 169.738 362.92 174.555C364.397 184.894 365.216 195.327 365.372 205.774C360.969 205.611 347.943 198.813 347.943 198.813C351.698 187.226 354.334 184.553 351.385 173.77C350.05 168.888 343.452 167.252 338.681 168.738C333.91 170.219 330.27 174.153 327.371 178.279C312.97 198.757 311.884 225.678 312.257 250.837C312.629 275.992 313.664 302.422 302.419 324.849Z" fill="white"/>
</mask>
<g mask="url(#mask1_2090_114585)">
<g opacity="0.44">
<path d="M310.733 116.041C303.1 105.104 289.37 101.179 277.085 98.2542C252.842 92.4794 161.651 68.3057 137.886 74.6551C91.7276 86.9896 14.1935 115.153 -6.6774 158.88C-34.1555 216.446 -3.99493 319.359 31.2407 372.253C47.2804 396.328 146.067 406.074 175.009 410.508C204.01 414.947 235.919 411.896 259.587 393.371C268.679 386.255 263.788 382.073 251.636 381.349C188.968 377.607 172.156 345.621 164.214 334.824C141.793 304.348 144.885 258.906 159.521 224.342C171.705 195.57 187.091 171.981 214.509 157.679C228.709 150.274 241.201 145.214 256.771 142.439C265.026 140.967 280.173 140.313 288.367 140.836C298.49 141.476 316.37 124.119 310.733 116.041Z" fill="#CE5113"/>
</g>
</g>
<mask id="mask2_2090_114585" style="mask-type:luminance" maskUnits="userSpaceOnUse" x="56" y="118" width="310" height="274">
<path d="M302.419 324.849C290.603 348.41 254.273 384.55 214.648 390.198C156.857 398.43 126.425 375.528 117.568 368.337C104.468 357.703 91.4147 346.743 81.1311 333.291C57.5824 302.483 50.8785 260.009 60.6422 222.295C70.4058 184.581 83.648 160.763 115.598 139.121C121.276 135.276 142.138 126.675 148.612 124.479C157.078 121.605 187.105 117.433 196.008 118.064C236.945 120.956 250.771 145.919 291.8 145.078C304.062 144.826 316.273 142.233 328.503 143.135C340.733 144.036 353.695 149.395 359.216 160.51C361.378 164.856 362.234 169.738 362.92 174.555C364.397 184.894 365.216 195.327 365.372 205.774C360.969 205.611 347.943 198.813 347.943 198.813C351.698 187.226 354.334 184.553 351.385 173.77C350.05 168.888 343.452 167.252 338.681 168.738C333.91 170.219 330.27 174.153 327.371 178.279C312.97 198.757 311.884 225.678 312.257 250.837C312.629 275.992 313.664 302.422 302.419 324.849Z" fill="white"/>
</mask>
<g mask="url(#mask2_2090_114585)">
<g opacity="0.88">
<path d="M249.644 110.691C242.011 99.7539 228.281 95.8293 215.996 92.9045C191.752 87.1297 100.562 62.956 76.7968 69.3054C30.638 81.6399 -46.8962 109.804 -67.767 153.53C-95.2451 211.096 -65.0845 314.009 -29.8489 366.903C-13.8092 390.983 84.9776 400.725 113.919 405.158C142.92 409.597 199.533 415.376 223.201 396.851C232.293 389.736 224.291 389.021 212.14 388.297C149.472 384.554 111.066 340.267 103.125 329.474C80.7031 298.998 83.7951 253.556 98.4314 218.992C110.615 190.221 126.002 166.631 153.42 152.33C167.619 144.924 180.111 139.864 195.681 137.089C203.936 135.617 242.388 127.876 250.583 128.399C260.7 129.044 255.28 118.774 249.644 110.691Z" fill="#CE5113"/>
</g>
</g>
<mask id="mask3_2090_114585" style="mask-type:luminance" maskUnits="userSpaceOnUse" x="56" y="118" width="310" height="274">
<path d="M302.419 324.849C290.603 348.41 254.273 384.55 214.648 390.198C156.857 398.43 126.425 375.528 117.568 368.337C104.468 357.703 91.4147 346.743 81.1311 333.291C57.5824 302.483 50.8785 260.009 60.6422 222.295C70.4058 184.581 83.648 160.763 115.598 139.121C121.276 135.276 142.138 126.675 148.612 124.479C157.078 121.605 187.105 117.433 196.008 118.064C236.945 120.956 250.771 145.919 291.8 145.078C304.062 144.826 316.273 142.233 328.503 143.135C340.733 144.036 353.695 149.395 359.216 160.51C361.378 164.856 362.234 169.738 362.92 174.555C364.397 184.894 365.216 195.327 365.372 205.774C360.969 205.611 347.943 198.813 347.943 198.813C351.698 187.226 354.334 184.553 351.385 173.77C350.05 168.888 343.452 167.252 338.681 168.738C333.91 170.219 330.27 174.153 327.371 178.279C312.97 198.757 311.884 225.678 312.257 250.837C312.629 275.992 313.664 302.422 302.419 324.849Z" fill="white"/>
</mask>
<g mask="url(#mask3_2090_114585)">
<g opacity="0.88">
<path d="M227.522 108.551C219.888 97.614 206.158 93.6894 193.873 90.7646C169.63 84.9898 78.4395 60.8161 54.6745 67.1655C8.51568 79.5 -69.0184 107.664 -89.8893 151.39C-117.367 208.956 -87.2068 311.87 -51.9711 364.763C-35.9315 388.839 62.8507 398.585 91.7966 403.019C120.798 407.457 199.528 430.351 223.197 411.826C232.288 404.71 216.916 396.51 204.764 395.781C142.092 392.039 97.2076 347.383 89.266 336.59C66.8445 306.113 61.6729 251.412 76.3091 216.852C88.493 188.081 112.042 157.674 139.46 143.373C153.659 135.968 182.904 127.651 198.479 124.876C206.734 123.404 258.713 124.67 266.908 125.194C277.025 125.834 233.158 116.634 227.522 108.551Z" fill="#CE5113"/>
</g>
</g>
<g opacity="0.17">
<path d="M149.918 157.88C155.518 171.607 166.321 178.998 178.814 186.133C191.614 193.445 201.654 202.28 211.256 213.455C213.249 215.773 217.362 228.715 219.741 239.358C220.827 244.212 221.209 248.015 221.038 255.818C221.793 251.706 221.65 251.931 220.615 256.491C218.549 264.728 218.701 273.039 221.614 281.015C229.822 303.506 255.409 318.569 277.706 304.189C319.315 277.356 298.609 207.297 274.757 174.139C260.001 153.628 240.239 142.275 217.528 132.772C199.5 125.226 169.473 121.989 155.03 138.243C150.678 143.144 147.199 151.213 149.918 157.88Z" fill="#FAA73D"/>
</g>
<g opacity="0.33">
<path d="M239.613 182.993C240.616 196.664 249.101 211.451 252.501 224.963C258.349 248.179 246.156 271.633 255.809 293.886C260.489 304.674 275.176 304.086 282.561 297.386C304.181 277.768 298.043 238.942 288.57 214.866C283.329 201.541 264.519 166.949 245.852 174.672C242.503 176.059 239.31 178.877 239.613 182.993Z" fill="#FAA73D"/>
</g>
<g opacity="0.29">
<path d="M256.582 364.478C269.526 364.478 280.324 353.512 280.324 340.37C280.324 327.227 269.526 316.261 256.582 316.261C243.639 316.261 232.841 327.227 232.841 340.37C232.841 353.512 243.639 364.478 256.582 364.478Z" fill="#FAA73D"/>
</g>
<g opacity="0.22">
<path d="M324.85 164.015C311.898 172.966 300.496 191.024 301.292 207.545C301.522 212.287 307.278 213.764 309.85 209.9C313.858 203.868 314.106 195.739 315.523 188.754C317.253 180.227 321.339 173.448 327.362 167.322C328.995 165.664 326.838 162.641 324.85 164.015Z" fill="#FAA73D"/>
</g>
<g opacity="0.22">
<path d="M296.861 174.42C295.186 175.434 293.682 176.76 292.011 177.742C290.948 178.368 290.221 179.601 290.249 180.858C290.254 181.199 290.263 181.535 290.281 181.876C290.378 184.133 292.729 185.652 294.74 184.474C295.563 183.993 296.369 183.554 296.875 182.68C297.344 181.867 297.289 180.993 297.464 180.115C297.754 178.648 298.154 177.204 298.6 175.779C298.922 174.761 297.731 173.892 296.861 174.42Z" fill="#FAA73D"/>
</g>
<g opacity="0.5">
<path d="M354.909 187.38C353.432 190.604 350.244 195 351.624 198.677C352.397 200.733 354.647 201.439 356.326 199.939C359.349 197.238 358.388 191.921 358.222 188.291C358.144 186.642 355.705 185.642 354.909 187.38Z" fill="#FAA73D"/>
</g>
<g opacity="0.29">
<path d="M101.882 174.723C77.6065 194.552 69.2922 228.5 66.5868 258.518C63.2049 296.05 81.9408 330.932 109.161 354.998C119.804 364.408 136.073 352.62 128.937 339.505C115.253 314.364 97.5065 291.181 94.8011 261.742C93.6416 249.099 94.3271 236.405 96.5541 223.935C99.186 209.213 100.539 192.753 108.163 179.643C110.624 175.415 105.25 171.971 101.882 174.723Z" fill="#C4350D"/>
</g>
<g opacity="0.42">
<path d="M95.3624 266.255C93.8394 271.273 91.7873 276.104 90.6922 281.248C90.6002 281.673 91.2397 281.856 91.3364 281.426C92.4774 276.291 94.5802 271.474 96.1492 266.47C96.3056 265.97 95.5142 265.751 95.3624 266.255Z" fill="#C73409"/>
</g>
<g opacity="0.42">
<path d="M82.7691 303.315C84.2921 296.554 84.8488 289.322 84.3105 282.407C84.2414 281.543 83.0083 281.524 82.9761 282.407C82.7415 289.317 81.1219 296.456 82.4102 303.315C82.447 303.502 82.7277 303.493 82.7691 303.315Z" fill="#C73409"/>
</g>
<g opacity="0.42">
<path d="M104.04 239.32C122.523 214.866 142.787 192.468 167.564 174.448C192.631 156.217 221.333 152.292 251.116 149.62C252.248 149.517 252.271 147.882 251.116 147.816C187.225 144.139 138.172 189.632 103.272 238.867C102.931 239.344 103.7 239.774 104.04 239.32Z" fill="#C73409"/>
</g>
<g opacity="0.42">
<path d="M98.1738 219.09C106.166 211.914 112.875 203.434 120.729 196.084C129.765 187.628 139.86 180.4 150.517 174.223C151.69 173.546 150.659 171.808 149.468 172.406C127.598 183.437 114.77 201.831 97.5388 218.45C97.1293 218.856 97.7505 219.473 98.1738 219.09Z" fill="#C73409"/>
</g>
<g opacity="0.42">
<path d="M188.904 132.421C156.194 140.518 127.064 154.913 108.108 184.376C107.873 184.745 108.443 185.077 108.683 184.717C128.85 154.212 157.911 147.064 189.102 132.903C189.378 132.776 189.175 132.356 188.904 132.421Z" fill="#C73409"/>
</g>
<g opacity="0.42">
<path d="M127.446 309.309C135.475 303.511 143.583 297.895 151.823 292.41C160.616 286.561 168.309 279.323 177.479 274.016C177.686 273.894 177.502 273.572 177.291 273.689C169.091 278.3 161.891 284.22 154.405 289.896C145.612 296.568 136.184 302.469 127.262 308.987C127.069 309.127 127.253 309.454 127.446 309.309Z" fill="#C73409"/>
</g>
<g opacity="0.42">
<path d="M122.219 288.962C135.37 276.497 149.895 265.657 164.085 254.467C164.582 254.075 163.929 253.22 163.414 253.58C148.538 264.069 134.532 275.413 121.957 288.696C121.792 288.869 122.045 289.125 122.219 288.962Z" fill="#C73409"/>
</g>
<g opacity="0.42">
<path d="M143.679 343.416C168.309 340.515 194.701 326.713 215.977 314.224C216.309 314.033 216.009 313.514 215.678 313.706C194.467 325.984 168.245 340.515 143.679 343.337C143.629 343.341 143.629 343.421 143.679 343.416Z" fill="#C73409"/>
</g>
<g opacity="0.46">
<path d="M165.871 194.304C192.594 177.9 224.273 164.599 255.851 163.075C256.421 163.047 256.426 162.183 255.851 162.174C224.765 161.65 191.508 177.76 165.719 194.047C165.562 194.145 165.709 194.402 165.871 194.304Z" fill="#F3A538"/>
</g>
<g opacity="0.46">
<path d="M288.505 159.562C299.097 158.324 309.68 156.698 320.203 154.96C320.612 154.89 320.52 154.175 320.106 154.222C309.505 155.464 299.046 157.805 288.468 159.268C288.303 159.291 288.34 159.585 288.505 159.562Z" fill="#F3A538"/>
</g>
<g opacity="0.46">
<path d="M278.507 172.284C285.703 169.654 293.203 167.051 300.795 165.949C301.54 165.841 301.361 164.561 300.616 164.617C292.495 165.234 285.597 168.402 278.479 172.214C278.443 172.238 278.47 172.298 278.507 172.284Z" fill="#F3A538"/>
</g>
<g opacity="0.46">
<path d="M334.324 158.497C342.007 158.305 348.923 162.8 353.552 168.771C354.357 169.808 355.889 168.486 355.296 167.402C351.242 160.029 342.408 155.647 334.287 158.202C334.126 158.249 334.153 158.501 334.324 158.497Z" fill="#F3A538"/>
</g>
<g opacity="0.46">
<path d="M145.759 214.469C125.873 234.433 111.858 259.551 99.5817 284.855C99.3332 285.374 100.065 285.822 100.35 285.313C114.121 260.49 126.982 235.952 145.81 214.521C145.842 214.488 145.796 214.436 145.759 214.469Z" fill="#F3A538"/>
</g>
<g opacity="0.46">
<path d="M151.598 281.375C177.663 263.686 201.668 243.105 227.167 224.608C227.742 224.192 227.213 223.23 226.606 223.636C200.384 241.166 177.245 263.008 151.556 281.309C151.524 281.337 151.556 281.403 151.598 281.375Z" fill="#F3A538"/>
</g>
<g opacity="0.46">
<path d="M133.354 246.258C141.314 238.11 149.849 230.574 157.708 222.328C158.141 221.874 157.478 221.202 157.027 221.636C148.869 229.57 140.684 237.484 132.931 245.833C132.673 246.114 133.087 246.534 133.354 246.258Z" fill="#F3A538"/>
</g>
<g opacity="0.46">
<path d="M180.111 203.429C197.177 192.16 216.391 185.581 234.902 177.26C235.164 177.143 234.939 176.751 234.676 176.872C216.166 185.222 196.993 191.809 179.923 203.107C179.725 203.233 179.909 203.56 180.111 203.429Z" fill="#F3A538"/>
</g>
<g opacity="0.46">
<path d="M99.232 202.518C78.49 223.813 74.3029 258.509 74.0223 287.224C74.0131 288.121 75.2508 288.065 75.3566 287.224C79.0099 258.028 78.8719 226.07 99.6507 202.943C99.9084 202.658 99.5035 202.242 99.232 202.518Z" fill="#F3A538"/>
</g>
<g opacity="0.46">
<path d="M109.976 341.884C126.885 342.711 143.26 338.45 159.171 332.941C160.156 332.6 159.76 331.058 158.739 331.348C142.561 335.88 126.784 340.225 109.976 341.659C109.833 341.669 109.828 341.874 109.976 341.884Z" fill="#F3A538"/>
</g>
<g opacity="0.46">
<path d="M136.239 368.225C154.372 371.024 172.059 370.641 190.192 368.052C190.892 367.954 190.726 366.716 190.027 366.796C172.17 368.879 154.216 369.459 136.308 367.707C136.018 367.683 135.949 368.183 136.239 368.225Z" fill="#F3A538"/>
</g>
<g opacity="0.46">
<path d="M281.373 328.909C273.846 338.342 265.32 346.864 256.095 354.578C255.685 354.919 256.265 355.484 256.67 355.162C266.134 347.63 274.495 339.075 281.949 329.493C282.266 329.082 281.705 328.493 281.373 328.909Z" fill="#F3A538"/>
</g>
<g opacity="0.46">
<path d="M303.188 241.769C304.623 268.619 298.872 292.251 286.103 315.724C285.312 317.182 287.378 318.373 288.28 317.014C303.086 294.662 308.994 268.124 304.352 241.61C304.232 240.937 303.151 241.096 303.188 241.769Z" fill="#F3A538"/>
</g>
<g opacity="0.26">
<path d="M274.458 232.672C272.268 244.693 267.786 257.135 271.297 269.311C273.409 276.641 282.482 279.08 287.884 273.759C299.194 262.616 295.945 246.763 293.594 232.672C291.979 222.94 276.206 223.089 274.458 232.672Z" fill="#FFE9D1"/>
</g>
<path d="M54.3385 319.896C63.8721 325.34 72.3613 339.445 84.6924 338.006C86.7031 337.772 86.6801 335.104 84.6924 334.847C72.7662 333.315 65.6344 323.317 55.0103 318.728C54.2465 318.392 53.5701 319.453 54.3385 319.896Z" fill="#542C20"/>
<path d="M54.3385 330.054C61.7003 335.814 70.2999 336.889 79.2215 338.253C80.1878 338.403 80.6295 336.982 79.6356 336.73C71.2109 334.609 62.3537 333.997 55.0148 328.886C54.2879 328.381 53.6805 329.54 54.3385 330.054Z" fill="#542C20"/>
<path d="M61.3184 342.533C70.2631 344.481 79.4332 342.229 87.6877 338.646C88.433 338.323 87.8947 337.122 87.1447 337.342C78.8718 339.744 70.4241 342.682 61.7325 341.014C60.7525 340.823 60.3292 342.318 61.3184 342.533Z" fill="#542C20"/>
<path d="M64.5807 350.966C68.5883 354.928 73.102 355.255 77.671 351.943C79.9761 350.27 81.904 348.051 83.8457 345.976C85.8196 343.864 88.5711 342.22 90.3011 339.977C90.9683 339.113 90.5634 337.95 89.4361 337.861C85.9668 337.576 82.9301 342.192 80.9194 344.486C76.8151 349.172 71.9885 354.765 65.8414 349.691C64.9672 348.971 63.7433 350.135 64.5807 350.966Z" fill="#542C20"/>
<path d="M83.1004 336.211C84.4072 338.636 86.3442 340.557 87.8442 342.869C90.5129 346.985 88.2031 351.321 86.6801 355.269C84.7384 360.287 85.1019 364.997 89.4454 368.505C90.4531 369.318 92.542 368.608 91.9209 367.043C90.4117 363.24 89.1878 360.469 90.6831 356.39C91.608 353.867 93.1218 351.102 93.0619 348.326C92.9377 342.668 88.9899 337.627 83.9654 335.342C83.4041 335.081 82.7738 335.609 83.1004 336.211Z" fill="#542C20"/>
<path d="M81.3611 364.558C77.0038 354.597 90.9177 349.667 89.0358 340.37C88.8334 339.365 87.2368 339.104 86.8043 340.075C85.7874 342.337 85.2077 344.659 83.9469 346.831C82.4976 349.326 80.7629 351.597 79.4746 354.195C77.5467 358.077 78.1587 361.694 80.7261 365.057C81.0252 365.459 81.5313 364.945 81.3611 364.558Z" fill="#542C20"/>
<path d="M98.4314 374.229C97.3179 367.136 100.856 360.525 99.8485 353.368C99.0986 348.009 95.8225 341.711 91.2536 338.833C90.0113 338.052 88.272 339.66 89.1785 340.94C93.0296 346.411 96.8808 350.564 97.5112 357.661C98.0495 363.707 95.4222 368.487 97.2903 374.547C97.525 375.303 98.551 374.981 98.4314 374.229Z" fill="#542C20"/>
<path d="M83.4868 336.043C90.1907 342.664 96.8532 348.574 99.6599 357.984C101.39 363.772 97.8103 371.215 102.683 375.911C103.87 377.055 105.457 375.621 104.836 374.224C101.707 367.183 104.491 359.395 100.939 352.321C97.1891 344.869 90.9729 340.043 84.8488 334.66C83.9194 333.843 82.5896 335.156 83.4868 336.043Z" fill="#542C20"/>
<path d="M94.1938 363.483C97.2535 357.904 99.8992 348.621 94.3548 343.724C93.6738 343.122 92.2889 343.682 92.6846 344.71C93.9223 347.934 94.8333 350.667 94.571 354.19C94.3456 357.213 93.2735 360.128 93.0205 363.156C92.9652 363.805 93.8993 364.016 94.1938 363.483Z" fill="#542C20"/>
<path d="M96.8072 348.28C102.085 356.456 105.319 364.156 106.875 373.771C107.767 379.293 110.671 383.367 115.755 385.479C117.706 386.288 119.114 383.377 117.738 382.022C112.525 376.897 111.54 372.963 109.907 366.006C108.186 358.68 103.253 352.541 98.7305 346.775C97.8563 345.668 96.0526 347.112 96.8072 348.28Z" fill="#542C20"/>
<path d="M84.0804 335.674C84.8028 339.515 89.427 341.374 91.976 343.832C95.887 347.612 97.8425 352.452 101.215 356.549C102.642 358.278 104.726 356.33 104.496 354.61C103.865 349.901 99.9498 345.701 96.7796 342.444C93.568 339.146 89.3028 337.632 86.0589 334.502C85.1617 333.632 83.8642 334.511 84.0804 335.674Z" fill="#542C20"/>
<path d="M63.7111 325.508C66.7248 328.909 70.6174 331.362 74.6618 333.31C77.6802 334.768 82.7231 337.183 86.0819 336.053C87.1264 335.698 87.3242 334.329 86.381 333.717C83.8411 332.063 79.9854 331.89 77.0958 330.829C72.8076 329.255 68.5055 327.241 65.1236 324.078C64.1758 323.186 62.8507 324.536 63.7111 325.508Z" fill="#844C25"/>
<path d="M90.568 343.962C93.3149 346.822 93.5726 351.886 93.9085 355.675C93.9959 356.657 95.5373 357.04 95.7259 355.923C96.5127 351.316 95.183 345.929 91.1064 343.252C90.6739 342.967 90.2229 343.598 90.568 343.962Z" fill="#844C25"/>
<path d="M112.41 372.92C112.014 365.239 112.64 358.488 108.517 351.704C105.103 346.093 99.5081 341.701 93.7198 338.94C92.0312 338.136 90.2091 340.201 91.6539 341.654C95.8732 345.901 100.879 349.233 104.468 354.106C108.324 359.339 109.286 366.968 111.246 373.079C111.448 373.701 112.447 373.626 112.41 372.92Z" fill="#844C25"/>
<path d="M86.9102 342.411C82.3689 347.481 73.4886 353.115 76.0975 361.263C76.5162 362.576 78.4349 362.674 78.8122 361.263C79.7278 357.839 80.1373 354.9 81.9455 351.756C83.6802 348.737 86.0314 346.116 87.8396 343.136C88.1939 342.566 87.3657 341.907 86.9102 342.411Z" fill="#844C25"/>
<path d="M77.6112 343.977C72.1129 345.803 67.0332 344.864 61.613 343.542C60.3523 343.234 59.3216 344.836 60.3155 345.803C64.5716 349.938 73.6082 347.924 78.2968 345.626C79.2078 345.177 78.5637 343.659 77.6112 343.977Z" fill="#844C25"/>
<path d="M102.324 360.086C102.646 367.73 98.574 377.415 105.973 382.98C107.105 383.83 108.674 382.171 107.896 381.027C103.727 374.855 104.408 367.113 103.125 359.979C103.042 359.516 102.306 359.624 102.324 360.086Z" fill="#844C25"/>
<path d="M326.198 496.574C312.22 501.914 289.352 503.409 274.674 500.629C230.222 492.205 209.255 468.985 199.537 455.202C185.646 435.513 178.57 411.826 178.832 387.61C178.942 377.686 181.105 367.879 181.271 357.96C181.441 348.041 179.237 337.417 172.183 330.553C169.036 327.493 164.688 324.573 164.789 320.148C164.886 316.023 168.935 313.22 172.731 311.743C179.587 309.076 187.059 308.314 193.855 305.497C211.505 298.185 221.061 278.935 235.942 266.844C244.468 259.915 254.687 255.421 265.136 252.187C292.094 243.848 321.666 243.633 348.279 253.042C374.892 262.452 398.284 281.701 411.582 306.926C423.816 330.133 427.212 358.002 420.913 383.54C417.798 396.169 419.316 428.141 420.232 431.533C422.118 438.531 419.993 446.498 414.881 451.571C411.522 454.907 407.146 456.935 402.982 459.15C374.51 474.292 368.344 480.473 326.198 496.574Z" fill="#FEFBEC"/>
<mask id="mask4_2090_114585" style="mask-type:luminance" maskUnits="userSpaceOnUse" x="164" y="245" width="261" height="257">
<path d="M326.198 496.574C312.22 501.914 289.352 503.409 274.674 500.629C230.222 492.205 209.255 468.985 199.537 455.202C185.646 435.513 178.57 411.826 178.832 387.61C178.942 377.686 181.105 367.879 181.271 357.96C181.441 348.041 179.237 337.417 172.183 330.553C169.036 327.493 164.688 324.573 164.789 320.148C164.886 316.023 168.935 313.22 172.731 311.743C179.587 309.076 187.468 310.589 194.264 307.772C211.914 300.46 221.061 278.935 235.942 266.844C244.468 259.915 254.687 255.421 265.136 252.187C292.094 243.848 321.666 243.633 348.279 253.042C374.892 262.452 398.284 281.701 411.582 306.926C423.816 330.133 427.212 358.002 420.913 383.54C417.798 396.169 419.316 428.141 420.232 431.533C422.118 438.531 419.993 446.498 414.881 451.571C411.522 454.907 407.146 456.935 402.982 459.15C374.51 474.292 368.344 480.473 326.198 496.574Z" fill="white"/>
</mask>
<g mask="url(#mask4_2090_114585)">
<g opacity="0.86">
<path d="M156.852 337.057C150.834 351.676 158.104 373.397 158.532 388.969C159.075 408.663 161.251 426.926 167.601 445.619C178.745 478.427 209.324 504.04 239.876 517.127C275.341 532.32 319.802 525.873 356.234 518.332C376.167 514.206 396.333 508.927 415.327 501.498C431.123 495.322 447.503 493.359 461.803 483.431C484.708 467.527 459.53 428.571 435.448 441.933C424.308 448.114 411.232 448.983 399.476 453.856C384.462 460.08 357.099 472.606 341.308 476.385C311.152 483.599 286.021 482.394 255.791 472.452C229.021 463.649 209.743 438.962 199.252 413.475C189.539 389.871 194.743 329.783 164.789 320.144C162.153 319.298 157.911 334.483 156.852 337.057Z" fill="#E59739"/>
</g>
</g>
<path d="M167.085 321.326C169.639 325.012 173.403 327.769 176.508 330.96C181.013 335.59 183.511 340.44 185.771 346.429C186.263 347.733 188.08 347.541 188.172 346.098C188.812 335.74 176.035 324.424 167.38 320.938C167.168 320.854 166.956 321.144 167.085 321.326Z" fill="#88441F"/>
<path d="M166.828 318.635C168.162 320.008 170.315 320.84 172.119 320.06C172.823 319.751 172.768 318.565 172.119 318.242C170.679 317.523 168.705 317.682 167.14 317.869C166.772 317.911 166.533 318.331 166.828 318.635Z" fill="#88441F"/>
<path d="M169.611 316C170.173 316.229 170.614 316.387 171.208 316.467C171.912 316.556 172.05 315.532 171.544 315.205C171.042 314.878 170.568 314.733 170.002 314.551C169.078 314.248 168.751 315.649 169.611 316Z" fill="#88441F"/>
<path d="M413.105 451.8C414.632 451.777 415.598 452.917 417.085 453.01C418.023 453.071 418.723 452.029 418.479 451.156C417.784 448.693 414.798 448.525 412.764 449.217C411.407 449.675 411.591 451.819 413.105 451.8Z" fill="#88441F"/>
<path d="M415.617 446.241C417.177 447.558 419.109 448.693 420.913 447.231C421.778 446.526 421.308 445.302 420.6 444.75C419.542 443.928 418.12 444.348 416.882 444.045C415.704 443.75 414.563 445.348 415.617 446.241Z" fill="#88441F"/>
<path d="M417.319 442.442C418.966 442.877 420.54 443.573 422.252 443.246C423.485 443.012 423.857 441.237 422.988 440.419C421.718 439.223 419.988 439.027 418.341 438.672C415.93 438.153 414.899 441.807 417.319 442.442Z" fill="#88441F"/>
<path d="M419.473 437.368C421.35 437.831 423.531 438.662 425.284 437.485C426.223 436.854 426.255 435.513 425.284 434.887C423.618 433.813 421.654 434.49 419.827 434.71C418.428 434.878 417.894 436.98 419.473 437.368Z" fill="#88441F"/>
<path d="M418.074 433.593C419.698 434.065 421.253 434.135 422.739 433.252C423.95 432.537 423.388 430.706 422.049 430.659C420.986 430.622 419.983 430.659 418.962 430.327C416.91 429.668 416.008 432.99 418.074 433.593Z" fill="#88441F"/>
<path d="M418.101 429.14C419.726 429.837 421.502 429.981 422.841 428.669C423.531 427.991 423.48 426.496 422.509 426.071C421.414 425.59 420.273 425.65 419.164 425.225C418.143 424.833 416.974 425.65 416.703 426.645C416.39 427.814 417.098 428.711 418.101 429.14Z" fill="#88441F"/>
<path d="M185.991 324.013C225.488 341.328 242.544 383.821 276.05 409.088C292.168 421.245 312.279 430.636 332.313 433C357.233 435.943 381.913 432.402 406.75 437.747C414.255 439.363 420.016 428.015 412.258 424.483C391.396 414.984 371.068 414.648 348.537 415.148C323.327 415.708 301.108 405.243 280.725 391.03C247.757 368.043 230.779 326.442 188.016 319.13C185.315 318.672 183.051 322.723 185.991 324.013Z" fill="#FBE9BB"/>
<path d="M199.238 336.165C219.276 365.212 236.751 401.897 265.937 422.852C298.945 446.549 343.968 457.374 382.594 442.895C384.011 442.363 383.841 440.195 382.231 440.162C362.349 439.774 344.547 444.554 324.408 440.77C303.385 436.817 282.906 428.37 265.987 415.017C238.615 393.417 226.068 358.372 200.053 335.529C199.634 335.16 198.884 335.651 199.238 336.165Z" fill="#FBE9BB"/>
<path d="M251.963 354.545C278.369 375.911 306.974 394.539 340.664 400.781C342.799 401.178 343.701 398.089 341.57 397.445C309.289 387.708 280.858 372.201 253.265 352.835C252.266 352.129 251.01 353.774 251.963 354.545Z" fill="#FBE9BB"/>
<path d="M194.655 314.883C212.011 323.746 228.612 334.058 246.174 342.528C265.384 351.793 285.643 357.694 305.134 366.122C320.994 372.981 336.215 382.671 350.119 392.95C361.167 401.112 372.729 411.681 387.292 410.349C388.944 410.2 390.145 407.621 388.244 406.775C373.355 400.154 362.335 389.628 349.714 379.508C336.435 368.865 321.689 360.142 306.141 353.419C270.427 337.977 232.781 323.947 195.622 312.542C194.273 312.131 193.372 314.224 194.655 314.883Z" fill="#FBE9BB"/>
<path d="M215.683 313.341C232.399 318.91 249.184 323.302 266.355 327.138C284.074 331.1 299.714 341.958 316.977 347.696C352.682 359.563 378.568 389.044 405.007 414.456C405.595 415.021 406.695 414.25 406.171 413.545C385.014 384.984 361.742 361.577 329.989 345.322C323.189 341.841 315.39 340.005 308.226 337.454C297.896 333.777 288.505 327.61 278.323 323.494C259.09 315.724 236.066 316.168 215.936 312.397C215.333 312.285 215.089 313.145 215.683 313.341Z" fill="#FBE9BB"/>
<path d="M201.359 307.207C220.974 308.604 239.116 302.633 258.147 309.669C276.777 316.56 295.609 322.952 314.295 329.745C355.917 344.869 388.902 369.477 408.384 410.387C409.359 412.438 412.359 410.643 411.388 408.602C402.002 388.862 391.382 370.454 374.827 356.077C360.302 343.463 342.946 334.693 325.429 327.264C304.02 318.186 281.58 311.57 259.835 303.446C238.564 295.498 222.607 302.506 201.235 306.324C200.72 306.417 200.885 307.174 201.359 307.207Z" fill="#FBE9BB"/>
<path d="M200.457 350.742C205.303 363.389 214.082 374.327 220.933 385.942C228.377 398.561 236.268 410.788 245.645 422.016C262.633 442.353 291.777 453.525 317.373 455.403C319.531 455.562 319.793 452.319 317.865 451.712C292.462 443.694 268.486 438.882 249.464 418.138C239.963 407.775 232.546 395.375 225.235 383.386C218.149 371.771 208.703 361.782 201.875 350.134C201.442 349.387 200.131 349.887 200.457 350.742Z" fill="#FBE9BB"/>
<path d="M199.537 363.805C207.502 377.013 211.059 392.235 219.235 405.579C226.035 416.671 234.069 427.468 245.061 434.523C246.446 435.411 248.024 433.35 246.81 432.22C235.399 421.59 226.712 409.504 218.715 396.099C212.232 385.232 208.45 372.958 200.697 362.894C200.177 362.212 199.109 363.09 199.537 363.805Z" fill="#FBE9BB"/>
<path d="M334.448 457.01C357.003 462.182 379.995 454.917 402.016 450.076C404.694 449.488 403.93 445.549 401.395 445.423C378.72 444.306 358.507 458.098 335.06 454.763C333.638 454.557 332.966 456.669 334.448 457.01Z" fill="#FBE9BB"/>
<path d="M251.655 439.368C266.019 465.158 312.482 465.948 337.406 464.579C339.573 464.462 339.527 461.388 337.406 461.196C310.163 458.711 272.815 461.304 252.294 438.868C251.972 438.518 251.429 438.966 251.655 439.368Z" fill="#FBE9BB"/>
<path d="M199.763 384.984C210.217 406.906 219.966 432.481 239.972 447.479C259.269 461.949 278.3 475.801 303.22 474.685C305.042 474.605 305.028 471.938 303.22 471.825C277.568 470.265 258.128 457.118 238.923 440.686C222.239 426.412 213.055 402.336 201.428 383.998C200.747 382.928 199.224 383.853 199.763 384.984Z" fill="#FBE9BB"/>
<path d="M198.907 377.966C198.718 373.981 198.953 369.033 195.847 366.16C194.803 365.193 193.408 366.165 193.62 367.477C193.905 369.243 194.476 370.547 195.249 372.15C196.174 374.07 196.799 376.144 197.453 378.167C197.701 378.943 198.948 378.849 198.907 377.966Z" fill="#FBE9BB"/>
<path d="M188.61 334.735C191.163 338.776 194.803 343.257 199.395 344.789C200.674 345.219 201.396 343.556 200.619 342.654C197.55 339.08 192.893 337.375 189.539 334.006C189.07 333.534 188.241 334.151 188.61 334.735Z" fill="#FBE9BB"/>
<path d="M411.062 388.689C412.032 360.651 415.727 337.216 402.025 311.533C391.35 291.527 373.604 275.852 353.892 265.559C331.351 253.785 306.146 251.627 281.567 256.617C270.62 258.841 257.475 261.298 247.541 266.643C237.331 272.138 230.811 280.767 221.568 287.098C218.402 289.266 219.75 293.77 223.436 294.106C230.77 294.774 232.873 291.148 239.08 287.392C247.831 282.099 255.934 277.529 265.937 275.053C291.823 268.652 314.419 265.667 340.047 275.193C359.579 282.454 375.844 297.54 387.421 314.729C402.517 337.146 402.186 363.59 409.304 388.927C409.594 389.923 411.025 389.698 411.062 388.689Z" fill="#FBE9BB"/>
<path d="M247.477 294.368C273.584 299.016 300.73 303.95 325.218 314.5C336.942 319.551 348.256 325.592 359.138 332.296C370.512 339.304 377.597 350.027 385.705 360.343C387.062 362.072 389.409 360.156 389.045 358.367C383.726 332.035 357.886 317.448 336.058 306.613C307.821 292.602 278.691 290.307 247.877 291.34C246.234 291.396 245.728 294.059 247.477 294.368Z" fill="#FBE9BB"/>
<path d="M400.603 374.07C401.353 359.852 396.034 341.225 390.356 328.297C384.016 313.86 371.759 302.31 359.506 293.153C334.811 274.693 294.726 267.414 266.594 282.304C264.717 283.299 265.025 286.645 267.206 287.046C278.792 289.181 290.774 286.827 302.52 286.939C317.607 287.079 331.581 290.929 344.883 298.045C373.916 313.589 392.482 342.08 399.301 374.247C399.458 375.028 400.562 374.803 400.603 374.07Z" fill="#FBE9BB"/>
<g opacity="0.72">
<path d="M405.536 413.923C372.476 392.114 351.849 359.88 318.109 339.187C287.921 320.672 254.687 312.673 193.505 313.687C188.803 313.766 187.353 321.499 189.3 325.489C206.572 360.89 248.006 408.177 281.539 426.286C300.137 436.331 316.149 440.031 337.181 443.507C357.697 446.899 380.671 438.452 401.316 441.33C409.442 442.465 417.034 426.155 410.289 421.702L405.536 413.923Z" fill="#FAE7C6"/>
</g>
<g opacity="0.37">
<path d="M214.486 299.918C229.762 301.507 264.018 296.377 278.995 297.605C296.327 299.026 312.933 301.899 329.166 308.337C343.76 314.126 355.599 322.134 365.266 334.707C376.157 348.868 392.109 376.027 404.257 398.08C409.088 406.854 415.391 392.8 413.675 382.48C407.698 346.509 402.646 328.086 390.945 312.416C379.281 296.797 362.156 286.761 344.533 279.627C311.286 266.171 254.36 273.034 221.673 287.355C217.063 289.368 210.925 299.549 214.486 299.918Z" fill="#FAE7C6"/>
</g>
<g opacity="0.31">
<path d="M187.321 321.709C210.598 333.072 230.623 329.521 255.727 323.111C275.033 318.181 317.962 319.121 336.739 329.142C370.778 347.312 388.728 388.852 396.798 425.594C400 440.171 413.316 442.11 412.152 428.855C406.957 369.771 403.576 300.712 363.67 275.997C338.883 260.644 308.732 257.233 280.922 264.844C247.127 274.095 224.554 304.343 190.942 312.617C183.258 314.509 184.165 320.167 187.321 321.709Z" fill="white"/>
</g>
<g opacity="0.31">
<path d="M222.055 303.768C237.262 304.941 251.802 297.736 266.627 294.933C285.128 291.433 302.99 294.377 320.907 299.259C338.787 304.132 355.585 310.678 367.47 325.727C379.304 340.711 382.097 362.698 391.29 379.363C396.591 388.969 414.609 388.609 414.388 375.247C413.583 327.306 393.54 288.275 347.138 272.665C326.759 265.811 304.223 263.157 282.896 265.101C271.485 266.138 260.102 270.119 249.455 274.221C238.32 278.51 231.147 289.055 220.298 293.62C215.416 295.671 216.953 303.375 222.055 303.768Z" fill="white"/>
</g>
<g opacity="0.31">
<path d="M395.804 440.134C362.386 431.738 325.931 434.892 293.511 423.01C274.665 416.105 261.119 403.163 250.44 386.446C239.112 368.711 228.557 351.05 211.238 338.828C205.22 334.581 198.392 341.341 200.876 347.742C208.809 368.215 221.554 386.404 231.86 405.752C241.293 423.459 258.4 434.387 275.668 443.017C310.42 460.378 357.104 449.184 394.056 448.147C398.261 448.025 400.681 441.358 395.804 440.134Z" fill="white"/>
</g>
</svg>
