<svg width="480" height="620" viewBox="0 0 480 620" fill="none" xmlns="http://www.w3.org/2000/svg">
<rect width="480" height="620" fill="#FFF9F9" fill-opacity="0.82"/>
<path d="M142.146 149.989L102.694 176.68L304.035 474.265L343.486 447.573L142.146 149.989Z" fill="#0A78FF"/>
<path d="M124.348 133.341L93.8627 153.967L107.178 173.647L137.663 153.021L124.348 133.341Z" fill="#FDD000"/>
<path fill-rule="evenodd" clip-rule="evenodd" d="M343.487 447.573L323.762 460.919L304.035 474.266L339.273 497.37L351.826 488.877L343.487 447.573Z" fill="url(#paint0_linear_2090_116956)"/>
<path d="M281.484 344.341L232.17 377.706L293.097 467.757L342.411 434.392L281.484 344.341Z" fill="#717070"/>
<path d="M256.379 361.326L232.17 377.706L293.097 467.757L317.306 451.378L256.379 361.326Z" fill="#595757"/>
<path fill-rule="evenodd" clip-rule="evenodd" d="M175.232 198.89C167.163 186.962 159.093 175.035 151.023 163.108C210.918 160.836 225.534 197.892 230.779 240.42C232.976 257.19 236.607 262.557 242.795 277.498C232.214 281.179 228.986 276.408 225.758 271.637C206.705 245.406 222.664 203.312 175.232 198.89Z" fill="#717070"/>
<path d="M150.754 151.119L100.543 185.091L106.192 193.44L156.403 159.468L150.754 151.119Z" fill="#FDD000"/>
<path d="M123.273 137.547L113.41 144.22L123.497 159.129L133.36 152.456L123.273 137.547Z" fill="#FEFEFE"/>
<path fill-rule="evenodd" clip-rule="evenodd" d="M187.517 247.956C184.827 249.776 182.943 252.788 184.154 254.577L247.502 348.207C248.308 349.399 252.209 349.368 254.899 347.548C257.589 345.729 258.171 342.726 257.365 341.534L194.017 247.905C192.807 246.116 190.206 246.136 187.517 247.956Z" fill="#FEFEFE"/>
<path fill-rule="evenodd" clip-rule="evenodd" d="M167.342 218.138C164.653 219.958 162.77 222.97 163.98 224.759L173.664 239.073C174.875 240.861 178.371 240.234 181.061 238.414C183.751 236.595 184.737 234.188 183.527 232.4L173.843 218.086C172.633 216.297 170.032 216.318 167.342 218.138Z" fill="#FEFEFE"/>
<defs>
<linearGradient id="paint0_linear_2090_116956" x1="261.538" y1="526.491" x2="365.885" y2="455.892" gradientUnits="userSpaceOnUse">
<stop stop-color="#ABABAB"/>
<stop offset="0.3441" stop-color="#7A7A7A"/>
<stop offset="0.7275" stop-color="#545454"/>
<stop offset="0.9219" stop-color="#1F1F1F"/>
</linearGradient>
</defs>
</svg>
