<svg width="480" height="620" viewBox="0 0 480 620" fill="none" xmlns="http://www.w3.org/2000/svg">
<rect width="480" height="620" fill="#FFF9F9" fill-opacity="0.82"/>
<path fill-rule="evenodd" clip-rule="evenodd" d="M354.802 166.682L360.704 171.452L378.411 185.761L101.041 528.999L78.6105 510.873L77.4312 509.92L354.802 166.682Z" fill="#FFA500"/>
<path d="M127.218 496.608L103.607 477.528L94.5463 488.74L118.157 507.82L127.218 496.608Z" fill="#595757"/>
<path d="M354.801 166.682L332.371 148.556L55.0002 491.794L77.4305 509.92L354.801 166.682Z" fill="#FDD000"/>
<path d="M103.606 477.527L81.1763 459.401L72.1154 470.614L94.5456 488.74L103.606 477.527Z" fill="#9E9F9F"/>
<path fill-rule="evenodd" clip-rule="evenodd" d="M354.801 166.682L360.704 171.452L378.411 185.761L399.62 118.463L402.12 108.126L354.801 166.682Z" fill="#D07B00"/>
<path fill-rule="evenodd" clip-rule="evenodd" d="M332.371 148.556L354.801 166.682L402.12 108.126L332.371 148.556Z" fill="#FFA55C"/>
<path fill-rule="evenodd" clip-rule="evenodd" d="M392.105 142.252L402.12 108.126L372.036 126.034L392.105 142.252Z" fill="#3E3938"/>
</svg>
