<svg width="480" height="620" viewBox="0 0 480 620" fill="none" xmlns="http://www.w3.org/2000/svg">
<rect width="480" height="620" fill="#FFF9F9" fill-opacity="0.82"/>
<path d="M220.543 236.825C203.075 241.588 185.608 246.351 168.144 251.115C159.955 253.348 151.758 255.614 143.74 258.694C111.428 271.111 99.2172 295.681 93.7493 315.484C91.8623 322.314 92.1209 343.296 92.3468 350.528C92.558 357.387 98.0369 379.561 99.9312 385.989C102.616 395.1 104.324 404.774 107.989 413.321C121.406 444.606 156.709 482.522 270.421 425.793C278.315 421.853 296.077 409.343 297.396 396.57C299.498 376.236 293.156 373.008 295.582 361.687C296.467 357.553 298.256 353.84 299.713 349.978C303.192 340.766 304.839 330.259 303.44 320.201C302.044 310.142 297.4 300.639 290.42 295.557C287.273 293.263 283.644 291.811 281.116 288.509C276.3 282.219 277.251 271.967 274.563 263.883C272.075 256.401 266.647 251.277 261.456 246.527C256.469 241.963 251.347 237.315 245.427 235.22C237.347 232.357 228.75 234.587 220.543 236.825Z" fill="#CC1213"/>
<mask id="mask0_2090_115196" style="mask-type:luminance" maskUnits="userSpaceOnUse" x="92" y="233" width="212" height="223">
<path d="M220.543 236.825C203.075 241.588 185.608 246.351 168.144 251.115C159.955 253.348 151.758 255.614 143.74 258.694C111.428 271.111 99.2172 295.681 93.7493 315.484C91.8623 322.314 92.1209 343.296 92.3468 350.528C92.558 357.387 98.0369 379.561 99.9312 385.989C102.616 395.1 104.324 404.774 107.989 413.321C121.406 444.606 156.709 482.522 270.421 425.793C278.315 421.853 296.077 409.343 297.396 396.57C299.498 376.236 293.156 373.008 295.582 361.687C296.467 357.553 298.256 353.84 299.713 349.978C303.192 340.766 304.839 330.259 303.44 320.201C302.044 310.142 297.4 300.639 290.42 295.557C287.273 293.263 283.644 291.811 281.116 288.509C276.3 282.219 277.251 271.967 274.563 263.883C272.075 256.401 266.647 251.277 261.456 246.527C256.469 241.963 251.347 237.315 245.427 235.22C237.347 232.357 228.75 234.587 220.543 236.825Z" fill="white"/>
</mask>
<g mask="url(#mask0_2090_115196)">
<g opacity="0.2">
<path d="M266.181 212.787C245.828 181.294 105.195 247.304 90.3687 271.819C80.1833 288.662 56.8835 332.378 60.9235 352.605C64.7667 371.829 84.6895 434.293 88.7549 452.671C90.6128 461.065 166.541 468.482 166.395 477.089C166.177 489.778 296.631 510.284 313.305 501.918C328.208 494.44 327.381 466.091 315.09 456.204C299.116 443.353 280.45 438.996 266.895 422.403C260.184 414.19 256.789 406.851 255.132 396.862C252.542 381.273 254.72 363.297 253.736 347.366C252.815 332.47 248.09 317.792 241.657 305.421C235.894 294.336 225.778 284.685 223.319 271.565C221.402 261.349 228.102 251.309 233.599 245.297C241.974 236.141 251.624 234.129 261.765 230.143C267.838 227.752 270.395 219.308 266.181 212.787Z" fill="#AC1618"/>
</g>
</g>
<mask id="mask1_2090_115196" style="mask-type:luminance" maskUnits="userSpaceOnUse" x="92" y="233" width="212" height="223">
<path d="M220.543 236.825C203.075 241.588 185.608 246.351 168.144 251.115C159.955 253.348 151.758 255.614 143.74 258.694C111.428 271.111 99.2172 295.681 93.7493 315.484C91.8623 322.314 92.1209 343.296 92.3468 350.528C92.558 357.387 98.0369 379.561 99.9312 385.989C102.616 395.1 104.324 404.774 107.989 413.321C121.406 444.606 156.709 482.522 270.421 425.793C278.315 421.853 296.077 409.343 297.396 396.57C299.498 376.236 293.156 373.008 295.582 361.687C296.467 357.553 298.256 353.84 299.713 349.978C303.192 340.766 304.839 330.259 303.44 320.201C302.044 310.142 297.4 300.639 290.42 295.557C287.273 293.263 283.644 291.811 281.116 288.509C276.3 282.219 277.251 271.967 274.563 263.883C272.075 256.401 266.647 251.277 261.456 246.527C256.469 241.963 251.347 237.315 245.427 235.22C237.347 232.357 228.75 234.587 220.543 236.825Z" fill="white"/>
</mask>
<g mask="url(#mask1_2090_115196)">
<g opacity="0.2">
<path d="M190.926 224.418C166.33 198.257 37.7621 296.195 26.7716 323.772C19.22 342.718 2.69958 391.156 9.62466 410.084C16.2037 428.074 44.8985 484.77 51.5759 501.872C54.6249 509.683 130.324 499.12 131.435 507.611C133.07 520.134 264.261 509.604 279.426 497.46C292.981 486.606 288.03 458.947 274.512 452.121C256.939 443.251 237.959 443.358 222.218 430.238C214.426 423.745 210.019 417.331 206.933 407.906C202.114 393.195 201.629 375.016 198.336 359.593C195.258 345.174 188.471 331.86 180.347 321.214C173.065 311.674 161.714 304.571 157.383 292.255C154.009 282.669 159.128 271.228 163.652 264.027C170.544 253.062 179.735 248.812 189.119 242.509C194.74 238.735 196.019 229.833 190.926 224.418Z" fill="#AC1618"/>
</g>
</g>
<mask id="mask2_2090_115196" style="mask-type:luminance" maskUnits="userSpaceOnUse" x="92" y="233" width="212" height="223">
<path d="M220.543 236.825C203.075 241.588 185.608 246.351 168.144 251.115C159.955 253.348 151.758 255.614 143.74 258.694C111.428 271.111 99.2172 295.681 93.7493 315.484C91.8623 322.314 92.1209 343.296 92.3468 350.528C92.558 357.387 98.0369 379.561 99.9312 385.989C102.616 395.1 104.324 404.774 107.989 413.321C121.406 444.606 156.709 482.522 270.421 425.793C278.315 421.853 296.077 409.343 297.396 396.57C299.498 376.236 293.156 373.008 295.582 361.687C296.467 357.553 298.256 353.84 299.713 349.978C303.192 340.766 304.839 330.259 303.44 320.201C302.044 310.142 297.4 300.639 290.42 295.557C287.273 293.263 283.644 291.811 281.116 288.509C276.3 282.219 277.251 271.967 274.563 263.883C272.075 256.401 266.647 251.277 261.456 246.527C256.469 241.963 251.347 237.315 245.427 235.22C237.347 232.357 228.75 234.587 220.543 236.825Z" fill="white"/>
</mask>
<g mask="url(#mask2_2090_115196)">
<g opacity="0.2">
<path d="M157.088 225.791C129.617 196.573 -13.9811 305.957 -26.2539 336.762C-34.6871 357.923 -53.1382 412.021 -45.4044 433.165C-38.0568 453.254 -6.00687 516.582 1.45007 535.682C4.85615 544.408 89.4033 532.606 90.6419 542.091C92.4706 556.076 238.994 544.32 255.929 530.752C271.069 518.626 265.539 487.734 250.44 480.113C230.812 470.203 209.618 470.323 192.034 455.672C183.331 448.421 178.409 441.253 174.96 430.728C169.575 414.297 169.036 393.995 165.361 376.768C161.922 360.661 154.345 345.793 145.27 333.904C137.136 323.249 124.462 315.313 119.625 301.559C115.858 290.854 121.573 278.071 126.63 270.029C134.327 257.784 144.593 253.034 155.073 245.996C161.346 241.783 162.774 231.84 157.088 225.791Z" fill="#AC1618"/>
</g>
</g>
<path d="M100.474 384.427C102.011 386.069 102.481 388.765 103.093 391.197C104.729 397.704 108.547 403.938 113.851 405.071C118.903 406.153 123.898 402.324 127.26 397.417C136.925 383.317 136.211 362.114 132.67 343.972C130.921 335.005 127.974 325.247 121.355 321.408C115.486 318.005 108.142 320.668 103.654 326.56C99.1699 332.447 97.2756 340.947 97.3412 349.137C97.363 351.593 97.5197 354.192 96.6126 356.361C95.5307 358.95 93.2284 360.25 91.0718 361.286C85.4181 363.991 79.5931 366.123 73.6699 367.654C66.2639 369.568 56.9455 369.522 53.0731 361.281C52.0786 359.163 51.5759 356.694 50.443 354.687C49.31 352.684 47.1571 351.218 45.4267 352.342C44.0643 353.225 43.5252 355.297 43.1062 357.161C42.0061 362.1 40.895 367.131 41.0079 372.264C41.1209 377.393 42.6545 382.734 45.9222 385.759C48.0605 387.738 50.7125 388.557 53.288 389.329C64.9051 392.811 77.9284 396.053 88.1429 388.205C92.0408 385.213 96.9914 380.704 100.474 384.427Z" fill="#5C6E1C"/>
<g opacity="0.33">
<path d="M130.943 307.923C142.924 306.082 154.632 300.782 166.435 297.471C178.541 294.077 190.97 291.926 203.243 289.753C215.581 287.57 227.974 285.595 240.429 285.101C251.434 284.661 271.619 274.376 263.813 255.582C256.986 239.151 242.895 240.34 230.287 241.722C216.321 243.258 202.809 247.244 189.327 251.956C167.273 259.656 137.544 269.974 124.426 295.862C121.289 302.05 125.723 308.723 130.943 307.923Z" fill="#F63D1F"/>
</g>
<g opacity="0.44">
<path d="M145.329 347.666C154.374 353.854 164.188 352.698 174.144 351.902C185.571 350.991 196.959 349.507 208.347 348.008C218.914 346.616 229.555 346.621 240.156 347.231C251.54 347.888 262.159 351.962 273.383 353.669C299.006 357.558 305.043 308.866 281.728 298.688C258.848 288.699 231.045 293.679 207.884 299.557C195.462 302.706 183.134 307.141 171.331 312.996C161.059 318.092 149.959 322.481 143.055 334.014C140.64 338.052 141.791 345.243 145.329 347.666Z" fill="#F63D1F"/>
</g>
<g opacity="0.18">
<path d="M280.362 392.894C271.725 390.577 263.787 392.223 255.066 393.421C244.782 394.832 234.491 395.914 224.317 398.388C214.048 400.885 203.924 403.396 193.626 401.172C167.281 395.484 149.405 395.354 145.179 411.475C140.28 430.159 153.325 445.304 167.404 443.033C183.728 440.397 204.503 442.714 222.554 437.636C233.745 434.487 245.201 429.997 255.962 425.002C266.144 420.271 273.856 414.01 282.555 406.055C286.122 402.791 284.657 394.046 280.362 392.894Z" fill="#B91C23"/>
</g>
<mask id="mask3_2090_115196" style="mask-type:luminance" maskUnits="userSpaceOnUse" x="92" y="233" width="212" height="223">
<path d="M220.543 236.825C203.075 241.588 185.608 246.351 168.144 251.115C159.955 253.348 151.758 255.614 143.74 258.694C111.428 271.111 99.2172 295.681 93.7493 315.484C91.8623 322.314 92.1209 343.296 92.3468 350.528C92.558 357.387 98.0369 379.561 99.9312 385.989C102.616 395.1 104.324 404.774 107.989 413.321C121.406 444.606 156.709 482.522 270.421 425.793C278.315 421.853 296.077 409.343 297.396 396.57C299.498 376.236 293.156 373.008 295.582 361.687C296.467 357.553 298.256 353.84 299.713 349.978C303.192 340.766 304.839 330.259 303.44 320.201C302.044 310.142 297.4 300.639 290.42 295.557C287.273 293.263 283.644 291.811 281.116 288.509C276.3 282.219 277.251 271.967 274.563 263.883C272.075 256.401 266.647 251.277 261.456 246.527C256.469 241.963 251.347 237.315 245.427 235.22C237.347 232.357 228.75 234.587 220.543 236.825Z" fill="white"/>
</mask>
<g mask="url(#mask3_2090_115196)">
<g opacity="0.42">
<path d="M136.793 312.173C142.691 313.149 147.707 310.702 153.478 309.366C161.711 307.456 169.922 305.634 178.125 303.488C194.329 299.247 210.681 295.742 227.114 293.305C243.045 290.942 258.793 290.539 274.796 289.799C288.799 289.152 301.534 298.04 315.319 300.218C322.357 301.328 324.663 289.304 320.67 283.824C310.325 269.627 298.227 261.909 282.894 260.628C265.794 259.203 249.354 267.726 232.859 271.444C215.854 275.278 198.897 278.238 182.216 284.125C165.645 289.975 150.964 297.545 135.762 307.336C133.737 308.64 134.99 311.877 136.793 312.173Z" fill="#B91C23"/>
</g>
</g>
<mask id="mask4_2090_115196" style="mask-type:luminance" maskUnits="userSpaceOnUse" x="92" y="233" width="212" height="223">
<path d="M220.543 236.825C203.075 241.588 185.608 246.351 168.144 251.115C159.955 253.348 151.758 255.614 143.74 258.694C111.428 271.111 99.2172 295.681 93.7493 315.484C91.8623 322.314 92.1209 343.296 92.3468 350.528C92.558 357.387 98.0369 379.561 99.9312 385.989C102.616 395.1 104.324 404.774 107.989 413.321C121.406 444.606 156.709 482.522 270.421 425.793C278.315 421.853 296.077 409.343 297.396 396.57C299.498 376.236 293.156 373.008 295.582 361.687C296.467 357.553 298.256 353.84 299.713 349.978C303.192 340.766 304.839 330.259 303.44 320.201C302.044 310.142 297.4 300.639 290.42 295.557C287.273 293.263 283.644 291.811 281.116 288.509C276.3 282.219 277.251 271.967 274.563 263.883C272.075 256.401 266.647 251.277 261.456 246.527C256.469 241.963 251.347 237.315 245.427 235.22C237.347 232.357 228.75 234.587 220.543 236.825Z" fill="white"/>
</mask>
<g mask="url(#mask4_2090_115196)">
<g opacity="0.42">
<path d="M154.009 381.36C187.105 388.089 219.749 390.082 253.226 388.57C283.892 387.187 315.162 384.232 333.821 348.956C338.907 339.342 330.564 327.226 322.39 330.083C311.341 333.94 302.212 341.867 292.041 348.267C279.579 356.11 262.676 356.152 249.121 358.266C217.716 363.168 186.507 372.333 154.825 373.716C151.51 373.859 150.465 380.639 154.009 381.36Z" fill="#B91C23"/>
</g>
</g>
<g opacity="0.29">
<path d="M159.601 435.703C152.079 427.74 143.999 420.253 139.839 408.655C135.172 395.655 119.268 407.008 124.568 419.989C130.171 433.715 142.888 443.769 154.629 446.553C159.157 447.621 163.9 440.254 159.601 435.703Z" fill="#E2220E"/>
</g>
<g opacity="0.23">
<path d="M207.49 267.731C214.594 266.7 221.931 266.237 229.074 266.196C232.346 266.172 235.941 266.39 239.172 267.019C242.706 267.708 245.93 269.645 249.474 267.879C251.948 266.644 253.857 264.23 253.828 260.618C253.726 248.238 241.231 244.506 233.366 245.135C223.1 245.959 213.942 250.759 205.323 257.571C201.993 260.207 202.991 268.383 207.49 267.731Z" fill="white"/>
</g>
<g opacity="0.23">
<path d="M207.651 322.948C215.02 322.56 222.35 321.862 229.716 321.367C237.438 320.849 246.047 321.561 253.431 318.513C257.485 316.839 259.285 308.608 254.724 305.939C240.327 297.518 220.554 304.455 206.347 310.712C201.327 312.918 201.855 323.253 207.651 322.948Z" fill="white"/>
</g>
<g opacity="0.23">
<path d="M268.749 315.627C268.778 315.845 268.807 316.057 268.829 316.275C268.752 315.535 268.672 314.79 268.592 314.05C268.712 315.387 268.763 316.719 268.978 318.046C269.594 321.829 272.443 325.135 275.306 325.986C278.093 326.814 280.963 326.009 283.021 323.397C285.025 320.853 285.805 317.07 285.061 313.602C283.623 306.887 277.892 303.715 272.956 306.207C271.43 306.979 270.213 307.863 269.35 309.726C268.476 311.641 268.468 313.519 268.749 315.627Z" fill="white"/>
</g>
<path d="M243.69 254.107C244.608 255.749 245.394 257.51 246.28 259.185C247.649 261.779 248.953 263.985 251.671 263.476C252.924 263.24 253.576 261.538 253.671 260.137C253.853 257.478 251.988 255.859 250.611 254.296C249.332 252.849 248.024 251.563 246.52 250.509C244.822 249.32 242.422 251.845 243.69 254.107Z" fill="white"/>
<mask id="mask5_2090_115196" style="mask-type:luminance" maskUnits="userSpaceOnUse" x="41" y="319" width="95" height="87">
<path d="M100.474 384.427C102.011 386.069 102.481 388.765 103.093 391.197C104.729 397.704 108.547 403.938 113.851 405.071C118.903 406.153 123.898 402.324 127.26 397.417C136.925 383.317 136.211 362.114 132.67 343.972C130.921 335.005 127.974 325.247 121.355 321.408C115.486 318.005 108.142 320.668 103.654 326.56C99.1699 332.447 97.2756 340.947 97.3412 349.137C97.363 351.593 97.5197 354.192 96.6126 356.361C95.5307 358.95 93.2284 360.25 91.0718 361.286C85.4181 363.991 79.5931 366.123 73.6699 367.654C66.2639 369.568 56.9455 369.522 53.0731 361.281C52.0786 359.163 51.5759 356.694 50.443 354.687C49.31 352.684 47.1571 351.218 45.4267 352.342C44.0643 353.225 43.5252 355.297 43.1062 357.161C42.0061 362.1 40.895 367.131 41.0079 372.264C41.1209 377.393 42.6545 382.734 45.9222 385.759C48.0605 387.738 50.7125 388.557 53.288 389.329C64.9051 392.811 77.9284 396.053 88.1429 388.205C92.0408 385.213 96.9914 380.704 100.474 384.427Z" fill="white"/>
</mask>
<g mask="url(#mask5_2090_115196)">
<g opacity="0.36">
<path d="M100.667 366.123C89.7785 374.105 80.6058 378.133 67.8266 377.804C63.5681 377.693 59.5209 377.726 55.4191 376.079C48.902 373.462 51.1824 360.148 51.2626 354.002C51.3791 345.201 41.15 343.597 39.314 351.949C34.0209 376.061 44.1918 393.236 63.2403 394.161C75.9065 394.776 105.126 392.2 104.514 368.925C104.448 366.483 102.386 364.865 100.667 366.123Z" fill="#2F3B0D"/>
</g>
</g>
<mask id="mask6_2090_115196" style="mask-type:luminance" maskUnits="userSpaceOnUse" x="41" y="319" width="95" height="87">
<path d="M100.474 384.427C102.011 386.069 102.481 388.765 103.093 391.197C104.729 397.704 108.547 403.938 113.851 405.071C118.903 406.153 123.898 402.324 127.26 397.417C136.925 383.317 136.211 362.114 132.67 343.972C130.921 335.005 127.974 325.247 121.355 321.408C115.486 318.005 108.142 320.668 103.654 326.56C99.1699 332.447 97.2756 340.947 97.3412 349.137C97.363 351.593 97.5197 354.192 96.6126 356.361C95.5307 358.95 93.2284 360.25 91.0718 361.286C85.4181 363.991 79.5931 366.123 73.6699 367.654C66.2639 369.568 56.9455 369.522 53.0731 361.281C52.0786 359.163 51.5759 356.694 50.443 354.687C49.31 352.684 47.1571 351.218 45.4267 352.342C44.0643 353.225 43.5252 355.297 43.1062 357.161C42.0061 362.1 40.895 367.131 41.0079 372.264C41.1209 377.393 42.6545 382.734 45.9222 385.759C48.0605 387.738 50.7125 388.557 53.288 389.329C64.9051 392.811 77.9284 396.053 88.1429 388.205C92.0408 385.213 96.9914 380.704 100.474 384.427Z" fill="white"/>
</mask>
<g mask="url(#mask6_2090_115196)">
<g opacity="0.2">
<path d="M111.512 381.587C112.681 391.053 115.865 401.394 121.202 408.317C122.568 410.088 124.542 407.85 123.77 405.801C120.539 397.223 116.2 390.031 114.568 380.519C114.128 377.938 111.202 379.081 111.512 381.587Z" fill="#2F3B0D"/>
</g>
</g>
<mask id="mask7_2090_115196" style="mask-type:luminance" maskUnits="userSpaceOnUse" x="41" y="319" width="95" height="87">
<path d="M100.474 384.427C102.011 386.069 102.481 388.765 103.093 391.197C104.729 397.704 108.547 403.938 113.851 405.071C118.903 406.153 123.898 402.324 127.26 397.417C136.925 383.317 136.211 362.114 132.67 343.972C130.921 335.005 127.974 325.247 121.355 321.408C115.486 318.005 108.142 320.668 103.654 326.56C99.1699 332.447 97.2756 340.947 97.3412 349.137C97.363 351.593 97.5197 354.192 96.6126 356.361C95.5307 358.95 93.2284 360.25 91.0718 361.286C85.4181 363.991 79.5931 366.123 73.6699 367.654C66.2639 369.568 56.9455 369.522 53.0731 361.281C52.0786 359.163 51.5759 356.694 50.443 354.687C49.31 352.684 47.1571 351.218 45.4267 352.342C44.0643 353.225 43.5252 355.297 43.1062 357.161C42.0061 362.1 40.895 367.131 41.0079 372.264C41.1209 377.393 42.6545 382.734 45.9222 385.759C48.0605 387.738 50.7125 388.557 53.288 389.329C64.9051 392.811 77.9284 396.053 88.1429 388.205C92.0408 385.213 96.9914 380.704 100.474 384.427Z" fill="white"/>
</mask>
<g mask="url(#mask7_2090_115196)">
<g opacity="0.2">
<path d="M117.1 377.915C119.373 386.711 124.786 395.211 131.158 399.739C132.863 400.95 134.491 398.162 133.201 396.377C128.422 389.745 122.921 384.487 118.874 376.967C118.284 375.862 116.739 376.519 117.1 377.915Z" fill="#2F3B0D"/>
</g>
</g>
<mask id="mask8_2090_115196" style="mask-type:luminance" maskUnits="userSpaceOnUse" x="41" y="319" width="95" height="87">
<path d="M100.474 384.427C102.011 386.069 102.481 388.765 103.093 391.197C104.729 397.704 108.547 403.938 113.851 405.071C118.903 406.153 123.898 402.324 127.26 397.417C136.925 383.317 136.211 362.114 132.67 343.972C130.921 335.005 127.974 325.247 121.355 321.408C115.486 318.005 108.142 320.668 103.654 326.56C99.1699 332.447 97.2756 340.947 97.3412 349.137C97.363 351.593 97.5197 354.192 96.6126 356.361C95.5307 358.95 93.2284 360.25 91.0718 361.286C85.4181 363.991 79.5931 366.123 73.6699 367.654C66.2639 369.568 56.9455 369.522 53.0731 361.281C52.0786 359.163 51.5759 356.694 50.443 354.687C49.31 352.684 47.1571 351.218 45.4267 352.342C44.0643 353.225 43.5252 355.297 43.1062 357.161C42.0061 362.1 40.895 367.131 41.0079 372.264C41.1209 377.393 42.6545 382.734 45.9222 385.759C48.0605 387.738 50.7125 388.557 53.288 389.329C64.9051 392.811 77.9284 396.053 88.1429 388.205C92.0408 385.213 96.9914 380.704 100.474 384.427Z" fill="white"/>
</mask>
<g mask="url(#mask8_2090_115196)">
<g opacity="0.2">
<path d="M125.158 372.986C130.779 378.794 137.886 381.333 144.946 382.647C146.44 382.924 147.689 380.251 146.068 379.266C139.813 375.455 132.622 375.113 126.612 370.59C125.464 369.725 124.08 371.871 125.158 372.986Z" fill="#2F3B0D"/>
</g>
</g>
<mask id="mask9_2090_115196" style="mask-type:luminance" maskUnits="userSpaceOnUse" x="41" y="319" width="95" height="87">
<path d="M100.474 384.427C102.011 386.069 102.481 388.765 103.093 391.197C104.729 397.704 108.547 403.938 113.851 405.071C118.903 406.153 123.898 402.324 127.26 397.417C136.925 383.317 136.211 362.114 132.67 343.972C130.921 335.005 127.974 325.247 121.355 321.408C115.486 318.005 108.142 320.668 103.654 326.56C99.1699 332.447 97.2756 340.947 97.3412 349.137C97.363 351.593 97.5197 354.192 96.6126 356.361C95.5307 358.95 93.2284 360.25 91.0718 361.286C85.4181 363.991 79.5931 366.123 73.6699 367.654C66.2639 369.568 56.9455 369.522 53.0731 361.281C52.0786 359.163 51.5759 356.694 50.443 354.687C49.31 352.684 47.1571 351.218 45.4267 352.342C44.0643 353.225 43.5252 355.297 43.1062 357.161C42.0061 362.1 40.895 367.131 41.0079 372.264C41.1209 377.393 42.6545 382.734 45.9222 385.759C48.0605 387.738 50.7125 388.557 53.288 389.329C64.9051 392.811 77.9284 396.053 88.1429 388.205C92.0408 385.213 96.9914 380.704 100.474 384.427Z" fill="white"/>
</mask>
<g mask="url(#mask9_2090_115196)">
<g opacity="0.2">
<path d="M125.191 364.726C133.719 366.608 141.128 361.105 147.584 354.696C149.052 353.239 147.467 349.942 145.769 350.737C138.775 354.002 132.63 359.283 125.191 360.911C123.697 361.235 123.697 364.398 125.191 364.726Z" fill="#2F3B0D"/>
</g>
</g>
<mask id="mask10_2090_115196" style="mask-type:luminance" maskUnits="userSpaceOnUse" x="41" y="319" width="95" height="87">
<path d="M100.474 384.427C102.011 386.069 102.481 388.765 103.093 391.197C104.729 397.704 108.547 403.938 113.851 405.071C118.903 406.153 123.898 402.324 127.26 397.417C136.925 383.317 136.211 362.114 132.67 343.972C130.921 335.005 127.974 325.247 121.355 321.408C115.486 318.005 108.142 320.668 103.654 326.56C99.1699 332.447 97.2756 340.947 97.3412 349.137C97.363 351.593 97.5197 354.192 96.6126 356.361C95.5307 358.95 93.2284 360.25 91.0718 361.286C85.4181 363.991 79.5931 366.123 73.6699 367.654C66.2639 369.568 56.9455 369.522 53.0731 361.281C52.0786 359.163 51.5759 356.694 50.443 354.687C49.31 352.684 47.1571 351.218 45.4267 352.342C44.0643 353.225 43.5252 355.297 43.1062 357.161C42.0061 362.1 40.895 367.131 41.0079 372.264C41.1209 377.393 42.6545 382.734 45.9222 385.759C48.0605 387.738 50.7125 388.557 53.288 389.329C64.9051 392.811 77.9284 396.053 88.1429 388.205C92.0408 385.213 96.9914 380.704 100.474 384.427Z" fill="white"/>
</mask>
<g mask="url(#mask10_2090_115196)">
<g opacity="0.2">
<path d="M119.071 357.137C125.861 348.892 133.059 339.573 135.598 327.762C136.032 325.746 133.635 324.349 132.888 326.31C128.808 337.058 123.934 346.441 117.697 355.394C116.871 356.582 118.156 358.247 119.071 357.137Z" fill="#2F3B0D"/>
</g>
</g>
<mask id="mask11_2090_115196" style="mask-type:luminance" maskUnits="userSpaceOnUse" x="41" y="319" width="95" height="87">
<path d="M100.474 384.427C102.011 386.069 102.481 388.765 103.093 391.197C104.729 397.704 108.547 403.938 113.851 405.071C118.903 406.153 123.898 402.324 127.26 397.417C136.925 383.317 136.211 362.114 132.67 343.972C130.921 335.005 127.974 325.247 121.355 321.408C115.486 318.005 108.142 320.668 103.654 326.56C99.1699 332.447 97.2756 340.947 97.3412 349.137C97.363 351.593 97.5197 354.192 96.6126 356.361C95.5307 358.95 93.2284 360.25 91.0718 361.286C85.4181 363.991 79.5931 366.123 73.6699 367.654C66.2639 369.568 56.9455 369.522 53.0731 361.281C52.0786 359.163 51.5759 356.694 50.443 354.687C49.31 352.684 47.1571 351.218 45.4267 352.342C44.0643 353.225 43.5252 355.297 43.1062 357.161C42.0061 362.1 40.895 367.131 41.0079 372.264C41.1209 377.393 42.6545 382.734 45.9222 385.759C48.0605 387.738 50.7125 388.557 53.288 389.329C64.9051 392.811 77.9284 396.053 88.1429 388.205C92.0408 385.213 96.9914 380.704 100.474 384.427Z" fill="white"/>
</mask>
<g mask="url(#mask11_2090_115196)">
<g opacity="0.2">
<path d="M115.497 351.5C119.293 337.659 123.683 321.977 116.565 308.654C115.523 306.702 112.802 307.868 113.435 310.328C117.107 324.586 115.687 336.313 112.838 350.566C112.394 352.777 114.918 353.614 115.497 351.5Z" fill="#2F3B0D"/>
</g>
</g>
<mask id="mask12_2090_115196" style="mask-type:luminance" maskUnits="userSpaceOnUse" x="41" y="319" width="95" height="87">
<path d="M100.474 384.427C102.011 386.069 102.481 388.765 103.093 391.197C104.729 397.704 108.547 403.938 113.851 405.071C118.903 406.153 123.898 402.324 127.26 397.417C136.925 383.317 136.211 362.114 132.67 343.972C130.921 335.005 127.974 325.247 121.355 321.408C115.486 318.005 108.142 320.668 103.654 326.56C99.1699 332.447 97.2756 340.947 97.3412 349.137C97.363 351.593 97.5197 354.192 96.6126 356.361C95.5307 358.95 93.2284 360.25 91.0718 361.286C85.4181 363.991 79.5931 366.123 73.6699 367.654C66.2639 369.568 56.9455 369.522 53.0731 361.281C52.0786 359.163 51.5759 356.694 50.443 354.687C49.31 352.684 47.1571 351.218 45.4267 352.342C44.0643 353.225 43.5252 355.297 43.1062 357.161C42.0061 362.1 40.895 367.131 41.0079 372.264C41.1209 377.393 42.6545 382.734 45.9222 385.759C48.0605 387.738 50.7125 388.557 53.288 389.329C64.9051 392.811 77.9284 396.053 88.1429 388.205C92.0408 385.213 96.9914 380.704 100.474 384.427Z" fill="white"/>
</mask>
<g mask="url(#mask12_2090_115196)">
<g opacity="0.2">
<path d="M112.383 346.187C111.282 333.233 109.603 320.724 104.492 309.264C103.811 307.743 101.822 308.765 102.252 310.467C105.283 322.481 108.266 334.135 109.924 346.612C110.157 348.374 112.532 347.967 112.383 346.187Z" fill="#2F3B0D"/>
</g>
</g>
<mask id="mask13_2090_115196" style="mask-type:luminance" maskUnits="userSpaceOnUse" x="41" y="319" width="95" height="87">
<path d="M100.474 384.427C102.011 386.069 102.481 388.765 103.093 391.197C104.729 397.704 108.547 403.938 113.851 405.071C118.903 406.153 123.898 402.324 127.26 397.417C136.925 383.317 136.211 362.114 132.67 343.972C130.921 335.005 127.974 325.247 121.355 321.408C115.486 318.005 108.142 320.668 103.654 326.56C99.1699 332.447 97.2756 340.947 97.3412 349.137C97.363 351.593 97.5197 354.192 96.6126 356.361C95.5307 358.95 93.2284 360.25 91.0718 361.286C85.4181 363.991 79.5931 366.123 73.6699 367.654C66.2639 369.568 56.9455 369.522 53.0731 361.281C52.0786 359.163 51.5759 356.694 50.443 354.687C49.31 352.684 47.1571 351.218 45.4267 352.342C44.0643 353.225 43.5252 355.297 43.1062 357.161C42.0061 362.1 40.895 367.131 41.0079 372.264C41.1209 377.393 42.6545 382.734 45.9222 385.759C48.0605 387.738 50.7125 388.557 53.288 389.329C64.9051 392.811 77.9284 396.053 88.1429 388.205C92.0408 385.213 96.9914 380.704 100.474 384.427Z" fill="white"/>
</mask>
<g mask="url(#mask13_2090_115196)">
<g opacity="0.2">
<path d="M108.576 352.217C108.638 340.105 100.5 333.002 95.2284 324.28C93.8841 322.056 91.2248 323.892 92.2266 326.509C95.8148 335.869 103.21 342.755 105.713 352.712C106.212 354.682 108.565 354.349 108.576 352.217Z" fill="#2F3B0D"/>
</g>
</g>
<path d="M55.9109 369.05C68.8905 379.33 88.0483 370.534 100.438 363.015C104.004 360.85 100.864 353.849 97.3157 356.235C91.0208 360.467 86.1394 362.922 79.1305 364.513C71.4842 366.252 64.264 370.691 56.4792 367.329C55.6632 366.973 55.2188 368.499 55.9109 369.05Z" fill="#7B913E"/>
<g opacity="0.55">
<path d="M47.7145 364.208C49.2372 372.699 49.7763 380.625 57.5793 382.184C66.3368 383.937 78.2343 383.696 86.8424 380.871C87.3925 380.69 87.1521 379.691 86.6129 379.807C79.4073 381.375 71.9759 380.968 64.6938 381.254C62.3405 381.347 59.9982 381.527 57.6485 381.56C50.2025 381.671 49.7289 369.873 48.6033 363.894C48.4649 363.163 47.5833 363.478 47.7145 364.208Z" fill="#7B913E"/>
</g>
<g opacity="0.55">
<path d="M89.0027 379.557C90.8423 379.256 92.8094 379.594 94.5434 378.65C94.8421 378.488 94.6964 377.818 94.3759 377.864C92.5654 378.123 90.7476 378.821 88.9917 379.432C88.9334 379.446 88.9444 379.566 89.0027 379.557Z" fill="#7B913E"/>
</g>
<g opacity="0.55">
<path d="M64.1838 387.4C70.2419 388.95 76.6789 387.317 82.7005 386.096C83.2906 385.976 83.1194 384.843 82.5657 384.82C76.5003 384.612 70.6208 387.275 64.5372 385.772C63.703 385.564 63.3423 387.183 64.1838 387.4Z" fill="#7B913E"/>
</g>
<g opacity="0.55">
<path d="M118.932 350.038C121.967 345.03 126.921 340.197 127.912 333.737C128.116 332.396 126.848 331.771 126.229 332.835C124.79 335.318 123.566 337.968 122.113 340.447C120.481 343.231 118.823 345.922 117.432 348.924C116.845 350.191 118.269 351.13 118.932 350.038Z" fill="#7B913E"/>
</g>
<g opacity="0.55">
<path d="M114.135 336.207C115.013 332.373 116.182 328.923 115.712 324.858C115.592 323.808 114.426 324.183 114.357 325.089C114.08 328.757 113.585 332.396 113.282 336.059C113.228 336.697 114 336.785 114.135 336.207Z" fill="#7B913E"/>
</g>
<g opacity="0.55">
<path d="M108.091 342.019C107.177 338.731 106.594 335.009 104.78 332.294C104.325 331.614 103.334 332.335 103.585 333.177C104.532 336.382 105.898 339.517 107.297 342.44C107.545 342.963 108.259 342.625 108.091 342.019Z" fill="#7B913E"/>
</g>
<g opacity="0.55">
<path d="M104.259 350.205C103.447 348.512 102.94 346.367 101.683 345.099C101.367 344.78 100.733 345.058 100.915 345.668C101.49 347.583 102.518 349.34 103.538 350.913C103.869 351.435 104.525 350.765 104.259 350.205Z" fill="#7B913E"/>
</g>
<g opacity="0.55">
<path d="M121.162 359.348C123.238 358.779 125.278 358.058 127.307 357.262C127.759 357.086 127.697 356.129 127.191 356.18C125.009 356.388 122.972 357.299 120.849 357.91C120.109 358.122 120.426 359.551 121.162 359.348Z" fill="#7B913E"/>
</g>
<g opacity="0.55">
<path d="M119.985 374.104C122.131 379.779 125.65 384.879 129.675 388.519C130.655 389.407 131.675 387.515 130.914 386.48C127.653 382.04 124.131 378.169 121.971 372.629C121.311 370.937 119.348 372.421 119.985 374.104Z" fill="#7B913E"/>
</g>
<g opacity="0.55">
<path d="M117.77 390.471C118.495 392.626 119.158 394.647 120.335 396.469C120.681 397.006 121.49 396.427 121.275 395.775C120.579 393.657 119.829 391.586 119.096 389.491C118.692 388.335 117.388 389.333 117.77 390.471Z" fill="#7B913E"/>
</g>
<g opacity="0.55">
<path d="M107.242 381.809C107.567 387.609 107.541 393.727 110.394 398.573C111.184 399.914 112.696 398.805 112.16 397.265C110.397 392.21 109.563 386.947 108.798 381.541C108.641 380.427 107.181 380.686 107.242 381.809Z" fill="#7B913E"/>
</g>
<g opacity="0.22">
<path d="M218.077 423.851C195.396 431.615 164.406 434.126 147.737 409.306C136.768 392.973 116.55 419.517 129.519 432.434C155.703 458.507 195.436 456.879 221.06 430.357C223.541 427.791 220.86 422.898 218.077 423.851Z" fill="#F63D1F"/>
</g>
<path d="M299.691 463.34C303.596 467.789 307.257 472.853 312.048 475.563C315.396 477.459 319.093 478.083 322.747 478.486C336.167 479.975 350.356 478.574 361.868 469.694C367.51 465.343 372.268 459.382 376.763 453.24C411.258 406.102 433.264 344.485 438.466 280.486C439.18 271.722 439.552 262.603 437.089 254.366C432.219 238.051 416.467 229.551 403.079 233.514C392.475 236.655 382.643 246.232 371.878 244.151C367.532 243.309 363.547 240.595 359.263 239.323C354.983 238.051 349.821 238.648 347.158 243.092C345.169 244.993 342.815 241.455 341.737 238.606C333.606 217.083 315.042 202.632 296.245 203.182C288.846 203.399 281.298 205.892 275.484 211.705C263.988 223.211 262.031 243.832 258.545 261.886C254.476 282.96 247.252 302.799 241.456 323.212C237.486 337.197 234.182 351.482 231.562 365.971C227.672 387.507 225.606 411.596 234.724 430.418C241.941 445.318 255.944 454.47 269.689 453.268C273.998 452.893 278.289 451.585 282.588 452.112C289.094 452.907 294.832 457.805 299.691 463.34Z" fill="#F63D1F"/>
<path d="M422.62 252.456C414.573 239.928 398.264 247.841 383.361 254.764C376.956 257.737 369.197 256.031 363.398 251.23C355.668 244.839 352.673 237.435 342.207 237.472C338.608 237.486 334.135 231.904 331.381 234.457C313.217 225.569 300.846 197.54 277.947 229.842C268.61 243.008 268.902 260.443 265.226 277.373C262.6 289.462 259.183 302.017 256.137 313.828C254.95 318.004 249.263 337.769 248.199 342.029C247.693 343.855 247.212 345.687 246.684 347.513C238.28 376.745 234.965 413.39 260.811 432.924C270.304 440.097 282.686 438.561 293.149 441.637C304.908 445.096 314.973 460.454 327.02 462.415C353.806 466.767 370.92 444.444 385.543 419.037C396.329 400.298 410.573 371.071 416.631 349.331C423.421 324.973 436.251 273.678 422.62 252.456Z" fill="#CA1A0B"/>
<g opacity="0.44">
<path d="M273.823 424.776C276.206 413.52 276.158 401.783 278.366 390.467C279.849 382.868 282.686 375.913 285.207 368.828C290.209 354.774 295.149 340.679 300.362 326.745C306.38 310.67 312.47 294.179 320.627 279.644C321.763 277.619 323.439 275.524 324.936 273.665C325.242 273.285 328.277 271.075 326.109 272.111C336.313 267.25 322.834 273.211 331.242 270.275C333.406 269.516 339.938 264.36 336.779 266.45C339.814 264.443 341.427 260.087 341.54 255.916C341.872 243.452 334.411 236.705 325.439 235.295C317.774 234.092 310.871 240.095 305.596 246.468C293.586 260.979 286.588 285.083 281.845 304.672C277.339 323.277 274.188 342.228 271.08 361.263C269.594 370.359 267.095 379.118 266.217 388.376C265.255 398.527 262.414 420.225 270.971 426.242C272.056 427.014 273.492 426.339 273.823 424.776Z" fill="#F58F51"/>
</g>
<g opacity="0.44">
<path d="M308.78 436.998C344.294 464.172 372.567 403.026 382.038 367.87C388.643 343.351 395.965 319.683 393.091 293.48C390.133 266.496 365.813 247.045 346.101 246.097C335.209 245.574 325.166 256.026 322.343 269.058C319.199 283.565 324.583 296.084 333.665 304.38C336.12 306.956 338.925 308.75 342.072 309.763C341.948 309.708 350.4 313.643 345.937 311.16C347.471 311.918 348.935 312.857 350.331 313.971C348.695 312.797 348.054 310.346 350.677 316.177C355.784 327.54 351.671 344.558 349.588 356.513C347.256 369.873 343.788 382.798 338.491 394.73C334.462 403.808 322.255 428.711 312.481 425.848C307.203 424.304 304.03 433.363 308.78 436.998Z" fill="#F58F51"/>
</g>
<path d="M270.731 247.924C274.847 239.419 279.087 230.72 285.765 225.097C294.719 217.554 308.682 224.783 315.13 233.477C324.485 246.092 332.197 253.538 346.356 249.917C349.198 249.191 349.296 243.156 346.356 242.532C335.563 240.242 328.962 235.456 321.457 225.439C316.011 218.174 308.423 214.095 300.602 213.277C282.686 211.395 275.138 228.413 269.845 247.443C269.656 248.127 270.454 248.502 270.731 247.924Z" fill="#F09453"/>
<path d="M429.024 302.984C427.29 283.408 436.914 257.146 420.441 243.947C411.527 236.802 400.391 244.502 391.881 248.396C382.235 252.808 368.949 252.082 358.92 249.362C356.87 248.807 354.163 251.203 355.117 254.19C359.733 268.67 385.532 261.511 394.056 258.399C400.42 256.073 405.782 251.739 412.558 251.013C421.585 250.042 423.574 262.848 424.754 270.774C426.364 281.619 423.672 293.231 427.934 303.363C428.189 303.987 429.089 303.738 429.024 302.984Z" fill="#F09453"/>
<g opacity="0.44">
<path d="M324.262 432.161C340.848 416.377 353.923 404.686 361.62 379.127C367.347 360.115 374.363 322.772 364.13 304.856C361.551 300.343 354.622 299.737 353.668 306.591C352.396 315.71 353.824 324.844 353.908 334.065C354.021 346.32 352.538 358.658 350.637 370.636C346.783 394.942 335.369 412.067 323.02 430.117C322.31 431.167 323.282 433.095 324.262 432.161Z" fill="#F58F51"/>
</g>
<g opacity="0.44">
<path d="M274.115 407.207C281.007 386.702 285.819 365.309 292.65 344.79C296.325 333.751 300.788 323.332 306.194 313.505C311.64 303.603 319.698 296.852 324.98 286.946C327.472 282.275 323.333 275.264 319.093 277.225C302.376 284.943 291.294 312.367 284.992 332.021C277.295 356.018 273.623 381.023 272.975 406.814C272.953 407.545 273.867 407.938 274.115 407.207Z" fill="#F58F51"/>
</g>
<g opacity="0.44">
<path d="M277.707 388.815C281.397 346.778 306.613 315.327 329.188 287.741C331.734 284.629 328.477 279.459 325.472 281.628C298.475 301.097 276.169 349.104 277.095 388.815C277.105 389.329 277.666 389.306 277.707 388.815Z" fill="#F58F51"/>
</g>
<g opacity="0.44">
<path d="M354.123 382.415C358.622 368.684 363.995 356.901 364.793 341.742C365.54 327.531 362.451 311.03 359.919 297.314C359.391 294.46 355.558 294.206 355.187 297.314C353.606 310.54 356.513 323.595 356.957 336.854C357.467 351.999 352.192 366.853 351.11 381.897C350.939 384.283 353.522 384.255 354.123 382.415Z" fill="#F58F51"/>
</g>
<g opacity="0.3">
<path d="M362.888 437.812C397.313 401.042 418.78 340.974 418.143 284.296C417.979 269.89 400.832 269.918 400.558 284.296C400.289 298.424 400.194 312.279 398.121 326.227C396.278 338.63 392.377 350.311 388.847 362.044C381.116 387.742 374.075 412.655 359.849 433.955C358.053 436.651 360.764 440.078 362.888 437.812Z" fill="#F63D1F"/>
</g>
<g opacity="0.3">
<path d="M273.485 297.43C264.414 316.681 254.99 335.573 249.332 356.975C245.005 373.346 237.621 401.264 250.021 414.574C255.638 420.6 262.549 416.252 263.459 407.507C264.356 398.91 261.969 390.327 262.17 381.564C262.388 372.116 264.414 362.672 265.78 353.414C268.465 335.207 274.377 317.898 279.463 300.63C280.799 296.102 275.335 293.503 273.485 297.43Z" fill="#F63D1F"/>
</g>
<g opacity="0.3">
<path d="M271.594 305.306C272.089 305.509 272.519 305.528 273.036 305.537C273.918 305.555 274.151 304.293 273.688 303.544C273.35 302.998 273.069 302.619 272.617 302.221C271.102 300.875 269.663 304.501 271.594 305.306Z" fill="#F63D1F"/>
</g>
<g opacity="0.3">
<path d="M276.923 282.567C277.131 282.742 277.339 282.918 277.546 283.089C278.202 283.64 279.065 282.544 278.632 281.711C278.493 281.448 278.355 281.184 278.22 280.92C277.364 279.293 275.637 281.485 276.923 282.567Z" fill="#F63D1F"/>
</g>
<g opacity="0.3">
<path d="M281.167 266.991C281.237 268.448 281.819 269.784 283.04 270.034C284.06 270.242 284.952 269.29 284.705 267.921C284.613 267.421 284.537 266.931 284.479 266.422C284.216 264.027 281.054 264.605 281.167 266.991Z" fill="#F63D1F"/>
</g>
<g opacity="0.3">
<path d="M276.985 256.609C276.963 257.599 277.116 258.334 277.645 259.069C278.067 259.666 278.92 259.666 279.342 259.069C279.87 258.33 280.02 257.599 280.002 256.609C279.947 254.144 277.036 254.144 276.985 256.609Z" fill="#F63D1F"/>
</g>
<g opacity="0.3">
<path d="M284.351 248.234C284.369 248.34 284.391 248.451 284.409 248.557C284.799 250.717 287.451 250.717 287.841 248.557C287.859 248.451 287.881 248.34 287.899 248.234C288.165 246.763 287.36 245.279 286.125 245.279C284.89 245.274 284.085 246.763 284.351 248.234Z" fill="#F63D1F"/>
</g>
<g opacity="0.3">
<path d="M292.242 239.997C292.242 240.728 292.231 241.255 292.573 241.857C292.916 242.458 293.513 242.458 293.852 241.857C294.194 241.255 294.183 240.728 294.183 239.997C294.183 238.407 292.242 238.407 292.242 239.997Z" fill="#F63D1F"/>
</g>
<g opacity="0.3">
<path d="M289.943 254.602C290.008 254.602 290.008 254.468 289.943 254.468C289.877 254.468 289.877 254.602 289.943 254.602Z" fill="#F63D1F"/>
</g>
<g opacity="0.3">
<path d="M283.207 258.44C283.382 259.31 283.765 259.883 284.457 260.128C285.018 260.327 285.473 259.98 285.797 259.435C285.823 259.393 285.848 259.351 285.874 259.31C286.071 258.977 286.041 258.399 285.874 258.066C285.462 257.238 285.87 257.742 285.772 258.445C286.165 255.61 282.683 255.841 283.207 258.44Z" fill="#F63D1F"/>
</g>
<g opacity="0.3">
<path d="M275.182 272.425C275.2 272.532 275.222 272.643 275.24 272.749C275.357 273.401 275.871 274.132 276.413 274.238C276.748 274.303 276.971 274.303 277.306 274.238C277.845 274.136 278.359 273.401 278.479 272.749C278.497 272.643 278.519 272.532 278.537 272.425C279.175 268.869 274.537 268.869 275.182 272.425Z" fill="#F63D1F"/>
</g>
<g opacity="0.3">
<path d="M269.845 282.22C269.889 283.727 270.257 284.884 271.357 285.586C272.341 286.215 273.24 285.198 273.084 283.903C273.018 283.362 272.956 282.77 272.964 282.224C272.989 279.662 269.769 279.672 269.845 282.22Z" fill="#F63D1F"/>
</g>
<g opacity="0.3">
<path d="M404.445 268.637C404.708 268.637 404.708 268.12 404.445 268.12C404.179 268.12 404.179 268.637 404.445 268.637Z" fill="#F63D1F"/>
</g>
<g opacity="0.3">
<path d="M404.642 268.591C404.733 268.545 404.824 268.499 404.912 268.453C404.704 268.416 404.493 268.383 404.285 268.346C404.212 268.235 404.136 268.124 404.063 268.013C404.172 268.249 404.318 268.434 404.504 268.573C404.183 268.397 404.249 267.625 404.252 268.337C404.252 269.35 404.642 270.201 405.331 270.695C405.917 271.116 406.642 271.001 407.127 270.4C408.839 268.277 406.598 264.346 404.504 265.872C404.165 266.117 403.841 266.7 403.892 267.222C403.899 267.153 403.91 267.088 403.917 267.019C403.487 267.653 403.892 268.98 404.642 268.591Z" fill="#F63D1F"/>
</g>
<g opacity="0.3">
<path d="M407.768 280.143C407.768 280.453 407.786 280.758 407.819 281.068C407.884 281.882 408.234 282.784 408.944 282.946C409.239 283.015 409.465 283.015 409.76 282.946C410.471 282.779 410.824 281.882 410.886 281.068C410.919 280.763 410.933 280.453 410.937 280.143C411.014 277.549 407.691 277.549 407.768 280.143Z" fill="#F63D1F"/>
</g>
<g opacity="0.3">
<path d="M398.427 272.92C398.562 273.484 398.715 273.822 399.112 274.15C399.353 274.349 399.724 274.349 399.965 274.15C400.362 273.822 400.515 273.489 400.65 272.92C401.2 270.571 397.877 270.571 398.427 272.92Z" fill="#F63D1F"/>
</g>
<g opacity="0.3">
<path d="M405.484 289.837C405.451 291.062 405.462 292.232 406.249 293.083C406.824 293.703 407.516 293.703 408.092 293.083C408.879 292.232 408.89 291.057 408.857 289.837C408.788 287.076 405.556 287.076 405.484 289.837Z" fill="#F63D1F"/>
</g>
<g opacity="0.3">
<path d="M412.077 277.073C414.583 277.073 414.583 272.143 412.077 272.143C409.571 272.143 409.571 277.073 412.077 277.073Z" fill="#F63D1F"/>
</g>
<g opacity="0.3">
<path d="M403.167 289.837C403.112 290.072 403.047 290.304 402.974 290.535C402.635 291.506 403.199 292.991 404.187 292.537C405.236 292.056 405.615 291.215 405.724 289.837C405.888 287.756 403.331 287.774 403.167 289.837Z" fill="#F63D1F"/>
</g>
<g opacity="0.3">
<path d="M406.158 318.906C406.209 319.942 406.161 320.899 406.635 321.787C407.185 322.809 408.249 322.809 408.799 321.787C409.272 320.904 409.225 319.942 409.276 318.906C409.4 316.353 406.034 316.353 406.158 318.906Z" fill="#F63D1F"/>
</g>
<g opacity="0.3">
<path d="M395.568 347.287C395.644 348.8 396.209 350.691 397.557 350.959C398.311 351.112 398.886 350.723 399.16 349.803C399.44 348.855 399.207 347.657 399.083 346.681C398.759 344.147 395.437 344.748 395.568 347.287Z" fill="#F63D1F"/>
</g>
<g opacity="0.3">
<path d="M389.619 371.511C389.637 373.208 389.535 374.771 390.435 376.14C390.861 376.792 391.852 376.792 392.278 376.14C393.182 374.766 393.076 373.208 393.094 371.511C393.127 368.667 389.59 368.667 389.619 371.511Z" fill="#F63D1F"/>
</g>
<g opacity="0.3">
<path d="M380.854 402.208C380.912 402.421 380.971 402.629 381.025 402.842C381.204 403.489 381.881 403.489 382.06 402.842C382.118 402.629 382.177 402.421 382.231 402.208C382.632 400.752 380.457 400.752 380.854 402.208Z" fill="#F63D1F"/>
</g>
<g opacity="0.3">
<path d="M362.614 429.655C362.698 430.607 362.869 431.232 363.39 431.935C363.755 432.425 364.436 432.425 364.8 431.935C365.325 431.232 365.492 430.607 365.58 429.655C365.791 427.231 362.4 427.231 362.614 429.655Z" fill="#F63D1F"/>
</g>
<g opacity="0.3">
<path d="M348.506 446.959C348.546 447.413 348.582 447.708 348.779 448.092C349.067 448.657 349.682 448.657 349.97 448.092C350.167 447.708 350.203 447.408 350.243 446.959C350.371 445.54 348.378 445.54 348.506 446.959Z" fill="#F63D1F"/>
</g>
<g opacity="0.3">
<path d="M351.318 440.73C351.325 441.04 351.332 441.345 351.34 441.655C351.354 442.191 351.569 442.853 351.985 443.089C352.498 443.375 352.79 443.375 353.303 443.089C353.719 442.853 353.937 442.196 353.952 441.655C353.959 441.35 353.966 441.04 353.974 440.73C354.028 438.552 351.263 438.552 351.318 440.73Z" fill="#F63D1F"/>
</g>
<g opacity="0.3">
<path d="M358.993 445.142C359.055 445.554 359.125 445.762 359.372 446.034C359.591 446.28 359.875 446.28 360.094 446.034C360.341 445.762 360.41 445.554 360.472 445.142C360.706 443.57 358.764 443.57 358.993 445.142Z" fill="#F63D1F"/>
</g>
<g opacity="0.3">
<path d="M343.376 445.045C343.285 445.059 343.194 445.068 343.103 445.082C341.198 445.332 341.198 448.592 343.103 448.842C343.194 448.855 343.285 448.865 343.376 448.879C345.318 449.128 345.318 444.79 343.376 445.045Z" fill="#F63D1F"/>
</g>
<g opacity="0.3">
<path d="M333.016 451.201C331.992 451.321 331.329 452.121 331.657 453.476C331.92 454.549 332.991 454.438 333.286 453.476C333.195 453.582 333.107 453.689 333.016 453.795C334.353 453.827 334.317 451.048 333.016 451.201Z" fill="#F63D1F"/>
</g>
<g opacity="0.3">
<path d="M324.292 450.928C325.512 450.928 325.512 448.528 324.292 448.528C323.075 448.528 323.075 450.928 324.292 450.928Z" fill="#F63D1F"/>
</g>
<g opacity="0.3">
<path d="M248.728 394.712C249.405 396.053 250.159 396.835 251.168 397.75C252.017 398.523 253.27 397.246 252.931 396.03C252.516 394.532 252.126 393.408 251.292 392.196C250.068 390.406 247.729 392.737 248.728 394.712Z" fill="#F63D1F"/>
</g>
<g opacity="0.3">
<path d="M253.023 371.339C253.044 371.446 253.063 371.557 253.084 371.663C253.19 372.241 253.635 372.865 254.112 372.967C254.4 373.032 254.607 373.032 254.895 372.967C255.372 372.861 255.817 372.241 255.922 371.663C255.944 371.557 255.962 371.446 255.984 371.339C256.56 368.199 252.443 368.199 253.023 371.339Z" fill="#F63D1F"/>
</g>
<g opacity="0.3">
<path d="M256.68 382.656C256.746 382.656 256.746 382.522 256.68 382.522C256.614 382.522 256.614 382.656 256.68 382.656Z" fill="#F63D1F"/>
</g>
<g opacity="0.3">
<path d="M245.143 380.598C244.888 381.943 245.081 382.998 245.828 384.01C246.393 384.774 247.438 384.959 248.134 384.39C249.518 383.257 248.975 381.596 248.414 380.056C247.755 378.248 245.482 378.789 245.143 380.598Z" fill="#F63D1F"/>
</g>
<g opacity="0.3">
<path d="M256.735 383.28C256.76 384.315 256.782 385.069 257.398 385.832C257.911 386.466 258.731 386.466 259.241 385.832C259.857 385.069 259.878 384.315 259.904 383.28C259.962 380.685 256.673 380.685 256.735 383.28Z" fill="#F63D1F"/>
</g>
<g opacity="0.3">
<path d="M250.866 381.018C251.034 381.702 251.245 382.109 251.715 382.516C252.043 382.803 252.596 382.803 252.928 382.516C253.398 382.109 253.605 381.702 253.777 381.018C254.531 377.943 250.112 377.943 250.866 381.018Z" fill="#F63D1F"/>
</g>
<g opacity="0.3">
<path d="M261.274 363.408C261.008 365.152 261.467 367.561 263.223 367.436C263.875 367.39 264.337 366.807 264.374 365.975C264.406 365.235 264.079 364.629 264.137 363.898C264.294 361.822 261.587 361.369 261.274 363.408Z" fill="#F63D1F"/>
</g>
<g opacity="0.3">
<path d="M261.521 347.689C261.634 348.142 261.751 348.475 262.028 348.804C262.407 349.248 262.949 349.248 263.328 348.804C263.605 348.475 263.725 348.147 263.835 347.689C264.439 345.238 260.92 345.238 261.521 347.689Z" fill="#F63D1F"/>
</g>
<g opacity="0.3">
<path d="M253.769 356.975C253.853 357.822 253.977 358.27 254.531 358.788C254.793 359.033 255.299 359.033 255.562 358.788C256.115 358.27 256.239 357.822 256.323 356.975C256.534 354.885 253.558 354.885 253.769 356.975Z" fill="#F63D1F"/>
</g>
<g opacity="0.3">
<path d="M265.711 332.285C265.463 333.51 265.74 334.398 266.548 335.115C268.279 336.655 269.94 332.599 267.732 331.549C267.947 331.794 268.159 332.039 268.374 332.285C267.955 330.703 266.064 330.523 265.711 332.285Z" fill="#F63D1F"/>
</g>
<g opacity="0.3">
<path d="M272.494 327.244C272.585 327.235 272.676 327.221 272.767 327.212C274.872 326.967 274.872 323.304 272.767 323.059C272.676 323.05 272.585 323.036 272.494 323.026C270.352 322.777 270.352 327.494 272.494 327.244Z" fill="#F63D1F"/>
</g>
<g opacity="0.3">
<path d="M261.591 425.146C263.339 425.146 263.339 421.705 261.591 421.705C259.842 421.705 259.842 425.146 261.591 425.146Z" fill="#F63D1F"/>
</g>
<g opacity="0.3">
<path d="M258.257 414.426C258.308 415.059 258.37 415.499 258.756 415.943C259.139 416.387 259.674 416.387 260.057 415.943C260.443 415.499 260.505 415.059 260.556 414.426C260.713 412.548 258.104 412.548 258.257 414.426Z" fill="#F63D1F"/>
</g>
<g opacity="0.3">
<path d="M255.412 420.96C255.893 420.72 256.214 420.512 256.494 419.943C256.687 419.554 256.687 418.99 256.494 418.602C256.21 418.033 255.889 417.825 255.412 417.584C253.205 416.465 253.205 422.079 255.412 420.96Z" fill="#F63D1F"/>
</g>
<g opacity="0.3">
<path d="M269.222 432.198C271.102 432.198 271.102 428.498 269.222 428.498C267.343 428.498 267.343 432.198 269.222 432.198Z" fill="#F63D1F"/>
</g>
<g opacity="0.3">
<path d="M276.417 431.384C276.479 431.842 276.599 432.101 276.843 432.443C277.124 432.836 277.685 432.836 277.965 432.443C278.209 432.101 278.329 431.842 278.391 431.384C278.672 429.289 276.129 429.289 276.417 431.384Z" fill="#F63D1F"/>
</g>
<g opacity="0.3">
<path d="M315.968 447.145C316.157 447.367 316.343 447.589 316.532 447.815C316.7 448.014 316.944 447.709 316.784 447.496C316.609 447.256 316.434 447.02 316.255 446.78C316.077 446.534 315.778 446.914 315.968 447.145Z" fill="#F63D1F"/>
</g>
<g opacity="0.3">
<path d="M314.496 445.577C314.529 446.317 314.558 446.853 314.82 447.519C315.104 448.241 316.037 448.241 316.321 447.519C316.583 446.858 316.609 446.317 316.645 445.577C316.722 443.82 314.416 443.82 314.496 445.577Z" fill="#F63D1F"/>
</g>
<g opacity="0.3">
<path d="M319.144 452.722C319.013 453.674 318.998 454.539 319.508 455.321C320.044 456.144 320.856 456.315 321.574 455.774C322.084 455.39 322.281 454.516 321.967 453.864C321.935 453.794 321.902 453.725 321.869 453.66C321.625 453.221 321.603 453.216 321.803 453.651C322.35 451.468 319.45 450.525 319.144 452.722Z" fill="#F63D1F"/>
</g>
<g opacity="0.3">
<path d="M297.761 231.451C298.3 232.136 298.704 232.779 299.469 233.005C300.281 233.241 300.977 232.362 300.791 231.327C300.613 230.355 300.11 229.842 299.571 229.158C298.405 227.678 296.595 229.972 297.761 231.451Z" fill="#F09453"/>
</g>
<g opacity="0.3">
<path d="M293.418 246.921C293.426 247.226 293.436 247.536 293.444 247.846C293.506 250.149 296.194 250.149 296.256 247.846C296.263 247.54 296.274 247.23 296.282 246.921C296.343 244.576 293.356 244.576 293.418 246.921Z" fill="#F09453"/>
</g>
<g opacity="0.3">
<path d="M283.604 245.728C283.386 247.096 283.572 248.364 284.592 249.099C285.153 249.501 285.87 249.399 286.329 248.817C286.362 248.775 286.395 248.734 286.428 248.692C286.726 248.313 286.857 247.725 286.737 247.207C286.694 246.999 286.632 246.801 286.555 246.611C286.479 246.486 286.406 246.366 286.333 246.241C285.874 245.732 285.918 245.894 286.464 246.726C287 244.373 283.98 243.364 283.604 245.728Z" fill="#F09453"/>
</g>
<g opacity="0.3">
<path d="M285.44 257.233C285.633 258.357 286.191 259.06 287.04 259.402C288.599 260.031 290.107 257.118 288.715 255.749C288.664 255.698 288.613 255.647 288.562 255.596C288.712 255.925 288.865 256.253 289.014 256.581C288.996 256.503 288.974 256.424 288.956 256.341C288.956 256.743 288.956 257.15 288.956 257.552C288.967 257.446 288.978 257.34 288.992 257.233C289.152 255.758 288.53 254.278 287.218 254.278C285.969 254.274 285.189 255.758 285.44 257.233Z" fill="#F09453"/>
</g>
<g opacity="0.3">
<path d="M270.858 301.601C272.967 301.601 272.967 297.448 270.858 297.448C268.749 297.448 268.749 301.601 270.858 301.601Z" fill="#F09453"/>
</g>
<g opacity="0.3">
<path d="M266.282 307.83C266.359 308.584 266.395 309.208 266.705 309.869C267.098 310.711 268.078 310.711 268.472 309.869C268.781 309.208 268.814 308.584 268.891 307.83C269.113 305.703 266.06 305.703 266.282 307.83Z" fill="#F09453"/>
</g>
<g opacity="0.3">
<path d="M389.95 269.373C389.998 269.586 390.049 269.798 390.1 270.011C390.307 270.908 391.32 270.908 391.528 270.011C391.575 269.798 391.626 269.586 391.674 269.373C392.096 267.546 389.528 267.546 389.95 269.373Z" fill="#F09453"/>
</g>
<g opacity="0.3">
<path d="M398.599 265.178C397.804 265.331 397.382 265.969 397.101 266.875C396.934 267.416 397.12 268.239 397.462 268.614C397.506 268.665 397.553 268.711 397.597 268.762C397.976 269.174 398.599 269.423 399.054 268.998C399.36 268.711 399.575 268.438 399.786 268.036C399.502 268.313 399.218 268.591 398.93 268.873C398.952 268.873 398.97 268.873 398.992 268.873C401.025 269.067 400.854 264.753 398.599 265.178Z" fill="#F09453"/>
</g>
<g opacity="0.3">
<path d="M408.019 301.134C407.768 302.512 407.429 303.691 407.899 305.042C408.201 305.906 409.072 305.781 409.545 305.31C410.321 304.537 410.442 303.21 410.682 302.068C411.141 299.876 408.423 298.942 408.019 301.134Z" fill="#F09453"/>
</g>
<g opacity="0.3">
<path d="M405.196 311.1C405.243 311.498 405.331 311.789 405.52 312.113C406.128 313.144 407.119 313.144 407.728 312.113C407.917 311.789 408.008 311.498 408.052 311.1C408.409 308.062 404.842 308.062 405.196 311.1Z" fill="#F09453"/>
</g>
<g opacity="0.3">
<path d="M411.764 314.555C412.146 316.673 414.194 316.673 414.572 314.555C415.112 311.572 411.225 311.572 411.764 314.555Z" fill="#F09453"/>
</g>
<g opacity="0.3">
<path d="M409.134 326.786C409.174 327.004 409.214 327.221 409.258 327.434C409.411 328.243 410.387 328.243 410.54 327.434C410.58 327.216 410.624 326.999 410.664 326.786C410.97 325.168 408.824 325.168 409.134 326.786Z" fill="#F09453"/>
</g>
<g opacity="0.3">
<path d="M402.154 336.993C401.629 338.431 401.542 339.361 402.023 340.827C402.493 342.261 403.808 342.557 404.544 341.243C404.686 341.109 404.821 340.97 404.955 340.827C405.239 340.531 405.425 339.953 405.64 339.578C407.167 336.878 403.254 333.987 402.154 336.993Z" fill="#F09453"/>
</g>
<g opacity="0.3">
<path d="M385.437 392.279C385.481 393.231 385.63 394.013 386.184 394.697C386.639 395.257 387.357 395.257 387.812 394.697C388.366 394.018 388.515 393.236 388.559 392.279C388.668 389.726 385.324 389.726 385.437 392.279Z" fill="#F09453"/>
</g>
<g opacity="0.3">
<path d="M381.699 405.14C382.348 406.795 384.005 406.795 384.657 405.14C385.226 403.692 384.544 401.87 383.178 401.87C381.812 401.87 381.135 403.697 381.699 405.14Z" fill="#F09453"/>
</g>
<g opacity="0.3">
<path d="M374.457 420.378C375.579 420.378 375.579 418.172 374.457 418.172C373.335 418.167 373.335 420.378 374.457 420.378Z" fill="#F09453"/>
</g>
<g opacity="0.3">
<path d="M369.011 426.085C368.534 427.236 368.239 428.323 368.818 429.502C369.106 430.085 369.751 430.219 370.144 429.72C370.621 429.109 370.814 428.397 371.175 427.689C372.053 425.96 369.765 424.272 369.011 426.085Z" fill="#F09453"/>
</g>
<g opacity="0.3">
<path d="M351.008 447.099C351.139 447.099 351.139 446.831 351.008 446.831C350.877 446.831 350.877 447.099 351.008 447.099Z" fill="#F09453"/>
</g>
<g opacity="0.3">
<path d="M344.622 453.707C344.637 453.818 344.655 453.924 344.67 454.035C344.936 455.839 347.267 455.839 347.529 454.035C347.544 453.924 347.562 453.813 347.577 453.707C348.043 450.567 344.163 450.567 344.622 453.707Z" fill="#F09453"/>
</g>
<g opacity="0.3">
<path d="M338.331 455.367C339.471 456.111 340.936 454.636 340.185 453.013C339.012 450.474 336.393 454.1 338.331 455.367Z" fill="#F09453"/>
</g>
<g opacity="0.3">
<path d="M263.769 429.031C265.944 429.031 265.944 424.748 263.769 424.748C261.594 424.748 261.594 429.031 263.769 429.031Z" fill="#F09453"/>
</g>
<g opacity="0.3">
<path d="M275.222 435.001C275.313 435.001 275.404 435.001 275.495 435.001C277.408 435.001 277.408 431.236 275.495 431.236C275.404 431.236 275.313 431.236 275.222 431.236C273.31 431.236 273.31 435.001 275.222 435.001Z" fill="#F09453"/>
</g>
<g opacity="0.3">
<path d="M257.226 416.743C257.052 416.586 256.877 416.424 256.702 416.267C256.797 416.448 256.906 416.609 257.03 416.753C257.412 417.234 258.137 417.303 258.512 416.753C258.552 416.697 258.589 416.637 258.629 416.582C259.026 415.999 259.059 415.384 258.822 414.695C258.523 413.821 257.911 413.599 257.226 413.502C255.613 413.266 255.551 416.822 257.226 416.743Z" fill="#F09453"/>
</g>
<g opacity="0.3">
<path d="M257.226 406.849C257.262 406.849 257.262 406.777 257.226 406.777C257.194 406.777 257.194 406.849 257.226 406.849Z" fill="#F09453"/>
</g>
<g opacity="0.3">
<path d="M248.582 410.865C249.256 411.725 250.068 412.179 251.004 411.744C251.966 411.295 252.225 409.686 251.292 408.955C251.03 408.752 250.811 408.59 250.607 408.294C249.398 406.541 247.271 409.196 248.582 410.865Z" fill="#F09453"/>
</g>
<path d="M336.888 239.47C338.102 234.004 335.147 246.241 335.61 242.772C335.264 245.371 334.965 247.966 334.863 250.602C334.63 256.627 335.482 247.221 334.517 253.104C334.08 255.763 333.366 258.362 332.728 260.951C331.122 267.5 334.663 256.41 332.255 262.034C331.479 263.842 327.228 270.691 331.796 263.735C332.666 262.408 341.384 258.537 336.058 260.262C347.963 256.405 359.729 273.539 354.381 287.616C357.594 279.158 360.312 272.217 360.797 262.431C361.423 249.788 353.183 235.008 343.151 233.01C321.665 228.732 305.505 252.123 304.398 278.201C303.403 301.555 318.204 323.327 336.976 323.646C353.973 323.933 366.093 310.665 371.827 291.298C375.616 278.502 371.787 262.931 366.909 251.466C364.826 246.564 361.802 242.065 358.833 237.995C357.452 236.104 355.791 234.615 354.09 233.227C353.088 232.409 345.15 230.795 348.174 231.336C343.198 230.452 338.378 232.779 336.888 239.47Z" fill="#EECCA7"/>
<g opacity="0.55">
<path d="M345.872 262.51C345.238 267.698 343.613 271.13 340.542 276.656C340.131 277.896 339.719 279.135 339.304 280.379C339.723 279.227 339.624 279.5 339.016 281.202C338.051 283.921 337.322 286.474 336.681 289.3C335.901 292.74 335.748 295.991 335.843 299.524C336.094 308.889 343.897 314.855 350.458 310.17C358.939 304.117 363.736 291.991 363.438 279.768C363.208 270.381 358.76 255.614 349.329 258.121C347.817 258.523 346.116 260.516 345.872 262.51Z" fill="white"/>
</g>
<g opacity="0.55">
<path d="M334.306 250.463C332.921 254.195 330.75 257.062 328.812 260.332C326.277 264.6 325.231 269.294 325.115 274.608C324.976 280.8 331.533 284.435 334.889 279.746C337.737 275.764 339.857 272.115 341.103 266.908C342.134 262.602 342.499 257.622 342.12 253.15C341.719 248.479 336.276 245.149 334.306 250.463Z" fill="white"/>
</g>
<path d="M339.482 250.694C336.222 249.839 332.878 248.867 330.138 246.463C327.399 244.058 325.374 239.859 325.956 235.697C327.035 228.006 334.987 226.212 339.697 221.185C345.253 215.252 345.988 204.925 346.309 195.718C346.753 182.921 346.557 168.165 338.812 159.956C336.389 157.389 333.031 154.837 333.3 150.846C341.293 146.309 349.715 142.993 358.327 141C363.361 161.57 364.775 183.555 362.436 204.893C361.758 211.09 360.764 217.337 361.329 223.557C361.89 229.773 364.356 236.136 368.807 238.818C369.955 239.512 371.215 239.951 372.21 240.955C375.354 244.127 373.791 251.152 370.323 253.719C366.851 256.281 362.531 255.712 358.556 254.976C352.167 253.783 345.806 252.354 339.482 250.694Z" fill="#8AA03C"/>
<g opacity="0.15">
<path d="M324.656 337.164C319.935 347.768 315.986 358.705 309.957 368.283C303.287 378.882 291.932 385.727 287.615 398.329C285.065 405.765 285.619 415.199 291.979 419.458C309.228 431.01 322.776 410.223 331.737 394.051C336.375 385.68 339.748 376.228 341.843 366.364C344.218 355.191 341.522 346.64 337.016 337.164C334.28 331.416 327.341 331.134 324.656 337.164Z" fill="#B91C23"/>
</g>
<path d="M364.64 324.442C364.64 327.119 362.931 329.288 360.822 329.288C358.713 329.288 357.004 327.119 357.004 324.442C357.004 321.764 360.822 317.255 360.822 317.255C360.822 317.255 364.64 321.769 364.64 324.442Z" fill="#FFE7CF"/>
<path d="M310.66 316.83C310.66 319.507 308.951 321.676 306.842 321.676C304.733 321.676 303.024 319.507 303.024 316.83C303.024 314.152 306.842 309.648 306.842 309.648C306.842 309.648 310.66 314.152 310.66 316.83Z" fill="#FFE7CF"/>
<path d="M366.629 340.961C364.858 342.413 362.494 341.765 361.35 339.522C360.206 337.275 360.716 334.274 362.483 332.822C364.254 331.369 369.31 332.993 369.31 332.993C369.31 332.993 368.399 339.509 366.629 340.961Z" fill="#FFE4A9"/>
<path d="M293.899 278.441C291.794 278.589 289.994 276.541 289.877 273.868C289.761 271.195 291.375 268.91 293.48 268.762C295.586 268.614 299.342 273.206 299.342 273.206C299.342 273.206 296.005 278.293 293.899 278.441Z" fill="#FFE4A9"/>
<path d="M351.005 370.063C349.569 372.024 347.154 372.14 345.61 370.317C344.065 368.5 343.974 365.434 345.409 363.469C346.844 361.508 352.057 361.498 352.057 361.498C352.057 361.498 352.436 368.098 351.005 370.063Z" fill="#FFE4A9"/>
<path d="M384.654 279.44C382.548 279.588 380.748 277.54 380.632 274.867C380.515 272.194 382.129 269.909 384.235 269.761C386.34 269.613 390.096 274.205 390.096 274.205C390.096 274.205 386.759 279.297 384.654 279.44Z" fill="#FFE4A9"/>
<path d="M286.023 314.675C284.1 314.809 282.453 312.94 282.348 310.499C282.242 308.057 283.714 305.967 285.637 305.833C287.561 305.698 290.992 309.893 290.992 309.893C290.992 309.893 287.947 314.541 286.023 314.675Z" fill="#FFE4A9"/>
<path d="M299.032 316.353C300.066 318.245 299.699 320.844 298.209 322.157C296.719 323.471 294.671 323.004 293.637 321.112C292.602 319.221 293.557 313.657 293.557 313.657C293.557 313.657 297.997 314.462 299.032 316.353Z" fill="#FFE7CF"/>
<path d="M378.271 323.059C379.474 325.255 379.047 328.275 377.313 329.801C375.583 331.327 373.204 330.786 372.002 328.585C370.8 326.388 371.907 319.919 371.907 319.919C371.907 319.919 377.069 320.862 378.271 323.059Z" fill="#FFE7CF"/>
<path d="M381.543 286.373C382.745 288.569 382.319 291.589 380.585 293.115C378.854 294.642 376.476 294.1 375.273 291.899C374.071 289.702 375.179 283.233 375.179 283.233C375.179 283.233 380.341 284.176 381.543 286.373Z" fill="#FFE7CF"/>
<path d="M301.294 306.799C300.522 309.287 298.303 310.513 296.343 309.532C294.384 308.552 293.418 305.74 294.191 303.247C294.963 300.759 299.815 298.341 299.815 298.341C299.815 298.341 302.066 304.311 301.294 306.799Z" fill="#FFE7CF"/>
<mask id="mask14_2090_115196" style="mask-type:luminance" maskUnits="userSpaceOnUse" x="325" y="141" width="49" height="115">
<path d="M339.482 250.694C336.222 249.839 332.878 248.867 330.138 246.463C327.399 244.058 325.374 239.859 325.956 235.697C327.035 228.006 334.987 226.212 339.697 221.185C345.253 215.252 345.988 204.925 346.309 195.718C346.753 182.921 346.557 168.165 338.812 159.956C336.389 157.389 333.031 154.837 333.3 150.846C341.293 146.309 349.715 142.993 358.327 141C363.361 161.57 364.775 183.555 362.436 204.893C361.758 211.09 360.764 217.337 361.329 223.557C361.89 229.773 364.356 236.136 368.807 238.818C369.955 239.512 371.215 239.951 372.21 240.955C375.354 244.127 373.791 251.152 370.323 253.719C366.851 256.281 362.531 255.712 358.556 254.976C352.167 253.783 345.806 252.354 339.482 250.694Z" fill="white"/>
</mask>
<g mask="url(#mask14_2090_115196)">
<g opacity="0.37">
<path d="M347.533 143.058C358.225 163.022 358.039 194.769 352.148 216.324C345.781 239.623 359.835 266.39 379.678 261.095C385.925 259.43 389.841 251.434 390.045 243.808C390.373 231.581 385.965 225.435 378.687 218.489C375.051 215.016 376.891 183.208 376.064 176.017C374.21 159.859 366.625 137.999 353.045 133.952C349.154 132.791 344.987 138.304 347.533 143.058Z" fill="#C9DB40"/>
</g>
</g>
</svg>
