<svg width="480" height="620" viewBox="0 0 480 620" fill="none" xmlns="http://www.w3.org/2000/svg">
<rect width="480" height="620" fill="#FFF9F9" fill-opacity="0.82"/>
<path d="M360.16 414.348C360.16 500.868 296.326 545.555 217.58 545.555C138.834 545.555 75 500.868 75 414.348C75 327.827 138.834 232.234 217.58 232.234C296.326 232.234 360.16 327.827 360.16 414.348Z" fill="#CF9400"/>
<path d="M217.58 232.234C138.834 232.234 75 327.827 75 414.348C75 446.065 83.6033 472.141 98.3592 492.475C122.775 508.651 153.746 516.878 187.478 516.878C266.224 516.878 330.059 472.191 330.059 385.67C330.059 339.272 311.691 290.267 282.517 254.791C263.041 240.667 240.972 232.234 217.58 232.234Z" fill="#E8AC0F"/>
<path d="M202.111 366.866C192.827 400.751 165.364 424.209 140.773 419.256C116.182 414.304 103.773 382.819 113.057 348.933C122.341 315.048 149.804 291.59 174.395 296.543C198.98 301.496 211.396 332.98 202.111 366.866Z" fill="#FFD978"/>
<mask id="mask0_2090_113902" style="mask-type:luminance" maskUnits="userSpaceOnUse" x="75" y="232" width="286" height="314">
<path d="M360.16 414.348C360.16 500.868 296.326 545.555 217.58 545.555C138.834 545.555 75 500.868 75 414.348C75 327.827 138.834 232.234 217.58 232.234C296.326 232.234 360.16 327.827 360.16 414.348Z" fill="white"/>
</mask>
<g mask="url(#mask0_2090_113902)">
<path d="M103.027 294.119L101.244 292.607C98.2096 290.034 95.2013 288.277 92.0116 286.415C85.3662 282.535 78.4939 278.527 71.7059 267.137L69.9294 264.147L73.8389 264.008C79.1487 263.819 85.6709 256.442 91.4216 249.933C94.6113 246.32 97.9113 242.59 101.224 239.722L102.988 238.193L104.771 239.705C107.805 242.279 110.813 244.035 114.003 245.898C120.648 249.778 127.521 253.785 134.309 265.181L136.085 268.171L132.176 268.31C126.859 268.499 120.344 275.881 114.586 282.39C111.397 285.998 108.097 289.728 104.79 292.596L103.027 294.119ZM77.7094 267.632C83.3758 276.181 88.9514 279.433 94.8318 282.863C97.464 284.397 100.168 285.976 102.897 288.049C105.451 285.609 108.058 282.663 110.593 279.794C116.492 273.118 122.12 266.748 128.305 264.697C122.639 256.148 117.057 252.89 111.183 249.461C108.55 247.926 105.847 246.348 103.124 244.28C100.569 246.72 97.9632 249.672 95.4218 252.54C89.522 259.211 83.8945 265.575 77.7094 267.632Z" fill="#DE7B00"/>
<path d="M162.965 294.119L161.182 292.607C158.148 290.034 155.14 288.277 151.95 286.415C145.305 282.535 138.433 278.527 131.645 267.137L129.868 264.147L133.778 264.008C139.087 263.819 145.61 256.442 151.367 249.933C154.557 246.32 157.857 242.59 161.169 239.722L162.933 238.193L164.716 239.705C167.75 242.279 170.758 244.035 173.948 245.898C180.593 249.778 187.466 253.785 194.254 265.181L196.03 268.171L192.121 268.31C186.804 268.499 180.289 275.881 174.532 282.39C171.342 285.998 168.042 289.728 164.735 292.596L162.965 294.119ZM137.655 267.632C143.321 276.181 148.897 279.433 154.777 282.863C157.409 284.397 160.113 285.976 162.842 288.049C165.397 285.609 168.003 282.663 170.538 279.794C176.438 273.118 182.065 266.748 188.25 264.697C182.577 256.148 177.002 252.89 171.128 249.461C168.496 247.926 165.792 246.348 163.069 244.28C160.515 246.72 157.908 249.672 155.367 252.54C149.461 259.211 143.833 265.575 137.655 267.632Z" fill="#DE7B00"/>
<path d="M222.903 294.119L221.12 292.607C218.086 290.034 215.078 288.277 211.888 286.415C205.243 282.535 198.37 278.527 191.582 267.137L189.806 264.147L193.715 264.008C199.025 263.819 205.547 256.442 211.305 249.933C214.494 246.32 217.794 242.59 221.107 239.722L222.877 238.193L224.66 239.705C227.694 242.279 230.703 244.035 233.892 245.898C240.538 249.778 247.41 253.785 254.198 265.181L255.975 268.171L252.065 268.31C246.749 268.499 240.233 275.881 234.476 282.39C231.286 285.998 227.986 289.728 224.68 292.596L222.903 294.119ZM197.592 267.632C203.259 276.181 208.834 279.433 214.715 282.863C217.347 284.397 220.051 285.976 222.78 288.049C225.334 285.609 227.941 282.663 230.476 279.794C236.376 273.118 242.003 266.748 248.188 264.697C242.522 256.148 236.939 252.89 231.066 249.461C228.433 247.926 225.73 246.348 223.007 244.28C220.452 246.72 217.846 249.672 215.305 252.54C209.398 259.211 203.771 265.575 197.592 267.632Z" fill="#DE7B00"/>
<path d="M281.467 294.119L279.684 292.607C276.65 290.034 273.642 288.277 270.452 286.415C263.807 282.535 256.934 278.527 250.146 267.137L248.37 264.147L252.279 264.008C257.589 263.819 264.111 256.442 269.862 249.933C273.052 246.32 276.352 242.59 279.665 239.722L281.428 238.193L283.211 239.705C286.239 242.279 289.253 244.035 292.443 245.898C299.089 249.778 305.961 253.785 312.749 265.181L314.525 268.171L310.616 268.31C305.3 268.499 298.784 275.881 293.027 282.39C289.837 285.998 286.537 289.728 283.23 292.596L281.467 294.119ZM256.156 267.632C261.823 276.181 267.398 279.433 273.279 282.863C275.911 284.397 278.614 285.976 281.344 288.049C283.898 285.609 286.504 282.657 289.039 279.794C294.939 273.118 300.567 266.748 306.752 264.697C301.085 256.148 295.51 252.89 289.629 249.461C286.997 247.926 284.294 246.348 281.571 244.28C279.016 246.72 276.41 249.672 273.869 252.54C267.962 259.211 262.335 265.575 256.156 267.632Z" fill="#DE7B00"/>
<path d="M103.585 345.514L101.802 344.002C98.7674 341.429 95.7592 339.672 92.5694 337.816C85.9241 333.936 79.0518 329.928 72.2638 318.532L70.4874 315.542L74.3968 315.403C79.7131 315.214 86.2288 307.838 91.9859 301.328C95.1757 297.715 98.4757 293.985 101.789 291.117L103.552 289.588L105.335 291.1C108.369 293.674 111.377 295.431 114.567 297.287C121.213 301.167 128.085 305.175 134.873 316.57L136.649 319.561L132.74 319.7C127.424 319.889 120.908 327.265 115.151 333.774C111.961 337.387 108.661 341.117 105.348 343.986L103.585 345.514ZM78.2673 319.022C83.9402 327.571 89.5158 330.828 95.3897 334.258C98.0219 335.792 100.725 337.371 103.448 339.439C106.003 336.998 108.609 334.047 111.151 331.178C117.05 324.502 122.678 318.138 128.856 316.087C123.183 307.537 117.608 304.28 111.734 300.856C109.102 299.322 106.398 297.743 103.675 295.675C101.121 298.115 98.5146 301.067 95.9732 303.935C90.0799 310.6 84.4524 316.965 78.2673 319.022Z" fill="#DE7B00"/>
<path d="M163.522 345.514L161.739 344.002C158.705 341.429 155.697 339.672 152.507 337.816C145.862 333.936 138.989 329.928 132.201 318.532L130.425 315.542L134.334 315.403C139.651 315.214 146.166 307.838 151.917 301.328C155.107 297.715 158.407 293.985 161.72 291.117L163.483 289.588L165.266 291.1C168.3 293.674 171.309 295.431 174.498 297.293C181.144 301.173 188.016 305.18 194.804 316.576L196.58 319.566L192.671 319.705C187.355 319.894 180.839 327.271 175.088 333.78C171.898 337.393 168.598 341.123 165.286 343.991L163.522 345.514ZM138.211 319.022C143.884 327.571 149.46 330.828 155.334 334.258C157.966 335.792 160.669 337.371 163.392 339.439C165.947 336.998 168.553 334.047 171.095 331.178C176.994 324.502 182.622 318.138 188.8 316.087C183.134 307.537 177.552 304.28 171.678 300.856C169.046 299.322 166.342 297.743 163.619 295.675C161.065 298.115 158.459 301.067 155.917 303.935C150.017 310.6 144.39 316.965 138.211 319.022Z" fill="#DE7B00"/>
<path d="M222.086 345.514L220.303 344.002C217.269 341.429 214.261 339.672 211.071 337.816C204.426 333.936 197.553 329.928 190.765 318.532L188.989 315.542L192.898 315.403C198.208 315.214 204.73 307.838 210.481 301.328C213.671 297.715 216.971 293.985 220.284 291.117L222.047 289.588L223.83 291.1C226.864 293.674 229.873 295.431 233.062 297.293C239.708 301.173 246.58 305.18 253.368 316.576L255.144 319.566L251.235 319.705C245.919 319.894 239.396 327.276 233.646 333.785C230.456 337.393 227.156 341.123 223.85 343.991L222.086 345.514ZM196.775 319.022C202.448 327.571 208.024 330.828 213.898 334.258C216.53 335.792 219.233 337.371 221.956 339.439C224.511 336.998 227.117 334.052 229.652 331.184C235.552 324.508 241.179 318.138 247.364 316.087C241.698 307.537 236.116 304.28 230.242 300.856C227.61 299.322 224.906 297.743 222.183 295.675C219.629 298.115 217.023 301.067 214.481 303.935C208.581 310.6 202.954 316.965 196.775 319.022Z" fill="#DE7B00"/>
<path d="M282.025 345.514L280.242 344.002C277.208 341.429 274.2 339.672 271.01 337.816C264.365 333.936 257.492 329.928 250.704 318.532L248.928 315.542L252.837 315.403C258.154 315.214 264.669 307.838 270.42 301.328C273.61 297.715 276.91 293.985 280.223 291.117L281.986 289.588L283.769 291.1C286.803 293.674 289.812 295.431 293.001 297.287C299.647 301.167 306.519 305.175 313.307 316.57L315.083 319.561L311.174 319.7C305.858 319.889 299.342 327.265 293.591 333.774C290.402 337.387 287.101 341.117 283.789 343.986L282.025 345.514ZM256.714 319.022C262.387 327.571 267.963 330.828 273.837 334.258C276.469 335.792 279.172 337.371 281.895 339.439C284.45 336.998 287.056 334.047 289.598 331.178C295.497 324.502 301.125 318.138 307.303 316.087C301.631 307.537 296.055 304.28 290.181 300.856C287.549 299.322 284.845 297.743 282.122 295.675C279.568 298.115 276.962 301.067 274.42 303.935C268.52 310.6 262.893 316.965 256.714 319.022Z" fill="#DE7B00"/>
<path d="M104.272 395.727L102.489 394.215C99.455 391.641 96.4467 389.884 93.257 388.022C86.6116 384.142 79.7393 380.134 72.9513 368.745L71.1749 365.754L75.0844 365.615C80.4006 365.426 86.9163 358.05 92.6735 351.541C95.8633 347.927 99.1632 344.198 102.476 341.329L104.24 339.801L106.023 341.313C109.057 343.886 112.065 345.643 115.255 347.499C121.9 351.379 128.772 355.387 135.56 366.782L137.337 369.773L133.427 369.912C128.118 370.101 121.595 377.477 115.838 383.987C112.648 387.594 109.348 391.33 106.035 394.198L104.272 395.727ZM78.9614 369.234C84.6277 377.783 90.2034 381.035 96.0837 384.465C98.7159 385.999 101.419 387.578 104.149 389.651C106.703 387.211 109.31 384.259 111.845 381.391C117.744 374.715 123.372 368.344 129.557 366.293C123.884 357.744 118.308 354.487 112.434 351.063C109.802 349.528 107.099 347.95 104.376 345.882C101.821 348.322 99.2151 351.274 96.6736 354.142C90.7674 360.812 85.1399 367.177 78.9614 369.234Z" fill="#DE7B00"/>
<path d="M164.21 395.727L162.427 394.215C159.393 391.641 156.385 389.884 153.195 388.022C146.549 384.142 139.677 380.134 132.889 368.745L131.113 365.754L135.022 365.615C140.338 365.426 146.861 358.044 152.611 351.535C155.801 347.927 159.101 344.198 162.407 341.329L164.171 339.801L165.954 341.313C168.988 343.886 171.996 345.643 175.186 347.499C181.831 351.379 188.704 355.387 195.492 366.782L197.268 369.773L193.359 369.912C188.049 370.101 181.527 377.477 175.776 383.987C172.586 387.594 169.286 391.33 165.973 394.198L164.21 395.727ZM138.899 369.234C144.565 377.783 150.141 381.035 156.021 384.465C158.654 385.999 161.357 387.578 164.087 389.645C166.641 387.205 169.247 384.259 171.782 381.385C177.682 374.709 183.31 368.339 189.495 366.288C183.828 357.738 178.246 354.481 172.372 351.057C169.74 349.523 167.037 347.944 164.314 345.876C161.759 348.317 159.153 351.263 156.618 354.137C150.712 360.812 145.084 367.177 138.899 369.234Z" fill="#DE7B00"/>
<path d="M224.155 395.727L222.372 394.215C219.338 391.641 216.329 389.884 213.14 388.022C206.494 384.142 199.622 380.134 192.834 368.745L191.058 365.754L194.967 365.615C200.277 365.426 206.799 358.05 212.55 351.541C215.739 347.927 219.039 344.198 222.352 341.329L224.116 339.801L225.899 341.313C228.933 343.886 231.941 345.643 235.131 347.505C241.776 351.379 248.649 355.393 255.437 366.788L257.213 369.779L253.304 369.918C247.987 370.107 241.465 377.489 235.714 383.998C232.525 387.605 229.231 391.335 225.918 394.203L224.155 395.727ZM198.844 369.234C204.51 377.783 210.092 381.035 215.966 384.465C218.599 385.999 221.302 387.578 224.032 389.645C226.579 387.211 229.186 384.259 231.727 381.391C237.627 374.709 243.261 368.344 249.44 366.288C243.773 357.738 238.191 354.481 232.317 351.057C229.685 349.523 226.981 347.944 224.258 345.876C221.704 348.317 219.098 351.268 216.556 354.137C210.65 360.812 205.023 367.177 198.844 369.234Z" fill="#DE7B00"/>
<path d="M282.717 395.727L280.934 394.215C277.9 391.641 274.892 389.884 271.702 388.022C265.057 384.142 258.184 380.134 251.396 368.745L249.62 365.754L253.53 365.615C258.846 365.426 265.362 358.05 271.119 351.541C274.308 347.927 277.608 344.198 280.921 341.329L282.691 339.801L284.474 341.313C287.508 343.886 290.517 345.643 293.706 347.499C300.352 351.379 307.224 355.387 314.012 366.782L315.789 369.773L311.879 369.912C306.569 370.101 300.047 377.477 294.296 383.987C291.107 387.594 287.807 391.33 284.494 394.198L282.717 395.727ZM257.4 369.234C263.066 377.783 268.642 381.035 274.522 384.465C277.155 385.999 279.858 387.578 282.588 389.645C285.142 387.205 287.748 384.259 290.283 381.385C296.183 374.709 301.811 368.344 307.996 366.288C302.323 357.738 296.747 354.481 290.873 351.057C288.241 349.523 285.538 347.944 282.815 345.876C280.26 348.317 277.654 351.268 275.112 354.137C269.213 360.812 263.585 367.177 257.4 369.234Z" fill="#DE7B00"/>
<path d="M103.027 445.932L101.244 444.421C98.2096 441.847 95.2013 440.09 92.0116 438.234C85.3662 434.354 78.4939 430.346 71.7059 418.951L69.9294 415.96L73.8389 415.821C79.1487 415.632 85.6709 408.256 91.4216 401.746C94.6113 398.139 97.9113 394.403 101.224 391.535L102.988 390.007L104.771 391.518C107.805 394.092 110.813 395.849 114.003 397.711C120.648 401.591 127.521 405.599 134.309 416.988L136.085 419.979L132.176 420.118C126.859 420.307 120.337 427.683 114.586 434.198C111.397 437.806 108.097 441.536 104.79 444.404L103.027 445.932ZM77.7094 419.44C83.3758 427.989 88.9579 431.246 94.8318 434.671C97.464 436.205 100.168 437.783 102.89 439.851C105.445 437.411 108.051 434.465 110.586 431.597C116.486 424.921 122.113 418.55 128.299 416.499C122.632 407.95 117.056 404.698 111.176 401.268C108.544 399.734 105.84 398.155 103.111 396.082C100.557 398.522 97.9502 401.474 95.4088 404.342C89.5219 411.024 83.8945 417.389 77.7094 419.44Z" fill="#DE7B00"/>
<path d="M162.965 445.932L161.183 444.421C158.148 441.847 155.14 440.09 151.95 438.234C145.305 434.354 138.433 430.346 131.645 418.951L129.868 415.96L133.778 415.821C139.087 415.632 145.61 408.256 151.36 401.746C154.55 398.139 157.85 394.403 161.163 391.535L162.927 390.007L164.709 391.518C167.744 394.092 170.752 395.849 173.942 397.711C180.587 401.591 187.459 405.599 194.247 416.988L196.024 419.979L192.114 420.118C186.798 420.307 180.276 427.683 174.525 434.198C171.335 437.806 168.035 441.536 164.729 444.404L162.965 445.932ZM137.655 419.44C143.321 427.989 148.903 431.246 154.777 434.671C157.409 436.205 160.113 437.783 162.836 439.851C165.39 437.411 167.996 434.465 170.531 431.597C176.431 424.921 182.059 418.55 188.244 416.499C182.571 407.95 177.002 404.698 171.121 401.268C168.489 399.734 165.786 398.155 163.056 396.082C160.502 398.522 157.895 401.474 155.354 404.342C149.461 411.024 143.833 417.389 137.655 419.44Z" fill="#DE7B00"/>
<path d="M222.91 445.932L221.127 444.421C218.093 441.847 215.085 440.09 211.895 438.234C205.25 434.354 198.378 430.346 191.59 418.951L189.813 415.96L193.723 415.821C199.032 415.632 205.555 408.256 211.305 401.746C214.495 398.139 217.795 394.403 221.108 391.535L222.878 390.007L224.661 391.518C227.695 394.092 230.703 395.849 233.893 397.711C240.538 401.591 247.411 405.599 254.199 416.988L255.975 419.979L252.066 420.118C246.749 420.307 240.227 427.683 234.476 434.198C231.287 437.806 227.987 441.536 224.68 444.404L222.91 445.932ZM197.593 419.44C203.259 427.989 208.842 431.246 214.715 434.671C217.348 436.205 220.051 437.783 222.774 439.851C225.329 437.411 227.935 434.465 230.47 431.597C236.37 424.921 241.997 418.55 248.182 416.499C242.516 407.95 236.94 404.698 231.06 401.268C228.428 399.734 225.724 398.155 222.995 396.082C220.44 398.522 217.834 401.474 215.292 404.342C209.399 411.024 203.772 417.389 197.593 419.44Z" fill="#DE7B00"/>
<path d="M281.473 445.932L279.69 444.421C276.656 441.847 273.647 440.09 270.458 438.234C263.812 434.354 256.94 430.346 250.152 418.951L248.376 415.96L252.285 415.821C257.595 415.632 264.117 408.256 269.868 401.746C273.057 398.139 276.358 394.403 279.67 391.535L281.434 390.007L283.217 391.518C286.251 394.092 289.259 395.849 292.449 397.711C299.094 401.591 305.967 405.599 312.748 416.988L314.525 419.979L310.615 420.118C305.299 420.307 298.783 427.683 293.026 434.198C289.836 437.806 286.536 441.536 283.23 444.404L281.473 445.932ZM256.156 419.44C261.822 427.989 267.404 431.246 273.278 434.671C275.91 436.205 278.614 437.783 281.337 439.851C283.891 437.411 286.497 434.459 289.032 431.597C294.932 424.921 300.56 418.55 306.745 416.499C301.078 407.95 295.503 404.698 289.629 401.268C286.997 399.734 284.293 398.155 281.564 396.082C279.009 398.522 276.403 401.474 273.862 404.342C267.962 411.024 262.334 417.389 256.156 419.44Z" fill="#DE7B00"/>
<path d="M103.585 497.328L101.802 495.816C98.7675 493.242 95.7593 491.486 92.5695 489.629C85.9241 485.749 79.0518 481.741 72.2638 470.346L70.4874 467.355L74.3968 467.216C79.7066 467.027 86.2288 459.651 91.9795 453.142C95.1693 449.529 98.4693 445.799 101.782 442.93L103.546 441.402L105.329 442.914C108.363 445.487 111.371 447.244 114.561 449.106C121.206 452.986 128.079 456.994 134.867 468.384L136.643 471.374L132.733 471.513C127.417 471.702 120.902 479.079 115.144 485.588C111.955 489.201 108.655 492.931 105.342 495.799L103.585 497.328ZM78.2673 470.835C83.9402 479.384 89.5158 482.642 95.3897 486.066C98.0219 487.6 100.725 489.179 103.448 491.247C106.003 488.806 108.609 485.855 111.151 482.986C117.05 476.31 122.678 469.946 128.856 467.894C123.19 459.345 117.614 456.093 111.734 452.664C109.102 451.129 106.398 449.551 103.669 447.477C101.114 449.918 98.5082 452.869 95.9668 455.738C90.0799 462.414 84.4524 468.778 78.2673 470.835Z" fill="#DE7B00"/>
<path d="M163.522 497.328L161.739 495.816C158.705 493.242 155.697 491.486 152.507 489.629C145.862 485.749 138.989 481.741 132.201 470.346L130.425 467.355L134.334 467.216C139.644 467.027 146.166 459.651 151.917 453.142C155.107 449.529 158.407 445.799 161.72 442.93L163.483 441.402L165.266 442.914C168.3 445.487 171.309 447.244 174.498 449.106C181.144 452.986 188.016 456.994 194.804 468.384L196.58 471.374L192.671 471.513C187.355 471.702 180.839 479.079 175.088 485.588C171.898 489.201 168.598 492.931 165.286 495.799L163.522 497.328ZM138.211 470.835C143.884 479.384 149.46 482.642 155.334 486.066C157.966 487.6 160.669 489.179 163.392 491.247C165.947 488.806 168.553 485.855 171.095 482.986C176.994 476.31 182.622 469.946 188.8 467.894C183.134 459.345 177.558 456.093 171.678 452.664C169.046 451.129 166.342 449.551 163.613 447.477C161.058 449.918 158.452 452.869 155.911 455.738C150.017 462.414 144.39 468.778 138.211 470.835Z" fill="#DE7B00"/>
<path d="M222.086 497.328L220.303 495.816C217.269 493.242 214.261 491.486 211.071 489.629C204.426 485.749 197.553 481.741 190.765 470.346L188.989 467.355L192.898 467.216C198.208 467.027 204.73 459.651 210.481 453.142C213.671 449.529 216.971 445.799 220.284 442.93L222.047 441.402L223.83 442.914C226.864 445.487 229.873 447.244 233.062 449.106C239.708 452.986 246.58 456.994 253.368 468.384L255.144 471.374L251.235 471.513C245.919 471.702 239.396 479.084 233.646 485.593C230.456 489.201 227.156 492.931 223.85 495.799L222.086 497.328ZM196.775 470.835C202.448 479.384 208.024 482.642 213.898 486.066C216.53 487.6 219.233 489.179 221.956 491.247C224.511 488.806 227.117 485.86 229.652 482.986C235.552 476.31 241.179 469.94 247.364 467.889C241.698 459.34 236.122 456.088 230.242 452.658C227.61 451.124 224.906 449.545 222.177 447.472C219.622 449.912 217.016 452.864 214.475 455.732C208.581 462.414 202.954 468.778 196.775 470.835Z" fill="#DE7B00"/>
<path d="M282.025 497.328L280.242 495.816C277.208 493.242 274.2 491.486 271.01 489.629C264.365 485.749 257.492 481.741 250.704 470.346L248.928 467.355L252.837 467.216C258.147 467.027 264.669 459.651 270.42 453.142C273.61 449.529 276.91 445.799 280.223 442.93L281.986 441.402L283.769 442.914C286.803 445.487 289.812 447.244 293.001 449.106C299.647 452.986 306.519 456.994 313.307 468.384L315.083 471.374L311.174 471.513C305.858 471.702 299.342 479.079 293.591 485.588C290.402 489.201 287.101 492.931 283.789 495.799L282.025 497.328ZM256.714 470.835C262.387 479.384 267.963 482.642 273.837 486.066C276.469 487.6 279.172 489.179 281.895 491.247C284.45 488.806 287.056 485.855 289.598 482.986C295.497 476.31 301.125 469.946 307.303 467.894C301.637 459.345 296.061 456.093 290.181 452.664C287.549 451.129 284.845 449.551 282.116 447.477C279.561 449.918 276.955 452.869 274.414 455.738C268.52 462.414 262.893 468.778 256.714 470.835Z" fill="#DE7B00"/>
<path d="M104.272 547.54L102.489 546.028C99.455 543.454 96.4467 541.698 93.257 539.841C86.6116 535.961 79.7393 531.953 72.9513 520.558L71.1749 517.568L75.0844 517.429C80.4006 517.24 86.9163 509.863 92.6735 503.354C95.8633 499.741 99.1632 496.011 102.476 493.143L104.24 491.614L106.023 493.126C109.057 495.7 112.065 497.456 115.255 499.318C121.9 503.193 128.772 507.206 135.56 518.596L137.337 521.586L133.427 521.725C128.111 521.914 121.595 529.291 115.838 535.8C112.648 539.413 109.348 543.143 106.035 546.011L104.272 547.54ZM78.9614 521.047C84.6342 529.597 90.2098 532.854 96.0837 536.278C98.7159 537.812 101.419 539.391 104.142 541.459C106.697 539.018 109.303 536.067 111.845 533.199C117.744 526.523 123.372 520.158 129.55 518.107C123.878 509.557 118.302 506.306 112.428 502.876C109.796 501.342 107.092 499.763 104.363 497.69C101.808 500.13 99.2021 503.082 96.6607 505.95C90.7674 512.626 85.1399 518.991 78.9614 521.047Z" fill="#DE7B00"/>
<path d="M164.21 547.54L162.427 546.028C159.393 543.454 156.385 541.698 153.195 539.835C146.549 535.961 139.677 531.948 132.889 520.552L131.113 517.562L135.022 517.423C140.338 517.234 146.861 509.852 152.611 503.343C155.801 499.735 159.101 496.005 162.407 493.137L164.171 491.608L165.954 493.12C168.988 495.694 171.996 497.451 175.186 499.313C181.831 503.187 188.704 507.2 195.492 518.59L197.268 521.581L193.359 521.72C188.042 521.909 181.527 529.285 175.776 535.794C172.586 539.407 169.286 543.137 165.973 546.006L164.21 547.54ZM138.899 521.047C144.565 529.596 150.148 532.854 156.021 536.278C158.654 537.812 161.357 539.391 164.08 541.459C166.635 539.018 169.241 536.067 171.782 533.198C177.682 526.522 183.31 520.158 189.488 518.107C183.822 509.557 178.246 506.306 172.366 502.876C169.734 501.342 167.03 499.763 164.301 497.69C161.746 500.13 159.14 503.076 156.605 505.944C150.712 512.626 145.084 518.99 138.899 521.047Z" fill="#DE7B00"/>
<path d="M224.155 547.54L222.372 546.028C219.338 543.454 216.329 541.698 213.14 539.841C206.494 535.961 199.622 531.953 192.834 520.558L191.058 517.568L194.967 517.429C200.277 517.24 206.799 509.863 212.55 503.354C215.739 499.741 219.039 496.011 222.352 493.143L224.116 491.614L225.899 493.126C228.933 495.7 231.941 497.456 235.131 499.318C241.776 503.198 248.649 507.206 255.437 518.596L257.213 521.586L253.304 521.725C247.987 521.914 241.465 529.291 235.714 535.806C232.525 539.413 229.225 543.143 225.918 546.011L224.155 547.54ZM198.844 521.047C204.51 529.597 210.092 532.854 215.966 536.278C218.599 537.812 221.302 539.391 224.025 541.459C226.579 539.018 229.186 536.072 231.721 533.204C237.621 526.528 243.248 520.158 249.433 518.107C243.767 509.557 238.191 506.306 232.311 502.876C229.678 501.342 226.975 499.763 224.245 497.69C221.691 500.13 219.085 503.082 216.543 505.95C210.65 512.626 205.023 518.991 198.844 521.047Z" fill="#DE7B00"/>
<path d="M282.717 547.54L280.934 546.028C277.9 543.454 274.892 541.698 271.702 539.835C265.057 535.961 258.184 531.948 251.396 520.552L249.62 517.562L253.53 517.423C258.846 517.234 265.362 509.858 271.119 503.348C274.308 499.735 277.608 496.005 280.921 493.137L282.691 491.608L284.474 493.12C287.508 495.694 290.517 497.451 293.706 499.313C300.352 503.187 307.224 507.2 314.012 518.59L315.789 521.581L311.879 521.72C306.569 521.909 300.047 529.285 294.29 535.794C291.1 539.407 287.8 543.137 284.487 546.006L282.717 547.54ZM257.4 521.047C263.066 529.596 268.649 532.854 274.522 536.278C277.155 537.812 279.858 539.391 282.581 541.459C285.136 539.018 287.742 536.067 290.283 533.198C296.183 526.522 301.811 520.158 307.989 518.107C302.323 509.557 296.747 506.306 290.867 502.876C288.235 501.342 285.531 499.763 282.802 497.69C280.247 500.13 277.641 503.081 275.099 505.95C269.213 512.626 263.585 518.99 257.4 521.047Z" fill="#DE7B00"/>
<path d="M339.563 294.119L337.781 292.607C334.746 290.034 331.738 288.277 328.548 286.415C321.903 282.535 315.031 278.527 308.243 267.137L306.466 264.147L310.376 264.008C315.692 263.819 322.214 256.442 327.965 249.928C331.155 246.32 334.455 242.59 337.761 239.722L339.524 238.193L341.307 239.705C344.342 242.279 347.35 244.035 350.54 245.892C357.185 249.772 364.057 253.78 370.845 265.175L372.622 268.166L368.712 268.305C363.402 268.494 356.88 275.87 351.13 282.379C347.94 285.992 344.64 289.722 341.327 292.591L339.563 294.119ZM314.253 267.632C319.919 276.181 325.495 279.433 331.375 282.863C334.007 284.397 336.711 285.976 339.44 288.049C341.995 285.609 344.601 282.657 347.142 279.789C353.042 273.113 358.67 266.748 364.848 264.697C359.182 256.148 353.6 252.89 347.726 249.461C345.094 247.926 342.39 246.348 339.667 244.28C337.113 246.72 334.506 249.666 331.971 252.535C326.065 259.211 320.438 265.575 314.253 267.632Z" fill="#DE7B00"/>
<path d="M340.127 345.514L338.345 344.002C335.31 341.429 332.302 339.672 329.112 337.816C322.467 333.936 315.595 329.928 308.807 318.532L307.03 315.542L310.94 315.403C316.249 315.214 322.772 307.838 328.522 301.328C331.712 297.715 335.012 293.985 338.325 291.117L340.089 289.588L341.871 291.1C344.906 293.674 347.914 295.431 351.104 297.293C357.749 301.173 364.621 305.18 371.409 316.576L373.186 319.566L369.276 319.705C363.96 319.894 357.438 327.276 351.687 333.785C348.497 337.393 345.197 341.123 341.891 343.991L340.127 345.514ZM314.817 319.022C320.483 327.571 326.065 330.828 331.939 334.258C334.571 335.792 337.275 337.371 339.998 339.439C342.552 336.998 345.159 334.052 347.694 331.184C353.593 324.508 359.221 318.138 365.406 316.087C359.739 307.537 354.157 304.28 348.283 300.856C345.651 299.322 342.948 297.743 340.225 295.675C337.67 298.115 335.064 301.067 332.523 303.935C326.623 310.6 320.995 316.965 314.817 319.022Z" fill="#DE7B00"/>
<path d="M340.815 395.727L339.032 394.215C335.998 391.641 332.99 389.884 329.8 388.022C323.154 384.142 316.282 380.134 309.494 368.745L307.718 365.754L311.627 365.615C316.943 365.426 323.459 358.05 329.21 351.541C332.4 347.927 335.7 344.198 339.013 341.329L340.776 339.801L342.559 341.313C345.593 343.886 348.601 345.643 351.791 347.505C358.437 351.379 365.309 355.393 372.097 366.788L373.873 369.779L369.964 369.918C364.648 370.107 358.125 377.489 352.375 383.998C349.185 387.605 345.891 391.335 342.578 394.203L340.815 395.727ZM315.504 369.234C321.171 377.783 326.746 381.035 332.627 384.465C335.259 385.999 337.962 387.578 340.692 389.645C343.24 387.211 345.846 384.259 348.387 381.391C354.287 374.709 359.921 368.344 366.1 366.288C360.433 357.738 354.851 354.481 348.977 351.057C346.345 349.523 343.642 347.944 340.919 345.876C338.364 348.317 335.758 351.268 333.217 354.137C327.31 360.812 321.683 367.177 315.504 369.234Z" fill="#DE7B00"/>
<path d="M339.563 445.932L337.78 444.421C334.746 441.847 331.738 440.09 328.548 438.234C321.903 434.354 315.031 430.346 308.243 418.951L306.466 415.96L310.376 415.821C315.692 415.632 322.208 408.256 327.965 401.741C331.155 398.133 334.454 394.403 337.761 391.535L339.531 390.007L341.314 391.518C344.348 394.092 347.356 395.849 350.546 397.711C357.191 401.591 364.064 405.599 370.852 416.988L372.628 419.979L368.719 420.118C363.409 420.307 356.887 427.683 351.136 434.192C347.946 437.806 344.646 441.536 341.333 444.404L339.563 445.932ZM314.253 419.44C319.926 427.989 325.501 431.246 331.375 434.671C334.007 436.205 336.711 437.783 339.434 439.851C341.988 437.411 344.594 434.459 347.136 431.591C353.036 424.915 358.663 418.55 364.842 416.499C359.175 407.95 353.6 404.698 347.719 401.268C345.087 399.734 342.384 398.155 339.654 396.082C337.1 398.522 334.493 401.468 331.958 404.337C326.065 411.018 320.438 417.389 314.253 419.44Z" fill="#DE7B00"/>
<path d="M340.127 497.328L338.345 495.816C335.31 493.242 332.302 491.486 329.112 489.629C322.467 485.749 315.595 481.741 308.807 470.346L307.03 467.355L310.94 467.216C316.249 467.027 322.772 459.651 328.522 453.142C331.712 449.529 335.012 445.799 338.325 442.93L340.089 441.402L341.871 442.914C344.906 445.487 347.914 447.244 351.104 449.106C357.749 452.986 364.621 456.994 371.409 468.384L373.186 471.374L369.276 471.513C363.96 471.702 357.438 479.084 351.687 485.593C348.497 489.201 345.197 492.931 341.891 495.799L340.127 497.328ZM314.817 470.835C320.483 479.384 326.065 482.642 331.939 486.066C334.571 487.6 337.275 489.179 339.998 491.247C342.552 488.806 345.159 485.86 347.694 482.986C353.593 476.31 359.221 469.94 365.406 467.889C359.739 459.34 354.164 456.088 348.283 452.658C345.651 451.124 342.948 449.545 340.218 447.472C337.664 449.912 335.058 452.864 332.516 455.732C326.623 462.414 320.995 468.778 314.817 470.835Z" fill="#DE7B00"/>
<path d="M340.815 547.54L339.032 546.028C335.998 543.454 332.99 541.698 329.8 539.841C323.154 535.961 316.282 531.953 309.494 520.558L307.718 517.568L311.627 517.429C316.943 517.24 323.459 509.863 329.21 503.354C332.4 499.741 335.7 496.011 339.013 493.143L340.776 491.614L342.559 493.126C345.593 495.7 348.601 497.456 351.791 499.318C358.437 503.198 365.309 507.206 372.097 518.596L373.873 521.586L369.964 521.725C364.648 521.914 358.125 529.291 352.375 535.806C349.185 539.413 345.885 543.143 342.578 546.011L340.815 547.54ZM315.504 521.047C321.177 529.597 326.753 532.854 332.627 536.278C335.259 537.812 337.962 539.391 340.685 541.459C343.24 539.018 345.846 536.072 348.381 533.204C354.281 526.528 359.908 520.158 366.093 518.107C360.427 509.557 354.851 506.306 348.971 502.876C346.339 501.342 343.635 499.763 340.906 497.69C338.351 500.13 335.745 503.082 333.204 505.95C327.31 512.626 321.683 518.991 315.504 521.047Z" fill="#DE7B00"/>
</g>
<path d="M206.469 162.873C198.709 158.048 201.185 114.868 199.35 98.0031C196.731 73.9896 187.356 53 187.356 53C187.356 53 219.773 69.1647 234.872 100.916C244.085 120.293 253.667 157.915 245.22 160.188C236.772 162.456 214.23 167.698 206.469 162.873Z" fill="#356F3D"/>
<path d="M250.782 192.373C260.727 190.661 266.659 142.701 274.491 124.752C285.636 99.1927 333.515 81.7718 333.515 81.7718C333.515 81.7718 283.412 78.242 247.722 107.675C223.377 127.753 200.893 181.828 209.094 188.36C217.302 194.885 240.836 194.085 250.782 192.373Z" fill="#356F3D"/>
<path d="M190.98 188.254C181.034 186.542 170.207 146.798 162.382 128.849C151.237 103.295 133.946 84.3013 133.946 84.3013C133.946 84.3013 174.097 87.0084 201.223 115.302C217.782 132.567 240.869 177.709 232.661 184.241C224.459 190.767 200.925 189.966 190.98 188.254Z" fill="#356F3D"/>
<path d="M243.079 218.004C253.219 218.188 273.862 181.417 286.057 165.358C303.419 142.495 325.106 127.181 325.106 127.181C325.106 127.181 285.233 122.334 251.579 144.886C231.04 158.649 197.061 198.399 203.408 206.303C209.762 214.213 232.939 217.821 243.079 218.004Z" fill="#428A1C"/>
<path d="M191.505 226.503C181.365 226.42 161.507 183.84 149.889 167.47C133.357 144.162 86.0609 131.166 86.0609 131.166C86.0609 131.166 134.504 119.637 175.991 142.812C204.29 158.621 238.198 208.115 231.566 215.847C224.94 223.59 201.645 226.587 191.505 226.503Z" fill="#428A1C"/>
<path d="M197.21 246.631C183.789 237.204 192.51 198.91 195.654 182.189C200.361 157.136 198.993 135.352 198.993 135.352C198.993 135.352 218.527 154.735 230.826 187.365C238.333 207.276 244.629 245.403 236.006 247.132C227.383 248.855 210.987 256.309 197.21 246.631Z" fill="#50A822"/>
<path d="M247.189 250.372C266.49 248.877 276.506 226.798 288.76 214.891C306.206 197.937 327.057 188.532 327.057 188.532C327.057 188.532 291.055 176.492 258.781 190.011C239.085 198.26 205.294 226.998 210.526 235.258C215.758 243.519 237.665 251.112 247.189 250.372Z" fill="#50A822"/>
<path d="M182.785 250.372C163.478 248.877 153.468 226.798 141.214 214.891C123.768 197.937 102.911 188.532 102.911 188.532C102.911 188.532 138.913 176.492 171.186 190.011C190.883 198.26 224.674 226.998 219.442 235.258C214.216 243.519 192.309 251.112 182.785 250.372Z" fill="#50A822"/>
<path d="M202.468 531.804L203.622 532.838C227.494 548.73 260.902 562.043 302.045 560.626C368.214 558.347 382.01 549.292 402.711 532.532L295.614 410.119L202.468 531.804Z" fill="#FECC19"/>
<path d="M384.201 544.9L282.07 429.513L194.792 531.726L203.155 537.585C227.027 553.477 260.863 561.031 302.038 561.031C332.866 561.031 362.411 554.711 384.201 544.9Z" fill="#FFF56D"/>
<path d="M267.891 527.095C215.305 527.095 266.231 452.681 275.768 452.681C285.311 452.686 320.483 527.095 267.891 527.095Z" fill="#FFFBC8"/>
<path d="M397.077 536.283C393.259 539.479 363.967 560.813 298.635 560.813C237.077 560.813 206.813 540.869 200.958 536.605C198.112 534.532 195.992 532.798 194.553 531.558L192.271 535.671C192.271 535.671 195.11 538.523 200.958 542.792C206.813 547.056 237.07 567 298.635 567C363.961 567 393.252 545.666 397.077 542.47C400.896 539.273 405 535.677 405 535.677L402.517 531.652C401.013 532.953 399.009 534.665 397.077 536.283Z" fill="#A8620B"/>
<path d="M298.642 560.541C237.083 560.541 206.819 540.596 200.965 536.332C198.177 534.304 196.096 532.608 194.656 531.374L192.271 535.671C192.271 535.671 195.11 538.523 200.958 542.792C206.813 547.055 237.07 567 298.635 567C344.997 567 373.193 556.26 387.028 548.878L383.988 544.365C369.258 551.602 341.84 560.541 298.642 560.541Z" fill="#C2710D"/>
<path d="M354.099 543.821C354.099 542.954 354.799 528.802 346.76 523.315C338.72 517.829 324.399 505.989 325.093 501.659C325.793 497.329 316.009 482.02 314.609 480.58C313.209 479.135 305.176 465.85 305.176 465.85C305.176 465.85 312.865 481.153 312.515 484.621C312.165 488.09 314.609 488.662 315.309 489.53C316.009 490.397 312.165 489.819 314.609 495.016C317.053 500.213 327.887 508.012 325.443 509.747C322.998 511.481 327.537 511.77 329.637 512.926C331.731 514.082 331.038 516.389 331.731 518.413C332.432 520.436 343.609 518.991 340.464 523.321C337.32 527.651 334.176 529.096 338.02 530.831C341.865 532.565 344.309 529.385 344.309 529.385C344.309 529.385 344.659 534.294 347.453 538.34C350.254 542.376 354.099 543.821 354.099 543.821Z" fill="#FFDA4A"/>
<path d="M269.117 468.54C265.668 476.606 259.081 484.132 264.41 483.326C269.739 482.52 269.117 468.54 269.117 468.54Z" fill="#FFDA4A"/>
<path d="M257.511 487.356C253.122 492.731 256.26 495.694 255.631 496.766C255.002 497.839 254.062 499.457 251.242 502.414C248.421 505.371 247.793 509.941 245.595 513.17C243.397 516.394 243.715 519.085 245.284 519.085C246.853 519.085 253.439 512.631 251.871 515.588C250.302 518.545 236.816 540.058 237.757 540.324C238.697 540.591 249.362 535.483 250.302 531.992C251.242 528.495 256.26 514.249 255.631 511.019C255.002 507.795 261.589 504.565 260.96 497.845C260.331 491.124 260.331 489.512 260.331 489.512L257.511 487.356Z" fill="#FFDA4A"/>
<path d="M284.164 469.879C282.284 475.527 279.775 519.085 278.517 520.43C277.266 521.775 281.966 525.805 280.397 526.344C278.828 526.883 271.93 535.755 271.301 537.1C270.672 538.445 275.061 545.166 276.008 545.166C276.948 545.166 281.966 536.022 282.277 532.259C282.589 528.495 282.589 522.848 283.217 517.473C283.846 512.097 287.918 513.976 284.786 500.263C281.649 486.55 287.924 498.918 286.984 489.779C286.051 480.635 284.164 469.879 284.164 469.879Z" fill="#FFDA4A"/>
<path d="M301.727 498.652C303.296 508.868 314.584 522.582 315.524 530.914C316.464 539.247 316.775 543.282 313.326 544.894C309.877 546.506 309.566 543.821 309.566 537.368C309.566 530.914 308.937 530.108 305.177 525C301.416 519.891 307.057 523.927 303.296 514.783C299.536 505.639 293.889 504.566 298.278 493.276C302.668 481.981 297.967 469.079 297.967 469.079L301.727 498.652Z" fill="#FFDA4A"/>
</svg>
