<svg width="480" height="620" viewBox="0 0 480 620" fill="none" xmlns="http://www.w3.org/2000/svg">
<rect width="480" height="620" fill="#FFF9F9" fill-opacity="0.82"/>
<path d="M241.986 347.488C264.007 354.391 317.441 352.214 331.019 350.585C356.867 347.488 377.288 340.765 391.332 335.867C405.376 330.969 418.364 318.918 426.631 305.732C438.739 286.425 436.671 259.896 427.044 239.029C417.416 218.156 405.485 199.641 385.677 185.687C371.234 175.51 349.04 171.674 338.197 169.58C325.541 167.138 314.775 158.576 303.361 152.186C255.808 125.564 191.622 140.482 158.441 185.863C152.165 194.445 139.571 238.554 155.833 275.054C162.817 290.726 188.185 315.665 201.549 325.382C213.136 333.822 228.559 343.28 241.986 347.488Z" fill="#E0A531"/>
<mask id="mask0_2090_114882" style="mask-type:luminance" maskUnits="userSpaceOnUse" x="147" y="139" width="288" height="214">
<path d="M241.986 347.488C264.007 354.391 317.441 352.214 331.019 350.585C356.867 347.488 377.288 340.765 391.332 335.867C405.376 330.969 418.364 318.918 426.631 305.732C438.739 286.425 436.671 259.896 427.044 239.029C417.416 218.156 405.485 199.641 385.677 185.687C371.234 175.51 349.04 171.674 338.197 169.58C325.541 167.138 314.775 158.576 303.361 152.186C255.808 125.564 191.622 140.482 158.441 185.863C152.165 194.445 139.571 238.554 155.833 275.054C162.817 290.726 188.185 315.665 201.549 325.382C213.136 333.822 228.559 343.28 241.986 347.488Z" fill="white"/>
</mask>
<g mask="url(#mask0_2090_114882)">
<path opacity="0.41" d="M216.782 103.292C196.434 95.4147 176.222 106.815 159.842 119.389C131.871 140.859 119.487 170.177 117.614 206.633C116.117 235.824 133.595 271.429 146.936 295.609C161.91 322.745 183.151 345.105 208.537 360.693C252.303 387.565 309.614 398.148 359.239 392.355C417.743 385.524 492.672 354.822 500.567 283.71C504.249 250.532 467.948 189.577 448.063 208.639C431.152 224.849 426.368 244.313 411.444 257.445C399.386 268.053 378.934 275.989 362.649 280.309C350.727 283.47 340.75 283.578 324.321 282.966C310.884 282.467 252.054 255.894 230.513 217.936C222.577 203.947 217.385 179.581 224.767 165.26C234.05 147.264 250.289 126.67 258.511 123.426C274.17 117.246 232.59 109.413 216.782 103.292Z" fill="#CF8F14"/>
</g>
<mask id="mask1_2090_114882" style="mask-type:luminance" maskUnits="userSpaceOnUse" x="147" y="139" width="288" height="214">
<path d="M241.986 347.488C264.007 354.391 317.441 352.214 331.019 350.585C356.867 347.488 377.288 340.765 391.332 335.867C405.376 330.969 418.364 318.918 426.631 305.732C438.739 286.425 436.671 259.896 427.044 239.029C417.416 218.156 405.485 199.641 385.677 185.687C371.234 175.51 349.04 171.674 338.197 169.58C325.541 167.138 314.775 158.576 303.361 152.186C255.808 125.564 191.622 140.482 158.441 185.863C152.165 194.445 139.571 238.554 155.833 275.054C162.817 290.726 188.185 315.665 201.549 325.382C213.136 333.822 228.559 343.28 241.986 347.488Z" fill="white"/>
</mask>
<g mask="url(#mask1_2090_114882)">
<path opacity="0.41" d="M185.904 137.375C165.556 129.498 145.344 140.898 128.965 153.473C100.994 174.942 88.609 204.265 86.7361 240.716C85.2396 269.907 102.717 305.512 116.058 329.692C131.032 356.833 152.269 379.188 177.66 394.777C221.425 421.648 278.736 432.231 328.361 426.438C386.865 419.608 461.799 388.905 469.689 317.793C473.372 284.615 453.228 208.801 442.312 234.977C435.85 250.473 421.334 268.327 406.41 281.459C394.352 292.067 348.537 314.265 331.767 314.392C282.197 314.769 221.167 289.982 199.631 252.024C191.695 238.035 188.144 196.246 198.914 170.686C206.814 151.936 222.282 132.096 230.504 128.852C246.167 122.667 201.712 143.501 185.904 137.375Z" fill="#CF8F14"/>
</g>
<mask id="mask2_2090_114882" style="mask-type:luminance" maskUnits="userSpaceOnUse" x="147" y="139" width="288" height="214">
<path d="M241.986 347.488C264.007 354.391 317.441 352.214 331.019 350.585C356.867 347.488 377.288 340.765 391.332 335.867C405.376 330.969 418.364 318.918 426.631 305.732C438.739 286.425 436.671 259.896 427.044 239.029C417.416 218.156 405.485 199.641 385.677 185.687C371.234 175.51 349.04 171.674 338.197 169.58C325.541 167.138 314.775 158.576 303.361 152.186C255.808 125.564 191.622 140.482 158.441 185.863C152.165 194.445 139.571 238.554 155.833 275.054C162.817 290.726 188.185 315.665 201.549 325.382C213.136 333.822 228.559 343.28 241.986 347.488Z" fill="white"/>
</mask>
<g mask="url(#mask2_2090_114882)">
<path opacity="0.41" d="M127.527 175.358C99.5562 196.828 87.1715 226.151 85.2986 262.602C83.8021 291.793 101.279 327.398 114.621 351.578C129.595 378.714 150.836 401.074 176.222 416.662C219.988 443.534 277.299 454.117 326.924 448.324C385.428 441.493 460.361 410.791 468.252 339.679C471.934 306.5 460.107 219.726 446.621 244.469C425.08 283.979 411.285 297.963 396.361 311.09C384.303 321.698 346.623 331.958 330.334 336.278C318.412 339.439 308.435 339.547 292.005 338.935C278.569 338.436 204.66 322.71 183.12 284.752C175.184 270.763 157.271 250.669 171.633 198.766C186.625 144.573 208.642 129.19 216.868 125.946C232.531 119.766 171.891 128.519 156.083 122.394C156.083 122.394 143.911 162.789 127.527 175.358Z" fill="#CF8F14"/>
</g>
<g opacity="0.29">
<path d="M332.61 185.428C325.613 180.716 320.997 179.419 313.414 174.355C315.138 176.053 314.702 175.691 312.118 173.274C309.796 171.17 307.519 169.003 305.238 166.845C300.236 162.123 295.157 156.663 289.062 153.801C272.61 146.075 253.881 148.389 244.027 166.542C234.912 183.329 240.435 205.263 255.836 215.132C269.971 224.189 295.611 234.459 312.054 229.605C322.103 226.64 330.339 221.556 336.071 211.966C341.118 203.517 341.168 191.192 332.61 185.428Z" fill="#FDE59D"/>
</g>
<g opacity="0.29">
<path d="M357.167 255.879C358.314 255.938 359.461 256.007 360.609 256.095C363.697 256.329 366.717 255.542 369.76 255.067C367.696 255.366 365.629 255.664 363.565 255.967C367.483 255.405 371.41 255.429 375.306 254.485C384.956 252.151 393.618 243.178 395.821 232.726C398.941 217.935 391.808 202.176 377.628 198.154C367.828 195.375 357.312 198.1 350.101 205.88C345.789 210.528 343.984 215.626 341.875 221.669C340.134 226.65 339.717 231.865 339.803 237.14C339.975 247.718 347.584 255.395 357.167 255.879Z" fill="#FDE59D"/>
</g>
<g opacity="0.38">
<path d="M334.787 272.52C341.408 279.575 343.993 288.95 345.757 298.569C346.229 301.153 350.101 300.556 349.988 297.953C349.507 286.88 345.204 277.021 337.186 269.932C335.526 268.464 333.2 270.832 334.787 272.52Z" fill="#B66E34"/>
</g>
<path d="M243.238 271.947C243.102 272.031 242.966 272.109 242.83 272.192C242.49 272.398 242.49 272.96 242.83 273.166C242.966 273.249 243.102 273.327 243.238 273.41C244.707 274.286 244.707 271.072 243.238 271.947Z" fill="#B66E34"/>
<path d="M309.474 208.913C309.338 208.996 309.202 209.075 309.066 209.158C308.726 209.363 308.726 209.926 309.066 210.131C309.202 210.215 309.338 210.293 309.474 210.376C310.943 211.247 310.943 208.032 309.474 208.913Z" fill="#B66E34"/>
<path d="M320.244 289.669C320.108 289.752 319.972 289.831 319.836 289.914C319.496 290.119 319.496 290.682 319.836 290.888C319.972 290.971 320.108 291.049 320.244 291.132C321.713 292.008 321.713 288.793 320.244 289.669Z" fill="#B66E34"/>
<path d="M351.208 324.531C351.072 324.609 350.936 324.692 350.8 324.775C350.46 324.976 350.46 325.543 350.8 325.749C350.936 325.832 351.072 325.91 351.208 325.994C352.677 326.869 352.677 323.655 351.208 324.531Z" fill="#B66E34"/>
<path d="M259.663 307.68C259.527 307.763 259.391 307.841 259.255 307.924C258.915 308.13 258.915 308.692 259.255 308.898C259.391 308.976 259.527 309.059 259.663 309.143C261.132 310.018 261.132 306.804 259.663 307.68Z" fill="#B66E34"/>
<path d="M158.282 228.411C159.883 228.411 159.883 225.735 158.282 225.735C156.681 225.735 156.681 228.411 158.282 228.411Z" fill="#B66E34"/>
<path d="M257.636 252.812C259.237 252.812 259.237 250.135 257.636 250.135C256.035 250.135 256.035 252.812 257.636 252.812Z" fill="#B66E34"/>
<path d="M293.715 328.053C295.316 328.053 295.316 325.377 293.715 325.377C292.114 325.377 292.114 328.053 293.715 328.053Z" fill="#B66E34"/>
<path d="M280.791 286.508C282.392 286.508 282.392 283.832 280.791 283.832C279.19 283.832 279.19 286.508 280.791 286.508Z" fill="#B66E34"/>
<path d="M318.757 245.839C320.357 245.839 320.357 243.163 318.757 243.163C317.156 243.163 317.156 245.839 318.757 245.839Z" fill="#B66E34"/>
<path d="M251.174 174.957C252.775 174.957 252.775 172.281 251.174 172.281C249.573 172.281 249.573 174.957 251.174 174.957Z" fill="#B66E34"/>
<path d="M219.67 207.406C221.861 207.406 221.861 203.741 219.67 203.741C217.485 203.741 217.485 207.406 219.67 207.406Z" fill="#B66E34"/>
<path d="M219.902 170.363C219.979 170.417 220.056 170.466 220.133 170.519C220.804 170.974 221.765 170.974 222.441 170.519C222.518 170.466 222.595 170.417 222.672 170.363C224.958 168.826 224.074 164.849 221.289 164.849C218.505 164.849 217.616 168.826 219.902 170.363Z" fill="#B66E34"/>
<path d="M180.548 207.798C180.625 207.852 180.703 207.901 180.78 207.954C181.165 208.214 181.714 208.214 182.099 207.954C182.176 207.901 182.253 207.852 182.331 207.798C183.8 206.809 183.228 204.255 181.442 204.255C179.65 204.255 179.079 206.809 180.548 207.798Z" fill="#B66E34"/>
<path d="M223.629 241.494C223.706 241.548 223.783 241.597 223.86 241.651C224.246 241.91 224.795 241.91 225.18 241.651C225.257 241.597 225.334 241.548 225.411 241.494C226.881 240.506 226.309 237.952 224.523 237.952C222.727 237.952 222.16 240.506 223.629 241.494Z" fill="#B66E34"/>
<path d="M397.831 262.411C397.908 262.465 397.985 262.514 398.062 262.568C398.447 262.827 398.996 262.827 399.381 262.568C399.458 262.514 399.536 262.465 399.613 262.411C401.082 261.423 400.511 258.869 398.724 258.869C396.933 258.869 396.361 261.423 397.831 262.411Z" fill="#B66E34"/>
<path d="M194.901 261.032C195.912 261.032 195.912 259.339 194.901 259.339C193.89 259.344 193.89 261.032 194.901 261.032Z" fill="#B66E34"/>
<path d="M371.256 274.105C372.267 274.105 372.267 272.412 371.256 272.412C370.249 272.417 370.249 274.105 371.256 274.105Z" fill="#B66E34"/>
<path d="M340.832 184.341C341.843 184.341 341.843 182.653 340.832 182.653C339.821 182.648 339.821 184.341 340.832 184.341Z" fill="#B66E34"/>
<path d="M410.301 298.51C411.313 298.51 411.313 296.818 410.301 296.818C409.29 296.818 409.29 298.51 410.301 298.51Z" fill="#B66E34"/>
<path d="M222.096 288.921C223.108 288.921 223.108 287.228 222.096 287.228C221.085 287.233 221.085 288.921 222.096 288.921Z" fill="#B66E34"/>
<path d="M366.948 304.901C367.96 304.901 367.96 303.208 366.948 303.208C365.937 303.208 365.942 304.901 366.948 304.901Z" fill="#B66E34"/>
<path d="M361.026 196.544C362.037 196.544 362.037 194.851 361.026 194.851C360.019 194.851 360.019 196.544 361.026 196.544Z" fill="#B66E34"/>
<path d="M223.979 321.458C224.99 321.458 224.99 319.77 223.979 319.77C222.967 319.77 222.967 321.458 223.979 321.458Z" fill="#B66E34"/>
<path d="M169.053 266.551C170.064 266.551 170.064 264.863 169.053 264.863C168.041 264.863 168.041 266.551 169.053 266.551Z" fill="#B66E34"/>
<path d="M196.248 294.44C197.259 294.44 197.259 292.747 196.248 292.747C195.237 292.752 195.237 294.44 196.248 294.44Z" fill="#B66E34"/>
<path d="M243.365 240.134C244.63 240.134 244.63 238.021 243.365 238.021C242.104 238.021 242.104 240.134 243.365 240.134Z" fill="#CB8E1B"/>
<path d="M245.161 219.252C246.004 219.252 246.004 217.843 245.161 217.843C244.317 217.848 244.317 219.252 245.161 219.252Z" fill="#CB8E1B"/>
<path d="M219.67 225.133C222.45 225.133 222.45 220.485 219.67 220.485C216.895 220.485 216.895 225.133 219.67 225.133Z" fill="#CB8E1B"/>
<path d="M204.714 169.189C204.769 169.281 204.828 169.374 204.882 169.467C205.268 170.103 206.079 170.103 206.46 169.467C206.515 169.374 206.574 169.281 206.628 169.189C207.97 166.967 203.372 166.967 204.714 169.189Z" fill="#CB8E1B"/>
<path d="M184.721 179.669C184.675 179.781 184.63 179.894 184.584 180.006C184.308 180.682 184.634 181.347 185.333 181.416C185.41 181.425 185.487 181.43 185.569 181.44C186.258 181.509 186.598 180.476 186.122 179.997C186.063 179.938 186.004 179.879 185.949 179.821C185.89 180.31 185.832 180.799 185.773 181.288C185.868 181.23 185.968 181.176 186.063 181.117C187.577 180.232 185.351 178.123 184.721 179.669Z" fill="#CB8E1B"/>
<path d="M181.646 251.588C182.984 252.264 184.489 250.541 183.306 249.264C181.827 247.669 179.9 250.708 181.646 251.588Z" fill="#CB8E1B"/>
<path d="M206.746 279.292C209.44 279.292 209.44 274.785 206.746 274.785C204.052 274.785 204.052 279.292 206.746 279.292Z" fill="#CB8E1B"/>
<path d="M244.091 299.988C243.524 301.29 244.97 302.767 246.04 301.612C247.378 300.164 244.83 298.285 244.091 299.988Z" fill="#CB8E1B"/>
<path d="M274.959 283.832C275.213 283.832 275.213 283.411 274.959 283.411C274.705 283.411 274.705 283.832 274.959 283.832Z" fill="#CB8E1B"/>
<path d="M274.959 285.315C276.982 285.315 276.982 281.934 274.959 281.934C272.937 281.929 272.937 285.315 274.959 285.315Z" fill="#CB8E1B"/>
<path d="M293.266 259.432C295.37 259.432 295.37 255.909 293.266 255.909C291.162 255.909 291.162 259.432 293.266 259.432Z" fill="#CB8E1B"/>
<path d="M297.216 254.607C299.574 254.607 299.574 250.664 297.216 250.664C294.858 250.664 294.858 254.607 297.216 254.607Z" fill="#CB8E1B"/>
<path d="M346.396 268.728C349.426 268.728 349.426 263.654 346.396 263.654C343.367 263.654 343.367 268.728 346.396 268.728Z" fill="#CB8E1B"/>
<path d="M330.162 301.96C330.184 302.082 330.202 302.205 330.225 302.327C330.293 302.733 330.91 302.733 330.982 302.327C331.005 302.205 331.023 302.082 331.046 301.96C331.177 301.162 330.026 301.162 330.162 301.96Z" fill="#CB8E1B"/>
<path d="M323.781 308.095C326.642 308.095 326.642 303.305 323.781 303.305C320.92 303.305 320.92 308.095 323.781 308.095Z" fill="#CB8E1B"/>
<path d="M413.172 233.338C414.183 233.338 414.183 231.645 413.172 231.645C412.161 231.65 412.161 233.338 413.172 233.338Z" fill="#CB8E1B"/>
<path d="M413.172 233.128C413.929 233.128 413.929 231.86 413.172 231.86C412.414 231.86 412.414 233.128 413.172 233.128Z" fill="#CB8E1B"/>
<path d="M410.301 251.51C411.734 251.51 411.734 249.118 410.301 249.118C408.868 249.113 408.868 251.51 410.301 251.51Z" fill="#CB8E1B"/>
<path d="M376.553 270.171C379.922 270.171 379.922 264.535 376.553 264.535C373.184 264.535 373.184 270.171 376.553 270.171Z" fill="#CB8E1B"/>
<path d="M251.265 291.543C252.865 291.543 252.865 288.867 251.265 288.867C249.664 288.867 249.664 291.543 251.265 291.543Z" fill="#CB8E1B"/>
<path d="M237.891 293.192C240.658 291.793 238.399 287.179 235.751 288.852C233.275 290.418 235.352 294.474 237.891 293.192Z" fill="#CB8E1B"/>
<path d="M232.236 306.97C234.676 306.97 234.676 302.885 232.236 302.885C229.797 302.885 229.797 306.97 232.236 306.97Z" fill="#CB8E1B"/>
<path d="M235.329 304.382C235.216 304.406 235.102 304.426 234.989 304.45C234.549 304.538 234.549 305.316 234.989 305.4C235.102 305.424 235.216 305.444 235.329 305.468C236.172 305.634 236.172 304.215 235.329 304.382Z" fill="#CB8E1B"/>
<path d="M283.321 326.59C283.947 325.147 282.351 323.523 281.167 324.8C279.689 326.395 282.505 328.474 283.321 326.59Z" fill="#CB8E1B"/>
<path d="M329.527 343.906C332.139 343.906 332.139 339.537 329.527 339.537C326.915 339.537 326.915 343.906 329.527 343.906Z" fill="#CB8E1B"/>
<path d="M323.123 330.651C323.228 330.798 323.337 330.945 323.441 331.092C323.618 331.488 324.162 331.278 324.171 330.877C324.185 330.333 324.157 330.265 323.926 329.781C323.527 328.929 322.285 329.996 323.123 330.651Z" fill="#CB8E1B"/>
<path d="M374.734 316.961C374.789 317.03 374.843 317.098 374.898 317.172C376.589 319.32 380.077 318.106 380.671 315.528C380.693 315.435 380.711 315.347 380.734 315.254C381.392 312.406 379.006 309.691 376.317 310.488C373.551 311.305 373.025 314.794 374.734 316.961Z" fill="#CB8E1B"/>
<path d="M268.111 266.546C254.425 261.565 240.054 258.825 225.661 257.514C168.966 252.352 111.678 278.582 68.1842 318.16C45.4421 338.857 43.1111 387.628 45.9771 406.73C47.655 417.93 64.9418 441.723 72.4833 450.902C100.726 485.269 129.414 481.83 150.986 479.848C172.558 477.867 193.114 473.169 213.131 464.279C222.863 459.959 232.59 455.638 242.322 451.313C255.314 445.545 268.638 439.546 278.782 429.056C291.216 416.202 301.538 405.639 307.755 388.313C320.688 352.292 318.534 284.894 268.111 266.546Z" fill="#F1BE55"/>
<path d="M293.987 313.752C294.999 313.752 294.999 312.059 293.987 312.059C292.976 312.059 292.976 313.752 293.987 313.752Z" fill="#CF8F14"/>
<mask id="mask3_2090_114882" style="mask-type:luminance" maskUnits="userSpaceOnUse" x="45" y="256" width="270" height="225">
<path d="M268.111 266.546C254.425 261.565 240.054 258.825 225.661 257.514C168.966 252.352 111.678 278.582 68.1842 318.16C45.4421 338.857 43.1111 387.628 45.9771 406.73C47.655 417.93 64.9418 441.723 72.4833 450.902C100.726 485.269 129.414 481.83 150.986 479.848C172.558 477.867 193.114 473.169 213.131 464.279C222.863 459.959 232.59 455.638 242.322 451.313C255.314 445.545 268.638 439.546 278.782 429.056C291.216 416.202 301.538 405.639 307.755 388.313C320.688 352.292 318.534 284.894 268.111 266.546Z" fill="white"/>
</mask>
<g mask="url(#mask3_2090_114882)">
<g opacity="0.2">
<path d="M332.239 324.418C343.766 302.288 333.331 274.257 316.675 258.668C296.749 240.017 272.565 232.198 247.093 227.217C190.235 216.101 136.166 230.882 88.2146 265.142C45.8275 295.423 15.8658 343.432 7.94346 397.874C0.45645 449.322 9.43545 541.547 73.2043 543.998C86.4642 544.507 98.9259 535.856 105.637 523.928C124.543 490.334 105.56 455.976 107.887 418.776C108.227 413.365 113.369 396.147 117.777 387.208C123.99 374.609 133.064 364.666 145.163 355.918C175.655 333.866 204.583 330.143 240.132 330.402C266.239 330.598 315.383 356.784 332.239 324.418Z" fill="#CF8F14"/>
</g>
</g>
<mask id="mask4_2090_114882" style="mask-type:luminance" maskUnits="userSpaceOnUse" x="45" y="256" width="270" height="225">
<path d="M268.111 266.546C254.425 261.565 240.054 258.825 225.661 257.514C168.966 252.352 111.678 278.582 68.1842 318.16C45.4421 338.857 43.1111 387.628 45.9771 406.73C47.655 417.93 64.9418 441.723 72.4833 450.902C100.726 485.269 129.414 481.83 150.986 479.848C172.558 477.867 193.114 473.169 213.131 464.279C222.863 459.959 232.59 455.638 242.322 451.313C255.314 445.545 268.638 439.546 278.782 429.056C291.216 416.202 301.538 405.639 307.755 388.313C320.688 352.292 318.534 284.894 268.111 266.546Z" fill="white"/>
</mask>
<g mask="url(#mask4_2090_114882)">
<g opacity="0.2">
<path d="M325.219 279.981C336.746 257.851 292.405 233.974 275.748 218.386C255.822 199.734 231.638 191.916 206.166 186.935C149.308 175.818 95.239 190.599 47.2877 224.859C4.90057 255.141 -25.0611 303.149 -32.9835 357.591C-40.4705 409.039 -31.4915 501.264 32.2773 503.715C45.5372 504.224 104.54 507.042 100.486 493.793C83.9835 439.849 73.1453 429.291 75.3537 389.214C75.653 383.797 83.589 359.25 88.2781 350.482C95.892 336.239 110.059 317.24 122.022 308.648C152.577 286.704 188.43 279.722 223.978 279.986C250.09 280.177 295.062 276.889 324.498 287.732L325.219 279.981Z" fill="#CF8F14"/>
</g>
</g>
<mask id="mask5_2090_114882" style="mask-type:luminance" maskUnits="userSpaceOnUse" x="45" y="256" width="270" height="225">
<path d="M268.111 266.546C254.425 261.565 240.054 258.825 225.661 257.514C168.966 252.352 111.678 278.582 68.1842 318.16C45.4421 338.857 43.1111 387.628 45.9771 406.73C47.655 417.93 64.9418 441.723 72.4833 450.902C100.726 485.269 129.414 481.83 150.986 479.848C172.558 477.867 193.114 473.169 213.131 464.279C222.863 459.959 232.59 455.638 242.322 451.313C255.314 445.545 268.638 439.546 278.782 429.056C291.216 416.202 301.538 405.639 307.755 388.313C320.688 352.292 318.534 284.894 268.111 266.546Z" fill="white"/>
</mask>
<g mask="url(#mask5_2090_114882)">
<g opacity="0.2">
<path d="M305.116 273.782C316.643 251.652 272.302 227.775 255.645 212.186C235.719 193.535 211.535 185.716 186.063 180.735C129.205 169.619 75.1361 184.405 27.1848 218.66C-15.2024 248.941 -45.164 296.95 -53.0864 351.392C-60.5734 402.84 -51.5945 495.065 12.1744 497.516C25.4342 498.025 84.437 500.838 80.3828 487.588C63.8806 433.645 53.0423 423.086 55.2553 383.009C55.5546 377.593 63.4906 353.046 68.1796 344.278C75.7936 330.035 89.9649 311.036 101.923 302.444C132.479 280.5 183.405 263.449 218.954 263.713C245.07 263.904 275.676 262.94 305.116 273.782Z" fill="#CF8F14"/>
</g>
</g>
<g opacity="0.2">
<path d="M283.308 300.076C273.716 300.34 264.193 305.635 255.164 309.069C242.866 313.742 232.137 313.492 219.543 314.28C187.391 316.286 138.415 308.492 122.842 348.3C115.451 367.196 113.088 392.14 129.876 407.116C165.828 439.189 223.947 415.811 261.853 395.687C281.217 385.407 294.382 369.016 302.526 347.811C308.707 331.733 304.358 299.494 283.308 300.076Z" fill="#FDE59D"/>
</g>
<g opacity="0.59">
<path d="M280.786 320.215C274.823 320.381 268.905 323.674 263.291 325.807C255.645 328.714 248.974 328.557 241.147 329.047C221.158 330.294 190.711 325.45 181.029 350.198C176.435 361.946 174.961 377.451 185.401 386.762C207.753 406.705 243.886 392.169 267.449 379.658C279.489 373.268 287.67 363.076 292.736 349.895C296.577 339.899 293.874 319.853 280.786 320.215Z" fill="#FDE59D"/>
</g>
<g opacity="0.29">
<path d="M90.4955 396.871C88.8267 402.224 88.8584 407.934 90.1191 413.379C90.7721 415.884 91.9422 418.057 93.6427 419.901C96.4589 422.94 99.5335 423.713 103.325 424.232C109.664 425.098 114.857 419.305 116.53 413.384C117.904 408.516 116.471 402.488 113.006 399.009C112.68 398.696 112.363 398.363 112.063 398.016C110.345 396.122 113.882 400.868 112.508 398.603C112.045 397.84 111.206 395.545 112.535 399.087C112.267 398.373 112.09 397.62 111.914 396.876C110.685 391.724 106.082 388.079 101.202 388.079C96.0552 388.074 92.0827 391.773 90.4955 396.871Z" fill="#FDE59D"/>
</g>
<g opacity="0.39">
<path d="M67.8757 369.021C71.5217 355.023 83.3032 346.715 93.1302 337.893C95.257 335.985 92.5543 332.902 90.3595 334.023C77.5576 340.555 67.2318 353.11 65.5675 368.688C65.4088 370.137 67.5265 370.352 67.8757 369.021Z" fill="#B66E34"/>
</g>
<g opacity="0.39">
<path d="M76.2198 338.235C77.29 336.9 78.4464 335.902 79.7887 334.908C81.453 333.675 82.8044 332.114 84.446 330.867C87.303 328.694 85.5706 324.051 82.0833 324.814C76.5236 326.028 73.3629 329.595 71.6396 335.354C70.8143 338.108 74.4195 340.491 76.2198 338.235Z" fill="#B66E34"/>
</g>
<path d="M142.692 311.614C142.814 311.511 142.941 311.413 143.063 311.31C143.562 310.904 143.562 310.258 143.063 309.852C142.941 309.749 142.814 309.647 142.692 309.549C140.655 307.89 140.655 313.272 142.692 311.614Z" fill="#B66E34"/>
<path d="M149.671 330.916C149.843 330.715 150.02 330.519 150.192 330.319C150.768 329.663 150.768 328.684 150.192 328.029C150.02 327.828 149.843 327.632 149.671 327.432C148.288 325.851 145.771 327.07 145.771 329.174C145.766 331.278 148.283 332.501 149.671 330.916Z" fill="#B66E34"/>
<path d="M105.51 375.812C107.782 375.812 107.782 372.01 105.51 372.01C103.238 372.01 103.238 375.812 105.51 375.812Z" fill="#B66E34"/>
<path d="M149.131 378.278C151.571 378.278 151.571 374.193 149.131 374.193C146.691 374.193 146.687 378.278 149.131 378.278Z" fill="#B66E34"/>
<path d="M172.286 345.721C172.621 345.721 172.621 345.159 172.286 345.159C171.95 345.159 171.95 345.721 172.286 345.721Z" fill="#B66E34"/>
<path d="M159.361 397.135C160.033 397.135 160.033 396.01 159.361 396.01C158.686 396.005 158.686 397.135 159.361 397.135Z" fill="#B66E34"/>
<path d="M135.182 440.158C132.792 439.512 131.246 443.128 133.472 444.537C136.302 446.328 138.302 441.004 135.182 440.158Z" fill="#B66E34"/>
<path d="M156.287 447.727C156.455 447.683 156.623 447.634 156.79 447.59C157.226 447.472 157.226 446.758 156.79 446.64C156.623 446.596 156.455 446.547 156.287 446.503C155.339 446.249 155.339 447.986 156.287 447.727Z" fill="#B66E34"/>
<path d="M97.3522 431.62C97.2025 431.913 97.0529 432.207 96.9032 432.495C95.6153 435.001 100.332 435.001 99.0437 432.495C98.894 432.202 98.7443 431.908 98.5901 431.62C98.3362 431.116 97.6106 431.116 97.3522 431.62Z" fill="#B66E34"/>
<path d="M69.4313 404.934C71.7894 404.934 71.7894 400.991 69.4313 400.991C67.0777 400.991 67.0777 404.934 69.4313 404.934Z" fill="#B66E34"/>
<path d="M196.121 283.123C195.985 283.206 195.849 283.284 195.713 283.367C195.373 283.573 195.373 284.135 195.713 284.341C195.849 284.424 195.985 284.502 196.121 284.586C197.59 285.461 197.59 282.247 196.121 283.123Z" fill="#B66E34"/>
<path d="M222.242 297.689C222.836 297.503 223.194 297.341 223.693 296.935C224.677 296.138 224.786 294.19 223.316 293.843C223.14 293.799 222.963 293.76 222.781 293.716C222.033 293.54 221.076 293.804 220.722 294.621C220.636 294.812 220.555 295.007 220.469 295.198C219.92 296.48 220.827 298.134 222.242 297.689Z" fill="#B66E34"/>
<path d="M181.578 299.504C181.745 299.46 181.913 299.411 182.081 299.367C182.457 299.264 182.457 298.652 182.081 298.55C181.913 298.506 181.745 298.457 181.578 298.413C180.739 298.192 180.739 299.734 181.578 299.504Z" fill="#B66E34"/>
<path d="M111.437 312.749C111.945 312.749 111.945 311.902 111.437 311.902C110.93 311.902 110.93 312.749 111.437 312.749Z" fill="#B66E34"/>
<path d="M113.592 315.073C114.095 315.073 114.095 314.226 113.592 314.226C113.088 314.226 113.084 315.073 113.592 315.073Z" fill="#B66E34"/>
<path d="M110.898 317.783C113.256 317.783 113.256 313.84 110.898 313.84C108.54 313.84 108.54 317.783 110.898 317.783Z" fill="#B66E34"/>
<path d="M210.301 420.748C210.238 421.115 210.174 421.487 210.111 421.854C209.821 423.556 212.292 423.556 212.002 421.854C211.938 421.487 211.875 421.115 211.812 420.748C211.675 419.936 210.442 419.936 210.301 420.748Z" fill="#B66E34"/>
<path d="M195.98 453.51C198.76 453.51 198.76 448.862 195.98 448.862C193.201 448.862 193.201 453.51 195.98 453.51Z" fill="#B66E34"/>
<path d="M168.717 415.958C168.617 416.046 168.517 416.129 168.418 416.217C168.127 416.471 168.073 416.946 168.15 417.313C168.177 417.45 168.209 417.587 168.236 417.729C168.368 418.36 169.257 418.668 169.656 418.13C169.524 418.15 169.393 418.174 169.266 418.194C171.71 418.791 170.794 414.142 168.717 415.958Z" fill="#B66E34"/>
<path d="M275.676 364.666C276.433 364.666 276.433 363.399 275.676 363.399C274.918 363.399 274.918 364.666 275.676 364.666Z" fill="#B66E34"/>
<path d="M278.909 388.597C281.181 388.597 281.181 384.791 278.909 384.791C276.632 384.791 276.632 388.597 278.909 388.597Z" fill="#B66E34"/>
<path d="M256.829 414.299C259.269 414.299 259.269 410.214 256.829 410.214C254.389 410.214 254.389 414.299 256.829 414.299Z" fill="#B66E34"/>
<path d="M237.551 431.845C237.474 431.698 237.402 431.551 237.324 431.404C236.925 430.626 235.805 430.626 235.406 431.404C235.329 431.551 235.257 431.698 235.18 431.845C233.76 434.614 238.975 434.614 237.551 431.845Z" fill="#B66E34"/>
<path d="M268.243 295.961C270.773 295.961 270.773 291.729 268.243 291.729C265.713 291.729 265.713 295.961 268.243 295.961Z" fill="#B66E34"/>
<path d="M85.0629 386.224C87.1127 387.257 89.3891 384.619 87.5933 382.682C85.3395 380.25 82.4055 384.884 85.0629 386.224Z" fill="#CB8E1B"/>
<path d="M128.479 405.443C131.092 405.443 131.092 401.074 128.479 401.074C125.872 401.074 125.872 405.443 128.479 405.443Z" fill="#CB8E1B"/>
<path d="M131.35 409.279C134.384 409.279 134.384 404.205 131.35 404.205C128.321 404.21 128.321 409.279 131.35 409.279Z" fill="#CB8E1B"/>
<path d="M132.787 405.125C135.481 405.125 135.481 400.619 132.787 400.619C130.094 400.619 130.094 405.125 132.787 405.125Z" fill="#CB8E1B"/>
<path d="M125.609 297.023C126.874 297.023 126.874 294.909 125.609 294.909C124.344 294.909 124.344 297.023 125.609 297.023Z" fill="#CB8E1B"/>
<path d="M167.969 279.839C168.136 279.839 168.136 279.556 167.969 279.556C167.801 279.556 167.801 279.839 167.969 279.839Z" fill="#CB8E1B"/>
<path d="M178.739 281.635C178.857 281.635 178.979 281.635 179.097 281.635C180.022 281.635 180.022 280.084 179.097 280.084C178.979 280.084 178.857 280.084 178.739 280.084C177.814 280.084 177.814 281.635 178.739 281.635Z" fill="#CB8E1B"/>
<path d="M206.383 305.933C208.574 305.933 208.574 302.268 206.383 302.268C204.193 302.268 204.193 305.933 206.383 305.933Z" fill="#CB8E1B"/>
<path d="M159.352 340.511C162.132 340.511 162.132 335.862 159.352 335.862C156.577 335.862 156.577 340.511 159.352 340.511Z" fill="#CB8E1B"/>
<path d="M111.787 352.322C111.85 352.385 111.909 352.449 111.973 352.508C112.793 353.344 114.018 353.344 114.834 352.508C114.897 352.444 114.956 352.38 115.02 352.322C116.489 350.829 115.356 348.114 113.406 348.114C111.451 348.114 110.317 350.829 111.787 352.322Z" fill="#CB8E1B"/>
<path d="M101.529 454.21C101.66 454.254 101.787 454.303 101.919 454.347C105.71 455.678 106.957 448.857 102.676 448.309C102.545 448.289 102.409 448.275 102.273 448.26C98.9893 447.839 98.6628 453.202 101.529 454.21Z" fill="#CB8E1B"/>
<path d="M246.947 403.682C249.305 403.682 249.305 399.738 246.947 399.738C244.589 399.738 244.589 403.682 246.947 403.682Z" fill="#CB8E1B"/>
<path d="M300.082 359.348C301.764 359.348 301.764 356.53 300.082 356.53C298.395 356.53 298.395 359.348 300.082 359.348Z" fill="#CB8E1B"/>
<path d="M120.226 328.959C121.237 328.959 121.237 327.266 120.226 327.266C119.215 327.271 119.215 328.959 120.226 328.959Z" fill="#E5A339"/>
<path d="M125.251 326.742C127.776 326.742 127.776 322.515 125.251 322.515C122.725 322.515 122.725 326.742 125.251 326.742Z" fill="#E5A339"/>
<path d="M143.916 299.455C146.696 299.455 146.696 294.807 143.916 294.807C141.136 294.807 141.141 299.455 143.916 299.455Z" fill="#E5A339"/>
<path d="M149.73 354.142C149.675 352.009 146.759 351.466 146.206 353.628C145.498 356.402 149.802 356.95 149.73 354.142Z" fill="#E5A339"/>
<path d="M144.995 352.904C147.775 352.904 147.775 348.256 144.995 348.256C142.215 348.256 142.215 352.904 144.995 352.904Z" fill="#E5A339"/>
<path d="M141.404 361.109C143.34 361.109 143.34 357.87 141.404 357.87C139.467 357.87 139.467 361.109 141.404 361.109Z" fill="#E5A339"/>
<path d="M146.07 462.063C148.764 462.063 148.764 457.556 146.07 457.556C143.376 457.556 143.376 462.063 146.07 462.063Z" fill="#E5A339"/>
<path d="M237.578 415.488C237.642 415.728 237.705 415.968 237.769 416.207C237.928 416.814 238.744 416.814 238.903 416.207C238.966 415.968 239.03 415.728 239.093 415.488C239.447 414.128 237.22 414.128 237.578 415.488Z" fill="#E5A339"/>
<path d="M234.023 305.331C234.109 305.331 234.109 305.189 234.023 305.189C233.941 305.194 233.941 305.331 234.023 305.331Z" fill="#E5A339"/>
<path d="M234.164 305.806C234.277 305.781 234.39 305.762 234.504 305.737C234.944 305.649 234.944 304.871 234.504 304.788C234.39 304.764 234.277 304.744 234.164 304.72C233.32 304.553 233.32 305.972 234.164 305.806Z" fill="#E5A339"/>
<path d="M265.617 288.784C267.218 288.784 267.218 286.107 265.617 286.107C264.016 286.107 264.016 288.784 265.617 288.784Z" fill="#E5A339"/>
<path d="M287.276 303.452C287.167 303.594 287.058 303.736 286.954 303.878C284.745 306.789 291.008 306.789 288.799 303.878C288.69 303.736 288.582 303.594 288.477 303.452C288.201 303.09 287.548 303.09 287.276 303.452Z" fill="#E5A339"/>
<path d="M71.0411 389.845C73.0636 389.845 73.0636 386.464 71.0411 386.464C69.0186 386.459 69.0186 389.845 71.0411 389.845Z" fill="#E5A339"/>
<path d="M67.8078 388.22C68.8191 388.22 68.8191 386.532 67.8078 386.532C66.8011 386.532 66.8011 388.22 67.8078 388.22Z" fill="#E5A339"/>
<path d="M74.3742 439.184C77.4941 443.759 80.605 448.064 86.1194 448.681C88.1147 448.906 88.532 445.877 87.0763 444.874C83.5981 442.482 80.3239 439.839 77.4533 436.62C75.9387 434.927 73.0364 437.222 74.3742 439.184Z" fill="#E5A339"/>
<path d="M100.118 460.091C102.309 460.091 102.309 456.426 100.118 456.426C97.9327 456.426 97.9327 460.091 100.118 460.091Z" fill="#E5A339"/>
<path d="M200.279 448.016C201.458 448.016 201.458 446.044 200.279 446.044C199.1 446.039 199.1 448.016 200.279 448.016Z" fill="#E5A339"/>
<path d="M211.05 454.176C211.725 454.176 211.725 453.05 211.05 453.05C210.374 453.05 210.374 454.176 211.05 454.176Z" fill="#E5A339"/>
<path d="M173.714 461.148C175.315 461.148 175.315 458.471 173.714 458.471C172.114 458.471 172.114 461.148 173.714 461.148Z" fill="#E5A339"/>
<path d="M178.739 416.711C179.075 416.711 179.075 416.148 178.739 416.148C178.403 416.144 178.403 416.711 178.739 416.711Z" fill="#E5A339"/>
<path d="M181.61 408.154C183.292 408.154 183.292 405.335 181.61 405.335C179.927 405.335 179.927 408.154 181.61 408.154Z" fill="#E5A339"/>
<path d="M204.588 323.009C205.431 323.009 205.431 321.6 204.588 321.6C203.744 321.6 203.744 323.009 204.588 323.009Z" fill="#E5A339"/>
<path d="M184.485 318.326C185.75 318.326 185.75 316.213 184.485 316.213C183.219 316.213 183.219 318.326 184.485 318.326Z" fill="#E5A339"/>
<path d="M240.848 285.437C241.692 285.437 241.692 284.028 240.848 284.028C240.005 284.028 240.005 285.437 240.848 285.437Z" fill="#E5A339"/>
<path d="M225.77 269.521C226.105 269.521 226.105 268.958 225.77 268.958C225.43 268.958 225.43 269.521 225.77 269.521Z" fill="#E5A339"/>
<path d="M93.6563 328.714C94.8354 328.714 94.8354 326.742 93.6563 326.742C92.4772 326.742 92.4772 328.714 93.6563 328.714Z" fill="#E5A339"/>
<path d="M57.0376 370.65C57.881 370.65 57.881 369.241 57.0376 369.241C56.1986 369.241 56.1986 370.65 57.0376 370.65Z" fill="#E5A339"/>
<path d="M57.0375 371.252C58.1304 371.252 58.1304 369.422 57.0375 369.422C55.9446 369.417 55.9446 371.252 57.0375 371.252Z" fill="#E5A339"/>
<path d="M55.9628 387.061C56.9741 387.061 56.9741 385.373 55.9628 385.373C54.9515 385.368 54.9515 387.061 55.9628 387.061Z" fill="#E5A339"/>
<path d="M129.141 455.991C129.228 455.932 129.314 455.868 129.4 455.81C130.116 455.306 130.116 454.244 129.4 453.74C129.314 453.681 129.228 453.618 129.141 453.559C126.715 451.856 126.715 457.688 129.141 455.991Z" fill="#E5A339"/>
</svg>
