<svg width="480" height="620" viewBox="0 0 480 620" fill="none" xmlns="http://www.w3.org/2000/svg">
<rect width="480" height="620" fill="#FFF9F9" fill-opacity="0.82"/>
<path d="M175.512 367.998L163.871 371.363L147.168 376.953L134.006 389.273L128.442 402.722L130.464 406.635L138.061 408.872L156.787 406.635L168.934 401.039L190.188 389.834L175.512 367.998Z" fill="#D3C9BC"/>
<path d="M155.266 401.039L156.787 395.43L155.266 394.321L152.732 401.039L153.377 407.049L156.292 406.699L155.266 401.039Z" fill="#918679"/>
<path d="M143.119 399.356L141.385 408.483L145.118 408.037L145.146 407.757L145.647 400.472L148.182 394.321L146.667 392.638L143.119 399.356Z" fill="#918679"/>
<path d="M175.512 367.998L163.872 371.363L160.375 372.529C163.336 375.028 168.935 378.636 168.935 378.636L176.008 389.28L178.26 396.112L190.183 389.84L175.512 367.998Z" fill="#AFA698"/>
<path d="M136.794 408.496L136.547 404.959L139.075 397.68L142.111 391.517L141.091 389.273L134.519 400.472L133.119 407.413L136.794 408.496Z" fill="#918679"/>
<path d="M183.708 229.714C182.689 229.638 166.475 227.044 166.475 227.044L155.773 223.309L134.167 213.187C134.167 213.187 122.723 210.529 121.726 210.09C120.724 209.643 107.355 211.014 106.336 210.937C105.322 210.867 88.6298 216.922 87.5815 217.222C86.5447 217.528 58.5113 231.492 58.5113 231.492L46.8417 232.965L43.0056 234.596L43.1151 238.746L46.2888 243.112L68.7293 256.688L93.1743 258.326L125.499 253.335L141.004 250.225L156.015 243.692L170.57 239.383L176.341 239.772L183.708 229.714Z" fill="#C4BBAB"/>
<path d="M53.9496 239.861L64.4902 246.611C64.4902 246.611 75.9524 248.886 76.9776 248.963C77.9914 249.026 94.7009 249.014 96.0775 248.727C97.4598 248.446 111.888 246.4 114.302 245.801C116.721 245.208 130.896 241.633 130.896 241.633C130.896 241.633 150.284 236.158 151.66 235.871C153.037 235.584 159.5 236.018 160.853 236.107C162.213 236.209 168.796 234.38 168.796 234.38L170.443 229.211L147.542 223.895L85.174 229.892L74.5182 231.441L53.9496 239.861Z" fill="#918679"/>
<path d="M155.767 223.309L134.162 213.187C134.162 213.187 122.717 210.529 121.721 210.09C120.718 209.643 107.35 211.014 106.33 210.937C105.316 210.867 88.6241 216.922 87.5758 217.222C86.5391 217.528 58.5056 231.492 58.5056 231.492L46.8361 232.965L43 234.596L43.0749 237.496L49.3992 242.194L65.429 242.13C65.429 242.13 79.4314 241.569 80.4681 241.257C81.5049 240.945 99.4009 237.993 99.4009 237.993L110.575 233.086L121.306 230.033L140.498 228.306L156.418 230.122L168.929 232.098L180.523 234.061L183.714 229.701C182.695 229.625 166.481 227.031 166.481 227.031L155.767 223.309Z" fill="#D3C9BC"/>
<path d="M161.642 230.976L151.442 227.553L138.211 226.291H126.968L110.051 230.058C110.051 230.058 88.6645 234.66 87.6104 235.336C86.5506 236.018 72.1796 236.948 72.1796 236.948L56.5127 236.642L45.0505 233.736L43 234.609L43.0749 237.509L49.3992 242.206L65.429 242.143C65.429 242.143 79.4314 241.582 80.4681 241.27C81.5049 240.957 99.4009 238.006 99.4009 238.006L110.575 233.099L121.306 230.046L140.498 228.318L156.418 230.135L161.642 230.976Z" fill="#E8DCCF"/>
<path d="M255.471 249.275L277.226 250.397L300.513 244.233L328.852 242.557L368.325 257.675L386.036 276.707L403.241 304.159L410.833 336.633L408.304 361.834L398.178 379.196L384.51 389.279L364.776 393.199L316.186 404.965L299.989 403.843L244.32 400.478L211.425 401.045L185.621 390.962C185.621 390.962 169.936 370.796 169.418 369.126C168.923 367.437 160.317 350.642 159.304 346.722C158.29 342.803 157.783 328.239 157.783 325.434C157.783 322.636 160.312 303.598 160.312 303.598L191.686 275.592L210.411 260.473L255.471 249.275Z" fill="#C4BBAB"/>
<path d="M392.113 382.555C391.099 377.514 371.366 367.998 369.344 367.998C367.311 367.998 350.619 365.761 350.619 365.761L342.014 374.716L328.858 380.885L306.596 390.395L287.358 385.914L265.603 384.231L218.533 384.792L203.35 380.318L188.167 377.514L177.125 379.865C181.307 385.391 185.638 390.956 185.638 390.956L211.442 401.039L244.337 400.472L300.007 403.837L316.203 404.959L364.794 393.193L384.527 389.273L392.309 383.549C392.234 383.18 392.171 382.842 392.113 382.555Z" fill="#AFA698"/>
<path d="M403.615 353.44L412.157 364.078L431.568 373.026H437L435.445 379.75C435.445 379.75 435.445 385.353 433.889 385.914C432.334 386.475 424.564 388.718 424.564 388.718C424.564 388.718 418.355 392.077 416.8 392.077C415.262 392.077 410.591 392.077 409.433 391.516C408.269 390.955 401.669 387.597 401.669 387.597L398.172 376.952V365.76L403.615 353.44Z" fill="#AFA698"/>
<path d="M239.787 379.751L230.157 361.828L236.752 350.629L250.408 346.155L280.268 360.713C280.268 360.713 286.35 372.472 286.857 374.155C287.358 375.831 287.865 387.584 287.865 387.584L282.802 395.424H272.181L239.787 379.751Z" fill="#D3C9BC"/>
<path d="M251.428 370.789L235.732 375.276L221.563 376.392L210.936 383.683L201.818 396.558L202.33 404.959L203.851 408.318H214.985L230.156 407.202L239.28 405.52L248.381 403.843H260.027H272.175L277.226 395.997L280.769 385.914L273.177 376.953L251.428 370.789Z" fill="#D3C9BC"/>
<path d="M227.132 394.321L224.598 399.356V407.598L226.694 407.451L226.124 401.039L228.653 395.43L227.132 394.321Z" fill="#918679"/>
<path d="M218.026 401.039L218.527 394.321L216.5 393.199L214.985 398.802L216.2 408.222L219.426 407.992L218.026 401.039Z" fill="#918679"/>
<path d="M212.957 388.719L209.426 392.077L208.401 401.039L208.723 408.318H212.237L210.935 394.882C210.935 394.882 213.464 390.395 212.957 388.719Z" fill="#918679"/>
<path d="M379.966 276.707L364.783 275.592L351.12 288.473L342.008 313.114L341.495 339.998L349.087 359.036L358.205 371.911L366.799 378.068L363.262 384.792L349.087 385.914C349.087 385.914 340.493 383.683 338.972 383.683C337.452 383.683 328.847 389.279 328.847 389.279L323.282 398.801V409.433L332.896 410L341.49 408.872L375.404 401.039L388.559 396.558L398.178 391.516L399.192 382.555L404.249 376.392C404.249 376.392 410.332 365.199 410.332 363.517C410.332 361.828 412.866 341.113 412.866 341.113C412.866 341.113 410.839 319.264 409.831 317.588C408.817 315.905 397.689 289.588 397.689 289.588L379.966 276.707Z" fill="#D3C9BC"/>
<path d="M364.782 275.598L351.12 288.48L342.008 313.12L341.495 340.004L345.775 350.712C345.959 351.024 346.063 351.197 346.063 351.197L354.662 350.642L357.692 329.921L357.185 309.194L363.262 295.765L375.911 286.242L383.502 283.999L382.402 278.498L379.96 276.72L364.782 275.598Z" fill="#E8DCCF"/>
<path d="M341 391.516L338.465 394.875L335.943 403.276L336.605 409.516L339.761 409.101L338.978 406.08V399.356C338.978 399.356 342.52 394.321 341 391.516Z" fill="#918679"/>
<path d="M334.929 391.516L329.866 395.997L327.337 404.959V409.669L331.116 409.885L330.373 405.513L332.4 397.113C332.4 397.113 335.943 393.193 334.929 391.516Z" fill="#918679"/>
<path d="M156.28 334.957L168.934 359.591L185.627 371.35C185.627 371.35 193.725 374.161 195.24 374.161C196.766 374.161 206.374 371.35 206.374 371.35L216.5 358.476L229.661 343.918C229.661 343.918 235.732 329.915 236.245 328.232C236.751 326.55 235.732 310.31 235.732 310.31C235.732 310.31 225.612 307.518 223.083 306.39C220.555 305.268 201.823 305.835 198.788 305.268C195.752 304.714 176.013 306.957 172.482 308.066C168.94 309.181 163.365 310.858 163.365 310.858L156.28 334.957Z" fill="#AFA698"/>
<path d="M171.682 307.734L168.197 308.78L164.027 318.117L160.208 323.987L162.639 329.003L170.288 331.597L177.949 330.565L183.858 327.448L186.646 321.228L176.9 313.445L171.682 307.734Z" fill="#918679"/>
<path d="M169.188 314.796L164.258 321.094L158.935 325.294L155.52 325.708L150.209 319.411L145.647 304.713C145.647 304.713 146.413 292.947 146.788 291.692C147.162 290.436 149.437 285.815 149.437 285.815L150.584 274.049L153.239 265.222L156.274 258.09C156.274 258.09 161.971 244.22 161.971 242.965C161.971 241.709 168.791 232.04 169.557 230.778C170.311 229.523 178.663 222.39 179.798 221.543C180.938 220.708 191.191 215.673 191.191 215.673L209.035 212.722L231.424 218.178L244.326 228.681L253.438 260.607L253.058 282.864V284.967L247.367 302.616L241.676 311.01L227.254 324.025L213.971 329.067C213.971 329.067 195.747 333.267 194.618 332.847C193.483 332.426 187.395 328.653 186.266 328.226C185.126 327.805 177.16 321.928 177.16 321.928L169.188 314.796Z" fill="#C4BBAB"/>
<path d="M168.042 311.017L166.527 301.354L167.662 293.375L165.386 292.533L165.006 295.886V302.183L166.147 308.907L168.203 316.027L168.998 315.02C168.577 312.993 168.042 311.017 168.042 311.017Z" fill="#635C54"/>
<path d="M165.772 299.251L162.357 296.319L158.561 292.954L156.28 288.34L158.561 285.401H165.012L172.603 286.236L176.779 287.498L176.013 292.106L173.358 295.478L165.772 299.251Z" fill="#D67C7C"/>
<path d="M172.603 286.236L165.012 285.401H158.561L156.28 288.34L157.921 291.686L161.21 289.174H166.907L173.358 290.016L176.013 292.106L176.779 287.498L172.603 286.236Z" fill="#EA8F8F"/>
<path d="M204.099 279.932L194.238 273.635L192.717 265.655L194.618 254.731L199.168 242.971L209.427 234.571H221.563L234.085 249.275L234.851 261.876L229.909 270.697L226.879 276.994L216.252 278.677L204.099 279.932Z" fill="#D3C9BC"/>
<path d="M204.484 262.296L207.894 254.731L211.69 250.951L218.147 249.275L221.949 251.786L220.808 258.096L219.673 264.814L218.147 266.49L213.222 265.655L209.426 264.4L204.484 262.296Z" fill="#918679"/>
<path d="M218.907 251.786H215.872L212.836 252.207L210.555 254.724L207.14 260.607L211.69 263.131L217.006 263.973L219.719 264.47L220.808 258.096L221.441 254.565C220.491 253.654 219.443 252.583 218.907 251.786Z" fill="#56504A"/>
<path d="M169.943 300.793L178.035 297.435L183.098 292.399H194.238L206.887 299.684L211.437 312.559C211.437 312.559 212.451 321.527 211.955 323.203C211.437 324.886 200.303 328.806 200.303 328.806L190.696 327.684L182.09 320.96L174.505 314.236L170.962 307.518L169.943 300.793Z" fill="#D3C9BC"/>
<path d="M162.858 300.793L163.364 310.87L162.858 317.033L157.8 320.392L154.759 319.838L150.71 311.985L148.181 303.037L150.209 298.556L153.751 296.873L162.858 300.793Z" fill="#D3C9BC"/>
<path d="M238.266 226.311H251.428L264.583 230.785L287.859 258.237C287.859 258.237 309.614 295.198 309.614 296.88C309.614 298.563 327.838 323.758 327.838 323.758L337.457 332.719L336.444 339.444L328.852 343.925L315.702 342.803L287.352 327.678L275.204 313.681L259.52 285.114L255.972 273.916L251.428 253.195L245.351 245.91L238.266 226.311Z" fill="#AFA698"/>
<path d="M331.386 339.437L337.112 332.394L327.844 323.758C327.844 323.758 309.62 298.563 309.62 296.88C309.62 295.198 287.865 258.237 287.865 258.237L264.589 230.785L251.433 226.311H238.272L245.357 245.91L252.435 249.83L258.011 266.076L273.188 303.037L288.884 324.319L304.58 333.274L320.771 339.998L331.386 339.437Z" fill="#D3C9BC"/>
<path d="M309.119 305.274C309.119 305.274 300.001 291.839 298.993 290.156C297.979 288.473 285.832 270.002 285.832 270.002L275.711 252.634L263.063 236.394C263.063 236.394 253.444 230.785 251.923 230.785C251.059 230.785 245.207 231.518 240.369 232.155L244.833 244.514L249.389 245.916C249.389 245.916 259.515 251.519 259.515 253.201C259.515 254.884 270.654 279.518 270.654 279.518L279.755 295.204L291.396 308.646L303.036 313.681L309.119 311.992V305.274Z" fill="#E8DCCF"/>
<path d="M156.28 258.096L153.245 265.228L150.589 274.056L150.33 276.695L157.294 272.233C157.294 272.233 162.345 262.156 162.858 260.474C163.365 258.791 166.4 247.031 166.4 245.349C166.4 243.673 167.42 234.711 167.42 234.711C167.42 234.711 167.293 234.616 167.103 234.469C164.862 237.771 161.977 242.149 161.977 242.971C161.977 244.233 156.28 258.096 156.28 258.096Z" fill="#D3C9BC"/>
</svg>
