<svg width="480" height="620" viewBox="0 0 480 620" fill="none" xmlns="http://www.w3.org/2000/svg">
<rect width="480" height="620" fill="#FFF9F9" fill-opacity="0.82"/>
<path fill-rule="evenodd" clip-rule="evenodd" d="M165.407 128.359L395.406 428.969C397.661 431.916 394.58 438.097 388.559 442.703L329.444 487.933C323.423 492.539 316.653 493.897 314.398 490.95L84.3978 190.339C82.1429 187.392 85.2244 181.211 91.2447 176.605L150.36 131.376C156.381 126.769 163.151 125.411 165.407 128.359Z" fill="#3E3938"/>
<path fill-rule="evenodd" clip-rule="evenodd" d="M165.201 128.091L393.971 427.094C396.226 430.041 393.487 435.535 387.466 440.141L331.635 482.858C325.614 487.465 319.048 489.09 316.793 486.143L88.0236 187.14C85.7687 184.193 89.0553 178.28 95.0756 173.674L150.907 130.957C156.928 126.35 162.947 125.143 165.201 128.091Z" fill="#00E768"/>
<path fill-rule="evenodd" clip-rule="evenodd" d="M360.646 460.662L331.636 482.858C325.615 487.465 318.844 488.822 316.384 485.607L88.4342 187.676C85.9743 184.461 89.0558 178.28 95.0761 173.674L124.087 151.477L360.646 460.662Z" fill="#0A78FF"/>
<path fill-rule="evenodd" clip-rule="evenodd" d="M143.445 250.503C134.711 219.806 123.923 193.229 95.6212 176.655C95.9626 175.969 95.9626 175.969 96.5104 175.55L105.816 168.43C148.407 188.938 176.476 249.442 197.99 294.572C231.113 363.952 280.861 424.435 348.605 466.476L329.995 480.715C326.163 483.646 322.402 484.401 320.762 482.257L143.445 250.503Z" fill="#0060C9"/>
<path d="M165.13 133.667L164.105 132.328L140.568 150.336L141.593 151.675L165.13 133.667Z" fill="#231915"/>
<path d="M174.969 146.528L173.944 145.188L150.408 163.196L151.433 164.536L174.969 146.528Z" fill="#231915"/>
<path d="M184.809 159.388L183.784 158.048L160.247 176.056L161.272 177.396L184.809 159.388Z" fill="#231915"/>
<path d="M194.648 172.248L193.623 170.909L170.087 188.917L171.112 190.256L194.648 172.248Z" fill="#231915"/>
<path d="M204.488 185.109L203.463 183.769L179.926 201.777L180.951 203.117L204.488 185.109Z" fill="#231915"/>
<path d="M214.327 197.969L213.302 196.63L189.766 214.638L190.791 215.977L214.327 197.969Z" fill="#231915"/>
<path d="M224.167 210.829L223.142 209.49L199.605 227.498L200.63 228.837L224.167 210.829Z" fill="#231915"/>
<path d="M234.006 223.69L232.981 222.35L209.445 240.358L210.47 241.698L234.006 223.69Z" fill="#231915"/>
<path d="M243.846 236.55L242.822 235.211L219.285 253.219L220.31 254.558L243.846 236.55Z" fill="#231915"/>
<path d="M253.686 249.41L252.661 248.071L229.125 266.079L230.149 267.418L253.686 249.41Z" fill="#231915"/>
<path d="M263.525 262.271L262.5 260.931L238.964 278.939L239.989 280.279L263.525 262.271Z" fill="#231915"/>
<path d="M273.365 275.131L272.545 274.059L249.008 292.067L249.828 293.139L273.365 275.131Z" fill="#231915"/>
<path d="M283.204 287.991L282.384 286.92L258.848 304.928L259.668 305.999L283.204 287.991Z" fill="#231915"/>
<path d="M293.044 300.852L292.224 299.78L268.687 317.788L269.507 318.86L293.044 300.852Z" fill="#231915"/>
<path d="M302.883 313.712L302.064 312.641L278.527 330.649L279.347 331.72L302.883 313.712Z" fill="#231915"/>
<path d="M312.928 326.84L311.903 325.501L288.366 343.509L289.391 344.848L312.928 326.84Z" fill="#231915"/>
<path d="M322.767 339.701L321.743 338.361L298.206 356.369L299.231 357.709L322.767 339.701Z" fill="#231915"/>
<path d="M332.607 352.561L331.582 351.222L308.046 369.23L309.071 370.569L332.607 352.561Z" fill="#231915"/>
<path d="M342.447 365.421L341.422 364.082L317.885 382.09L318.91 383.43L342.447 365.421Z" fill="#231915"/>
<path d="M352.286 378.282L351.261 376.942L327.725 394.95L328.75 396.29L352.286 378.282Z" fill="#231915"/>
<path d="M362.126 391.142L361.101 389.803L337.564 407.811L338.589 409.15L362.126 391.142Z" fill="#231915"/>
<path d="M371.965 404.003L370.94 402.663L347.404 420.671L348.429 422.011L371.965 404.003Z" fill="#231915"/>
<path d="M381.805 416.863L380.78 415.523L357.244 433.531L358.269 434.871L381.805 416.863Z" fill="#231915"/>
</svg>
