<svg width="480" height="620" viewBox="0 0 480 620" fill="none" xmlns="http://www.w3.org/2000/svg">
<rect width="480" height="620" fill="#FFF9F9" fill-opacity="0.82"/>
<path fill-rule="evenodd" clip-rule="evenodd" d="M205.37 404.976C196.838 399.342 187.53 394.512 178.997 388.878C247.257 285.854 314.741 182.024 382.225 79C359.731 180.415 348.095 269.756 251.136 347.024C234.846 359.903 220.884 375.196 205.37 404.976Z" fill="url(#paint0_linear_2090_116969)"/>
<path opacity="0.6" fill-rule="evenodd" clip-rule="evenodd" d="M223.211 321.269L382.225 79C335.684 198.121 296.125 259.293 237.173 334.951L223.211 321.269Z" fill="#EEEEEE"/>
<path fill-rule="evenodd" clip-rule="evenodd" d="M273.63 404.976C282.163 399.342 291.472 394.512 300.004 388.878C232.52 285.854 164.26 182.024 96.7762 79C115.393 164.316 143.317 275.39 203.82 343C215.455 355.878 223.211 354.269 238.726 366.341C255.014 379.22 258.116 375.196 273.63 404.976Z" fill="url(#paint1_linear_2090_116969)"/>
<path opacity="0.81" fill-rule="evenodd" clip-rule="evenodd" d="M241.827 300.341L96.7753 79C131.681 167.537 162.707 224.683 200.716 279.414C214.678 299.537 217.781 298.732 241.827 300.341Z" fill="#EEEEEE"/>
<path fill-rule="evenodd" clip-rule="evenodd" d="M233.295 347.024C239.5 347.024 244.93 342.195 244.93 335.756C244.93 329.317 239.5 324.488 233.295 324.488C227.089 324.488 222.435 329.318 222.435 335.756C222.435 342.196 227.089 347.024 233.295 347.024Z" fill="#595757"/>
<path fill-rule="evenodd" clip-rule="evenodd" d="M153.4 541C121.597 541 96 514.439 96 481.439C96 462.121 104.532 445.22 118.495 433.951C140.99 416.245 153.401 416.245 178.223 386.463L207.698 404.171C201.493 438.78 204.596 449.244 207.698 460.513C219.333 499.952 195.286 541 153.4 541ZM153.4 443.61C173.568 443.61 189.856 460.513 189.856 481.439C189.856 502.366 173.567 519.269 153.4 519.269C133.232 519.269 116.943 502.366 116.943 481.439C116.943 460.513 133.232 443.61 153.4 443.61Z" fill="#0060C9"/>
<path fill-rule="evenodd" clip-rule="evenodd" d="M153.4 433.146C178.997 433.146 199.94 454.879 199.94 481.439C199.94 508 178.997 529.731 153.4 529.731C127.803 529.731 106.859 508 106.859 481.439C106.859 454.879 127.803 433.146 153.4 433.146ZM153.4 443.61C173.568 443.61 189.856 460.512 189.856 481.439C189.856 502.366 173.567 519.269 153.4 519.269C133.232 519.269 116.943 502.366 116.943 481.439C116.943 460.512 133.232 443.61 153.4 443.61Z" fill="#003EDF"/>
<path fill-rule="evenodd" clip-rule="evenodd" d="M325.6 541C357.403 541 383 514.439 383 481.439C383 462.121 373.692 445.22 360.505 433.951C338.01 416.245 325.599 416.245 300.002 386.463L271.302 404.171C277.507 438.78 274.405 449.244 271.302 460.513C259.668 499.952 282.938 541 325.6 541ZM325.6 443.61C305.432 443.61 289.144 460.513 289.144 481.439C289.144 502.366 305.433 519.269 325.6 519.269C345.768 519.269 362.057 502.366 362.057 481.439C362.057 460.513 345.768 443.61 325.6 443.61Z" fill="#0A78FF"/>
<path fill-rule="evenodd" clip-rule="evenodd" d="M324.825 433.146C350.422 433.146 371.365 454.879 371.365 482.244C371.365 508.804 350.422 530.537 324.825 530.537C299.228 530.537 278.284 508.805 278.284 482.244C278.284 454.879 299.228 433.146 324.825 433.146ZM324.825 444.415C344.993 444.415 361.281 461.318 361.281 482.245C361.281 503.171 344.992 520.074 324.825 520.074C304.657 520.074 288.368 503.171 288.368 482.245C288.368 461.318 304.657 444.415 324.825 444.415Z" fill="#2A54FF"/>
<path opacity="0.68" fill-rule="evenodd" clip-rule="evenodd" d="M131.681 189.268C148.746 238.365 169.689 284.244 199.165 326.097C182.876 277.804 154.952 235.146 131.681 189.268Z" fill="#FEFEFE"/>
<defs>
<linearGradient id="paint0_linear_2090_116969" x1="407.218" y1="90.233" x2="128.439" y2="460.408" gradientUnits="userSpaceOnUse">
<stop stop-color="#ABABAB"/>
<stop offset="0.3441" stop-color="#7A7A7A"/>
<stop offset="0.5969" stop-color="#545454"/>
<stop offset="0.9427" stop-color="#1F1F1F"/>
</linearGradient>
<linearGradient id="paint1_linear_2090_116969" x1="149.776" y1="241.988" x2="400.783" y2="241.988" gradientUnits="userSpaceOnUse">
<stop stop-color="#ABABAB"/>
<stop offset="0.3441" stop-color="#7A7A7A"/>
<stop offset="0.6989" stop-color="#545454"/>
<stop offset="0.9219" stop-color="#1F1F1F"/>
</linearGradient>
</defs>
</svg>
