<svg width="364" height="620" viewBox="0 0 364 620" fill="none" xmlns="http://www.w3.org/2000/svg">
<path d="M364 0H0V317.5V620H364V169V0Z" fill="#FFF9F9" fill-opacity="0.82"/>
<path fill-rule="evenodd" clip-rule="evenodd" d="M149.512 404.976C141.508 399.342 132.776 394.512 124.77 388.878C188.808 285.854 252.118 182.024 315.428 79C294.325 180.415 283.409 269.756 192.447 347.024C177.165 359.903 164.066 375.196 149.512 404.976Z" fill="url(#paint0_linear_2103_127)"/>
<path opacity="0.6" fill-rule="evenodd" clip-rule="evenodd" d="M166.25 321.269L315.428 79C271.765 198.121 234.653 259.293 179.348 334.951L166.25 321.269Z" fill="#EEEEEE"/>
<path fill-rule="evenodd" clip-rule="evenodd" d="M213.55 404.976C221.555 399.342 230.288 394.512 238.292 388.878C174.983 285.854 110.945 182.024 47.6354 79C65.1007 164.316 91.2974 275.39 148.058 343C158.973 355.878 166.25 354.269 180.805 366.341C196.085 379.22 198.995 375.196 213.55 404.976Z" fill="url(#paint1_linear_2103_127)"/>
<path opacity="0.81" fill-rule="evenodd" clip-rule="evenodd" d="M183.714 300.341L47.6346 79C80.3812 167.537 109.488 224.683 145.146 279.414C158.244 299.537 161.155 298.732 183.714 300.341Z" fill="#EEEEEE"/>
<path fill-rule="evenodd" clip-rule="evenodd" d="M175.71 347.024C181.531 347.024 186.625 342.195 186.625 335.756C186.625 329.317 181.531 324.488 175.71 324.488C169.888 324.488 165.521 329.318 165.521 335.756C165.521 342.196 169.888 347.024 175.71 347.024Z" fill="#595757"/>
<path fill-rule="evenodd" clip-rule="evenodd" d="M100.757 541C70.9209 541 46.9072 514.439 46.9072 481.439C46.9072 462.121 54.9115 445.22 68.0108 433.951C89.1143 416.245 100.758 416.245 124.044 386.463L151.696 404.171C145.875 438.78 148.786 449.244 151.696 460.513C162.611 499.952 140.052 541 100.757 541ZM100.757 443.61C119.677 443.61 134.958 460.513 134.958 481.439C134.958 502.366 119.676 519.269 100.757 519.269C81.8362 519.269 66.5548 502.366 66.5548 481.439C66.5548 460.513 81.8362 443.61 100.757 443.61Z" fill="#0060C9"/>
<path fill-rule="evenodd" clip-rule="evenodd" d="M100.757 433.146C124.77 433.146 144.418 454.879 144.418 481.439C144.418 508 124.77 529.731 100.757 529.731C76.743 529.731 57.0945 508 57.0945 481.439C57.0945 454.879 76.743 433.146 100.757 433.146ZM100.757 443.61C119.677 443.61 134.958 460.512 134.958 481.439C134.958 502.366 119.676 519.269 100.757 519.269C81.8362 519.269 66.5548 502.366 66.5548 481.439C66.5548 460.512 81.8362 443.61 100.757 443.61Z" fill="#003EDF"/>
<path fill-rule="evenodd" clip-rule="evenodd" d="M262.305 541C292.141 541 316.155 514.439 316.155 481.439C316.155 462.121 307.422 445.22 295.051 433.951C273.948 416.245 262.304 416.245 238.291 386.463L211.366 404.171C217.187 438.78 214.277 449.244 211.366 460.513C200.451 499.952 222.282 541 262.305 541ZM262.305 443.61C243.385 443.61 228.104 460.513 228.104 481.439C228.104 502.366 243.386 519.269 262.305 519.269C281.226 519.269 296.507 502.366 296.507 481.439C296.507 460.513 281.226 443.61 262.305 443.61Z" fill="#0A78FF"/>
<path fill-rule="evenodd" clip-rule="evenodd" d="M261.578 433.146C285.592 433.146 305.239 454.879 305.239 482.244C305.239 508.804 285.592 530.537 261.578 530.537C237.564 530.537 217.916 508.805 217.916 482.244C217.916 454.879 237.564 433.146 261.578 433.146ZM261.578 444.415C280.499 444.415 295.779 461.318 295.779 482.245C295.779 503.171 280.498 520.074 261.578 520.074C242.658 520.074 227.376 503.171 227.376 482.245C227.376 461.318 242.658 444.415 261.578 444.415Z" fill="#2A54FF"/>
<path opacity="0.68" fill-rule="evenodd" clip-rule="evenodd" d="M80.3812 189.268C96.3906 238.365 116.038 284.244 143.691 326.097C128.409 277.804 102.213 235.146 80.3812 189.268Z" fill="#FEFEFE"/>
<defs>
<linearGradient id="paint0_linear_2103_127" x1="338.875" y1="90.233" x2="55.6754" y2="443.017" gradientUnits="userSpaceOnUse">
<stop stop-color="#ABABAB"/>
<stop offset="0.3441" stop-color="#7A7A7A"/>
<stop offset="0.5969" stop-color="#545454"/>
<stop offset="0.9427" stop-color="#1F1F1F"/>
</linearGradient>
<linearGradient id="paint1_linear_2103_127" x1="97.3569" y1="241.988" x2="332.838" y2="241.988" gradientUnits="userSpaceOnUse">
<stop stop-color="#ABABAB"/>
<stop offset="0.3441" stop-color="#7A7A7A"/>
<stop offset="0.6989" stop-color="#545454"/>
<stop offset="0.9219" stop-color="#1F1F1F"/>
</linearGradient>
</defs>
</svg>
