<svg width="480" height="620" viewBox="0 0 480 620" fill="none" xmlns="http://www.w3.org/2000/svg">
<rect width="480" height="620" fill="#FFF9F9" fill-opacity="0.82"/>
<path d="M311.633 267.632V478.56C311.633 478.56 312.221 482.622 317.703 482.225C317.703 482.225 321.657 482.248 322.098 477.236L325.09 267.632H311.633Z" fill="#674629"/>
<path d="M316.965 483C311.738 483 311.075 478.872 311.053 478.692L311.042 267.632C311.042 267.216 311.307 266.885 311.637 266.885H325.094C325.251 266.885 325.404 266.965 325.517 267.112C325.625 267.249 325.689 267.447 325.685 267.646L322.697 477.25C322.297 481.794 319.256 482.976 317.706 482.976C317.467 482.991 317.208 483 316.965 483ZM312.228 478.56C312.243 478.56 312.861 481.813 317.669 481.477C317.841 481.477 321.136 481.421 321.51 477.15L324.483 268.384H312.225L312.228 478.56Z" fill="#5B3512"/>
<path d="M77.6003 190.863V371.11C77.6003 371.11 78.1919 374.585 83.666 374.24C83.666 374.24 87.6237 374.264 88.0692 369.979L91.0571 190.868H77.6003V190.863Z" fill="#674629"/>
<path d="M82.9357 375.016C77.72 375.016 77.0497 371.422 77.0235 371.266L77.0085 190.863C77.0085 190.451 77.2744 190.116 77.6002 190.116H91.0569C91.2179 190.116 91.3677 190.201 91.48 190.343C91.5923 190.489 91.656 190.683 91.6485 190.882L88.6606 369.994C88.1514 374.94 83.8493 374.997 83.6658 374.997C83.4336 375.011 83.1791 375.016 82.9357 375.016ZM78.1992 371.11C78.218 371.11 78.9106 373.8 83.6433 373.488C83.8118 373.488 87.1142 373.45 87.4811 369.88L90.4541 191.61H78.1992V371.11Z" fill="#5B3512"/>
<path d="M159.921 154.791V335.038C159.921 335.038 160.509 338.513 165.99 338.168C165.99 338.168 169.948 338.192 170.389 333.903L173.377 154.791H159.921Z" fill="#674629"/>
<path d="M165.256 338.939C160.04 338.939 159.37 335.35 159.344 335.193L159.329 154.791C159.329 154.375 159.595 154.044 159.921 154.044H173.377C173.535 154.044 173.692 154.124 173.8 154.271C173.913 154.412 173.973 154.611 173.969 154.81L170.977 333.921C170.472 338.858 166.17 338.92 165.986 338.92C165.754 338.934 165.499 338.939 165.256 338.939ZM160.516 335.037C160.538 335.037 161.239 337.723 165.96 337.421C166.132 337.421 169.435 337.378 169.801 333.808L172.774 155.543H160.516V335.037Z" fill="#5B3512"/>
<path d="M398.968 229.361V440.289C398.968 440.289 399.555 444.351 405.037 443.953C405.037 443.953 408.991 443.977 409.436 438.964L412.424 229.361H398.968Z" fill="#674629"/>
<path d="M404.299 444.729C399.072 444.729 398.409 440.601 398.383 440.426L398.376 229.361C398.376 228.949 398.638 228.614 398.967 228.614H412.424C412.581 228.614 412.735 228.694 412.847 228.836C412.956 228.982 413.019 229.176 413.016 229.38L410.028 438.979C409.627 443.518 406.587 444.701 405.037 444.701C404.797 444.719 404.546 444.729 404.299 444.729ZM399.559 440.288C399.57 440.288 400.188 443.537 404.999 443.206C405.175 443.202 408.466 443.149 408.845 438.884L411.817 230.117H399.559V440.288Z" fill="#5B3512"/>
<path d="M172.512 155.301L53.5918 186.361V199.365L303.59 294.619L426.405 232.799V223.298L172.512 155.301Z" fill="#B77C48"/>
<path d="M303.59 295.367C303.534 295.367 303.474 295.357 303.418 295.338L53.4194 200.079C53.1722 199.985 53 199.696 53 199.361V186.361C53 186.006 53.1985 185.704 53.4718 185.623L172.396 154.564C172.478 154.54 172.557 154.54 172.639 154.564L426.532 222.565C426.805 222.636 427 222.944 427 223.298V232.799C427 233.101 426.85 233.38 426.629 233.494L303.815 295.31C303.74 295.353 303.665 295.367 303.59 295.367ZM54.1832 198.803L303.56 293.825L425.805 232.288V223.908L172.508 156.068L54.1832 186.971V198.803Z" fill="#5B3512"/>
<path d="M426.405 223.298L303.59 190.409V294.62L426.405 232.799V223.298Z" fill="#674629"/>
<path d="M303.59 295.367C303.474 295.367 303.354 295.319 303.253 295.234C303.096 295.097 302.995 294.861 302.995 294.615V190.399C302.995 190.172 303.073 189.96 303.212 189.818C303.354 189.671 303.534 189.614 303.71 189.662L426.524 222.561C426.797 222.632 426.992 222.939 426.992 223.294V232.794C426.992 233.097 426.842 233.376 426.621 233.489L303.807 295.305C303.74 295.353 303.665 295.367 303.59 295.367ZM304.181 191.336V293.513L425.809 232.288V223.908L304.181 191.336Z" fill="#5B3512"/>
<path d="M201.317 137.752L53.5918 186.361L303.59 282.783L426.405 223.298L201.317 137.752Z" fill="#393331"/>
<path d="M303.59 283.53C303.534 283.53 303.474 283.526 303.414 283.497L53.4196 187.08C53.165 186.985 52.9927 186.682 53.0002 186.347C53.004 186.011 53.1837 185.722 53.4421 185.637L201.167 137.024C201.275 136.991 201.384 136.991 201.489 137.029L426.577 222.58C426.82 222.674 426.989 222.953 426.996 223.275C427.007 223.592 426.854 223.889 426.618 223.998L303.804 283.483C303.732 283.511 303.661 283.53 303.59 283.53ZM55.7748 186.418L303.568 281.989L424.57 223.383L201.305 138.528L55.7748 186.418Z" fill="#714950"/>
</svg>
