<svg width="480" height="620" viewBox="0 0 480 620" fill="none" xmlns="http://www.w3.org/2000/svg">
<g clip-path="url(#clip0_2097_41)">
<path d="M480 0H0V620H480V0Z" fill="#FFF9F9" fill-opacity="0.82"/>
<path d="M150.646 225.836L129.715 238.74L110.716 277.193L100.617 317.753L92.2002 351.477L78.7253 365.428L64.5401 367.804L50.1051 362.005L42.8942 346.734L36.1611 344.891L34 351.477L43.1309 375.178L61.8924 382.023L78.2474 383.084L92.4413 374.923L114.565 345.937L123.468 304.326L127.317 267.183L137.894 242.422L150.646 225.836Z" fill="#C94A03"/>
<path d="M114.622 269.305L116.678 265.138L123.591 269.685L120.706 272.056L114.622 269.305Z" fill="#6D5652"/>
<path d="M108.27 287.038L109.34 282.723L115.416 284.696L121.671 285.488L121.912 288.911L113.013 288.651L108.27 287.038Z" fill="#6D5652"/>
<path d="M105.009 300.125L106.859 292.704L111.808 297.067L119.505 299.444L120.706 303.399L113.254 304.451L105.009 300.125Z" fill="#6D5652"/>
<path d="M102.909 311.037C102.799 310.955 102.624 310.816 102.387 310.638L103.553 305.977L108.673 310.773H119.014L119.978 313.139L112.285 314.724C112.285 314.724 103.632 311.555 102.909 311.037Z" fill="#6D5652"/>
<path d="M99.5296 322.102L109.314 328.861L117.962 330.047L117.787 330.878L113.688 335.981C113.688 335.981 104.869 335.741 104.137 334.881C103.703 334.368 100.411 331.602 97.7455 329.26L99.5296 322.102Z" fill="#6D5652"/>
<path d="M92.2001 351.477L92.8401 348.89L95.9349 355.284L105.197 358.217L101.971 362.428L96.1672 361.343C96.1672 361.343 91.775 356.681 89.6183 354.146L92.2001 351.477Z" fill="#6D5652"/>
<path d="M200.193 323.816L194.902 345.155L181.186 370.176L168.443 383.084L162.425 388.351V392.561L174.935 409.684L184.075 418.378L195.867 421.009L201.394 422.324L205.962 431.018L206.681 436.294L202.837 437.345H199.466L198.269 440.764H186L175.418 439.976L172.292 438.133L172.051 434.969L166.76 427.336L163.389 426.016L155.459 412.843L143.185 396.78L134.287 387.818L133.809 380.972L139.819 373.598L143.431 350.944L168.202 306.169L200.193 323.816Z" fill="#CEAD97"/>
<path d="M168.197 357.54C168.925 357.276 178.543 359.119 178.543 359.119L185.197 362.854L181.186 370.175L181.124 370.242C179.099 368.965 176.07 367.064 174.689 366.224C172.528 364.909 168.675 362.005 168.675 362.005L157.615 363.066L157.852 360.166C157.852 360.166 167.478 357.794 168.197 357.54Z" fill="#6D5652"/>
<path d="M179.744 343.052C180.467 343.571 186.955 346.206 187.687 346.475C188.086 346.619 191.303 346.686 194.043 346.715L189.883 354.31C187.717 353.983 185.451 353.551 184.561 353.062C182.628 352.001 178.784 348.578 177.337 347.263C175.891 345.952 171.086 343.835 171.086 343.835L159.062 344.627L158.576 341.468C158.576 341.468 169.644 340.94 173.011 340.94C176.373 340.94 179.025 342.524 179.744 343.052Z" fill="#6D5652"/>
<path d="M358.93 325.136L351.237 356.484L347.142 401.783L346.419 409.949L347.388 415.22L353.402 419.958L360.372 428.647V432.344L356.528 434.969L354.362 436.294L338.972 437.869L324.296 428.388L338.248 328.295L358.93 325.136Z" fill="#CEAD97"/>
<path d="M331.984 378.869L338.481 378.346L349.628 374.28L349.155 379.46L334.154 383.872L331.984 378.869Z" fill="#6D5652"/>
<path d="M332.883 366.743L339.441 365.432C339.441 365.432 345.937 363.325 348.344 361.755C349.155 361.222 350.062 360.541 350.926 359.878L350.588 363.613L350.027 364.381C350.027 364.381 339.927 369.647 339.204 369.647C338.617 369.647 334.001 371.015 332.217 371.543L332.883 366.743Z" fill="#6D5652"/>
<path d="M410.638 185.271L409.682 176.318L404.865 170L399.096 172.362L394.524 179.476L410.638 185.271Z" fill="#F4852A"/>
<path d="M442.147 226.892L446 221.362L445.272 217.406L427.243 202.668L423.631 193.701L422.912 189.764L409.204 182.909L394.765 178.425L383.946 180.273L369.757 186.068L359.171 199.505L346.901 205.558L324.054 213.46L315.16 216.883L309.382 221.621L270.904 221.899L236.993 222.941L207.89 224.789L173.015 218.731L149.686 223.733L133.331 240.329L117.708 277.999L116.98 315.665L111.448 340.162L99.9107 363.604L87.1502 373.344L85.9491 379.93L91.0033 386.517L101.348 431.028L105.92 435.512L110.729 443.414L122.994 444.47L134.063 443.942L134.786 441.834L141.997 439.991L140.792 432.084L135.264 428.138L123.481 424.451L120.351 411.019L116.502 385.994L122.275 380.199L146.565 358.069C146.565 358.069 166.05 337.267 166.536 336.48C167.01 335.688 178.078 324.095 178.078 324.095L192.263 326.466L215.36 338.847L238.448 343.326L266.586 337.003L285.834 332.793L303.39 337.003L309.4 342.802L311.329 366.244L310.364 406.545L306.757 415.498L310.123 422.085L308.677 432.617L311.088 437.101L318.54 442.103L320.468 447.633L334.171 450L346.914 448.157L348.124 445.526L351.973 445.257L352.933 438.147L343.315 428.661L335.618 424.979L334.171 417.605L339.944 369.662L343.789 340.421L356.545 333.84L364.238 322.779L368.806 300.917L376.99 288.268L388.291 272.983L393.336 253.761L400.315 245.331L414.022 242.96L424.845 248.759L430.381 249.018L432.065 246.123L433.507 240.329L437.838 235.85L440.722 231.112L442.147 226.892Z" fill="#F25800"/>
<path d="M122.762 421.422L114.565 422.593L108.31 410.477L104.465 393.089L110.716 369.388L129.955 348.842L138.622 326.716L141.024 298.8L145.841 279.305L154.499 272.987L162.674 285.632L182.396 295.118L210.775 294.057L247.82 293.006L291.594 306.702L308.431 309.866L328.153 290.37L340.181 261.399L356.054 246.118L369.042 228.735L362.305 215.034L348.865 204.588L359.184 199.495L359.99 198.468L366.64 200.81L378.664 200.277L377.218 208.179L376.74 222.408L377.696 236.628L395.493 245.062L397.886 248.25L393.327 253.747L388.282 272.968L376.981 288.253L368.797 300.903L364.229 322.765L356.536 333.825L343.78 340.407L343.605 341.761L331.515 341.458L322.375 346.201L314.2 375.706L310.855 385.466L311.316 366.215L309.387 342.774L303.377 336.975L285.821 332.764L266.573 336.975L238.435 343.297L215.347 338.818L192.25 326.437L178.065 324.066C178.065 324.066 166.996 335.659 166.523 336.451C166.041 337.239 146.552 358.04 146.552 358.04L122.262 380.17L116.489 385.965L120.338 410.99L122.762 421.422Z" fill="#C94A03"/>
<path d="M410.52 202.654L411.064 205.419L413.948 206.403H417.56L419.725 206.797V205.025L415.57 202.654H410.52Z" fill="#F4852A"/>
<path d="M415.026 200.676L409.253 201.07L409.98 203.451L413.584 204.632L416.109 203.451L419.725 205.025L415.026 200.676Z" fill="#172B2A"/>
<path d="M414.903 201.209L414.667 198.179L412.988 196.994L410.217 199.101L410.09 201.209H414.903Z" fill="#C94A03"/>
<path d="M364.221 322.765L356.527 333.825L344.775 339.898L339.326 330.796L342.211 323.293L347.624 314.988L352.315 288.92L364.58 277.855L372.878 264.826L381.058 254.02L387.067 242.959L379.615 238.74L375.285 237.16L373.606 232.686L375.039 228.73L375.526 214.77V206.868L383.46 204.766L398.377 204.233L406.552 210.819L411.843 213.191L413.531 221.616L421.22 223.2L429.399 224.251L439.021 220.565L444.365 223.695L442.147 226.892L440.705 231.107L437.82 235.845L433.485 240.324L432.043 246.118L430.359 249.008L424.827 248.749L414.004 242.95L400.297 245.321L393.318 253.751L388.273 272.973L376.972 288.258L368.788 300.908L364.221 322.765Z" fill="#F4D7C3"/>
<path d="M437.579 221.616L438.062 218.726L443.352 220.306L445.741 219.955L446 221.357L442.147 226.892L442.037 227.195L439.986 224.252L437.579 221.616Z" fill="#172B2A"/>
<path d="M167.597 331.593C167.957 330.407 175.904 317.753 176.255 316.183C176.619 314.599 186.727 313.02 186.727 313.02L195.385 317.753L208.369 321.709L238.672 325.655L295.671 320.921L307.222 321.709L313.35 331.593L316.603 358.054L315.156 396.382L311.189 412.978L309.326 420.543L306.74 415.474L310.347 406.521L311.312 366.22L309.383 342.779L303.373 336.979L285.817 332.769L266.569 336.979L238.431 343.302L215.343 338.823L192.246 326.442L178.061 324.071C178.061 324.071 166.992 335.664 166.519 336.456C166.444 336.562 166.006 337.066 165.318 337.829C166.431 334.862 167.448 332.097 167.597 331.593Z" fill="#F4D7C3"/>
<path d="M122.267 380.185L116.494 385.979L120.172 409.915C118.274 408.119 116.726 406.646 116.371 406.257C115.288 405.071 114.565 398.355 113.851 397.174C113.123 395.979 112.764 386.498 112.764 386.498L118.173 376.224C118.173 376.224 128.996 368.721 130.079 367.53C130.811 366.724 139.003 362.84 145.447 359.057L122.267 380.185Z" fill="#CEAD97"/>
<path d="M132.112 444.018L131.161 437.475L127.198 433.524L125.572 431.945C125.572 431.945 127.553 432.141 128.101 432.141C128.641 432.141 131.521 434.518 131.521 434.518L133.875 439.846L134.563 442.439L134.05 443.927L132.112 444.018Z" fill="#C94A03"/>
<path d="M344.333 448.516L345.104 445.574V441.032L340.594 436.486L340.949 435.305L345.28 438.066L347.8 443.601L347.362 447.139L346.897 448.142L344.333 448.516Z" fill="#C94A03"/>
<path d="M416.652 197.916L415.692 193.969L411.12 192.39L407.753 193.441L406.793 196.864L408.472 196.595L411.365 194.757L414.25 195.28L416.652 197.916Z" fill="#172B2A"/>
<path d="M409.682 188.17L406.066 190.273L404.387 193.696L404.146 196.326H401.498L402.462 191.593L405.588 187.906L408.713 186.855L409.682 188.17Z" fill="#172B2A"/>
<path d="M431.565 225.572L432.042 231.107L428.676 233.737L419.782 235.845L414.723 237.16L412.321 236.368L413.044 227.151L418.335 225.048L431.565 225.572Z" fill="#CEAD97"/>
<path d="M404.865 202.13L408.714 204.502L408.473 207.397L409.433 211.088L413.531 212.668L416.652 212.135L418.581 214.242L417.371 215.299L415.21 213.978H409.682L407.03 211.876L404.624 206.869L402.945 204.502L404.865 202.13Z" fill="#172B2A"/>
<path d="M421.702 217.142L415.447 218.726L409.191 219.778L404.387 220.306L399.096 216.355L396.685 210.292L397.172 204.766L397.891 200.028L394.287 198.708L392.841 197.388V198.708L394.524 200.815L395.238 203.71L394.287 209.768L395.238 215.299L399.337 220.829L403.9 222.413L408.236 222.144L413.044 221.098L421.943 217.934L421.702 217.142Z" fill="#6D5652"/>
<path d="M407.508 240.324L405.11 233.474L404.387 229.528L397.172 227.684L389.479 225.308L386.831 218.457L386.353 213.455L386.594 206.605C386.594 206.605 385.867 202.913 385.148 202.663C384.429 202.395 380.817 200.551 380.817 200.551L380.339 202.663L383.465 204.766L384.429 209.24L384.661 215.299L385.385 221.616L388.032 226.892C388.032 226.892 391.162 230.051 391.881 230.051C392.6 230.051 399.811 231.894 399.811 231.894L403.177 234.794L405.11 240.588L407.508 240.324Z" fill="#6D5652"/>
<path d="M391.158 236.632L384.424 233.737L382.018 228.995L381.058 223.992L379.134 223.464L380.58 229.259C380.58 229.259 382.496 233.473 382.982 234.266C383.46 235.058 386.59 236.901 386.59 236.901L390.917 238.744L391.158 236.632Z" fill="#6D5652"/>
<path d="M381.777 196.595L386.827 192.904L388.751 187.383L391.631 181.853L394.042 182.117L393.082 186.063C393.082 186.063 390.43 190.806 389.952 191.862C389.474 192.908 386.59 196.864 385.862 196.864C385.143 196.864 382.496 197.916 382.496 197.916L381.777 196.595Z" fill="#172B2A"/>
<path d="M395.971 188.434L399.337 184.488L404.146 182.635L403.423 185.271L398.61 188.703L394.288 193.97H392.6L395.971 188.434Z" fill="#172B2A"/>
<path d="M415.692 188.958L418.099 187.344L422.908 189.754L423.219 191.478L422.421 191.593L416.648 191.329L411.844 189.49L415.692 188.958Z" fill="#172B2A"/>
<path d="M360.613 300.908C360.613 300.908 361.814 296.957 361.814 296.169C361.814 295.377 363.256 285.363 363.256 285.363L361.091 276.674L357.001 268.504C357.001 268.504 354.112 258.235 353.871 257.443C353.634 256.656 352.665 245.067 352.665 243.214C352.665 241.375 353.871 232.95 353.871 232.95L352.424 226.095L350.022 218.193L348.825 218.457L351.705 228.735C351.705 228.735 351.232 238.481 350.987 239.273C350.75 240.06 349.544 253.492 349.544 253.492L351.705 264.557L357.961 278.258L358.921 285.896C358.921 285.896 358.439 295.118 358.439 296.174C358.439 297.226 357.961 303.02 357.961 303.02L361.568 306.971L364.216 308.286V306.702L360.613 300.908Z" fill="#172B2A"/>
<path d="M343.298 335.136L340.891 338.568L334.64 334.617L327.903 324.08L323.817 311.435L322.138 299.587C322.138 299.587 322.138 297.48 322.138 295.108C322.138 292.291 322.138 289.088 322.138 288.527C322.138 287.461 321.652 280.087 321.652 280.087L321.178 274.816H322.143L322.857 282.987L324.782 304.844L328.394 315.914L333.926 326.711L336.573 333.297L343.298 335.136Z" fill="#172B2A"/>
<path d="M312.99 314.076C312.99 314.868 313.95 322.242 313.95 322.242C313.95 322.242 314.91 326.452 315.638 326.975C316.361 327.508 318.04 331.195 318.04 331.195L317.562 334.349L313.713 326.975C313.713 326.975 310.351 321.704 310.351 320.658C310.351 319.606 311.074 313.284 311.074 313.284L312.99 314.076Z" fill="#172B2A"/>
<path d="M281.964 269.819L284.848 271.922C284.848 271.922 285.813 286.943 285.813 287.735C285.813 288.527 285.33 297.475 285.33 298.526C285.33 299.587 284.848 304.844 285.571 306.169C286.29 307.489 288.21 313.019 288.456 314.33C288.697 315.65 290.376 322.765 290.376 322.765L288.938 323.557L286.527 315.122L282.201 306.692C282.201 306.692 281.477 297.206 280.999 295.108C280.513 293.001 278.115 278.244 278.347 276.405C278.597 274.562 281.964 269.819 281.964 269.819Z" fill="#172B2A"/>
<path d="M137.658 256.92C137.658 256.92 136.216 263.502 135.97 264.826C135.733 266.137 133.081 274.039 133.081 274.039C133.081 274.039 131.161 276.934 130.206 277.726C129.241 278.513 126.598 279.041 126.598 279.041C126.598 279.041 128.277 275.618 128.764 274.821C129.241 274.039 132.853 269.032 132.853 267.981C132.853 266.92 134.05 260.871 134.05 260.871L134.528 256.651L137.658 256.92Z" fill="#172B2A"/>
<path d="M315.16 216.878L315.357 216.801L311.543 237.425V251.38L314.191 263.761L315.638 272.983L317.08 277.99L318.281 282.464V289.574V294.84L316.602 295.901L316.12 288.786L313.95 277.193L309.623 263.502L307.699 249.008L307.454 229.528L307.738 221.631L309.382 221.616L315.16 216.878Z" fill="#172B2A"/>
<path d="M296.636 234.525L298.564 246.114C298.564 246.114 299.766 262.186 299.766 262.973C299.766 263.761 299.998 273.77 299.998 273.77L301.922 283.52C301.922 283.52 304.333 289.045 304.574 289.837C304.811 290.625 306.976 295.632 306.976 296.419C306.976 297.206 306.735 301.695 306.735 301.695L305.056 302.218L304.088 295.632L300.239 281.672C300.239 281.672 297.6 270.347 297.359 268.763C297.118 267.179 293.747 252.964 293.747 250.857C293.747 248.749 293.51 232.153 293.51 231.361C293.51 230.824 294.755 225.188 295.54 221.712L299.375 221.683L296.636 234.525Z" fill="#172B2A"/>
<path d="M278.829 254.817C278.829 255.604 276.914 262.973 276.914 262.973L274.989 262.709C274.989 262.709 275.226 252.436 274.989 250.333C274.753 248.226 272.346 236.896 272.1 235.053C271.894 233.488 273.082 224.53 273.442 221.861L280.868 221.813L279.083 232.681C279.083 232.681 279.083 240.842 279.083 241.898C279.083 242.959 278.829 254.02 278.829 254.817Z" fill="#172B2A"/>
<path d="M262.725 229.787C262.725 229.787 258.88 247.165 258.88 247.957C258.88 248.749 259.117 256.651 259.117 257.443C259.117 258.235 259.84 263.761 259.84 265.34C259.84 266.924 259.358 276.934 259.358 276.934L255.987 286.684L254.304 292.473L253.107 291.417L254.071 282.464C254.071 282.464 252.866 271.139 252.143 269.296C251.419 267.452 251.665 246.382 251.665 246.382L253.353 225.836L254.326 222.399L264.026 222.091L262.725 229.787Z" fill="#172B2A"/>
<path d="M236.989 232.153L238.51 222.888L245.712 222.663L243.244 228.726C243.244 228.726 241.561 239.004 241.561 240.319C241.561 241.634 241.793 250.328 241.793 251.649C241.793 252.964 241.793 259.017 241.793 259.017L239.627 265.335L237.707 263.496C237.707 263.496 238.667 256.646 238.667 255.595C238.667 254.539 238.904 246.901 238.667 245.321C238.435 243.742 236.989 232.153 236.989 232.153Z" fill="#172B2A"/>
<path d="M205.589 224.381L204.519 233.209C204.519 233.209 201.881 240.578 201.394 241.639C200.921 242.695 199.947 247.957 199.947 249.008C199.947 250.069 200.666 255.071 200.666 255.071H198.742C198.742 255.071 198.023 246.118 198.023 244.28C198.023 242.422 202.595 231.107 202.595 228.994C202.595 228.102 202.332 225.956 202.038 223.762L205.589 224.381Z" fill="#172B2A"/>
<path d="M207.404 264.289C208.127 261.658 211.257 251.913 212.217 249.008C213.177 246.113 217.749 232.153 217.995 230.574C218.091 229.911 218.231 227.132 218.367 224.117L225.771 223.647L222.558 236.892C222.558 236.892 220.156 245.321 219.674 247.165C219.187 249.008 215.102 257.966 214.137 260.074C213.177 262.181 210.052 269.291 209.092 270.347C208.127 271.408 204.274 276.669 204.274 278.249C204.274 279.833 203.551 284.576 203.551 284.576L201.872 284.297C201.872 284.297 203.551 274.816 203.796 274.034C204.033 273.247 206.681 266.924 207.404 264.289Z" fill="#172B2A"/>
<path d="M324.054 213.455L326.242 212.696L325.738 215.298L324.537 227.41L327.421 243.214L328.622 247.165L329.345 258.489H328.14C328.14 258.489 327.899 253.223 327.899 251.908C327.899 250.592 327.421 247.698 327.18 246.901C326.934 246.113 324.05 237.688 324.05 237.688L323.335 232.153L324.05 220.565L323.901 213.508L324.054 213.455Z" fill="#172B2A"/>
<path d="M352.675 321.454L351.715 316.707C351.715 316.707 344.508 309.333 343.539 308.546C342.584 307.753 339.454 299.852 339.454 299.852C339.454 299.852 338.012 287.74 337.766 286.151C337.525 284.576 335.601 273.242 335.601 272.45C335.601 271.663 335.123 262.709 335.123 262.709L332.475 255.864L330.069 249.004C330.069 249.004 331.752 230.833 331.752 230.046C331.752 229.254 333.19 219.773 333.19 218.981C333.19 218.189 334.395 211.602 334.395 211.602V209.879L336.955 208.991L337.043 210.287L334.873 219.514C334.873 219.514 332.707 235.317 332.707 236.104C332.707 236.897 332.471 246.383 332.471 246.383L337.038 257.702L337.279 269.027L338.963 285.623L342.084 300.903L348.339 307.216L353.63 310.643L354.827 319.601V325.4L353.63 324.335L352.675 321.454Z" fill="#172B2A"/>
<path d="M341.611 214.511L340.169 225.836L341.133 233.474L339.932 236.109L338.726 229.528L338.007 217.934L340.19 207.877L343.04 206.888L341.611 214.511Z" fill="#172B2A"/>
<path d="M384.424 255.869L390.193 258.235L391.657 260.069L390.596 264.131L389.474 261.917L384.183 257.443L381.536 253.228L380.094 248.749L381.536 249.801L384.424 255.869Z" fill="#6D5652"/>
<path d="M364.698 210.556L366.623 212.663L367.35 224.521L368.788 235.581C368.788 235.581 371.432 244.28 372.155 245.326C372.878 246.382 379.37 255.067 379.37 255.067L383.697 262.969L384.898 271.13L385.652 276.506L382.662 280.548L379.12 275.08C379.12 275.08 376.481 264.279 376.236 262.705C375.995 261.12 372.392 251.111 372.392 251.111C372.392 251.111 367.096 244.001 366.855 243.209C366.618 242.417 366.618 232.408 366.377 231.097C366.141 229.782 365.181 216.081 365.181 216.081L363.979 210.551H364.698V210.556Z" fill="#172B2A"/>
<path d="M313.95 355.687L319.973 358.328L322.134 364.122L321.174 366.493L319.728 363.853L316.602 359.907L312.03 358.851L310.698 358.731L310.079 351.304L313.95 355.687Z" fill="#172B2A"/>
<path d="M311.031 377.583L311.21 370.324L316.839 372.014L321.174 377.026L323.818 379.921V381.764L319.004 378.869L311.031 377.583Z" fill="#172B2A"/>
<path d="M175.904 294.84C175.904 294.84 176.618 290.898 176.859 289.319C177.101 287.74 177.337 281.945 177.337 280.615C177.337 279.305 178.06 271.403 177.819 270.088C177.578 268.772 177.1 256.915 177.1 255.599C177.1 254.289 179.025 247.17 179.266 245.864C179.498 244.539 181.909 238.217 182.15 237.165C182.387 236.109 185.517 222.677 185.517 222.677L185.819 220.958L192.303 222.077C191.066 226.781 188.528 236.378 188.16 237.165C187.687 238.217 181.909 245.067 181.673 246.906C181.423 248.754 179.025 259.814 179.266 263.237C179.498 266.665 179.025 275.613 179.744 277.725C180.467 279.833 180.226 284.83 179.744 286.947C179.266 289.055 177.337 294.59 177.337 294.59L175.904 294.84Z" fill="#172B2A"/>
<path d="M160.987 232.95C160.746 233.738 156.174 250.065 156.174 252.172C156.174 254.28 156.656 271.134 156.656 272.719C156.656 274.298 156.174 283.52 156.174 285.095C156.174 286.679 155.209 296.952 155.209 296.952L153.53 301.954L151.843 299.319L153.289 286.679C153.289 286.679 152.088 272.719 152.088 271.922C152.088 271.134 151.365 252.7 151.365 251.116C151.365 249.546 153.772 236.632 154.013 235.053C154.227 233.666 157.585 224.141 158.401 221.851L165.353 220.354C163.7 225.101 161.149 232.413 160.987 232.95Z" fill="#172B2A"/>
<path d="M195.384 277.192L196.099 268.767L198.023 269.819C198.023 269.819 196.581 281.676 196.344 282.464C196.099 283.256 192.732 293.001 192.491 294.052C192.25 295.113 192.5 304.066 192.732 304.849C192.973 305.646 193.455 311.958 193.696 314.075C193.933 316.188 199.711 324.872 199.228 327.503C199.093 328.247 198.957 329.121 198.834 329.985L193.083 326.898C192.237 324.901 191.285 322.462 191.285 321.454C191.285 319.606 187.923 302.482 187.923 301.167C187.923 299.851 187.687 286.419 188.16 285.358C188.642 284.302 195.384 277.192 195.384 277.192Z" fill="#172B2A"/>
<path d="M169.403 315.655C170.122 318.809 173.493 325.137 174.212 327.239C174.282 327.441 174.326 327.695 174.37 327.969C172.722 329.697 170.819 331.713 169.298 333.36L167.479 327.239L164.831 313.284C164.831 313.284 163.152 301.172 163.152 300.111C163.152 299.06 163.875 290.107 164.112 287.466C164.349 284.831 168.202 271.927 168.202 271.927L168.448 265.878L170.609 266.665C170.609 266.665 168.448 276.675 168.448 277.726C168.448 278.782 167.246 285.892 167.246 288.786C167.246 291.691 166.282 297.749 167.246 301.959C168.202 306.169 168.68 312.487 169.403 315.655Z" fill="#172B2A"/>
<path d="M142.944 314.076C142.944 312.756 142.23 304.585 142.23 303.01C142.23 301.426 141.265 294.052 141.265 294.052L142.23 292.214L143.904 296.16C143.904 296.16 145.833 305.905 145.833 306.961C145.833 308.013 146.552 319.606 147.275 322.242C147.998 324.872 153.048 336.725 153.767 339.356C154.262 341.19 155.463 345.049 156.152 347.771C154.955 349.062 153.763 350.335 152.654 351.53C152.535 349.567 152.342 347.301 152.084 346.729C151.602 345.673 147.029 331.195 146.306 329.874C145.592 328.55 142.944 315.386 142.944 314.076Z" fill="#172B2A"/>
<path d="M132.603 366.753C132.603 366.753 134.527 352.524 134.527 351.477C134.527 350.416 134.768 337.253 134.768 335.933C134.768 334.622 134.282 325.659 134.045 324.613C133.808 323.561 134.523 319.875 134.523 319.875L135.974 323.821L137.416 332.779C137.416 332.779 137.653 339.893 137.89 343.052C138.131 346.211 138.372 354.381 138.372 358.059C138.372 360.334 138.017 363.498 137.67 366.153L132.064 371.26C132.34 368.898 132.603 366.753 132.603 366.753Z" fill="#172B2A"/>
<path d="M110.484 364.381L112.408 365.173C112.408 365.173 119.619 370.963 120.342 372.014C120.886 372.821 122.959 376.507 124.033 378.576L122.271 380.185L121.447 381.006L119.869 377.813L112.886 368.86L109.76 366.493L110.484 364.381Z" fill="#172B2A"/>
<path d="M101.099 388.879L108.073 386.507L109.997 389.935C109.997 389.935 101.094 394.15 99.1701 394.414C98.2846 394.534 95.6457 394.827 92.9674 395.023L91.0255 386.68L101.099 388.879Z" fill="#172B2A"/>
<path d="M121.062 426.016L123.775 424.537L132.358 427.221L131.516 427.591L120.338 431.551L110.958 430.754L114.565 427.989L121.062 426.016Z" fill="#F4852A"/>
<path d="M110.83 341.391L114.811 340.676L122.267 337.776L126.353 334.881L127.076 336.725C127.076 336.725 125.151 340.676 121.544 342.788C119.019 344.262 111.321 347.915 106.6 349.989L110.83 341.391Z" fill="#172B2A"/>
<path d="M130.683 309.069C129.965 311.435 127.799 315.655 124.665 318.29C121.544 320.926 117.213 323.816 116.494 324.344C116.31 324.478 115.696 324.675 114.885 324.906L116.801 316.423L120.097 314.868C120.097 314.868 128.036 307.484 128.281 306.169C128.518 304.849 130.683 299.851 131.407 298.003C132.13 296.16 135.733 291.95 135.733 291.95H137.899C137.899 291.95 134.773 297.744 134.532 298.795C134.287 299.851 131.407 306.697 130.683 309.069Z" fill="#172B2A"/>
<path d="M393.696 185.78L390.544 192.251L387.401 199.346L380.479 198.708L377.332 191.286L380.479 184.176L385.2 182.227L393.696 185.78Z" fill="#F4852A"/>
<path d="M388.159 187.244L392.043 189.169L390.544 192.251L388.111 197.743L381.908 194.349L381.426 190.926L385.034 187.498L388.159 187.244Z" fill="#C94A03"/>
<path d="M323.454 433.524L323.817 429.962L331.028 427.202L335.522 424.576L335.6 424.965L343.298 428.647L346.34 431.652L334.272 433.923L323.454 433.524Z" fill="#F4852A"/>
<path d="M266.814 306.697C266.814 305.91 266.814 295.113 266.814 293.265C266.814 291.417 268.498 280.361 268.498 280.361L269.935 271.139L269.458 264.034L271.136 265.34L270.9 270.352C270.9 270.352 271.623 278.254 271.623 279.574C271.623 280.884 270.663 291.163 270.9 292.737C271.141 294.321 273.552 306.438 273.552 309.069C273.552 311.709 275.467 318.819 275.467 319.87C275.467 320.917 281.241 326.188 282.205 326.975C283.165 327.762 289.661 331.982 289.661 331.982L290.485 333.893L285.817 332.774L275.283 335.074L270.663 328.031C270.663 328.031 267.055 322.501 266.819 321.709C266.573 320.921 265.613 315.122 265.613 313.802C265.609 312.496 266.814 307.494 266.814 306.697Z" fill="#172B2A"/>
<path d="M270.663 328.036C270.663 328.036 267.055 322.506 266.819 321.714C266.573 320.926 265.613 315.127 265.613 313.807C265.613 312.496 266.819 307.499 266.819 306.702C266.819 306.246 266.819 302.439 266.819 298.959L272.351 300.682C272.964 304.187 273.556 307.782 273.556 309.074C273.556 311.714 275.472 318.824 275.472 319.875C275.472 320.921 281.245 326.193 282.209 326.98C283.169 327.767 289.666 331.987 289.666 331.987L290.49 333.898L285.821 332.779L275.288 335.079L270.663 328.036Z" fill="#261C1B"/>
<path d="M270.663 328.036C270.663 328.036 268.782 325.151 267.647 323.25L277.418 322.438C279.18 324.292 281.613 326.495 282.209 326.975C283.169 327.762 289.666 331.982 289.666 331.982L290.49 333.893L285.821 332.774L275.288 335.074L270.663 328.036Z" fill="#6D5652"/>
<path d="M239.632 283.779C239.632 282.992 238.672 273.246 238.672 273.246L240.355 273.77C240.355 273.77 241.56 281.672 241.56 282.464C241.56 283.256 241.315 292.473 241.315 294.052C241.315 295.636 239.873 307.494 239.632 308.8C239.395 310.115 243.721 320.921 244.686 322.765C245.65 324.603 251.173 331.982 251.901 333.033C252.348 333.681 255.031 336.696 257.061 339.13L243.774 342.106C243.572 341.775 243.388 341.463 243.244 341.204C242.038 339.092 238.908 332.246 237.944 329.61C236.988 326.975 235.309 320.124 235.309 316.183C235.309 312.227 236.747 301.69 237.225 298.795C237.712 295.9 239.632 284.576 239.632 283.779Z" fill="#172B2A"/>
<path d="M241.315 294.052C241.315 295.637 239.873 307.494 239.632 308.8C239.395 310.115 243.721 320.921 244.686 322.765C245.65 324.603 251.173 331.982 251.901 333.033C252.348 333.681 255.031 336.696 257.061 339.13L243.774 342.106C243.572 341.775 243.388 341.463 243.244 341.204C242.038 339.092 238.908 332.246 237.944 329.61C236.988 326.975 235.309 320.124 235.309 316.183C235.309 312.227 236.747 301.69 237.225 298.795C237.4 297.754 237.76 295.617 238.154 293.284L241.328 293.188C241.319 293.563 241.315 293.87 241.315 294.052Z" fill="#261C1B"/>
<path d="M236.73 325.41L238.672 325.66L246.146 325.04C248.145 327.94 251.358 332.251 251.902 333.033C252.349 333.681 255.032 336.696 257.061 339.13L243.775 342.106C243.573 341.775 243.389 341.463 243.244 341.204C242.039 339.092 238.909 332.246 237.944 329.61C237.598 328.66 237.155 327.138 236.73 325.41Z" fill="#6D5652"/>
<path d="M281.959 303.683L285.243 304.715C285.304 305.348 285.4 305.867 285.571 306.174C286.29 307.494 288.21 313.025 288.456 314.335C288.697 315.655 290.376 322.77 290.376 322.77L288.938 323.562L286.527 315.127L282.2 306.697C282.209 306.697 282.113 305.416 281.959 303.683Z" fill="#261C1B"/>
<path d="M223.513 290.63C223.513 290.63 219.669 299.852 219.432 300.908C219.187 301.959 216.785 309.333 216.544 311.709C216.303 314.076 218.227 320.926 219.187 323.293C220.147 325.66 224.004 331.718 224.482 332.779C224.956 333.83 224.956 336.471 224.956 336.471L224 336.73C224 336.73 220.629 331.723 219.91 330.417C219.183 329.097 214.852 323.303 213.896 322.251C212.932 321.19 209.802 314.878 209.802 313.293C209.802 311.719 212.69 304.859 212.69 304.859C212.69 304.859 217.745 298.282 218.464 297.221C219.187 296.17 222.558 288.004 222.558 288.004L223.513 290.63Z" fill="#172B2A"/>
<path d="M218.468 297.211C218.74 296.812 219.402 295.392 220.107 293.788L222.242 293.726C221.094 296.505 219.581 300.245 219.437 300.903C219.191 301.954 216.789 309.328 216.548 311.704C216.307 314.071 218.231 320.921 219.191 323.288C220.151 325.654 224.009 331.713 224.486 332.774C224.96 333.825 224.96 336.466 224.96 336.466L224.004 336.725C224.004 336.725 220.633 331.718 219.914 330.412C219.187 329.092 214.856 323.297 213.9 322.246C212.936 321.185 209.806 314.872 209.806 313.288C209.806 311.714 212.695 304.854 212.695 304.854C212.695 304.854 217.745 298.272 218.468 297.211Z" fill="#261C1B"/>
<path d="M219.121 323.115C219.148 323.173 219.169 323.24 219.191 323.293C220.151 325.659 224.009 331.718 224.487 332.779C224.96 333.83 224.96 336.47 224.96 336.47L224.004 336.73C224.004 336.73 220.634 331.723 219.915 330.417C219.226 329.169 215.329 323.922 214.089 322.472L219.121 323.115Z" fill="#6D5652"/>
<path d="M322.134 296.309L323.866 294.59L324.769 304.854L328.381 315.924L333.913 326.721L336.561 333.307L343.294 335.145L340.887 338.578L334.636 334.627L327.899 324.09L323.813 311.445L322.134 299.597C322.134 299.588 322.134 298.147 322.134 296.309Z" fill="#261C1B"/>
<path d="M337.266 268.379L337.284 269.032L338.967 285.628L342.088 300.908L348.343 307.221L353.634 310.648L354.831 319.606V325.405L353.634 324.34L352.67 321.45L351.71 316.702C351.71 316.702 344.503 309.328 343.535 308.541C342.579 307.749 339.449 299.847 339.449 299.847C339.449 299.847 338.007 287.735 337.762 286.146C337.521 284.571 335.596 273.237 335.596 272.445C335.596 272.435 335.596 272.411 335.596 272.392L337.266 268.379Z" fill="#261C1B"/>
<path d="M352.674 321.454L351.714 316.707C351.714 316.707 349.913 314.873 347.997 312.933L348.953 307.619L353.639 310.653L354.836 319.611V325.41L353.639 324.344L352.674 321.454Z" fill="#6D5652"/>
<path d="M353.876 257.443C354.117 258.235 357.005 268.503 357.005 268.503L361.095 276.674L363.261 285.363C363.261 285.363 361.819 295.377 361.819 296.169C361.819 296.956 360.618 300.907 360.618 300.907L364.225 306.697V308.281L361.578 306.966L357.97 303.015C357.97 303.015 358.448 297.22 358.448 296.169C358.448 295.113 358.93 285.891 358.93 285.891L357.97 278.253L351.715 264.552L349.553 253.487C349.553 253.487 349.597 253.017 349.663 252.253L353.052 248.994C353.341 252.762 353.735 256.977 353.876 257.443Z" fill="#261C1B"/>
<path d="M361.972 280.208L363.257 285.359C363.257 285.359 361.814 295.373 361.814 296.165C361.814 296.952 360.613 300.903 360.613 300.903L364.221 306.692V308.277L361.573 306.961L357.966 303.01C357.966 303.01 358.443 297.216 358.443 296.165C358.443 295.109 358.926 285.887 358.926 285.887L358.597 283.246L361.972 280.208Z" fill="#6D5652"/>
<path d="M366.474 232.153L368.061 230.027L368.788 235.581C368.788 235.581 371.432 244.28 372.155 245.326C372.878 246.382 379.37 255.067 379.37 255.067L383.697 262.969L384.898 271.13L385.652 276.506L382.662 280.548L379.12 275.08C379.12 275.08 376.481 264.279 376.236 262.705C375.995 261.12 372.392 251.111 372.392 251.111C372.392 251.111 367.096 244.001 366.855 243.209C366.662 242.542 366.623 235.096 366.474 232.153Z" fill="#261C1B"/>
<path d="M367.35 224.525L367.491 225.596L365.592 221.746C365.369 218.692 365.185 216.09 365.185 216.09L363.984 210.56H364.703L366.627 212.668L367.35 224.525Z" fill="#261C1B"/>
<path d="M375.776 260.981L379.743 255.753L383.697 262.974L384.898 271.135L385.652 276.511L382.662 280.553L379.12 275.085C379.12 275.085 376.481 264.284 376.236 262.709C376.196 262.412 376.025 261.778 375.776 260.981Z" fill="#6D5652"/>
<path d="M412.562 238.212L413.049 236.632L416.42 236.368L421.943 237.161L429.882 238.481L434.892 238.874L433.831 239.959L432.534 239.796L427.721 239.273L422.662 238.212H418.818L414.005 239.273L412.562 238.212Z" fill="#172B2A"/>
</g>
<defs>
<clipPath id="clip0_2097_41">
<rect width="480" height="620" fill="white"/>
</clipPath>
</defs>
</svg>
