<svg width="480" height="620" viewBox="0 0 480 620" fill="none" xmlns="http://www.w3.org/2000/svg">
<rect width="480" height="620" fill="#FFF9F9" fill-opacity="0.82"/>
<path d="M102.961 210.289C94.0465 215.67 86.1671 222.91 79.5788 231.314C62.0379 253.679 52.3588 283.284 54.2292 312.47C56.0995 341.652 69.8156 369.982 91.6986 387.371C101.953 395.518 113.723 401.222 125.785 405.653C168.778 421.444 216.687 421.291 259.59 405.215C268.757 401.783 277.768 397.605 285.7 391.592C301.185 379.851 311.598 361.878 319.637 343.43C324.165 333.043 328.091 322.305 330.572 311.149C332.433 302.783 333.472 294.207 333.707 285.613C334.71 248.664 316.652 212.4 287.062 193.571C256.836 174.329 173.761 167.537 102.961 210.289Z" fill="#EA3017"/>
<mask id="mask0_2090_114399" style="mask-type:luminance" maskUnits="userSpaceOnUse" x="54" y="178" width="280" height="240">
<path d="M102.961 210.289C94.0465 215.67 86.1671 222.91 79.5788 231.314C62.0379 253.679 52.3588 283.284 54.2292 312.47C56.0995 341.652 69.8156 369.982 91.6986 387.371C101.953 395.518 113.723 401.222 125.785 405.653C168.778 421.444 216.687 421.291 259.59 405.215C268.757 401.783 277.768 397.605 285.7 391.592C301.185 379.851 311.598 361.878 319.637 343.43C324.165 333.043 328.091 322.305 330.572 311.149C332.433 302.783 333.472 294.207 333.707 285.613C334.71 248.664 316.652 212.4 287.062 193.571C256.836 174.329 173.761 167.537 102.961 210.289Z" fill="white"/>
</mask>
<g mask="url(#mask0_2090_114399)">
<g opacity="0.2">
<path d="M243.853 164.233C247.568 142.913 223.735 136.064 209.143 135.745C178.859 135.085 84.7521 181.189 65.8317 204.443C31.0329 247.21 42.1933 314.305 54.6934 366.935C67.8834 422.461 154.049 439.031 202.351 462.956C244.654 483.904 302.087 484.584 342.298 458.521C369.032 441.19 364.835 399.074 332.088 393.446C316.25 390.722 340.193 369.707 324.2 368.528C310.621 367.525 259.184 369.498 237.508 360.761C181.543 338.201 182.883 294.597 182.525 281.615C182.087 265.491 183.4 246.259 190.736 231.875C199.19 215.304 210.686 201.6 224.668 190.291C229.885 186.07 235.864 180.404 239.158 174.401C243.637 166.239 230.522 181.54 239.113 173.811C241.961 171.249 243.19 168.04 243.853 164.233Z" fill="#BA044A"/>
</g>
</g>
<mask id="mask1_2090_114399" style="mask-type:luminance" maskUnits="userSpaceOnUse" x="54" y="178" width="280" height="240">
<path d="M102.961 210.289C94.0465 215.67 86.1671 222.91 79.5788 231.314C62.0379 253.679 52.3588 283.284 54.2292 312.47C56.0995 341.652 69.8156 369.982 91.6986 387.371C101.953 395.518 113.723 401.222 125.785 405.653C168.778 421.444 216.687 421.291 259.59 405.215C268.757 401.783 277.768 397.605 285.7 391.592C301.185 379.851 311.598 361.878 319.637 343.43C324.165 333.043 328.091 322.305 330.572 311.149C332.433 302.783 333.472 294.207 333.707 285.613C334.71 248.664 316.652 212.4 287.062 193.571C256.836 174.329 173.761 167.537 102.961 210.289Z" fill="white"/>
</mask>
<g mask="url(#mask1_2090_114399)">
<g opacity="0.26">
<path d="M226.675 162.721C230.389 141.402 172.262 144.805 157.67 144.487C127.386 143.826 33.2792 189.93 14.3587 213.184C-20.44 255.951 -9.27967 323.047 3.22046 375.677C16.4104 431.203 102.576 447.773 150.879 471.697C193.181 492.646 250.614 493.331 290.825 467.262C317.559 449.931 354.237 389.69 321.49 384.062C305.651 381.339 254.342 390.841 238.41 388.916C166.169 380.179 144.538 348.036 139.139 332.896C135.566 322.885 131.41 303.334 131.056 290.352C130.618 274.228 134.956 237.403 143.596 223.884C169.061 184.026 209.895 171.349 210.558 167.541L226.675 162.721Z" fill="#BC0902"/>
</g>
</g>
<mask id="mask2_2090_114399" style="mask-type:luminance" maskUnits="userSpaceOnUse" x="54" y="178" width="280" height="240">
<path d="M102.961 210.289C94.0465 215.67 86.1671 222.91 79.5788 231.314C62.0379 253.679 52.3588 283.284 54.2292 312.47C56.0995 341.652 69.8156 369.982 91.6986 387.371C101.953 395.518 113.723 401.222 125.785 405.653C168.778 421.444 216.687 421.291 259.59 405.215C268.757 401.783 277.768 397.605 285.7 391.592C301.185 379.851 311.598 361.878 319.637 343.43C324.165 333.043 328.091 322.305 330.572 311.149C332.433 302.783 333.472 294.207 333.707 285.613C334.71 248.664 316.652 212.4 287.062 193.571C256.836 174.329 173.761 167.537 102.961 210.289Z" fill="white"/>
</mask>
<g mask="url(#mask2_2090_114399)">
<g opacity="0.26">
<path d="M188.109 171.596C191.823 150.277 133.696 153.68 119.104 153.362C88.8201 152.701 -5.28679 198.805 -24.2072 222.059C-59.006 264.826 -47.8456 331.921 -35.3455 384.552C-22.1556 440.077 64.01 456.648 112.313 480.572C154.615 501.521 212.048 502.201 252.259 476.137C278.993 458.806 274.797 416.685 242.05 411.062C226.211 408.338 210.775 407.459 194.782 406.28C181.203 405.277 162.627 402.107 155.23 399.792C139.922 395 134.638 391.654 121.589 380.046C114.236 373.505 105.972 356.915 100.573 341.775C97.0003 331.765 92.8439 312.213 92.4901 299.232C92.0524 283.108 96.3901 246.283 105.03 232.764C130.495 192.901 171.329 180.228 171.992 176.421L188.109 171.596Z" fill="#BC0902"/>
</g>
</g>
<mask id="mask3_2090_114399" style="mask-type:luminance" maskUnits="userSpaceOnUse" x="54" y="178" width="280" height="240">
<path d="M102.961 210.289C94.0465 215.67 86.1671 222.91 79.5788 231.314C62.0379 253.679 52.3588 283.284 54.2292 312.47C56.0995 341.652 69.8156 369.982 91.6986 387.371C101.953 395.518 113.723 401.222 125.785 405.653C168.778 421.444 216.687 421.291 259.59 405.215C268.757 401.783 277.768 397.605 285.7 391.592C301.185 379.851 311.598 361.878 319.637 343.43C324.165 333.043 328.091 322.305 330.572 311.149C332.433 302.783 333.472 294.207 333.707 285.613C334.71 248.664 316.652 212.4 287.062 193.571C256.836 174.329 173.761 167.537 102.961 210.289Z" fill="white"/>
</mask>
<g mask="url(#mask3_2090_114399)">
<g opacity="0.26">
<path d="M169.047 171.363C172.762 150.044 114.634 153.447 100.042 153.129C69.7582 152.468 -24.3488 198.572 -43.2692 221.826C-78.0679 264.593 -66.9076 331.689 -54.4074 384.319C-41.2175 439.844 44.948 456.415 93.2506 480.339C135.553 501.288 192.986 501.972 233.197 475.904C259.931 458.573 255.735 416.453 222.988 410.829C207.149 408.105 191.713 407.226 175.72 406.047C162.141 405.044 143.565 401.874 136.168 399.559C120.864 394.767 115.576 391.421 102.527 379.813C95.1741 373.272 86.9099 356.682 81.511 341.542C77.9383 331.532 73.7819 311.981 73.4282 298.999C72.9904 282.875 77.3281 246.05 85.9681 232.531C111.433 192.673 152.267 179.996 152.93 176.188L169.047 171.363Z" fill="#BC0902"/>
</g>
</g>
<g opacity="0.29">
<path d="M169.22 238.763C172.903 241.472 186.876 247.424 194.631 251.987C206.557 259.008 215.533 266.148 224.911 276.239C229.793 281.492 231.508 295.724 230.314 302.122C227.462 317.39 216.788 335.335 218.265 355.898C219.618 374.693 231.367 388.279 249.252 389.206C290.662 391.359 311.024 347.389 313.606 308.976C315.865 275.35 302.715 240.379 278.794 218.313C258.494 199.589 224.796 185.486 197.841 192.046C187.875 194.47 171.21 199.58 166.487 210.694C162.565 219.93 160.031 232.003 169.22 238.763Z" fill="#FE6E27"/>
</g>
<g opacity="0.49">
<path d="M212.061 249.9C222.793 252.61 231.535 256.893 242.965 255.994C256.968 254.896 274.465 252.405 283.697 239.842C290.007 231.257 293.651 222.102 290.799 210.955C287.58 198.368 276.419 188.951 264.167 189.155C251.273 189.369 243.186 196.015 232.547 202.294C227.17 205.469 218.959 211.354 212.061 213.389C195.639 218.237 194.817 245.541 212.061 249.9Z" fill="#FE6E27"/>
</g>
<g opacity="0.49">
<path d="M77.7349 284.42C63.4308 307.379 70.7619 344.637 85.6851 365.462C102.62 389.092 135.496 406.646 162.95 394.449C177.846 387.832 181.41 368.576 167.358 358.185C153.62 348.026 136.579 346.876 122.182 338.225C107.948 329.668 95.802 302.906 92.9013 286.545C91.4555 278.393 81.3873 278.559 77.7349 284.42Z" fill="#B60807"/>
</g>
<path d="M257.915 265.967C265.396 267.564 272.953 266.851 280.341 264.916C291.745 261.936 304.311 250.404 302.622 236.51C301.344 225.985 295.481 217.591 284.807 217.358C273.342 217.106 266.227 225.211 260.351 234.584C258.839 236.995 257.552 239.542 256.022 241.943C257.804 239.143 255.514 242.499 255.16 242.917C254.448 243.754 253.643 244.476 252.812 245.175C246.073 250.86 249.92 264.265 257.915 265.967Z" fill="#FEA489"/>
<path d="M81.2899 203.882C90.6816 202.921 99.4763 203.202 108.709 205.607C117.344 207.856 124.729 212.733 133.762 213.698C146.74 215.086 164.833 216.711 173.982 205.099C177.373 200.792 177.652 195.169 173.982 190.895C162.202 177.181 145.046 186.845 130.972 191.532C121.156 194.803 109.257 193.044 99.043 194.508C92.3884 195.458 86.6269 198.32 80.6532 201.358C79.5345 201.914 80.0518 204.01 81.2899 203.882Z" fill="#4E691C"/>
<path d="M125.984 142.424C115.107 171.753 142.004 186.988 157.564 205.308C169.087 218.87 187.358 195.986 172.319 184.749C165.346 179.539 158.09 174.886 150.397 171.021C141.085 166.339 132.347 156.685 134.125 144.834C134.991 139.025 128.005 136.977 125.984 142.424Z" fill="#4E691C"/>
<path d="M252.082 158.396C216.886 142.443 192.544 177.757 161.274 184.635C145.568 188.091 154.027 215.281 170.237 207.49C183.878 200.935 195.029 191.879 207.189 182.729C221.272 172.133 236.903 173.051 252.078 166.386C255.766 164.78 255.699 160.036 252.082 158.396Z" fill="#4E691C"/>
<path d="M239.684 185.761C226.211 198.734 208.405 203.33 190.948 198.349C181.645 195.696 161.075 185.115 153.112 195.896C144.405 207.68 159.563 224.569 168.729 212.685C168.857 212.519 168.99 212.348 169.118 212.181C166.514 213.341 163.909 214.501 161.305 215.661C180.734 213.85 197.457 222.544 217.089 217.258C230.482 213.65 241.422 203.416 245.229 189.227C246.184 185.647 242.072 183.465 239.684 185.761Z" fill="#4E691C"/>
<path d="M122.226 244.462C131.335 245.028 139.78 241.235 147.797 236.961C152.179 234.623 156.255 231.637 160.151 228.481C164.02 225.349 167.57 220.486 171.705 218.066C180.973 212.643 180.513 197.769 171.705 192.222C162.017 186.118 151.595 194.128 150.759 205.142C149.698 219.088 133.223 234.39 121.297 237.08C117.256 237.993 118.459 244.229 122.226 244.462Z" fill="#4E691C"/>
<path d="M187.004 118.776C166.531 138.208 162.375 168.364 163.874 196.048C164.763 212.414 188.162 206.453 181.618 190.881C173.279 171.016 185.39 140.661 191.837 121.803C192.916 118.657 188.994 116.888 187.004 118.776Z" fill="#415613"/>
<path d="M181.278 134.761C175.494 133.107 169.405 135.669 166.368 141.255C163.679 146.184 164.082 151.608 166.399 156.575C172.165 168.944 191.089 163.116 190.528 149.549C190.484 148.138 190.32 146.735 190.041 145.343C189.604 144.226 189.166 143.108 188.728 141.991C190.205 148.874 190.528 149.568 189.697 144.073C188.313 139.653 185.646 136.007 181.278 134.761Z" fill="#415613"/>
<path d="M132.069 174.605C136.871 186.204 149.282 195.197 160.615 198.04C163.189 198.686 164.334 195.226 162.335 193.657C153.054 186.375 141.438 183.746 134.359 173.165C133.351 171.658 131.374 172.922 132.069 174.605Z" fill="#415613"/>
<path d="M246.268 165.916C228.966 160.321 204.332 171.568 192.465 185.158C190.479 187.435 192.96 190.363 195.387 189.227C202.9 185.714 209.802 180.984 217.191 177.191C226.693 172.314 236.399 170.665 246.268 167.29C246.891 167.076 246.905 166.12 246.268 165.916Z" fill="#415613"/>
<path d="M178.797 211.763C193.477 224.845 217.425 220.229 230.058 206.159C231.844 204.167 229.585 201.115 227.356 202.394C211.16 211.668 197.598 215.765 179.443 210.57C178.837 210.399 178.267 211.288 178.797 211.763Z" fill="#415613"/>
<path d="M142.429 228.448C148.376 221.137 158.701 214.273 158.617 203.492C158.599 201.372 156.048 200.74 155.022 202.446C152.537 206.572 150.755 211.04 148.106 215.081C145.555 218.974 143.101 223.076 141.009 227.274C140.541 228.21 141.73 229.308 142.429 228.448Z" fill="#415613"/>
<path d="M116.473 196.338C122.748 198.962 128.032 199.428 134.708 198.624C137.56 198.282 140.359 197.564 143.167 196.965C148.234 195.891 153.01 196.599 158.046 196.086C160.332 195.853 161.937 192.174 159.355 190.895C145.789 184.164 130.495 197.365 116.509 196.081C116.363 196.067 116.358 196.286 116.473 196.338Z" fill="#415613"/>
<path d="M99.3482 201.229C104.968 201.748 110.46 203.193 116.053 203.82C117.459 203.977 117.614 201.7 116.376 201.277C110.902 199.404 105.021 199.28 99.3482 199.936C98.5788 200.022 98.5655 201.158 99.3482 201.229Z" fill="#67822B"/>
<path d="M109.735 198.51C112.335 198.762 115.151 199.428 117.729 198.919C118.883 198.691 118.883 196.647 117.729 196.419C115.147 195.91 112.335 196.571 109.735 196.828C108.727 196.923 108.727 198.411 109.735 198.51Z" fill="#67822B"/>
<path d="M122.465 203.677C127.024 205.921 132.763 207.651 137.68 206.026C139.121 205.55 139.112 203.383 137.68 202.903C132.98 201.329 127.727 202.926 122.832 202.232C122.12 202.128 121.828 203.368 122.465 203.677Z" fill="#67822B"/>
<path d="M130.318 155.734C128.491 165.488 139.882 177.167 147.956 179.168C149.994 179.672 152.108 176.692 150.184 175.052C147.209 172.518 144.047 170.336 140.996 167.912C137.463 165.108 132.06 161.024 131.618 155.924C131.551 155.173 130.472 154.892 130.318 155.734Z" fill="#67822B"/>
<path d="M183.192 187.673C185.991 182.467 192.412 180.561 196.793 177.338C198.399 176.16 197.337 173.873 195.538 174.139C189.887 174.981 183.245 181.213 182.516 187.478C182.472 187.877 183.024 187.981 183.192 187.673Z" fill="#67822B"/>
<path d="M174.924 155.325C180.88 158.353 187.185 149.977 184.36 144.002C183.161 141.469 179.96 141.944 178.66 144.002C177.117 146.446 178.585 151.475 175.269 152.483C174.145 152.825 173.748 154.726 174.924 155.325Z" fill="#4E691C"/>
<path d="M172.589 169.614C166.253 176.663 169.547 190.434 174.287 197.355C175.693 199.404 178.651 198.225 178.143 195.606C177.351 191.537 176.277 187.573 175.481 183.508C174.614 179.083 174.782 174.933 174.543 170.484C174.486 169.452 173.319 168.806 172.589 169.614Z" fill="#4E691C"/>
<path d="M182.816 136.007C182.719 136.302 182.626 136.596 182.529 136.891C182.326 137.514 183.427 137.514 183.228 136.891C183.13 136.596 183.038 136.302 182.94 136.007C182.918 135.94 182.839 135.94 182.816 136.007Z" fill="#4E691C"/>
<path d="M182.153 137.68C184.908 136.458 186.765 132.19 188.507 129.723C189.648 128.107 187.49 126.129 186.031 127.066C183.241 128.853 179.973 133.454 181.34 137.186C181.455 137.509 181.791 137.842 182.153 137.68Z" fill="#4E691C"/>
<path d="M285.373 239.557C292.337 239.557 298.152 233.31 298.152 225.819C298.152 218.327 292.342 212.081 285.373 212.081C278.405 212.081 272.595 218.327 272.595 225.819C272.595 233.31 278.405 239.557 285.373 239.557Z" fill="white"/>
<path d="M284.697 282.576C263.287 272.66 239.794 263.918 217.049 269.413C207.074 271.823 197.779 276.9 189.383 283.17C167.031 299.855 150.516 325.733 145.259 354.434C139.997 383.136 146.382 414.323 163.299 437.235C171.227 447.968 181.211 456.772 191.788 464.425C229.474 491.705 275.769 504.958 321.083 501.445C330.762 500.694 340.476 499.182 349.589 495.593C367.387 488.591 381.788 474.15 394.019 458.587C400.903 449.822 407.297 440.558 412.395 430.48C416.22 422.922 419.298 414.936 421.606 406.699C431.519 371.304 424.962 328.837 398.852 304.779C379.511 286.958 351.84 281.473 326.937 287.239C321.547 288.489 316.192 290.229 310.679 290.357C301.614 290.566 293.023 286.431 284.697 282.576Z" fill="#E74B1B"/>
<path d="M269.765 352.48C249.16 357.191 232.976 386.872 233.883 408.12C234.692 427.129 245.361 443.918 262.911 449.109C282.565 454.923 307.305 442.15 311.55 419.424C313.287 410.116 313.694 403.756 311.979 394.387C311.585 392.248 311.258 390.118 310.975 387.955C311.426 391.559 311.877 395.162 312.323 398.765C311.103 387.913 309.94 379.204 304.767 369.574C297.36 355.779 284.352 349.143 269.765 352.48Z" fill="#FECDA4"/>
<g opacity="0.55">
<path d="M282.778 355.299C281.84 358.484 281.15 361.74 280.615 365.03C280.072 368.405 279.669 371.818 279.382 375.231C278.9 380.935 280.655 385.698 282.707 390.865C284.896 396.379 291.276 400.666 296.396 402.178C302.308 403.927 308.755 403.029 314.043 399.697C326.23 392.02 329.82 371.689 318.677 361.027C317.041 359.435 315.308 357.971 313.477 356.63C311.669 355.808 309.861 354.99 308.048 354.168C312.239 356.141 313.309 356.602 311.267 355.556C309.962 354.876 308.711 354.082 307.473 353.284C306.257 352.499 305.076 351.649 303.909 350.783C303.285 350.322 302.671 349.837 302.061 349.353C305.213 351.858 303.206 350.303 302.521 349.7C295.645 343.606 285.63 345.607 282.778 355.299Z" fill="#FFE793"/>
</g>
<g opacity="0.55">
<path d="M270.516 343.197C259.732 341.067 246.051 340.791 238.463 351.102C234.36 356.678 231.495 361.783 231.495 369.189C231.495 375.948 234.024 382.503 238.463 387.276C247.731 397.239 262.814 396.982 272.117 387.276C276.074 383.145 277.622 378.681 279.643 373.377C278.869 375.345 278.1 377.308 277.326 379.276C279.218 374.822 280.907 370.054 282.207 365.329C284.622 356.545 279.377 344.946 270.516 343.197Z" fill="#FFE793"/>
</g>
<g opacity="0.55">
<path d="M263.26 395.68C268.451 382.261 264.074 365.077 258.688 352.518C253.298 339.945 236.659 336.932 226.37 343.406C215.126 350.489 211.593 366.075 217.898 378.149C223.514 388.911 226.989 400.319 237.42 406.979C248.138 413.824 259.002 406.684 263.26 395.68Z" fill="#FECA90"/>
</g>
<g opacity="0.55">
<path d="M286.125 417.774C293.416 426.558 307.398 425.327 316.551 421.539C321.498 419.495 326.42 417.242 331.058 414.48C333.901 412.788 336.28 410.259 339.053 408.424C355.395 397.591 358.968 372.882 345.101 357.975C331.699 343.567 307.561 346.305 298.174 364.478C296.419 367.872 295.119 371.542 293.766 375.126C291.493 381.144 296.6 368.804 293.92 374.555C293.094 376.328 291.984 377.978 290.949 379.613C287.474 385.103 294.296 375.24 290.242 380.583C282.349 390.974 276.579 406.275 286.125 417.774Z" fill="#FECA90"/>
</g>
<path d="M293.761 333.723C311.337 341.856 338.907 354.353 350.434 371.604C359.048 384.495 352.092 401.574 345.632 413.197C334.79 432.705 313.398 429.972 295.711 425.945C257.539 417.247 252.387 482.06 288.853 480.42C343.09 477.982 402.752 444.099 398.498 377.712C396.614 348.288 375.39 331.094 353.14 318.645C335.334 308.687 309.259 293.494 290.825 309.167C283.954 315.004 285.67 329.977 293.761 333.723Z" fill="#D51F12"/>
<path d="M292.39 309.723C284.175 278.492 247.904 280.584 225.243 288.727C199.124 298.105 180.703 310.545 168.158 337.412C142.57 392.214 173.111 450.202 225.128 468.327C254.457 478.547 269.999 433.232 245.432 416.557C234.334 409.023 219.636 405.082 211.266 393.393C203.784 382.945 208.17 358.617 217.779 350.973C234.727 337.483 303.79 353.051 292.39 309.723Z" fill="#D51F12"/>
<mask id="mask4_2090_114399" style="mask-type:luminance" maskUnits="userSpaceOnUse" x="143" y="267" width="283" height="235">
<path d="M284.697 282.576C263.287 272.66 239.794 263.918 217.049 269.413C207.074 271.823 197.779 276.9 189.383 283.17C167.031 299.855 150.516 325.733 145.259 354.434C139.997 383.136 146.382 414.323 163.299 437.235C171.227 447.968 181.211 456.772 191.788 464.425C229.474 491.705 275.769 504.958 321.083 501.445C330.762 500.694 340.476 499.182 349.589 495.593C367.387 488.591 381.788 474.15 394.019 458.587C400.903 449.822 407.297 440.558 412.395 430.48C416.22 422.922 419.298 414.936 421.606 406.699C431.519 371.304 424.962 328.837 398.852 304.779C379.511 286.958 351.84 281.473 326.937 287.239C321.547 288.489 316.192 290.229 310.679 290.357C301.614 290.566 293.023 286.431 284.697 282.576Z" fill="white"/>
</mask>
<g mask="url(#mask4_2090_114399)">
<path opacity="0.4" d="M292.713 307.446C287.606 295.129 284.025 282.704 270.901 276.943C256.327 270.54 243.606 270.706 228.616 275.36C195.98 285.494 165.536 308.392 148.725 340.454C130.189 375.805 138.091 413.577 163.237 442.292C181.963 463.678 224.288 502.31 253.073 486.452C261.315 481.913 262.677 471.636 257.57 463.906C251.888 455.303 246.206 458.15 238.119 452.527C228.364 445.748 217.173 436.217 207.786 428.864C189.237 414.347 172.063 380.316 181.348 354.895C189.316 333.086 202.192 325.271 221.02 316.558C229.691 312.546 246.533 310.436 255.965 309.946C263.008 309.58 282.411 313.654 288.955 317.252C293.611 319.819 294.508 311.776 292.713 307.446Z" fill="#FF8D4F"/>
</g>
<mask id="mask5_2090_114399" style="mask-type:luminance" maskUnits="userSpaceOnUse" x="143" y="267" width="283" height="235">
<path d="M284.697 282.576C263.287 272.66 239.794 263.918 217.049 269.413C207.074 271.823 197.779 276.9 189.383 283.17C167.031 299.855 150.516 325.733 145.259 354.434C139.997 383.136 146.382 414.323 163.299 437.235C171.227 447.968 181.211 456.772 191.788 464.425C229.474 491.705 275.769 504.958 321.083 501.445C330.762 500.694 340.476 499.182 349.589 495.593C367.387 488.591 381.788 474.15 394.019 458.587C400.903 449.822 407.297 440.558 412.395 430.48C416.22 422.922 419.298 414.936 421.606 406.699C431.519 371.304 424.962 328.837 398.852 304.779C379.511 286.958 351.84 281.473 326.937 287.239C321.547 288.489 316.192 290.229 310.679 290.357C301.614 290.566 293.023 286.431 284.697 282.576Z" fill="white"/>
</mask>
<g mask="url(#mask5_2090_114399)">
<g opacity="0.4">
<path d="M288.955 317.262C304.258 318.179 325.588 323.841 345.729 332.606C362.784 340.031 379.966 363.76 383.323 382.741C387.386 405.724 376.394 425.57 360.909 440.016C351.756 448.558 341.458 453.164 329.537 454.884C325.726 455.436 309.905 459.001 306.023 459.096C295.923 459.343 283.26 457.104 276.264 464.04C262.734 477.449 274.995 509.635 295.817 508.941C358.313 506.85 429.467 466.82 429.795 390.746C429.945 355.589 413.209 324.126 386.63 304.299C360.462 284.777 311.041 277.722 288.535 307.26C286.518 309.903 286.673 314.833 288.955 317.262Z" fill="#FF8D4F"/>
</g>
</g>
<mask id="mask6_2090_114399" style="mask-type:luminance" maskUnits="userSpaceOnUse" x="143" y="267" width="283" height="235">
<path d="M284.697 282.576C263.287 272.66 239.794 263.918 217.049 269.413C207.074 271.823 197.779 276.9 189.383 283.17C167.031 299.855 150.516 325.733 145.259 354.434C139.997 383.136 146.382 414.323 163.299 437.235C171.227 447.968 181.211 456.772 191.788 464.425C229.474 491.705 275.769 504.958 321.083 501.445C330.762 500.694 340.476 499.182 349.589 495.593C367.387 488.591 381.788 474.15 394.019 458.587C400.903 449.822 407.297 440.558 412.395 430.48C416.22 422.922 419.298 414.936 421.606 406.699C431.519 371.304 424.962 328.837 398.852 304.779C379.511 286.958 351.84 281.473 326.937 287.239C321.547 288.489 316.192 290.229 310.679 290.357C301.614 290.566 293.023 286.431 284.697 282.576Z" fill="white"/>
</mask>
<g mask="url(#mask6_2090_114399)">
<path d="M277.091 279.495C291.634 295.072 312.284 298.043 331.713 295.795C376.133 290.647 397.423 304.323 411.683 340.953C439.792 413.158 378.614 490.564 311.041 494.181C278.175 495.94 244.336 487.94 216.165 469.711C190.285 452.964 163.786 435.1 151.577 404.526C137.375 368.951 155.844 321.716 179.169 301.133C191.965 289.844 209.17 280.332 225.437 277.028C254.713 271.082 276.981 285.295 293.222 290.666C300.27 293 292.908 281.739 286.364 277.066C226.75 234.513 142.018 306.324 129.942 370.282C123.132 406.342 148.389 437.092 172.116 458.221C204.43 486.989 239.198 504.553 280.815 510.277C316.71 515.211 351.084 508.879 381.187 486.975C411.246 465.104 430.798 427.942 432.054 389.063C433.283 351.064 416.578 311.705 387.086 290.424C373.396 280.546 355.408 276.605 339.168 278.554C320.884 280.745 297.405 286.507 280.991 274.903C278.321 273.002 274.66 276.89 277.091 279.495Z" fill="#E5411C"/>
</g>
<mask id="mask7_2090_114399" style="mask-type:luminance" maskUnits="userSpaceOnUse" x="143" y="267" width="283" height="235">
<path d="M284.697 282.576C263.287 272.66 239.794 263.918 217.049 269.413C207.074 271.823 197.779 276.9 189.383 283.17C167.031 299.855 150.516 325.733 145.259 354.434C139.997 383.136 146.382 414.323 163.299 437.235C171.227 447.968 181.211 456.772 191.788 464.425C229.474 491.705 275.769 504.958 321.083 501.445C330.762 500.694 340.476 499.182 349.589 495.593C367.387 488.591 381.788 474.15 394.019 458.587C400.903 449.822 407.297 440.558 412.395 430.48C416.22 422.922 419.298 414.936 421.606 406.699C431.519 371.304 424.962 328.837 398.852 304.779C379.511 286.958 351.84 281.473 326.937 287.239C321.547 288.489 316.192 290.229 310.679 290.357C301.614 290.566 293.023 286.431 284.697 282.576Z" fill="white"/>
</mask>
<g mask="url(#mask7_2090_114399)">
<path d="M275.035 506.108C289.72 489.723 303.67 475.291 308.892 452.123C314.344 427.942 302.043 402.677 279.214 395.927C252.878 388.141 224.982 410.197 225.42 439.978C225.588 451.267 227.794 458.973 231.995 469.074C229.841 463.403 229.647 463.042 231.407 467.999C232.932 472.173 234.581 476.285 236.354 480.339C233.206 473.005 240.882 492.366 240.559 491.562C242.085 495.36 244.083 498.712 246.255 502.12C252.763 512.335 266.373 515.777 275.035 506.108Z" fill="#F46F40"/>
</g>
<g opacity="0.55">
<path d="M288.132 291.317C281.849 299.726 281.062 311.8 276.831 321.592C271.109 334.831 262.177 345.022 255.5 357.4C246.206 374.631 269.066 397.795 285.201 391.174C315.985 378.539 302.118 323.013 305.284 296.285C296.759 296.285 288.23 296.285 279.705 296.285C280.16 312.836 276.702 328.485 273.713 344.608C273.147 347.646 272.864 350.769 272.391 353.825C272.055 355.903 271.631 357.956 271.122 359.991C269.274 364.749 271.914 364.302 279.037 358.645C263.344 352.837 256.632 379.532 272.21 385.26C287.482 390.874 294.725 374.251 297.113 361.151C300.986 339.874 305.868 318.06 305.284 296.28C304.798 278.05 281.748 279.182 279.705 296.28C276.972 319.144 282.853 343.163 276.251 365.552C274.646 367.962 276.273 367.554 281.142 364.321C280.103 363.736 279.064 363.152 278.029 362.562C277.865 368.804 278.86 369.317 281.014 364.102C285.683 356.578 289.3 349.742 292.576 341.333C298.705 325.604 303.109 307.432 294.004 292.13C292.819 290.143 289.711 289.202 288.132 291.317Z" fill="#FFF29A"/>
</g>
<path d="M287.35 298.015C285.015 302.65 283.348 307.588 281.659 312.527C279.992 317.404 277.684 322.334 277.317 327.558C277.105 330.581 280.571 331.403 282.358 329.801C289.543 323.365 290.905 308.511 291.166 299.122C291.232 296.95 288.318 296.095 287.35 298.015Z" fill="#FFE76D"/>
<path d="M292.271 323.641C288.482 333.419 292.289 345.051 286.258 353.997C281.022 361.759 291.723 368.338 297.586 363.394C307.194 355.29 299.386 333.528 296.573 323.646C295.875 321.188 293.085 321.54 292.271 323.641Z" fill="#FFE76D"/>
<path d="M265.71 359.102C263.641 363.513 261.138 367.805 259.329 372.34C257.799 376.176 258.821 380.773 262.986 382.004C267.01 383.192 270.481 379.889 270.728 375.663C271.003 371.005 271.18 366.522 271.878 361.902C272.449 358.123 267.563 355.152 265.71 359.102Z" fill="#FFE76D"/>
<path d="M322.604 385.355C327.198 388.669 344.536 393.189 344.536 382.912C344.536 377.384 338.756 375.944 334.697 376.842C330.519 377.764 326.438 379.456 322.604 381.439C321.079 382.228 321.397 384.486 322.604 385.355Z" fill="#FEC085"/>
<path d="M313.791 403.214C317.594 405.534 321.445 407.611 325.907 406.77C328.308 406.318 329.984 403.48 329.984 401.018C329.984 398.099 328.233 396.312 325.907 395.266C322.688 393.812 317.935 394.225 314.729 395.518C311.7 396.735 310.626 401.284 313.791 403.214Z" fill="#FEC085"/>
<path d="M329.975 370.591C331.209 370.016 332.486 369.583 333.667 368.87C339.216 365.505 333.623 355.927 328.799 359.915C327.362 361.103 326.278 362.358 325.155 363.874C322.272 367.768 325.757 372.559 329.975 370.591Z" fill="#FEC085"/>
<path d="M228.979 362.196C230.173 366.227 233.684 368.666 237.464 369.027C242.589 369.517 244.539 362.258 241.426 358.741C239.374 356.421 235.881 355.318 232.932 356.193C230.633 356.872 228.148 359.392 228.979 362.196Z" fill="#FEC085"/>
<path d="M233.927 392.947C236.226 393.089 239.6 393.322 241.603 391.963C243.801 390.475 245.684 388.103 244.915 385.099C244.168 382.166 241.439 380.502 238.711 380.502C236.231 380.502 233.648 382.09 231.46 383.169C226.706 385.507 229.518 392.671 233.927 392.947Z" fill="#FEC085"/>
<g opacity="0.41">
<path d="M284.648 285.109C263.778 275.441 240.878 266.918 218.707 272.275C208.984 274.623 199.924 279.571 191.739 285.684C169.949 301.946 153.854 327.177 148.725 355.152C143.596 383.131 149.822 413.534 166.31 435.866C174.035 446.328 183.772 454.908 194.079 462.371C230.814 488.962 275.942 501.887 320.115 498.459C329.55 497.727 339.017 496.254 347.905 492.755C365.251 485.929 379.29 471.849 391.215 456.681C397.927 448.139 404.158 439.103 409.128 429.282C412.855 421.914 415.857 414.128 418.108 406.099C427.774 371.594 421.38 330.201 395.929 306.747C377.075 289.373 350.102 284.03 325.827 289.649C320.57 290.866 315.352 292.563 309.976 292.686C301.141 292.895 292.762 288.864 284.648 285.109Z" fill="#FD6F3D"/>
</g>
<path d="M265.485 327.42C246.299 297.216 210.483 313.977 194.401 337.958C176.661 364.411 190.457 416.928 220.87 425.147C228.196 427.124 233.197 420.327 232.141 413.03C229.558 395.185 212.513 382.636 216.315 363.513C220.343 343.258 240.086 348.554 253.329 350.189C263.769 351.482 271.131 336.309 265.485 327.42Z" fill="#DB270C"/>
<path d="M318.16 358.018C326.035 360.428 334.052 360.552 341.529 364.526C351.893 370.035 349.138 384.509 347.838 394.411C346.096 407.706 343.881 414.993 331.668 420.512C321.932 424.909 311.377 426.435 301.831 431.435C296.834 434.055 298.351 442.326 303.33 443.752C336.784 453.339 377.871 431.126 382.779 392.495C387.974 351.644 357.615 316.13 318.16 326.274C303.113 330.144 303.949 353.669 318.16 358.018Z" fill="#DB270C"/>
<path d="M282.84 284.472C288.548 292.439 300.92 299.812 309.852 293.551C313.057 291.303 312.832 286.892 309.852 284.601C305.939 281.587 302.193 280.798 297.471 280.28C292.541 279.738 289.065 278.811 284.281 280.665C282.977 281.169 281.814 283.042 282.84 284.472Z" fill="#335606"/>
<path d="M326.022 330.172C328.264 328.684 331.368 329.64 332.601 332.145C334.569 336.138 332.575 341.02 330.253 344.784C328.228 348.079 325.933 351.183 323.409 354.044C320.676 347.57 320.543 342.446 322.502 335.658C322.821 334.545 323.369 331.931 326.022 330.172Z" fill="#EC801E"/>
<mask id="mask8_2090_114399" style="mask-type:luminance" maskUnits="userSpaceOnUse" x="321" y="329" width="13" height="26">
<path d="M326.022 330.172C328.264 328.684 331.368 329.64 332.601 332.145C334.569 336.138 332.575 341.02 330.253 344.784C328.228 348.079 325.933 351.183 323.409 354.044C320.676 347.57 320.543 342.446 322.502 335.658C322.821 334.545 323.369 331.931 326.022 330.172Z" fill="white"/>
</mask>
<g mask="url(#mask8_2090_114399)">
<g opacity="0.32">
<path d="M323.506 351.648C325.646 348.891 327.401 346.063 328.476 342.645C329.559 339.204 331.054 335.729 330.899 332.031C330.598 324.739 321.304 324.496 320.446 331.669C319.699 337.911 320.34 344.166 319.739 350.393C319.504 352.808 322.352 353.131 323.506 351.648Z" fill="#FFC188"/>
</g>
</g>
<g opacity="0.36">
<path d="M325.602 343.049C326.853 340.145 328.458 337.412 328.79 334.217C328.971 332.482 327.057 331.869 325.889 332.425C322.091 334.246 323.006 338.709 323.245 342.36C323.325 343.582 325.027 344.38 325.602 343.049Z" fill="white"/>
</g>
<path d="M259.148 319.933C261.018 317.932 264.237 318.108 265.971 320.242C268.73 323.65 267.824 328.889 266.364 333.124C265.091 336.827 263.512 340.411 261.66 343.82C257.627 338.187 256.411 333.229 256.884 326.137C256.959 324.977 256.942 322.296 259.148 319.933Z" fill="#EC801E"/>
<mask id="mask9_2090_114399" style="mask-type:luminance" maskUnits="userSpaceOnUse" x="256" y="318" width="12" height="26">
<path d="M259.148 319.933C261.018 317.932 264.237 318.108 265.971 320.242C268.73 323.65 267.824 328.889 266.364 333.124C265.091 336.827 263.512 340.411 261.66 343.82C257.627 338.187 256.411 333.229 256.884 326.137C256.959 324.977 256.942 322.296 259.148 319.933Z" fill="white"/>
</mask>
<g mask="url(#mask9_2090_114399)">
<g opacity="0.32">
<path d="M261.244 341.457C262.747 338.248 263.853 335.068 264.176 331.475C264.503 327.857 265.219 324.107 264.286 320.546C262.451 313.521 253.351 315.56 254.032 322.752C254.625 329.012 256.575 334.949 257.304 341.158C257.596 343.568 260.439 343.187 261.244 341.457Z" fill="#FFC188"/>
</g>
</g>
<g opacity="0.36">
<path d="M261.478 332.535C262.031 329.654 263.097 326.612 262.752 323.665C262.597 322.329 261.156 320.794 259.851 321.873C256.283 324.829 257.897 328.594 259.038 332.53C259.391 333.747 261.213 333.918 261.478 332.535Z" fill="white"/>
</g>
<path d="M239.578 320.385C240.944 318.398 243.739 318.094 245.49 319.691C248.284 322.234 248.138 326.873 247.4 330.728C246.754 334.094 245.834 337.402 244.654 340.601C240.493 336.318 238.844 332.221 238.384 326.051C238.309 325.034 237.964 322.728 239.578 320.385Z" fill="#EC801E"/>
<mask id="mask10_2090_114399" style="mask-type:luminance" maskUnits="userSpaceOnUse" x="238" y="318" width="10" height="23">
<path d="M239.578 320.385C240.944 318.398 243.739 318.094 245.49 319.691C248.284 322.234 248.138 326.873 247.4 330.728C246.754 334.094 245.834 337.402 244.654 340.601C240.493 336.318 238.844 332.221 238.384 326.051C238.309 325.034 237.964 322.728 239.578 320.385Z" fill="white"/>
</mask>
<g mask="url(#mask10_2090_114399)">
<g opacity="0.32">
<path d="M244.008 338.624C244.91 335.648 245.476 332.753 245.317 329.616C245.158 326.455 245.317 323.123 244.079 320.19C241.643 314.4 234.055 317.438 235.519 323.536C236.792 328.841 239.193 333.68 240.581 338.923C241.121 340.953 243.522 340.221 244.008 338.624Z" fill="#FFC188"/>
</g>
</g>
<g opacity="0.36">
<path d="M243.292 330.762C243.504 328.181 244.238 325.286 243.336 322.804C242.797 321.326 241.271 320.789 240.113 321.892C237.097 324.763 239.427 328.432 240.935 331.451C241.576 332.739 243.186 332.021 243.292 330.762Z" fill="white"/>
</g>
<g opacity="0.48">
<path d="M209.285 330.391C209.528 328.508 211.314 327.196 213.043 327.586C215.802 328.204 217.292 331.394 218.106 334.293C218.822 336.827 219.331 339.422 219.627 342.051C215.351 340.801 212.835 338.686 210.412 334.693C210.019 334.037 208.997 332.615 209.285 330.391Z" fill="#EC801E"/>
<mask id="mask11_2090_114399" style="mask-type:luminance" maskUnits="userSpaceOnUse" x="209" y="327" width="11" height="16">
<path d="M209.285 330.391C209.528 328.508 211.314 327.196 213.043 327.586C215.802 328.204 217.292 331.394 218.106 334.293C218.822 336.827 219.331 339.422 219.627 342.051C215.351 340.801 212.835 338.686 210.412 334.693C210.019 334.037 208.997 332.615 209.285 330.391Z" fill="white"/>
</mask>
<g mask="url(#mask11_2090_114399)">
<g opacity="0.32">
<path d="M218.517 340.967C218.11 338.6 217.5 336.418 216.32 334.365C215.13 332.292 214.1 329.977 212.26 328.48C208.635 325.528 204.545 330.581 207.618 334.122C210.293 337.203 213.569 339.522 216.302 342.517C217.368 343.682 218.738 342.241 218.517 340.967Z" fill="#FFC188"/>
</g>
</g>
<g opacity="0.36">
<path d="M215.709 336.076C215.028 333.856 214.697 330.99 212.557 329.858C211.584 329.345 210.514 329.597 209.917 330.605C207.834 334.108 211.411 336.228 213.848 337.611C214.781 338.144 216.081 337.274 215.709 336.076Z" fill="white"/>
</g>
</g>
<g opacity="0.48">
<path d="M362.081 344.376C363.845 344.437 365.247 346.206 365.074 348.097C364.796 351.111 362.001 353.041 359.406 354.22C357.137 355.251 354.789 356.069 352.393 356.663C353.1 351.962 354.789 349.043 358.225 346.034C358.787 345.545 359.994 344.304 362.081 344.376Z" fill="#EC801E"/>
<mask id="mask12_2090_114399" style="mask-type:luminance" maskUnits="userSpaceOnUse" x="352" y="344" width="14" height="13">
<path d="M362.081 344.376C363.845 344.437 365.247 346.206 365.074 348.097C364.796 351.111 362.001 353.041 359.406 354.22C357.137 355.251 354.789 356.069 352.393 356.663C353.1 351.962 354.789 349.043 358.225 346.034C358.787 345.545 359.994 344.304 362.081 344.376Z" fill="white"/>
</mask>
<g mask="url(#mask12_2090_114399)">
<g opacity="0.32">
<path d="M353.273 355.365C355.417 354.681 357.372 353.797 359.149 352.318C360.94 350.826 362.974 349.481 364.163 347.356C366.511 343.168 361.404 339.327 358.451 342.992C355.882 346.182 354.082 349.927 351.601 353.16C350.637 354.42 352.119 355.731 353.273 355.365Z" fill="#FFC188"/>
</g>
</g>
<g opacity="0.36">
<path d="M357.672 351.758C359.826 350.707 362.134 350.099 363.014 347.522C363.292 346.7 362.85 345.564 362.125 345.179C358.455 343.22 356.929 347.232 355.811 350.218C355.351 351.458 356.797 352.186 357.672 351.758Z" fill="white"/>
</g>
</g>
<g opacity="0.26">
<path d="M375.257 389.429C376.128 391.083 375.452 393.289 373.856 394.111C371.318 395.423 368.329 393.859 366.043 392.091C364.044 390.546 362.174 388.816 360.454 386.919C364.557 385.122 367.754 385.16 371.928 386.748C372.618 387.01 374.232 387.471 375.257 389.429Z" fill="#EC801E"/>
<mask id="mask13_2090_114399" style="mask-type:luminance" maskUnits="userSpaceOnUse" x="360" y="385" width="16" height="10">
<path d="M375.257 389.429C376.128 391.083 375.452 393.289 373.856 394.111C371.318 395.423 368.329 393.859 366.043 392.091C364.044 390.546 362.174 388.816 360.454 386.919C364.557 385.122 367.754 385.16 371.928 386.748C372.618 387.01 374.232 387.471 375.257 389.429Z" fill="white"/>
</mask>
<g mask="url(#mask13_2090_114399)">
<g opacity="0.32">
<path d="M361.948 387.052C363.606 388.668 365.322 389.999 367.427 390.864C369.54 391.734 371.667 392.899 373.975 392.889C378.525 392.866 378.919 386.182 374.475 385.374C370.606 384.675 366.693 384.97 362.832 384.376C361.329 384.143 361.055 386.187 361.948 387.052Z" fill="#FFC188"/>
</g>
</g>
<g opacity="0.36">
<path d="M367.068 389.196C369.014 390.622 370.73 392.462 373.232 391.929C374.011 391.763 374.718 390.788 374.647 389.928C374.289 385.531 370.371 386.173 367.369 386.71C366.193 386.919 366.259 388.607 367.068 389.196Z" fill="white"/>
</g>
</g>
<g opacity="0.26">
<path d="M200.282 394.092C198.624 393.436 197.81 391.283 198.527 389.548C199.672 386.781 202.891 385.892 205.694 385.65C208.148 385.436 210.616 385.45 213.07 385.698C211.027 389.923 208.568 392.12 204.43 393.817C203.753 394.097 202.241 394.867 200.282 394.092Z" fill="#EC801E"/>
<mask id="mask14_2090_114399" style="mask-type:luminance" maskUnits="userSpaceOnUse" x="198" y="385" width="16" height="10">
<path d="M200.282 394.092C198.624 393.436 197.81 391.283 198.527 389.548C199.672 386.781 202.891 385.892 205.694 385.65C208.148 385.436 210.616 385.45 213.07 385.698C211.027 389.923 208.568 392.12 204.43 393.817C203.753 394.097 202.241 394.867 200.282 394.092Z" fill="white"/>
</mask>
<g mask="url(#mask14_2090_114399)">
<g opacity="0.32">
<path d="M211.854 386.639C209.616 386.563 207.503 386.743 205.385 387.547C203.249 388.355 200.928 388.949 199.177 390.565C195.723 393.75 199.451 399.117 203.324 396.64C206.694 394.482 209.497 391.53 212.8 389.296C214.078 388.426 213.061 386.677 211.854 386.639Z" fill="#FFC188"/>
</g>
</g>
<g opacity="0.36">
<path d="M206.884 388.55C204.757 388.797 202.011 388.516 200.552 390.48C199.897 391.359 199.747 392.547 200.552 393.412C203.311 396.364 205.955 393.194 207.777 390.874C208.409 390.071 208.095 388.407 206.884 388.55Z" fill="white"/>
</g>
</g>
<g opacity="0.26">
<path d="M355.448 428.469C354.913 430.28 352.946 431.25 351.301 430.551C348.679 429.444 347.71 426.026 347.361 423.022C347.056 420.398 346.959 417.746 347.082 415.103C351.102 417.113 353.251 419.656 355.006 424.025C355.298 424.743 356.081 426.33 355.448 428.469Z" fill="#EC801E"/>
<mask id="mask15_2090_114399" style="mask-type:luminance" maskUnits="userSpaceOnUse" x="347" y="415" width="9" height="16">
<path d="M355.448 428.469C354.913 430.28 352.946 431.25 351.301 430.551C348.679 429.444 347.71 426.026 347.361 423.022C347.056 420.398 346.959 417.746 347.082 415.103C351.102 417.113 353.251 419.656 355.006 424.025C355.298 424.743 356.081 426.33 355.448 428.469Z" fill="white"/>
</mask>
<g mask="url(#mask15_2090_114399)">
<g opacity="0.32">
<path d="M348.011 416.372C348.042 418.777 348.298 421.04 349.138 423.279C349.987 425.536 350.637 428.004 352.216 429.815C355.329 433.38 360.153 429.144 357.677 425.094C355.523 421.572 352.658 418.692 350.438 415.24C349.572 413.905 347.993 415.079 348.011 416.372Z" fill="#FFC188"/>
</g>
</g>
<g opacity="0.36">
<path d="M350.049 421.924C350.412 424.462 350.328 426.972 352.406 428.598C353.074 429.121 354.206 428.907 354.745 428.275C357.381 425.156 354.462 422.513 352.167 420.602C351.133 419.747 349.846 420.526 350.049 421.924Z" fill="white"/>
</g>
</g>
<g opacity="0.58">
<path d="M218.172 325.557C218.818 323.189 221.347 321.868 223.505 322.719C226.941 324.073 228.289 328.485 228.829 332.378C229.297 335.781 229.492 339.223 229.408 342.664C224.133 340.178 221.272 336.941 218.867 331.318C218.464 330.396 217.407 328.356 218.172 325.557Z" fill="#EC801E"/>
<mask id="mask16_2090_114399" style="mask-type:luminance" maskUnits="userSpaceOnUse" x="217" y="322" width="13" height="21">
<path d="M218.172 325.557C218.818 323.189 221.347 321.868 223.505 322.719C226.941 324.073 228.289 328.485 228.829 332.378C229.297 335.781 229.492 339.223 229.408 342.664C224.133 340.178 221.272 336.941 218.867 331.318C218.464 330.396 217.407 328.356 218.172 325.557Z" fill="white"/>
</mask>
<g mask="url(#mask16_2090_114399)">
<g opacity="0.32">
<path d="M228.165 341.048C228.064 337.925 227.666 334.992 226.512 332.107C225.349 329.198 224.433 326.013 222.333 323.712C218.19 319.178 212.039 324.834 215.365 330.015C218.261 334.526 222.063 338.182 225.039 342.588C226.202 344.304 228.223 342.731 228.165 341.048Z" fill="#FFC188"/>
</g>
</g>
<g opacity="0.36">
<path d="M225.013 334.042C224.332 331.289 224.058 328.385 222.271 326.189C221.458 325.186 219.817 325.49 219.242 326.607C217.235 330.519 220.419 332.986 222.899 335.368C223.823 336.252 225.349 335.406 225.013 334.042Z" fill="white"/>
</g>
</g>
<path d="M198.969 343.919C198.071 341.647 199.243 338.904 201.41 338.087C204.867 336.789 208.511 339.275 211.226 341.913C213.6 344.219 215.785 346.748 217.748 349.462C212.207 351.145 208.082 350.598 202.9 347.898C202.055 347.451 200.03 346.605 198.969 343.919Z" fill="#EC801E"/>
<mask id="mask17_2090_114399" style="mask-type:luminance" maskUnits="userSpaceOnUse" x="198" y="337" width="20" height="14">
<path d="M198.969 343.919C198.071 341.647 199.243 338.904 201.41 338.087C204.867 336.789 208.511 339.275 211.226 341.913C213.6 344.219 215.785 346.748 217.748 349.462C212.207 351.145 208.082 350.598 202.9 347.898C202.055 347.451 200.03 346.605 198.969 343.919Z" fill="white"/>
</mask>
<g mask="url(#mask17_2090_114399)">
<g opacity="0.32">
<path d="M215.842 349.058C213.914 346.714 211.88 344.723 209.28 343.282C206.667 341.833 204.076 339.993 201.096 339.651C195.219 338.976 193.809 347.546 199.438 349.276C204.341 350.783 209.435 351.012 214.343 352.381C216.244 352.913 216.877 350.318 215.842 349.058Z" fill="#FFC188"/>
</g>
</g>
<g opacity="0.36">
<path d="M209.174 345.735C207.189 344.209 205.301 342.113 202.834 341.666C201.33 341.395 200.172 342.574 200.459 344.219C201.206 348.492 205.38 348.136 208.537 348.273C209.895 348.331 210.121 346.467 209.174 345.735Z" fill="white"/>
</g>
<g opacity="0.58">
<path d="M192.995 368.138C191.182 366.627 190.961 363.613 192.487 361.769C194.919 358.826 199.23 359.088 202.794 359.972C205.911 360.747 208.966 361.811 211.911 363.152C207.834 367.525 203.983 369.203 198.235 369.555C197.289 369.612 195.14 369.926 192.995 368.138Z" fill="#EC801E"/>
<mask id="mask18_2090_114399" style="mask-type:luminance" maskUnits="userSpaceOnUse" x="191" y="359" width="21" height="11">
<path d="M192.995 368.138C191.182 366.627 190.961 363.613 192.487 361.769C194.919 358.826 199.23 359.088 202.794 359.972C205.911 360.747 208.966 361.811 211.911 363.152C207.834 367.525 203.983 369.203 198.235 369.555C197.289 369.612 195.14 369.926 192.995 368.138Z" fill="white"/>
</mask>
<g mask="url(#mask18_2090_114399)">
<g opacity="0.32">
<path d="M210.058 363.793C207.313 362.757 204.633 362.082 201.71 362.182C198.77 362.282 195.675 362.035 192.916 363.294C187.472 365.78 190.125 374.004 195.829 372.568C200.795 371.318 205.345 368.851 210.253 367.482C212.159 366.95 211.535 364.354 210.058 363.793Z" fill="#FFC188"/>
</g>
</g>
<g opacity="0.36">
<path d="M202.705 364.383C200.295 364.093 197.638 363.242 195.294 364.164C193.875 364.725 193.464 366.389 194.445 367.63C197.037 370.914 200.539 368.447 203.346 366.917C204.584 366.246 203.837 364.521 202.705 364.383Z" fill="white"/>
</g>
</g>
<path d="M194.034 382.727C192.084 381.42 191.585 378.449 192.924 376.443C195.065 373.248 199.38 373.039 203.01 373.529C206.185 373.957 209.324 374.684 212.38 375.701C208.736 380.493 205.066 382.584 199.376 383.563C198.447 383.725 196.338 384.272 194.034 382.727Z" fill="#B56217"/>
<mask id="mask19_2090_114399" style="mask-type:luminance" maskUnits="userSpaceOnUse" x="192" y="373" width="21" height="11">
<path d="M194.034 382.727C192.084 381.42 191.585 378.449 192.924 376.443C195.065 373.248 199.38 373.039 203.01 373.529C206.185 373.957 209.324 374.684 212.38 375.701C208.736 380.493 205.066 382.584 199.376 383.563C198.447 383.725 196.338 384.272 194.034 382.727Z" fill="white"/>
</mask>
<g mask="url(#mask19_2090_114399)">
<g opacity="0.32">
<path d="M210.602 376.547C207.772 375.815 205.044 375.435 202.144 375.853C199.225 376.276 196.126 376.362 193.499 377.916C188.321 380.982 191.735 388.878 197.271 386.829C202.091 385.046 206.388 382.094 211.142 380.193C212.99 379.456 212.123 376.942 210.602 376.547Z" fill="#C8976B"/>
</g>
</g>
<g opacity="0.36">
<path d="M203.47 377.93C200.83 377.897 198.111 377.398 195.675 378.672C194.556 379.257 194.437 381.049 195.286 381.928C198.244 384.999 201.33 382.389 204.111 380.469C205.155 379.741 204.757 377.945 203.47 377.93Z" fill="white"/>
</g>
<path d="M204.615 407.416C202.369 406.907 200.95 404.298 201.573 401.921C202.568 398.133 206.552 396.345 210.12 395.466C213.238 394.701 216.417 394.225 219.614 394.049C217.717 399.896 214.936 403.214 209.908 406.228C209.077 406.722 207.268 408.02 204.615 407.416Z" fill="#EC931E"/>
<mask id="mask20_2090_114399" style="mask-type:luminance" maskUnits="userSpaceOnUse" x="201" y="394" width="19" height="14">
<path d="M204.615 407.416C202.369 406.907 200.95 404.298 201.573 401.921C202.568 398.133 206.552 396.345 210.12 395.466C213.238 394.701 216.417 394.225 219.614 394.049C217.717 399.896 214.936 403.214 209.908 406.228C209.077 406.722 207.268 408.02 204.615 407.416Z" fill="white"/>
</mask>
<g mask="url(#mask20_2090_114399)">
<g opacity="0.32">
<path d="M218.208 395.504C215.316 395.856 212.632 396.507 210.041 397.966C207.436 399.435 204.549 400.661 202.577 403.091C198.69 407.877 204.412 414.038 208.962 410.073C212.924 406.622 216.019 402.263 219.875 398.732C221.378 397.358 219.76 395.314 218.208 395.504Z" fill="#FFCC88"/>
</g>
</g>
<g opacity="0.36">
<path d="M212.044 399.392C209.612 400.31 206.831 400.818 204.978 402.853C204.182 403.732 204.209 405.548 205.367 406.109C209.351 408.039 211.328 404.398 213.472 401.389C214.149 400.443 213.034 399.022 212.044 399.392Z" fill="white"/>
</g>
<path d="M216.841 421.007C215.024 421.059 213.485 419.333 213.556 417.38C213.671 414.266 216.43 412.099 219.026 410.715C221.294 409.508 223.66 408.51 226.091 407.744C225.636 412.621 224.066 415.725 220.71 419.043C220.158 419.59 218.99 420.945 216.841 421.007Z" fill="#EC801E"/>
<mask id="mask21_2090_114399" style="mask-type:luminance" maskUnits="userSpaceOnUse" x="213" y="407" width="14" height="15">
<path d="M216.841 421.007C215.024 421.059 213.485 419.333 213.556 417.38C213.671 414.266 216.43 412.099 219.026 410.715C221.294 409.508 223.66 408.51 226.091 407.744C225.636 412.621 224.066 415.725 220.71 419.043C220.158 419.59 218.99 420.945 216.841 421.007Z" fill="white"/>
</mask>
<g mask="url(#mask21_2090_114399)">
<g opacity="0.32">
<path d="M225.26 409.142C223.094 409.988 221.139 411.019 219.397 412.659C217.642 414.309 215.634 415.825 214.533 418.088C212.362 422.547 217.827 426.15 220.648 422.195C223.102 418.753 224.738 414.784 227.104 411.295C228.019 409.94 226.428 408.686 225.26 409.142Z" fill="#FFC188"/>
</g>
</g>
<g opacity="0.36">
<path d="M221.033 413.13C218.955 414.333 216.616 415.145 215.785 417.731C215.413 418.886 216.205 419.889 217.133 420.284C220.719 421.815 222.01 417.389 222.895 414.665C223.275 413.477 221.944 412.598 221.033 413.13Z" fill="white"/>
</g>
<path d="M230.425 430.732C228.678 431.264 226.786 430.005 226.405 428.094C225.8 425.047 227.975 422.214 230.173 420.184C232.092 418.411 234.157 416.814 236.332 415.426C237.013 420.274 236.204 423.697 233.719 427.804C233.312 428.479 232.494 430.1 230.425 430.732Z" fill="#EC801E"/>
<mask id="mask22_2090_114399" style="mask-type:luminance" maskUnits="userSpaceOnUse" x="226" y="415" width="11" height="16">
<path d="M230.425 430.732C228.678 431.264 226.786 430.005 226.405 428.094C225.8 425.047 227.975 422.214 230.173 420.184C232.092 418.411 234.157 416.814 236.332 415.426C237.013 420.274 236.204 423.697 233.719 427.804C233.312 428.479 232.494 430.1 230.425 430.732Z" fill="white"/>
</mask>
<g mask="url(#mask22_2090_114399)">
<g opacity="0.32">
<path d="M235.855 416.999C233.953 418.392 232.295 419.913 230.982 421.967C229.664 424.03 228.064 426.036 227.515 428.517C226.441 433.413 232.56 435.452 234.382 430.87C235.97 426.882 236.642 422.604 238.127 418.596C238.711 417.037 236.876 416.248 235.855 416.999Z" fill="#FFC188"/>
</g>
</g>
<g opacity="0.36">
<path d="M232.667 421.99C230.907 423.735 228.864 425.123 228.647 427.88C228.55 429.106 229.607 429.824 230.575 429.952C234.387 430.47 234.599 425.803 234.829 422.95C234.926 421.696 233.409 421.253 232.667 421.99Z" fill="white"/>
</g>
<path d="M348.435 336.58C351.009 335.957 353.649 337.944 354.06 340.744C354.71 345.208 351.349 349.124 348.015 351.877C345.101 354.282 341.993 356.412 338.739 358.242C338.115 351.164 339.539 346.272 343.448 340.54C344.089 339.598 345.398 337.317 348.435 336.58Z" fill="#B56217"/>
<mask id="mask23_2090_114399" style="mask-type:luminance" maskUnits="userSpaceOnUse" x="338" y="336" width="17" height="23">
<path d="M348.435 336.58C351.009 335.957 353.649 337.944 354.06 340.744C354.71 345.208 351.349 349.124 348.015 351.877C345.101 354.282 341.993 356.412 338.739 358.242C338.115 351.164 339.539 346.272 343.448 340.54C344.089 339.598 345.398 337.317 348.435 336.58Z" fill="white"/>
</mask>
<g mask="url(#mask23_2090_114399)">
<g opacity="0.32">
<path d="M339.557 356.008C342.418 354.154 344.929 352.091 346.981 349.234C349.046 346.358 351.513 343.591 352.486 340.045C354.409 333.048 345.694 329.569 342.714 336.048C340.118 341.69 338.827 347.827 336.377 353.502C335.422 355.703 338.018 357.006 339.557 356.008Z" fill="#C8976B"/>
</g>
</g>
<g opacity="0.36">
<path d="M344.213 348.54C346.136 346.396 348.48 344.428 349.674 341.747C350.248 340.459 349.59 338.491 348.007 338.629C343.536 339.019 343.072 343.311 342.095 347.218C341.776 348.516 343.324 349.533 344.213 348.54Z" fill="white"/>
</g>
<path d="M371.349 355.38C373.794 356.445 374.913 359.696 373.763 362.249C371.932 366.318 367.095 367.478 362.894 367.696C359.224 367.891 355.541 367.739 351.898 367.245C355.134 361.046 358.897 357.895 365.145 355.575C366.175 355.199 368.461 354.125 371.349 355.38Z" fill="#EC801E"/>
<mask id="mask24_2090_114399" style="mask-type:luminance" maskUnits="userSpaceOnUse" x="351" y="354" width="24" height="14">
<path d="M371.349 355.38C373.794 356.445 374.913 359.696 373.763 362.249C371.932 366.318 367.095 367.478 362.894 367.696C359.224 367.891 355.541 367.739 351.898 367.245C355.134 361.046 358.897 357.895 365.145 355.575C366.175 355.199 368.461 354.125 371.349 355.38Z" fill="white"/>
</mask>
<g mask="url(#mask24_2090_114399)">
<g opacity="0.32">
<path d="M353.759 365.914C357.093 366.137 360.25 365.985 363.451 364.892C366.67 363.794 370.164 363.028 372.848 360.709C378.136 356.136 372.817 347.936 366.931 351.439C361.811 354.486 357.495 358.746 352.472 361.907C350.522 363.133 351.964 365.79 353.759 365.914Z" fill="#FFC188"/>
</g>
</g>
<g opacity="0.36">
<path d="M361.652 362.601C364.398 362.006 367.356 361.816 369.788 360.295C371.035 359.516 371.044 357.491 369.788 356.716C365.972 354.358 363.186 357.804 360.418 360.324C359.379 361.274 360.52 362.843 361.652 362.601Z" fill="white"/>
</g>
<path d="M375.974 374.313C377.703 375.592 378.056 378.325 376.756 380.098C374.683 382.922 370.738 382.936 367.44 382.332C364.557 381.804 361.718 381.011 358.963 379.955C362.47 375.73 365.897 373.975 371.128 373.324C371.981 373.215 373.931 372.806 375.974 374.313Z" fill="#EC801E"/>
<mask id="mask25_2090_114399" style="mask-type:luminance" maskUnits="userSpaceOnUse" x="358" y="373" width="20" height="10">
<path d="M375.974 374.313C377.703 375.592 378.056 378.325 376.756 380.098C374.683 382.922 370.738 382.936 367.44 382.332C364.557 381.804 361.718 381.011 358.963 379.955C362.47 375.73 365.897 373.975 371.128 373.324C371.981 373.215 373.931 372.806 375.974 374.313Z" fill="white"/>
</mask>
<g mask="url(#mask25_2090_114399)">
<g opacity="0.32">
<path d="M360.617 379.256C363.173 380.046 365.653 380.507 368.315 380.25C370.995 379.989 373.829 380.041 376.288 378.729C381.129 376.148 378.3 368.794 373.166 370.429C368.696 371.855 364.667 374.37 360.255 375.901C358.543 376.499 359.242 378.833 360.617 379.256Z" fill="#FFC188"/>
</g>
</g>
<g opacity="0.36">
<path d="M367.232 378.415C369.677 378.624 372.229 379.352 374.479 378.064C375.646 377.393 375.642 375.782 374.868 374.807C372.37 371.651 369.116 374.18 366.591 375.877C365.477 376.628 365.998 378.311 367.232 378.415Z" fill="white"/>
</g>
<path d="M373.228 399.307C374.66 401.36 374.108 404.441 372.109 405.843C368.921 408.072 364.667 406.537 361.32 404.593C358.393 402.896 355.607 400.923 352.999 398.708C358.203 395.533 362.492 394.991 368.342 396.341C369.301 396.559 371.534 396.878 373.228 399.307Z" fill="#EC931E"/>
<mask id="mask26_2090_114399" style="mask-type:luminance" maskUnits="userSpaceOnUse" x="352" y="395" width="23" height="12">
<path d="M373.228 399.307C374.66 401.36 374.108 404.441 372.109 405.843C368.921 408.072 364.667 406.537 361.32 404.593C358.393 402.896 355.607 400.923 352.999 398.708C358.203 395.533 362.492 394.991 368.342 396.341C369.301 396.559 371.534 396.878 373.228 399.307Z" fill="white"/>
</mask>
<g mask="url(#mask26_2090_114399)">
<g opacity="0.32">
<path d="M355.015 398.608C357.5 400.462 360.011 401.931 362.965 402.696C365.941 403.466 368.974 404.631 372.065 404.184C378.154 403.305 377.605 394.278 371.521 394.026C366.228 393.807 361.033 394.934 355.767 394.858C353.719 394.824 353.679 397.61 355.015 398.608Z" fill="#FFCC88"/>
</g>
</g>
<g opacity="0.36">
<path d="M362.549 400.139C364.928 401.132 367.303 402.663 369.907 402.52C371.433 402.44 372.224 400.838 371.574 399.402C369.775 395.419 365.755 396.864 362.549 397.515C361.192 397.795 361.502 399.706 362.549 400.139Z" fill="white"/>
</g>
<g opacity="0.58">
<path d="M365.738 419.652C365.875 422.214 363.832 424.457 361.444 424.434C357.641 424.4 354.887 420.593 353.091 416.985C351.526 413.833 350.213 410.534 349.178 407.141C355.148 407.587 359.003 409.679 363.186 414.28C363.876 415.031 365.574 416.624 365.738 419.652Z" fill="#EC801E"/>
<mask id="mask27_2090_114399" style="mask-type:luminance" maskUnits="userSpaceOnUse" x="349" y="407" width="17" height="18">
<path d="M365.738 419.652C365.875 422.214 363.832 424.457 361.444 424.434C357.641 424.4 354.887 420.593 353.091 416.985C351.526 413.833 350.213 410.534 349.178 407.141C355.148 407.587 359.003 409.679 363.186 414.28C363.876 415.031 365.574 416.624 365.738 419.652Z" fill="white"/>
</mask>
<g mask="url(#mask27_2090_114399)">
<g opacity="0.32">
<path d="M350.92 408.253C352.039 411.271 353.379 413.99 355.448 416.381C357.531 418.791 359.463 421.567 362.267 423.027C367.794 425.907 371.977 418.059 367.033 414.238C362.731 410.91 357.823 408.766 353.476 405.572C351.783 404.327 350.315 406.627 350.92 408.253Z" fill="#FFC188"/>
</g>
</g>
<g opacity="0.36">
<path d="M356.271 413.795C357.814 416.153 359.074 418.91 361.409 420.422C362.373 421.044 364.071 420.526 364.243 419.181C364.831 414.561 361.32 413.444 358.004 411.932C356.978 411.471 355.448 412.54 356.271 413.795Z" fill="white"/>
</g>
</g>
<g opacity="0.58">
<path d="M336.55 447.407C335.414 449.665 332.579 450.416 330.559 449.047C327.34 446.865 326.862 442.069 327.101 437.991C327.309 434.426 327.808 430.879 328.591 427.405C333.45 431.16 335.705 435.12 337.014 441.394C337.226 442.421 337.894 444.741 336.55 447.407Z" fill="#EC801E"/>
<mask id="mask28_2090_114399" style="mask-type:luminance" maskUnits="userSpaceOnUse" x="327" y="427" width="11" height="23">
<path d="M336.55 447.407C335.414 449.665 332.579 450.416 330.559 449.047C327.34 446.865 326.862 442.069 327.101 437.991C327.309 434.426 327.808 430.879 328.591 427.405C333.45 431.16 335.705 435.12 337.014 441.394C337.226 442.421 337.894 444.741 336.55 447.407Z" fill="white"/>
</mask>
<g mask="url(#mask28_2090_114399)">
<g opacity="0.32">
<path d="M329.524 429.334C328.998 432.534 328.808 435.604 329.4 438.808C329.993 442.031 330.28 445.487 331.947 448.315C335.241 453.891 342.634 449.579 340.3 443.533C338.27 438.271 335.144 433.674 333.004 428.498C332.177 426.482 329.807 427.609 329.524 429.334Z" fill="#FFC188"/>
</g>
</g>
<g opacity="0.36">
<path d="M331.359 437.106C331.522 440.011 331.248 443.058 332.526 445.686C333.066 446.794 334.781 447.122 335.555 446.105C338.274 442.53 335.776 439.521 333.716 436.417C333.052 435.414 331.279 435.638 331.359 437.106Z" fill="white"/>
</g>
</g>
<path d="M314.34 452.004C312.894 453.387 310.541 453.121 309.352 451.481C307.455 448.867 308.317 445.069 309.547 442.026C310.617 439.369 311.908 436.812 313.393 434.397C316.135 438.699 316.842 442.383 316.232 447.555C316.131 448.401 316.047 450.369 314.34 452.004Z" fill="#EC801E"/>
<mask id="mask29_2090_114399" style="mask-type:luminance" maskUnits="userSpaceOnUse" x="308" y="434" width="9" height="19">
<path d="M314.34 452.004C312.894 453.387 310.541 453.121 309.352 451.481C307.455 448.867 308.317 445.069 309.547 442.026C310.617 439.369 311.908 436.812 313.393 434.397C316.135 438.699 316.842 442.383 316.232 447.555C316.131 448.401 316.047 450.369 314.34 452.004Z" fill="white"/>
</mask>
<g mask="url(#mask29_2090_114399)">
<g opacity="0.32">
<path d="M313.606 436.142C312.385 438.428 311.457 440.71 311.085 443.329C310.714 445.962 310.046 448.681 310.595 451.334C311.678 456.558 318.421 455.46 318.187 450.16C317.983 445.549 316.781 441.114 316.475 436.536C316.36 434.754 314.265 434.915 313.606 436.142Z" fill="#FFC188"/>
</g>
</g>
<g opacity="0.36">
<path d="M312.766 442.63C312.001 444.897 310.648 447.322 311.395 449.751C311.691 450.716 312.761 451.652 313.769 451.2C317.497 449.518 316.303 445.91 315.211 442.63C314.773 441.332 313.199 441.337 312.766 442.63Z" fill="white"/>
</g>
<path d="M349.351 437.867C348.705 439.759 346.578 440.686 344.863 439.868C342.13 438.561 341.255 434.891 341.016 431.687C340.804 428.888 340.821 426.069 341.064 423.274C345.239 425.608 347.405 428.412 349.081 433.137C349.355 433.907 350.116 435.628 349.351 437.867Z" fill="#EC801E"/>
<mask id="mask30_2090_114399" style="mask-type:luminance" maskUnits="userSpaceOnUse" x="340" y="423" width="10" height="18">
<path d="M349.351 437.867C348.705 439.759 346.578 440.686 344.863 439.868C342.13 438.561 341.255 434.891 341.016 431.687C340.804 428.888 340.821 426.069 341.064 423.274C345.239 425.608 347.405 428.412 349.081 433.137C349.355 433.907 350.116 435.628 349.351 437.867Z" fill="white"/>
</mask>
<g mask="url(#mask30_2090_114399)">
<g opacity="0.32">
<path d="M341.993 424.662C341.918 427.214 342.095 429.624 342.886 432.044C343.687 434.478 344.27 437.13 345.866 439.131C349.01 443.067 354.312 438.818 351.862 434.402C349.731 430.556 346.817 427.357 344.615 423.592C343.757 422.123 342.033 423.288 341.993 424.662Z" fill="#FFC188"/>
</g>
</g>
<g opacity="0.36">
<path d="M343.956 430.333C344.257 432.757 344.049 435.709 345.866 437.468C346.605 438.181 347.874 438.352 348.595 437.468C351.217 434.24 348.405 431.55 346.119 429.372C345.393 428.683 343.797 429.044 343.956 430.333Z" fill="white"/>
</g>
<path d="M267.961 427.081C264.91 439.464 260.598 451.457 257.181 463.726C254.399 473.713 249.12 486.224 256.712 494.671C258.856 497.057 261.841 496.501 264.043 494.671C271.843 488.178 270.194 473.461 271.909 463.707C274.005 451.79 275.287 440.21 274.713 428.065C274.518 423.987 268.986 422.922 267.961 427.081Z" fill="#F87048"/>
<path d="M254.93 450.601C251.525 459.086 246.493 468.993 247.829 478.476C248.059 480.102 250.398 479.945 250.734 478.476C251.693 474.293 252.056 470.01 253.073 465.832C254.236 461.05 255.965 456.424 257.574 451.804C258.145 450.155 255.575 448.99 254.93 450.601Z" fill="#F87048"/>
<path d="M277.175 474.65C275.234 479.408 272.683 483.938 270.026 488.268C269.044 489.865 271.299 491.729 272.488 490.312C276.057 486.063 278.228 481.3 279.93 475.9C280.474 474.174 277.861 472.962 277.175 474.65Z" fill="#F87048"/>
<path d="M279.417 324.901C280.182 322.994 280.978 321.112 281.544 319.125C281.933 317.747 281.509 316.159 280.567 315.161C280.43 315.013 280.293 314.871 280.16 314.723C279.143 313.64 277.812 313.63 276.583 314.229C276.38 314.329 276.176 314.424 275.977 314.524C274.735 315.127 274.186 316.706 274.098 318.046C273.983 319.829 274.071 321.587 274.142 323.37C274.248 326.108 278.223 327.886 279.417 324.901Z" fill="#F87048"/>
<path d="M307.093 327.429C305.24 326.26 303.166 328.979 304.754 330.686C306.743 332.829 309.516 328.965 307.093 327.429Z" fill="#F87048"/>
<path d="M354.847 420.802C354.957 424.134 356.762 427.633 360.246 427.001C361.236 426.82 362.006 425.38 361.634 424.372C361.015 422.694 359.481 421.924 359.109 420.184C358.557 417.617 354.758 418.178 354.847 420.802Z" fill="#FEFCFD"/>
<path d="M349.837 437.896C349.872 439.032 350.089 439.626 350.73 440.515C351.336 441.351 352.565 441.138 353.202 440.515C353.812 439.921 354.051 439.398 354.215 438.533C354.887 434.987 349.727 434.502 349.837 437.896Z" fill="#FEFCFD"/>
<path d="M358.512 340.73C360.564 340.687 362.107 340.088 362.748 337.887C363.124 336.604 361.846 335.064 360.599 335.577C359.339 336.095 358.866 336.956 357.756 337.711C356.518 338.548 356.965 340.763 358.512 340.73Z" fill="#FEFCFD"/>
<path d="M216.585 384.88C216.527 384.908 216.47 384.937 216.417 384.966C213.521 386.415 215.692 390.736 218.46 390.175C218.597 390.147 218.734 390.118 218.871 390.09C220.737 389.71 221.086 387.076 219.937 385.759C219.012 384.704 217.854 384.243 216.585 384.88Z" fill="#FEFCFD"/>
<path d="M187.689 405.529C188.189 408.177 189.179 411.267 191.443 412.697C192.871 413.601 194.251 411.851 193.588 410.392C192.664 408.362 191.178 406.931 190.479 404.702C189.878 402.796 187.318 403.561 187.689 405.529Z" fill="#FEFCFD"/>
<path d="M201.374 326.36C203.749 326.926 205.164 326.474 206.64 324.401C207.494 323.204 206.331 321.45 205.08 321.478C204.363 321.492 203.382 321.402 202.688 321.236C199.579 320.494 198.261 325.618 201.374 326.36Z" fill="#FEFCFD"/>
<path d="M275.323 321.34C275.406 321.34 275.406 321.202 275.323 321.202C275.239 321.198 275.239 321.34 275.323 321.34Z" fill="#FEFCFD"/>
<path d="M345.769 337.179C347.432 336.913 348.435 336.266 349.059 334.583C349.399 333.661 348.44 333.029 347.724 333.148C346.393 333.371 345.61 334.16 344.655 335.121C343.731 336.052 344.73 337.345 345.769 337.179Z" fill="#FEFCFD"/>
<g opacity="0.41">
<path d="M279.917 349.191C272.749 354.971 269.557 360.576 265.843 369.265C261.744 378.853 258.251 390.38 261.722 400.728C265.241 411.224 278.533 417.389 286.492 407.759C298.143 393.655 297.153 368.138 289.813 351.981C288.221 348.478 282.91 346.776 279.917 349.191Z" fill="#FFF5CC"/>
</g>
</svg>
