<svg width="480" height="620" viewBox="0 0 480 620" fill="none" xmlns="http://www.w3.org/2000/svg">
<rect width="480" height="620" fill="#FFF9F9" fill-opacity="0.82"/>
<path opacity="0.4" d="M148.81 534.254C149.511 522.184 195.577 514.002 251.746 515.989C307.896 517.948 352.838 529.35 352.174 541.42C351.473 553.505 305.407 561.701 249.239 559.699C193.089 557.741 148.128 546.324 148.81 534.254Z" fill="#C08347"/>
<path d="M176.994 406.431C204.184 383.959 211.374 356.526 204.185 334.359C196.959 312.207 176.994 275.489 176.994 275.489L251.172 277.578L325.352 275.489C325.352 275.489 305.406 312.207 298.198 334.359C290.99 356.526 298.198 383.959 325.352 406.431C325.352 406.431 351.969 435.387 348.577 473.236C345.186 511.1 325.352 537.039 325.352 537.039C325.352 543.451 291.728 548.644 250.288 548.644C208.811 548.644 175.188 543.451 175.188 537.039C175.188 536.516 156.717 505.819 153.786 473.236C150.413 435.387 176.994 406.431 176.994 406.431Z" fill="#005393"/>
<path d="M173.512 537.271C173.401 537.082 173.179 536.661 172.866 536.081C157.861 508.097 153.289 486.481 152.091 473.338C148.717 435.43 175.354 405.937 175.76 405.517C200.332 385.192 210.343 358.731 202.509 334.707C195.393 312.874 175.631 276.388 175.428 276.04C175.17 275.62 175.263 275.126 175.594 274.764C175.926 274.372 176.443 274.212 177.07 274.169L251.1 276.229L325.316 274.169C325.795 274.227 326.422 274.372 326.754 274.764C327.067 275.126 327.141 275.62 326.901 276.04C326.698 276.388 306.918 312.859 299.839 334.707C292.005 358.731 301.996 385.192 326.734 405.647C326.974 405.937 353.667 435.43 350.238 473.338C347.068 508.953 329.168 534.485 327.011 537.43C325.813 545.699 287.803 549.979 250.271 549.979C212.5 549.993 174.231 545.627 173.512 537.271ZM251.118 278.898L179.613 276.925C183.835 284.803 199.614 314.948 205.807 334.054C213.937 358.949 203.614 386.353 178.378 407.228C178.102 407.519 152.183 436.199 155.483 473.163C156.644 486.104 161.16 507.386 176 535.066C176.866 536.676 176.866 536.719 176.866 537.053C176.866 541.347 204.831 547.339 250.289 547.339C295.747 547.339 323.675 541.347 323.675 537.053C323.675 536.806 323.748 536.574 323.896 536.357C324.098 536.11 343.565 510.258 346.883 473.163C350.183 436.243 324.264 407.519 324.135 407.345C298.752 386.338 288.429 358.949 296.539 334.054C302.77 314.948 318.569 284.788 322.735 276.925L251.118 278.898Z" fill="#000F38"/>
<path opacity="0.4" d="M176.994 406.431C204.184 383.959 211.374 356.526 204.185 334.359C196.959 312.207 176.994 275.489 176.994 275.489L228.389 276.925C235.412 296.568 241.993 316.385 245.735 336.535C248.389 350.825 251.487 366.057 247.486 380.39C244.002 392.838 236.74 403.936 230.49 415.599C213.918 446.529 213.55 485.64 258.141 501.017C289.737 511.869 330.217 506.849 343.342 478.676C346.071 472.787 347.748 466.607 348.578 460.325C348.909 464.503 348.947 468.797 348.56 473.251C345.168 511.114 325.333 537.053 325.333 537.053C325.333 543.465 291.71 548.659 250.27 548.659C208.794 548.659 175.169 543.465 175.169 537.053C175.169 536.531 156.698 505.834 153.767 473.251C150.412 435.387 176.994 406.431 176.994 406.431Z" fill="#005393"/>
<path d="M175.206 275.49C175.206 281.916 208.829 287.11 250.306 287.11C291.745 287.11 325.369 281.916 325.369 275.49C325.369 269.092 291.745 263.898 250.306 263.898C208.829 263.898 175.206 269.092 175.206 275.49Z" fill="#005393"/>
<path d="M173.473 275.489C173.473 267.003 212.129 262.563 250.287 262.563C288.427 262.563 327.046 267.017 327.046 275.489C327.046 284.005 288.427 288.43 250.287 288.43C212.147 288.43 173.473 284.005 173.473 275.489ZM176.883 275.489C176.883 279.798 204.847 285.775 250.305 285.775C295.763 285.775 323.691 279.798 323.691 275.489C323.691 271.21 295.763 265.247 250.305 265.247C204.847 265.262 176.883 271.224 176.883 275.489Z" fill="#000F38"/>
<path d="M294.921 411.421C301.134 404.835 310.056 407.243 315.899 412.321C319.254 415.236 321.65 418.414 323.382 421.823C328.765 429.686 330.388 439.652 326.038 447.036C322.591 452.81 313.465 453.289 307.492 449.836C299.934 445.397 294.571 438.535 291.99 431.426C289.336 424.1 288.912 417.761 294.921 411.421Z" fill="#005393"/>
<path d="M322.237 459.904C322.292 459.933 322.366 459.991 322.422 460.035C325.537 460.223 329.445 463.11 330.827 464.938C333.003 467.912 333.574 474.078 328.855 475.964C322.993 478.285 316.725 470.016 316.061 466.433C315.527 463.459 316.32 457.293 322.237 459.904Z" fill="#005393"/>
<path d="M281.258 133.333C280.834 133 279.747 130.925 280.945 130.838C282.033 130.795 283.176 130.577 284.263 130.461C281.627 128.096 278.991 125.804 276.539 123.323C276.244 122.99 275.451 121.002 276.649 121.147C278.714 121.67 280.76 121.771 282.751 121.525C280.705 120.045 278.862 118.594 277.221 116.766C276.926 116.476 276.151 114.489 277.331 114.677C278.677 114.938 280.004 115.141 281.368 115.257C274.216 109.469 277.332 99.5462 281.959 91.3061C282.291 90.8274 282.641 90.3631 283.028 89.9134C284.89 87.5197 286.401 85.068 288.705 82.921C294.807 85.6338 300.817 89.3766 304.854 93.9754C306.55 95.8904 307.895 97.7763 309.056 99.9088C308.761 99.3576 310.586 97.196 311.693 95.9774C312.08 95.5567 312.744 96.2821 312.873 96.4706C315.085 99.4881 315.933 102.448 316.136 105.668C317.094 104.624 318.052 103.507 319.047 102.578C319.582 102.056 320.264 103.158 320.43 103.391C322.716 107.554 323.196 112.109 321.942 116.462C323.159 115.78 324.264 115.025 325.204 114.068C326.365 113.125 327.048 116.244 326.993 116.708C324.412 127.313 315.545 132.985 302.733 135.06C302.125 135.887 301.388 136.568 300.374 136.96C294.383 139.368 285.664 136.859 281.258 133.333Z" fill="#14552C"/>
<path d="M289.98 86.4314C299.215 97.9646 304.007 112.167 304.652 125.601C304.745 127.545 304.708 130.664 303.676 133.188C312.45 130.112 319.363 126.283 322.921 119.508C321.926 119.986 320.911 120.407 319.676 120.813C318.441 121.263 318.091 118.55 318.386 118.072C319.787 115.779 321.207 105.001 315.861 110.064C314.976 110.861 313.243 95.1357 309.722 103.332C309.206 104.362 308.137 102.607 308.045 102.302C307.731 101.403 295.971 87.3599 289.98 86.4314Z" fill="#058545"/>
<path d="M285.074 133C289.074 134.741 294.585 136.119 297.701 134.828C305.517 131.622 302.843 121.684 301.534 116.143C299.101 105.669 294.549 96.0358 287.912 86.8527C287.691 87.0413 287.433 87.2009 287.304 87.491C283.617 93.5986 273.146 110.456 285.442 115.374C286.05 115.591 287.028 117.782 285.94 117.753C285.903 117.753 285.792 117.753 285.718 117.753C283.912 117.709 282.105 117.579 280.336 117.361C281.884 118.681 283.617 119.871 285.442 121.133C285.939 121.452 286.787 123.193 285.718 123.396C283.451 123.875 281.644 123.962 279.672 123.846C282.105 126.066 284.575 128.198 287.027 130.461C287.395 130.824 288.115 132.55 287.101 132.753C286.456 132.884 285.774 132.913 285.074 133Z" fill="#007935"/>
<path d="M270.661 164.089C271.822 163.32 272.541 162.276 273.057 161.1C288.91 155.501 298.349 146.115 297.777 131.825C297.759 131.216 295.676 127.342 294.533 128.837C293.686 130.258 292.487 131.491 291.178 132.637C291.271 126.704 288.91 120.93 284.431 116.056C284.173 115.795 282.864 114.518 282.366 115.287C281.371 116.767 280.597 118.406 279.767 120.002C278.293 115.853 276.136 112.168 272.173 108.788C271.878 108.57 270.827 107.772 270.458 108.41C269.444 110.267 267.877 113.473 268.504 114.097C266.181 111.588 263.729 109.499 260.872 107.351C253.978 102.317 244.834 98.8358 235.912 96.6887C233.774 99.9964 232.668 103.536 231.101 107.032C230.806 107.743 230.493 108.41 230.198 109.092C227.212 120.814 226.844 134.349 238.236 140.239C236.448 140.399 234.623 140.457 232.816 140.413C231.175 140.428 232.945 142.807 233.406 143.155C236.208 145.114 239.175 146.608 242.291 148.03C239.839 148.842 237.129 149.161 234.235 148.958C232.594 149.002 234.364 151.439 234.881 151.772C238.973 154.413 243.249 156.792 247.471 159.258C246.107 159.693 244.743 160.216 243.342 160.506C241.848 160.897 244.023 163.335 244.65 163.668C251.747 167.31 263.932 168.557 270.661 164.089Z" fill="#14552C"/>
<path d="M268.098 117.463C268.337 117.84 270.31 119.871 270.642 118.42C272.19 106.989 280.208 126.994 281.038 125.746C286.107 117.956 288.228 132.275 287.251 135.524C287.048 136.235 288.504 139.673 289.942 138.861C291.362 137.99 292.559 137.222 293.665 136.366C291.527 145.969 283.987 152.469 273.738 158.46C274.107 154.964 273.075 150.902 272.227 148.421C266.457 131.143 255.084 113.821 238.899 100.997C246.936 100.838 267.342 116.346 268.098 117.463Z" fill="#058545"/>
<path d="M252.06 161.623C253.314 161.173 251.747 159.055 251.12 158.707C247.157 156.357 243.175 154.108 239.194 151.772C241.811 151.497 244.097 150.96 246.88 149.843C248.189 149.35 246.42 147.275 245.682 146.941C242.862 145.723 240.207 144.591 237.663 143.213C240.023 143.083 242.382 142.879 244.779 142.502H244.816C244.871 142.473 245 142.473 245.073 142.459C246.474 142.227 244.41 139.644 243.562 139.441C225.847 135.887 233.202 111.631 235.819 102.941C235.93 102.521 236.188 102.245 236.336 101.969C248.336 112.371 257.719 123.832 264.706 136.844C268.429 143.721 275.49 155.994 266.568 161.913C262.973 164.277 255.323 163.755 249.517 162.377C250.365 162.116 251.249 161.942 252.06 161.623Z" fill="#007935"/>
<path d="M284.852 295.509C279.396 298.918 273.607 301.95 267.727 304.852C267.874 283.99 269.571 263.013 269.239 242.152C268.87 217.083 267.598 192.044 267.432 166.99C267.414 163.944 267.395 160.912 267.395 157.88C269.791 156.095 272.133 154.267 274.437 152.44C274.529 158.707 274.621 164.93 274.695 171.168C275.045 196.295 276.28 221.378 276.797 246.489C277.073 261.49 277.994 277.303 277.054 292.811C280.391 273.444 288.096 253.714 294.474 236.189C301.996 215.343 310.807 190.26 335.14 177.697C335.508 177.522 336.247 178.248 335.97 178.509C316.67 195.656 307.895 218.752 300.006 240.382C295.379 253.047 291.452 265.842 288.097 278.753C286.604 284.208 285.719 289.851 284.852 295.509Z" fill="#00491F"/>
<path d="M194.916 88.6519C218.954 125.66 238.568 161.565 248.799 202.606C253.813 222.64 256.726 243.081 259.731 263.376C261.796 277.288 264.524 291.462 266.164 305.621C263.51 306.927 260.855 308.218 258.201 309.538C250.2 274.648 248.965 238.424 241.333 203.607C232.466 163.204 212.116 126.574 194.069 88.4633C193.755 87.825 194.713 88.3328 194.916 88.6519Z" fill="#00491F"/>
<path d="M294.071 242.485C295.454 242.036 296.965 241.934 298.55 242.123C311.823 233.331 326.7 230.749 342.792 237.393C343.474 237.669 347.014 240.846 344.802 241.006C342.793 241.006 340.875 241.281 338.995 241.731C345.779 244.255 351.383 248.433 354.977 253.714C355.162 254.004 356.064 255.527 354.958 255.556C352.875 255.556 350.627 255.44 348.452 255.339C352.526 258.197 355.806 261.316 357.944 265.61C358.073 265.9 358.48 267.017 357.614 266.959C355.088 266.872 350.737 266.567 350.24 265.871C352.12 268.613 353.447 271.239 354.608 274.213C357.374 281.278 357.337 289.271 355.936 296.554C351.199 296.641 346.663 295.872 341.999 295.422C341.041 295.335 340.175 295.262 339.235 295.161C324.524 292.129 308.892 286.515 307.141 275.866C306.164 277.07 305.315 278.318 304.56 279.638C303.822 280.755 301.869 278.492 301.703 277.999C300.652 275.185 300.283 272.414 299.988 269.585C297.997 270.992 296.449 272.733 295.435 274.851C294.679 276.011 292.634 273.705 292.468 273.154C291.251 269.121 290.366 265.059 289.408 260.997C288.302 261.751 287.159 262.491 286.182 263.39C285.057 264.319 283.232 261.664 283.14 261.069C282.126 254.497 285.997 245.329 294.071 242.485Z" fill="#14552C"/>
<path d="M346.222 264.667C345.909 264.319 344.434 262.056 346.259 262.447C359.937 266.35 340.637 251.915 342.407 251.915C353.504 251.712 338.075 243.965 333.909 243.211C333.024 243.08 329.743 240.527 331.31 239.889C332.895 239.236 334.314 238.728 335.789 238.351C323.899 235.638 313.115 238.162 301.834 242.805C306.018 244.067 310.184 246.591 312.636 248.245C329.853 259.851 344.692 275.489 352.306 292.55C356.011 286.906 347.181 265.697 346.222 264.667Z" fill="#058545"/>
<path d="M288.762 256.717C289.813 256.035 291.546 258.066 291.693 258.69C292.652 262.476 293.444 266.306 294.384 270.136C295.859 268.424 297.445 267.046 299.915 265.537C301.077 264.826 302.661 267.002 302.735 267.655C302.901 270.223 303.03 272.558 303.491 274.952C304.671 273.342 305.924 271.775 307.436 270.223C307.473 270.165 307.528 270.092 307.565 270.063C308.432 269.149 310.497 271.732 310.331 272.442C306.699 286.543 337.612 291.882 348.71 293.87C349.244 293.971 349.632 293.942 350.037 293.913C343.401 280.9 334.405 269.265 322.589 258.617C316.358 252.974 305.409 242.601 294.735 246.315C290.422 247.853 287.693 253.482 286.735 258.196C287.454 257.703 288.025 257.152 288.762 256.717Z" fill="#007935"/>
<path d="M339.027 232.533C340.41 232.069 341.94 231.982 343.525 232.171C356.835 223.379 371.675 220.812 387.805 227.441C388.468 227.702 391.971 230.894 389.777 231.054C387.768 231.054 385.832 231.315 383.97 231.793C390.754 234.289 396.32 238.467 399.934 243.762C400.155 244.067 401.076 245.561 399.934 245.575C397.85 245.604 395.602 245.474 393.445 245.401C397.519 248.245 400.763 251.364 402.92 255.658C403.049 255.933 403.492 257.065 402.589 257.007C400.063 256.934 395.712 256.615 395.233 255.904C397.113 258.646 398.423 261.287 399.621 264.26C402.367 271.311 402.367 279.319 400.929 286.602C396.21 286.674 391.676 285.92 386.993 285.499C386.09 285.397 385.186 285.296 384.246 285.252C369.554 282.191 353.904 276.563 352.171 265.929C351.194 267.118 350.328 268.381 349.609 269.686C348.909 270.832 346.918 268.54 346.77 268.061C345.701 265.232 345.332 262.476 345.056 259.647C343.046 261.069 341.48 262.795 340.484 264.913C339.728 266.059 337.682 263.796 337.534 263.23C336.318 259.197 335.433 255.121 334.456 251.059C333.35 251.828 332.189 252.553 331.23 253.453C330.143 254.396 328.299 251.712 328.207 251.146C327.119 244.531 330.972 235.377 339.027 232.533Z" fill="#14552C"/>
<path d="M391.217 254.715C390.904 254.367 389.429 252.118 391.217 252.51C404.95 256.383 385.595 241.977 387.383 241.963C398.498 241.745 383.069 233.999 378.885 233.244C378 233.114 374.737 230.589 376.304 229.937C377.87 229.269 379.289 228.776 380.746 228.37C368.856 225.686 358.127 228.21 346.791 232.838C350.975 234.1 355.142 236.61 357.575 238.278C374.792 249.898 389.65 265.523 397.244 282.583C400.986 276.954 392.194 255.745 391.217 254.715Z" fill="#058545"/>
<path d="M333.719 246.75C334.77 246.068 336.484 248.128 336.668 248.723C337.608 252.524 338.419 256.339 339.359 260.169C340.834 258.457 342.42 257.094 344.927 255.57C346.033 254.874 347.655 257.05 347.729 257.688C347.877 260.271 348.006 262.606 348.448 264.986C349.646 263.375 350.918 261.808 352.411 260.271C352.448 260.184 352.485 260.126 352.54 260.097C353.425 259.183 355.472 261.765 355.306 262.461C351.674 276.562 382.569 281.901 393.703 283.888C394.201 283.975 394.607 283.946 395.012 283.917C388.358 270.904 379.362 259.241 367.546 248.607C361.297 242.993 350.365 232.62 339.691 236.348C335.415 237.857 332.668 243.5 331.71 248.201C332.429 247.737 333.019 247.2 333.719 246.75Z" fill="#007935"/>
<path d="M375.474 197.963C374.994 196.875 374.017 195.932 372.745 195.149C371.676 181.498 363.805 171.256 346.625 166.642C345.906 166.454 340.541 166.628 341.924 168.006C343.306 169.123 344.338 170.414 345.242 171.807C338.237 169.689 330.531 169.355 323.176 170.966C322.752 171.053 320.743 171.575 321.535 172.228C322.918 173.446 324.596 174.592 326.181 175.811C320.761 175.419 315.618 175.724 310.199 177.479C309.867 177.581 308.558 178.103 309.185 178.582C311.01 179.974 314.328 182.252 315.268 182.034C311.471 182.847 308.134 183.906 304.576 185.299C296.171 188.606 288.815 194.133 283.1 199.936C286.289 202.664 290.124 204.724 293.719 207.117C294.456 207.582 295.139 208.046 295.876 208.481C308.761 214.777 324.761 219.826 335.748 213.5C335.306 214.879 334.753 216.228 334.052 217.577C333.518 218.738 336.964 218.302 337.536 218.056C340.854 216.707 343.675 215.038 346.44 213.239C346.532 215.343 345.998 217.403 344.744 219.463C344.228 220.682 347.748 220.261 348.375 219.985C352.91 217.896 357.261 215.619 361.666 213.341C361.703 214.487 361.85 215.677 361.684 216.852C361.611 218.099 365.317 217.33 365.925 216.997C372.672 213.065 378.442 204.521 375.474 197.963Z" fill="#14552C"/>
<path d="M319.084 183.5C319.656 183.427 322.752 182.731 321.112 181.976C308.097 176.826 334.716 177.914 333.481 176.884C326.015 170.4 343.749 173.852 347.325 175.724C348.081 176.115 352.708 176.275 352.21 174.911C351.731 173.562 351.196 172.416 350.532 171.328C361.224 176.246 366.312 184.109 369.87 193.742C365.814 192.218 360.634 191.594 357.39 191.333C334.808 189.505 310.199 191.827 289.258 199.24C291.913 193.263 317.499 183.659 319.084 183.5Z" fill="#058545"/>
<path d="M366.052 210.802C365.941 209.714 362.901 210.15 362.219 210.483C358.071 212.558 353.978 214.719 349.812 216.837C350.383 214.806 350.55 212.964 350.218 210.483C350.071 209.366 346.992 209.932 346.347 210.382C343.858 212.05 341.627 213.588 339.102 214.98C339.784 213.182 340.374 211.383 340.742 209.453H340.761C340.78 209.381 340.797 209.323 340.797 209.25C341.037 208.133 337.24 208.713 336.705 209.308C326.216 221.073 300.004 207.161 290.51 202.2C290.086 201.982 289.847 201.692 289.589 201.46C306.161 196.295 323.064 193.379 341.019 192.814C350.476 192.48 367.583 191.58 371.546 200.227C373.094 203.708 369.777 209.163 366.108 212.949C366.053 212.21 366.126 211.499 366.052 210.802Z" fill="#007935"/>
<path d="M299.692 178.944C298.715 178.045 298.235 176.899 298.014 175.651C283.654 167.991 276.428 157.445 280.152 143.445C280.299 142.836 283.211 139.311 284.004 140.95C284.52 142.459 285.405 143.837 286.438 145.143C287.673 139.325 291.268 133.929 296.743 129.751C297.038 129.533 298.64 128.445 298.935 129.286C299.544 130.853 300.005 132.55 300.466 134.262C302.844 130.36 305.775 127.067 310.421 124.267C310.734 124.064 311.987 123.44 312.189 124.107C312.779 126.095 313.61 129.46 312.872 129.997C315.711 127.836 318.587 126.095 321.85 124.397C329.758 120.379 339.527 118.232 348.8 117.303C350.201 120.843 350.496 124.485 351.251 128.155C351.399 128.895 351.547 129.577 351.676 130.302C352.026 142.256 349.409 155.646 336.873 159.882C338.606 160.274 340.376 160.578 342.201 160.781C343.786 161.043 341.537 163.117 341.021 163.422C337.813 164.945 334.551 166.018 331.159 166.99C333.426 168.137 336.007 168.804 338.864 169.021C340.468 169.297 338.219 171.444 337.61 171.691C333.02 173.751 328.264 175.521 323.563 177.378C324.817 177.972 326.015 178.654 327.361 179.147C328.798 179.757 326.053 181.86 325.352 182.063C317.628 184.689 305.369 184.268 299.692 178.944Z" fill="#14552C"/>
<path d="M312.503 133.363C312.208 133.726 309.793 135.438 309.83 133.972C310.788 122.512 298.494 141.095 297.941 139.761C294.678 131.405 289.423 145.201 289.663 148.538C289.718 149.277 287.488 152.455 286.29 151.454C285.055 150.424 284.059 149.495 283.175 148.494C283.175 158.214 289.165 165.656 297.922 172.968C298.309 169.471 300.244 165.613 301.609 163.306C311.121 147.087 326.125 131.564 344.928 121.148C337.038 119.886 313.48 132.377 312.503 133.363Z" fill="#058545"/>
<path d="M318.548 179.031C317.405 178.422 319.452 176.58 320.116 176.304C324.54 174.534 328.963 172.88 333.405 171.125C330.88 170.487 328.76 169.66 326.253 168.18C325.073 167.498 327.268 165.699 328.097 165.482C331.157 164.64 333.959 163.9 336.78 162.928C334.512 162.479 332.208 161.942 329.922 161.231C329.811 161.217 329.756 161.173 329.627 161.144C328.337 160.738 330.936 158.46 331.857 158.388C350.033 157.329 348.135 132.434 347.527 123.483C347.49 123.063 347.324 122.787 347.195 122.468C333.111 131.085 321.332 141.066 311.58 152.918C306.382 159.215 296.704 170.327 304.206 177.377C307.229 180.206 314.88 180.729 320.852 180.177C320.115 179.771 319.267 179.481 318.548 179.031Z" fill="#007935"/>
<path d="M290.9 259.212C290.937 259.662 290.2 261.853 289.204 261.33C288.264 260.823 287.249 260.431 286.272 260.025C286.475 263.129 286.734 266.248 286.715 269.367C286.715 269.817 285.72 271.746 284.946 271.021C283.692 269.614 282.199 268.54 280.392 267.757C280.835 269.904 281.166 271.964 281.019 274.169C281.019 274.575 280.06 276.519 279.304 275.779C278.475 274.909 277.535 274.097 276.577 273.342C277.646 281.408 267.415 287.661 257.295 291.911C256.649 292.115 255.986 292.26 255.359 292.463C252.023 293.478 248.851 294.624 245.367 295.19C242.731 290.054 240.943 284.208 241.422 278.652C241.607 276.316 242.012 274.184 242.768 271.95C242.584 272.501 239.469 273.342 237.607 273.763C236.999 273.879 237.017 273.038 237.054 272.791C237.717 269.353 239.414 266.596 241.774 263.985C240.188 264.333 238.566 264.74 237.036 265.001C236.206 265.146 236.537 263.927 236.629 263.695C238.104 259.314 241.257 255.455 245.718 252.684C244.225 252.626 242.769 252.684 241.257 252.96C239.616 253.163 241.497 250.319 241.921 250.073C252.281 242.964 263.746 242.819 275.415 247.432C276.558 247.099 277.645 246.939 278.77 247.099C285.314 248.056 290.181 254.265 290.9 259.212Z" fill="#14552C"/>
<path d="M247.154 291.781C248.961 278.231 256.371 264.725 266.436 253.845C267.892 252.307 270.38 249.884 273.164 248.39C263.855 246.547 255.395 246.156 247.247 249.753C248.408 249.87 249.551 250.058 250.859 250.305C252.168 250.551 250.325 252.844 249.698 253.105C246.823 254.164 237.199 261.998 245.403 260.605C246.711 260.387 235.725 273.589 244.905 268.874C246.14 268.323 245.569 270.165 245.44 270.47C244.96 271.398 243.191 288.154 247.154 291.781Z" fill="#058545"/>
<path d="M287.637 257.573C285.886 254.28 282.623 250.493 279.139 250C270.531 248.709 264.816 257.819 261.442 262.795C255.138 272.21 251.12 282.017 249.092 292.419C249.424 292.39 249.719 292.39 250.088 292.245C257.793 289.256 279.287 281.103 273.48 271.268C273.24 270.789 274.161 268.598 274.991 269.12C275.065 269.193 275.065 269.222 275.157 269.251C276.595 270.165 277.868 271.151 279.084 272.167C278.863 270.368 278.475 268.584 278.051 266.727C277.885 266.219 278.622 264.435 279.599 264.797C281.756 265.552 283.231 266.35 284.687 267.394C284.503 264.464 284.264 261.577 284.117 258.646C284.117 258.168 284.927 256.427 285.83 256.789C286.457 257.021 287.029 257.355 287.637 257.573Z" fill="#007935"/>
<path d="M261.83 235.856C261.848 236.407 260.669 238.932 259.526 238.25C258.512 237.553 257.333 237.046 256.227 236.48C256.079 240.208 256.042 243.908 255.636 247.65C255.599 248.158 254.162 250.407 253.314 249.478C252.005 247.708 250.328 246.301 248.318 245.271C248.595 247.853 248.705 250.305 248.299 252.945C248.225 253.424 246.88 255.644 246.032 254.715C245.129 253.656 244.133 252.626 243.064 251.669C243.414 261.316 230.456 268.033 217.921 272.327C217.147 272.501 216.335 272.675 215.56 272.864C211.45 273.749 207.523 274.909 203.32 275.345C200.776 269.048 199.358 261.954 200.593 255.339C201.091 252.597 201.828 250.088 203.007 247.447C202.712 248.115 198.878 248.869 196.647 249.217C195.873 249.348 196.039 248.318 196.113 248.028C197.274 243.98 199.634 240.818 202.768 237.873C200.795 238.206 198.878 238.54 197.016 238.758C195.984 238.859 196.5 237.437 196.647 237.147C198.951 232.055 203.173 227.732 208.777 224.744C207.007 224.526 205.257 224.511 203.469 224.7C201.478 224.845 204.076 221.625 204.648 221.305C217.791 213.646 231.451 214.298 244.834 220.653C246.198 220.348 247.581 220.246 248.853 220.522C256.503 222.176 261.609 229.894 261.83 235.856Z" fill="#14552C"/>
<path d="M205.844 271.413C209.604 255.426 220.056 239.889 233.347 227.674C235.246 225.919 238.509 223.22 242.012 221.625C231.154 218.738 221.126 217.679 211.006 221.407C212.333 221.567 213.733 221.886 215.245 222.292C216.738 222.698 214.249 225.31 213.53 225.571C209.936 226.659 197.566 235.232 207.484 234.202C209.106 234.043 194.415 248.942 205.936 243.995C207.484 243.443 206.6 245.634 206.36 245.968C205.696 246.983 201.585 266.8 205.844 271.413Z" fill="#007935"/>
<path d="M258.142 233.709C256.428 229.632 252.998 224.903 248.961 224.003C238.804 221.885 230.877 232.301 226.305 237.988C217.678 248.709 211.743 260.083 208.111 272.385C208.48 272.356 208.849 272.356 209.291 272.211C218.822 269.237 245.366 261.113 239.652 248.97C239.375 248.361 240.777 245.822 241.68 246.547C241.772 246.562 241.791 246.635 241.883 246.649V246.693C243.45 247.868 244.888 249.13 246.196 250.464C246.178 248.303 245.901 246.17 245.588 243.878C245.496 243.298 246.565 241.209 247.708 241.688C250.178 242.747 251.819 243.806 253.459 245.155C253.607 241.688 253.681 238.177 253.828 234.695C253.883 234.144 255.044 232.127 256.113 232.635C256.795 232.911 257.441 233.346 258.142 233.709Z" fill="#058545"/>
<path d="M366.368 233.07C365.981 233.39 363.363 234.333 363.216 233.39C363.16 232.49 362.847 231.649 362.644 230.793C359.713 232.925 356.856 235.058 353.796 237.089C353.391 237.365 350.847 238.032 351.05 237.074C351.621 235.435 351.695 233.796 351.29 232.243C349.483 233.883 347.658 235.392 345.428 236.741C345.059 237.002 342.533 237.669 342.772 236.741C343.049 235.667 343.252 234.594 343.344 233.52C336.21 239.367 323.528 237.219 312.873 233.839C312.265 233.564 311.656 233.288 311.066 232.998C307.969 231.62 304.799 230.474 301.979 228.762C305.278 223.858 309.832 218.984 315.565 215.691C317.943 214.298 320.283 213.181 322.993 212.195C322.292 212.456 319.472 211.063 317.887 210.222C317.371 209.931 318.237 209.424 318.476 209.264C322.255 207.436 326.016 206.725 330.09 206.435C328.707 205.695 327.288 204.985 326.053 204.259C325.389 203.824 326.79 203.258 327.067 203.128C332.284 201.198 338.09 200.647 343.639 201.517C342.735 200.618 341.723 199.747 340.524 199.022C339.252 198.181 343.216 197.499 343.787 197.571C357.355 199.24 364.876 206.073 367.936 216.097C368.986 216.59 369.87 217.142 370.423 217.939C373.686 222.509 370.793 229.473 366.368 233.07Z" fill="#14552C"/>
<path d="M306.456 227.63C320.816 219.97 338.771 215.763 355.896 214.82C358.348 214.69 362.274 214.661 365.574 215.371C361.315 208.553 356.265 203.214 347.528 200.618C348.155 201.357 348.762 202.184 349.334 203.127C349.905 204.099 346.477 204.477 345.813 204.259C342.882 203.214 329.093 202.416 335.73 206.478C336.78 207.146 316.798 209.017 327.342 211.556C328.669 211.948 326.494 212.789 326.126 212.905C324.909 213.181 307.433 222.886 306.456 227.63Z" fill="#007935"/>
<path d="M365.872 230.053C367.973 226.876 369.558 222.437 367.807 220.014C363.475 213.979 350.922 216.387 343.898 217.548C330.644 219.825 318.514 223.699 307.048 229.226C307.306 229.386 307.509 229.545 307.86 229.676C315.731 232.432 337.576 240.135 343.401 230.329C343.696 229.821 346.424 228.979 346.479 229.85C346.479 229.85 346.423 229.951 346.423 230.009C346.478 231.46 346.35 232.867 346.092 234.246C347.751 232.969 349.208 231.591 350.756 230.125C351.162 229.734 353.355 228.979 353.65 229.821C354.295 231.62 354.498 232.998 354.369 234.579C357.115 232.577 359.788 230.546 362.572 228.588C363.033 228.254 365.245 227.63 365.466 228.443C365.687 228.965 365.725 229.502 365.872 230.053Z" fill="#058545"/>
<path d="M196.185 239.018C195.559 239.163 192.129 238.815 192.756 237.756C193.364 236.828 193.77 235.827 194.231 234.855C189.586 235.536 184.94 236.276 180.221 236.77C179.576 236.842 176.498 236.218 177.475 235.362C179.41 233.984 180.793 232.403 181.623 230.633C178.507 231.373 175.447 232.011 172.055 232.243C171.502 232.287 168.424 231.721 169.401 230.894C170.58 229.951 171.594 228.994 172.608 227.964C160.663 230.256 149.602 221.755 141.565 213.007C141.196 212.427 140.809 211.846 140.422 211.295C138.413 208.336 136.164 205.594 134.745 202.446C142.026 199.138 150.525 196.541 158.967 196.077C162.544 195.859 165.769 195.888 169.308 196.251C168.387 196.164 166.691 193.393 165.751 191.725C165.456 191.174 166.746 191.057 167.134 191.057C172.424 191.086 176.774 192.218 181.18 194.017C180.35 192.61 179.484 191.174 178.839 189.752C178.489 189.041 180.369 189.143 180.737 189.186C187.558 189.824 193.844 192.16 198.729 195.83C198.6 194.467 198.286 193.088 197.641 191.783C197.07 190.26 201.605 191.58 202.121 191.942C214.454 200.429 216.518 211.048 211.449 222.712C212.131 223.684 212.591 224.7 212.518 225.788C212.057 232.026 203.522 237.596 196.185 239.018Z" fill="#14552C"/>
<path d="M140.145 203.548C160.791 203.026 182.303 207.77 200.313 215.371C202.876 216.459 206.932 218.418 209.66 220.753C210.876 211.788 210.121 203.867 203.374 196.875C203.429 197.963 203.318 199.08 203.152 200.298C202.949 201.531 199.207 200.24 198.709 199.66C196.608 197.179 183.336 189.462 186.71 196.889C187.281 198.064 165.602 189.984 174.193 197.774C175.225 198.848 172.312 198.63 171.833 198.514C170.414 198.209 144.957 199.283 140.145 203.548Z" fill="#058545"/>
<path d="M198.101 235.725C202.802 233.563 207.926 229.922 208.147 226.614C208.682 218.345 194.064 214.457 186.026 212.165C170.837 207.813 155.5 205.652 139.444 205.463C139.555 205.739 139.647 206.043 139.868 206.333C145.62 213.05 161.362 231.735 175.206 224.743C175.888 224.424 179.354 224.903 178.671 225.788C178.635 225.846 178.561 225.889 178.542 225.962H178.506C177.363 227.427 176.11 228.791 174.764 230.096C177.437 229.632 180.018 228.965 182.783 228.254C183.52 228.065 186.303 228.442 185.971 229.414C185.16 231.532 184.22 233.056 182.856 234.55C187.243 233.912 191.557 233.244 195.981 232.635C196.682 232.533 199.391 233.012 199.023 233.912C198.801 234.535 198.396 235.116 198.101 235.725Z" fill="#007935"/>
<path d="M302.882 169.123C292.854 171.009 286.311 177.29 280.707 183.688C280.339 184.167 279.564 186.023 281.149 185.298C289.445 181.483 297.334 183.528 306.09 182.179C312.874 181.164 305.833 188.664 304.229 190.898C302.883 192.769 301.648 194.641 300.505 196.585C300.155 197.165 300.505 197.963 301.408 197.484C307.012 194.699 314.718 191.116 317.059 185.965C320.506 192.044 322.921 198.18 319.455 204.868C318.644 206.435 319.989 206.943 321.556 206.043C327.565 202.721 331.234 196.991 331.898 191.261C332.34 187.547 332.083 184.297 329.539 181.12C329.17 180.641 328.69 180.221 328.174 179.887C328.34 179.582 328.377 179.292 328.193 179.089C323.179 174.186 311.583 167.469 302.882 169.123Z" fill="#007935"/>
<path d="M287.621 107.554C289.022 105.77 292.118 104.899 295.418 104.783C295.436 104.638 295.528 104.58 295.713 104.595C299.012 104.667 301.944 104.58 304.432 105.871C303.382 104.508 302.423 103.158 302.091 101.853C301.206 98.168 305.04 95.7453 308.874 94.3672C320.322 90.3197 336.175 98.4437 346.554 102.665C350.793 101.911 355.402 102.709 359.623 103.84C367.31 105.828 374.979 108.439 381.062 112.733C386.039 116.229 389.007 121.205 391.57 125.964C393.026 128.648 395.385 133.029 393.947 136.133C394.426 136.409 394.943 136.626 395.385 136.946C397.929 138.628 399.717 141.356 401.192 143.662C403.994 148.073 404.824 153.034 404.953 157.923C405.082 161.593 405.229 168.687 401.192 171.328C399.164 172.677 396.289 172.459 393.597 171.661C394.537 174.011 394.039 177.058 393.8 179.089C393.339 182.977 392.159 190.013 387.219 192.174C381.043 194.887 373.799 190.796 367.734 189.708C358.812 188.199 350.019 189.476 341.189 189.81C340.212 189.708 339.254 189.723 338.13 189.868C337.982 189.897 337.853 189.897 337.724 189.926C337.631 189.926 337.558 189.926 337.484 189.911C332.58 188.432 327.272 187.808 322.424 186.284C317.797 184.079 313.631 180.975 309.87 177.551C309.483 177.218 309.169 176.855 308.819 176.55C308.616 176.449 308.414 176.318 308.23 176.26C308.082 176.158 307.972 175.868 308.027 175.781C306.663 174.447 305.317 173.127 304.045 171.763C300.119 168.528 296.892 165.394 295.288 161.477C294.33 160.36 293.335 159.185 292.487 157.923C290.865 155.602 289.759 153.15 289.925 150.394C290.294 145.476 291.97 140.63 292.745 135.756C293.593 130.33 291.731 126.254 289.334 121.292C287.288 117.172 284.358 111.718 287.621 107.554Z" fill="#9A0032"/>
<path d="M310.091 96.7899C297.464 100.243 309.483 108.323 309.575 112.211C310.017 112.269 310.478 112.327 310.92 112.385C314.257 109.005 314.091 103.84 317.28 100.272C320.819 96.3547 328.046 99.2706 332.083 100.823C335.235 101.998 338.479 103.13 341.687 104.348C342.682 103.782 343.789 103.347 344.895 103.057C333.336 100.605 322.497 93.4388 310.091 96.7899Z" fill="#EE2C3F"/>
<path d="M345.393 143.285C350.868 142.879 356.619 143.648 362.739 144.533C365.946 144.982 369.321 145.621 372.547 146.491C372.104 146.331 371.661 146.215 371.219 146.041C366.371 144.387 360.712 143.314 357.191 140.006C353.301 136.351 350.979 131.52 348.453 127.182C346.204 123.193 344.397 119.014 343.77 114.691C341.245 116.664 340.195 119.319 338.185 121.727C339.752 122.728 341.171 123.816 342.388 125.02C346.425 129.082 350.61 138.686 345.393 143.285Z" fill="#EF495B"/>
<path d="M348.136 123.759C349.058 125.587 350.09 127.4 351.196 129.184C351.215 128.444 351.362 127.777 351.638 127.124C352.708 124.731 356.044 124.716 358.661 125.209C361.224 125.659 365.113 126.312 366.533 128.314C367.233 129.3 368.451 132.028 367.031 132.971C371.345 134.146 376.414 134.683 372.045 129.707C367.934 125.035 361.832 121.118 355.878 117.97C353.316 116.65 350.514 115.562 347.564 114.924C342.145 113.792 347.288 122.061 348.136 123.759Z" fill="#EE2C3F"/>
<path d="M354.628 128.096C357.559 129.504 360.582 130.838 363.734 131.941C364.435 132.217 365.357 132.521 366.315 132.782C367.071 131.651 367.126 129.823 365.652 129.054C364.951 128.677 364.011 128.532 363.292 128.387C361.541 127.98 359.772 127.676 358.002 127.458C356.73 127.255 355.568 127.545 354.628 128.096Z" fill="#EF495B"/>
<path d="M366.465 122.569C370.576 125.543 374.521 129.054 376.032 133.203C378.89 140.979 356.879 131.767 353.432 129.373C353.414 129.417 353.377 129.417 353.359 129.475C352.935 130.476 353.248 131.564 353.432 132.637C353.616 132.956 353.838 133.232 354.041 133.551C357.562 139.064 362.465 141.254 369.396 143.285C374.337 144.765 378.927 146.622 383.996 147.812C386.19 148.348 388.863 148.9 391.093 148.348C391.775 148.189 392.181 147.812 392.402 147.318C392.457 146.521 392.458 145.752 392.329 144.939C391.665 142.531 389.71 139.543 389.139 138.585C387.517 135.814 385.342 133.159 383.793 130.302C383.443 129.881 383.093 129.46 382.725 129.025C377.268 122.54 370.226 118.87 361.912 115.635C363.811 117.506 365.414 119.61 366.539 122.032C366.668 122.294 366.613 122.511 366.465 122.569Z" fill="#EE2C3F"/>
<path d="M382.022 149.465C380.547 149.103 379.091 148.639 377.635 148.203C380.658 149.422 383.404 150.974 385.597 152.962C386.961 152.962 388.215 152.57 389.432 151.961C390.243 151.54 390.98 151.003 391.644 150.394C389.118 151.163 384.916 150.22 382.022 149.465Z" fill="#EF495B"/>
<path d="M381.227 152.193C373.393 147.899 362.535 146.825 353.281 146.013C348.581 145.636 344.249 145.374 339.807 146.912C335.235 148.493 331.585 151.699 328.101 154.412C326.424 155.747 324.432 156.966 322.367 158.213C326.146 157.328 329.999 156.733 333.059 156.211C342.369 154.586 354.702 153.237 363.9 155.602C367.495 156.516 370.075 158.721 372.195 161.231C372.637 161.68 373.043 162.13 373.393 162.594C374.683 164.321 375.734 166.178 376.711 168.035C377.006 168.426 377.283 168.803 377.467 169.224C377.559 169.369 377.652 169.514 377.781 169.616C378.352 170.907 379.053 172.256 379.938 172.952C380.601 172.387 381.615 172.039 382.26 171.473C383.384 170.573 384.232 169.427 385.044 168.354C386.113 166.918 387.293 165.177 387.919 163.378C388.546 159.026 386.241 154.949 381.227 152.193Z" fill="#EF495B"/>
<path d="M344.305 143.372C346.407 140.398 345.983 136.539 345.448 133.246C344.601 127.719 338.978 124.469 333.577 121.728C331.033 120.451 328.305 119.493 325.577 118.521C324.286 118.057 319.346 116.273 314.479 115.054C319.715 117.172 324.175 121.031 327.696 124.716C332.489 129.779 338.554 138.353 336.895 145.2C339.273 144.228 341.761 143.677 344.305 143.372Z" fill="#EF495B"/>
<path d="M325.205 115.896C329.058 117.187 333.096 118.768 336.598 120.756C334.57 119.595 341.17 111.413 343.713 111.645C346.423 111.892 351.806 114.111 354.147 115.127C357.502 116.606 360.471 118.536 363.42 120.465C364.231 121.002 365.079 121.553 365.89 122.134C359.161 113.154 347.4 109.382 336.045 105.102C328.579 104.754 321.924 105.494 314.827 108.25C314.034 109.803 313.261 111.34 311.915 112.559C317.445 113.502 323.528 115.344 325.205 115.896Z" fill="#EE2C3F"/>
<path d="M330.297 102.897C324.803 100.997 319.919 100.503 316.656 105.117C320.103 103.289 325.356 102.621 330.297 102.897Z" fill="#EE2C3F"/>
<path d="M387.644 122.061C384.196 116.984 379.201 113.357 372.804 110.629C364.657 107.191 353.67 103.622 344.269 105.392C349.855 107.612 355.237 110.165 359.532 113.56C365.45 114.793 370.832 116.316 375.735 119.479C379.772 122.105 382.63 126.065 385.414 129.46C386.077 130.287 386.869 131.288 387.754 132.434C389.173 133.841 391.331 134.798 393.285 135.785C394.078 131.113 390.298 125.978 387.644 122.061Z" fill="#EE2C3F"/>
<path d="M401.282 167.193C403.457 163.508 403.199 157.749 402.904 153.789C402.517 147.928 399.55 141.878 394.094 137.816C392.435 136.569 390.664 135.669 389.226 134.509C393.319 140.355 397.061 148.044 389.908 153.368C389.079 154.006 388.139 154.47 387.181 154.659C387.715 155.283 388.194 155.936 388.618 156.617C390.738 160.186 390.682 164.292 389.189 168.078C393.318 169.442 399.291 170.544 401.282 167.193Z" fill="#EE2C3F"/>
<path d="M373.429 188.432C379.346 190.187 385.153 191.652 389.024 186.531C391.476 183.282 394.407 175.81 392.767 171.415C391.218 170.878 389.78 170.153 388.582 169.442C387.734 171.037 386.628 172.546 385.374 173.895C384.397 176.129 382.683 178.204 380.212 177.754C377.89 177.276 376.821 174.577 376.102 173.083C375.826 172.575 375.605 172.068 375.383 171.56C364.876 174.592 358.35 182.382 349.243 186.894C357.336 186.125 365.318 186.023 373.429 188.432Z" fill="#EE2C3F"/>
<path d="M309.907 174.998C309.981 175.085 310.055 175.244 310.092 175.389C310.663 175.912 311.234 176.434 311.787 176.913C312.082 177.159 312.432 177.435 312.764 177.682C322.073 182.15 331.622 189.345 342.664 186.618C349.024 185.008 354.443 179.872 359.218 176.405C363.66 173.126 368.435 170.443 374.149 168.934C373.006 166.511 371.698 164.204 369.578 162.043C367.9 160.752 366.001 159.548 364.545 158.257C364.066 158.097 363.605 157.894 363.089 157.749C356.508 156.066 347.089 157.241 340.434 157.908C333.54 158.605 326.811 160.084 320.322 161.985C317.631 162.797 314.847 163.668 312.524 165.002C311.049 166.352 309.888 167.86 309.206 169.529C309.188 169.587 309.114 169.616 309.096 169.645C308.598 171.69 308.746 173.837 309.907 174.998Z" fill="#EF495B"/>
<path d="M296.505 160.476C297.187 161.303 297.814 162.116 298.44 162.943C299.288 163.929 300.1 164.887 300.874 165.815C302.846 168.223 305.003 170.501 307.27 172.72C306.515 169.993 307.049 166.569 308.469 164.799C310.054 162.827 312.69 161.361 315.676 160.201C316.616 159.519 317.538 158.852 318.423 158.213C322.92 154.978 327.013 151.424 331.474 148.218C332.525 147.463 333.557 146.825 334.627 146.274C335.954 136.235 329.446 127.356 320.635 120.379C316.395 117.071 310.884 114.503 304.764 115.272C303.694 115.403 308.303 124.02 308.838 125.442C311.695 133.711 303.381 140.413 299.141 147.231C296.634 151.235 295.418 156.066 296.505 160.476Z" fill="#EF495B"/>
<path d="M293.998 128.067C296.118 133.435 294.331 139.47 293.003 144.823C292.137 148.42 291.694 151.351 292.597 154.267C293.021 155.355 293.612 156.443 294.294 157.531C294.146 156.066 294.201 154.557 294.552 152.831C295.658 147.071 299.013 142.487 302.847 137.627C306.626 132.84 308.561 128.415 306.146 122.873C305.261 120.886 304.192 118.927 303.252 116.983C303.178 116.925 303.05 116.809 302.957 116.708C300.432 112.805 303.234 111.804 307.621 112.022C307.658 111.63 307.621 111.282 307.511 110.89C307.363 110.615 307.234 110.368 307.012 110.122C306.091 108.772 304.745 107.844 302.883 107.365C301.058 106.915 299.179 106.727 297.427 106.277C293.261 106.727 289.224 108.236 288.063 110.876C285.851 115.736 292.21 123.367 293.998 128.067Z" fill="#EF495B"/>
<path d="M280.668 183.804C280.373 184.341 277.589 186.386 276.888 185.269C276.298 184.181 275.505 183.18 274.787 182.194C272.224 185.821 269.791 189.476 266.989 192.987C266.621 193.466 263.801 195.134 263.524 193.887C263.395 191.609 262.639 189.578 261.293 187.706C259.91 190.361 258.398 192.871 256.315 195.294C255.947 195.714 253.163 197.383 252.942 196.121C252.74 194.713 252.426 193.292 251.984 191.914C246.066 201.59 228.96 203.055 213.789 202.286C212.886 202.127 212.001 201.982 211.116 201.836C206.471 201.097 201.862 200.69 197.401 199.472C198.968 192.204 202.139 184.616 207.595 178.596C209.881 176.072 212.203 173.91 215.079 171.763C214.36 172.3 210.121 171.531 207.65 170.965C206.803 170.806 207.65 169.848 207.871 169.602C211.632 166.033 216.001 163.886 221.015 162.188C218.876 161.768 216.683 161.318 214.729 160.796C213.696 160.491 215.153 159.287 215.43 159.055C220.978 154.906 228.001 152.323 235.412 151.598C233.826 150.728 232.112 149.988 230.195 149.48C228.148 148.813 232.776 146.68 233.532 146.579C251.468 144.243 264.574 150.365 273.625 162.014C275.229 162.246 276.649 162.682 277.737 163.479C284.299 168.18 284.317 177.856 280.668 183.804Z" fill="#14552C"/>
<path d="M202.45 196.585C216.496 182.252 236.83 171.111 257.808 164.35C260.849 163.378 265.808 162.029 270.269 161.869C261.365 154.688 252.185 149.64 239.816 149.234C241.033 149.959 242.175 150.786 243.429 151.816C244.664 152.788 240.516 154.398 239.594 154.326C235.355 153.978 217.639 157.532 228.073 160.462C229.769 160.941 205.676 169.805 220.221 169.558C222.101 169.587 219.815 171.386 219.373 171.647C218.064 172.358 201.196 190.318 202.45 196.585Z" fill="#058545"/>
<path d="M278.435 180.191C279.393 175.506 279.062 169.456 275.596 166.946C266.969 160.795 252.425 167.904 244.222 171.705C228.756 178.857 215.575 187.692 204.054 198.398C204.441 198.543 204.773 198.659 205.308 198.732C216.644 199.588 248.129 202.155 250.305 187.88C250.415 187.155 253.42 185.24 253.899 186.284C253.936 186.357 253.936 186.415 253.992 186.488V186.531C254.784 188.33 255.337 190.143 255.817 191.986C257.199 189.824 258.269 187.59 259.448 185.24C259.743 184.602 262.139 182.991 262.932 183.905C264.72 185.936 265.66 187.677 266.379 189.636C268.812 186.255 271.099 182.832 273.551 179.452C273.938 178.9 276.371 177.392 277.071 178.306C277.643 178.915 277.974 179.582 278.435 180.191Z" fill="#007935"/>
<path d="M188.351 124.876C187.872 124.397 186.969 121.481 188.554 121.554C190.047 121.699 191.521 121.612 192.996 121.597C190.212 118.101 187.338 114.634 184.794 110.993C184.48 110.514 184.001 107.758 185.513 108.178C188.112 109.208 190.729 109.658 193.42 109.658C191.208 107.424 189.143 105.161 187.466 102.535C187.153 102.085 186.655 99.3434 188.167 99.8076C189.826 100.373 191.54 100.838 193.31 101.171C185.457 92.438 192.148 79.9328 200.37 69.8939C200.978 69.3571 201.605 68.8058 202.158 68.2691C205.255 65.4402 207.909 62.4662 211.467 60C218.767 64.6133 225.661 70.5032 229.699 77.191C231.394 79.9764 232.666 82.6457 233.643 85.6486C233.404 84.9088 236.316 82.3555 238.159 80.9193C238.786 80.4261 239.413 81.4706 239.542 81.7752C241.644 86.0694 241.902 90.1023 241.367 94.382C242.897 93.1489 244.446 91.8432 245.958 90.7842C246.806 90.2039 247.45 91.7707 247.561 92.1043C249.441 97.9217 248.943 103.986 246.086 109.44C247.874 108.788 249.534 107.975 251.008 106.916C252.741 105.828 252.87 110.05 252.612 110.615C246.455 124.078 233.294 130.099 215.947 130.693C214.933 131.651 213.771 132.42 212.333 132.782C203.946 134.973 193.163 130.258 188.351 124.876Z" fill="#14552C"/>
<path d="M212.223 64.8892C221.292 81.5144 223.744 100.91 221.09 118.653C220.684 121.191 219.781 125.253 217.79 128.431C230.067 125.805 240.168 121.946 246.602 113.648C245.219 114.126 243.727 114.504 241.975 114.881C240.279 115.229 240.537 111.617 241.09 111.022C243.505 108.28 248.188 94.3387 239.856 100.098C238.51 101.041 240.39 80.1652 233.588 90.2912C232.629 91.5678 231.725 89.1306 231.688 88.6664C231.504 87.4043 219.781 67.0797 212.223 64.8892Z" fill="#058545"/>
<path d="M193.404 125.108C198.179 128.039 205.036 130.766 209.497 129.562C220.539 126.646 219.747 113.184 219.507 105.712C219.046 91.5824 215.673 78.2213 209.424 65.1068C209.073 65.3099 208.76 65.4985 208.465 65.8177C201.976 73.2018 183.782 93.5989 198.584 102.028C199.34 102.448 200.004 105.451 198.584 105.248C198.492 105.248 198.418 105.205 198.363 105.205H198.325C195.911 104.856 193.625 104.363 191.358 103.841C193.053 105.814 195.026 107.613 197.054 109.586C197.626 110.108 198.271 112.545 196.852 112.632C193.699 112.864 191.321 112.719 188.796 112.226C191.358 115.534 194.068 118.769 196.63 122.105C197.035 122.628 197.533 125.036 196.169 125.108C195.247 125.181 194.344 125.079 193.404 125.108Z" fill="#007935"/>
<path d="M188.498 156.356C187.743 156.429 184.093 155.53 184.996 154.5C185.899 153.571 186.581 152.527 187.318 151.511C182.046 151.613 176.811 151.772 171.52 151.642C170.838 151.627 167.575 150.51 168.792 149.712C171.262 148.494 173.088 146.941 174.47 145.128C170.876 145.491 167.373 145.723 163.631 145.52C162.967 145.491 159.76 144.432 160.995 143.663C162.47 142.807 163.87 141.878 165.142 140.892C151.593 141.733 141.362 130.824 134.615 120.118C134.339 119.407 134.044 118.754 133.731 118.043C132.256 114.547 130.339 111.21 129.491 107.554C138.266 104.972 148.183 103.304 157.565 104.015C161.474 104.29 165.05 104.798 168.792 105.668C167.889 105.451 166.581 102.201 165.972 100.243C165.733 99.5465 167.207 99.648 167.613 99.706C173.383 100.489 177.917 102.346 182.286 104.914C181.714 103.26 181.124 101.548 180.7 99.9527C180.497 99.0677 182.526 99.4739 182.931 99.5465C190.287 101.258 196.627 104.711 201.144 109.411C201.365 107.888 201.254 106.35 200.849 104.798C200.591 103.072 205.236 105.132 205.715 105.596C217.273 116.665 217.144 128.619 208.886 140.66C209.42 141.864 209.661 143.053 209.329 144.156C207.486 150.974 196.849 155.805 188.498 156.356Z" fill="#14552C"/>
<path d="M135.207 109.498C157.973 111.892 180.443 120.132 198.417 131.027C200.997 132.594 204.961 135.306 207.413 138.251C210.86 128.604 211.782 119.813 206.03 111.21C205.809 112.4 205.477 113.575 204.997 114.938C204.518 116.287 200.667 114.271 200.298 113.604C198.547 110.543 185.735 100.257 187.781 108.831C188.094 110.238 166.249 98.2696 173.844 108.047C174.747 109.353 171.596 108.7 171.117 108.512C169.66 107.989 141.456 105.509 135.207 109.498Z" fill="#058545"/>
<path d="M191.32 153.02C196.96 151.322 203.448 148.044 204.462 144.431C206.932 135.481 191.799 129.155 183.503 125.485C167.853 118.565 151.52 113.995 133.989 111.529C134.026 111.877 134.044 112.153 134.284 112.545C139.04 120.698 151.98 143.401 168.755 137.729C169.622 137.439 173.235 138.527 172.332 139.368C172.24 139.426 172.203 139.456 172.148 139.528L172.13 139.543C170.544 140.993 168.849 142.27 167.079 143.532C170.12 143.387 173.088 143.024 176.277 142.633C177.143 142.502 180.129 143.343 179.502 144.344C178.138 146.55 176.756 148.102 174.931 149.538C179.871 149.509 184.756 149.335 189.733 149.306C190.526 149.277 193.365 150.205 192.756 151.148C192.351 151.83 191.78 152.381 191.32 153.02Z" fill="#007935"/>
<path d="M152.884 206.072C152.202 206.348 148.405 206.595 148.755 205.376C149.161 204.259 149.271 203.069 149.492 201.952C144.662 203.577 139.888 205.245 134.91 206.667C134.247 206.841 130.708 206.783 131.464 205.681C133.142 203.795 134.137 201.836 134.543 199.762C131.372 201.154 128.238 202.416 124.662 203.301C124.053 203.475 120.57 203.432 121.381 202.315C122.339 201.125 123.187 199.849 123.888 198.572C111.703 203.33 97.0481 196.164 85.7112 188.228C85.1213 187.663 84.5121 187.14 83.9222 186.589C80.8622 183.76 77.5255 181.192 75 178.073C81.9312 173.097 90.319 168.644 99.3701 166.54C103.149 165.655 106.689 165.075 110.597 164.799C109.62 164.843 106.891 162.203 105.379 160.563C104.845 160.012 106.283 159.664 106.67 159.591C112.421 158.648 117.51 159.011 122.782 160.128C121.473 158.735 120.09 157.343 118.947 155.994C118.376 155.225 120.44 154.978 120.864 154.964C128.459 154.398 135.999 155.747 142.414 158.793C141.879 157.285 141.105 155.906 139.962 154.572C138.893 153.049 144.201 153.614 144.846 153.905C160.81 160.781 166.377 171.922 164.386 185.487C165.437 186.459 166.231 187.474 166.47 188.649C167.945 195.482 160.369 203.127 152.884 206.072Z" fill="#14552C"/>
<path d="M81.2471 178.219C103.478 173.736 128.234 174.824 150.079 179.64C153.231 180.351 158.19 181.671 161.859 183.717C160.458 173.765 157.177 165.322 147.738 159.011C148.144 160.172 148.402 161.376 148.568 162.783C148.77 164.147 144.273 163.421 143.572 162.914C140.512 160.578 123.774 154.804 129.709 162.145C130.686 163.363 104.731 158.692 116.456 165.525C117.857 166.468 114.649 166.758 114.114 166.758C112.474 166.7 85.1551 172.677 81.2471 178.219Z" fill="#058545"/>
<path d="M153.937 202.126C158.343 198.906 162.822 193.973 162.029 190.347C160.057 181.294 143.043 179.829 133.623 178.857C115.816 177.043 98.5246 177.58 81.0676 180.453C81.252 180.728 81.4735 181.033 81.8237 181.323C90.0821 187.474 112.866 204.752 125.77 194.568C126.433 194.06 130.286 193.988 129.807 195.047C129.77 195.119 129.715 195.192 129.715 195.25L129.697 195.264C128.922 197.078 127.945 198.775 126.876 200.443C129.659 199.442 132.259 198.209 135.024 196.918C135.725 196.57 138.876 196.439 138.839 197.571C138.637 200.023 138.029 201.851 137.033 203.737C141.587 202.228 146.066 200.647 150.637 199.167C151.393 198.949 154.508 198.949 154.342 200.008C154.305 200.748 154.029 201.415 153.937 202.126Z" fill="#007935"/>
<path d="M187.909 196.904C187.153 196.904 183.597 195.845 184.555 194.844C185.569 193.959 186.343 192.929 187.154 191.986C181.864 191.827 176.647 191.696 171.411 191.275C170.729 191.217 167.521 189.97 168.848 189.215C171.411 188.098 173.365 186.691 174.877 184.921C171.282 185.11 167.743 185.168 164.037 184.733C163.411 184.689 160.277 183.441 161.623 182.731C163.153 181.991 164.61 181.135 165.974 180.192C152.369 180.322 143.115 168.876 137.308 157.836C137.087 157.125 136.847 156.429 136.589 155.762C135.409 152.135 133.806 148.726 133.29 145.026C142.267 142.923 152.258 141.777 161.586 142.995C165.438 143.489 168.996 144.142 172.665 145.23C171.743 144.983 170.729 141.646 170.286 139.644C170.139 138.977 171.596 139.122 171.983 139.224C177.679 140.297 182.048 142.415 186.196 145.201C185.753 143.518 185.274 141.777 185.034 140.167C184.905 139.311 186.896 139.789 187.302 139.92C194.472 142.009 200.537 145.795 204.574 150.742C204.925 149.205 204.98 147.681 204.722 146.114C204.611 144.359 209.072 146.695 209.496 147.174C220.095 158.823 218.897 170.762 209.625 182.324C210.031 183.528 210.196 184.733 209.772 185.864C207.321 192.523 196.297 196.802 187.909 196.904Z" fill="#14552C"/>
<path d="M138.781 147.304C161.308 150.887 183.005 160.317 200.02 172.126C202.453 173.838 206.176 176.754 208.333 179.844C212.591 170.371 214.288 161.666 209.274 152.759C208.997 153.948 208.535 155.094 207.927 156.444C207.356 157.735 203.706 155.53 203.43 154.848C201.918 151.729 190.01 140.747 191.319 149.408C191.522 150.829 170.746 137.729 177.474 147.913C178.249 149.263 175.189 148.421 174.71 148.189C173.309 147.623 145.399 143.663 138.781 147.304Z" fill="#058545"/>
<path d="M191.042 193.712C196.812 192.305 203.576 189.418 204.848 185.849C208.111 177.058 193.585 169.92 185.585 165.815C170.598 158.054 154.69 152.628 137.417 149.262C137.417 149.581 137.454 149.886 137.62 150.278C141.657 158.663 152.607 182.034 169.862 177.261C170.746 177.014 174.267 178.291 173.253 179.074C173.179 179.132 173.123 179.176 173.068 179.234C171.354 180.627 169.529 181.802 167.63 182.962C170.672 182.991 173.695 182.759 176.903 182.542C177.714 182.469 180.645 183.441 179.963 184.442C178.414 186.575 176.866 188.04 174.949 189.374C179.853 189.578 184.774 189.665 189.714 189.926C190.525 189.969 193.327 191.014 192.59 191.913C192.148 192.566 191.521 193.103 191.042 193.712Z" fill="#007935"/>
<path d="M175.371 241.427C175.094 241.963 172.274 243.994 171.611 242.863C171.002 241.775 170.228 240.803 169.491 239.773C166.929 243.414 164.476 247.07 161.693 250.61C161.342 251.045 158.485 252.728 158.227 251.465C158.098 249.188 157.342 247.157 155.978 245.329C154.596 247.926 153.14 250.479 151.02 252.916C150.651 253.337 147.868 255.005 147.647 253.743C147.462 252.307 147.149 250.9 146.688 249.565C140.771 259.198 123.683 260.678 108.512 259.909C107.608 259.749 106.724 259.604 105.82 259.444C101.175 258.705 96.5656 258.327 92.123 257.08C93.6899 249.812 96.8422 242.224 102.299 236.189C104.603 233.68 106.925 231.489 109.801 229.371C109.064 229.879 104.843 229.11 102.373 228.573C101.543 228.37 102.372 227.427 102.649 227.18C106.372 223.641 110.723 221.508 115.755 219.796C113.635 219.347 111.423 218.911 109.506 218.389C108.419 218.099 109.875 216.866 110.17 216.648C115.7 212.543 122.724 209.931 130.134 209.235C128.549 208.336 126.834 207.596 124.917 207.103C122.871 206.392 127.516 204.274 128.272 204.187C146.19 201.88 159.279 207.973 168.385 219.622C169.952 219.869 171.39 220.275 172.459 221.073C178.985 225.773 179.002 235.435 175.371 241.427Z" fill="#14552C"/>
<path d="M97.1764 254.164C111.205 239.874 131.538 228.733 152.535 221.943C155.539 220.957 160.498 219.608 165.014 219.434C156.092 212.253 146.894 207.19 134.543 206.812C135.759 207.538 136.902 208.35 138.156 209.38C139.391 210.381 135.262 211.977 134.358 211.875C130.118 211.556 112.385 215.096 122.8 218.027C124.514 218.491 100.421 227.398 114.984 227.137C116.864 227.152 114.542 228.965 114.081 229.226C112.754 229.951 95.9045 247.911 97.1764 254.164Z" fill="#058545"/>
<path d="M173.144 237.8C174.121 233.1 173.77 227.05 170.323 224.57C161.696 218.404 147.151 225.512 138.985 229.328C123.5 236.48 110.283 245.344 98.7991 256.007C99.1862 256.166 99.4994 256.297 100.052 256.34C111.389 257.196 142.875 259.793 145.051 245.503C145.18 244.763 148.165 242.834 148.626 243.893C148.663 243.98 148.681 244.053 148.736 244.111C149.529 245.939 150.082 247.752 150.561 249.58C151.944 247.418 153.033 245.213 154.212 242.834C154.489 242.225 156.904 240.6 157.678 241.528C159.447 243.574 160.443 245.3 161.125 247.259C163.54 243.879 165.825 240.44 168.296 237.075C168.664 236.523 171.116 235.029 171.853 235.943C172.351 236.509 172.683 237.205 173.144 237.8Z" fill="#007935"/>
<path d="M207.337 236.726C207.817 237.19 208.757 240.121 207.153 240.048C205.678 239.903 204.186 240.005 202.711 240.019C205.55 243.53 208.462 246.968 211.061 250.566C211.412 251.045 211.891 253.801 210.398 253.395C207.762 252.394 205.125 251.944 202.434 251.973C204.701 254.207 206.803 256.441 208.498 259.067C208.812 259.502 209.347 262.244 207.836 261.78C206.158 261.229 204.443 260.793 202.692 260.46C210.655 269.135 204.13 281.669 196.019 291.766C195.41 292.317 194.803 292.869 194.213 293.42C191.153 296.278 188.553 299.281 185.051 301.762C177.696 297.206 170.728 291.389 166.599 284.73C164.885 281.945 163.575 279.275 162.561 276.287C162.819 277.041 159.925 279.609 158.119 281.031C157.511 281.524 156.846 280.48 156.699 280.189C154.561 275.924 154.21 271.877 154.727 267.597C153.233 268.859 151.704 270.165 150.155 271.267C149.326 271.848 148.68 270.281 148.588 269.962C146.616 264.159 147.04 258.066 149.842 252.597C148.073 253.264 146.431 254.077 144.938 255.179C143.205 256.267 143.058 252.06 143.298 251.494C149.289 237.988 162.377 231.852 179.705 231.141C180.719 230.183 181.881 229.385 183.263 229.008C191.632 226.774 202.434 231.402 207.337 236.726Z" fill="#14552C"/>
<path d="M184.203 296.902C174.931 280.349 172.221 260.996 174.691 243.225C175.06 240.672 175.908 236.61 177.881 233.418C165.604 236.16 155.538 240.092 149.197 248.433C150.635 247.955 152.091 247.548 153.806 247.171C155.52 246.808 155.317 250.421 154.764 251.016C152.405 253.772 147.852 267.728 156.147 261.91C157.493 260.967 155.871 281.872 162.525 271.674C163.447 270.397 164.387 272.82 164.442 273.284C164.645 274.532 176.645 294.769 184.203 296.902Z" fill="#058545"/>
<path d="M202.269 236.523C197.495 233.636 190.563 230.981 186.121 232.185C175.115 235.188 176.111 248.622 176.461 256.108C177.051 270.223 180.59 283.584 187.042 296.641C187.355 296.452 187.688 296.264 187.983 295.901C194.379 288.488 212.316 267.96 197.384 259.633C196.647 259.183 195.928 256.224 197.347 256.398C197.439 256.398 197.531 256.427 197.605 256.427L197.624 256.441C200.039 256.775 202.343 257.225 204.592 257.791C202.859 255.803 200.886 253.99 198.785 252.06C198.25 251.553 197.569 249.115 199.007 249.014C202.122 248.767 204.5 248.927 207.025 249.376C204.426 246.098 201.661 242.863 199.062 239.57C198.638 239.033 198.103 236.625 199.504 236.552C200.426 236.465 201.329 236.581 202.269 236.523Z" fill="#007935"/>
<path d="M300.357 197.847C300.799 198.312 301.74 201.242 300.154 201.169C298.68 201.039 297.186 201.14 295.693 201.14C298.569 204.637 301.463 208.089 304.044 211.702C304.394 212.18 304.91 214.937 303.38 214.516C300.763 213.515 298.163 213.08 295.454 213.109C297.703 215.328 299.841 217.577 301.518 220.174C301.813 220.624 302.367 223.365 300.873 222.901C299.196 222.364 297.481 221.9 295.711 221.552C303.656 230.227 297.131 242.79 289.038 252.902C288.43 253.453 287.84 253.99 287.25 254.541C284.209 257.399 281.573 260.388 278.033 262.868C270.66 258.299 263.71 252.51 259.599 245.837C257.885 243.066 256.576 240.397 255.543 237.423C255.783 238.148 252.945 240.716 251.101 242.167C250.511 242.645 249.829 241.63 249.719 241.325C247.562 237.031 247.23 232.998 247.728 228.719C246.198 229.981 244.686 231.286 243.138 232.374C242.327 232.969 241.663 231.388 241.57 231.069C239.616 225.266 240.04 219.173 242.824 213.689C241.054 214.385 239.432 215.198 237.958 216.286C236.206 217.359 236.04 213.152 236.28 212.616C242.271 199.095 255.34 192.958 272.687 192.262C273.701 191.29 274.862 190.521 276.282 190.144C284.632 187.881 295.417 192.494 300.357 197.847Z" fill="#14552C"/>
<path d="M277.222 258.023C267.95 241.485 265.221 222.089 267.691 204.332C268.041 201.793 268.926 197.731 270.862 194.54C258.585 197.267 248.539 201.213 242.216 209.569C243.617 209.09 245.073 208.67 246.805 208.292C248.483 207.915 248.318 211.556 247.783 212.137C245.424 214.922 240.852 228.864 249.129 223.046C250.474 222.103 248.833 243.008 255.488 232.824C256.465 231.547 257.369 233.985 257.424 234.434C257.609 235.653 269.609 255.89 277.222 258.023Z" fill="#058545"/>
<path d="M295.249 197.674C290.456 194.787 283.544 192.132 279.12 193.307C268.096 196.324 269.093 209.773 269.424 217.273C270.014 231.374 273.571 244.735 280.023 257.777C280.355 257.603 280.669 257.429 280.964 257.066C287.36 249.653 305.296 229.125 290.383 220.769C289.627 220.363 288.908 217.36 290.291 217.563C290.401 217.563 290.494 217.592 290.568 217.592C293.001 217.911 295.287 218.375 297.573 218.912C295.84 216.954 293.868 215.14 291.748 213.196C291.232 212.703 290.549 210.28 291.95 210.15C295.066 209.903 297.462 210.048 299.969 210.541C297.37 207.263 294.604 204.028 292.024 200.72C291.618 200.198 291.084 197.79 292.467 197.717C293.407 197.601 294.346 197.703 295.249 197.674Z" fill="#007935"/>
<path d="M206.952 239.831C206.694 247.36 212.316 253.554 218.27 259.053C218.713 259.444 220.666 260.431 220.206 259.14C217.883 252.336 222.104 247.229 222.712 240.686C223.155 235.638 230.069 242.485 232.225 244.139C234.05 245.561 235.856 246.867 237.828 248.158C238.418 248.549 239.396 248.506 239.101 247.751C237.239 243.095 235.027 236.77 229.699 233.883C237.515 232.925 245.129 232.693 251.931 236.77C253.479 237.742 254.42 236.871 253.793 235.594C251.433 230.517 245.792 226.498 239.359 224.627C235.248 223.437 231.488 222.843 227.193 223.873C226.529 224.018 225.976 224.25 225.423 224.497C225.128 224.322 224.796 224.25 224.519 224.308C217.699 226.644 207.191 233.259 206.952 239.831Z" fill="#007935"/>
<path d="M132.812 235.696C131.097 234.274 130.894 231.881 131.539 229.487C131.392 229.458 131.337 229.342 131.392 229.24C132.277 226.919 132.885 224.801 134.987 223.365C133.143 223.771 131.392 224.134 129.825 224.032C125.364 223.786 123.558 220.492 122.876 217.417C120.996 208.335 134.194 199.08 141.53 192.755C141.696 189.578 143.742 186.488 146.047 183.789C150.176 178.813 155.006 174.026 161.402 170.747C166.619 168.064 173.053 167.15 179.081 166.482C182.528 166.149 188.096 165.51 191.322 167.266C191.746 166.99 192.15 166.685 192.611 166.468C195.155 165.061 198.713 164.451 201.7 163.958C207.414 163.059 213.312 163.682 218.916 164.77C223.119 165.583 231.322 167.179 233.313 170.675C234.364 172.445 233.442 174.432 231.875 176.159C234.788 176.057 238.124 177.145 240.429 177.798C244.742 179.074 252.522 181.628 253.794 185.646C255.398 190.68 248.945 194.8 246.272 198.877C242.328 204.839 241.664 211.353 239.931 217.707C239.581 218.345 239.361 219.056 239.231 219.869C239.231 219.999 239.231 220.115 239.194 220.202C239.176 220.246 239.176 220.304 239.139 220.347C236.264 223.481 234.254 227.093 231.323 230.125C227.691 232.852 223.12 235.087 218.272 236.958C217.829 237.118 217.332 237.234 216.871 237.422C216.723 237.524 216.557 237.654 216.391 237.785C216.299 237.843 215.894 237.886 215.82 237.799C213.977 238.467 212.096 239.091 210.234 239.656C205.57 241.615 201.202 243.182 196.372 243.356C194.879 243.747 193.238 244.197 191.579 244.444C188.574 245.068 185.515 245.271 182.399 244.444C176.814 243.051 171.707 240.643 166.325 238.916C160.315 237.002 155.153 237.321 148.978 237.843C143.742 238.278 136.757 239.004 132.812 235.696Z" fill="#9A0032"/>
<path d="M125.974 217.141C126.804 226.919 139.045 220.362 143.469 221.276C143.672 220.971 143.819 220.666 144.04 220.362C140.962 217.17 134.989 216.038 131.708 212.905C128.095 209.467 133.182 205.056 135.947 202.518C138.049 200.588 140.132 198.572 142.344 196.584C141.883 195.743 141.68 194.858 141.607 193.988C135.966 201.589 125.089 207.523 125.974 217.141Z" fill="#EE2C3F"/>
<path d="M187.746 203.403C188.575 199.442 190.861 195.554 193.35 191.434C194.677 189.258 196.226 187.024 198.014 184.95C197.719 185.24 197.442 185.515 197.165 185.806C194.068 188.794 191.507 192.595 186.861 194.249C181.681 196.106 175.634 196.613 170.049 197.324C164.961 197.992 159.763 198.224 154.638 197.614C156.26 199.878 159.062 201.285 161.348 203.258C162.878 202.431 164.464 201.676 166.123 201.111C171.727 199.239 183.709 198.586 187.746 203.403Z" fill="#EF495B"/>
<path d="M166.068 196.73C168.372 196.527 170.676 196.222 172.981 195.86C172.188 195.671 171.414 195.453 170.769 195.062C168.28 193.713 169.092 191.333 170.253 189.651C171.415 187.895 173.073 185.313 175.746 184.82C177.055 184.559 180.447 184.341 181.184 185.574C183.562 182.803 185.387 179.321 178.677 181.222C172.336 183.021 166.382 186.357 161.331 189.825C159.174 191.304 157.257 193.031 155.837 194.96C153.201 198.558 163.893 196.933 166.068 196.73Z" fill="#EE2C3F"/>
<path d="M172.574 193.176C174.916 191.464 177.146 189.592 179.173 187.677C179.653 187.257 180.225 186.647 180.815 186.024C179.709 185.24 177.57 184.761 176.335 185.617C175.763 185.98 175.358 186.633 175.008 187.126C174.123 188.243 173.386 189.447 172.667 190.622C172.151 191.478 172.169 192.392 172.574 193.176Z" fill="#EF495B"/>
<path d="M169.125 183.441C173.513 181.265 178.509 179.336 183.597 179.263C193.201 179.132 177.274 192.508 173.716 194.365C173.753 194.394 173.771 194.437 173.826 194.437C174.877 194.974 176.186 195.018 177.495 195.163C177.864 195.061 178.305 195.018 178.729 194.945C185.845 193.77 189.513 190.811 193.551 186.415C196.371 183.281 199.671 180.453 202.288 177.159C203.431 175.723 204.703 173.982 204.63 172.256C204.593 171.719 204.26 171.357 203.744 171.095C202.859 170.878 201.938 170.675 201.035 170.588C198.067 170.457 194.178 171.124 192.961 171.255C189.403 171.777 185.827 172.662 182.177 173.025C181.605 173.185 181.033 173.344 180.462 173.489C171.724 175.781 165.752 179.887 160.093 184.993C162.729 184.108 165.494 183.47 168.554 183.223C168.849 183.209 169.088 183.354 169.125 183.441Z" fill="#EE2C3F"/>
<path d="M203.709 178.958C202.898 179.901 202.049 180.83 201.201 181.758C203.321 179.901 205.755 178.335 208.557 177.276C208.852 176.304 208.778 175.317 208.354 174.302C208.059 173.605 207.598 172.967 207.1 172.358C207.321 174.345 205.239 177.087 203.709 178.958Z" fill="#EF495B"/>
<path d="M206.603 180.191C199.782 184.688 195.947 192.131 192.758 198.499C191.173 201.705 189.847 204.723 190.51 208.248C191.192 211.86 194.012 215.211 196.261 218.345C197.367 219.868 198.308 221.58 199.211 223.364C199.156 220.434 199.395 217.576 199.543 215.269C199.948 208.306 201.404 199.196 206.344 193.262C208.28 190.956 211.377 189.65 214.806 188.75C215.414 188.547 215.986 188.359 216.631 188.214C218.954 187.735 221.294 187.474 223.672 187.184C224.151 187.097 224.686 186.995 225.202 186.937C225.405 186.923 225.571 186.893 225.719 186.835C227.341 186.763 229.037 186.56 230.05 186.081C229.571 185.486 229.388 184.703 228.964 184.065C228.171 183.078 227.101 182.179 226.051 181.352C224.686 180.264 222.972 179.016 221.073 178.102C216.225 176.622 210.99 177.304 206.603 180.191Z" fill="#EF495B"/>
<path d="M187.597 204.216C184.629 201.996 180.149 201.372 176.26 200.937C169.697 200.212 164.628 203.389 160.167 206.566C158.103 208.046 156.333 209.743 154.563 211.455C153.734 212.253 150.526 215.328 147.908 218.491C151.613 215.27 157.125 213.065 162.176 211.484C169.144 209.308 180.407 207.045 187.836 209.902C187.302 207.973 187.302 206.073 187.597 204.216Z" fill="#EF495B"/>
<path d="M151.506 211.063C153.902 208.655 156.686 206.217 159.819 204.201C157.994 205.361 150.233 198.674 151.137 196.947C152.077 195.09 155.894 191.812 157.626 190.434C160.17 188.388 163.064 186.734 165.995 185.138C166.806 184.674 167.653 184.239 168.52 183.789C156.575 186.357 149.423 193.785 141.754 200.792C139.542 206 138.749 210.874 140.224 216.59C141.791 217.518 143.34 218.447 144.446 219.724C146.842 216.01 150.437 212.122 151.506 211.063Z" fill="#EE2C3F"/>
<path d="M137.863 204.331C134.323 207.755 132.59 211.106 137.051 214.544C135.816 211.643 136.351 207.755 137.863 204.331Z" fill="#EE2C3F"/>
<path d="M173.66 168.31C167.043 169.543 161.64 172.198 156.995 176.071C151.041 181.047 144.368 187.967 144.073 195.017C147.999 191.608 152.203 188.402 157.144 186.168C160.001 182.309 163.024 178.842 167.854 176.129C171.835 173.91 176.997 172.822 181.587 171.705C182.711 171.429 184.075 171.11 185.587 170.762C187.559 170.123 189.144 168.789 190.785 167.657C185.586 165.989 178.84 167.381 173.66 168.31Z" fill="#EE2C3F"/>
<path d="M228.633 169.63C224.983 167.193 218.31 165.989 213.702 165.205C206.9 164.074 199.286 164.683 193.295 167.585C191.452 168.455 189.977 169.471 188.318 170.196C196.005 168.774 205.701 167.976 210.07 174.33C210.604 175.056 210.918 175.854 210.881 176.565C211.766 176.318 212.577 176.129 213.535 175.984C218.088 175.36 222.771 176.419 226.734 178.392C229.241 175.796 231.988 171.864 228.633 169.63Z" fill="#EE2C3F"/>
<path d="M246.161 194.496C249.626 190.724 252.723 186.995 247.819 183.006C244.704 180.467 236.87 176.579 231.414 176.681C230.4 177.638 229.238 178.523 228.114 179.176C229.755 180.133 231.193 181.294 232.428 182.556C234.787 183.731 236.741 185.487 235.561 187.111C234.492 188.664 231.155 188.736 229.275 188.91C228.611 188.954 227.967 188.997 227.34 189.026C228.262 197.194 235.58 203.751 238.529 211.266C239.598 205.347 241.46 199.675 246.161 194.496Z" fill="#EE2C3F"/>
<path d="M215.414 236.291C215.543 236.247 215.746 236.218 215.912 236.218C216.613 235.928 217.332 235.696 218.069 235.42C218.438 235.217 218.806 235.058 219.156 234.898C226.548 229.4 237.093 224.366 236.613 215.879C236.337 210.976 231.784 205.898 228.964 201.691C226.291 197.702 224.391 193.698 224.004 189.273C220.981 189.52 218.069 189.882 215.046 190.854C213.166 191.71 211.322 192.769 209.479 193.466C209.166 193.785 208.833 194.075 208.538 194.394C204.999 198.63 204.114 205.608 203.248 210.482C202.345 215.531 202.437 220.666 203.045 225.744C203.267 227.833 203.635 230.038 204.576 232.011C205.811 233.36 207.192 234.579 208.98 235.478C209.073 235.493 209.092 235.507 209.092 235.507C211.285 236.407 213.81 236.827 215.414 236.291Z" fill="#EF495B"/>
<path d="M195.563 242.209C196.65 241.963 197.719 241.716 198.807 241.484C200.152 241.136 201.443 240.759 202.678 240.454C205.886 239.613 209.074 238.655 212.153 237.596C208.835 237.466 205.057 236.232 203.379 234.811C201.48 233.2 200.447 230.995 199.857 228.587C199.286 227.775 198.752 226.977 198.199 226.135C195.618 222.204 192.539 218.447 189.959 214.472C189.332 213.601 188.871 212.687 188.503 211.802C177.332 208.451 165.57 210.859 155.487 215.415C150.639 217.634 146.4 220.898 145.773 225.439C145.681 226.222 156.666 225.047 158.436 225.033C168.556 224.989 174.235 232.548 180.963 237.204C184.927 239.903 190.235 241.934 195.563 242.209Z" fill="#EF495B"/>
<path d="M157.826 236.145C164.518 235.971 170.969 238.67 176.758 240.889C180.703 242.413 183.947 243.399 187.505 243.501C188.832 243.457 190.233 243.297 191.634 243.08C189.92 242.833 188.187 242.442 186.289 241.789C179.984 239.584 175.523 236.073 170.896 232.185C166.361 228.37 161.771 225.903 154.784 226.266C152.296 226.411 149.845 226.73 147.356 226.875C147.264 226.933 147.153 226.977 146.987 227.02C141.918 227.876 141.42 225.671 142.766 222.581C142.342 222.494 141.918 222.436 141.457 222.378C141.107 222.422 140.757 222.451 140.443 222.538C138.692 222.871 137.29 223.597 136.295 224.815C135.318 225.976 134.674 227.267 133.715 228.399C133.236 231.46 133.973 234.666 136.701 236.16C141.752 238.916 152.038 236.291 157.826 236.145Z" fill="#EF495B"/>
<path d="M303.822 297.091C303.527 297.671 300.688 299.876 299.933 298.715C299.306 297.598 298.384 296.597 297.573 295.582C295.121 299.426 292.725 303.314 289.979 307.042C289.61 307.55 286.734 309.393 286.402 308.072C286.144 305.722 285.259 303.604 283.785 301.704C282.458 304.518 281.019 307.173 278.917 309.799C278.586 310.205 275.765 312.047 275.452 310.756C275.231 309.262 274.808 307.797 274.273 306.39C268.595 316.632 250.806 318.677 234.934 318.3C234.049 318.169 233.09 318.053 232.169 317.908C227.284 317.299 222.473 317.009 217.773 315.834C219.063 308.217 221.975 300.239 227.413 293.783C229.699 291.07 232.003 288.749 234.879 286.442C234.179 287.023 229.681 286.312 227.1 285.833C226.215 285.673 227.063 284.629 227.302 284.397C231.045 280.596 235.468 278.188 240.612 276.302C238.399 275.881 236.096 275.533 234.05 275.011C232.889 274.72 234.345 273.429 234.677 273.183C240.262 268.685 247.414 265.799 255.175 264.841C253.461 263.971 251.635 263.26 249.626 262.781C247.469 262.143 252.207 259.793 252.981 259.662C271.6 256.717 285.462 262.723 295.546 274.575C297.186 274.764 298.661 275.17 299.877 275.939C306.827 280.668 307.288 290.751 303.822 297.091Z" fill="#14552C"/>
<path d="M222.86 312.686C236.796 297.337 257.533 285.137 279.064 277.448C282.124 276.36 287.249 274.779 291.931 274.474C282.327 267.235 272.447 262.245 259.561 262.187C260.87 262.97 262.087 263.768 263.433 264.812C264.778 265.799 260.538 267.554 259.561 267.525C255.174 267.293 236.814 271.5 247.875 274.271C249.626 274.721 224.961 284.673 240.096 283.933C242.068 283.933 239.763 285.877 239.32 286.167C237.975 286.994 221.256 306.216 222.86 312.686Z" fill="#058545"/>
<path d="M301.314 293.391C302.088 288.43 301.444 282.177 297.701 279.667C288.429 273.502 273.607 281.365 265.238 285.543C249.44 293.464 236.094 303.038 224.628 314.542C225.015 314.688 225.403 314.804 225.956 314.833C237.827 315.427 270.806 317.168 272.336 302.226C272.428 301.486 275.47 299.383 276.023 300.456C276.059 300.529 276.06 300.601 276.115 300.674C277.055 302.574 277.737 304.402 278.309 306.302C279.636 304.025 280.649 301.675 281.792 299.208C282.032 298.512 284.447 296.757 285.35 297.729C287.285 299.774 288.392 301.53 289.203 303.604C291.545 299.977 293.775 296.351 296.171 292.753C296.54 292.172 299.01 290.519 299.821 291.462C300.43 292.042 300.798 292.738 301.314 293.391Z" fill="#007935"/>
</svg>
