<svg width="480" height="620" viewBox="0 0 480 620" fill="none" xmlns="http://www.w3.org/2000/svg">
<rect width="480" height="620" fill="#FFF9F9" fill-opacity="0.82"/>
<path d="M375.337 266.451C375.337 266.451 382.672 258.398 397.335 260.15C411.999 261.901 410.332 272.403 419.666 278.355C429 284.306 435 278.704 435 278.704C435 278.704 429.333 293.057 413.334 284.656C402.66 279.053 401.003 271.355 390.001 274.852C378.999 278.355 377.669 280.804 377.669 280.804L375.337 266.451Z" fill="#7A663A"/>
<path d="M212.977 416.227C305.748 416.227 380.954 354.168 380.954 277.614C380.954 201.059 305.748 139 212.977 139C120.206 139 45 201.059 45 277.614C45 354.168 120.206 416.227 212.977 416.227Z" fill="#336A2C"/>
<path d="M212.977 416.227C305.748 416.227 380.954 354.168 380.954 277.614C380.954 201.059 305.748 139 212.977 139C120.206 139 45 201.059 45 277.614C45 354.168 120.206 416.227 212.977 416.227Z" fill="#204D1C"/>
<path d="M45 277.614C45 305.886 53.5736 332.181 69.6731 354.105C94.7543 366.453 125.462 373.553 161.031 373.553C266.232 373.553 329.008 311.495 329.008 234.94C329.008 206.667 320.435 180.372 304.335 158.448C279.254 146.1 248.546 139 212.977 139C107.776 139 45 201.059 45 277.614Z" fill="#286123"/>
<path d="M374.833 274.408C371.866 274.408 359.998 277.418 359.998 277.418H347.143C347.143 277.418 337.254 256.335 341.209 271.392C345.163 286.454 347.143 283.439 345.163 286.454C343.184 289.465 333.3 285.449 324.399 287.46C315.498 289.465 312.536 298.501 311.544 291.475C310.556 284.449 315.498 277.418 312.531 278.423C309.564 279.428 303.63 285.449 301.655 288.465C299.676 291.475 294.734 295.491 294.734 295.491L281.878 291.475L278.911 295.491L270.01 298.501C270.01 298.501 262.102 293.48 262.102 290.47C262.102 287.46 258.147 274.408 261.114 272.397C264.081 270.392 273.97 264.366 279.904 269.387C285.838 274.408 290.78 263.361 295.726 269.387C300.668 275.413 298.693 271.397 300.668 275.413C302.648 279.428 306.602 262.361 316.49 266.377C326.379 270.392 314.511 273.402 326.379 276.418C338.242 279.428 326.379 257.34 336.267 260.356C346.156 263.366 360.986 267.382 366.92 267.382C372.854 267.382 374.833 274.408 374.833 274.408Z" fill="#678739"/>
<path d="M316.495 266.371C306.607 262.356 302.653 279.423 300.673 275.408C298.693 271.392 300.673 275.408 295.731 269.382C290.785 263.356 285.843 274.402 279.909 269.382C273.975 264.361 264.086 270.387 261.119 272.392C258.152 274.402 262.107 287.454 262.107 290.465C262.107 293.475 270.015 298.496 270.015 298.496L278.916 295.486L281.884 291.47L294.739 295.486C294.739 295.486 299.681 291.47 301.66 288.46C303.64 285.449 309.569 279.423 312.536 278.418C315.503 277.413 310.556 284.444 311.549 291.47C312.128 295.591 313.387 294.189 316.123 291.92C318.747 286.523 320.974 280.942 322.812 275.207C317.296 272.583 325.069 269.858 316.495 266.371Z" fill="#96BD5D"/>
<path d="M248.944 265.847C245.664 265.847 234.728 258.954 231.449 259.938C228.17 260.922 207.39 264.863 207.39 264.863C207.39 264.863 222.699 272.741 217.233 277.666C211.768 282.592 200.832 273.725 200.832 273.725C200.832 273.725 196.459 258.954 192.087 259.938C187.714 260.922 176.778 265.847 176.778 265.847L153.818 276.682L150.538 267.821C150.538 267.821 127.578 257.969 126.485 261.911C125.392 265.852 111.176 271.762 108.99 266.837C106.804 261.911 123.205 258.959 106.804 261.911C90.4018 264.863 66.3432 279.64 66.3432 267.821C66.3432 256.001 57.5983 253.049 53.2208 254.033C51.8808 254.335 49.5183 254.726 46.8787 255.128C45.6445 262.451 45.0048 269.958 45.0048 277.619C45.0048 285.153 45.6244 292.544 46.8183 299.749C52.8178 302.363 60.9834 304.04 68.5294 299.331C82.7449 290.47 81.6519 271.757 89.3037 283.576C96.9555 295.395 79.4606 285.544 96.9554 295.395C114.45 305.246 123.2 301.305 125.386 292.443C127.573 283.581 127.573 277.672 134.136 288.502C140.695 299.337 152.724 307.214 158.19 301.305C163.656 295.395 154.911 285.549 174.592 286.533C194.273 287.517 183.337 289.486 189.9 295.395C196.459 301.305 183.342 306.23 213.959 298.353C244.576 290.475 244.576 289.491 244.576 289.491C244.576 289.491 234.733 278.656 239.111 277.672C243.478 276.677 252.223 265.847 248.944 265.847Z" fill="#96BD5D"/>
<path d="M375.09 238.379C355.404 231.818 319.729 206.931 326.001 217.909C332.287 228.914 326.298 236.717 318.833 228.295C311.362 219.877 313.508 201.027 308.773 210.513C304.033 220.004 291.842 221.925 286.86 216.026C281.878 210.127 278.267 213.613 270.932 213.74C263.598 213.867 253.619 201.217 243.831 200.535C234.043 199.852 183.75 188.763 199.809 199.599C215.873 210.434 224.548 217.973 206.111 211.46C187.674 204.942 177.705 193.149 165.525 195.927C153.344 198.704 165.716 207.894 158.422 210.587C151.133 213.28 150.831 194.472 139.834 194.668C128.837 194.858 116.793 206.191 113.156 207.963C109.519 209.735 98.5475 211.64 98.5072 209.074C98.4669 206.508 82.4984 201.662 82.4984 201.662C82.4984 201.662 77.9093 220.555 56.0772 231.199C54.838 231.802 53.7198 232.379 52.6871 232.935C51.4731 236.294 50.4001 239.717 49.4682 243.188C57.5834 239.701 76.1613 232.554 92.7646 232.263C114.763 231.876 103.464 213.264 121.901 219.782C140.338 226.3 153.798 226.919 162.351 226.766C170.905 226.612 172.043 221.465 189.205 224.586C206.368 227.702 208.841 229.369 223.545 231.681C238.25 233.987 222.039 213.751 238.018 219.454C254.001 225.157 252.802 226.887 257.8 233.644C262.797 240.394 274.771 224.792 284.684 233.173C294.598 241.548 310.481 241.267 316.621 242.87C322.757 244.473 356.88 237.887 356.92 240.452C356.961 243.018 368.149 254.79 368.149 254.79C369.65 254.414 374.43 252.679 378.178 250.314C377.337 246.272 376.304 242.294 375.09 238.379Z" fill="#678739"/>
<path d="M326.001 217.914C332.288 228.919 326.298 236.722 318.833 228.3C311.362 219.883 313.508 201.032 308.773 210.518C304.033 220.01 291.842 221.93 286.86 216.031C281.878 210.132 278.267 213.618 270.932 213.745C263.598 213.872 253.619 201.223 243.831 200.54C234.043 199.858 183.75 188.768 199.809 199.604C215.873 210.439 224.548 217.978 206.111 211.465C187.674 204.947 177.705 193.154 165.525 195.932C153.344 198.71 165.716 207.899 158.422 210.592C151.133 213.285 150.831 194.477 139.834 194.673C128.837 194.863 116.793 206.196 113.156 207.968C109.519 209.741 98.5475 211.645 98.5072 209.079C98.4669 206.513 82.4984 201.667 82.4984 201.667C82.4984 201.667 77.9093 220.56 56.0772 231.204C54.838 231.808 53.7198 232.384 52.6871 232.94C52.128 234.49 51.604 236.061 51.1053 237.638C51.0247 237.897 50.9391 238.162 50.8585 238.421C50.3699 240.003 49.9014 241.59 49.4733 243.193C57.5885 239.706 76.1663 232.559 92.7696 232.268C114.768 231.882 103.469 213.269 121.906 219.787C140.343 226.305 153.803 226.924 162.356 226.771C170.91 226.617 172.048 221.47 189.21 224.591C206.373 227.707 208.846 229.374 223.55 231.686C238.255 233.992 222.044 213.756 238.023 219.459C254.006 225.163 252.808 226.892 257.805 233.649C262.802 240.399 274.776 224.797 284.689 233.178C294.603 241.553 310.486 241.272 316.626 242.875C318.556 243.378 323.266 243.071 328.802 242.494C328.938 239.992 329.013 237.474 329.013 234.94C329.013 228.289 328.52 221.761 327.588 215.359C325.326 214.772 324.565 215.407 326.001 217.914Z" fill="#96BD5D"/>
<path d="M331.834 175.796C327.139 173.452 322.792 171.098 318.344 170.363C308.843 168.786 291.847 167.215 293.847 170.363C295.847 173.516 300.844 172.463 308.843 176.664C316.843 180.864 311.846 180.865 320.842 185.589C329.839 190.314 325.839 187.689 337.34 188.213C342.79 188.462 345.883 189.774 347.999 190.97C343.118 185.568 337.723 180.494 331.834 175.796Z" fill="#678739"/>
<path d="M311.508 169.4C302.461 168.331 292.265 167.882 293.842 170.358C295.842 173.511 300.839 172.458 308.838 176.659C316.274 180.563 312.486 180.838 319.135 184.653C316.954 179.404 314.395 174.32 311.508 169.4Z" fill="#96BD5D"/>
<path d="M296.341 178.764C288.341 174.563 281.345 164.585 279.345 163.014C277.345 161.437 274.846 184.018 263.845 170.892C252.843 157.766 248.848 149.364 245.347 154.089C241.846 158.813 244.849 157.237 227.847 155.136C210.851 153.036 195.85 154.613 199.351 159.861C202.852 165.109 198.852 163.009 218.851 168.786C238.849 174.563 239.846 168.786 249.846 175.611C259.845 182.436 264.343 184.536 274.343 182.965C284.342 181.388 278.342 177.711 283.843 183.489C289.344 189.261 296.341 178.764 296.341 178.764Z" fill="#96BD5D"/>
<path d="M103.454 183.404C116.526 183.997 126.137 170.633 128.203 171.527C130.268 172.421 137.895 173.95 146.408 173.833C154.921 173.717 148.186 170.542 151.566 161.337C154.946 152.131 157.122 161.972 158.8 164.474C160.477 166.982 169.952 173.632 172.733 170.262C175.509 166.892 177.181 162.03 179.71 162.363C182.239 162.697 183.312 171.04 192.716 169.278C202.121 167.516 190.827 163.628 191.462 158.316C192.102 153.004 193.704 154.459 187.825 149.116C187.825 149.116 176.934 148.354 167.736 143.19C134.393 149.692 107.066 163.421 86.7297 182.108C91.3087 182.595 97.278 183.124 103.454 183.404Z" fill="#96BD5D"/>
<path d="M344.08 307.167C327.638 311.251 324.419 302.675 320.319 311.764C316.218 320.853 313.14 324.985 304.274 322.181C295.414 319.377 271.108 325.969 276.74 330.466C282.372 334.963 286.759 341.016 296.26 343.286C305.756 345.555 319.044 333.868 328.232 331.265C337.421 328.668 334.171 319.6 352.951 320.732C371.73 321.864 373.277 304.146 377.332 304.844C377.574 304.886 377.856 304.923 378.163 304.966C379.085 300.532 379.785 296.019 380.248 291.443C371.781 297.612 358.814 303.506 344.08 307.167Z" fill="#678739"/>
<path d="M276.74 330.461C278.538 331.9 280.211 333.493 281.964 335.075C287.042 330.863 291.726 326.366 296.018 321.615C285.611 322.367 272.438 327.022 276.74 330.461Z" fill="#96BD5D"/>
<path d="M268.011 337.514C261.346 334.011 267.346 323.51 261.346 316.51C261.346 316.51 260.011 317.912 252.682 315.812C245.347 313.711 248.017 329.112 240.018 323.515C232.018 317.912 230.018 318.616 205.355 327.716C180.692 336.815 191.356 332.615 179.357 325.615C167.358 318.616 155.359 323.515 143.36 334.017C131.361 344.518 126.027 334.017 113.362 328.414C100.698 322.811 101.363 332.615 89.3643 327.012C80.9116 323.065 67.1796 326.07 55.8304 330.144C59.2911 338.022 63.5477 345.54 68.5901 352.613C72.7107 349.079 76.6449 345.915 78.0352 345.915C81.37 345.915 95.3689 355.719 97.3688 359.216C99.3686 362.718 108.703 355.713 113.367 347.312C118.032 338.91 118.702 343.111 124.032 348.714C129.366 354.317 144.695 345.915 148.03 345.212C151.365 344.513 166.693 339.609 165.364 343.81C164.029 348.01 174.698 356.412 179.362 350.809C184.027 345.206 194.026 352.909 196.026 361.311C198.026 369.712 206.69 367.612 212.69 364.11C218.689 360.607 217.354 348.709 221.354 340.307C225.354 331.906 242.688 364.11 250.687 351.507C258.686 338.905 269.35 364.11 278.02 350.809C286.679 337.514 274.68 341.016 268.011 337.514Z" fill="#678739"/>
<path d="M268.01 337.514C261.346 334.011 267.345 323.51 261.346 316.51C261.346 316.51 260.011 317.912 252.682 315.812C245.347 313.711 248.017 329.112 240.018 323.515C232.018 317.912 230.018 318.616 205.355 327.716C180.692 336.815 191.356 332.615 179.357 325.615C167.358 318.616 155.359 323.515 143.36 334.017C131.361 344.518 126.026 334.017 113.362 328.414C100.698 322.811 101.363 332.615 89.3642 327.012C80.9216 323.07 67.1947 326.065 55.8505 330.139C56.0671 330.631 56.2736 331.123 56.4953 331.615C56.6615 331.98 56.8227 332.345 56.994 332.71C57.5934 333.99 58.213 335.26 58.8528 336.524C59.009 336.826 59.165 337.133 59.3212 337.434C59.9559 338.662 60.6108 339.884 61.2858 341.09C61.3462 341.196 61.4017 341.307 61.4621 341.413C62.2278 342.773 63.0288 344.116 63.8448 345.45C63.9456 345.619 64.0513 345.783 64.1571 345.952C65.5626 348.211 67.0536 350.423 68.6051 352.597C72.7156 349.068 76.6398 345.92 78.0251 345.92C81.3599 345.92 95.3588 355.724 97.3586 359.221C99.3584 362.723 108.693 355.719 113.357 347.317C118.022 338.916 118.692 343.116 124.022 348.719C129.356 354.322 144.685 345.921 148.02 345.217C151.354 344.519 166.683 339.614 165.353 343.815C164.018 348.016 174.688 356.417 179.352 350.814C184.017 345.212 194.016 352.915 196.016 361.316C198.016 369.718 206.68 367.617 212.68 364.115C218.679 360.612 217.344 348.714 221.344 340.312C225.344 331.911 242.677 364.115 250.677 351.513C253.81 346.577 257.351 347.444 261.018 349.523C266.333 346.487 271.36 343.206 276.09 339.688C273.521 339.127 270.418 338.778 268.01 337.514Z" fill="#96BD5D"/>
<path d="M355.238 355.512C355.777 345.513 354.442 336.355 348.674 345.217C340.01 358.517 336.01 353.618 326.676 355.02C317.342 356.422 318.012 365.522 319.342 369.723C320.677 373.924 308.008 379.526 306.008 379.526C304.285 379.526 298.104 392.531 296.003 400.604C320.984 389.965 340.952 374.416 355.238 355.512Z" fill="#678739"/>
<path d="M277.345 384.42C268.68 387.219 270.68 399.821 260.011 392.123C249.347 384.42 232.678 383.722 234.013 387.922C235.348 392.123 243.347 401.223 237.348 403.323C231.348 405.424 203.35 390.721 200.016 400.525C196.681 410.328 198.681 413.825 182.017 410.328C175.267 408.91 169.177 409.788 164.316 411.338C179.312 414.523 195.558 416.238 212.977 416.238C235.363 416.238 255.82 413.418 274.171 408.254C277.707 401.689 284.669 382.055 277.345 384.42Z" fill="#678739"/>
<path d="M204.685 382.32C192.686 380.918 189.352 376.018 179.352 378.119C169.353 380.219 162.019 379.521 148.69 373.918C136.207 368.675 117.297 379.997 90.3215 376.294C106.804 390.414 127.508 401.445 151.964 408.296C151.954 404.133 150.69 398.895 150.69 396.318C150.69 390.716 166.688 390.017 177.353 401.218C188.017 412.418 190.017 394.917 196.016 387.917C202.016 380.918 219.349 387.917 221.349 386.515C223.349 385.118 216.685 383.722 204.685 382.32Z" fill="#678739"/>
<path d="M149.022 285.354C178.843 285.354 203.018 264.197 203.018 238.098C203.018 212 178.843 190.843 149.022 190.843C119.201 190.843 95.0263 212 95.0263 238.098C95.0263 264.197 119.201 285.354 149.022 285.354Z" fill="#509C49"/>
<path d="M102.965 262.763C112.461 276.312 129.532 285.354 149.022 285.354C168.859 285.354 186.188 275.984 195.573 262.033C194.469 260.578 193.276 259.668 192.082 259.938C187.709 260.922 176.773 265.847 176.773 265.847L153.813 276.683L150.533 267.821C150.533 267.821 127.573 257.97 126.48 261.911C125.387 265.853 111.171 271.762 108.985 266.837C106.799 261.911 123.2 258.959 106.799 261.911C105.559 262.128 104.275 262.424 102.965 262.763Z" fill="#B2DB76"/>
<path d="M173.836 196.128C171.096 195.44 168.366 195.281 165.52 195.932C153.339 198.71 165.711 207.899 158.417 210.592C151.128 213.285 150.825 194.477 139.829 194.673C128.832 194.863 116.788 206.196 113.151 207.968C111.544 208.751 108.501 209.56 105.605 210C100.24 216.338 96.6584 223.893 95.4696 232.104C113.786 230.273 104.27 213.56 121.891 219.787C140.328 226.305 153.787 226.924 162.341 226.771C170.894 226.617 172.033 221.47 189.195 224.591C194.409 225.538 198.268 226.353 201.522 227.088C197.85 213.603 187.573 202.365 173.836 196.128Z" fill="#B2DB76"/>
<path d="M165.615 441.839L173.7 450.331C198.061 469.382 232.134 480.995 274.151 480.995C316.168 480.995 350.241 469.382 374.602 450.331L382.687 441.839L268.318 214.994L165.615 441.839Z" fill="#FFCB94"/>
<path d="M363.847 456.283L256.565 240.961L165.615 441.839L173.7 450.331C198.061 469.382 232.134 480.995 274.151 480.995C311.13 481 340.378 471.424 363.847 456.283Z" fill="#FFDBB5"/>
<path d="M374.607 434.215C350.246 453.267 316.173 464.88 274.156 464.88C232.139 464.88 198.066 453.267 173.705 434.215L170.567 430.919L165.62 441.844C165.62 441.844 168.517 445.41 174.486 450.743C180.46 456.076 211.34 481 274.156 481C340.816 481 370.708 454.33 374.607 450.336C378.506 446.341 382.692 441.844 382.692 441.844L377.377 431.305L374.607 434.215Z" fill="#285423"/>
<path d="M173.277 424.92L174.456 426.158C198.817 445.209 232.89 456.822 274.907 456.822C316.687 456.822 350.609 445.336 374.944 426.475L268.323 215.005L173.277 424.92Z" fill="#DB4A48"/>
<path d="M355.157 439.041L255.961 242.294L173.277 424.915L174.456 426.153C198.817 445.204 232.89 456.817 274.907 456.817C306.36 456.817 333.35 450.304 355.157 439.041Z" fill="#FF6563"/>
<path d="M245.337 391.811C191.674 391.811 243.645 302.612 253.377 302.612C263.109 302.612 299 391.811 245.337 391.811Z" fill="#FF8482"/>
<path d="M277.531 310.654C277.531 314.214 274.781 317.103 271.391 317.103C268 317.103 265.25 314.214 265.25 310.654C265.25 307.093 271.391 295.607 271.391 295.607C271.391 295.607 277.531 307.088 277.531 310.654Z" fill="black"/>
<path d="M249.901 348.27C249.901 351.83 247.151 354.719 243.76 354.719C240.37 354.719 237.62 351.83 237.62 348.27C237.62 344.709 243.76 333.223 243.76 333.223C243.76 333.223 249.901 344.709 249.901 348.27Z" fill="black"/>
<path d="M303.625 348.27C303.625 351.83 300.874 354.719 297.484 354.719C294.094 354.719 291.344 351.83 291.344 348.27C291.344 344.709 297.484 333.223 297.484 333.223C297.484 333.223 303.625 344.709 303.625 348.27Z" fill="black"/>
<path d="M277.531 388.568C277.531 392.129 274.781 395.017 271.391 395.017C268 395.017 265.25 392.129 265.25 388.568C265.25 385.007 271.391 373.522 271.391 373.522C271.391 373.522 277.531 385.007 277.531 388.568Z" fill="black"/>
<path d="M249.901 426.189C249.901 429.75 247.151 432.639 243.76 432.639C240.37 432.639 237.62 429.75 237.62 426.189C237.62 422.629 243.76 411.143 243.76 411.143C243.76 411.143 249.901 422.624 249.901 426.189Z" fill="black"/>
<path d="M303.625 426.189C303.625 429.75 300.874 432.639 297.484 432.639C294.094 432.639 291.344 429.75 291.344 426.189C291.344 422.629 297.484 411.143 297.484 411.143C297.484 411.143 303.625 422.624 303.625 426.189Z" fill="black"/>
<path d="M329.719 388.568C329.719 392.129 326.968 395.017 323.578 395.017C320.188 395.017 317.437 392.129 317.437 388.568C317.437 385.007 323.578 373.522 323.578 373.522C323.578 373.522 329.719 385.007 329.719 388.568Z" fill="black"/>
<path d="M222.271 388.568C222.271 392.129 219.52 395.017 216.13 395.017C212.74 395.017 209.99 392.129 209.99 388.568C209.99 385.007 216.13 373.522 216.13 373.522C216.13 373.522 222.271 385.007 222.271 388.568Z" fill="black"/>
<path d="M364.356 458.346L357.767 445.278C335.391 457.647 307.247 464.88 274.151 464.88C232.134 464.88 198.061 453.267 173.7 434.215L170.562 430.919L165.615 441.844C165.615 441.844 168.512 445.41 174.481 450.743C180.455 456.076 211.335 481 274.151 481C321.462 481 350.236 467.572 364.356 458.346Z" fill="#336A2C"/>
</svg>
