<svg width="480" height="620" viewBox="0 0 480 620" fill="none" xmlns="http://www.w3.org/2000/svg">
<rect width="480" height="620" fill="#FFF9F9" fill-opacity="0.82"/>
<path d="M73.1012 191.119L71.4675 178.334L67.9735 168.39L69.8381 163.558L79.8581 170.944L91.5162 185.714L73.1012 191.119Z" fill="#6D574F"/>
<path d="M185.456 347.643L191.516 375.48L196.643 398.777L198.508 416.393L196.173 429.454L187.787 432.3L184.057 439.117V445.934L192.914 448.206L206.899 447.07L208.763 439.117L213.891 426.619L212.026 418.097L210.162 390.824L207.835 347.075L205.034 319.807L187.32 323.783L185.456 347.643Z" fill="#876E62"/>
<path d="M211.274 426.687L208.298 433.079L207.074 440.534L205.501 438.617L207.074 424.983L211.274 426.687Z" fill="#6D574F"/>
<path d="M207.835 347.075L205.034 319.807L187.321 323.783L185.456 347.643L191.516 375.48L195.52 393.669L196.761 377.046L201.654 356.377L208.21 354.179L207.835 347.075Z" fill="#AD8F80"/>
<path d="M198.857 438.831L198.683 437.551L196.06 438.406L192.213 442.882L190.763 447.66L192.497 448.101L192.91 446.078L194.483 441.815L198.857 438.831Z" fill="#6D574F"/>
<path d="M186.092 441.391L185.033 446.19L186.244 446.498L186.793 443.307L188.362 439.474L190.989 436.278L188.714 436.702L186.092 441.391Z" fill="#6D574F"/>
<path d="M210.162 390.824L207.836 347.075L205.034 319.807L199.035 321.15L204.102 361.277L207.247 388.976L208.646 413.691L213.56 427.431L213.891 426.619L212.027 418.097L210.162 390.824Z" fill="#D6C9C3"/>
<path d="M362.61 235.718L377.065 236.286L398.974 252.192L426.015 297.645L438.135 332.304L440 356.164L434.406 372.639H426.482L401.771 342.53L388.253 290.26L377.531 262.418L369.136 253.897L362.61 235.718Z" fill="#AD8F80"/>
<path d="M433.122 350.622L422.631 342.531L411.095 329.321L402.7 309.3L389.765 277.332L379.972 254.327L367.512 249.384L369.133 253.903L377.528 262.424L388.249 290.266L401.763 342.536L426.474 372.645H434.402L439.992 356.17L439.304 347.367C438.376 346.783 437.661 346.369 437.661 346.369L433.122 350.622Z" fill="#D6C9C3"/>
<path d="M433.639 319.445L426.015 297.645L398.974 252.192L377.065 236.286L374.686 236.19L390.814 249.633L405.152 272.649L415.642 297.788L427.178 316.535L433.639 319.445Z" fill="#876E62"/>
<path d="M288.484 312.416L295.01 342.531L307.6 367.532L318.322 385.143L318.788 393.665L309.465 416.962L304.799 426.619L302.002 430.023L292.213 434.005L285.221 445.361L287.09 447.639L303.405 446.503L312.728 443.662L314.592 430.591L327.645 410.713L337.904 393.665L341.167 385.143L340.231 377.184L333.238 366.396L333.704 330.595L319.254 304.458L288.484 312.416Z" fill="#876E62"/>
<path d="M333.239 366.396L333.705 330.595L319.254 304.458L288.484 312.416L295.01 342.531L305.945 364.246L312.497 356.733L324.147 353.887L329.283 366.964L337.669 382.303L334.968 398.538L337.904 393.665L341.167 385.143L340.231 377.184L333.239 366.396Z" fill="#AD8F80"/>
<path d="M337.905 393.663L341.168 385.142L340.231 377.183L333.239 366.395L333.705 330.594L331.671 326.909C328.595 329.962 325.55 333.153 325.55 333.153C325.319 334.289 326.717 362.986 326.717 362.986L331.375 380.597V395.367L322.518 412.124L313.661 427.467L311.561 435.989L313.413 438.851L314.593 430.589L327.645 410.706L337.905 393.663Z" fill="#D6C9C3"/>
<path d="M40.9323 258.441L52.1199 241.966L57.2519 230.599L57.718 220.942L61.4472 206.171L71.2364 189.696L82.424 183.442L106.664 185.146L121.585 193.105L130.908 196.514L172.861 199.922L186.388 195.945L195.241 194.809L209.23 202.763L244.661 207.313L286.153 205.04L312.262 200.495L337.438 206.171L367.267 231.173L375.662 266.394L379.392 309.575L374.735 348.779L377.993 364.691L385.922 376.053L389.651 380.024L387.787 403.321L380.328 437.98L376.595 443.093L373.332 454.455L362.61 459L357.949 458.432L356.55 454.455L349.558 456.159L345.363 452.183L351.889 439.685L363.543 436.844L366.806 430.022L373.332 390.255L357.483 376.615L345.363 360.714L321.585 332.304L310.397 314.693L298.739 316.965L260.044 323.783L217.154 328.327L192.914 330.032L186.85 357.3L182.193 389.119L179.854 410.144L181.256 420.932V426.045L173.802 438.548L170.073 452.751L167.272 455.591H148.626L143.964 453.887L145.825 445.934L156.084 437.412L164.009 414.688L164.475 395.368L157.021 334.003L152.821 322.073L136.968 309.575L122.051 287.419L116.457 285.147L109.461 292.532L101.07 285.147L88.0178 264.122L78.6991 260.145L65.1721 269.808L58.1798 273.217L47.9245 270.376L40 264.69L40.9323 258.441Z" fill="#AD8F80"/>
<path d="M389.495 381.936L381.256 381.16L374.264 373.78L364.475 359.573L351.889 335.713L337.904 323.783L314.126 293.669L307.6 274.921L298.739 272.076L288.018 282.307L274.499 285.147L247.458 290.26L226.477 290.828L204.568 287.42L190.118 285.147L184.524 291.391L188.253 309.575L192.914 321.51L193.577 329.984L217.154 328.328L260.044 323.783L298.739 316.966L310.397 314.693L321.585 332.304L345.363 360.714L357.483 376.616L373.332 390.255L366.806 430.022L363.543 436.844L351.889 439.685L345.363 452.183L349.558 456.16L356.55 454.455L357.949 458.432L362.61 459L373.332 454.455L376.595 443.093L380.328 437.981L387.787 403.321L389.495 381.936Z" fill="#D6C9C3"/>
<path d="M152.821 323.729L153.478 325.641L153.753 312.075L148.625 296.923L150.024 278.282L143.964 260.798L138.366 257.305L135.573 266.628L128.11 282.943L128.463 297.958L136.967 310.913L152.821 323.729Z" fill="#D6C9C3"/>
<path d="M106.202 283.438L104.804 269.809L97.3408 258.437L91.2808 249.352L93.1454 243.103L102.468 234.577V225.493L84.2886 224.356L77.2963 236.849L71.2364 238.553L60.5149 245.376L56.7857 243.103L51.5056 242.875L40.9323 258.442L40 264.691L47.9245 270.377L58.1798 273.218L65.1721 269.809L78.6991 260.146L88.0178 264.123L101.07 285.148L106.842 290.229L106.202 283.438Z" fill="#D6C9C3"/>
<path d="M158.41 298.214L154.219 285.148C154.219 285.148 156.084 267.537 156.084 265.827C156.084 264.118 157.487 248.79 157.487 248.79L157.949 223.788L165.873 209.586L162.148 230.032L166.344 256.738L170.073 273.786L166.344 286.284L158.41 298.214Z" fill="#876E62"/>
<path d="M66.6878 221.509L62.1395 229.176C63.1895 229.601 68.0862 223.633 68.0862 223.633L66.6878 221.509Z" fill="#876E62"/>
<path d="M64.7668 219.382L66.8623 222.79L67.5637 225.35L70.182 222.79L72.2819 217.465L68.6093 218.745L64.7668 219.382Z" fill="#6D574F"/>
<path d="M67.5646 220.018L68.266 221.935L68.963 221.085L68.7844 219.806L67.5646 220.018Z" fill="#AD8F80"/>
<path d="M40 264.691L46.1384 269.098L45.3585 263.698L47.8069 261.994L47.4584 258.585L44.6615 258.161L43.5419 254.603L40.9323 258.442L40 264.691Z" fill="#6D574F"/>
<path d="M68.4359 261.569L59.3482 268.673L52.674 271.689L54.5516 272.209L60.2761 268.949L64.942 265.546L71.9386 260.433L77.2971 258.161L77.9942 256.451L75.1973 256.17L68.4359 261.569Z" fill="#6D574F"/>
<path d="M65.6382 211.565L67.9689 203.33L77.2963 193.105L83.121 191.968L81.9578 201.345L87.3163 209.579L100.608 214.411L101.07 221.228L95.707 218.956L84.7547 214.979L80.3241 216.396L76.1287 211.852L65.6382 211.565Z" fill="#876E62"/>
<path d="M97.4585 246.649L100.952 254.746L105.152 254.327L100.608 247.079L99.554 243.246L97.4585 246.649Z" fill="#876E62"/>
<path d="M104.102 247.505L113.891 255.601L120.535 266.252L125.78 268.386L128.577 267.107L122.277 261.144L117.385 247.93L102.703 238.978L104.102 247.505Z" fill="#876E62"/>
<path d="M107.596 265.827L109.343 276.907L115.991 276.483L120.884 278.617L122.635 276.483L117.037 272.219L113.543 261.144L107.945 255.601L104.102 257.306L107.596 265.827Z" fill="#876E62"/>
<path d="M126.128 274.779L128.577 271.795L120.883 268.811L120.534 270.945L126.128 274.779Z" fill="#876E62"/>
<path d="M329.622 209.154L350.599 224.923L357.596 241.966V264.971L356.546 275.202L369.833 295.659L370.53 305.035L372.626 321.653L376.934 330.238L379.392 309.58L375.662 266.405L367.267 231.177L337.434 206.181L312.262 200.506L286.153 205.05L244.661 207.323L209.229 202.778L195.245 194.825L186.393 195.961L172.865 199.938L132.088 196.624L133.827 199.794C133.827 199.794 144.661 202.778 145.711 202.353C146.761 201.923 164.244 204.058 164.244 204.058L178.228 210.875L195.01 213.864L208.646 211.729L210.397 219.401L210.746 226.649L215.638 229.202L224.377 220.681L236.615 215.568L267.032 212.59L284.868 211.735L303.749 208.751L329.622 209.154Z" fill="#876E62"/>
<path d="M177.88 427.536L174.203 432.867L170.186 435.208L169.838 433.722L174.904 427.966L177.004 421.999L177.88 427.536Z" fill="#6B5951"/>
<path d="M152.002 449.485L158.646 446.076L158.293 444.372L150.948 447.781L148.996 455.591H151.362C151.54 453.435 152.002 449.485 152.002 449.485Z" fill="#6B5951"/>
<path d="M150.256 444.584L146.413 448.63L145.402 454.417L146.505 454.815L147.106 449.485L150.43 445.434L150.256 444.584Z" fill="#6B5951"/>
<path d="M176.481 304.605L176.83 324.632L169.485 336.986L163.891 339.545L161.443 334.432L168.086 325.481L172.983 308.438L176.481 304.605Z" fill="#876E62"/>
<path d="M197.11 313.127H191.163L188.362 332.304L182.773 361.707L177.88 391.535L177.532 407.728L180.242 413.074L179.854 410.144L182.193 389.119L186.85 357.3L192.915 330.032L201.018 329.458L202.003 323.783L197.11 313.127Z" fill="#D6C9C3"/>
<path d="M380.324 384.293L383.121 394.513L382.773 406.874L385.574 392.815L384.52 384.293H380.324Z" fill="#876E62"/>
<path d="M387.787 403.322L389.494 381.936L385.974 381.607L387.787 385.425L385.922 402.473L382.424 418.379L377.767 433.155L372.866 442.239L371.445 455.252L373.332 454.456L376.595 443.094L380.328 437.981L387.787 403.322Z" fill="#876E62"/>
<path d="M355.383 442.813L349.789 450.766L348.852 455.497L349.558 456.16L350.429 455.953C350.978 453.824 351.889 450.766 351.889 450.766L357.949 442.526L360.28 441.671L360.049 440.248L355.383 442.813Z" fill="#876E62"/>
<path d="M364.24 443.943L359.343 449.629L356.799 455.167L357.949 458.432L358.171 458.459C358.737 455.862 359.583 452.178 359.583 452.178L364.479 445.929L364.24 443.943Z" fill="#876E62"/>
<path d="M116.688 200.205L122.604 193.478L121.584 193.106L110.719 187.309L109.695 199.78L107.596 208.307L112.144 212.99L116.688 200.205Z" fill="#876E62"/>
<path d="M82.424 183.442L71.2364 189.691L61.4429 206.171L57.7181 220.942L57.2519 230.599L52.1199 241.966L40.9323 258.441L40 264.69L41.0891 265.471L42.7969 259.009L46.5261 253.334L54.6815 243.389L59.3474 232.882L59.5739 224.642C59.5739 224.642 62.3752 211.289 62.3752 210.44C62.3752 209.585 68.4351 197.087 68.4351 197.087L74.726 190.27L81.2521 185.725L87.312 184.307L87.5168 183.814L82.424 183.442Z" fill="#D6C9C3"/>
<path d="M103.871 205.322L96.1076 202.588L91.7467 201.059L87.5557 196.514L83.8222 196.227L82.1885 192.256L86.3882 176.907L87.7866 163.278L89.8821 161L98.7433 174.64L104.102 192.824L103.871 205.322Z" fill="#CF867C"/>
<path d="M92.684 177.199L89.1813 186.283L87.0466 196.471L87.5563 196.514L91.7473 201.059L96.1082 202.588L96.1954 202.619L98.5087 197.65L98.9748 187.138L93.8472 172.086L92.684 177.199Z" fill="#D6C9C3"/>
<path d="M89.8821 161L87.7866 163.278L86.3882 176.907L82.1885 192.256L83.8222 196.227L84.0966 196.254L84.9897 188.847L87.0852 180.607L88.4837 167.536L90.5792 169.24L95.0098 179.752L96.173 190.265L94.0775 197.082L91.4374 200.729L91.7467 201.059L96.1076 202.588L103.871 205.322L104.102 192.824L98.7433 174.64L89.8821 161Z" fill="#6D574F"/>
<path d="M298.739 316.966L310.397 314.693L321.585 332.304L345.363 360.714L355.832 374.45L349.092 359.005L328.111 328.328L316.919 307.866L304.333 301.622L277.758 311.28L219.951 315.83L197.11 314.693L188.249 315.262L190.113 325.482L190.976 338.755L192.915 330.032L217.154 328.328L260.045 323.783L298.739 316.966Z" fill="#D6C9C3"/>
</svg>
