<svg width="480" height="620" viewBox="0 0 480 620" fill="none" xmlns="http://www.w3.org/2000/svg">
<rect width="480" height="620" fill="#FFF9F9" fill-opacity="0.82"/>
<path d="M314.71 334.745L326.391 351.114L338.435 364.443L346.34 370.152L353.114 378.147L354.99 392.998L348.595 419.263L345.96 429.923L336.176 434.114L331.661 442.872L331.281 445.912L340.691 446.671L350.1 445.912L353.114 437.918V435.632L359.13 432.584L360.639 424.593L361.765 407.081L366.663 388.427L360.26 329.416L318.858 317.229L314.71 334.745Z" fill="#D1976B"/>
<path d="M181.47 313.81L185.855 340.965L189.245 360.188L187.744 369.705L191.254 380.053L194.268 383.477L197.278 404.796L198.412 421.165L197.653 428.021L190.879 434.873L187.869 437.918L186.735 442.484L193.889 445.153L207.817 443.627L211.586 417.361L210.827 354.542L202.548 320.662L181.47 313.81Z" fill="#D1976B"/>
<path d="M62.9085 250.227L55 242.233L55.7462 234.622L69.6748 213.298L73.8187 206.83L76.4535 201.5L80.9685 191.979L82.8528 188.555L98.6574 176.757L121.62 175.226L154.363 189.698L193.134 212.919L208.572 220.159L223.251 224.725L234.165 230.81L270.681 236.523L322.247 235.001L348.97 230.81L368.919 239.572L393.766 261.266L401.666 287.161L403.925 313.042L402.791 348.833L408.065 374.339L405.051 376.245L400.54 354.542L397.147 333.607V312.283L388.859 333.223L379.462 347.694L378.707 367.867L384.348 383.089L387.366 388.048L386.232 394.136L378.707 429.923L376.823 444.394L371.933 446.671L370.048 452.005L368.548 456.951L358.004 460L349.345 457.335L351.984 449.34L357.25 445.153L359.889 441.341L366.663 423.455L366.28 397.948L361.018 384.999L354.244 359.872L347.461 341.981L339.561 334.745L333.166 334.366L324.507 337.794L317.728 340.838L278.202 343.503L251.863 340.075L230.78 329.799L224.381 330.942L221.742 335.508L219.107 355.306V381.191L217.227 384.999L218.365 423.83L220.996 437.159L217.227 439.823L213.462 445.912L213.091 453.148L201.043 456.951L194.268 456.192L194.643 449.724L199.534 444.394L204.432 439.823L205.937 428.021L206.308 410.893L204.049 384.619L199.167 376.245L200.288 365.957L197.278 347.311L192.388 332.839L182.224 325.992L176.579 317.613L167.921 296.298L150.99 287.54L136.678 268.882L121.62 242.233L114.845 227.77L106.187 237.282L93.3878 242.233L85.496 244.902L80.9685 249.468L79.0883 252.513L73.0599 255.557L69.6748 256.7L67.04 252.513L62.9085 250.227Z" fill="#E5C2AA"/>
<path d="M410.326 372.058L403.926 375.103L402.038 383.477L406.557 397.948L413.335 407.465L421.244 412.411L425 410.893L420.865 407.465L415.97 399.087L415.216 389.186L414.094 377.384L410.326 372.058Z" fill="#172B2A"/>
<path d="M341.816 333.986L335.8 330.179L329.397 324.474L326.766 306.954L326.007 296.298L310.578 301.244L282.721 308.864L250.357 306.574L242.445 305.431L234.92 306.954L229.65 308.48L223.889 307.097L222.5 317.229L218.365 328.273L214.967 332.085L207.067 330.942L203.678 319.135L203.407 302.686L198.033 301.619L188.244 285.634L180.336 276.497L163.781 270.029L137.058 246.803L118.86 224.093L115.329 228.794L121.62 242.233L136.678 268.882L150.99 287.54L167.92 296.298L176.579 317.613L182.224 325.992L192.388 332.839L192.726 333.843L194.643 334.366L209.326 337.794L213.462 345.03L212.716 372.817L209.326 383.852L212.337 412.795L214.592 433.351L211.586 442.872L213.675 445.575L217.227 439.823L220.995 437.159L218.365 423.83L217.227 384.999L219.107 381.191V355.306L221.742 335.508L224.381 330.942L230.78 329.799L251.862 340.075L278.202 343.503L317.728 340.838L324.507 337.794L333.166 334.366L339.561 334.745L342.07 337.043L341.816 333.986Z" fill="#D8A97C"/>
<path d="M368.918 239.572L348.97 230.81L322.247 235.001L270.681 236.523L234.165 230.81L223.251 224.725L208.572 220.159L193.134 212.919L154.363 189.698L125.138 176.786L126.393 180.944L142.198 188.812L161.017 200.231L177.075 213.682L195.139 221.807L204.178 227.896L219.24 233.222L231.276 239.319L252.358 243.633L286.732 245.151L307.31 244.649L329.397 241.857L344.701 239.825L363.023 243.122L377.573 254.292L389.367 265.209L396.813 271.264L393.765 261.266L368.918 239.572Z" fill="#F9D9B9"/>
<path d="M105.315 226.627L96.2852 233.732L84.7372 239.825L77.208 247.436L66.9232 252.441L67.0399 252.513L69.6747 256.7L73.0599 255.557L79.0882 252.513L80.9685 249.468L85.4959 244.902L93.3878 242.233L106.186 237.282L112.999 229.802L113.003 229.638L113.34 216.984H109.826L105.315 226.627Z" fill="#D8A97C"/>
<path d="M400.74 284.146L399.748 280.865L399.035 285.634L391.506 312.283L375.689 339.316L373.433 354.163L375.689 375.862L382.843 390.708L378.332 415.835L374.192 441.725L370.048 445.533L372.933 446.207L376.823 444.394L378.707 429.923L386.232 394.136L387.366 388.048L384.348 383.089L378.707 367.867L379.461 347.694L388.858 333.223L396.467 314.012L400.54 297.816L400.74 284.146Z" fill="#D8A97C"/>
<path d="M370.803 404.796L370.423 390.708L364.775 377.004L362.14 352.257L353.489 334.745L343.696 319.519L339.181 304.289L338.056 295.535L335.041 296.678L336.546 312.283L341.441 324.474L345.581 335.508V340.261L347.461 341.981L354.244 359.872L361.018 384.999L366.279 397.948L366.65 422.78L368.547 421.544L370.803 404.796Z" fill="#D8A97C"/>
<path d="M104.682 182.082L113.34 180.56L136.22 181.678L121.62 175.226L98.6574 176.757L82.8528 188.555L80.9685 191.979L76.4535 201.5L73.8187 206.83L69.6748 213.298L55.7462 234.622L55 242.233L55.5337 242.777L68.5533 223.199L79.4593 209.874L85.8628 207.209L93.0084 204.924L96.7814 199.978L93.7672 192.363L96.0226 188.175L104.682 182.082Z" fill="#D8A97C"/>
<path d="M217.485 295.408L215.221 303.277L211.461 313.173L209.206 315.969L211.211 316.728L215.221 312.414L216.726 309.113L225.006 310.129L229.025 314.948L230.025 313.173L226.257 307.843L221.246 305.056L220.745 299.975L220.995 292.866L221.5 280.937H219.486L217.485 295.408Z" fill="#172B2A"/>
<path d="M201.177 349.466L207.192 348.702L213.721 350.225L216.727 351.751L216.981 354.041L212.466 352.008L203.678 351.751L200.918 352.51L201.177 349.466Z" fill="#172B2A"/>
<path d="M205.687 375.866L213.971 374.849L216.726 376.119V377.641L212.716 377.131L204.69 377.894L205.687 375.866Z" fill="#172B2A"/>
<path d="M206.192 383.224L211.211 383.477H215.976V385.513H208.951L205.937 384.493L206.192 383.224Z" fill="#172B2A"/>
<path d="M208.189 392.361L212.208 391.598L215.222 390.333V391.598L211.461 393.377L208.189 393.888V392.361Z" fill="#172B2A"/>
<path d="M207.938 398.956L211.707 398.707L213.971 397.695V399.466L208.188 400.229L207.938 398.956Z" fill="#172B2A"/>
<path d="M351.234 344.14L353.99 340.083L363.278 336.023C363.278 336.023 371.808 334.501 372.809 334.501C373.813 334.501 382.597 331.954 382.597 331.954L388.371 330.183L387.112 332.974L378.337 337.798L368.552 339.573L357.258 343.63L353.494 346.678L351.234 344.14Z" fill="#172B2A"/>
<path d="M354.748 352.51L361.769 351.498C361.769 351.498 368.293 347.943 369.052 347.437C369.802 346.931 374.822 344.393 374.822 344.393L378.836 342.871L377.081 345.666L367.543 351.755L363.778 355.31L358.508 355.057L354.994 354.547L354.748 352.51Z" fill="#172B2A"/>
<path d="M369.799 393.888L373.567 394.647L379.329 393.377L384.611 390.59L384.098 393.124L380.338 395.916L372.809 397.438L370.303 396.675L369.799 393.888Z" fill="#172B2A"/>
<path d="M369.799 406.322L374.064 405.306L379.588 403.527L383.098 401.499L381.088 405.053L374.572 407.086L368.794 408.608L369.799 406.322Z" fill="#172B2A"/>
<path d="M66.6683 230.43L72.1881 224.093L78.9668 217.494L81.9768 213.939L84.4824 210.633H89.0015L97.2769 212.919L101.8 210.127L104.56 204.544L104.056 201.5L105.064 198.957L107.57 193.885L110.08 192.367L111.589 194.648L107.57 197.697L105.561 201.247L106.061 205.308L105.064 208.601L102.042 211.907L98.7902 213.425L92.0115 213.176L86.9962 212.919L82.7314 215.457L75.7025 222.06L67.1728 231.451L66.6683 230.43Z" fill="#172B2A"/>
<path d="M83.2322 244.902L79.4593 239.825L80.218 233.989L74.9443 231.219L73.4393 230.43L62.6542 228.912L61.5036 225.813L55.7462 234.622L55 242.233L62.9085 250.227L67.04 252.513L69.6748 256.7L73.0599 255.557L79.0883 252.513L80.9685 249.468L84.5788 245.817L83.2322 244.902Z" fill="#172B2A"/>
<path d="M76.4538 201.5L73.819 206.83L69.6751 213.298L60.7618 226.943L61.3955 227.896L69.1832 217.494L75.2031 207.589L79.9724 201.5L80.7187 196.68V192.51L76.4538 201.5Z" fill="#172B2A"/>
<path d="M84.737 189.824L86.7465 197.182L84.737 202.006L79.4592 207.087L74.6982 212.919L69.6787 219.518L65.1679 225.358L61.6451 229.161L62.9084 229.924L70.9378 221.807L76.4533 215.204L81.4728 209.874L84.9872 207.087L88.4975 204.544L89.5064 198.704L88.2473 191.604L85.4583 186.607L83.8157 187.834L84.737 189.824Z" fill="#172B2A"/>
<path d="M95.0262 193.383L93.2669 187.033L90.507 183.478L90.0609 183.174L88.1099 184.629L90.0109 186.269L92.012 192.367L93.0084 198.456L95.0262 198.957V193.383Z" fill="#172B2A"/>
<path d="M95.8559 178.848L93.7006 180.455L95.7767 182.209L97.5318 186.78L97.2775 193.121L97.0315 195.917L98.2906 196.68L99.287 191.093V185.004L97.2775 179.923L95.8559 178.848Z" fill="#172B2A"/>
<path d="M104.307 180.43L103.561 187.543L101.801 193.632L101.547 196.166L102.802 198.456L104.816 193.383L106.062 187.282V183.731L105.562 178.912L104.674 176.348L103.102 176.458L104.307 180.43Z" fill="#172B2A"/>
<path d="M82.4732 229.675L76.9576 233.732L78.2125 234.238L81.2225 231.704H84.2325L87.4884 233.475L89.0018 237.033L87.7469 243.379L86.8423 244.442L88.5932 243.852L89.5063 242.869L91.0112 238.298L90.2524 232.205L82.4732 229.675Z" fill="#172B2A"/>
<path d="M95.0257 226.88L88.4971 225.358L79.4588 228.149L73.9391 232.467L74.9438 232.973L80.2175 228.912L84.4824 227.896H89.506L93.0079 229.161L97.031 233.222L96.2847 238.298L94.9298 241.642L97.9315 240.478L99.2864 238.298L100.045 232.72L99.0363 228.912L95.0257 226.88Z" fill="#172B2A"/>
<path d="M101.801 216.983L95.5308 215.457L87.4889 217.742L78.4589 224.093L70.9381 231.451L72.4389 232.205L76.2035 227.896L81.2229 223.835L88.7521 219.779L94.772 218.501L99.2871 219.265L103.56 223.325L104.306 230.687L102.743 238.619L106.187 237.282L106.691 236.742L107.571 231.961V228.402L106.562 222.309L101.801 216.983Z" fill="#172B2A"/>
<path d="M117.605 197.439L111.589 207.34L109.075 216.983L110.08 225.105L110.622 232.412L112.877 229.928L112.339 224.093L112.59 215.714L113.844 210.886L116.354 203.781L119.364 196.423L121.123 191.093L119.614 191.346L117.605 197.439Z" fill="#172B2A"/>
<path d="M131.693 179.679L129.404 188.302L125.139 195.15L121.875 205.059L119.115 217.995L116.101 226.627L115.321 228.773L116.205 230.654L118.11 226.627L122.379 213.425L124.635 202.263L129.9 193.632L132.914 187.543L134.04 180.716L131.693 179.679Z" fill="#172B2A"/>
<path d="M142.636 184.511L137.437 182.213L136.424 189.322L130.908 199.729L130.162 210.886L127.394 222.06L118.643 235.878L119.823 238.379L123.884 234.748L130.658 222.819L134.177 206.324L137.179 196.423L142.636 184.511Z" fill="#172B2A"/>
<path d="M146.83 186.367L145.463 192.869L139.939 201.5L136.679 216.983L133.919 235.001L125.806 249.637L130.087 257.223L134.919 252.007L140.193 233.989L142.453 208.099L145.717 199.215L148.727 190.84L149.44 187.518L146.83 186.367Z" fill="#172B2A"/>
<path d="M160.804 193.552L159.257 199.978L155.001 209.621L152.491 220.787L151.732 231.704L145.462 249.974L140.951 257.341L134.006 264.151L136.678 268.882L138.05 270.674L142.702 268.253L150.99 255.308L154.747 234.748L157.256 211.907L163.018 194.88L160.804 193.552Z" fill="#172B2A"/>
<path d="M180.353 250.995L187.369 234.499L193.393 216.984L194.457 213.543L193.135 212.919L191.747 212.088L189.125 219.016L182.6 235.001L175.567 247.946L171.811 253.529L170.06 252.264L174.575 238.05L178.581 212.417L179.269 204.604L175.396 202.293L173.816 214.698L169.801 232.72L161.776 253.782L155.243 266.731L150.491 275.358L149.965 286.212L150.991 287.54L160.029 292.212L161.776 282.974L168.055 269.265L180.353 250.995Z" fill="#172B2A"/>
<path d="M176.833 297.943L184.609 283.222L193.142 252.77L199.167 232.467L203.16 217.62L200.451 216.347L196.157 228.149L186.868 257.851L182.849 270.029L179.339 281.953L173.569 293.376L168.199 296.99L170.255 302.041L176.833 297.943Z" fill="#172B2A"/>
<path d="M217.14 222.819L211.695 221.128L206.938 238.298L202.927 259.112L198.408 278.656L195.89 294.894L190.12 301.497C190.12 301.497 184.605 307.329 183.85 307.586C183.3 307.772 177.259 310.124 174.041 311.381L176.576 317.613L180.386 323.276L185.86 317.74L193.635 308.096L200.414 295.408L203.928 270.024L207.934 248.195L213.212 233.47L217.14 222.819Z" fill="#172B2A"/>
<path d="M227.319 226.994L225.356 225.893L221.745 232.214L218.739 241.604L216.98 263.177L214.967 274.338L208.188 291.348L203.173 307.59L195.393 324.592L189.523 330.912L191.108 331.979L196.402 326.633L199.667 321.298L204.432 315.72L207.442 305.056L210.448 293.123L215.221 280.941L220.24 268.502L221.245 250.485L224.759 232.973L227.319 226.994Z" fill="#172B2A"/>
<path d="M232.289 242.616L235.683 231.046L234.165 230.81L231.935 229.574L230.025 240.584L224.502 261.397L224.76 276.881L226.765 290.838L232.035 307.337L235.554 318.503L234.524 331.621L235.983 332.338L238.055 317.234L233.536 302.766L227.766 273.836L228.779 258.859L232.289 242.616Z" fill="#172B2A"/>
<path d="M239.977 231.721L237.305 239.825L236.3 258.606L238.313 274.094L241.824 292.866L246.593 309.37L246.339 321.8L243.6 336.053L246.201 337.318L250.099 319.776L249.353 305.056L245.338 288.299L241.569 266.221L240.815 246.424L246.026 232.665L239.977 231.721Z" fill="#172B2A"/>
<path d="M255.373 257.341L252.863 243.38L254.468 233.989L251.408 233.513L248.353 246.93L252.109 270.792L261.151 295.661L263.152 310.635L261.893 326.118L257.253 340.775L262.91 341.513L266.909 335.508L271.182 316.728L272.437 299.216L264.157 279.929L255.373 257.341Z" fill="#172B2A"/>
<path d="M288.742 252.007L292.264 244.138L298.755 235.693L294.728 235.811L292.519 238.298L287.249 248.962L283.981 259.618L279.966 269.265L275.201 259.618L272.691 246.93L272.332 236.477L270.682 236.523L259.555 234.786L260.138 245.15L268.176 264.437L274.951 279.415L281.975 292.613L284.739 309.871V319.262L283.735 333.227L281.246 343.301L288.742 342.791C290.622 338.549 292.873 333.409 293.015 332.966C293.269 332.203 294.774 314.687 294.774 314.687L290.759 292.103L283.222 277.129L284.985 269.514L288.742 252.007Z" fill="#172B2A"/>
<path d="M223.447 332.565L220.745 330.179L215.976 328.15L207.192 327.64L198.912 333.485L196.653 335.766L198.158 338.051L200.918 335.508L207.692 332.97L213.721 331.958L220.241 332.97L222.275 334.581L223.447 332.565Z" fill="#172B2A"/>
<path d="M218.74 344.393L214.221 341.095L208.447 339.32L200.168 341.344L199.922 343.377L206.438 342.103L212.716 342.866L217.227 346.168L220.091 347.939L220.358 345.89L218.74 344.393Z" fill="#172B2A"/>
<path d="M211.707 358.603L207.442 358.354L202.427 359.619L202.931 362.664L204.182 361.403L209.206 360.893H216.222H219.107V358.818L218.74 358.856L211.707 358.603Z" fill="#172B2A"/>
<path d="M219.107 370.169V367.437L214.721 366.471L207.938 366.724L202.427 369.014L203.932 372.564L208.951 370.283L216.222 369.52L219.107 370.169Z" fill="#172B2A"/>
<path d="M330.648 245.412L339.945 237.282L349.95 231.244L348.971 230.81L329.86 233.808L321.114 240.078L312.584 254.296L308.573 276.623L306.31 297.184L304.3 314.695L302.795 327.893L297.576 342.2L302.157 341.884L306.064 331.701L309.57 315.458L314.343 279.929L321.872 260.381L330.648 245.412Z" fill="#172B2A"/>
<path d="M375.356 245.193L368.919 239.572L365.558 238.092L353.235 240.841L340.182 252.517L331.152 266.98L324.628 286.018L321.372 298.706L319.108 311.145L316.352 323.331L312.329 333.476L308.61 341.45L312.963 341.159L321.872 325.612L328.146 301.244L336.422 275.101L347.469 259.622L357 248.199L370.549 245.661L375.356 245.193Z" fill="#172B2A"/>
<path d="M388.717 256.869L382.851 261.401L364.525 268.759L352.985 275.869L344.201 285.512L334.166 309.876C334.166 309.876 326.895 323.837 326.395 324.592C326.058 325.102 322.514 333.898 320.171 339.742L324.511 337.794L324.828 337.663L327.15 332.464L335.925 316.732L344.463 297.694L352.489 285.512L365.792 277.138C365.792 277.138 381.092 271.045 382.092 271.045C383.101 271.045 391.635 265.968 391.635 265.968L394.604 264.028L393.77 261.266L388.717 256.869Z" fill="#172B2A"/>
<path d="M397.969 275.055L390.885 280.178L376.069 289.315L364.521 294.135L356.75 298.967L348.716 306.325L340.941 322.053L336.814 334.581L339.149 334.72L346.961 318.25L354.749 306.574C354.749 306.574 368.294 299.726 369.053 299.469C369.803 299.212 383.356 294.135 383.356 294.135L396.91 289.821L401.316 285.98L397.969 275.055Z" fill="#172B2A"/>
<path d="M397.714 308.796C397.714 308.796 389.872 313.683 389.113 314.194C388.363 314.695 379.333 316.985 379.333 316.985L369.294 318.25L356.995 321.299L348.211 329.416L344.213 339.008L345.702 340.366L346.206 338.81L351.23 332.207L358.5 327.893L373.304 324.343L389.622 322.315L394.595 318.735L397.138 312.288L397.714 308.796Z" fill="#172B2A"/>
<path d="M374.809 361.651L379.091 357.62L379.187 355.044L374.309 358.856L369.298 362.663L363.278 363.937L356.495 362.921L358.004 365.459L363.023 366.724L369.298 366.471L374.809 361.651Z" fill="#172B2A"/>
<path d="M378.745 366.817L378.832 364.515L374.063 368.752L369.048 371.552H362.269L362.773 373.838L365.788 374.344L374.809 370.789L378.745 366.817Z" fill="#172B2A"/>
<path d="M378.333 380.69L381.735 376.039L380.868 373.707L378.333 376.882L375.827 379.673L371.054 382.207L365.538 382.718L366.535 385.766L372.059 385.513L378.333 380.69Z" fill="#172B2A"/>
<path d="M306.167 235.478L302.048 242.363L299.534 256.573L297.279 270.029L296.774 279.672L293.768 287.793L294.769 292.617L299.034 283.986L302.294 270.53L305.558 250.485L311.332 238.552L314.23 235.237L306.167 235.478Z" fill="#172B2A"/>
<path d="M285.277 343.022L288.737 342.79C290.617 338.548 292.868 333.408 293.01 332.966C293.264 332.202 294.769 314.687 294.769 314.687L293.223 305.983L284.497 308.37L284.735 309.867V319.257L283.73 333.223L281.241 343.296L285.277 343.022Z" fill="#261C1B"/>
<path d="M260.071 243.974L272.603 244.531L272.328 236.477L270.682 236.523L259.555 234.786L260.071 243.974Z" fill="#6D5652"/>
<path d="M294.723 235.815L292.514 238.299L289.154 245.096L291.863 245.028L292.26 244.139L298.751 235.697L294.723 235.815Z" fill="#6D5652"/>
<path d="M314.23 235.237L306.167 235.478L302.048 242.363L301.619 244.788L307.31 244.649L308.456 244.501L311.333 238.552L314.23 235.237Z" fill="#6D5652"/>
<path d="M321.114 240.078L319.292 243.135L329.397 241.857L335.672 241.022L339.945 237.282L349.95 231.244L348.971 230.81L329.86 233.808L321.114 240.078Z" fill="#6D5652"/>
<path d="M310.579 301.244L305.693 302.581L304.3 314.695L302.795 327.893L297.576 342.2L301.399 341.939L302.157 341.884L306.064 331.701L309.57 315.458L311.521 300.936L310.579 301.244Z" fill="#261C1B"/>
<path d="M326.741 306.679L326.008 296.298L321.622 297.698L321.372 298.706L319.108 311.145L316.352 323.331L312.329 333.476L308.61 341.45L312.963 341.159L321.872 325.612L326.741 306.679Z" fill="#261C1B"/>
<path d="M353.235 240.841L352.755 241.275L363.023 243.122L367.155 246.297L370.548 245.661L375.355 245.193L368.918 239.572L365.558 238.092L353.235 240.841Z" fill="#6D5652"/>
<path d="M327.146 332.46L330.864 325.781L329.397 324.469L328.755 320.198C327.546 322.483 326.566 324.33 326.395 324.587C326.058 325.098 322.514 333.894 320.171 339.738L324.511 337.79L324.828 337.659L327.146 332.46Z" fill="#261C1B"/>
<path d="M384.165 260.381L389.368 265.209L390.864 266.419C391.335 266.141 391.631 265.968 391.631 265.968L394.6 264.028L393.766 261.266L388.717 256.864L384.165 260.381Z" fill="#6D5652"/>
<path d="M339.182 304.289L338.536 299.267L335.909 305.646L336.547 312.283L337.193 313.894L340.107 307.396L339.182 304.289Z" fill="#261C1B"/>
<path d="M343.134 317.617L340.941 322.053L340.728 322.698L341.441 324.474L342.579 327.488L345.235 321.901L343.696 319.519L343.134 317.617Z" fill="#261C1B"/>
<path d="M337.84 331.469L336.814 334.581L339.144 334.72L340.028 332.856L337.84 331.469Z" fill="#261C1B"/>
<path d="M262.719 307.447L263.152 310.635L261.893 326.118L257.253 340.775L259.851 341.112L262.91 341.513L266.909 335.508L271.182 316.728L271.803 308.088L262.719 307.447Z" fill="#261C1B"/>
<path d="M254.469 233.989L251.409 233.513L249.245 242.992L252.359 243.632L252.914 243.658L252.864 243.38L254.469 233.989Z" fill="#6D5652"/>
<path d="M243.6 336.052L246.201 337.317L250.099 319.776L249.42 306.439L245.58 305.887L246.593 309.37L246.339 321.8L243.6 336.052Z" fill="#261C1B"/>
<path d="M241.445 231.953L239.977 231.721L237.305 239.825L237.271 240.542L242.62 241.642L246.026 232.665L241.445 231.953Z" fill="#6D5652"/>
<path d="M238.055 317.234L234.853 306.979L232.16 307.75L235.553 318.503L234.523 331.621L234.949 331.832L235.983 332.337L238.055 317.234Z" fill="#261C1B"/>
<path d="M230.33 238.838L231.276 239.319L233.148 239.694L235.683 231.046L234.165 230.81L231.935 229.574L230.33 238.838Z" fill="#6D5652"/>
<path d="M221.746 232.214L221.116 234.179L224.206 235.735L224.76 232.973L227.32 226.994L225.356 225.893L221.746 232.214Z" fill="#6D5652"/>
<path d="M199.667 321.299L203.635 316.648L203.469 306.633L203.173 307.59L195.393 324.592L189.523 330.912L191.108 331.979L196.402 326.633L199.667 321.299Z" fill="#261C1B"/>
<path d="M213.992 231.366L217.14 222.819L212.904 221.504L211.695 221.128L209.319 229.718L213.992 231.366Z" fill="#6D5652"/>
<path d="M193.639 308.1L197.529 300.81L194.731 296.231L190.129 301.501C190.129 301.501 184.613 307.333 183.859 307.59C183.308 307.776 177.268 310.129 174.049 311.385L176.584 317.617L180.394 323.28L185.868 317.744L193.639 308.1Z" fill="#261C1B"/>
<path d="M170.255 302.041L176.833 297.943L184.609 283.222L184.984 281.869L180.79 277.02L179.339 281.953L173.569 293.376L168.199 296.99L170.255 302.041Z" fill="#261C1B"/>
<path d="M203.161 217.62L203.023 217.549L200.451 216.347L197.812 223.604L200.98 225.733L203.161 217.62Z" fill="#6D5652"/>
<path d="M225.702 307.531L223.889 307.097L223.501 309.943L225.006 310.129L229.025 314.948L230.026 313.173L226.257 307.843L225.702 307.531Z" fill="#261C1B"/>
<path d="M222.747 333.78L223.447 332.565L220.746 330.179L217.79 328.922L214.967 332.085L207.067 330.942L206.296 328.268L198.913 333.484L197.399 335.007L200.639 335.766L200.918 335.508L207.693 332.97L213.721 331.958L220.241 332.97L222.276 334.581L222.747 333.78Z" fill="#261C1B"/>
<path d="M214.221 341.096L210.573 339.97L212.191 342.803L212.716 342.867L217.227 346.168L220.091 347.939L220.174 347.29L220.357 345.89L218.74 344.393L214.221 341.096Z" fill="#261C1B"/>
<path d="M213.721 350.224L213.325 350.14L213.266 352.371L216.981 354.041L216.727 351.751L213.721 350.224Z" fill="#261C1B"/>
<path d="M219.107 358.818L218.74 358.856L213.095 358.653L213.037 360.892H216.222H219.107V358.818Z" fill="#261C1B"/>
<path d="M219.107 367.437L214.722 366.471L212.883 366.539L212.792 369.874L216.223 369.52L219.107 370.169V367.437Z" fill="#261C1B"/>
<path d="M212.02 375.086L211.344 377.266L212.716 377.131L216.727 377.641V376.119L213.971 374.849L212.02 375.086Z" fill="#261C1B"/>
<path d="M209.468 383.392L209.327 383.852L209.502 385.513H215.976V383.477H211.211L209.468 383.392Z" fill="#261C1B"/>
<path d="M210.164 391.99L210.331 393.554L211.461 393.377L215.221 391.598V390.333L212.207 391.598L210.164 391.99Z" fill="#261C1B"/>
<path d="M213.971 399.466V397.695L211.707 398.707L210.881 398.762L210.986 399.858L213.971 399.466Z" fill="#261C1B"/>
<path d="M397.593 309.509L397.714 308.796C397.714 308.796 393.703 311.297 391.131 312.912L385.328 322.85L389.626 322.311L394.6 318.731L396.467 314.004L397.593 309.509Z" fill="#261C1B"/>
<path d="M351.676 331.941L349.379 328.344L348.212 329.415L345.581 335.732V340.261L345.706 340.366L346.211 338.81L351.234 332.207L351.676 331.941Z" fill="#261C1B"/>
<path d="M378.333 337.794L387.108 332.97L388.367 330.179L382.593 331.95C382.593 331.95 381.209 332.354 379.479 332.835L376.377 338.144L378.333 337.794Z" fill="#261C1B"/>
<path d="M357.784 343.44L355.749 339.316L353.99 340.079L351.234 344.14L353.49 346.678L357.254 343.63L357.784 343.44Z" fill="#261C1B"/>
<path d="M374.481 347.319L377.078 345.662L378.833 342.867L374.927 344.351L374.481 347.319Z" fill="#261C1B"/>
<path d="M362.14 352.257L361.764 351.498L354.748 352.51L354.99 354.542L358.504 355.053L362.461 355.238L362.14 352.257Z" fill="#261C1B"/>
<path d="M375.13 370.469L378.745 366.817L378.815 364.903L378.832 364.515L374.88 368.031L375.13 370.469Z" fill="#261C1B"/>
<path d="M373.947 359.138L374.268 362.132L374.81 361.651L379.091 357.62L379.187 355.044L374.31 358.856L373.947 359.138Z" fill="#261C1B"/>
<path d="M363.678 366.703L363.386 363.916L363.278 363.937L356.495 362.921L358.004 365.459L363.023 366.724L363.678 366.703Z" fill="#261C1B"/>
<path d="M364.47 374.12L364.191 371.552H362.269L362.773 373.838L364.47 374.12Z" fill="#261C1B"/>
<path d="M376.931 378.429L378.107 380.862L378.332 380.69L381.734 376.039L380.867 373.707L378.332 376.882L376.931 378.429Z" fill="#261C1B"/>
<path d="M368.352 385.682L367.073 382.574L365.538 382.718L366.535 385.766L368.352 385.682Z" fill="#261C1B"/>
<path d="M382.156 394.567L384.098 393.124L384.611 390.59L382.685 391.598L382.156 394.567Z" fill="#261C1B"/>
<path d="M161.776 282.974L167.104 271.323L163.781 270.029L156.69 263.864L155.243 266.731L150.491 275.358L149.965 286.212L150.991 287.54L160.029 292.212L161.776 282.974Z" fill="#261C1B"/>
<path d="M189.124 219.016L189.099 219.083L192.188 220.475L193.393 216.983L194.456 213.543L193.134 212.919L191.746 212.088L189.124 219.016Z" fill="#6D5652"/>
<path d="M175.395 202.293L174.253 211.316L177.075 213.682L178.301 214.234L178.58 212.417L179.268 204.604L175.395 202.293Z" fill="#6D5652"/>
<path d="M142.702 268.253L149.498 257.619L143.807 252.677L140.951 257.341L134.006 264.151L136.678 268.882L138.05 270.674L142.702 268.253Z" fill="#261C1B"/>
<path d="M159.437 199.27L161.017 200.231L161.167 200.357L163.018 194.88L160.804 193.552L159.437 199.27Z" fill="#6D5652"/>
<path d="M131.338 239.66L125.806 249.637L130.087 257.222L134.919 252.007L136.608 246.242L131.338 239.66Z" fill="#261C1B"/>
<path d="M148.726 190.84L149.439 187.518L146.829 186.367L145.846 191.026L148.159 192.422L148.726 190.84Z" fill="#6D5652"/>
<path d="M125.339 232.18L122.908 229.14L118.643 235.878L119.144 236.945L119.823 238.378L123.884 234.748L125.339 232.18Z" fill="#261C1B"/>
<path d="M142.636 184.511L140.272 183.47L137.437 182.213L136.875 186.16L140.952 188.192L142.636 184.511Z" fill="#6D5652"/>
<path d="M118.86 224.093L115.329 228.79L116.204 230.654L118.11 226.627L118.91 224.148L118.86 224.093Z" fill="#261C1B"/>
<path d="M134.04 180.716L131.693 179.679L130.775 183.12L133.427 184.444L134.04 180.716Z" fill="#6D5652"/>
<path d="M109.826 216.984L109.239 218.253L110.081 225.105L110.623 232.412L112.207 230.671L112.878 229.929L112.34 224.093L112.553 216.984H109.826Z" fill="#261C1B"/>
<path d="M107.571 231.961V228.402L106.762 223.523L105.315 226.627L103.998 227.66L104.306 230.687L102.743 238.619L106.187 237.282L106.691 236.743L107.571 231.961Z" fill="#261C1B"/>
<path d="M99.2869 238.299L100.046 232.72L99.6204 231.105L96.9898 233.175L97.0314 233.222L96.2852 238.299L94.9303 241.642L95.393 241.461L97.932 240.479L99.2869 238.299Z" fill="#261C1B"/>
<path d="M89.5063 242.869L91.0112 238.298L90.7945 236.624L88.8809 237.636L87.7469 243.379L86.8423 244.442L88.5932 243.852L89.5063 242.869Z" fill="#261C1B"/>
<path d="M104.306 180.43L104.089 182.5L104.682 182.083L105.874 181.872L105.561 178.912L104.673 176.348L103.247 176.449L103.101 176.458L104.306 180.43Z" fill="#261C1B"/>
<path d="M95.8559 178.848L94.255 180.046L93.7006 180.455L95.7767 182.209L97.5318 186.78L97.5193 187.121L99.287 185.877V185.004L97.2775 179.923L95.8559 178.848Z" fill="#261C1B"/>
<path d="M93.7671 192.362L94.4092 191.165L93.2669 187.033L90.507 183.478L90.0609 183.174L88.1099 184.629L90.0109 186.269L92.012 192.367L93.0084 198.456L95.0262 198.957V195.538L93.7671 192.362Z" fill="#261C1B"/>
<path d="M81.723 242.869L77.208 247.436L66.9232 252.441L67.0399 252.513L69.6747 256.7L73.0599 255.557L79.0882 252.513L80.9685 249.468L84.5788 245.817L83.2322 244.902L81.723 242.869Z" fill="#261C1B"/>
<path d="M62.6542 228.912L61.5036 225.813L55.7462 234.622L55 242.233L55.5337 242.777L64.5761 229.182L62.6542 228.912Z" fill="#261C1B"/>
<path d="M85.1086 190.84L76.8332 183.988L73.0603 181.703L93.3882 167.995L114.475 160L140.814 163.812L161.521 167.995L182.225 183.609L208.952 201.88L220.237 211.776L229.271 220.159L236.425 224.341L231.91 231.193L216.102 224.725L201.043 219.012L178.835 206.83L157.761 193.885L138.184 184.747L124.259 178.279L111.465 177.136L99.4123 179.034L89.2484 186.27L85.1086 190.84Z" fill="#E5C2AA"/>
<path d="M88.11 184.629L89.4899 186.101L91.3576 184.777L83.5492 174.636L80.1598 176.917L88.11 184.629Z" fill="#6D5652"/>
<path d="M85.5882 190.309L86.9431 188.812L84.6127 184.621L77.909 178.431L75.4034 180.126L85.5882 190.309Z" fill="#6D5652"/>
<path d="M93.6461 174.214L89.4437 170.66L87.1633 172.199L92.1369 177.9L95.4679 181.846L97.4941 180.4L93.6461 174.214Z" fill="#6D5652"/>
<path d="M101.167 170.411L103.568 178.385L105.557 178.064L104.056 170.79L102.113 164.685L99.5369 165.667L101.167 170.411Z" fill="#6D5652"/>
<path d="M113.424 177.309L114.095 166.726L113.199 160.489L108.667 162.197L110.71 169.774L111.047 177.2L111.464 177.136L113.424 177.309Z" fill="#6D5652"/>
<path d="M123.529 178.207L126.89 169.395L127.219 161.843L122.529 161.168L121.87 170.154L119.273 177.836L123.529 178.207Z" fill="#6D5652"/>
<path d="M134.194 162.851L133.293 175.108L131.055 181.437L133.76 182.694L137.554 171.549L139.276 163.584L134.194 162.851Z" fill="#172B2A"/>
<path d="M143.916 164.436L142.578 170.411L140.443 176.757L137.458 184.41L138.184 184.747L141.686 186.383L143.954 181.572L147.589 170.529L148.389 165.342L143.916 164.436Z" fill="#172B2A"/>
<path d="M158.494 167.383L154.722 166.624L153.863 170.411L149.102 182.209L146.429 188.593L149.219 189.904L150.607 187.281L155.001 177.895L158.257 169.901L158.494 167.383Z" fill="#172B2A"/>
<path d="M165.081 170.681L164.281 176.626L162.521 182.589L161.275 191.093L160.295 195.445L162.546 196.824L164.781 193.632L167.674 187.918L171.685 180.944L174.786 177.992L165.081 170.681Z" fill="#172B2A"/>
<path d="M182.225 183.609L179.819 181.791L177.835 188.681L176.834 199.467L175.621 204.856L178.835 206.83L179.002 206.918L183.596 195.15L187.24 187.033L182.225 183.609Z" fill="#172B2A"/>
<path d="M195.161 192.451L193.514 202.516L190.875 213.429L194.097 215.2L197.278 207.972L202.877 197.73L195.161 192.451Z" fill="#172B2A"/>
<path d="M208.952 201.879L204.937 199.139C204.082 202.752 202.39 209.849 202.294 210.131C202.206 210.426 200.393 215.777 199.567 218.206L201.043 219.011L202.807 219.678L204.808 213.808L211.545 204.156L208.952 201.879Z" fill="#172B2A"/>
<path d="M221.775 213.197L220.237 211.776L215.021 207.201L212.466 215.077L211.082 222.819L216.101 224.725L216.402 224.847L220.116 219.265L221.775 213.197Z" fill="#172B2A"/>
<path d="M229.271 220.159L227.683 218.674L226.636 222.819L223.96 227.934L226.311 228.904L228.896 224.342L230.897 221.103L229.271 220.159Z" fill="#172B2A"/>
<path d="M231.91 231.193L236.425 224.341L234.849 223.414L233.791 226.374L231.448 231.004L231.91 231.193Z" fill="#172B2A"/>
<path d="M220.237 211.776L208.952 201.88L182.225 183.609L161.521 167.995L140.814 163.812L114.475 160L93.3882 167.995L73.0603 181.703L76.8332 183.988L76.9791 184.106L83.1075 178.781L95.9062 170.79L108.88 166.215L128.02 165.714L151.045 170.411L166.658 175.922L176.834 187.163L186.614 192.679L198.092 200.868L212.02 210.954L218.048 214.382L224.064 219.707L227.825 222.756L233.29 225.606L235.12 226.319L236.425 224.341L229.271 220.159L220.237 211.776Z" fill="#6D5652"/>
<path d="M108.446 184.747L115.225 179.034L122.75 168.754L128.02 165.713L131.034 169.901L127.644 184.368L116.73 191.22L111.085 190.077L107.7 189.698L108.446 184.747Z" fill="#E5C2AA"/>
<path d="M128.02 165.713L122.75 168.754L115.225 179.034L108.446 184.747L108.021 187.539L116.355 184.498L125.893 175.867L128.899 170.537L130.433 172.473L131.034 169.901L128.02 165.713Z" fill="#D8A97C"/>
<path d="M101.167 200.674L97.215 200.294L92.8918 202.386L91.9496 205.046L92.7042 208.285L96.2853 209.997L101.734 207.336L102.864 202.58L101.167 200.674Z" fill="#E5C2AA"/>
<path d="M95.5222 208.225L92.5747 207.745L92.704 208.284L96.2851 209.996L101.734 207.336L102.343 204.759L99.4118 206.952L95.5222 208.225Z" fill="#D8A97C"/>
<path d="M99.7044 201.374L95.056 202.811L94.639 204.819L95.6063 205.4L95.1894 206.83H97.5156L99.9753 204.819L100.792 201.664L99.7044 201.374Z" fill="#261C1B"/>
<path d="M102.864 202.58L101.167 200.674L97.215 200.294L92.8918 202.386L91.9496 205.046L92.0746 205.599L93.7672 203.781L96.648 202.643L99.7872 202.133L102.81 202.816L102.864 202.58Z" fill="#F9D9B9"/>
<path d="M60.2701 243.249L61.0205 239.062L63.2801 237.16L65.7898 237.793L65.6689 239.825L63.0258 242.233L60.2701 243.249Z" fill="#6D5652"/>
<path d="M61.6451 243.502L61.8995 240.584L63.2794 239.184L64.7886 239.315L65.6682 239.825L65.7891 241.221L64.4092 242.49L61.6451 243.502Z" fill="#261C1B"/>
</svg>
