<svg width="1142" height="824" viewBox="0 0 1142 824" fill="none" xmlns="http://www.w3.org/2000/svg">
<path d="M159.931 622.639C182.56 648.347 207.843 671.207 235.274 691.744C278.24 723.891 325.26 748.522 375.947 766.355C379.493 767.599 379.541 768.437 377.37 771.261C364.704 787.754 352.184 804.342 339.783 821.002C338.022 823.372 336.213 824.113 333.342 823.97C304.609 822.677 276.334 818.249 248.374 811.834C189.026 798.214 133.369 775.81 82.6582 741.987C52.5743 721.904 25.4821 698.423 1.47771 671.422C0.102583 669.866 -0.0903585 668.358 0.0302666 666.515C1.79139 640.041 4.03494 613.639 6.88169 587.261C9.89732 559.494 13.5644 531.824 18.124 504.249C32.2854 418.292 53.1055 334.036 83.7685 252.316C101.717 204.443 122.368 157.79 148.616 113.699C153.055 106.231 158.556 100.271 165.745 95.2679C217.927 59.0996 274.501 32.0515 335.73 14.7214C360.579 7.68405 385.862 2.801 411.579 0.0722233C414.257 -0.215016 415.753 0.358954 416.935 2.99198C419.806 9.31124 422.99 15.4873 426.296 21.615C427.647 24.1523 427.767 25.0375 424.462 25.7795C393.485 32.8648 363.257 42.2485 333.945 54.552C288.324 73.7012 246.974 99.6723 208.929 130.981C201.74 136.894 194.719 143.021 187.651 149.077C186.903 149.723 185.865 150.202 185.745 151.471C187.482 151.997 188.64 150.729 189.943 150.083C226.347 131.795 262.945 113.938 301.015 99.241C345.212 82.1742 390.615 69.5603 437.442 61.7809C492.181 52.685 547.331 50.0998 602.674 51.8711C676.882 54.2408 749.305 66.4482 819.413 91.2465C865.274 107.452 908.989 128.348 952.294 150.226C953.573 150.872 954.875 151.447 956.153 152.046C956.563 152.213 957.022 152.716 957.36 152.022C957.408 151.926 956.926 151.566 956.661 151.351C944.574 139.861 931.522 129.473 918.495 119.061C873.526 83.1317 822.983 57.7113 768.196 40.1657C751.308 34.7561 734.227 29.9685 717.026 25.6838C714.517 25.0615 714.204 24.4153 715.362 22.1892C718.57 16.1572 721.803 10.1489 724.529 3.90144C726.073 0.382756 728.148 -0.287387 731.67 0.0955988C751.814 2.17808 771.718 5.45795 791.38 10.3889C860.98 27.8387 924.115 58.8122 982.474 99.8875C985.176 101.778 987.25 104.077 989.012 106.853C1008.94 138.45 1025.1 171.913 1039.72 206.142C1061.92 258.013 1079.87 311.367 1094.32 365.847C1107.92 417.119 1118.52 468.99 1126.48 521.411C1132.44 560.763 1136.8 600.258 1140.11 639.897C1140.83 648.634 1141.24 657.371 1141.96 666.108C1142.18 668.645 1141.39 670.416 1139.72 672.283C1095.31 722 1041.51 758.551 980.038 784.307C941.438 800.464 901.389 811.666 860.063 818.417C842.79 821.241 825.42 823.348 807.881 823.994C805.589 824.066 804.118 823.515 802.694 821.624C789.932 804.581 777.122 787.563 764.143 770.687C761.947 767.839 763.177 767.432 765.662 766.546C814.081 749.503 859.243 726.261 900.738 696.148C930.484 674.558 957.722 650.238 982.016 622.687C982.354 622.28 982.715 621.849 983.053 621.418C983.415 621.298 983.801 621.203 984.187 621.084C983.898 620.964 983.584 620.772 983.318 620.796C982.619 620.868 983.27 621.299 983.174 621.538C982.209 620.485 981.847 621.49 981.34 622.04C971.111 629.054 961.003 636.259 950.629 643.033C904.382 673.241 854.853 696.675 802.091 713.359C766.362 724.657 729.885 732.795 692.78 738.205C638.403 746.152 583.783 748.187 528.971 745.769C456.934 742.585 386.537 730.473 318.553 706.225C263.838 686.693 213.03 659.765 166.083 625.703C164.322 624.411 162.464 623.238 160.654 622.017C160.148 621.467 159.762 620.437 158.797 621.538C158.725 621.275 159.4 620.868 158.676 620.796C158.411 620.772 158.098 620.987 157.808 621.107C158.17 621.227 158.532 621.323 158.893 621.466C159.231 621.849 159.593 622.256 159.931 622.639ZM311.388 462.073C311.629 468.105 311.678 473.107 312.353 478.11C316.069 505.254 327.359 528.425 348.517 546.449C381.954 574.957 431.217 572.563 461.856 541.135C478.647 523.9 488.683 503.459 491.746 479.785C496.427 443.474 487.139 411.399 460.939 385.021C428.202 352.036 374.885 352.635 342.461 385.954C321.472 407.497 311.991 433.516 311.388 462.073ZM830.534 467.506C830.51 436.867 822.357 412.883 805.469 392.561C788.606 372.263 766.844 360.653 740.065 360.557C713.262 360.462 691.55 371.999 674.397 392.058C660.622 408.167 652.516 426.957 650.104 447.878C645.616 486.607 656.062 520.358 686.243 546.497C719.173 575.006 768.364 572.564 798.979 541.566C820.402 519.855 830.052 493.525 830.534 467.506ZM185.31 151.806C185.214 151.71 185.118 151.615 185.045 151.543C184.949 151.711 184.852 151.878 184.804 152.046C184.78 152.118 184.949 152.213 185.045 152.285C185.142 152.141 185.238 151.974 185.31 151.806Z" fill="white"/>
</svg>
