<svg width="565" height="565" viewBox="0 0 565 565" fill="none" xmlns="http://www.w3.org/2000/svg">
<path d="M388.109 0H176.418C79.0027 0 0 79.0257 0 176.469V388.221C0 485.665 79.0027 564.691 176.418 564.691H388.109C485.525 564.691 564.528 485.665 564.528 388.221V176.469C564.51 79.0257 485.506 0 388.109 0ZM511.591 388.221C511.591 456.339 456.189 511.739 388.109 511.739H176.418C108.32 511.739 52.9361 456.32 52.9361 388.221V176.469C52.9361 108.352 108.32 52.9516 176.418 52.9516H388.109C456.207 52.9516 511.591 108.37 511.591 176.469V388.221Z" fill="white"/>
<path d="M282.248 141.161C204.304 141.161 141.12 204.363 141.12 282.329C141.12 360.295 204.304 423.497 282.248 423.497C360.191 423.497 423.375 360.295 423.375 282.329C423.375 204.382 360.191 141.161 282.248 141.161ZM282.248 370.564C233.622 370.564 194.038 330.969 194.038 282.329C194.038 233.653 233.622 194.095 282.248 194.095C330.873 194.095 370.457 233.653 370.457 282.329C370.457 330.969 330.873 370.564 282.248 370.564Z" fill="white"/>
<path d="M433.95 111.772C444.344 111.772 452.765 120.196 452.765 130.592C452.765 140.989 444.344 149.394 433.95 149.394C423.575 149.394 415.154 140.971 415.154 130.592C415.154 120.196 423.575 111.772 433.95 111.772Z" fill="white"/>
</svg>
