<svg width="589" height="589" viewBox="0 0 589 589" fill="none" xmlns="http://www.w3.org/2000/svg">
<path d="M131.592 183.967H0V588.652H131.592V183.967Z" fill="white"/>
<path d="M490.062 188.7C488.674 188.262 487.34 187.787 485.879 187.385C484.107 186.983 482.354 186.654 480.545 186.343C473.549 184.936 465.914 183.949 456.926 183.949C380.207 183.949 331.545 239.752 315.507 261.312V183.949H183.914V588.634H315.507V367.892C315.507 367.892 414.95 229.337 456.926 331.092C456.926 421.922 456.926 588.615 456.926 588.615H588.482V315.524C588.482 254.405 546.579 203.464 490.062 188.7Z" fill="white"/>
<path d="M64.3705 0C99.9172 0 128.724 28.8326 128.724 64.3713C128.724 99.9282 99.9172 128.761 64.3705 128.761C28.8238 128.761 0.0178309 99.9282 0.0178309 64.3713C-0.000435612 28.8326 28.8238 0 64.3705 0Z" fill="white"/>
</svg>
