<svg width="943" height="834" viewBox="0 0 943 834" fill="none" xmlns="http://www.w3.org/2000/svg">
<path fill-rule="evenodd" clip-rule="evenodd" d="M145.528 465.948V801.014C145.528 814.092 156.799 823.525 163.934 827.191C171.66 830.335 179.067 834 190.361 834H361.738C369.146 834 373.009 830.335 380.439 827.191C384.007 823.525 384.006 817.237 384.006 814.093V650.224H555.68V814.093C555.68 817.237 559.224 823.525 563.087 827.191C570.495 830.335 574.357 834 577.948 834H753.165C760.573 834 771.594 830.335 779.297 827.191C786.705 823.525 794.135 814.092 794.135 801.014V465.948L469.832 203.643L145.528 465.948ZM156.799 0L421.431 9.95403L145.528 226.695L138.121 236.649L156.799 0ZM920.998 374.321L510.824 42.9198C488.283 26.6772 454.993 26.6772 428.862 42.9198L18.711 374.321C-3.55756 394.228 -7.42077 426.674 15.1432 449.726C30.0041 459.68 44.8422 465.948 59.7031 465.948C74.5412 465.948 89.6978 462.804 100.696 452.87L469.877 157.579L839.036 452.87C864.872 472.758 902.297 469.614 928.428 449.726C950.697 426.694 946.834 394.228 920.998 374.321ZM432.43 541.874C432.43 551.307 424.999 558.116 414.024 558.116H250.077C238.784 558.116 227.513 551.307 227.513 541.874V452.87C227.513 443.437 238.784 436.627 250.077 436.627H414.024C424.999 436.627 432.43 443.437 432.43 452.87V541.874ZM510.846 452.87C510.846 443.437 518.277 436.627 529.57 436.627H693.517C704.788 436.627 715.786 443.437 715.786 452.87V541.874C715.786 551.307 704.788 558.116 693.517 558.116H529.57C518.277 558.116 510.846 551.307 510.846 541.874V452.87Z" fill="white"/>
</svg>
