<svg width="889" height="903" viewBox="0 0 889 903" fill="none" xmlns="http://www.w3.org/2000/svg">
<rect x="41" y="52" width="809" height="645" fill="white"/>
<path d="M677.108 862.897C674.376 867.879 670.523 869.342 666.903 873.081C666.53 873.454 664.23 874.241 664.031 874.779C662.992 875.372 661.965 875.966 660.902 876.476C654.037 879.926 646.798 882.52 639.501 884.784C624.871 889.117 609.996 892.139 595.191 894.678C565.512 899.343 536.065 901.716 507.542 902.475C479.053 903.441 451.452 902.848 425.368 902.475C399.261 901.744 374.579 900.916 351.823 899.481C329.09 898.004 308.214 896.458 289.813 893.905C271.424 891.394 255.416 888.565 242.538 884.604C233.326 881.858 225.69 878.836 219.911 875.607C220.074 875.234 220.121 874.848 219.911 874.475C216.256 868.707 213.407 861.89 212.088 854.741C213.115 855.79 214.143 856.742 215.159 857.543C218.58 860.109 222.152 862.069 225.783 863.684C233.034 866.968 240.46 869.286 247.897 871.343C262.737 875.496 277.729 878.353 292.615 880.671C322.377 885.57 422.986 890 449.257 889.614C475.504 889.669 580.468 884.659 598.846 881.127C617.247 877.677 633.079 873.316 646.016 869.355C658.882 865.174 668.842 860.675 674.761 855.638C676.933 853.83 678.334 852.023 679.326 850.27C679.034 854.645 679.07 859.309 677.108 862.897Z" fill="white"/>
<path d="M536.336 807.808C559.092 809.188 579.945 810.72 598.358 813.231C616.747 815.715 632.754 818.572 645.633 822.477C658.476 826.328 668.389 830.619 674.192 835.367C676.503 837.036 677.916 838.844 678.803 840.404C678.815 840.486 678.757 840.542 678.792 840.569C678.85 840.652 678.908 840.707 678.967 840.79C679.014 840.873 679.06 840.983 679.095 841.066C679.049 841.259 679.002 841.438 679.037 841.632C679.387 843.729 679.504 845.965 679.469 848.214C678.838 850.05 676.994 852.423 674.215 854.631C668.424 859.378 658.476 863.656 645.644 867.548C632.778 871.509 616.77 874.338 598.381 876.849C579.992 879.416 559.127 880.948 536.36 882.424C513.615 883.859 488.933 884.66 462.838 885.419C436.743 885.791 407.577 883.942 379.076 882.962C350.564 882.203 322.683 882.286 293.015 877.594C278.187 875.083 263.323 872.074 248.694 867.727C241.396 865.437 234.157 862.842 227.292 859.42C223.848 857.75 220.544 855.721 217.601 853.362C214.682 851.071 212.219 847.842 212.219 845.013C212.347 844.819 212.464 842.694 212.826 842.639C213.001 842.184 213.421 841.48 213.97 840.749C214.986 839.369 216.352 838.14 217.835 837.022C220.8 834.815 224.128 832.952 227.596 831.447C234.508 828.315 241.77 826.052 249.079 824.092C263.697 820.131 278.56 817.413 293.353 815.219C318.328 811.479 343.08 809.285 367.296 807.863V848.325C367.506 848.007 367.704 847.621 367.914 847.303C367.961 847.138 367.938 847.027 367.996 846.903C369.934 842.156 371.394 837.202 372.795 832.22V828.011C372.456 827.307 372.199 826.521 372.199 825.527V820.518C372.199 820.297 372.281 820.173 372.293 819.952C372.503 809.257 372.97 798.548 372.199 787.881C372.118 786.694 372.386 785.839 372.795 785.107V763.565C399.229 763.483 425.674 763.372 452.108 763.331C473.066 763.276 494.549 763.386 516.266 763.524V787.95C516.78 788.709 517.13 789.73 517.188 791.027C517.293 793.263 517.305 795.499 517.375 797.734C517.363 797.706 517.352 797.707 517.352 797.707C517.445 800.784 517.48 803.82 517.539 806.897H517.644C517.854 815.895 517.97 824.906 518.041 833.904C519.255 837.519 520.481 841.093 521.753 844.654V807.077C526.657 807.284 531.573 807.532 536.336 807.808Z" fill="white"/>
<path d="M887.365 30.7617C887.144 29.2713 886.91 27.7671 886.677 26.2491C886.606 20.2047 885.509 14.3398 882.66 8.93021C881.866 7.43982 880.979 6.30822 880.08 5.19043C876.916 2.11305 872.899 0.194856 867.879 0.0154565C859.974 -0.274342 579.535 3.60344 452.072 3.89324C347.399 4.12784 47.8004 2.33385 27.3912 1.35405C27.3679 1.31265 27.3445 1.25745 27.3212 1.21605C17.9806 2.74784 9.52738 6.46003 4.54185 15.0988C3.89969 17.293 3.44434 19.5838 3.26921 21.9711C3.05904 22.6749 2.81386 23.2269 2.6504 24.0135C2.23007 26.2353 1.96152 28.5123 1.62292 30.7617C-6.95926e-07 155.168 3.42098 586.057 0 690.978C0.864002 703.329 0.502065 716.853 2.94229 728.445C2.96564 728.638 3.04737 728.762 3.05905 728.955C3.0824 729.204 3.14077 729.355 3.15245 729.604C4.4251 735.124 6.48002 740.092 9.60911 744.259C15.015 749.214 23.1296 750.814 31.5828 751.104C33.2874 750.166 790.947 749.434 850.774 752.912C863.921 751.836 877.826 746.012 883.641 732.695C887.774 719.778 887.984 705.523 889 690.978C889.012 571.802 883.968 145.494 887.365 30.7617ZM849.478 733.413C849.419 733.551 849.174 733.523 849.233 733.357C852.77 721.476 837.884 712.437 831.637 722.718C829.057 726.982 828.8 734.392 832.782 737.76C837.043 741.375 843.757 741.913 847.505 737.083C847.61 736.945 847.785 737.083 847.68 737.249C845.882 739.885 843.441 741.775 840.406 741.996C837.463 742.217 834.369 741.154 832.011 738.85C827.924 734.917 827.107 727.451 830.213 722.359C833.377 717.212 839.04 714.976 844.002 717.777C848.871 720.496 851.708 727.451 849.478 733.413ZM852.315 708.324L648.714 708.076L445.113 706.834L241.512 705.385C173.641 705.095 105.782 703.798 37.9344 703.011H37.409L35.354 538.461L34.0814 374.504L33.4859 210.533C33.3808 155.872 32.9839 101.21 33.2641 46.5488L33.3108 41.6498H37.9344C105.794 41.7188 173.653 42.0638 241.512 42.809L445.113 44.4374L546.913 44.81L648.714 44.4788L852.315 43.4852L855.211 43.4714L855.234 46.5626L857.172 374.518L857.919 702.459V708.338L852.315 708.324Z" fill="white"/>
<path d="M385.427 78.0121C398.48 90.777 417.138 109.034 439.52 130.935C461.751 153.042 487.706 178.834 515.494 206.462C543.142 234.283 572.635 263.98 602.14 293.664C631.422 323.609 660.74 353.555 688.201 381.638C715.534 409.914 741.034 436.3 762.902 458.918C784.596 481.743 802.693 500.745 815.35 514.09C828.006 527.434 835.233 535.066 835.233 535.066C835.233 535.066 827.738 527.793 814.649 515.042C801.596 502.263 782.938 484.02 760.544 462.133C738.337 440.026 712.382 414.234 684.582 386.578C656.945 358.758 627.452 329.088 597.96 299.391C568.642 269.431 539.359 239.485 511.886 211.402C484.554 183.154 459.054 156.741 437.209 134.123C415.492 111.311 397.394 92.2812 384.726 78.9505C372.093 65.6059 364.878 57.9746 364.878 57.9746C364.878 57.9746 372.338 65.261 385.427 78.0121ZM374.288 573.526C356.716 555.766 336.214 535.066 314.228 512.903C292.43 490.506 269.148 466.618 245.879 442.772C222.773 418.65 199.701 394.527 178.055 371.909C156.548 349.084 136.489 327.791 119.291 309.533C85.0225 272.867 62.5234 247.958 62.5234 247.958C62.5234 247.958 86.3769 271.059 121.649 306.36C139.209 324.12 159.724 344.82 181.697 366.983C203.508 389.38 226.777 413.24 250.059 437.114C273.153 461.236 296.248 485.358 317.895 507.976C339.389 530.774 359.46 552.067 376.647 570.325C410.927 607.005 433.426 631.941 433.426 631.941C433.426 631.941 409.549 608.84 374.288 573.526ZM495.774 618.914C484.052 607.46 467.11 591.369 447.133 571.525C427.191 551.736 403.886 528.621 378.923 503.85C354.089 478.886 327.609 452.266 301.152 425.632C274.87 398.736 248.576 371.868 223.928 346.655C199.433 321.236 176.583 297.514 157.003 277.228C137.552 256.68 121.334 239.582 109.997 227.59C98.6714 215.597 92.2031 208.725 92.2031 208.725C92.2031 208.725 98.9283 215.225 110.697 226.624C122.432 238.077 139.198 254.417 159.315 274.013C179.292 293.829 202.585 316.958 227.56 341.701C252.359 366.665 278.839 393.285 305.32 419.919C331.602 446.788 357.895 473.697 382.543 498.896C407.039 524.288 429.9 547.996 449.491 568.324C469.107 588.623 485.114 606.011 496.474 617.948C507.8 629.968 514.268 636.813 514.268 636.813C514.268 636.813 507.555 630.313 495.774 618.914ZM818.724 557.918C805.682 545.14 787.001 526.896 764.63 505.009C742.388 482.874 716.445 457.082 688.668 429.455C661.02 401.607 631.527 371.937 602.023 342.239C572.728 312.294 543.411 282.348 515.961 254.279C488.617 226.003 463.117 199.617 441.248 176.999C419.555 154.174 401.458 135.144 388.801 121.827C376.156 108.469 368.917 100.851 368.917 100.851C368.917 100.851 376.413 108.124 389.49 120.861C402.555 133.626 421.213 151.897 443.595 173.784C465.814 195.891 491.769 221.683 519.569 249.338C547.205 277.173 576.698 306.843 606.191 336.54C635.509 366.486 664.803 396.432 692.276 424.487C719.609 452.763 745.109 479.148 766.966 501.766C788.671 524.592 806.756 543.622 819.436 556.939C832.069 570.311 839.285 577.928 839.285 577.928C839.285 577.928 831.812 570.67 818.724 557.918Z" fill="black"/>
</svg>
