<svg width="660" height="660" viewBox="0 0 660 660" fill="none" xmlns="http://www.w3.org/2000/svg">
<path d="M640.206 399.678C644.992 378.208 647.458 355.953 647.458 333.113C647.458 161.888 506.732 23.0408 333.072 23.0408C314.787 23.0408 296.813 24.6122 279.314 27.5722C251.22 10.1409 217.975 0 182.337 0C81.6149 0 0 80.4874 0 179.85C0 213.031 9.15103 244.057 25.0429 270.807C20.8782 290.924 18.6501 311.772 18.6501 333.113C18.6501 504.393 159.43 643.223 333.036 643.223C352.727 643.223 371.961 641.414 390.63 638.034C416.331 651.628 445.667 659.375 476.866 659.375C577.552 659.375 659.167 578.851 659.167 479.58C659.149 450.857 652.316 423.778 640.206 399.678ZM494.311 481.316C479.771 501.634 458.308 517.714 430.415 529.079C402.85 540.407 369.861 546.181 332.195 546.181C287.04 546.181 249.174 538.343 219.6 522.848C198.466 511.593 181.076 496.391 167.851 477.516C154.462 458.568 147.74 439.73 147.74 421.513C147.74 410.184 152.142 400.336 160.837 392.296C169.44 384.256 180.492 380.255 193.68 380.255C204.476 380.255 213.792 383.434 221.372 389.738C228.587 395.804 234.798 404.776 239.785 416.269C245.356 428.876 251.402 439.51 257.795 447.787C264.024 455.9 272.884 462.661 284.209 467.978C295.626 473.258 310.988 476.017 329.857 476.017C355.85 476.017 377.186 470.536 393.187 459.737C408.878 449.231 416.459 436.532 416.459 421.037C416.459 408.832 412.459 399.203 404.348 391.656C395.781 383.745 384.492 377.605 370.811 373.366C356.508 368.999 337.109 364.212 313.125 359.279C280.446 352.39 252.736 344.241 230.725 334.959C208.184 325.476 189.972 312.375 176.71 295.967C163.193 279.266 156.362 258.382 156.362 233.824C156.362 210.418 163.522 189.314 177.697 171.097C191.744 153.008 212.257 138.866 238.743 129.273C264.828 119.753 295.845 114.93 330.99 114.93C359.047 114.93 383.725 118.146 404.367 124.486C425.081 130.826 442.562 139.396 456.28 149.993C470.126 160.701 480.428 172.029 486.858 183.906C493.361 195.856 496.704 207.769 496.704 219.262C496.704 230.353 492.375 240.439 483.808 249.173C475.149 258.035 464.281 262.475 451.512 262.475C439.895 262.475 430.743 259.624 424.442 254.143C418.541 248.99 412.404 240.95 405.645 229.494C397.827 214.822 388.292 203.237 377.423 195.033C366.829 187.085 349.201 183.12 324.889 183.12C302.384 183.12 284.026 187.579 270.418 196.386C257.321 204.827 250.928 214.566 250.928 226.095C250.928 233.148 252.992 239.032 257.23 244.112C261.668 249.557 267.989 254.216 275.971 258.162C284.209 262.237 292.739 265.544 301.27 267.847C310.001 270.24 324.633 273.821 344.781 278.389C370.245 283.743 393.608 289.809 414.285 296.351C435.255 302.91 453.303 311.023 468.135 320.542C483.168 330.227 495.078 342.597 503.572 357.433C512.066 372.398 516.341 390.725 516.341 412.084C516.322 437.683 508.906 460.961 494.311 481.316Z" fill="white"/>
</svg>
