<svg width="657" height="546" viewBox="0 0 657 546" fill="none" xmlns="http://www.w3.org/2000/svg">
<path d="M243.406 399.972L237.983 529.326L308.877 447.857L243.406 399.972Z" fill="white"/>
<path d="M629.462 1.40451C516.329 44.3116 151.208 187.751 13.0068 242.097C-5.24215 249.273 -3.98754 273.998 14.8797 279.543L173.361 326.146L528.66 123.116C530.833 121.884 533.059 124.614 531.222 126.263L259.571 369.652C259.571 369.652 426.585 484.937 505.818 539.382C525.338 552.786 553.021 542.48 557.473 520.102C580.245 405.833 637.182 120.136 656.632 22.4668C659.583 7.7648 644.178 -4.18989 629.462 1.40451Z" fill="white"/>
</svg>
