<svg width="320" height="320" viewBox="0 0 320 320" fill="none" xmlns="http://www.w3.org/2000/svg">
<rect width="320" height="320" fill="#FFF9F9" fill-opacity="0.82"/>
<path d="M97.4361 278.442C99.435 253.609 100.046 228.764 100.733 203.919C138.016 202.47 175.295 201.021 212.578 199.572C212.957 199.557 213.317 199.526 213.684 199.501C216.415 225.992 218.59 252.5 222.517 278.955C224.099 289.616 256.541 289.737 254.943 278.986C249.231 240.495 247.266 201.89 241.82 163.389C239.146 144.493 235.381 125.672 230.4 106.902C226.725 93.0433 223.499 78.9601 214.836 65.6411C206.622 53.0146 191.628 37.4864 164.359 33.7953C131.092 29.2918 105.552 44.762 94.1544 58.8432C80.9117 75.2014 78.1476 93.1052 75.4848 110.597C73.047 126.613 71.0255 142.611 70.0429 158.673C67.6014 198.58 68.2315 238.514 65.0173 278.411C64.1435 289.173 96.5735 289.184 97.4361 278.442ZM111.635 90.5265C114.973 77.9948 120.659 58.4215 144.058 51.2813C165.608 44.7059 179.822 63.9406 184.555 71.6535C192.146 84.0246 195.322 96.9819 198.709 109.794C203.213 126.824 206.574 143.911 209.06 161.051C210.114 168.322 211.014 175.598 211.858 182.876C174.984 184.309 138.106 185.743 101.232 187.176C101.314 184.547 101.397 181.918 101.49 179.289C102.555 149.788 103.842 119.794 111.635 90.5265Z" fill="#549754"/>
</svg>
