<svg width="320" height="320" viewBox="0 0 320 320" fill="none" xmlns="http://www.w3.org/2000/svg">
<rect width="320" height="320" fill="#FFF9F9" fill-opacity="0.82"/>
<path d="M73.9823 278.224C73.8444 281.502 77.0661 284.576 84.7444 285.295C120.301 288.627 156.63 287.341 189.847 279.074C218.691 271.894 238.532 258.322 248.277 241.68C267.807 208.332 243.72 171.25 189.872 153.197C181.145 150.272 171.973 147.939 162.518 146.168C188.43 138.989 210.04 128.832 218.971 111.016C233.179 82.6732 205.256 56.0337 160.359 42.8373C136.741 35.896 109.59 32.146 82.8576 33.1654C78.4803 33.333 75.1137 34.3467 72.7337 35.7939C68.3046 36.9771 64.9794 39.3551 65.0001 42.9452C65.4416 121.064 68.0425 199.196 73.8202 277.251C73.8478 277.587 73.903 277.91 73.9823 278.224ZM214.176 190.869C234.472 212.774 227.994 247.592 187.288 261.137C162.459 269.399 131.825 271.701 103.147 270.019C100.505 233.091 98.5455 196.146 97.2036 159.194C98.4937 159.243 99.8458 159.219 101.274 159.098C146.037 155.23 193.355 168.402 214.176 190.869ZM192.324 89.2965C196.557 103.137 186.229 117.957 166.04 126.309C145.799 134.684 120.259 138.033 96.6586 142.41C95.6858 111.527 95.1099 80.6402 94.8857 49.7554C136.889 50.769 184.818 64.7536 192.324 89.2965Z" fill="#549754"/>
</svg>
