<svg width="320" height="320" viewBox="0 0 320 320" fill="none" xmlns="http://www.w3.org/2000/svg">
<rect width="320" height="320" fill="#FFF9F9" fill-opacity="0.82"/>
<path d="M132.174 281.417C188.605 299.247 261.953 271.787 254.47 235.599C253.59 231.336 248.683 227.758 240.457 227.702C233.553 227.654 225.518 231.343 226.391 235.57C231.224 258.944 186.975 280.109 147.409 268.14C114.816 258.28 110.048 232.729 104.845 214.399C95.3523 180.941 91.5623 147.07 95.0795 113.218C96.9956 94.7822 101.25 72.1069 125.656 58.2993C139.351 50.5512 161.598 46.6488 180.593 49.6157C202.817 53.0858 216.502 65.5769 216.295 78.1153C216.126 88.2632 244.205 88.3015 244.374 78.1445C244.627 62.7359 231.11 48.0931 208.185 39.5426C186.354 31.3988 157.45 31.3113 133.687 36.7782C89.6267 46.9133 74.8824 74.2349 69.3614 98.5387C60.8266 136.127 65.75 175.374 76.084 212.674C82.8489 237.071 89.6494 267.981 132.174 281.417Z" fill="#549754"/>
</svg>
