<svg width="320" height="320" viewBox="0 0 320 320" fill="none" xmlns="http://www.w3.org/2000/svg">
<rect width="320" height="320" fill="#FFF9F9" fill-opacity="0.82"/>
<path d="M76.736 283.669C79.7952 286.283 85.3297 287.849 92.469 286.513C128.249 279.824 167.253 274.862 196.734 261.205C229.794 245.89 239.097 218.781 246.118 196.672C254.411 170.554 256.459 143.971 254.065 117.522C252.089 95.7287 241.803 72.6725 210.739 57.5729C178.176 41.7455 132.952 37.3194 91.4516 33.1563C88.1406 32.8248 85.1689 33.0401 82.5992 33.6174C74.1872 32.8477 64.723 35.437 65.0062 41.4197C68.7856 120.452 67.9884 199.534 73.1768 278.549C73.3132 280.691 74.6767 282.392 76.736 283.669ZM223.312 112.732C226.556 135.767 225.378 159.397 219.802 182.293C216.907 194.184 212.481 205.985 206.659 217.553C202.041 226.734 196.768 236.36 185.64 243.909C166.075 257.183 132.802 262.446 102.72 267.455C98.4616 195.077 98.7832 122.649 95.6191 50.2565C124.386 53.1354 154.111 56.4697 178.913 65.0189C208.76 75.3037 220.721 94.3493 223.312 112.732Z" fill="#549754"/>
</svg>
