<svg width="320" height="320" viewBox="0 0 320 320" fill="none" xmlns="http://www.w3.org/2000/svg">
<rect width="320" height="320" fill="#FFF9F9" fill-opacity="0.82"/>
<path d="M81.3075 286.988C134.551 285.235 187.79 283.481 241.033 281.729C259.556 281.119 259.737 264.829 241.087 265.443C192.601 267.04 144.118 268.636 95.6325 270.233C94.6911 228.118 94.1516 186.002 94.0143 143.885C94.7044 143.93 95.4146 143.96 96.1684 143.954C125.864 143.719 155.562 143.485 185.258 143.25C203.877 143.103 203.988 126.816 185.311 126.963C155.616 127.197 125.917 127.432 96.222 127.668C95.4347 127.674 94.6945 127.719 93.9742 127.781C93.9541 102.312 94.088 76.8422 94.3694 51.371C133.207 50.6778 172.041 49.9846 210.879 49.2914C229.469 48.9599 229.61 32.6716 210.933 33.005C167.284 33.7849 123.639 34.5629 79.9908 35.3427C72.1382 35.4821 65.5352 38.9387 65.4816 43.4708C64.5268 121.925 64.9958 200.382 66.8518 278.832C66.9523 283.033 73.3744 287.25 81.3075 286.988Z" fill="#549754"/>
</svg>
