<svg width="320" height="320" viewBox="0 0 320 320" fill="none" xmlns="http://www.w3.org/2000/svg">
<rect width="320" height="320" fill="#FFF9F9" fill-opacity="0.82"/>
<path d="M101.626 279.142C100.36 234.101 99.6554 189.056 99.4842 144.011C100.304 144.056 101.148 144.086 102.04 144.081C137.329 143.847 172.623 143.611 207.912 143.375C230.04 143.228 230.171 126.923 207.976 127.07C172.686 127.306 137.393 127.54 102.104 127.776C101.168 127.781 100.288 127.827 99.4325 127.889C99.4086 102.39 99.5678 76.8921 99.9022 51.3919C146.056 50.6979 192.21 50.0039 238.36 49.3099C260.452 48.978 260.619 32.6713 238.424 33.0051C186.553 33.7858 134.686 34.5646 82.8149 35.3454C73.4829 35.4849 65.636 38.9454 65.5723 43.4827C64.4377 122.026 64.995 200.573 67.2006 279.112C67.4992 289.593 101.921 289.655 101.626 279.142Z" fill="#549754"/>
</svg>
