<svg width="320" height="320" viewBox="0 0 320 320" fill="none" xmlns="http://www.w3.org/2000/svg">
<rect width="320" height="320" fill="#FFF9F9" fill-opacity="0.82"/>
<path d="M120.089 279.01C143.661 289.491 175.544 288.952 201.329 281.5C235.202 271.708 247.505 249.496 252.183 228.914C257.794 204.235 253.713 179.363 251.181 154.64C250.741 150.335 245.211 146.209 237.316 146.39C210.056 147.011 182.787 147.182 155.51 146.942C137.629 146.784 137.568 163.255 155.459 163.413C178.42 163.615 201.374 163.506 224.322 163.102C226.125 179.213 228.079 195.358 226.98 211.499C225.926 226.969 223.368 244.907 207.046 257.701C193.419 268.382 165.853 274.219 144.493 268.603C128.498 264.399 118.698 254.456 112.474 245.225C94.4291 218.462 92.5109 187.241 92.6298 158.883C92.6941 143.696 92.9897 128.378 94.5577 113.216C95.9939 99.3289 98.9661 84.6167 109.666 72.0342C122.297 57.1809 147.699 45.9529 176.932 50.0848C202.567 53.7081 223.911 66.8735 224.58 82.8659C225.023 93.4444 252.804 93.5168 252.36 82.8964C250.744 44.225 172.588 19.0067 117.885 41.4285C67.5225 62.071 66.5297 103.352 65.5368 135.93C64.4476 171.662 63.1463 209.379 82.184 243.811C89.5709 257.179 100.724 270.399 120.089 279.01Z" fill="#549754"/>
</svg>
