<svg width="320" height="320" viewBox="0 0 320 320" fill="none" xmlns="http://www.w3.org/2000/svg">
<rect width="320" height="320" fill="#FFF9F9" fill-opacity="0.82"/>
<path d="M222.577 41.6356C223.821 78.11 224.191 114.594 224.619 151.076C181.152 151.305 137.688 151.535 94.2212 151.764C93.7877 114.832 93.4233 77.9002 92.1637 40.9757C91.8024 30.3809 64.6423 30.3123 65.0036 40.9452C67.702 120.068 66.2884 199.228 70.2559 278.337C70.7868 288.923 97.95 289.001 97.416 278.368C95.5751 241.67 94.8966 204.963 94.4254 168.253C137.889 168.024 181.356 167.793 224.823 167.564C225.294 204.723 225.969 241.88 227.832 279.028C228.363 289.613 255.526 289.691 254.992 279.058C251.025 199.949 252.441 120.789 249.74 41.6661C249.372 31.0713 222.212 31.0027 222.577 41.6356Z" fill="#549754"/>
</svg>
