<svg width="320" height="320" viewBox="0 0 320 320" fill="none" xmlns="http://www.w3.org/2000/svg">
<rect width="320" height="320" fill="#FFF9F9" fill-opacity="0.82"/>
<path d="M236.946 49.7091C260.935 49.5545 261.078 32.8465 237.015 33.0011C211.674 33.1653 186.333 33.3276 160.997 33.4919C157.501 33.1151 153.785 33.1402 150.366 33.5615C128.258 33.7045 106.151 33.8475 84.0385 33.9905C60.0489 34.1451 59.9065 50.8531 83.9695 50.6985C102.016 50.5825 120.062 50.4646 138.112 50.3487C141.134 123.525 139.981 196.73 144.798 269.893C124.218 270.026 103.634 270.159 83.0544 270.291C59.0648 270.445 58.9222 287.154 82.9853 286.999C133.977 286.67 184.97 286.34 235.966 286.011C259.956 285.857 260.098 269.149 236.035 269.303C218.058 269.419 200.081 269.535 182.104 269.651C177.3 196.489 178.456 123.283 175.422 50.1071C195.928 49.9738 216.435 49.8405 236.946 49.7091Z" fill="#549754"/>
</svg>
