<svg width="320" height="320" viewBox="0 0 320 320" fill="none" xmlns="http://www.w3.org/2000/svg">
<rect width="320" height="320" fill="#FFF9F9" fill-opacity="0.82"/>
<path d="M103.136 279.897C126.16 291.983 156.476 287.832 175.599 273.583C198.069 256.84 199.971 233.09 199.34 211.002C198.597 184.976 198.709 158.932 198.65 132.898C198.589 105.309 196.514 77.7488 196.588 50.1595C196.588 50.1018 196.578 50.0499 196.578 49.9941C212.339 49.8942 228.101 49.7865 243.86 49.6249C258.662 49.475 258.75 32.851 243.902 33.001C201.897 33.4279 159.886 33.5144 117.883 33.9413C103.08 34.0912 102.992 50.7152 117.84 50.5652C136.414 50.3768 154.988 50.2556 173.562 50.1422C173.506 71.2615 174.827 92.3577 175.378 113.471C175.972 136.248 175.841 159.053 175.823 181.834C175.807 202.726 180.329 225.601 172.094 245.921C166.331 260.143 146.3 275.106 124.155 269.313C102.619 263.679 94.6504 243.986 87.9069 229.937C83.0863 219.893 60.8211 224.18 65.6922 234.327C73.7168 251.052 82.5083 269.07 103.136 279.897Z" fill="#549754"/>
</svg>
