<svg width="320" height="320" viewBox="0 0 320 320" fill="none" xmlns="http://www.w3.org/2000/svg">
<rect width="320" height="320" fill="#FFF9F9" fill-opacity="0.82"/>
<path d="M100.099 158.51C148.003 121.271 197.029 84.7664 244.448 47.2114C254.336 39.3814 238.06 27.748 228.119 35.6216C182.688 71.6022 135.784 106.622 89.8019 142.245C89.4674 108.569 89.1249 74.8909 88.1402 41.2206C87.8324 30.7093 64.6953 30.6412 65.003 41.1904C67.3018 119.689 66.0975 198.226 69.4774 276.712C69.9296 287.214 93.0694 287.291 92.6145 276.742C91.1587 242.909 90.554 209.065 90.1526 175.22C137.008 212.654 185.875 248.786 235.275 284.544C245.698 292.088 262.083 280.538 251.665 272.997C199.996 235.597 148.908 197.791 100.099 158.51Z" fill="#549754"/>
</svg>
