<svg width="320" height="320" viewBox="0 0 320 320" fill="none" xmlns="http://www.w3.org/2000/svg">
<rect width="320" height="320" fill="#FFF9F9" fill-opacity="0.82"/>
<path d="M65.2941 44.1516C67.2558 122.352 66.2448 200.586 69.2514 278.771C69.6592 289.375 90.5243 289.454 90.1141 278.802C87.7204 216.53 87.8724 154.228 87.0448 91.9348C107.222 133.247 129.844 173.819 150.053 215.124C153.935 223.062 166.133 222.81 170.17 215.154C192.121 173.529 211.657 131.149 231.019 88.7288C231.899 152.16 231.694 215.603 234.131 279.014C234.539 289.618 255.404 289.696 254.994 279.044C251.992 200.922 252.998 122.75 251.042 44.6139C251.343 43.437 251.295 42.3555 250.964 41.3811C250.962 41.3314 250.962 41.2799 250.962 41.2302C250.684 30.6166 229.822 30.5477 230.099 41.1995C230.109 41.5606 230.116 41.9199 230.126 42.281C207.275 91.954 185.196 141.891 160.291 190.95C135.083 141.275 107.488 92.3266 86.0916 41.4996C86.0868 41.3295 86.0844 41.1576 86.0796 40.9875C85.8045 30.4713 65.3375 30.3128 65.2265 40.6685C64.9152 41.7174 64.9128 42.8848 65.2941 44.1516Z" fill="#549754"/>
</svg>
