<svg width="320" height="320" viewBox="0 0 320 320" fill="none" xmlns="http://www.w3.org/2000/svg">
<rect width="320" height="320" fill="#FFF9F9" fill-opacity="0.82"/>
<path d="M198.321 236.314C209.148 251.8 219.965 267.292 230.676 282.82C234.618 288.534 243.426 287.779 248.359 284.208C252.213 283.182 255.178 280.75 254.992 276.891C251.199 198.333 252.514 119.71 249.925 41.135C249.579 30.6151 226.547 30.545 226.896 41.1046C229.147 109.363 228.449 177.657 230.715 245.913C192.634 191.154 153.958 136.604 116.023 81.794C106.607 68.1886 97.2256 54.5699 88.0308 40.8868C87.6366 30.401 64.6576 30.3405 65.0039 40.8888C67.5929 119.464 66.2744 198.087 70.07 276.645C70.5788 287.154 93.6084 287.233 93.0996 276.675C89.9326 211.126 90.3215 145.533 89.0324 79.9585C124.845 132.289 161.893 184.205 198.321 236.314Z" fill="#549754"/>
</svg>
