<svg width="320" height="320" viewBox="0 0 320 320" fill="none" xmlns="http://www.w3.org/2000/svg">
<rect width="320" height="320" fill="#FFF9F9" fill-opacity="0.82"/>
<path d="M192.723 38.4062C171.678 30.3239 146.661 31.6438 125.998 40.1012C105.283 48.58 88.8996 64.9272 79.1025 84.0191C57.2963 126.516 62.7314 180.17 82.094 222.514C92.2276 244.677 108.071 264.478 130.526 276.563C152.443 288.358 179.169 291.897 200.975 277.968C223.898 263.325 238.313 238.398 246.276 213.893C254.344 189.071 256.601 162.348 253.933 136.55C249.598 98.0474 233.765 54.1664 192.723 38.4062ZM207.147 249.812C200.509 257.36 192.627 264.634 182.758 268.162C172.952 271.666 162.683 270.766 152.886 267.734C131.726 261.185 115.078 245.662 104.419 227.537C83.721 192.333 76.5562 146.039 88.5673 107.131C99.577 71.47 133.659 43.5902 174.606 50.8289C216.027 58.1511 232.248 101.474 236.196 136.519C240.152 174.786 233.964 219.316 207.147 249.812Z" fill="#549754"/>
</svg>
