<svg width="320" height="320" viewBox="0 0 320 320" fill="none" xmlns="http://www.w3.org/2000/svg">
<rect width="320" height="320" fill="#FFF9F9" fill-opacity="0.82"/>
<path d="M247.719 140.848C268.754 105.647 242.907 67.2952 187.006 46.9457C156.949 36.0046 119.955 31.3856 84.1935 33.4993C75.4693 32.2322 64.7632 34.7644 65.004 41.1399C68.0016 120.422 66.4312 199.743 70.8387 279.012C71.4284 289.618 101.603 289.697 101.01 279.042C99.5132 252.142 98.7141 225.233 98.1836 198.325C166.03 201.717 226.69 176.039 247.719 140.848ZM95.4686 49.6042C143.176 48.9678 188.712 61.7798 211.762 85.575C238.126 112.791 222.946 146.637 182.12 166.881C159.403 178.147 128.512 184.351 97.8869 181.838C97.175 137.76 96.9622 93.6763 95.4686 49.6042Z" fill="#549754"/>
</svg>
