<svg width="320" height="320" viewBox="0 0 320 320" fill="none" xmlns="http://www.w3.org/2000/svg">
<rect width="320" height="320" fill="#FFF9F9" fill-opacity="0.82"/>
<path d="M209.791 271.108C211.779 269.557 213.645 267.925 215.432 266.248C221.535 272.044 227.638 277.839 233.751 283.631C242.402 291.829 257.51 280.22 248.933 272.091C241.839 265.366 234.752 258.638 227.665 251.907C235.023 241.148 239.903 229.255 243.349 217.683C251.749 189.452 256.37 160.137 254.64 131.178C251.65 89.7727 228.915 33.1421 162.5 33.0003C105.272 32.8773 78.4317 76.2737 69.86 113.329C60.386 154.282 64.2481 197.735 86.007 236.146C96.9683 255.5 114.367 276.98 141.703 284.437C165.517 290.931 192.531 284.577 209.791 271.108ZM112.756 240.742C89.4797 208.927 83.4538 170.374 87.6355 134.534C90.972 105.942 101.514 64.8057 140.947 52.5037C166.102 44.6554 192.744 52.0499 208.569 68.206C226.096 86.1001 231.631 109.339 233.208 131.147C234.561 153.834 231.921 176.567 226.547 198.883C223.382 212.03 219.637 225.374 212.698 237.704C211.994 237.039 211.293 236.371 210.592 235.704C201.943 227.505 186.835 239.115 195.409 247.243C197.461 249.188 199.509 251.134 201.559 253.08C193.148 262.032 181.723 269.256 166.687 270.367C140.828 272.275 124.183 256.359 112.756 240.742Z" fill="#549754"/>
</svg>
