<svg width="320" height="320" viewBox="0 0 320 320" fill="none" xmlns="http://www.w3.org/2000/svg">
<rect width="320" height="320" fill="#FFF9F9" fill-opacity="0.82"/>
<path d="M247.719 140.704C268.754 105.551 242.907 67.2496 187.006 46.9273C156.949 36.0008 119.955 31.3877 84.1935 33.4986C75.4693 32.2332 64.7632 34.762 65.004 41.129C68.0016 120.306 66.4312 199.521 70.8387 278.684C71.4284 289.276 101.603 289.355 101.01 278.714C99.7784 256.596 99.0246 234.476 98.4942 212.352C138.873 236.364 179.203 260.4 219.592 284.406C232.769 292.239 254.101 280.568 240.966 272.76C199.258 247.968 157.612 223.143 115.908 198.349C176.397 196.913 228.54 172.755 247.719 140.704ZM182.12 166.701C159.403 177.952 128.512 184.147 97.8869 181.637C97.175 137.618 96.9588 93.5934 95.4652 49.5801C143.172 48.9445 188.709 61.7396 211.758 85.5031C238.122 112.683 222.942 146.484 182.12 166.701Z" fill="#549754"/>
</svg>
