<svg width="320" height="320" viewBox="0 0 320 320" fill="none" xmlns="http://www.w3.org/2000/svg">
<rect width="320" height="320" fill="#FFF8F8" fill-opacity="0.82"/>
<path d="M73.1815 48L72.8248 47.7882C118.349 45.9656 171.842 46.0872 217.214 44.6939C223.572 44.4985 223.613 29.8065 217.232 30.0019C169.748 31.4616 122.242 30.6969 74.7661 32.8431C71.7695 32.9791 70.1774 36.3181 70 39.7795C70.3408 45.2935 73.1943 47.02 73.2023 47.8424C73.1924 47.8957 73.1855 47.9481 73.1815 48Z" fill="#549754"/>
<path d="M207.281 179.152C223.661 214.353 203.534 252.705 160.005 273.054C136.6 283.995 107.793 288.614 79.9457 286.501C73.1524 287.768 64.8156 285.236 65.0031 278.86C67.3373 199.578 66.1145 120.257 69.5465 40.9883C70.0058 30.3816 93.5027 30.3033 93.0408 40.9577C91.875 67.8585 91.2528 94.7669 90.8397 121.675C143.671 118.283 190.906 143.961 207.281 179.152ZM88.7256 270.396C125.875 271.032 161.333 258.22 179.281 234.425C199.811 207.209 187.991 173.363 156.2 153.119C138.51 141.853 114.456 135.649 90.6087 138.162C90.0543 182.24 89.8886 226.324 88.7256 270.396Z" fill="#549754"/>
</svg>
