<svg width="320" height="320" viewBox="0 0 320 320" fill="none" xmlns="http://www.w3.org/2000/svg">
<rect width="320" height="320" fill="#FFF8F8" fill-opacity="0.82"/>
<path d="M65.0086 244.272C64.8771 247.614 66.2508 250.509 68.9686 251.398C72.4472 254.491 79.3755 254.358 82.1554 249.408C83.7538 190.28 83.2335 99.1496 84.8207 40.0207C85.0667 30.8733 68.8253 30.9341 68.5811 40.047C66.7554 108.113 67.6833 176.221 65.0086 244.272Z" fill="#549754"/>
<path d="M76.3251 241.142C74.3587 241.023 71.4945 243.102 70.9713 245.576C69.1517 248.743 70.752 251.328 73.6644 253.859C108.451 255.314 162.843 249.953 197.63 251.398C203.012 251.622 198.139 241.365 192.778 241.142C152.733 239.48 116.362 243.578 76.3251 241.142Z" fill="#549754"/>
<path d="M195.408 244.059C198.084 176.007 197.154 107.9 198.98 39.8337C199.224 30.6962 183.021 30.7486 182.743 39.832C181.833 96.636 181.401 187.303 179.168 244.085C178.809 253.231 195.049 253.162 195.408 244.059Z" fill="#549754"/>
<path d="M239.74 251.324C251.028 251.285 250.369 235.841 239.178 235.88C236.501 235.89 215.705 235.948 213.027 235.956C205.053 235.976 197.081 235.998 189.105 236.027C177.816 236.067 178.475 251.511 189.667 251.471C198.926 251.439 208.183 251.414 217.443 251.39C218.36 251.385 238.823 251.326 239.74 251.324Z" fill="#549754"/>
<path d="M246.439 249.321C253.635 241.725 239.638 232.274 232.503 239.805C230.797 241.607 217.527 255.595 215.818 257.396C210.728 262.758 205.641 268.12 200.556 273.488C193.36 281.087 207.358 290.538 214.492 283.005C220.395 276.774 226.303 270.547 232.213 264.321C232.797 263.703 245.853 249.938 246.439 249.321Z" fill="#549754"/>
</svg>
