<svg width="320" height="320" viewBox="0 0 320 320" fill="none" xmlns="http://www.w3.org/2000/svg">
<rect width="320" height="320" fill="#FFF8F8" fill-opacity="0.82"/>
<path d="M121.679 236.314C110.852 251.8 100.035 267.292 89.3245 282.82C85.3823 288.534 76.5738 287.779 71.6408 284.208C67.7865 283.182 64.8219 280.75 65.0083 276.891C68.8013 198.333 67.4855 119.71 70.0745 41.135C70.4208 30.6151 93.4531 30.545 93.1042 41.1046C90.8534 109.363 91.5513 177.657 89.2846 245.913C127.366 191.154 166.042 136.604 203.977 81.794C213.393 68.1886 222.774 54.5699 231.969 40.8868C232.363 30.401 255.342 30.3405 254.996 40.8888C252.407 119.464 253.726 198.087 249.93 276.645C249.421 287.154 226.392 287.233 226.9 276.675C230.067 211.126 229.678 145.533 230.968 79.9585C195.155 132.289 158.107 184.205 121.679 236.314Z" fill="#549754"/>
</svg>
