<svg width="320" height="320" viewBox="0 0 320 320" fill="none" xmlns="http://www.w3.org/2000/svg">
<rect width="320" height="320" fill="#FFF8F8" fill-opacity="0.82"/>
<path d="M235.953 37.2766C242.572 28.0032 260.161 36.4356 253.532 45.7226C226.301 83.8716 187.293 136.656 160.039 174.793C134.727 210.212 109.338 247.547 84.0473 282.978C77.4277 292.251 59.839 283.819 66.4681 274.532C92.6058 237.914 118.765 201.309 144.925 164.702L148.207 160.11C121.127 121.89 94.0475 83.669 66.9914 45.437C60.4001 36.1211 78.0406 27.7601 84.6108 37.0451C109.031 71.5532 133.473 106.052 157.914 140.549L160.039 143.548L163.459 138.762C187.63 104.936 211.801 71.1117 235.953 37.2766Z" fill="#549754"/>
</svg>
