<svg width="320" height="320" viewBox="0 0 320 320" fill="none" xmlns="http://www.w3.org/2000/svg">
<rect width="320" height="320" fill="#FFF8F8" fill-opacity="0.82"/>
<path d="M255 281.684L254.789 282.28C252.976 206.207 253.097 116.816 251.71 40.9984C251.516 30.3735 236.898 30.3046 237.092 40.9678C238.544 120.315 237.784 199.701 239.919 279.036C240.054 284.043 243.377 286.704 246.821 287C252.307 286.43 254.025 281.662 254.843 281.649C254.896 281.665 254.948 281.677 255 281.684Z" fill="#549754"/>
<path d="M207.281 179.152C223.661 214.353 203.534 252.705 160.005 273.054C136.6 283.995 107.793 288.614 79.9457 286.501C73.1524 287.768 64.8156 285.236 65.0031 278.86C67.3373 199.578 66.1145 120.257 69.5465 40.9883C70.0058 30.3816 93.5027 30.3033 93.0408 40.9577C91.875 67.8585 91.2528 94.7669 90.8397 121.675C143.671 118.283 190.906 143.961 207.281 179.152ZM88.7256 270.396C125.875 271.032 161.333 258.22 179.281 234.425C199.811 207.209 187.991 173.363 156.2 153.119C138.51 141.853 114.456 135.649 90.6087 138.162C90.0543 182.24 89.8886 226.324 88.7256 270.396Z" fill="#549754"/>
</svg>
