<svg width="320" height="320" viewBox="0 0 320 320" fill="none" xmlns="http://www.w3.org/2000/svg">
<rect width="320" height="320" fill="#FFF9F9" fill-opacity="0.82"/>
<path d="M185.322 40.8031C167.244 32.6747 143.086 30.6779 122.641 35.8474C74.3193 48.0629 59.9262 90.7667 89.731 117.328C104.107 130.139 125.058 137.964 145.905 145.417C168.532 153.507 189.623 162.63 205.726 176.149C220.872 188.865 229.844 204.028 229.971 220.243C230.081 234.173 224.672 249.559 209.581 259.852C188.45 274.267 155.164 273.192 133.556 259.971C108.376 244.565 98.816 221.167 89.6847 200.126C85.2623 189.934 61.0955 194.237 65.544 204.484C80.2669 238.407 104.176 284.677 168.006 286.921C223.274 288.865 254.245 254.379 254.986 221.879C255.788 186.721 222.278 156.596 178.329 138.575C159.025 130.659 136.84 125.082 119.892 114.869C102.796 104.569 94.8191 90.1177 100.978 75.1284C107.175 60.0475 127.003 47.5895 151.896 49.6378C174.494 51.4952 191.113 64.4458 192.818 79.0934C194.042 89.6137 219.077 89.734 217.841 79.1239C216.027 63.5429 205.092 49.6932 185.322 40.8031Z" fill="#549754"/>
</svg>
