<svg width="320" height="320" viewBox="0 0 320 320" fill="none" xmlns="http://www.w3.org/2000/svg">
<rect width="320" height="320" fill="#FFF8F8" fill-opacity="0.82"/>
<path d="M247.719 179.152C268.754 214.353 242.907 252.705 187.006 273.054C156.949 283.995 119.955 288.614 84.1935 286.501C75.4693 287.768 64.7632 285.236 65.004 278.86C68.0016 199.578 66.4312 120.257 70.8387 40.9883C71.4284 30.3816 101.603 30.3033 101.01 40.9577C99.5132 67.8585 98.7141 94.7669 98.1836 121.675C166.03 118.283 226.69 143.961 247.719 179.152ZM95.4686 270.396C143.176 271.032 188.712 258.22 211.761 234.425C238.126 207.209 222.946 173.363 182.12 153.119C159.403 141.853 128.512 135.649 97.8869 138.162C97.175 182.24 96.9622 226.324 95.4686 270.396Z" fill="#549754"/>
</svg>
