<svg width="320" height="320" viewBox="0 0 320 320" fill="none" xmlns="http://www.w3.org/2000/svg">
<rect width="320" height="320" fill="#FFF9F9" fill-opacity="0.82"/>
<path d="M227.159 43.2046C227.919 79.9582 229.891 116.721 228.569 153.479C227.907 171.862 226.404 190.238 223.572 208.539C221.116 224.404 218.498 241.058 204.414 254.71C193.723 265.075 175.088 271.778 155.394 270.229C135.367 268.653 120.05 258.813 110.463 248.081C89.1819 224.261 91.4907 194.245 91.1751 167.744C90.67 125.511 91.4035 83.2749 91.0548 41.0391C90.9676 30.3533 64.9758 30.2976 65.063 41.0084C65.3997 82.0701 64.7203 123.132 65.1442 164.194C65.4568 194.662 63.4697 228.214 87.3662 255.719C98.6456 268.699 116.271 280.011 138.646 284.744C160.216 289.308 185.129 286.808 203.704 278.505C224.895 269.034 237.091 253.863 242.986 238.077C250.024 219.229 251.332 199.087 252.985 179.8C256.887 134.313 254.085 88.7475 253.148 43.2354C252.928 32.5535 226.936 32.4919 227.159 43.2046Z" fill="#549754"/>
</svg>
