<svg width="320" height="320" viewBox="0 0 320 320" fill="none" xmlns="http://www.w3.org/2000/svg">
<rect width="320" height="320" fill="#FFF9F9" fill-opacity="0.82"/>
<path d="M239.158 40.6776C227.017 108.196 215.726 175.871 203.884 243.445C190.341 195.496 179.148 146.988 167.751 98.4103C165.471 88.6971 151.553 91.9049 151.796 100.884C140.955 147.949 130.388 195.069 119.271 242.065C105.139 174.647 93.3451 106.743 80.8657 38.9922C78.9361 28.5197 63.2375 32.922 65.1634 43.3695C79.7719 122.678 93.4317 202.199 111.015 280.9C112.797 288.88 124.804 288.748 126.709 280.931C138.353 233.172 149.206 185.233 160.153 137.309C171.537 185.572 183.318 233.653 198.009 281.067C200.24 288.269 212.177 289.645 213.704 281.098C227.738 202.497 240.716 123.702 254.845 45.1181C256.718 34.6878 241.044 30.184 239.158 40.6776Z" fill="#549754"/>
</svg>
