<svg width="320" height="320" viewBox="0 0 320 320" fill="none" xmlns="http://www.w3.org/2000/svg">
<rect width="320" height="320" fill="#FFF9F9" fill-opacity="0.82"/>
<path d="M171.793 160.019C199.047 121.92 226.301 83.8207 253.532 45.7098C260.161 36.4322 242.572 28.0082 235.953 37.2723C210.662 72.6677 185.35 108.052 160.039 143.437C134.89 107.977 109.739 72.5136 84.6108 37.0411C78.0406 27.7653 60.4001 36.118 66.9914 45.4246C94.0475 83.6183 121.127 121.801 148.207 159.983C120.953 198.082 93.6987 236.179 66.4681 274.29C59.839 283.568 77.4277 291.992 84.0473 282.728C109.338 247.332 134.649 211.948 159.961 176.564C185.11 212.025 210.261 247.486 235.389 282.959C241.959 292.235 259.6 283.882 253.008 274.575C225.952 236.382 198.873 198.201 171.793 160.019Z" fill="#549754"/>
</svg>
