<svg width="320" height="320" viewBox="0 0 320 320" fill="none" xmlns="http://www.w3.org/2000/svg">
<rect width="320" height="320" fill="#FFF9F9" fill-opacity="0.82"/>
<path d="M232.902 39.0494C209.156 75.2603 188.101 112.241 164.805 148.579C137.421 111.958 113.377 74.2407 87.2831 37.2047C80.5981 27.7149 59.63 35.9623 66.2898 45.4181C95.3445 86.6533 121.863 128.733 153.274 169.205C152.974 205.837 153.538 242.469 153.634 279.101C153.662 289.602 177.947 289.654 177.919 279.131C177.824 242.558 177.259 205.988 177.557 169.415C204.201 129.063 227.355 87.7107 253.848 47.3138C260.095 37.7938 239.2 29.4482 232.902 39.0494Z" fill="#549754"/>
</svg>
