<svg width="320" height="320" viewBox="0 0 320 320" fill="none" xmlns="http://www.w3.org/2000/svg">
<rect width="320" height="320" fill="#FFF9F9" fill-opacity="0.82"/>
<path d="M237.909 256.873C192.807 257.255 147.705 256.971 102.603 256.787C131.023 220.229 157.13 183.148 182.333 145.884C196.049 125.602 209.841 105.32 223.074 84.9394C228.933 75.9154 235.084 66.7445 239.492 57.4699C241.72 52.7877 235.354 48.0088 226.429 48.0019C182.776 47.9708 139.129 48.3336 95.4751 48.2265C77.9949 48.1833 77.9195 63.1214 95.4248 63.1646C133.031 63.2562 170.636 63.0125 208.245 62.9607C204.792 68.8817 200.912 74.756 197.146 80.563C184.262 100.422 170.818 120.182 157.466 139.948C130.109 180.449 101.856 220.791 70.4328 260.399C66.4492 265.422 70.9073 271.616 82.123 271.65C134.036 271.808 185.952 272.25 237.861 271.811C255.32 271.663 255.423 256.724 237.909 256.873Z" fill="#549754"/>
</svg>
